<svg viewBox="-54 0 512 512" xmlns="http://www.w3.org/2000/svg"><path d="m10 10h384v492h-384zm0 0" fill="#fff"/><path d="m342 106h-280l28-27.664062-28-28.335938h280l-28.164062 28.335938zm0 0" fill="#ffc66c"/><path d="m218.355469 396.089844c-6.390625 0-12.15625 2.789062-16.226563 7.257812-4.074218-4.46875-9.839844-7.257812-16.230468-7.257812-12.335938 0-22.339844 10.386718-22.339844 23.191406 0 21.59375 38.570312 42.65625 38.570312 42.65625s38.566406-21.0625 38.566406-42.65625c0-12.804688-10.003906-23.191406-22.339843-23.191406zm0 0" fill="#ff5d5d"/><path d="m394 0h-384c-5.523438 0-10 4.476562-10 10v492c0 5.523438 4.476562 10 10 10h384c5.523438 0 10-4.476562 10-10v-492c0-5.523438-4.476562-10-10-10zm-10 492h-364v-472h364zm0 0"/><path d="m202 60c2.628906 0 5.210938-1.070312 7.070312-2.929688 1.859376-1.859374 2.929688-4.441406 2.929688-7.070312s-1.070312-5.210938-2.929688-7.070312c-1.859374-1.859376-4.441406-2.929688-7.070312-2.929688s-5.210938 1.070312-7.070312 2.929688c-1.859376 1.859374-2.929688 4.441406-2.929688 7.070312s1.070312 5.210938 2.929688 7.070312c1.859374 1.859376 4.441406 2.929688 7.070312 2.929688zm0 0"/><path d="m75.855469 78.25-20.882813 20.636719c-2.886718 2.851562-3.765625 7.160156-2.222656 10.914062 1.539062 3.75 5.191406 6.199219 9.25 6.199219h280c4.058594 0 7.71875-2.457031 9.253906-6.214844 1.539063-3.757812.648438-8.074218-2.246094-10.917968l-20.988281-20.617188 21.074219-21.199219c2.847656-2.867187 3.691406-7.160156 2.140625-10.890625-1.550781-3.730468-5.195313-6.160156-9.234375-6.160156h-98.382812c-5.523438 0-10 4.476562-10 10s4.476562 10 10 10h74.34375l-11.21875 11.285156c-1.878907 1.886719-2.925782 4.445313-2.90625 7.109375.015624 2.664063 1.089843 5.207031 2.988281 7.074219l10.726562 10.53125h-231.203125l10.679688-10.550781c1.886718-1.863281 2.957031-4.402344 2.972656-7.054688.015625-2.652343-1.019531-5.203125-2.886719-7.089843l-11.171875-11.304688h71.78125c5.523438 0 10-4.476562 10-10s-4.476562-10-10-10h-95.722656c-4.035156 0-7.671875 2.425781-9.226562 6.144531-1.554688 3.722657-.722657 8.015625 2.113281 10.882813zm0 0"/><path d="m218.355469 386.089844c-5.730469 0-11.335938 1.585937-16.230469 4.492187-4.890625-2.90625-10.492188-4.492187-16.226562-4.492187-17.832032 0-32.339844 14.890625-32.339844 33.191406 0 26.753906 39.292968 48.984375 43.773437 51.433594 1.492188.8125 3.144531 1.222656 4.792969 1.222656s3.300781-.410156 4.792969-1.222656c4.480469-2.449219 43.773437-24.679688 43.773437-51.433594.003906-18.300781-14.503906-33.191406-32.335937-33.191406zm-16.238281 64.253906c-12.921876-8.066406-28.558594-21.59375-28.558594-31.058594 0-7.273437 5.535156-13.191406 12.339844-13.191406 3.355468 0 6.492187 1.414062 8.835937 3.988281 1.898437 2.078125 4.578125 3.265625 7.390625 3.265625h.003906c2.8125 0 5.492188-1.1875 7.390625-3.261718 2.34375-2.574219 5.484375-3.992188 8.835938-3.992188 6.804687 0 12.339843 5.917969 12.339843 13.191406 0 9.421875-15.652343 22.96875-28.578124 31.058594zm0 0"/><path d="m348.5 419.015625h-48.25c-5.523438 0-10 4.476563-10 10 0 5.519531 4.476562 10 10 10h48.25c5.523438 0 10-4.480469 10-10 0-5.523437-4.476562-10-10-10zm0 0"/><path d="m110 419.015625h-48.25c-5.523438 0-10 4.476563-10 10 0 5.519531 4.476562 10 10 10h48.25c5.523438 0 10-4.480469 10-10 0-5.523437-4.476562-10-10-10zm0 0"/><path d="m137.875 187.375c0-25.363281-20.636719-46-46-46h-8c-5.523438 0-10 4.476562-10 10v72c0 5.523438 4.476562 10 10 10h8c25.363281 0 46-20.636719 46-46zm-44 25.925781v-51.847656c13.40625 1.023437 24 12.257813 24 25.921875s-10.59375 24.898438-24 25.925781zm0 0"/><path d="m160.660156 226.664062 2.015625-5.789062h27.996094l2.015625 5.789062c1.4375 4.125 5.304688 6.714844 9.445312 6.714844 1.089844 0 2.199219-.179687 3.285157-.558594 5.21875-1.816406 7.972656-7.515624 6.15625-12.730468l-25.457031-73.125c-1.398438-4.019532-5.1875-6.714844-9.445313-6.714844-4.253906 0-8.042969 2.695312-9.441406 6.714844l-25.460938 73.125c-1.816406 5.214844.941407 10.914062 6.15625 12.730468 5.21875 1.816407 10.917969-.941406 12.734375-6.15625zm16.015625-46 7.035157 20.210938h-14.074219zm0 0"/><path d="m238.5 233.375c5.523438 0 10-4.476562 10-10v-62h6.699219c5.523437 0 10-4.476562 10-10s-4.476563-10-10-10h-33.398438c-5.523437 0-10 4.476562-10 10s4.476563 10 10 10h6.699219v62c0 5.523438 4.476562 10 10 10zm0 0"/><path d="m318.269531 161.375c5.523438 0 10-4.476562 10-10s-4.476562-10-10-10h-32.125c-5.523437 0-10 4.476562-10 10v72c0 5.523438 4.476563 10 10 10h32.125c5.523438 0 10-4.476562 10-10s-4.476562-10-10-10h-22.125v-16h15.125c5.523438 0 10-4.476562 10-10s-4.476562-10-10-10h-15.125v-16zm0 0"/><path d="m192.335938 287.605469c5.519531 0 10-4.476563 10-10 0-5.523438-4.480469-10-10-10-17.648438 0-32 14.355469-32 32v28c0 17.644531 14.351562 32 32 32 17.644531 0 32-14.355469 32-32v-14c0-5.523438-4.480469-10-10-10h-11.957032c-5.523437 0-10 4.476562-10 10 0 5.523437 4.476563 10 10 10h1.957032v4c0 6.617187-5.386719 12-12 12-6.617188 0-12-5.382813-12-12v-28c0-6.617188 5.382812-12 12-12zm0 0"/><path d="m318.269531 267.605469c-5.519531 0-10 4.476562-10 10 0 5.523437 4.480469 10 10 10h6.703125v62c0 5.523437 4.476563 10 10 10 5.519532 0 10-4.476563 10-10v-62h6.699219c5.519531 0 10-4.476563 10-10 0-5.523438-4.480469-10-10-10zm0 0"/><path d="m58.335938 359.605469c5.519531 0 10-4.476563 10-10v-33.410157l21.257812 38.265626c1.792969 3.230468 5.171875 5.144531 8.738281 5.144531.832031 0 1.675781-.101563 2.511719-.320313 4.410156-1.140625 7.492188-5.125 7.492188-9.679687v-72c0-5.523438-4.480469-10-10-10-5.523438 0-10 4.476562-10 10v33.410156l-21.261719-38.265625c-2.210938-3.984375-6.835938-5.96875-11.25-4.824219-4.410157 1.144531-7.488281 5.125-7.488281 9.679688v72c0 5.523437 4.476562 10 10 10zm0 0"/><path d="m133.667969 267.605469c-5.523438 0-10 4.476562-10 10v72c0 5.523437 4.476562 10 10 10 5.519531 0 10-4.476563 10-10v-72c0-5.523438-4.480469-10-10-10zm0 0"/><path d="m293.667969 349.605469v-72c0-5.523438-4.480469-10-10-10-5.523438 0-10 4.476562-10 10v26h-12.394531v-26c0-5.523438-4.476563-10-10-10-5.523438 0-10 4.476562-10 10v72c0 5.523437 4.476562 10 10 10 5.523437 0 10-4.476563 10-10v-26h12.394531v26c0 5.523437 4.476562 10 10 10 5.519531 0 10-4.476563 10-10zm0 0"/></svg>