<svg viewBox="0 -1 512.00076 512" xmlns="http://www.w3.org/2000/svg"><g fill="#feda9b"><path d="m408.296875 369.871094c-9.449219 9.664062-24.644531 10.191406-34.730469 1.597656l15.1875 15.1875c9.953125 9.953125 9.953125 26.09375 0 36.046875-9.464844 9.464844-24.515625 9.925781-34.53125 1.390625l15.570313 15.570312c9.953125 9.953126 9.953125 26.09375 0 36.046876-9.953125 9.953124-26.09375 9.953124-36.046875 0l-15.570313-15.570313c8.59375 10.085937 8.066407 25.28125-1.59375 34.734375-10.046875 9.824219-26.28125 9.359375-36.21875-.578125l-117.625-117.625c-1.785156-1.785156-4.648437.460937-3.339843 2.617187l21.671874 35.746094c7.179688 11.84375 4.265626 27.457032-7.097656 35.371094-11.949218 8.320312-28.410156 5.230469-36.523437-6.871094l-44.003907-65.625c-10.195312-15.203125-15.664062-33.082031-15.714843-51.386718l-.136719-49.265626-67.59375-67.59375.242188-196.386718 165.664062 165.667968 39.058594.109376c24.503906.066406 47.988281 9.832031 65.3125 27.160156l127.441406 127.441406c9.9375 9.933594 10.40625 26.167969.578125 36.214844zm0 0"/><path d="m409.347656 409.699219c4.097656 9.339843 2.324219 20.632812-5.320312 28.277343-7.230469 7.230469-17.722656 9.210938-26.738282 5.9375l-8.84375-9.21875 33.125-33.125zm0 0"/><path d="m502.007812 66.160156-143.210937 143.210938-42.292969.117187c-15.710937.042969-31.058594 4.738281-44.109375 13.488281l-56.332031 37.773438c-10.40625 6.976562-13.050781 21.136719-5.867188 31.402344 6.757813 9.648437 19.839844 12.402344 29.914063 6.292968l31.097656-18.851562c1.855469-1.125 3.78125 1.332031 2.25 2.863281l-86.96875 86.96875c-8.542969 8.542969-8.542969 22.398438 0 30.941407 8.546875 8.546874 22.398438 8.546874 30.945313 0l40.078125-40.074219 28.675781-28.789063-69.015625 69.015625c-8.542969 8.546875-8.542969 22.398438 0 30.945313 8.546875 8.542968 22.402344 8.542968 30.945313 0l69.015624-69.015625-14.089843 13.980469-54.402344 54.402343c-8.546875 8.546875-8.546875 22.398438 0 30.945313 8.546875 8.542968 22.398437 8.542968 30.945313 0l54.398437-54.402344-14.75 14.640625-40.113281 40.117187c-8.546875 8.542969-8.546875 22.398438 0 30.941407 8.542968 8.546875 22.398437 8.546875 30.945312 0l72.957032-72.957031-23.207032 23.207031 59.96875-59.96875c14.871094-14.871094 23.253906-35.03125 23.3125-56.066407l.09375-33.527343 58.808594-58.804688zm0 0"/></g><path d="m277.511719 10c-8.421875 0-16.019531 3.6875-21.382813 9.597656-5.367187-5.910156-12.960937-9.597656-21.386718-9.597656-16.253907 0-29.433594 13.738281-29.433594 30.683594 0 28.566406 50.820312 56.433594 50.820312 56.433594s50.820313-27.863282 50.820313-56.433594c0-16.945313-13.179688-30.683594-29.4375-30.683594zm0 0" fill="#ff5d5d"/><path d="m353.78125 108.765625c-5.015625 0-9.542969 2.199219-12.738281 5.71875-3.195313-3.519531-7.71875-5.71875-12.734375-5.71875-9.6875 0-17.535156 8.183594-17.535156 18.277344 0 17.015625 30.269531 33.617187 30.269531 33.617187s30.273437-16.601562 30.273437-33.617187c0-10.09375-7.851562-18.277344-17.535156-18.277344zm0 0" fill="#ff5d5d"/><path d="m494.925781 227.886719-58.808593 58.808593c-1.867188 1.867188-2.917969 4.398438-2.929688 7.042969l-.09375 33.527344c-.050781 18.519531-7.289062 35.929687-20.382812 49.019531l-109.71875 109.722656c-2.246094 2.242188-5.226563 3.476563-8.398438 3.476563-3.175781 0-6.160156-1.234375-8.402344-3.476563-2.246094-2.246093-3.480468-5.230468-3.480468-8.402343 0-2.890625 1.035156-5.621094 2.917968-7.777344.347656-.320313.691406-.640625 1.027344-.976563l54.398438-54.402343c3.90625-3.90625 3.90625-10.238281 0-14.144531-3.90625-3.902344-10.234376-3.902344-14.140626 0l-54.867187 54.757812c-.148437.148438-.285156.300781-.429687.453125-2.113282 1.730469-4.738282 2.671875-7.503907 2.671875-3.175781 0-6.15625-1.234375-8.402343-3.480469-4.332032-4.332031-4.609376-11.207031-.835938-15.871093.105469-.101563.210938-.195313.316406-.296876l54.921875-55.03125c3.90625-3.90625 3.90625-10.238281 0-14.144531s-10.234375-3.90625-14.140625 0l-54.402344 54.402344c-.378906.375-.746093.761719-1.101562 1.15625-2.167969 1.902344-4.910156 2.953125-7.820312 2.953125-3.175782 0-6.15625-1.234375-8.402344-3.480469-4.410156-4.410156-4.613282-11.449219-.625-16.109375.300781-.277344.597656-.554687.886718-.84375l53.347657-53.457031c3.90625-3.902344 3.90625-10.234375 0-14.140625s-10.234375-3.90625-14.144531 0l-53.609376 53.605469c-.203124.207031-.398437.417969-.597656.628906-2.121094 1.75-4.757812 2.703125-7.542968 2.703125-3.171876 0-6.15625-1.238281-8.402344-3.480469-4.632813-4.632812-4.632813-12.167969 0-16.800781l86.972656-86.972656c4.226562-4.230469 4.628906-10.96875.9375-15.671875s-10.328125-5.914063-15.441406-2.8125l-31.105469 18.855469c-5.546875 3.359374-12.808594 1.835937-16.535156-3.480469-1.917969-2.746094-2.636719-6.070313-2.023438-9.363281.617188-3.292969 2.484375-6.132813 5.265625-7.996094l56.332032-37.773438c11.449218-7.679687 24.789062-11.757812 38.570312-11.796875l42.292969-.117187c2.644531-.007813 5.175781-1.058594 7.042969-2.929688l117.023437-117.019531c3.90625-3.90625 3.90625-10.238281 0-14.144531-3.90625-3.902344-10.234375-3.902344-14.144531 0l-114.101563 114.105468-38.167969.105469c-8.578124.023438-17.019531 1.273438-25.117187 3.664063l-4.007813-4.007813c-19.328124-19.328125-45.027343-30.015625-72.359374-30.089843l-34.933594-.097657-162.746094-162.75c-3.902344-3.902343-10.234375-3.902343-14.144531 0-3.902344 3.90625-3.902344 10.238281 0 14.144531l165.667969 165.664063c1.867187 1.867187 4.402343 2.921875 7.042968 2.929687l39.058594.109376c21.25.058593 41.257812 8.101562 56.625 22.664062-1.605469.933594-3.1875 1.914062-4.738281 2.953125l-56.332031 37.773437c-7.28125 4.882813-12.179688 12.320313-13.789063 20.9375-1.609375 8.621094.273437 17.320313 5.304687 24.503907 6.566407 9.386719 17.367188 14.257812 28.140626 13.742187l-50.730469 50.726563c-4.621094 4.625-7.523438 10.324219-8.707031 16.304687l-2.757813-4.550781c-2.863281-4.722656-9.011719-6.230469-13.734375-3.371094-4.726562 2.863281-6.230469 9.015625-3.371094 13.738281l21.964844 36.226563c4.367188 7.207031 2.382812 16.640625-4.519531 21.472656-3.5625 2.492188-7.875 3.425781-12.152344 2.628907-4.273437-.796876-7.960937-3.226563-10.382813-6.839844l-44.007812-65.621094c-9.125-13.609375-13.972656-29.460938-14.019531-45.847656l-.136719-49.265625c-.007812-2.644531-1.0625-5.175781-2.929688-7.042969l-67.59375-67.59375c-3.902343-3.902344-10.234374-3.90625-14.140624 0-3.90625 3.902344-3.90625 10.234375 0 14.140625l64.675781 64.675781.125 45.144532c.058593 20.34375 6.078125 40.03125 17.40625 56.925781l44.007812 65.625c5.4375 8.113281 13.722657 13.566406 23.324219 15.359375 2.238281.417968 4.480469.625 6.707031.625 7.320313 0 14.453125-2.234375 20.589844-6.53125 13.949219-9.769532 18.949219-27.898438 12.664063-43.226563 2.679687.835938 5.480468 1.316407 8.351562 1.421875.191406 8.230469 3.476562 15.941406 9.320312 21.785156 5.929688 5.929688 13.789063 9.230469 22.164063 9.328126.378906 7.929687 3.648437 15.332031 9.300781 20.984374 5.867188 5.867188 13.46875 8.960938 21.171875 9.289063.132813 7.984375 3.226563 15.929687 9.308594 22.007813 6.214844 6.21875 14.378906 9.324218 22.542969 9.324218 8.164062 0 16.328125-3.105468 22.542968-9.324218l14.003907-14.003907c6.671875 4.535157 14.105469 6.824219 21.402343 6.820313 8.859376 0 17.515626-3.375 24.324219-10.183594 7.5-7.5 10.925781-17.546875 10.292969-27.382812 8.855469-.304688 17.484375-3.890626 23.941406-10.347657 10.421875-10.421875 13.328125-25.875 7.40625-39.367187-.695312-1.582032-1.75-2.894532-3.023437-3.878906l11.371093-11.375c16.859376-16.855469 26.179688-39.269532 26.246094-63.105469l.082032-29.40625 55.890624-55.886719c3.902344-3.90625 3.902344-10.238281 0-14.144531-3.910156-3.90625-10.238281-3.90625-14.144531 0zm-132.207031 240.75c-4.597656 4.601562-10.917969 5.484375-16.929688 2.855469l20.109376-20.109376c2.527343 5.691407 1.480468 12.597657-3.179688 17.253907zm34.234375-37.730469c-3.839844 3.84375-9.441406 5.355469-14.65625 4.078125l7.796875-7.792969 10.949219-10.953125c1.304687 5.222657-.175781 10.753907-4.089844 14.667969zm0 0"/><path d="m502.011719 76.160156c2.628906 0 5.199219-1.070312 7.070312-2.929687 1.859375-1.859375 2.917969-4.441407 2.917969-7.070313s-1.058594-5.210937-2.917969-7.070312c-1.871093-1.859375-4.441406-2.929688-7.070312-2.929688-2.640625 0-5.210938 1.070313-7.078125 2.929688-1.863282 1.859375-2.933594 4.441406-2.933594 7.070312s1.070312 5.210938 2.933594 7.070313c1.855468 1.859375 4.4375 2.929687 7.078125 2.929687zm0 0"/><path d="m251.320312 105.886719c1.496094.820312 3.152344 1.230469 4.808594 1.230469s3.3125-.410157 4.808594-1.230469c5.730469-3.144531 56.011719-31.679688 56.011719-65.203125 0-22.433594-17.691407-40.683594-39.4375-40.683594-7.621094 0-15.058594 2.308594-21.382813 6.511719-6.328125-4.203125-13.765625-6.511719-21.382812-6.511719-21.746094 0-39.4375 18.25-39.4375 40.683594 0 33.523437 50.277344 62.058594 56.011718 65.203125zm-16.578124-85.886719c5.316406 0 10.28125 2.246094 13.980468 6.320312 1.898438 2.089844 4.585938 3.277344 7.402344 3.277344 2.820312 0 5.511719-1.1875 7.40625-3.277344 3.699219-4.074218 8.664062-6.320312 13.980469-6.320312 10.714843 0 19.433593 9.28125 19.433593 20.683594 0 15.003906-23.316406 34.246094-40.796874 44.867187-14.273438-8.777343-40.84375-28.476562-40.84375-44.867187.003906-11.402344 8.722656-20.683594 19.4375-20.683594zm0 0"/><path d="m300.773438 127.042969c0 21.832031 29.539062 39.136719 35.460937 42.386719 1.5.820312 3.152344 1.230468 4.808594 1.230468s3.3125-.410156 4.808593-1.230468c5.921876-3.25 35.464844-20.554688 35.464844-42.386719 0-15.589844-12.351562-28.273438-27.535156-28.273438-4.464844 0-8.835938 1.128907-12.734375 3.214844-3.902344-2.085937-8.273437-3.214844-12.738281-3.214844-15.1875-.003906-27.535156 12.683594-27.535156 28.273438zm27.53125-8.277344c2.011718 0 3.90625.867187 5.335937 2.4375 1.894531 2.089844 4.582031 3.28125 7.402344 3.28125 2.820312 0 5.507812-1.191406 7.402343-3.28125 1.429688-1.570313 3.324219-2.4375 5.335938-2.4375 4.152344 0 7.53125 3.714844 7.53125 8.277344 0 6.140625-10.621094 15.6875-20.269531 21.953125-9.519531-6.207032-20.273438-15.871094-20.273438-21.953125.003907-4.5625 3.382813-8.277344 7.535157-8.277344zm0 0"/></svg>