<svg viewBox="-42 1 511 511.99977" xmlns="http://www.w3.org/2000/svg"><path d="m70.101562 69.601562c-79.601562 79.601563-79.601562 208.664063 0 288.265626l144.132813 144.128906 144.132813-144.128906c79.601562-79.601563 79.601562-208.664063 0-288.265626-79.601563-79.601562-208.664063-79.601562-288.265626 0zm0 0" fill="#ffb954"/><path d="m352.96875 213.816406c0 76.621094-62.113281 138.734375-138.734375 138.734375s-138.734375-62.113281-138.734375-138.734375 62.113281-138.734375 138.734375-138.734375 138.734375 62.113281 138.734375 138.734375zm0 0" fill="#fff"/><path d="m247.027344 158.746094c-12.917969 0-24.5625 5.632812-32.792969 14.660156-8.230469-9.027344-19.875-14.660156-32.792969-14.660156-24.929687 0-45.140625 20.984375-45.140625 46.867187 0 43.632813 77.933594 86.195313 77.933594 86.195313s77.933594-42.5625 77.933594-86.195313c0-25.882812-20.210938-46.867187-45.140625-46.867187zm0 0" fill="#ff5d5d"/><path d="m214.234375 512c-2.652344 0-5.195313-1.054688-7.074219-2.929688l-144.128906-144.132812c-83.375-83.371094-83.375-219.03125 0-302.40625s219.03125-83.375 302.40625 0c83.375 83.371094 83.375 219.03125 0 302.40625l-40.636719 40.636719c-3.90625 3.90625-10.238281 3.90625-14.144531 0s-3.90625-10.238281 0-14.144531l40.636719-40.636719c75.574219-75.574219 75.574219-198.542969 0-274.117188-75.574219-75.574219-198.542969-75.574219-274.117188 0-75.574219 75.574219-75.574219 198.542969 0 274.117188l137.058594 137.058593 42.257813-42.257812c3.90625-3.902344 10.238281-3.902344 14.144531 0 3.90625 3.90625 3.90625 10.238281 0 14.148438l-49.328125 49.328124c-1.878906 1.875-4.421875 2.929688-7.074219 2.929688zm0 0"/><path d="m292.167969 434.0625c-2.628907 0-5.210938-1.066406-7.070313-2.929688-1.859375-1.859374-2.929687-4.441406-2.929687-7.070312 0-2.632812 1.070312-5.210938 2.929687-7.070312 1.859375-1.863282 4.441406-2.933594 7.070313-2.933594 2.632812 0 5.210937 1.070312 7.070312 2.933594 1.863281 1.859374 2.933594 4.4375 2.933594 7.070312 0 2.628906-1.070313 5.210938-2.933594 7.070312-1.859375 1.863282-4.4375 2.929688-7.070312 2.929688zm0 0"/><path d="m214.234375 301.808594c-1.648437 0-3.300781-.40625-4.792969-1.222656-.832031-.453126-20.554687-11.289063-40.542968-27.804688-28.269532-23.351562-42.601563-45.945312-42.601563-67.167969 0-31.359375 24.738281-56.867187 55.144531-56.867187 11.835938 0 23.363282 3.984375 32.792969 11.160156 9.429687-7.175781 20.957031-11.160156 32.792969-11.160156 30.40625 0 55.144531 25.507812 55.144531 56.867187 0 21.222657-14.332031 43.820313-42.601563 67.167969-19.988281 16.515625-39.710937 27.351562-40.542968 27.804688-1.492188.816406-3.144532 1.222656-4.792969 1.222656zm-32.792969-133.058594c-19.375 0-35.140625 16.535156-35.140625 36.863281 0 28.652344 45.269531 61.300781 67.933594 74.679688 22.660156-13.378907 67.933594-46.027344 67.933594-74.679688 0-20.328125-15.765625-36.863281-35.140625-36.863281-9.683594 0-18.703125 4.046875-25.402344 11.394531-1.894531 2.082031-4.574219 3.265625-7.390625 3.265625s-5.496094-1.183594-7.390625-3.265625c-6.699219-7.347656-15.71875-11.394531-25.402344-11.394531zm0 0"/><path d="m214.234375 362.550781c-39.730469 0-77.078125-15.46875-105.171875-43.5625-57.992188-57.992187-57.992188-152.351562 0-210.34375 23.3125-23.3125 52.867188-37.925781 85.46875-42.261719 31.550781-4.191406 64.175781 1.960938 91.859375 17.332032 4.828125 2.679687 6.570313 8.769531 3.890625 13.597656-2.683594 4.832031-8.769531 6.570312-13.601562 3.890625-49.929688-27.726563-113.042969-18.847656-153.472657 21.585937-50.191406 50.191407-50.191406 131.863282 0 182.054688 24.316407 24.3125 56.644531 37.703125 91.027344 37.703125 34.386719 0 66.714844-13.390625 91.027344-37.703125 40.550781-40.550781 49.355469-103.789062 21.414062-153.785156-2.695312-4.820313-.972656-10.914063 3.851563-13.609375 4.820312-2.691407 10.914062-.972657 13.609375 3.851562 15.484375 27.707031 21.71875 60.386719 17.558593 92.023438-4.300781 32.679687-18.925781 62.300781-42.289062 85.664062-28.09375 28.09375-65.441406 43.5625-105.171875 43.5625zm0 0"/><path d="m312.6875 126.070312c-2.574219 0-5.148438-.988281-7.105469-2.960937l-.292969-.292969c-3.921874-3.890625-3.945312-10.222656-.058593-14.144531 3.890625-3.921875 10.226562-3.945313 14.144531-.058594l.410156.410157c3.890625 3.921874 3.863282 10.257812-.058594 14.144531-1.949218 1.9375-4.496093 2.902343-7.039062 2.902343zm0 0"/></svg>