<svg viewBox="0 -47 512 512" xmlns="http://www.w3.org/2000/svg"><path d="m10 10h492v397.667969h-492zm0 0" fill="#72d8ff"/><g fill="#fe8f8d"><path d="m448.234375 232.675781c14.550781 13.699219 33.78125 21.324219 53.765625 21.324219v-244h-120v69.371094c0 58.050781 23.96875 113.519531 66.234375 153.304687zm0 0"/><path d="m382 407.667969h120v-153.667969c-62.539062 22.355469-107.890625 77.066406-118.261719 142.671875zm0 0"/><path d="m63.765625 232.675781c-14.550781 13.695313-33.78125 21.324219-53.765625 21.324219v-244h120v69.371094c0 58.050781-23.964844 113.519531-66.234375 153.304687zm0 0"/><path d="m130 407.667969h-120v-153.667969c62.539062 22.355469 107.890625 77.066406 118.261719 142.671875zm0 0"/></g><path d="m220.28125 321.28125c-45.828125 11.972656-94.003906-8.160156-117.6875-49.179688l-27.425781-47.503906 133.941406-77.332031 27.425781 47.507813c23.683594 41.015624 17.03125 92.804687-16.253906 126.507812zm0 0" fill="#feda9b"/><path d="m238.304688 197.96875c.492187-2.597656 1.082031-5.191406 1.773437-7.777344l14.199219-52.984375 149.390625 40.027344-14.195313 52.984375c-12.261718 45.753906-53.585937 77.667969-100.949218 77.964844-17.269532-10.117188-30.785157-24.582032-39.707032-41.371094zm0 0" fill="#ffc66c"/><path d="m502 0h-268.058594c-5.523437 0-10 4.476562-10 10s4.476563 10 10 10h138.058594v59.371094c0 28.816406 5.738281 57.164062 16.492188 83.445312l-131.628907-35.265625c-5.335937-1.433593-10.816406 1.734375-12.246093 7.070313l-9.910157 36.984375-16.9375-29.335938c-1.324219-2.296875-3.507812-3.972656-6.070312-4.660156s-5.292969-.328125-7.589844 1l-96.535156 55.734375c20.945312-34.359375 32.425781-74.203125 32.425781-114.972656v-69.371094c0-5.523438-4.476562-10-10-10h-120c-5.523438 0-10 4.476562-10 10v397.667969c0 5.519531 4.476562 10 10 10h492c5.523438 0 10-4.480469 10-10v-397.667969c0-5.523438-4.476562-10-10-10zm-10 243.273438c-13.777344-2.019532-26.621094-8.191407-36.910156-17.878907-40.09375-37.738281-63.089844-90.960937-63.089844-146.023437v-59.371094h100zm-50.617188-3.316407c8.265626 7.78125 17.804688 13.804688 28.117188 17.878907-50.730469 28.394531-86.378906 78.691406-95.636719 137.273437l-.40625 2.554687h-234.914062l-.402344-2.554687c-9.261719-58.585937-44.910156-108.882813-95.640625-137.273437 10.3125-4.074219 19.855469-10.097657 28.121094-17.878907.40625-.382812.796875-.773437 1.199218-1.160156l22.117188 38.304687c20.886719 36.175782 59.476562 57.578126 99.917969 57.578126 9.617187 0 19.34375-1.210938 28.957031-3.726563 1.738281-.453125 3.324219-1.367187 4.585938-2.644531 11.035156-11.175782 19.375-24.214844 24.941406-38.203125 8.65625 10.640625 19.171875 19.703125 31.128906 26.707031 1.535156.898438 3.277344 1.371094 5.054688 1.371094h.0625c51.703124-.324219 97.164062-35.429688 110.546874-85.375l8.808594-32.886719c9.464844 14.53125 20.65625 28.003906 33.441406 40.035156zm-180.035156-90.503906 130.074219 34.855469-11.609375 43.324218c-10.820312 40.382813-47.015625 69.027344-88.597656 70.492188-13.253906-8.285156-24.242188-19.683594-32.027344-33.214844 3.523438-22.875.203125-46.757812-10.382812-68.320312.289062-1.277344.59375-2.550782.933593-3.8125zm-55.898437 11.472656 22.425781 38.847657c20.902344 36.203124 15.566406 82.050781-12.800781 112.492187-40.546875 9.34375-82.914063-8.957031-103.816407-45.164063l-22.429687-38.84375zm-185.449219-140.925781h100v59.371094c0 55.066406-22.996094 108.285156-63.089844 146.023437-10.289062 9.6875-23.132812 15.859375-36.910156 17.878907zm0 377.664062v-119.816406c14.269531 16.25 22.335938 37.402344 22.335938 59.152344 0 5.519531 4.476562 10 10 10 5.519531 0 10-4.480469 10-10 0-17.765625-4.398438-35.207031-12.515626-50.753906 36.125 26.273437 61.148438 66.042968 68.476563 111.417968zm373.707031 0c7.328125-45.375 32.347657-85.144531 68.472657-111.417968-8.117188 15.546875-12.511719 32.988281-12.511719 50.753906 0 5.519531 4.476562 10 10 10 5.519531 0 10-4.480469 10-10 0-21.75 8.0625-42.898438 22.332031-59.152344v119.816406zm0 0"/><path d="m184.398438 20.003906c2.632812 0 5.203124-1.070312 7.070312-2.933594 1.859375-1.867187 2.929688-4.4375 2.929688-7.066406 0-2.640625-1.070313-5.210937-2.929688-7.070312-1.859375-1.871094-4.4375-2.92968775-7.070312-2.92968775-2.640626 0-5.207032 1.05859375-7.070313 2.92968775-1.867187 1.859375-2.929687 4.429687-2.929687 7.070312 0 2.628906 1.0625 5.199219 2.929687 7.066406 1.863281 1.863282 4.441406 2.933594 7.070313 2.933594zm0 0"/><path d="m181.808594 232.355469c.867187.230469 1.738281.34375 2.59375.34375 4.417968 0 8.457031-2.949219 9.65625-7.417969.917968-3.425781 4.457031-5.464844 7.882812-4.550781 5.339844 1.429687 10.820313-1.734375 12.25-7.070313 1.429688-5.335937-1.738281-10.816406-7.074218-12.246094-14.078126-3.773437-28.605469 4.613282-32.378907 18.691407-1.429687 5.335937 1.738281 10.820312 7.070313 12.25zm0 0"/><path d="m130.125 262.195312c.867188.230469 1.738281.34375 2.59375.34375 4.417969 0 8.457031-2.945312 9.652344-7.414062.921875-3.429688 4.457031-5.46875 7.886718-4.554688 5.335938 1.433594 10.816407-1.738281 12.25-7.070312 1.429688-5.335938-1.738281-10.816406-7.074218-12.246094-14.074219-3.777344-28.605469 4.609375-32.378906 18.691406-1.429688 5.335938 1.734374 10.820313 7.070312 12.25zm0 0"/><path d="m179.214844 287.539062c2.277344.609376 4.589844.914063 6.886718.914063 4.582032 0 9.101563-1.203125 13.175782-3.554687 6.117187-3.53125 10.492187-9.234376 12.316406-16.054688 1.429688-5.335938-1.734375-10.816406-7.070312-12.246094-5.335938-1.433594-10.816407 1.738282-12.246094 7.070313-.917969 3.429687-4.457032 5.46875-7.886719 4.554687-5.335937-1.433594-10.816406 1.734375-12.246094 7.070313-1.429687 5.335937 1.734375 10.816406 7.070313 12.246093zm0 0"/><path d="m289.492188 215.867188c4.480468 0 9.023437-1.140626 13.175781-3.539063 4.78125-2.757813 6.421875-8.875 3.660156-13.65625-2.757813-4.78125-8.875-6.425781-13.660156-3.660156-3.070313 1.773437-7.019531.714843-8.796875-2.359375-2.757813-4.78125-8.871094-6.421875-13.65625-3.660156-4.785156 2.761718-6.425782 8.878906-3.660156 13.660156 4.890624 8.472656 13.792968 13.214844 22.9375 13.214844zm0 0"/><path d="m347.136719 231.3125c4.480469 0 9.023437-1.140625 13.175781-3.539062 4.785156-2.757813 6.421875-8.875 3.660156-13.660157-2.757812-4.78125-8.875-6.421875-13.660156-3.660156-3.074219 1.777344-7.019531.722656-8.792969-2.355469-2.761719-4.78125-8.875-6.417968-13.660156-3.660156-4.785156 2.761719-6.421875 8.878906-3.660156 13.660156 4.890625 8.472656 13.792969 13.214844 22.9375 13.214844zm0 0"/><path d="m287 241.625c-4.78125 2.761719-6.421875 8.878906-3.660156 13.660156 2.761718 4.78125 8.878906 6.421875 13.660156 3.660156 3.078125-1.773437 7.023438-.71875 8.796875 2.355469 1.851563 3.207031 5.210937 5.003907 8.667969 5.003907 1.695312 0 3.417968-.433594 4.992187-1.34375 4.78125-2.761719 6.421875-8.875 3.660157-13.660157-3.53125-6.113281-9.234376-10.488281-16.054688-12.316406-6.824219-1.828125-13.945312-.890625-20.0625 2.640625zm0 0"/></svg>