<svg viewBox="0 0 512 512" xmlns="http://www.w3.org/2000/svg"><path d="m160.90625 62.292969c37.453125 0 71.234375 16.402343 95.09375 42.6875 23.859375-26.285157 57.640625-42.6875 95.09375-42.6875 72.296875 0 130.90625 61.09375 130.90625 136.453125 0 127.039062-226 250.960937-226 250.960937s-226-123.921875-226-250.960937c0-75.359375 58.609375-136.453125 130.90625-136.453125zm0 0" fill="#ff5d5d"/><path d="m122.703125 104.695312c-35.601563 16.214844-58.605469 53.132813-58.605469 94.050782 0 5.523437 4.476563 10 10 10 5.523438 0 10-4.476563 10-10 0-33.101563 18.410156-62.875 46.898438-75.851563 5.023437-2.289062 7.242187-8.21875 4.953125-13.246093-2.289063-5.027344-8.222657-7.242188-13.246094-4.953126zm0 0"/><path d="m160.90625 96.390625h-.136719c-5.519531 0-10 4.476563-10 10s4.480469 10 10 10h.136719c5.519531 0 10-4.476563 10-10s-4.476562-10-10-10zm0 0"/><path d="m268.5 233.511719c-2.640625 0-5.21875 1.058593-7.078125 2.917969-1.863281 1.871093-2.933594 4.441406-2.933594 7.082031 0 2.628906 1.070313 5.207031 2.933594 7.066406 1.867187 1.863281 4.4375 2.933594 7.078125 2.933594 2.628906 0 5.199219-1.070313 7.070312-2.933594 1.859376-1.859375 2.917969-4.4375 2.917969-7.066406 0-2.640625-1.058593-5.210938-2.917969-7.082031-1.871093-1.859376-4.441406-2.917969-7.070312-2.917969zm0 0"/><path d="m502 0h-43.664062c-5.523438 0-10 4.476562-10 10s4.476562 10 10 10h19.523437l-53.617187 53.613281c-21.335938-13.523437-46.378907-21.320312-73.144532-21.320312-35.703125 0-69.09375 13.546875-95.097656 38.371093-26.003906-24.824218-59.390625-38.371093-95.09375-38.371093-77.695312 0-140.90625 65.699219-140.90625 146.453125 0 31.113281 12.511719 64.304687 37.191406 98.644531 14.84375 20.65625 34.160156 41.832031 57.566406 63.171875h-26.460937c-5.523437 0-10 4.476562-10 10s4.476563 10 10 10h29l-19.148437 19.148438h-49c-5.523438 0-10 4.476562-10 10 0 5.523437 4.476562 10 10 10h29l-19.148438 19.144531h-49c-5.523438 0-10 4.480469-10 10 0 5.523437 4.476562 10 10 10h43.144531v43.144531c0 5.523438 4.476563 10 10 10 5.519531 0 10-4.476562 10-10v-49l19.144531-19.148438v29c0 5.523438 4.480469 10 10 10 5.523438 0 10-4.476562 10-10v-49l19.148438-19.144531v29c0 5.523438 4.476562 10 10 10s10-4.476562 10-10v-32.1875c51.109375 40.128907 97.617188 65.785157 99.753906 66.957031 1.496094.820313 3.152344 1.230469 4.808594 1.230469s3.3125-.410156 4.808594-1.230469c2.339844-1.285156 57.988281-31.980468 114.574218-78.914062 33.460938-27.75 60.183594-55.398438 79.425782-82.171875 24.679687-34.339844 37.191406-67.53125 37.191406-98.644531 0-45.503906-20.070312-86.226563-51.496094-113.109375l51.496094-51.492188v19.523438c0 5.523437 4.476562 10 10 10s10-4.476563 10-10v-43.667969c0-5.523438-4.476562-10-10-10zm-30 198.746094c0 109.679687-183.691406 220.773437-216 239.457031-13.960938-8.070313-56.1875-33.402344-99.644531-68.414063l90.402343-90.402343c3.90625-3.90625 3.90625-10.238281 0-14.144531s-10.234374-3.90625-14.144531 0l-91.707031 91.707031c-51.863281-44.480469-100.90625-101.53125-100.90625-158.203125 0-69.726563 54.238281-126.453125 120.90625-126.453125 33.476562 0 64.621094 13.996093 87.6875 39.40625 1.898438 2.089843 4.585938 3.28125 7.40625 3.28125s5.507812-1.191407 7.402344-3.28125c23.070312-25.414063 54.210937-39.40625 87.691406-39.40625 66.667969 0 120.90625 56.726562 120.90625 126.453125zm0 0"/></svg>