<svg viewBox="0 -40 511.998 511" xmlns="http://www.w3.org/2000/svg"><path d="m105.332031 422.4375h111.332031c21.726563 0 39.335938-17.613281 39.335938-39.335938v-206.726562h-190v206.726562c0 21.722657 17.609375 39.335938 39.332031 39.335938zm0 0" fill="#c9f3ff"/><path d="m406.667969 422.4375h-111.335938c-21.722656 0-39.332031-17.613281-39.332031-39.335938v-206.726562h190v206.726562c0 21.722657-17.609375 39.335938-39.332031 39.335938zm0 0" fill="#c9f3ff"/><path d="m294.003906 219.4375c-14.96875 0-28.46875 6.878906-38.003906 17.90625-9.535156-11.027344-23.035156-17.90625-38.003906-17.90625-28.894532 0-52.316406 25.625-52.316406 57.238281 0 44.28125 90.320312 105.695313 90.320312 105.695313s90.320312-61.414063 90.320312-105.695313c0-31.613281-23.421874-57.238281-52.316406-57.238281zm0 0" fill="#ff5d5d"/><path d="m472.167969 214.101562h-16.167969v-37.726562c0-5.523438-4.476562-10-10-10h-380c-5.523438 0-10 4.476562-10 10v37.726562h-16.167969c-21.964843 0-39.832031 17.871094-39.832031 39.835938v69.667969c0 21.960937 17.867188 39.832031 39.832031 39.832031h16.167969v19.667969c0 27.199219 22.132812 49.332031 49.332031 49.332031h111.332031c16.046876 0 30.320313-7.703125 39.335938-19.597656 9.015625 11.894531 23.289062 19.597656 39.332031 19.597656h111.332031c27.203126 0 49.332032-22.132812 49.332032-49.332031v-19.667969h16.167968c21.964844 0 39.832032-17.871094 39.832032-39.832031v-69.667969c.003906-21.964844-17.863282-39.835938-39.828125-39.835938zm-254.707031 124.53125c-26.945313-24.960937-41.785157-46.964843-41.785157-61.957031 0-26.046875 18.984375-47.238281 42.316407-47.238281 10.449218 0 20.265624 4.191406 28.007812 11.859375v121.332031c-8.074219-6.21875-18.34375-14.550781-28.539062-23.996094zm48.539062-97.335937c7.738281-7.667969 17.558594-11.859375 28.003906-11.859375 23.335938 0 42.316406 21.191406 42.316406 47.238281 0 14.992188-14.835937 36.996094-41.78125 61.957031-10.195312 9.445313-20.464843 17.777344-28.539062 23.996094zm-226.167969 102.140625c-10.933593 0-19.832031-8.898438-19.832031-19.832031v-69.667969c0-10.9375 8.898438-19.832031 19.832031-19.832031h16.167969v109.332031zm176.835938 69h-111.335938c-16.171875 0-29.332031-13.160156-29.332031-29.335938v-196.726562h22v102.394531c0 5.523438 4.476562 10 10 10s10-4.476562 10-10v-102.394531h128v30.265625c-8.617188-4.671875-18.210938-7.203125-28.003906-7.203125-34.363282 0-62.316406 30.160156-62.316406 67.238281 0 21.265625 16.273437 47.101563 48.367187 76.792969 16.964844 15.695312 33.726563 28.203125 41.640625 33.878906-2.0625 14.167969-14.289062 25.089844-29.019531 25.089844zm219.332031-29.335938c0 16.175782-13.160156 29.335938-29.332031 29.335938h-111.335938c-14.730469 0-26.957031-10.921875-29.019531-25.089844 7.914062-5.675781 24.675781-18.183594 41.640625-33.878906 32.09375-29.691406 48.367187-55.527344 48.367187-76.792969 0-37.078125-27.953124-67.238281-62.316406-67.238281-9.792968 0-19.386718 2.53125-28.003906 7.203125v-30.265625h170zm56-59.5c0 10.9375-8.898438 19.835938-19.832031 19.835938h-16.167969v-109.335938h16.167969c10.933593 0 19.832031 8.898438 19.832031 19.835938zm0 0"/><path d="m329.449219 143.738281c1.953125 1.949219 4.511719 2.925781 7.070312 2.925781 2.558594 0 5.117188-.976562 7.070313-2.925781 3.90625-3.90625 3.90625-10.238281 0-14.144531-8.1875-8.1875-8.1875-21.503906 0-29.691406 7.742187-7.742188 12.007812-18.035156 12.007812-28.988282 0-10.949218-4.265625-21.242187-12.007812-28.984374-3.90625-3.90625-10.238282-3.90625-14.140625 0-3.90625 3.902343-3.90625 10.234374 0 14.140624 3.964843 3.964844 6.148437 9.238282 6.148437 14.847657 0 5.605469-2.183594 10.878906-6.148437 14.84375-15.984375 15.984375-15.984375 41.992187 0 57.976562zm0 0"/><path d="m168.410156 143.738281c1.953125 1.949219 4.511719 2.925781 7.070313 2.925781 2.558593 0 5.117187-.976562 7.070312-2.925781 3.90625-3.90625 3.90625-10.238281 0-14.144531-8.1875-8.1875-8.1875-21.503906 0-29.691406 7.742188-7.742188 12.007813-18.035156 12.007813-28.988282 0-10.949218-4.265625-21.242187-12.007813-28.984374-3.902343-3.90625-10.234375-3.90625-14.140625 0-3.90625 3.902343-3.90625 10.234374 0 14.140624 3.964844 3.964844 6.148438 9.238282 6.148438 14.847657 0 5.605469-2.183594 10.878906-6.148438 14.84375-15.984375 15.984375-15.984375 41.992187 0 57.976562zm0 0"/><path d="m248.929688 119.238281c1.953124 1.949219 4.511718 2.925781 7.070312 2.925781s5.117188-.976562 7.070312-2.925781c3.90625-3.90625 3.90625-10.238281 0-14.144531-10.117187-10.117188-10.117187-26.574219 0-36.691406 17.914063-17.914063 17.914063-47.0625 0-64.976563-3.90625-3.902343-10.234374-3.902343-14.140624 0-3.90625 3.90625-3.90625 10.238281 0 14.144531 10.113281 10.113282 10.113281 26.574219 0 36.691407-17.914063 17.914062-17.914063 47.058593 0 64.976562zm0 0"/><path d="m108 316.078125c-2.628906 0-5.210938 1.070313-7.070312 2.929687-1.859376 1.859376-2.929688 4.441407-2.929688 7.070313 0 2.632813 1.070312 5.210937 2.929688 7.070313 1.859374 1.859374 4.441406 2.929687 7.070312 2.929687s5.210938-1.070313 7.070312-2.929687c1.859376-1.859376 2.929688-4.429688 2.929688-7.070313 0-2.628906-1.070312-5.210937-2.929688-7.070313-1.859374-1.859374-4.441406-2.929687-7.070312-2.929687zm0 0"/></svg>