<svg viewBox="0 0 512 512" xmlns="http://www.w3.org/2000/svg"><path d="m324.582031 154.09375c-31.734375-15.589844-46.015625-53.683594-32.34375-86.292969 2.28125-5.445312 5.191407-10.425781 8.605469-14.894531 5.992188-7.847656-1.65625-18.734375-11-15.535156-18.347656 6.285156-34.136719 19.925781-42.585938 39.152344-15.496093 35.25-.132812 76.976562 34.53125 93.746093 15.449219 7.476563 32.195313 8.9375 47.632813 5.351563 9.554687-2.222656 10.230469-15.484375 1.058594-18.964844-1.984375-.753906-3.953125-1.605469-5.898438-2.5625zm0 0" fill="#ffb954"/><path d="m141.347656 350.207031h43.78125l-87.5625-151.667969-87.566406 151.667969h43.78125l-43.78125 75.832031h43.78125l-43.78125 75.835938h175.128906l-43.78125-75.835938h43.78125zm0 0" fill="#62cd4d"/><path d="m448 501.875h-384v-53.875c0-106.039062 85.960938-192 192-192s192 85.960938 192 192zm0 0" fill="#72d8ff"/><path d="m364.933594 502h-217.867188v-57.316406c0-60.164063 48.769532-108.933594 108.933594-108.933594s108.933594 48.769531 108.933594 108.933594zm0 0" fill="#4dbaf6"/><path d="m256 335.75v166.25h108.933594v-57.316406c0-60.160156-48.769532-108.933594-108.933594-108.933594zm0 0" fill="#c9f3ff"/><path d="m327.617188 430.382812h-71.617188l71.617188 71.617188zm0 0" fill="#4dbaf6"/><path d="m336.949219 273.59375c-2.570313 4.886719-.695313 10.933594 4.191406 13.507812l.484375.257813c1.507812.808594 3.125 1.191406 4.722656 1.191406 3.5625 0 7.015625-1.914062 8.816406-5.273437 2.613282-4.867188.785157-10.929688-4.078124-13.539063l-.628907-.335937c-4.890625-2.574219-10.933593-.695313-13.507812 4.191406zm0 0"/><path d="m510.773438 497.199219-66.621094-122.695313c-11.792969-30.1875-30.816406-57.449218-55.894532-79.1875-4.171874-3.621094-10.488281-3.167968-14.105468 1.003906-3.617188 4.171876-3.167969 10.488282 1.003906 14.105469 39.9375 34.625 62.84375 84.765625 62.84375 137.574219v43.875h-63.066406v-47.191406c0-65.578125-53.351563-118.933594-118.933594-118.933594-65.578125 0-118.933594 53.355469-118.933594 118.933594v47.191406h-63.066406v-43.875c0-100.355469 81.644531-182 182-182 15.089844 0 30.089844 1.851562 44.574219 5.496094 5.359375 1.347656 10.792969-1.898438 12.140625-7.257813 1.347656-5.355469-1.898438-10.789062-7.253906-12.136719-16.085938-4.046874-32.726563-6.101562-49.460938-6.101562-37.644531 0-72.90625 10.363281-103.109375 28.363281l-46.664063-80.824219c-1.789062-3.09375-5.089843-5-8.660156-5-3.574218 0-6.875 1.90625-8.660156 5l-87.566406 151.667969c-1.785156 3.09375-1.785156 6.90625 0 10s5.089844 5 8.660156 5h26.460938l-35.121094 60.832031c-1.785156 3.09375-1.785156 6.90625 0 10s5.089844 5 8.660156 5h26.460938l-35.121094 60.835938c-.726563 1.253906-1.140625 2.628906-1.277344 4.027344-.0195312.179687-.0234375.363281-.0351562.542968-.0078126.160157-.02343755.320313-.02343755.480469 0 .023438-.00390625.050781-.00390625.074219 0 5.523438 4.476562 10 10 10h492c5.523438 0 10-4.476562 10-10 0-1.738281-.445312-3.375-1.226562-4.800781zm-25.582032-5.199219h-27.191406v-44c0-2.09375-.042969-4.1875-.105469-6.273438zm-219.191406-37.472656 37.347656 37.347656h-37.347656zm51.617188 23.332031-37.476563-37.476563h37.476563zm37.316406-33.175781v47.1875h-17.316406v-61.488282c0-5.523437-4.476563-10-10-10h-61.617188v-74.128906c49.875 5.027344 88.933594 47.253906 88.933594 98.429688zm-197.867188 0c0-51.175782 39.058594-93.402344 88.933594-98.429688v145.617188h-88.933594zm-129.746094-28.644532 35.121094-60.832031c1.785156-3.09375 1.785156-6.90625 0-10s-5.085937-5-8.660156-5h-26.460938l70.246094-121.667969 38.636719 66.925782c-41.785156 30.878906-71.292969 77.457031-79.726563 130.949218-.867187-.242187-1.773437-.375-2.695312-.375zm26.710938 29.570313c-.011719.796875-.03125 1.589844-.03125 2.390625v43.875h-26.679688zm0 0"/><path d="m277.433594 179.269531c11.210937 5.425781 23.5 8.195313 35.824218 8.195313 6.179688 0 12.367188-.695313 18.429688-2.105469 8.539062-1.984375 14.667969-9.195313 15.257812-17.9375.59375-8.875-4.59375-16.957031-12.917968-20.117187-1.699219-.644532-3.390625-1.378907-5.03125-2.183594-.003906 0-.003906 0-.003906 0-27.117188-13.324219-39.210938-45.589844-27.53125-73.453125 1.90625-4.550781 4.375-8.820313 7.328124-12.691407 5.414063-7.085937 5.558594-16.695312.363282-23.910156-5.144532-7.136718-14.203125-10.015625-22.546875-7.15625-21.625 7.40625-39.300781 23.65625-48.5 44.585938-8.542969 19.433594-9.175781 41.199218-1.777344 61.285156 7.402344 20.089844 21.996094 36.246094 41.105469 45.488281zm-21.023438-98.722656c6.921875-15.746094 20.1875-27.988281 36.425782-33.628906-3.964844 5.203125-7.269532 10.929687-9.820313 17.019531-15.765625 37.605469.558594 81.152344 37.15625 99.132812 2.164063 1.0625 4.398437 2.035157 6.640625 2.890626-13.800781 3.125-27.859375 1.503906-40.667969-4.691407-29.65625-14.347656-42.992187-50.558593-29.734375-80.722656zm0 0"/><path d="m371 39h9v9c0 5.523438 4.476562 10 10 10s10-4.476562 10-10v-9h9c5.523438 0 10-4.476562 10-10s-4.476562-10-10-10h-9v-9c0-5.523438-4.476562-10-10-10s-10 4.476562-10 10v9h-9c-5.523438 0-10 4.476562-10 10s4.476562 10 10 10zm0 0"/><path d="m416 138.5c0 5.523438 4.476562 10 10 10h9v9c0 5.523438 4.476562 10 10 10s10-4.476562 10-10v-9h9c5.523438 0 10-4.476562 10-10s-4.476562-10-10-10h-9v-9c0-5.523438-4.476562-10-10-10s-10 4.476562-10 10v9h-9c-5.523438 0-10 4.476562-10 10zm0 0"/></svg>