<svg viewBox="0 0 512 512" xmlns="http://www.w3.org/2000/svg"><path d="m198.25 10c-103.96875 0-188.25 84.28125-188.25 188.25 0 39.507812 12.179688 76.167969 32.980469 106.449219l-22.011719 70.832031 70.835938-22.007812c30.277343 20.796874 66.9375 32.976562 106.445312 32.976562 103.96875 0 188.25-84.28125 188.25-188.25s-84.28125-188.25-188.25-188.25zm0 0" fill="#ade5ff"/><path d="m242.160156 113.308594c-17.296875 0-32.890625 7.949218-43.910156 20.6875-11.019531-12.738282-26.613281-20.6875-43.910156-20.6875-33.382813 0-60.445313 29.605468-60.445313 66.132812 0 51.160156 104.355469 122.117188 104.355469 122.117188s104.355469-70.957032 104.355469-122.117188c0-36.527344-27.0625-66.132812-60.445313-66.132812zm0 0" fill="#ff5d5d"/><path d="m379.0625 256.128906c67.898438 0 122.9375 55.039063 122.9375 122.933594 0 25.804688-7.953125 49.742188-21.535156 69.515625l14.371094 46.257813-46.257813-14.371094c-19.773437 13.582031-43.714844 21.535156-69.515625 21.535156-67.894531 0-122.9375-55.039062-122.9375-122.9375 0-67.894531 55.042969-122.933594 122.9375-122.933594zm0 0" fill="#ffc66c"/><path d="m257.21875 267.023438c36.75-34 55.386719-63.464844 55.386719-87.585938 0-41.976562-31.601563-76.128906-70.445313-76.128906-15.988281 0-31.515625 5.953125-43.910156 16.601562-12.394531-10.648437-27.921875-16.601562-43.910156-16.601562-38.84375 0-70.445313 34.152344-70.445313 76.128906 0 24.121094 18.636719 53.585938 55.386719 87.585938 26.335938 24.363281 52.253906 42.0625 53.347656 42.804687 1.695313 1.152344 3.65625 1.730469 5.621094 1.730469s3.925781-.578125 5.621094-1.730469c1.09375-.742187 27.011718-18.441406 53.347656-42.804687zm-58.972656 22.339843c-30.8125-21.980469-94.351563-74.617187-94.351563-109.921875 0-30.953125 22.628907-56.132812 50.445313-56.132812 13.828125 0 26.738281 6.121094 36.347656 17.230468 1.898438 2.195313 4.660156 3.457032 7.5625 3.457032s5.664062-1.261719 7.5625-3.457032c9.609375-11.109374 22.515625-17.230468 36.34375-17.230468 27.816406 0 50.445312 25.179687 50.445312 56.132812.003907 35.261719-63.542968 87.929688-94.355468 109.921875zm0 0"/><path d="m198.25 60.558594h.449219.03125c5.507812 0 9.980469-4.457032 10-9.96875.015625-5.523438-4.449219-10.015625-9.96875-10.03125h-.511719c-5.523438 0-10 4.476562-10 10 0 5.523437 4.476562 10 10 10zm0 0"/><path d="m225.269531 63.207031c26.640625 5.296875 50.941407 18.304688 70.277344 37.613281 1.953125 1.949219 4.507813 2.921876 7.066406 2.921876 2.5625 0 5.121094-.976563 7.074219-2.933594 3.902344-3.90625 3.898438-10.238282-.007812-14.140625-22.144532-22.109375-49.980469-37.007813-80.507813-43.078125-5.417969-1.074219-10.683594 2.4375-11.761719 7.855468-1.074218 5.417969 2.441406 10.683594 7.859375 11.761719zm0 0"/><path d="m491.417969 450.132812c13.480469-21.257812 20.582031-45.722656 20.582031-71.070312 0-69.429688-53.507812-126.589844-121.449219-132.433594 3.949219-15.75 5.949219-31.992187 5.949219-48.378906 0-109.316406-88.933594-198.25-198.25-198.25s-198.25 88.933594-198.25 198.25c0 38.621094 11.050781 75.863281 32.011719 108.039062l-20.59375 66.273438c-1.101563 3.546875-.148438 7.414062 2.480469 10.039062 2.625 2.625 6.488281 3.578126 10.039062 2.480469l66.273438-20.59375c32.175781 20.957031 69.417968 32.011719 108.039062 32.011719 16.390625 0 32.628906-2 48.378906-5.949219 5.84375 67.941407 63.003906 121.449219 132.433594 121.449219 25.347656 0 49.8125-7.101562 71.070312-20.582031l41.734376 12.96875c3.546874 1.101562 7.414062.148437 10.039062-2.480469 2.628906-2.625 3.582031-6.492188 2.480469-10.039062zm-393.953125-104.855468c-2.523438-1.734375-5.707032-2.214844-8.628906-1.304688l-52.675782 16.367188 16.367188-52.675782c.910156-2.925781.429687-6.101562-1.304688-8.628906-20.425781-29.734375-31.222656-64.585937-31.222656-100.785156 0-98.289062 79.960938-178.25 178.25-178.25s178.25 79.960938 178.25 178.25c0 16.382812-2.238281 32.585938-6.613281 48.199219-66.003907 4.523437-118.914063 57.433593-123.4375 123.4375-15.613281 4.375-31.816407 6.613281-48.199219 6.613281-36.199219 0-71.050781-10.796875-100.785156-31.222656zm354.082031 125.636718c-2.925781-.90625-6.105469-.425781-8.628906 1.308594-18.839844 12.9375-40.917969 19.777344-63.855469 19.777344-62.273438 0-112.9375-50.664062-112.9375-112.9375s50.664062-112.9375 112.9375-112.9375 112.9375 50.664062 112.9375 112.9375c0 22.933594-6.839844 45.015625-19.777344 63.855469-1.734375 2.523437-2.21875 5.703125-1.308594 8.628906l8.730469 28.097656zm0 0"/><path d="m330.910156 374c-2.628906 0-5.210937 1.070312-7.070312 2.929688-1.859375 1.859374-2.929688 4.441406-2.929688 7.070312s1.070313 5.210938 2.929688 7.070312c1.859375 1.859376 4.441406 2.929688 7.070312 2.929688 2.640625 0 5.21875-1.070312 7.078125-2.929688 1.863281-1.859374 2.933594-4.441406 2.933594-7.070312s-1.070313-5.210938-2.933594-7.070312c-1.867187-1.859376-4.4375-2.929688-7.078125-2.929688zm0 0"/><path d="m384 374c-2.628906 0-5.210938 1.070312-7.070312 2.929688-1.859376 1.859374-2.929688 4.441406-2.929688 7.070312s1.070312 5.210938 2.929688 7.070312c1.859374 1.859376 4.441406 2.929688 7.070312 2.929688s5.210938-1.070312 7.070312-2.929688c1.859376-1.859374 2.929688-4.441406 2.929688-7.070312s-1.070312-5.210938-2.929688-7.070312c-1.859374-1.859376-4.441406-2.929688-7.070312-2.929688zm0 0"/><path d="m437.089844 374c-2.640625 0-5.210938 1.070312-7.070313 2.929688-1.871093 1.859374-2.929687 4.441406-2.929687 7.070312s1.058594 5.210938 2.929687 7.070312c1.859375 1.859376 4.429688 2.929688 7.070313 2.929688 2.628906 0 5.199218-1.070312 7.070312-2.929688 1.859375-1.859374 2.929688-4.441406 2.929688-7.070312s-1.070313-5.210938-2.929688-7.070312c-1.871094-1.859376-4.441406-2.929688-7.070312-2.929688zm0 0"/></svg>