<svg viewBox="0 0 512 512" xmlns="http://www.w3.org/2000/svg"><path d="m482 145.96875h-452c-11.046875 0-20 8.953125-20 20v316c0 11.046875 8.953125 20 20 20h452c11.046875 0 20-8.953125 20-20v-316c0-11.046875-8.953125-20-20-20zm0 0" fill="#ade5ff"/><path d="m217.957031 449.902344h128.042969c13.253906 0 24-10.742188 24-24v-203.933594c0-13.253906-10.746094-24-24-24h-272c-13.253906 0-24 10.746094-24 24v203.933594c0 13.257812 10.746094 24 24 24zm0 0" fill="#fff"/><path d="m460 221.96875c0 13.253906-10.746094 24-24 24s-24-10.746094-24-24 10.746094-24 24-24 24 10.746094 24 24zm0 0" fill="#4dbaf6"/><path d="m460 312.953125c0 13.253906-10.746094 24-24 24s-24-10.746094-24-24c0-13.257813 10.746094-24 24-24s24 10.742187 24 24zm0 0" fill="#4dbaf6"/><path d="m243.679688 256.097656c-13.21875 0-25.140626 6.074219-33.558594 15.808594-8.421875-9.734375-20.34375-15.808594-33.558594-15.808594-25.515625 0-46.199219 22.628906-46.199219 50.542969 0 39.097656 79.753907 93.328125 79.753907 93.328125s79.753906-54.230469 79.753906-93.328125c.003906-27.914063-20.679688-50.542969-46.191406-50.542969zm0 0" fill="#ff5d5d"/><path d="m40 221.96875v203.933594c0 18.75 15.253906 34 34 34h143.957031c5.523438 0 10-4.476563 10-10 0-5.523438-4.476562-10-10-10h-143.957031c-7.71875 0-14-6.277344-14-14v-203.933594c0-7.71875 6.28125-14 14-14h272c7.71875 0 14 6.28125 14 14v203.933594c0 7.722656-6.28125 14-14 14h-53.835938c-5.519531 0-10 4.476562-10 10 0 5.523437 4.480469 10 10 10h53.835938c18.746094 0 34-15.25 34-34v-203.933594c0-18.746094-15.253906-34-34-34h-272c-18.746094 0-34 15.253906-34 34zm0 0"/><path d="m256 439.898438c-2.628906 0-5.210938 1.070312-7.070312 2.929687-1.859376 1.863281-2.929688 4.441406-2.929688 7.070313 0 2.640624 1.070312 5.222656 2.929688 7.082031 1.859374 1.859375 4.441406 2.917969 7.070312 2.917969s5.210938-1.058594 7.070312-2.917969c1.859376-1.859375 2.929688-4.441407 2.929688-7.082031 0-2.628907-1.070312-5.207032-2.929688-7.070313-1.859374-1.859375-4.441406-2.929687-7.070312-2.929687zm0 0"/><path d="m482 135.96875h-247.738281l118.898437-118.898438c3.90625-3.902343 3.90625-10.234374 0-14.140624-3.902344-3.90625-10.234375-3.90625-14.140625 0l-128.898437 128.898437-72.429688-72.429687c-3.90625-3.90625-10.238281-3.90625-14.140625 0-3.90625 3.90625-3.90625 10.238281 0 14.144531l62.425781 62.425781h-57.976562c-5.523438 0-10 4.476562-10 10s4.476562 10 10 10h82.109375.011719.007812 271.871094c5.515625 0 10 4.488281 10 10v316c0 5.515625-4.484375 10-10 10h-452c-5.515625 0-10-4.484375-10-10v-316c0-5.511719 4.484375-10 10-10h21.5c5.523438 0 10-4.476562 10-10s-4.476562-10-10-10h-21.5c-16.542969 0-30 13.460938-30 30v316c0 16.542969 13.457031 30 30 30h452c16.542969 0 30-13.457031 30-30v-316c0-16.539062-13.457031-30-30-30zm0 0"/><path d="m90 155.96875c2.628906 0 5.210938-1.070312 7.070312-2.929688 1.859376-1.859374 2.929688-4.441406 2.929688-7.070312s-1.070312-5.210938-2.929688-7.070312c-1.859374-1.859376-4.441406-2.929688-7.070312-2.929688s-5.210938 1.070312-7.070312 2.929688c-1.859376 1.859374-2.929688 4.441406-2.929688 7.070312s1.070312 5.210938 2.929688 7.070312c1.859374 1.859376 4.441406 2.929688 7.070312 2.929688zm0 0"/><path d="m436 255.96875c18.746094 0 34-15.25 34-34 0-18.746094-15.253906-34-34-34s-34 15.253906-34 34c0 18.75 15.253906 34 34 34zm0-48c7.71875 0 14 6.28125 14 14 0 7.722656-6.28125 14-14 14s-14-6.277344-14-14c0-7.71875 6.28125-14 14-14zm0 0"/><path d="m412 459.902344h51c5.523438 0 10-4.476563 10-10 0-5.523438-4.476562-10-10-10h-51c-5.523438 0-10 4.476562-10 10 0 5.523437 4.476562 10 10 10zm0 0"/><path d="m412 403.902344h51c5.523438 0 10-4.476563 10-10 0-5.523438-4.476562-10-10-10h-51c-5.523438 0-10 4.476562-10 10 0 5.523437 4.476562 10 10 10zm0 0"/><path d="m436 346.953125c18.746094 0 34-15.253906 34-34 0-18.75-15.253906-34-34-34s-34 15.25-34 34c0 18.746094 15.253906 34 34 34zm0-48c7.71875 0 14 6.277344 14 14 0 7.71875-6.28125 14-14 14s-14-6.28125-14-14c0-7.722656 6.28125-14 14-14zm0 0"/><path d="m243.679688 246.097656c-12.132813 0-23.929688 4.277344-33.558594 11.980469-9.628906-7.703125-21.425782-11.980469-33.558594-11.980469-30.988281 0-56.199219 27.15625-56.199219 60.539063 0 19.117187 14.5 42.222656 43.085938 68.667969 20.257812 18.738281 40.207031 32.363281 41.046875 32.933593 1.695312 1.152344 3.660156 1.730469 5.621094 1.730469 1.964843 0 3.929687-.578125 5.625-1.730469.839843-.570312 20.789062-14.195312 41.042968-32.933593 28.59375-26.449219 43.085938-49.550782 43.085938-68.667969.003906-33.382813-25.207032-60.539063-56.191406-60.539063zm-33.558594 141.667969c-29.09375-20.898437-69.753906-58.066406-69.753906-81.125 0-22.355469 16.238281-40.542969 36.195312-40.542969 9.875 0 19.105469 4.386719 25.996094 12.351563 1.898437 2.195312 4.660156 3.457031 7.5625 3.457031s5.664062-1.261719 7.5625-3.457031c6.890625-7.964844 16.121094-12.351563 25.996094-12.351563 19.957031 0 36.195312 18.1875 36.195312 40.542969 0 23.058594-40.660156 60.226563-69.753906 81.125zm0 0"/></svg>