<svg viewBox="0 0 512.00075 512" xmlns="http://www.w3.org/2000/svg"><path d="m405.667969 233.53125c0 8.847656 4.066406 16.832031 10.585937 22.46875-6.519531 5.636719-10.585937 13.621094-10.585937 22.46875 0 17.085938 15.152343 30.933594 33.839843 30.933594 26.183594 0 62.492188-53.402344 62.492188-53.402344s-36.308594-53.402344-62.492188-53.402344c-18.6875 0-33.839843 13.851563-33.839843 30.933594zm0 0" fill="#ff5d5d"/><path d="m313.8125 140.964844c-20.152344-28.882813-48.320312-50.488282-81.429688-62.453125-23.726562-8.578125-41.03125-28.816407-46.363281-52.808594-2.023437-9.113281-9.933593-15.703125-19.265625-15.703125h-.667968c-12.601563 0-21.890626 11.675781-19.195313 23.988281 8.167969 37.3125 35.027344 68.816407 71.894531 82.144531 51.144532 18.484376 85.511719 67.445313 85.511719 121.832032v36.074218c0 54.382813-34.363281 103.34375-85.511719 121.832032-36.871094 13.324218-63.726562 44.828125-71.894531 82.144531-2.695313 12.3125 6.59375 23.984375 19.195313 23.984375h.667968c9.332032 0 17.242188-6.589844 19.265625-15.699219 5.328125-23.996093 22.632813-44.234375 46.363281-52.8125 33.109376-11.964843 61.277344-33.566406 81.429688-62.453125 20.121094-28.84375 30.484375-63.375 30.484375-98.542968v-32.984376c0-35.167968-10.363281-69.699218-30.484375-98.542968zm0 0" fill="#72d8ff"/><path d="m255.179688 266c2.632812 0 5.210937-1.070312 7.070312-2.929688 1.859375-1.859374 2.929688-4.441406 2.929688-7.070312s-1.070313-5.210938-2.929688-7.070312c-1.859375-1.859376-4.4375-2.929688-7.070312-2.929688-2.640626 0-5.207032 1.070312-7.070313 2.929688-1.867187 1.859374-2.929687 4.441406-2.929687 7.070312s1.0625 5.210938 2.929687 7.070312c1.863281 1.859376 4.429687 2.929688 7.070313 2.929688zm0 0"/><path d="m510.269531 250.378906c-.386719-.570312-9.644531-14.128906-22.355469-27.871094-18.621093-20.125-34.453124-29.910156-48.40625-29.910156-24.171874 0-43.839843 18.363282-43.839843 40.933594 0 4.265625.730469 8.46875 2.101562 12.46875h-43.472656v-6.488281c0-37.933594-11.164063-73.988281-32.285156-104.265625-21.34375-30.59375-51.160157-53.464844-86.230469-66.136719-20.039062-7.242187-35.363281-24.707031-40-45.578125-3.078125-13.855469-15.015625-23.53125-29.027344-23.53125h-.667968c-9.015626 0-17.425782 4.027344-23.078126 11.050781-5.421874 6.738281-7.613281 15.367188-6.117187 23.855469v211.09375h-44.246094l-29.738281-29.738281c-3.90625-3.90625-10.238281-3.90625-14.144531 0-3.902344 3.90625-3.90625 10.238281 0 14.144531l15.597656 15.59375h-22.992187l-24.296876-24.292969c-3.902343-3.90625-10.234374-3.90625-14.140624 0-3.90625 3.902344-3.90625 10.234375 0 14.140625l20.152343 20.152344-20.152343 20.152344c-3.90625 3.90625-3.90625 10.238281 0 14.144531 1.953124 1.949219 4.511718 2.925781 7.070312 2.925781s5.121094-.976562 7.070312-2.925781l24.296876-24.296875h22.992187l-15.597656 15.597656c-3.90625 3.90625-3.90625 10.238282 0 14.144532 1.953125 1.949218 4.511719 2.925781 7.070312 2.925781 2.558594 0 5.121094-.976563 7.070313-2.925781l29.742187-29.742188h44.246094v211.09375c-1.5 8.488281.691406 17.117188 6.117187 23.855469 5.648438 7.023437 14.0625 11.050781 23.078126 11.050781h.667968c14.011719 0 25.949219-9.675781 29.027344-23.53125 4.632812-20.867188 19.960938-38.332031 40-45.574219 35.070312-12.675781 64.886719-35.546875 86.226562-66.136719 21.121094-30.277343 32.285157-66.332031 32.285157-104.265624v-6.492188h43.472656c-1.371094 4-2.097656 8.203125-2.097656 12.46875 0 22.570312 19.664062 40.933594 43.839843 40.933594 13.953126 0 29.785157-9.78125 48.402344-29.910156 12.714844-13.742188 21.96875-27.296876 22.359375-27.867188 2.308594-3.394531 2.308594-7.855469 0-11.246094zm-294.09375-4.378906h-59.285156v-165.140625c2.378906 3.367187 4.921875 6.628906 7.636719 9.753906 13.707031 15.773438 31.292968 27.851563 50.859375 34.921875 47.199219 17.058594 78.910156 62.242188 78.910156 112.429688v36.074218c0 50.1875-31.710937 95.367188-78.910156 112.429688-19.566407 7.070312-37.152344 19.144531-50.859375 34.917969-2.714844 3.125-5.257813 6.386719-7.636719 9.757812v-165.144531h59.289063c5.519531 0 10-4.476562 10-10s-4.480469-10-10.003907-10zm118.121094 26.492188c0 33.820312-9.921875 65.917968-28.6875 92.820312-18.964844 27.183594-45.460937 47.507812-76.625 58.769531-26.417969 9.550781-46.621094 32.558594-52.726563 60.050781-1.03125 4.632813-4.9375 7.867188-9.503906 7.867188h-.667968c-4.011719 0-6.417969-2.25-7.5-3.589844-1.863282-2.320312-2.566407-5.328125-1.925782-8.257812 7.507813-34.289063 32.613282-62.984375 65.523438-74.878906 55.097656-19.914063 92.113281-72.652344 92.113281-131.238282v-36.074218c0-58.582032-37.015625-111.324219-92.109375-131.234376-32.910156-11.898437-58.019531-40.589843-65.527344-74.878906-.640625-2.929687.0625-5.9375 1.929688-8.257812 1.078125-1.339844 3.488281-3.589844 7.5-3.589844h.664062c4.566406 0 8.476563 3.234375 9.503906 7.867188 6.105469 27.488281 26.3125 50.5 52.726563 60.046874 31.164063 11.265626 57.660156 31.585938 76.625 58.773438 18.769531 26.902344 28.6875 59 28.6875 92.820312zm105.210937 26.910156c-13.144531 0-23.839843-9.390625-23.839843-20.933594 0-5.636719 2.53125-10.929688 7.128906-14.90625 2.195313-1.898438 3.457031-4.660156 3.457031-7.5625s-1.261718-5.664062-3.457031-7.5625c-4.597656-3.976562-7.128906-9.269531-7.128906-14.90625 0-11.542969 10.695312-20.933594 23.839843-20.933594 13.089844 0 35.816407 23.785156 50.242188 43.40625-14.40625 19.621094-37.121094 43.398438-50.242188 43.398438zm0 0"/></svg>