<svg viewBox="0 -42 512 511" xmlns="http://www.w3.org/2000/svg"><path d="m170.902344 102.15625c11.542968 0 20.898437-9.355469 20.898437-20.898438v-70.757812h-41.792969v70.757812c0 11.542969 9.355469 20.898438 20.894532 20.898438zm0 0" fill="#ffc66c"/><path d="m150.007812 10.5h41.792969v36.425781h-41.792969zm0 0" fill="#fff"/><path d="m364 194.511719h-216c-13.253906 0-24-10.746094-24-24 0-13.257813 10.746094-24 24-24h216c13.253906 0 24 10.742187 24 24 0 13.253906-10.746094 24-24 24zm0 0" fill="#feda9b"/><path d="m236 194.511719h40v222h-40zm0 0" fill="#feda9b"/><path d="m146 252.511719h-96v-132h-40v296h40v-124h76v124h40v-144c0-11.046875-8.953125-20-20-20zm0 0" fill="#ffb954"/><path d="m366 252.511719h96v-132h40v296h-40v-124h-76v124h-40v-144c0-11.046875 8.953125-20 20-20zm0 0" fill="#ffb954"/><path d="m341.097656 102.15625c11.539063 0 20.894532-9.355469 20.894532-20.898438v-70.757812h-41.792969v70.757812c0 11.542969 9.355469 20.898438 20.898437 20.898438zm0 0" fill="#ffc66c"/><path d="m320.199219 10.5h41.792969v36.425781h-41.792969zm0 0" fill="#fff"/><path d="m236 308.488281c2.628906 0 5.210938-1.066406 7.070312-2.929687 1.859376-1.859375 2.929688-4.4375 2.929688-7.070313 0-2.628906-1.070312-5.199219-2.929688-7.066406-1.859374-1.863281-4.441406-2.933594-7.070312-2.933594-2.632812 0-5.210938 1.070313-7.070312 2.933594-1.859376 1.859375-2.929688 4.4375-2.929688 7.066406 0 2.632813 1.070312 5.210938 2.929688 7.070313 1.859374 1.863281 4.4375 2.929687 7.070312 2.929687zm0 0"/><path d="m304 406.511719h-18v-202h78c18.746094 0 34-15.253907 34-34 0-18.75-15.253906-34-34-34h-12.902344v-26.023438c12.140625-4.167969 20.894532-15.691406 20.894532-29.230469v-70.757812c0-5.523438-4.476563-10-10-10h-41.796876c-5.519531 0-10 4.476562-10 10v70.757812c0 13.539063 8.757813 25.0625 20.898438 29.230469v26.023438h-150.191406v-26.023438c12.144531-4.167969 20.898437-15.691406 20.898437-29.230469v-70.757812c0-5.523438-4.476562-10-10-10h-41.796875c-5.519531 0-10 4.476562-10 10v70.757812c0 13.539063 8.757813 25.0625 20.898438 29.230469v26.023438h-12.902344c-18.746094 0-34 15.25-34 34 0 18.746093 15.253906 34 34 34h78v51.265625c0 5.523437 4.476562 10 10 10s10-4.476563 10-10v-51.265625h20v202h-20v-61.011719c0-5.523438-4.476562-10-10-10s-10 4.476562-10 10v61.011719h-18c-5.523438 0-10 4.476562-10 10 0 5.519531 4.476562 10 10 10h96c5.523438 0 10-4.480469 10-10 0-5.523438-4.476562-10-10-10zm47.992188-386.011719v16.425781h-21.796876v-16.425781zm-21.796876 36.425781h21.796876v24.332031c0 6.011719-4.886719 10.898438-10.894532 10.898438-6.011718 0-10.898437-4.886719-10.898437-10.898438v-24.332031zm-148.394531-36.425781v16.425781h-21.792969v-16.425781zm-21.792969 36.425781h21.792969v24.332031c0 6.011719-4.886719 10.898438-10.898437 10.898438-6.007813 0-10.894532-4.886719-10.894532-10.898438zm75.992188 127.585938h-88c-7.71875 0-14-6.28125-14-14 0-7.722657 6.28125-14 14-14h216c7.71875 0 14 6.277343 14 14 0 7.71875-6.28125 14-14 14zm0 0"/><path d="m146 242.511719h-86v-122c0-5.523438-4.476562-10-10-10h-40c-5.523438 0-10 4.476562-10 10v296c0 5.519531 4.476562 10 10 10h40c5.523438 0 10-4.480469 10-10v-114h56v114c0 5.519531 4.476562 10 10 10h40c5.523438 0 10-4.480469 10-10v-144c0-16.542969-13.457031-30-30-30zm10 164h-20v-114c0-5.523438-4.476562-10-10-10h-76c-5.523438 0-10 4.476562-10 10v114h-20v-276h20v122c0 5.519531 4.476562 10 10 10h96c5.515625 0 10 4.484375 10 10zm0 0"/><path d="m502 224.5c-2.632812 0-5.210938 1.070312-7.070312 2.929688-1.859376 1.859374-2.929688 4.441406-2.929688 7.070312s1.070312 5.210938 2.929688 7.070312c1.859374 1.859376 4.4375 2.929688 7.070312 2.929688 2.628906 0 5.210938-1.070312 7.070312-2.929688 1.859376-1.859374 2.929688-4.441406 2.929688-7.070312s-1.070312-5.210938-2.929688-7.070312c-1.859374-1.859376-4.441406-2.929688-7.070312-2.929688zm0 0"/><path d="m512 120.511719c0-5.523438-4.476562-10-10-10h-40c-5.523438 0-10 4.476562-10 10v122h-86c-16.542969 0-30 13.457031-30 30v144c0 5.519531 4.476562 10 10 10h40c5.523438 0 10-4.480469 10-10v-114h56v114c0 5.519531 4.476562 10 10 10h40c5.523438 0 10-4.480469 10-10v-138.882813c0-5.523437-4.476562-10-10-10s-10 4.476563-10 10v128.882813h-20v-114c0-5.523438-4.476562-10-10-10h-76c-5.523438 0-10 4.476562-10 10v114h-20v-134c0-5.515625 4.484375-10 10-10h96c5.523438 0 10-4.480469 10-10v-122h20v58.261719c0 5.523437 4.476562 10 10 10s10-4.476563 10-10zm0 0"/></svg>