<svg viewBox="0 -35 512.00115 512" xmlns="http://www.w3.org/2000/svg"><path d="m467.90625 136.667969-63.167969 34.269531c-18.785156 10.191406-33.992187 25.894531-43.574219 45l-43.71875 87.179688c-17.71875 35.332031-53.863281 57.640624-93.390624 57.640624h-204.332032c-8.652344 0-12.988281-10.464843-6.867187-16.582031l120.8125-120.8125 26.296875 14.519531c8.597656 4.746094 18.257812 7.238282 28.078125 7.238282 16.027343 0 31.34375-6.621094 42.320312-18.296875l193.792969-206.101563c12.246094-13.019531 32.828125-13.335937 45.46875-.703125l13.28125 13.277344c12.226562 12.222656 19.09375 28.800781 19.09375 46.089844 0 23.902343-13.082031 45.886719-34.09375 57.28125zm0 0" fill="#fe8f8d"/><path d="m448 221.121094v191.671875c0 11.046875 8.953125 20 20 20s20-8.953125 20-20v-221.011719zm0 0" fill="#ffb954"/><path d="m467.90625 208.703125-63.167969 34.269531c-18.785156 10.191406-33.992187 25.894532-43.574219 45l-43.71875 87.179688c-17.71875 35.332031-53.863281 57.640625-93.390624 57.640625h-204.332032c-8.652344 0-12.988281-10.460938-6.867187-16.582031l120.8125-120.8125 26.296875 14.519531c8.597656 4.746093 18.257812 7.238281 28.078125 7.238281 16.027343 0 31.34375-6.621094 42.320312-18.296875l193.792969-206.097656c12.246094-13.023438 32.828125-13.339844 45.46875-.703125l13.28125 13.277344c12.226562 12.21875 19.09375 28.796874 19.09375 46.085937 0 23.902344-13.082031 45.886719-34.09375 57.28125zm0 0" fill="#ff5d5d"/><path d="m502.609375 115.011719c.417969-.757813.828125-1.515625 1.21875-2.285157 5.347656-10.507812 8.171875-22.292968 8.171875-34.085937 0-20.082031-7.820312-38.960937-22.019531-53.160156l-13.28125-13.277344c-8.046875-8.039063-18.710938-12.378906-30.109375-12.1953125-11.371094.1757815-21.925782 4.8320315-29.746094 13.1523435l-77.0625 82.699219c-3.761719 4.039063-3.539062 10.367187.5 14.132813 4.039062 3.765624 10.367188 3.542968 14.136719-.5l77.027343-82.664063c4.050782-4.308594 9.539063-6.734375 15.453126-6.824219 5.933593-.078125 11.476562 2.160156 15.65625 6.34375l13.28125 13.277344c10.425781 10.421875 16.164062 24.277344 16.164062 39.015625 0 6.269531-1.101562 12.535156-3.195312 18.449219l-12.105469-12.105469c-8.046875-8.042969-18.734375-12.367187-30.109375-12.195313-11.371094.171876-21.925782 4.832032-29.714844 13.121094l-193.796875 206.097656c-9.050781 9.625-21.820313 15.144532-35.035156 15.144532-8.105469 0-16.144531-2.070313-23.242188-5.988282l-26.296875-14.519531c-3.902344-2.15625-8.753906-1.46875-11.90625 1.679688l-61.683594 61.6875h-44.496093l115.003906-115.003907 19.710937 10.882813c10.050782 5.550781 21.433594 8.484375 32.910157 8.484375 18.710937 0 36.792969-7.816406 49.570312-21.410156l66.800781-70.292969c3.804688-4.003906 3.640626-10.332031-.359374-14.140625-4.007813-3.804688-10.335938-3.640625-14.140626.363281l-66.835937 70.332031c-9.050781 9.625-21.820313 15.148438-35.035156 15.148438-8.105469 0-16.144531-2.074219-23.242188-5.992188l-26.296875-14.519531c-3.902344-2.152343-8.753906-1.46875-11.90625 1.683594l-120.8125 120.8125c-5.660156 5.660156-7.335937 14.089844-4.273437 21.484375 3.0625 7.390625 10.210937 12.167969 18.210937 12.167969h25.191406l-39.128906 39.128906c-5.660156 5.660156-7.335937 14.089844-4.273437 21.484375 3.0625 7.390625 10.210937 12.167969 18.210937 12.167969h319.273438c5.523437 0 10-4.476563 10-10 0-5.523438-4.476563-10-10-10h-50.320313c16.007813-10.949219 28.988281-25.765625 37.707031-43.160157l43.722657-87.179687c8.703125-17.359375 22.328125-31.429687 39.398437-40.691406l28.496094-15.457031v176.488281c0 16.542969 13.457031 30 30 30s30-13.457031 30-30v-217.683594c8.949219-12.527344 14-27.722656 14-43.6875 0-12.949219-3.269531-25.390625-9.390625-36.410156zm-102.640625 119.171875c-20.6875 11.222656-37.195312 28.269531-47.742188 49.304687l-43.71875 87.179688c-16.125 32.152343-48.484374 52.125-84.449218 52.125h-203.640625l115.003906-115.003907 19.710937 10.882813c10.050782 5.550781 21.429688 8.484375 32.910157 8.484375 18.710937 0 36.792969-7.820312 49.605469-21.449219l193.792968-206.097656c4.054688-4.308594 9.542969-6.730469 15.457032-6.824219 5.886718-.082031 11.476562 2.160156 15.65625 6.34375l13.28125 13.277344c2.484374 2.484375 4.691406 5.167969 6.628906 8.003906.101562.160156.214844.308594.324218.464844 5.992188 8.972656 9.210938 19.511719 9.210938 30.546875 0 12.550781-4.25 24.453125-11.714844 33.996094-.003906.003906-.011718.015625-.015625.019531-4.582031 5.847656-10.367187 10.808594-17.132812 14.476562zm68.03125 188.609375c-5.515625 0-10-4.484375-10-10v-187.335938l14.675781-7.960937c1.828125-.996094 3.601563-2.066406 5.324219-3.191406v198.488281c0 5.515625-4.488281 10-10 10zm0 0"/><path d="m321.601562 139.042969c2.664063 0 5.324219-1.058594 7.289063-3.152344l.75-.796875c3.78125-4.023438 3.582031-10.351562-.441406-14.132812-4.027344-3.78125-10.355469-3.585938-14.136719.441406l-.75.796875c-3.78125 4.023437-3.582031 10.351562.445312 14.132812 1.929688 1.816407 4.386719 2.710938 6.84375 2.710938zm0 0"/><path d="m381.496094 422.792969c-2.628906 0-5.207032 1.070312-7.070313 2.929687-1.855469 1.859375-2.929687 4.441406-2.929687 7.070313 0 2.628906 1.070312 5.210937 2.929687 7.070312 1.863281 1.859375 4.441407 2.929688 7.070313 2.929688 2.632812 0 5.210937-1.070313 7.070312-2.929688s2.929688-4.441406 2.929688-7.070312c0-2.628907-1.066406-5.210938-2.929688-7.070313-1.859375-1.859375-4.4375-2.929687-7.070312-2.929687zm0 0"/></svg>