<svg viewBox="0 -40 512.00023 512" xmlns="http://www.w3.org/2000/svg"><path d="m451.769531 177.066406c-26.097656-15.066406-56.554687-16.660156-84.28125-7.035156-5.527343-28.824219-22.136719-54.40625-48.234375-69.472656-50.371094-29.082032-117-7.980469-148.820312 47.132812-44.570313 77.199219 51.078125 275.183594 51.078125 275.183594s219.28125-16.160156 263.851562-93.359375c31.820313-55.113281 16.78125-123.367187-33.59375-152.449219zm0 0" fill="#ade5ff"/><path d="m449.585938 255.554688c0 14.863281-12.050782 26.914062-26.914063 26.914062s-26.914063-12.050781-26.914063-26.914062c0-14.863282 12.050782-26.914063 26.914063-26.914063s26.914063 12.050781 26.914063 26.914063zm0 0" fill="#ffc66c"/><path d="m281.953125 330.445312c-13.988281 12.898438-27.941406 24.730469-40.558594 34.925782 2.199219 3.183594 5.117188 5.945312 8.691407 8.007812 12.871093 7.433594 29.332031 3.019532 36.761718-9.851562 6.378906-11.042969 4.03125-24.726563-4.894531-33.082032zm0 0" fill="#ffc66c"/><path d="m268.332031 74.679688c-30.132812 0-57.308593 13.851562-76.503906 36.046874-19.199219-22.195312-46.375-36.046874-76.507813-36.046874-58.167968 0-105.320312 51.589843-105.320312 115.226562 0 89.140625 181.824219 212.777344 181.824219 212.777344s181.824219-123.636719 181.824219-212.777344c0-63.636719-47.148438-115.226562-105.316407-115.226562zm0 0" fill="#ff5d5d"/><path d="m286.421875 76.378906-219.433594 219.433594c13.832031 15.105469 28.886719 29.566406 43.601563 42.699219l231.183594-231.183594c-14.875-15.835937-34.011719-26.90625-55.351563-30.949219zm0 0" fill="#ade5ff"/><path d="m378.917969 318.828125c0 14.863281-12.050781 26.910156-26.914063 26.910156-14.863281 0-26.914062-12.046875-26.914062-26.910156 0-14.867187 12.050781-26.914063 26.914062-26.914063 14.863282 0 26.914063 12.046876 26.914063 26.914063zm0 0" fill="#ffc66c"/><path d="m198.085938 249.789062-30.480469 55.210938-67.164063-67.164062 55.210938-30.480469 20.285156-20.28125 30.476562-55.210938 67.164063 67.164063-55.210937 30.476562zm0 0" fill="#fff"/><path d="m217.777344 218.6875c0 16.851562-13.660156 30.511719-30.511719 30.511719s-30.511719-13.660157-30.511719-30.511719 13.660156-30.511719 30.511719-30.511719 30.511719 13.660157 30.511719 30.511719zm0 0" fill="#ade5ff"/><path d="m456.769531 168.40625c-23.273437-13.4375-50.375-17.582031-77.320312-12.015625-11.773438-45.980469-47.15625-81.394531-91.015625-89.804687-.09375-.019532-.1875-.03125-.285156-.050782-6.441407-1.214844-13.058594-1.855468-19.816407-1.855468-28.1875 0-55.527343 11.375-76.503906 31.53125-20.980469-20.15625-48.320313-31.53125-76.507813-31.53125-63.589843 0-115.320312 56.175781-115.320312 125.226562 0 39.871094 31.667969 89.382812 94.121094 147.160156 45.484375 42.074219 90.199218 72.609375 92.082031 73.886719 1.695313 1.15625 3.660156 1.730469 5.621094 1.730469 1.964843 0 3.925781-.574219 5.625-1.730469.371093-.25 2.429687-1.65625 5.835937-4.066406 5.441406 12.492187 9.03125 19.941406 9.21875 20.332031 1.679688 3.476562 5.1875 5.652344 9.003906 5.652344.242188 0 .492188-.007813.738282-.027344 2.269531-.164062 56.261718-4.25 116.6875-17.949219 82.976562-18.808593 135.15625-45.851562 155.089844-80.378906 34.527343-59.800781 17.816406-134.316406-37.253907-166.109375zm-199.667969 28.292969-29.710937 16.402343c-1.195313-8.703124-5.160156-16.742187-11.480469-23.0625-6.496094-6.496093-14.816406-10.503906-23.800781-11.570312l16.632813-30.128906zm-91.824218 91.828125-48.359375-48.359375 30.132812-16.636719c1.0625 8.988281 5.070313 17.304688 11.566407 23.800781 6.320312 6.320313 14.359374 10.289063 23.0625 11.480469zm42.5-69.839844c0 5.476562-2.136719 10.628906-6.011719 14.503906-3.871094 3.871094-9.023437 6.007813-14.5 6.007813-5.480469 0-10.628906-2.136719-14.503906-6.007813-3.875-3.875-6.007813-9.027344-6.007813-14.503906 0-5.480469 2.132813-10.628906 6.007813-14.503906s9.023437-6.007813 14.503906-6.007813c5.476563 0 10.628906 2.132813 14.5 6.007813 3.875 3.875 6.011719 9.023437 6.011719 14.503906zm25.042968-74.5625 56.796876-56.796875c14.058593 3.554687 26.9375 10.550781 37.875 20.136719l-65.667969 65.667968zm-117.5-59.441406c26.28125 0 50.765626 11.570312 68.941407 32.585937 1.898437 2.195313 4.660156 3.457031 7.566406 3.457031 2.902344 0 5.664063-1.261718 7.5625-3.457031 17.136719-19.816406 39.890625-31.234375 64.464844-32.472656l-45.179688 45.183594-5.191406-5.1875c-2.222656-2.222657-5.355469-3.273438-8.472656-2.832031-3.109375.441406-5.835938 2.316406-7.355469 5.070312l-30.476562 55.207031c-.300782.542969-.535157 1.101563-.726563 1.667969-2.820313 1.695312-5.449219 3.746094-7.835937 6.132812-2.386719 2.382813-4.4375 5.015626-6.132813 7.839844-.566406.1875-1.125.421875-1.667969.722656l-55.207031 30.476563c-2.75 1.519531-4.628906 4.246094-5.066406 7.355469-.441407 3.113281.605469 6.25 2.828125 8.472656l5.1875 5.1875-31.167969 31.171875c-31.152344-35.695313-47.386719-66.796875-47.386719-91.359375 0-58.019531 42.757813-105.222656 95.316406-105.222656zm-34.425781 211.363281 31.808594-31.808594 29.007813 29.007813-31.46875 31.46875c-.902344-.828125-1.804688-1.65625-2.707032-2.492188-9.660156-8.941406-18.53125-17.667968-26.640625-26.175781zm110.933594 94.429687c-11.210937-7.960937-37.757813-27.371093-66.628906-52.429687l30.65625-30.65625 4.679687 4.679687c1.886719 1.890626 4.4375 2.929688 7.070313 2.929688.464843 0 .933593-.03125 1.402343-.097656 3.109376-.441406 5.832032-2.320313 7.351563-5.070313l30.480469-55.207031c.113281-.210938.210937-.421875.308594-.632812 3.167968-1.792969 6.117187-4.015626 8.761718-6.65625 2.648438-2.648438 4.875-5.605469 6.667969-8.78125.207031-.09375.417969-.179688.625-.292969l55.207031-30.480469c2.75-1.519531 4.628906-4.242188 5.066406-7.355469.441407-3.109375-.605468-6.25-2.828124-8.472656l-4.679688-4.679687 65.183594-65.179688c14.023437 18.328125 22.496094 41.996094 22.496094 67.8125 0 33.550781-30.269532 79.304688-87.53125 132.316406-35.195313 32.582032-70.816407 58.683594-84.289063 68.253906zm151.71875-57.003906c-3.914063-2.257812-6.710937-5.90625-7.878906-10.269531-1.171875-4.363281-.570313-8.921875 1.6875-12.832031 2.257812-3.914063 5.90625-6.710938 10.269531-7.882813 1.457031-.386719 2.9375-.582031 4.40625-.582031 2.929688 0 5.820312.769531 8.425781 2.273438 8.078125 4.664062 10.855469 15.027343 6.191407 23.101562-4.660157 8.078125-15.027344 10.851562-23.101563 6.191406zm-65.359375 25.054688c-4.320312 7.484375-13.53125 10.402344-21.285156 7.085937 7.410156-6.15625 15.15625-12.789062 23.015625-19.8125 1.09375 4.183594.570312 8.742188-1.730469 12.726563zm198.515625-34.015625c-16.777344 29.058593-65.867187 53.546875-141.964844 70.824219-46.769531 10.621093-90.675781 15.414062-107.128906 16.964843-1.875-4.089843-4.5625-10.058593-7.753906-17.492187 6.03125-4.503906 13.019531-9.851563 20.652343-15.898438 1.4375 1.144532 2.957032 2.195313 4.578126 3.128906 5.800781 3.347657 12.136718 4.9375 18.394531 4.9375 12.769531 0 25.203125-6.621093 32.03125-18.449218 6.789062-11.757813 6.519531-25.820313-.039063-37.023438 7.238282-6.855468 14.027344-13.585937 20.382813-20.199218-1.167969 5.585937-1.027344 11.40625.492187 17.074218 2.550782 9.527344 8.660156 17.488282 17.199219 22.417969 5.796875 3.347656 12.136719 4.9375 18.394531 4.9375 12.765625 0 25.199219-6.621094 32.03125-18.449219 10.175782-17.628906 4.113282-40.25-13.511718-50.425781-8.539063-4.929687-18.488282-6.242187-28.011719-3.691406-.738281.199219-1.460938.425781-2.179688.664062 28.816407-35.449219 43.382813-66.902343 43.382813-93.925781 0-4.667969-.246094-9.273438-.707032-13.808594 22.316407-4.730468 44.699219-1.410156 63.824219 9.628906 45.515625 26.277344 58.945313 88.539063 29.933594 138.785157zm0 0"/><path d="m441.128906 223.585938c-17.625-10.175782-40.246094-4.113282-50.425781 13.511718-4.929687 8.539063-6.238281 18.488282-3.6875 28.011719 2.554687 9.523437 8.660156 17.484375 17.199219 22.414063 5.800781 3.347656 12.136718 4.9375 18.394531 4.9375 12.769531 0 25.203125-6.621094 32.03125-18.449219 10.175781-17.628907 4.117187-40.25-13.511719-50.425781zm-3.808594 40.425781c-4.664062 8.074219-15.027343 10.851562-23.105468 6.191406-3.910156-2.261719-6.710938-5.90625-7.878906-10.269531-1.167969-4.363282-.570313-8.921875 1.691406-12.835938 3.128906-5.417968 8.824218-8.453125 14.671875-8.453125 2.867187 0 5.773437.730469 8.429687 2.265625 8.078125 4.660156 10.855469 15.023438 6.191406 23.101563zm0 0"/><path d="m409.546875 72.347656c-2.558594 0-5.117187-.972656-7.070313-2.925781-3.90625-3.90625-3.90625-10.238281 0-14.144531l26.382813-26.382813c3.90625-3.90625 10.234375-3.90625 14.144531 0 3.902344 3.90625 3.902344 10.238281 0 14.144531l-26.382812 26.382813c-1.953125 1.953125-4.511719 2.925781-7.074219 2.925781zm0 0"/><path d="m461.898438 20.003906c-2.640626 0-5.210938-1.070312-7.070313-2.933594-1.871094-1.859374-2.933594-4.429687-2.933594-7.070312 0-2.628906 1.0625-5.210938 2.933594-7.070312 1.847656-1.859376 4.429687-2.929688 7.070313-2.929688 2.628906 0 5.210937 1.070312 7.070312 2.929688 1.859375 1.859374 2.917969 4.441406 2.917969 7.070312 0 2.640625-1.058594 5.210938-2.917969 7.070312-1.871094 1.863282-4.441406 2.933594-7.070312 2.933594zm0 0"/><path d="m367.355469 57.53125c-5.523438 0-10.003907-4.476562-10.003907-10v-36.640625c0-5.523437 4.480469-10 10.003907-10 5.519531 0 10 4.476563 10 10v36.640625c0 5.523438-4.476563 10-10 10zm0 0"/><path d="m425.191406 114.394531c-5.523437 0-10-4.472656-10.003906-9.996093 0-5.523438 4.476562-10.003907 10-10.003907l35.628906-.011719h.003906c5.519532 0 10 4.476563 10 9.996094.003907 5.523438-4.476562 10.003906-9.996093 10.003906zm0 0"/><path d="m58.421875 199.910156c-5.523437 0-10.003906-4.480468-10.003906-10.003906 0-23.507812 10.636719-45.617188 28.453125-59.144531 4.402344-3.339844 10.671875-2.480469 14.015625 1.917969 3.339843 4.398437 2.480469 10.671874-1.917969 14.011718-12.867188 9.769532-20.546875 25.921875-20.546875 43.214844 0 5.523438-4.476563 10.003906-10 10.003906zm0 0"/><path d="m115.320312 137.65625c-5.515624 0-10.042968-4.460938-10.054687-9.972656-.015625-5.515625 4.488281-10 10-10.03125h.054687c5.488282 0 10.007813 4.429687 10.050782 9.921875.046875 5.515625-4.433594 10.023437-9.945313 10.082031-.035156 0-.070312 0-.105469 0zm-.109374-20 .070312 6.425781zm0 0"/></svg>