<svg viewBox="0 -76 512 512" xmlns="http://www.w3.org/2000/svg"><path d="m470 349.28125h-428c-17.671875 0-32-14.328125-32-32 0-17.675781 14.328125-32 32-32h428c17.671875 0 32 14.324219 32 32 0 17.671875-14.328125 32-32 32zm0 0" fill="#4dbaf6"/><path d="m256 53.363281c-118.1875 0-214 95.8125-214 214v17.917969h428v-17.917969c0-118.1875-95.8125-214-214-214zm0 0" fill="#ade5ff"/><path d="m278.96875 140.558594c-9.046875 0-17.207031 3.960937-22.96875 10.308594-5.761719-6.347657-13.921875-10.308594-22.96875-10.308594-17.460938 0-31.613281 14.757812-31.613281 32.957031 0 30.679687 54.582031 60.609375 54.582031 60.609375s54.582031-29.929688 54.582031-60.609375c0-18.199219-14.15625-32.957031-31.613281-32.957031zm0 0" fill="#ff5d5d"/><path d="m232 53.363281v-19.363281c0-13.253906 10.746094-24 24-24s24 10.746094 24 24v19.363281zm0 0" fill="#4dbaf6"/><path d="m480 276.492188v-9.128907c0-43.886719-12.691406-86.382812-36.699219-122.902343-3.03125-4.613282-9.234375-5.894532-13.847656-2.859376-4.617187 3.03125-5.898437 9.234376-2.863281 13.847657 21.855468 33.242187 33.410156 71.941406 33.410156 111.914062v7.917969h-408v-7.917969c0-112.484375 91.515625-204 204-204 44.539062 0 86.851562 14.09375 122.363281 40.757813 4.417969 3.316406 10.6875 2.421875 14-1.992188 3.316407-4.417968 2.425781-10.6875-1.992187-14.003906-29.835938-22.402344-64.046875-36.714844-100.371094-42.210938v-11.914062c0-18.746094-15.253906-34-34-34s-34 15.253906-34 34v11.917969c-46.921875 7.105469-90.210938 28.871093-124.390625 63.054687-42.308594 42.304688-65.609375 98.558594-65.609375 158.390625v9.128907c-18.34375 4.5-32 21.074218-32 40.785156 0 23.160156 18.839844 42 42 42h25c5.523438 0 10-4.476563 10-10 0-5.519532-4.476562-10-10-10h-25c-12.132812 0-22-9.867188-22-22 0-12.128906 9.867188-22 22-22h428c12.132812 0 22 9.871094 22 22 0 12.132812-9.867188 22-22 22h-314.75c-5.523438 0-10 4.480468-10 10 0 5.523437 4.476562 10 10 10h314.75c23.160156 0 42-18.839844 42-42 0-19.710938-13.65625-36.285156-32-40.785156zm-238-242.492188c0-7.71875 6.28125-14 14-14s14 6.28125 14 14v9.792969c-4.640625-.285157-9.308594-.429688-14-.429688s-9.359375.160157-14 .445313zm0 0"/><path d="m113.671875 339.28125c-2.640625 0-5.210937 1.070312-7.070313 2.929688-1.871093 1.859374-2.929687 4.4375-2.929687 7.070312 0 2.628906 1.058594 5.207031 2.929687 7.070312 1.859376 1.859376 4.429688 2.929688 7.070313 2.929688 2.628906 0 5.207031-1.070312 7.066406-2.929688 1.863281-1.863281 2.933594-4.441406 2.933594-7.070312 0-2.632812-1.070313-5.210938-2.933594-7.070312-1.859375-1.859376-4.4375-2.929688-7.066406-2.929688zm0 0"/><path d="m405.578125 128.640625c1.96875 2.0625 4.617187 3.105469 7.265625 3.105469 2.480469 0 4.960938-.910156 6.890625-2.753906 3.996094-3.8125 4.164063-10.125.351563-14.117188-.015626-.015625-.0625-.066406-.078126-.082031-3.773437-4.019531-10.066406-4.203125-14.09375-.441407-4.027343 3.757813-4.234374 10.089844-.488281 14.128907.03125.035156.121094.128906.152344.160156zm0 0"/><path d="m256 137.703125c-6.761719-4.605469-14.765625-7.144531-22.96875-7.144531-22.945312 0-41.613281 19.269531-41.613281 42.957031 0 35.574219 53.65625 66.023437 59.773437 69.378906 1.5.820313 3.152344 1.230469 4.808594 1.230469s3.3125-.410156 4.808594-1.230469c6.117187-3.355469 59.773437-33.804687 59.773437-69.378906 0-23.6875-18.667969-42.957031-41.613281-42.957031-8.203125 0-16.207031 2.539062-22.96875 7.144531zm44.582031 35.8125c0 16.523437-25.597656 37.597656-44.5625 49.050781-15.347656-9.386718-44.601562-30.976562-44.601562-49.050781 0-12.660156 9.695312-22.957031 21.613281-22.957031 5.917969 0 11.445312 2.496094 15.5625 7.03125 1.894531 2.089844 4.585938 3.277344 7.40625 3.277344s5.507812-1.1875 7.402344-3.277344c4.117187-4.535156 9.644531-7.03125 15.5625-7.03125 11.921875 0 21.617187 10.296875 21.617187 22.957031zm0 0"/></svg>