<svg viewBox="-6 0 512 512.00056" xmlns="http://www.w3.org/2000/svg"><path d="m108.664062 342.003906 36.449219 138.832032c3.273438 12.46875 14.546875 21.164062 27.441407 21.164062h153.804687c12.894531 0 24.164063-8.695312 27.441406-21.164062l36.445313-138.832032zm0 0" fill="#72d8ff"/><path d="m385.707031 217.421875h-.023437c-1.011719-74.308594-61.550782-134.238281-136.101563-134.238281-74.546875 0-135.089843 59.929687-136.097656 134.238281h-.023437c-34.402344 0-62.292969 27.890625-62.292969 62.292969s27.890625 62.289062 62.292969 62.289062h272.246093c34.402344 0 62.292969-27.886718 62.292969-62.289062s-27.890625-62.292969-62.292969-62.292969zm0 0" fill="#ffb954"/><path d="m71.796875 14.589844c-8.757813 5.058594-14.441406 13.453125-16.472656 22.820312-9.128907-2.921875-19.242188-2.199218-28.003907 2.859375-16.90625 9.757813-22.363281 31.957031-12.1875 49.582031 17.152344 29.707032 86.734376 28.175782 86.734376 28.175782s36.117187-59.496094 18.964843-89.203125c-10.171875-17.621094-32.128906-23.996094-49.035156-14.234375zm0 0" fill="#ff5d5d"/><path d="m427.367188 14.589844c8.761718 5.058594 14.445312 13.453125 16.476562 22.820312 9.128906-2.921875 19.242188-2.199218 28 2.859375 16.90625 9.757813 22.363281 31.960938 12.1875 49.582031-17.148438 29.707032-86.730469 28.175782-86.730469 28.175782s-36.121093-59.492188-18.96875-89.199219c10.175781-17.625 32.128907-24 49.035157-14.238281zm0 0" fill="#ff5d5d"/><path d="m249.582031 93.183594h.097657c5.519531 0 9.953124-4.480469 9.953124-10 0-5.523438-4.527343-10-10.050781-10-5.519531 0-10 4.476562-10 10 0 5.519531 4.480469 10 10 10zm0 0"/><path d="m202.15625 175.3125c1.953125 1.953125 4.511719 2.929688 7.070312 2.929688 2.558594 0 5.117188-.976563 7.070313-2.929688 3.90625-3.90625 3.90625-10.234375 0-14.140625l-9.4375-9.4375c-3.90625-3.902344-10.234375-3.902344-14.140625 0-3.90625 3.90625-3.90625 10.238281 0 14.144531zm0 0"/><path d="m331.785156 246.339844c2.5625 0 5.121094-.976563 7.074219-2.929688 3.902344-3.902344 3.902344-10.234375 0-14.140625l-9.4375-9.433593c-3.90625-3.90625-10.234375-3.90625-14.140625 0-3.90625 3.902343-3.90625 10.234374 0 14.140624l9.433594 9.433594c1.953125 1.953125 4.511718 2.929688 7.070312 2.929688zm0 0"/><path d="m179.261719 219.835938c-3.90625-3.90625-10.238281-3.90625-14.144531 0-3.902344 3.90625-3.902344 10.238281.003906 14.140624l9.433594 9.4375c1.953124 1.953126 4.511718 2.929688 7.070312 2.929688s5.121094-.980469 7.070312-2.933594c3.90625-3.902344 3.90625-10.234375 0-14.140625zm0 0"/><path d="m297.011719 175.3125 9.4375-9.433594c3.902343-3.90625 3.902343-10.238281 0-14.144531-3.90625-3.902344-10.238281-3.902344-14.144531 0l-9.433594 9.4375c-3.90625 3.902344-3.90625 10.234375 0 14.140625 1.949218 1.953125 4.511718 2.929688 7.070312 2.929688s5.117188-.976563 7.070313-2.929688zm0 0"/><path d="m244.867188 246.339844c2.558593 0 5.117187-.976563 7.066406-2.929688l9.4375-9.433594c3.90625-3.902343 3.90625-10.234374 0-14.140624-3.902344-3.90625-10.234375-3.90625-14.140625 0l-9.4375 9.433593c-3.902344 3.90625-3.902344 10.234375 0 14.140625 1.953125 1.953125 4.511719 2.929688 7.074219 2.929688zm0 0"/><path d="m497.804688 59.726562c-2.957032-12.039062-10.402344-22.023437-20.960938-28.117187-7.96875-4.605469-17.203125-6.546875-26.359375-5.699219-3.839844-8.351562-10.144531-15.378906-18.113281-19.980468-10.558594-6.09375-22.929688-7.550782-34.832032-4.09375-11.753906 3.410156-21.648437 11.222656-27.863281 21.992187-8.671875 15.019531-7.886719 36.621094 2.332031 64.210937 4.738282 12.785157 10.386719 23.804688 13.769532 29.960938l-13.046875 22.65625c-2.429688-3.789062-5.023438-7.492188-7.824219-11.085938-19.085938-24.503906-45.980469-42.597656-75.726562-50.953124-5.320313-1.5-10.835938 1.605468-12.332032 6.921874-1.492187 5.316407 1.605469 10.835938 6.921875 12.332032 53.367188 14.988281 91.164063 64.207031 91.914063 119.6875.074218 5.46875 4.554687 9.863281 10.023437 9.863281 28.835938 0 52.292969 23.457031 52.292969 52.292969 0 28.832031-23.457031 52.292968-52.292969 52.292968h-272.246093c-28.832032 0-52.292969-23.460937-52.292969-52.292968 0-28.835938 23.460937-52.292969 52.316406-52.292969 5.46875 0 9.925781-4.394531 9.996094-9.863281.160156-11.515625 1.875-22.714844 4.945312-33.378906l9.84375 17.09375c1.851563 3.214843 5.214844 5.011718 8.675781 5.011718 1.691407 0 3.40625-.429687 4.980469-1.335937 4.785157-2.757813 6.429688-8.871094 3.675781-13.65625l-17.707031-30.742188c15.195313-28.960937 41.457031-51.550781 74.289063-61.730469 5.277344-1.636718 8.226562-7.238281 6.589844-12.511718-1.632813-5.277344-7.234376-8.226563-12.511719-6.59375-29.253907 9.070312-54.550781 26.832031-73.15625 51.355468-2.363281 3.117188-4.578125 6.320313-6.671875 9.582032l-13.042969-22.652344c3.378906-6.15625 9.03125-17.175781 13.765625-29.957031 10.222656-27.589844 11.007812-49.195313 2.335938-64.214844-6.214844-10.769531-16.113282-18.578125-27.863282-21.992187-11.902344-3.453126-24.269531-2.003907-34.832031 4.09375-7.96875 4.601562-14.273437 11.628906-18.113281 19.980468-9.152344-.84375-18.390625 1.097656-26.359375 5.699219-10.558594 6.09375-18.003907 16.078125-20.960938 28.117187-2.921875 11.878907-1.109375 24.355469 5.109375 35.125 8.671875 15.019532 27.773438 25.140626 56.777344 30.085938 13.425781 2.285156 25.789062 2.90625 32.816406 3.058594l19.285156 33.480468c-6.347656 14.703126-10.230468 30.375-11.457031 46.578126-35.359375 4.691406-62.726562 35.039062-62.726562 71.660156 0 35.488281 25.710937 65.0625 59.480469 71.128906l34.792968 132.53125c4.425782 16.855469 19.6875 28.625 37.109375 28.625h153.808594c17.425781 0 32.683594-11.769531 37.109375-28.625l34.78125-132.480469c33.898438-5.960937 59.746094-35.597656 59.746094-71.179687 0-36.613282-27.359375-66.957032-62.726563-71.660156-1.222656-16.226563-5.089843-31.902344-11.441406-46.601563l19.269531-33.457031c7.027344-.152344 19.390625-.769532 32.816406-3.058594 29.003907-4.941406 48.105469-15.0625 56.777344-30.085938 6.21875-10.769531 8.035156-23.246093 5.113282-35.125zm-474.011719 25.125c-3.625-6.277343-4.695313-13.507812-3.011719-20.351562 1.644531-6.695312 5.742188-12.226562 11.539062-15.570312 3.730469-2.152344 7.863282-3.246094 12.09375-3.246094 2.605469 0 5.25.414062 7.855469 1.25 2.683594.859375 5.609375.546875 8.050781-.863282 2.445313-1.40625 4.175782-3.78125 4.773438-6.539062 1.523438-7.019531 5.679688-12.800781 11.703125-16.28125 5.796875-3.34375 12.632813-4.128906 19.253906-2.207031 6.773438 1.964843 12.496094 6.507812 16.121094 12.785156 10.453125 18.101563-6.441406 56.5625-16.09375 74.191406-20.082031-.4375-61.804687-5.015625-72.285156-23.167969zm235.664062 407.148438v-139.996094h55.988281l-28.527343 139.996094zm-47.460937 0-28.527344-139.996094h55.988281v139.996094zm-57.210938-13.703125-33.15625-126.292969h41.429688l28.527344 139.996094h-19.03125c-8.34375 0-15.652344-5.632812-17.769532-13.703125zm189.34375 0c-2.121094 8.066406-9.425781 13.703125-17.769531 13.703125h-19.03125l28.527344-139.996094h41.429687zm131.246094-393.445313c-10.453125 18.101563-52.199219 22.703126-72.292969 23.160157-9.652343-17.636719-26.539062-56.085938-16.089843-74.1875 3.625-6.277344 9.351562-10.816407 16.121093-12.785157 2.375-.6875 4.777344-1.027343 7.148438-1.027343 4.242187 0 8.390625 1.09375 12.105469 3.238281 6.023437 3.476562 10.179687 9.261719 11.703124 16.28125.597657 2.753906 2.332032 5.128906 4.773438 6.539062 2.441406 1.410157 5.363281 1.722657 8.050781.863282 6.839844-2.195313 13.925781-1.484375 19.949219 1.992187 5.796875 3.347657 9.894531 8.878907 11.539062 15.570313 1.683594 6.847656.617188 14.078125-3.007812 20.355468zm0 0"/></svg>