<svg viewBox="0 0 512 512.001" xmlns="http://www.w3.org/2000/svg"><path d="m310.890625 301.910156-84.203125 30.457032c-27.246094 9.855468-45.394531 35.722656-45.394531 64.691406v104.941406h320.707031v-104.941406c0-28.972656-18.152344-54.835938-45.394531-64.691406l-84.207031-30.457032zm0 0" fill="#ade5ff"/><path d="m256.027344 341.5v-108.261719c0-55.242187-44.785156-100.023437-100.027344-100.023437s-100.023438 44.78125-100.023438 100.023437v108.261719zm0 0" fill="#4dbaf6"/><path d="m128 319.824219-76.667969 27.726562c-24.804687 8.972657-41.332031 32.523438-41.332031 58.902344v95.546875h292v-95.546875c0-26.378906-16.527344-49.929687-41.332031-58.902344l-76.667969-27.730469zm0 0" fill="#e889c3"/><g fill="#feda9b"><path d="m180 314v55c0 13.257812-10.746094 24-24 24s-24-10.742188-24-24v-55zm0 0"/><path d="m208 242.414062v22.304688c0 28.71875-23.28125 52-52 52s-52-23.28125-52-52v-57.050781zm0 0"/><path d="m368.003906 290.347656v49.789063c0 14.558593-11.800781 26.359375-26.359375 26.359375-14.558593 0-26.359375-11.800782-26.359375-26.359375v-49.789063zm0 0"/></g><path d="m256.128906 410.910156v27.027344c0 13.257812-10.746094 24-24 24-13.257812 0-24-10.742188-24-24v-27.027344zm0 0" fill="#fff"/><path d="m444.910156 415.324219v25.71875c0 12.613281-10.226562 22.835937-22.839844 22.835937-12.609374 0-22.835937-10.222656-22.835937-22.835937v-25.71875zm0 0" fill="#fff"/><path d="m391.125 204.167969v38.546875c0 27.328125-22.152344 49.480468-49.480469 49.480468-27.324219 0-49.480469-22.152343-49.480469-49.480468v-70.421875zm0 0" fill="#feda9b"/><path d="m418.265625 127.09375h-99.367187c-14.765626 0-26.734376 11.96875-26.734376 26.734375v23.609375c0 14.765625 11.96875 26.734375 26.734376 26.734375h51.789062c26.277344 0 47.578125-21.300781 47.578125-47.578125zm0 0" fill="#ffb954"/><path d="m282.746094 10c-10.484375 0-19.941406 4.574219-26.617188 11.902344-6.679687-7.328125-16.132812-11.902344-26.617187-11.902344-20.238281 0-36.640625 17.03125-36.640625 38.039062 0 35.414063 63.257812 69.960938 63.257812 69.960938s63.253906-34.546875 63.253906-69.960938c0-21.007812-16.402343-38.039062-36.636718-38.039062zm0 0" fill="#ff5d5d"/><path d="m460.007812 322.964844-82.003906-29.660156v-2.957032c0-.199218-.015625-.390625-.027344-.585937 14.066407-10.886719 23.148438-27.921875 23.148438-47.046875v-37.28125c16.28125-10.183594 27.140625-28.261719 27.140625-48.839844v-29.5c0-5.523438-4.476563-10-10-10h-99.367187c-20.253907 0-36.734376 16.480469-36.734376 36.734375v88.886719c0 19.125 9.082032 36.15625 23.152344 47.046875-.011718.191406-.03125.386719-.03125.582031v2.964844l-39.261718 14.261718v-74.332031c0-60.667969-49.355469-110.023437-110.023438-110.023437s-110.023438 49.355468-110.023438 110.023437v32.824219c0 5.523438 4.476563 10 10 10 5.523438 0 10-4.476562 10-10v-32.824219c0-49.640625 40.382813-90.023437 90.023438-90.023437s90.027344 40.382812 90.027344 90.023437v98.382813l-51.285156-18.546875c14.164062-11.375 23.257812-28.816407 23.257812-48.355469v-12.304688h5.667969c5.523437 0 10-4.476562 10-10 0-5.523437-4.476563-10-10-10h-19.007813c-34.09375 0-67.652344-11.582031-94.492187-32.617187-4.34375-3.40625-10.628907-2.644531-14.039063 1.703125-1.316406 1.683594-2.003906 3.652344-2.105468 5.636719-.015626.152343-.023438.328125-.023438.53125v57.050781c0 19.539062 9.09375 36.984375 23.257812 48.355469l-69.328124 25.074219c-28.667969 10.367187-47.929688 37.820312-47.929688 68.304687v95.546875c0 5.523438 4.476562 10 10 10h492c5.523438 0 10-4.476562 10-10v-104.941406c0-33.070313-20.894531-62.847656-51.992188-74.09375zm-134.722656-23.074219c5.203125 1.488281 10.6875 2.304687 16.363282 2.304687 5.671874 0 11.15625-.816406 16.355468-2.304687v40.246094c0 9.019531-7.335937 16.359375-16.355468 16.359375-9.023438 0-16.363282-7.339844-16.363282-16.359375zm-23.117187-146.0625c0-9.226563 7.503906-16.734375 16.730469-16.734375h89.367187v19.5c0 20.71875-16.855469 37.578125-37.578125 37.578125h-51.789062c-9.226563 0-16.730469-7.507813-16.730469-16.734375zm0 56.292969c5.019531 2.582031 10.707031 4.046875 16.730469 4.046875h51.789062c3.566406 0 7.050781-.339844 10.4375-.964844v29.511719c0 21.769531-17.707031 39.480468-39.476562 39.480468-21.773438 0-39.480469-17.710937-39.480469-39.480468zm-160.167969 114.984375c4.503906 1.042969 9.183594 1.613281 14 1.613281s9.5-.570312 14-1.613281v43.894531c0 7.722656-6.28125 14-14 14s-14-6.277344-14-14zm-28-98.34375c25.257812 15.480469 54.324219 24.359375 84 25.515625v12.441406c0 23.160156-18.839844 42-42 42s-42-18.839844-42-42zm67.292969 265.238281h-161.292969v-85.546875c0-22.09375 13.957031-41.980469 34.734375-49.496094l67.265625-24.328125v36.371094c0 18.75 15.253906 34 34 34 18.75 0 34-15.25 34-34v-36.371094l67.265625 24.328125c20.777344 7.511719 34.734375 27.402344 34.734375 49.496094v85.546875zm310.707031 0h-180v-85.546875c0-29.785156-18.390625-56.664063-45.972656-67.554687v-10.050782l39.257812-14.261718v25.550781c0 20.046875 16.3125 36.359375 36.363282 36.359375 20.046874 0 36.355468-16.3125 36.355468-36.359375v-25.5625l75.199219 27.195312c23.207031 8.394531 38.796875 30.613281 38.796875 55.289063zm0 0"/><path d="m256.128906 400.910156h-48c-5.523437 0-10 4.480469-10 10v27.027344c0 18.75 15.25 34 34 34 18.746094 0 34-15.25 34-34v-27.027344c0-5.519531-4.476562-10-10-10zm-10 37.027344c0 7.71875-6.28125 14-14 14-7.722656 0-14-6.28125-14-14v-17.027344h28zm0 0"/><path d="m444.910156 405.324219h-45.675781c-5.523437 0-10 4.480469-10 10v25.71875c0 18.105469 14.730469 32.839843 32.835937 32.839843 18.109376 0 32.839844-14.730468 32.839844-32.839843v-25.71875c0-5.519531-4.480468-10-10-10zm-10 35.71875c0 7.078125-5.761718 12.839843-12.839844 12.839843-7.078124 0-12.835937-5.761718-12.835937-12.839843v-15.71875h25.675781zm0 0"/><path d="m55.980469 317.980469c2.628906 0 5.199219-1.070313 7.058593-2.929688 1.871094-1.859375 2.929688-4.441406 2.929688-7.070312 0-2.628907-1.058594-5.210938-2.929688-7.070313-1.847656-1.859375-4.429687-2.929687-7.058593-2.929687-2.640625 0-5.210938 1.070312-7.078125 2.929687-1.863282 1.859375-2.933594 4.441406-2.933594 7.070313 0 2.628906 1.070312 5.210937 2.933594 7.070312 1.867187 1.859375 4.4375 2.929688 7.078125 2.929688zm0 0"/><path d="m218.128906 104.011719c16.363282 13.515625 32.527344 22.394531 33.207032 22.765625 1.492187.816406 3.140624 1.222656 4.792968 1.222656 1.648438 0 3.296875-.40625 4.792969-1.222656.679687-.371094 16.839844-9.25 33.203125-22.765625 23.398438-19.328125 35.257812-38.160157 35.257812-55.972657 0-26.488281-20.921874-48.039062-46.636718-48.039062-9.550782 0-18.859375 3.0625-26.617188 8.601562-7.757812-5.539062-17.070312-8.601562-26.617187-8.601562-25.71875 0-46.640625 21.550781-46.640625 48.039062 0 17.816407 11.863281 36.644532 35.257812 55.972657zm11.382813-84.011719c7.320312 0 14.148437 3.066406 19.226562 8.636719 1.894531 2.078125 4.578125 3.265625 7.390625 3.265625s5.496094-1.1875 7.390625-3.265625c5.074219-5.570313 11.902344-8.636719 19.226563-8.636719 14.6875 0 26.636718 12.578125 26.636718 28.039062 0 21.796876-35.46875 47.671876-53.253906 58.414063-17.792968-10.742187-53.257812-36.617187-53.257812-58.414063 0-15.460937 11.949218-28.039062 26.640625-28.039062zm0 0"/></svg>