<svg viewBox="-28 0 511 511.9978" xmlns="http://www.w3.org/2000/svg"><path d="m101.214844 182c13.980468-13.980469 36.652344-13.980469 50.632812 0 13.980469 13.980469 36.652344 13.980469 50.632813 0 13.984375-13.980469 36.652343-13.980469 50.636719 0 13.980468 13.980469 36.648437 13.980469 50.632812 0 13.980469-13.980469 36.652344-13.980469 50.632812 0l-92.082031 279.9375h-73.996093zm0 0" fill="#e889c3"/><path d="m285.054688 87.25c13.132812-8.074219 17.527343-25.1875 9.773437-38.625-7.757813-13.433594-24.777344-18.179688-38.335937-10.847656-.429688-15.410156-13.050782-27.777344-28.566407-27.777344-15.511719 0-28.132812 12.367188-28.5625 27.777344-13.558593-7.332032-30.578125-2.585938-38.335937 10.847656-7.757813 13.4375-3.359375 30.550781 9.773437 38.625-13.132812 8.078125-17.53125 25.1875-9.773437 38.625 7.757812 13.4375 24.777344 18.183594 38.335937 10.847656.429688 15.414063 13.050781 27.777344 28.5625 27.777344 15.515625 0 28.136719-12.363281 28.566407-27.777344 13.558593 7.335938 30.578124 2.589844 38.335937-10.847656 7.753906-13.4375 3.359375-30.546875-9.773437-38.625zm0 0" fill="#ffc66c"/><path d="m251.394531 87.105469c0 12.964843-10.507812 23.472656-23.46875 23.472656-12.960937 0-23.46875-10.507813-23.46875-23.472656 0-12.960938 10.507813-23.46875 23.46875-23.46875 12.960938 0 23.46875 10.507812 23.46875 23.46875zm0 0" fill="#fff"/><path d="m105.308594 107.25c9.730468-5.984375 12.992187-18.664062 7.242187-28.625-5.75-9.957031-18.359375-13.476562-28.414062-8.039062-.316407-11.421876-9.667969-20.585938-21.164063-20.585938-11.5 0-20.851562 9.164062-21.167968 20.585938-10.050782-5.4375-22.664063-1.917969-28.414063 8.039062-5.75 9.960938-2.488281 22.640625 7.242187 28.625-9.730468 5.988281-12.992187 18.667969-7.242187 28.625s18.363281 13.476562 28.414063 8.039062c.316406 11.421876 9.667968 20.585938 21.167968 20.585938 11.496094 0 20.847656-9.164062 21.164063-20.585938 10.050781 5.4375 22.664062 1.917969 28.414062-8.039062s2.488281-22.636719-7.242187-28.625zm0 0" fill="#ffc66c"/><path d="m80.363281 107.144531c0 9.605469-7.785156 17.390625-17.390625 17.390625-9.609375 0-17.394531-7.785156-17.394531-17.390625s7.785156-17.394531 17.394531-17.394531c9.605469 0 17.390625 7.789062 17.390625 17.394531zm0 0" fill="#fff"/><path d="m434.964844 107.25c9.730468-5.984375 12.992187-18.664062 7.242187-28.625-5.75-9.957031-18.359375-13.476562-28.410156-8.039062-.320313-11.421876-9.671875-20.585938-21.167969-20.585938-11.5 0-20.851562 9.164062-21.167968 20.585938-10.050782-5.4375-22.664063-1.917969-28.414063 8.039062-5.75 9.960938-2.488281 22.640625 7.242187 28.625-9.730468 5.988281-12.992187 18.667969-7.242187 28.625s18.363281 13.476562 28.414063 8.039062c.316406 11.421876 9.667968 20.585938 21.167968 20.585938 11.496094 0 20.847656-9.164062 21.167969-20.585938 10.046875 5.4375 22.660156 1.917969 28.410156-8.039062s2.488281-22.636719-7.242187-28.625zm0 0" fill="#ffc66c"/><path d="m410.019531 107.144531c0 9.605469-7.785156 17.390625-17.390625 17.390625-9.609375 0-17.394531-7.785156-17.394531-17.390625s7.785156-17.394531 17.394531-17.394531c9.605469 0 17.390625 7.789062 17.390625 17.394531zm0 0" fill="#fff"/><path d="m304.660156 323.179688c-2.640625 0-5.210937 1.058593-7.070312 2.917968-1.871094 1.859375-2.929688 4.441406-2.929688 7.070313 0 2.640625 1.058594 5.210937 2.929688 7.082031 1.859375 1.859375 4.4375 2.917969 7.070312 2.917969 2.628906 0 5.207032-1.058594 7.070313-2.917969 1.855469-1.871094 2.929687-4.441406 2.929687-7.082031 0-2.628907-1.070312-5.210938-2.929687-7.070313-1.863281-1.859375-4.441407-2.917968-7.070313-2.917968zm0 0"/><path d="m296.679688 174.929688c-4.875 4.875-11.355469 7.558593-18.246094 7.558593s-13.371094-2.683593-18.246094-7.558593c-3.011719-3.011719-6.34375-5.5-9.882812-7.496094 6.160156-4.363282 10.964843-10.496094 13.691406-17.707032 15.382812 2.515626 31.214844-4.519531 39.488281-18.851562 8.273437-14.328125 6.453125-31.558594-3.417969-43.625 9.871094-12.0625 11.691406-29.292969 3.417969-43.625s-24.105469-21.371094-39.488281-18.847656c-5.511719-14.582032-19.523438-24.777344-36.070313-24.777344-16.550781 0-30.558593 10.191406-36.070312 24.777344-15.382813-2.523438-31.214844 4.519531-39.488281 18.847656-8.273438 14.332031-6.453126 31.5625 3.417968 43.625-9.871094 12.066406-11.691406 29.296875-3.417968 43.625 8.273437 14.332031 24.101562 21.367188 39.488281 18.851562 2.707031 7.167969 7.472656 13.269532 13.582031 17.628907-3.59375 2.007812-6.976562 4.523437-10.027344 7.574219-4.875 4.871093-11.351562 7.558593-18.246094 7.558593-6.890624 0-13.371093-2.6875-18.246093-7.558593-8.648438-8.652344-20.152344-13.417969-32.386719-13.417969s-23.738281 4.765625-32.390625 13.417969c-2.625 2.625-3.578125 6.492187-2.476563 10.039062l87.089844 279.9375c1.300782 4.179688 5.167969 7.027344 9.546875 7.027344h1.085938l-5.640625 28.09375c-1.085938 5.414062 2.421875 10.6875 7.835937 11.773437.664063.132813 1.328125.195313 1.980469.195313 4.664062 0 8.839844-3.28125 9.792969-8.03125l6.429687-32.03125h8.140625v30.0625c0 5.523437 4.476563 10 10 10 5.519531 0 10-4.476563 10-10v-30.0625h8.136719l6.433594 32.03125c.953125 4.75 5.125 8.03125 9.792968 8.03125.652344 0 1.3125-.0625 1.976563-.195313 5.414063-1.089843 8.925781-6.359375 7.835937-11.773437l-5.804687-28.929688c2.550781-1.117187 4.589844-3.273437 5.5-6.039062l27.304687-83c1.726563-5.246094-1.128906-10.898438-6.375-12.621094-5.246093-1.730469-10.898437 1.125-12.625 6.371094l-25.039062 76.125h-.738281c-.015625 0-.027344 0-.039063 0h-58.621094l-82.894531-266.457032c4.078125-2.582031 8.8125-3.964843 13.761719-3.964843 6.890625 0 13.371094 2.6875 18.246094 7.558593 17.859375 17.859376 46.917968 17.859376 64.773437 0 10.0625-10.0625 26.433594-10.058593 36.492188 0 17.859375 17.859376 46.917969 17.859376 64.777343 0 8.644532-8.648437 21.953126-9.859374 31.910157-3.644531l-34.054688 103.523438c-1.726562 5.246093 1.125 10.898437 6.371094 12.625 5.246094 1.726562 10.898437-1.125 12.625-6.375l36.207031-110.074219c1.179688-3.585938.242188-7.527344-2.425781-10.195312-17.859375-17.859376-46.914063-17.859376-64.773437 0zm-97.316407-48.207032c-1.636719 0-3.273437.402344-4.757812 1.207032-8.90625 4.816406-19.855469 1.71875-24.917969-7.054688-5.066406-8.773438-2.277344-19.800781 6.351562-25.105469 2.957032-1.820312 4.761719-5.042969 4.761719-8.519531 0-3.472656-1.804687-6.695312-4.761719-8.515625-8.628906-5.308594-11.417968-16.335937-6.351562-25.109375 5.0625-8.769531 16.011719-11.871094 24.917969-7.050781 3.054687 1.652343 6.746093 1.601562 9.757812-.136719 3.007813-1.734375 4.898438-4.910156 4.996094-8.382812.28125-10.121094 8.4375-18.054688 18.566406-18.054688 10.128907 0 18.285157 7.929688 18.566407 18.054688.097656 3.472656 1.988281 6.648437 4.996093 8.382812 3.007813 1.738281 6.699219 1.789062 9.757813.136719 8.90625-4.816407 19.855468-1.71875 24.917968 7.054687 5.066407 8.769532 2.277344 19.800782-6.351562 25.105469-2.957031 1.820313-4.761719 5.042969-4.761719 8.515625 0 3.476562 1.804688 6.699219 4.761719 8.519531 8.628906 5.304688 11.417969 16.332031 6.351562 25.105469-5.0625 8.773438-16.011718 11.871094-24.917968 7.054688-3.054688-1.652344-6.75-1.601563-9.757813.132812-3.007812 1.738281-4.898437 4.914062-4.996093 8.382812-.28125 10.125-8.4375 18.054688-18.566407 18.054688-10.128906 0-18.285156-7.929688-18.566406-18.054688-.097656-3.472656-1.988281-6.644531-4.996094-8.382812-1.546875-.890625-3.273437-1.339844-5-1.339844zm0 0"/><path d="m261.394531 87.105469c0-18.453125-15.015625-33.46875-33.46875-33.46875-18.457031 0-33.46875 15.015625-33.46875 33.46875 0 18.457031 15.011719 33.472656 33.46875 33.472656 18.453125 0 33.46875-15.015625 33.46875-33.472656zm-46.9375 0c0-7.425781 6.042969-13.46875 13.46875-13.46875s13.46875 6.042969 13.46875 13.46875c0 7.429687-6.042969 13.472656-13.46875 13.472656s-13.46875-6.042969-13.46875-13.472656zm0 0"/><path d="m62.972656 79.75c-15.105468 0-27.394531 12.289062-27.394531 27.394531s12.289063 27.394531 27.394531 27.394531c15.101563 0 27.390625-12.289062 27.390625-27.394531s-12.289062-27.394531-27.390625-27.394531zm0 34.789062c-4.078125 0-7.394531-3.316406-7.394531-7.394531s3.316406-7.394531 7.394531-7.394531c4.074219 0 7.390625 3.316406 7.390625 7.394531s-3.316406 7.394531-7.390625 7.394531zm0 0"/><path d="m121.210938 140.875c6.324218-10.949219 5.351562-23.992188-1.515626-33.625 6.867188-9.628906 7.839844-22.671875 1.515626-33.625-6.320313-10.949219-18.105469-16.632812-29.878907-15.5-4.90625-10.761719-15.714843-18.125-28.359375-18.125-12.644531 0-23.457031 7.363281-28.363281 18.128906-11.773437-1.132812-23.554687 4.546875-29.878906 15.5-6.320313 10.949219-5.351563 23.992188 1.515625 33.625-6.867188 9.628906-7.835938 22.671875-1.515625 33.621094 6.324219 10.953125 18.101562 16.628906 29.878906 15.5 4.90625 10.765625 15.71875 18.125 28.363281 18.125 12.640625 0 23.453125-7.359375 28.359375-18.125 11.78125 1.136719 23.558594-4.550781 29.878907-15.5zm-42.074219-5.621094c-3.007813 1.738282-4.898438 4.910156-4.992188 8.382813-.171875 6.09375-5.078125 10.863281-11.171875 10.863281-6.097656 0-11.003906-4.769531-11.171875-10.863281-.097656-3.472657-1.988281-6.644531-4.996093-8.382813-1.546876-.890625-3.273438-1.339844-5-1.339844-1.636719 0-3.273438.402344-4.757813 1.207032-5.359375 2.898437-11.949219 1.035156-14.996094-4.246094-3.046875-5.277344-1.367187-11.914062 3.824219-15.105469 2.957031-1.820312 4.757812-5.042969 4.757812-8.519531 0-3.472656-1.800781-6.695312-4.757812-8.515625-5.191406-3.191406-6.871094-9.828125-3.824219-15.105469 3.046875-5.28125 9.632813-7.144531 14.996094-4.246094 3.054687 1.652344 6.746094 1.601563 9.757813-.136718 3.007812-1.734375 4.898437-4.910156 4.996093-8.378906.167969-6.09375 5.074219-10.863282 11.171875-10.863282 6.09375 0 11 4.769532 11.171875 10.863282.09375 3.46875 1.984375 6.644531 4.992188 8.378906 3.011719 1.738281 6.703125 1.789062 9.761719.136718 5.355468-2.898437 11.945312-1.035156 14.992187 4.246094 3.046875 5.277344 1.367187 11.914063-3.820313 15.105469-2.960937 1.820313-4.761718 5.042969-4.761718 8.519531 0 3.472656 1.800781 6.695313 4.761718 8.515625 5.1875 3.191407 6.867188 9.828125 3.820313 15.105469-3.046875 5.28125-9.636719 7.144531-14.992187 4.246094-3.058594-1.652344-6.75-1.601563-9.761719.132812zm0 0"/><path d="m392.628906 79.75c-15.105468 0-27.394531 12.289062-27.394531 27.394531s12.289063 27.394531 27.394531 27.394531c15.101563 0 27.390625-12.289062 27.390625-27.394531s-12.289062-27.394531-27.390625-27.394531zm0 34.789062c-4.078125 0-7.394531-3.316406-7.394531-7.394531s3.316406-7.394531 7.394531-7.394531 7.390625 3.316406 7.390625 7.394531-3.3125 7.394531-7.390625 7.394531zm0 0"/><path d="m450.867188 73.625c-6.320313-10.949219-18.105469-16.625-29.878907-15.496094-4.902343-10.765625-15.714843-18.125-28.359375-18.125-12.644531 0-23.457031 7.359375-28.363281 18.125-11.777344-1.132812-23.558594 4.546875-29.878906 15.5-6.320313 10.949219-5.351563 23.992188 1.519531 33.625-6.871094 9.628906-7.839844 22.671875-1.519531 33.621094 6.324219 10.953125 18.101562 16.632812 29.878906 15.5 4.90625 10.765625 15.71875 18.125 28.363281 18.125 12.644532 0 23.457032-7.359375 28.359375-18.125 11.765625 1.132812 23.558594-4.550781 29.878907-15.5 6.324218-10.949219 5.351562-23.992188-1.515626-33.621094 6.867188-9.632812 7.839844-22.675781 1.515626-33.628906zm-21.140626 42.144531c5.1875 3.191407 6.867188 9.828125 3.820313 15.105469s-9.636719 7.140625-14.992187 4.242188c-3.058594-1.648438-6.75-1.601563-9.757813.136718-3.011719 1.738282-4.902344 4.910156-4.996094 8.382813-.171875 6.09375-5.078125 10.863281-11.171875 10.863281-6.097656 0-11.003906-4.773438-11.175781-10.863281-.097656-3.472657-1.988281-6.644531-4.996094-8.382813-1.542969-.890625-3.269531-1.339844-5-1.339844-1.632812 0-3.269531.402344-4.757812 1.203126-5.359375 2.902343-11.945313 1.035156-14.992188-4.242188s-1.367187-11.914062 3.820313-15.105469c2.960937-1.820312 4.761718-5.046875 4.761718-8.519531s-1.800781-6.699219-4.761718-8.519531c-5.1875-3.191407-6.867188-9.828125-3.820313-15.105469s9.632813-7.144531 14.992188-4.242188c3.054687 1.652344 6.75 1.601563 9.757812-.136718 3.007813-1.738282 4.898438-4.910156 4.996094-8.382813.171875-6.089843 5.078125-10.863281 11.175781-10.863281 6.09375 0 11 4.769531 11.171875 10.863281.09375 3.472657 1.984375 6.644531 4.996094 8.382813 3.007813 1.734375 6.699219 1.789062 9.757813.136718 5.355468-2.898437 11.945312-1.039062 14.992187 4.242188 3.046875 5.277344 1.367187 11.914062-3.820313 15.105469-2.960937 1.820312-4.761718 5.046875-4.761718 8.519531s1.800781 6.699219 4.761718 8.519531zm0 0"/><path d="m86.710938 18.851562c31.574218 16.628907 34.570312 44.648438 34.695312 45.980469.433594 5.214844 4.800781 9.171875 9.953125 9.171875.261719 0 .523437-.011718.785156-.03125 5.507813-.429687 9.625-5.238281 9.195313-10.746094-.125-1.625-3.574219-40.085937-45.308594-62.070312-4.886719-2.574219-10.933594-.703125-13.507812 4.1875-2.574219 4.882812-.699219 10.933594 4.1875 13.507812zm0 0"/><path d="m323.703125 74.003906c.269531.023438.53125.03125.792969.03125 5.167968 0 9.542968-3.949218 9.949218-9.191406.109376-1.1875 3.035157-29.316406 34.695313-45.992188 4.886719-2.574218 6.761719-8.625 4.1875-13.507812-2.570313-4.886719-8.617187-6.765625-13.507813-4.1875-41.734374 21.984375-45.183593 60.445312-45.308593 62.070312-.425781 5.507813 3.6875 10.351563 9.191406 10.777344zm0 0"/></svg>