<svg viewBox="0 0 512 512" xmlns="http://www.w3.org/2000/svg"><path d="m135.703125 128v-108c0-5.523438-4.476563-10-10-10h-39.40625c-5.523437 0-10 4.476562-10 10v108c0 27.871094-12.097656 54.371094-33.148437 72.632812-21.054688 18.261719-33.148438 44.761719-33.148438 72.632813v228.734375h192v-228.734375c0-27.871094-12.09375-54.371094-33.148438-72.632813-21.050781-18.261718-33.148437-44.761718-33.148437-72.632812zm0 0" fill="#ffc66c"/><path d="m10 273.265625h192v188.671875h-192zm0 0" fill="#fff"/><path d="m135.703125 128v-108c0-5.523438-4.476563-10-10-10h-39.40625c-5.523437 0-10 4.476562-10 10v108zm0 0" fill="#4dbaf6"/><path d="m129.5625 319.601562c-9.28125 0-17.652344 4.0625-23.5625 10.578126-5.914062-6.515626-14.28125-10.578126-23.5625-10.578126-17.917969 0-32.441406 15.136719-32.441406 33.8125 0 31.480469 56.003906 62.1875 56.003906 62.1875s56.003906-30.707031 56.003906-62.1875c0-18.675781-14.523437-33.8125-32.441406-33.8125zm0 0" fill="#ff5d5d"/><path d="m454 400.128906c-26.511719 0-48-21.492187-48-48v-144.128906h96v144.128906c0 26.507813-21.488281 48-48 48zm0 0" fill="#ffc66c"/><path d="m406 208h96v65.265625h-96zm0 0" fill="#fff"/><path d="m318 400.128906c-26.511719 0-48-21.492187-48-48v-144.128906h96v144.128906c0 26.507813-21.488281 48-48 48zm0 0" fill="#ffc66c"/><path d="m270 208h96v65.265625h-96zm0 0" fill="#fff"/><path d="m175.40625 193.078125c-18.875-16.371094-29.699219-40.09375-29.699219-65.078125v-108c0-11.027344-8.972656-20-20-20h-39.410156c-11.027344 0-20 8.972656-20 20v108c0 24.984375-10.824219 48.707031-29.699219 65.078125-23.257812 20.171875-36.597656 49.398437-36.597656 80.1875v228.734375c0 5.523438 4.476562 10 10 10h192c5.523438 0 10-4.476562 10-10v-228.734375c0-30.789063-13.339844-60.015625-36.59375-80.1875zm-49.703125-173.078125v98h-39.40625v-98zm-105.703125 472v-20.0625h172v20.0625zm172-40.0625h-172v-168.671875h106c5.523438 0 10-4.476563 10-10s-4.476562-10-10-10h-105.410156c2.476562-21.234375 12.773437-40.910156 29.109375-55.078125 20.722656-17.976562 33.5625-43.140625 36.117187-70.1875h40.371094c2.550781 27.046875 15.390625 52.210938 36.113281 70.1875 18.875 16.371094 29.699219 40.089844 29.699219 65.078125zm0 0"/><path d="m157.429688 266.191406c-1.859376 1.859375-2.929688 4.4375-2.929688 7.078125 0 2.628907 1.070312 5.199219 2.929688 7.070313 1.859374 1.859375 4.441406 2.921875 7.070312 2.921875s5.210938-1.0625 7.070312-2.921875c1.859376-1.871094 2.929688-4.441406 2.929688-7.070313 0-2.640625-1.070312-5.210937-2.929688-7.078125-1.859374-1.863281-4.441406-2.929687-7.070312-2.929687s-5.210938 1.066406-7.070312 2.929687zm0 0"/><path d="m129.5625 309.601562c-8.421875 0-16.636719 2.625-23.5625 7.386719-6.925781-4.761719-15.140625-7.386719-23.5625-7.386719-23.402344 0-42.441406 19.652344-42.441406 43.8125 0 36.351563 54.933594 67.519532 61.195312 70.957032 1.5.820312 3.152344 1.230468 4.808594 1.230468s3.3125-.410156 4.808594-1.234374c6.261718-3.433594 61.195312-34.601563 61.195312-70.953126 0-24.160156-19.039062-43.8125-42.441406-43.8125zm-23.5625 94.457032c-19.527344-11.765625-46.003906-33.539063-46.003906-50.644532 0-13.128906 10.066406-23.8125 22.441406-23.8125 6.148438 0 11.886719 2.589844 16.160156 7.296876 1.894532 2.089843 4.582032 3.28125 7.402344 3.28125s5.507812-1.191407 7.402344-3.28125c4.273437-4.707032 10.011718-7.296876 16.160156-7.296876 12.375 0 22.441406 10.683594 22.441406 23.8125 0 17.105469-26.476562 38.882813-46.003906 50.644532zm0 0"/><path d="m512 352.128906v-144.128906c0-5.523438-4.476562-10-10-10h-96c-5.523438 0-10 4.476562-10 10v144.128906c0 28.566406 20.769531 52.363282 48 57.117188v82.753906h-22c-5.523438 0-10 4.476562-10 10s4.476562 10 10 10h64c5.523438 0 10-4.476562 10-10s-4.476562-10-10-10h-22v-82.753906c27.230469-4.753906 48-28.550782 48-57.117188zm-20-134.128906v45.265625h-76v-45.265625zm-76 134.128906v-68.863281h76v68.863281c0 20.949219-17.046875 38-38 38s-38-17.046875-38-38zm0 0"/><path d="m366 198h-96c-5.523438 0-10 4.476562-10 10v144.128906c0 28.566406 20.769531 52.363282 48 57.117188v82.753906h-22c-5.523438 0-10 4.476562-10 10s4.476562 10 10 10h64c5.523438 0 10-4.476562 10-10s-4.476562-10-10-10h-22v-82.753906c27.230469-4.753906 48-28.550782 48-57.117188v-144.128906c0-5.523438-4.476562-10-10-10zm-10 20v45.265625h-76v-45.265625zm-38 172.128906c-20.953125 0-38-17.046875-38-38v-68.863281h76v68.863281c0 20.953125-17.046875 38-38 38zm0 0"/><path d="m448 87.808594c5.523438 0 10-4.476563 10-10v-13.8125c0-5.523438-4.476562-10-10-10s-10 4.476562-10 10v13.8125c0 5.523437 4.476562 10 10 10zm0 0"/><path d="m448 153.996094c5.523438 0 10-4.476563 10-10v-13.808594c0-5.523438-4.476562-10-10-10s-10 4.476562-10 10v13.808594c0 5.523437 4.476562 10 10 10zm0 0"/><path d="m474.1875 113.996094h13.8125c5.523438 0 10-4.476563 10-10 0-5.523438-4.476562-10-10-10h-13.8125c-5.523438 0-10 4.476562-10 10 0 5.523437 4.476562 10 10 10zm0 0"/><path d="m408 113.996094h13.8125c5.523438 0 10-4.476563 10-10 0-5.523438-4.476562-10-10-10h-13.8125c-5.523438 0-10 4.476562-10 10 0 5.523437 4.476562 10 10 10zm0 0"/></svg>