<svg viewBox="0 -27 512 512" xmlns="http://www.w3.org/2000/svg"><path d="m232.679688 131.195312c-6.675782 0-12.691407 2.910157-16.945313 7.574219-4.25-4.664062-10.265625-7.574219-16.941406-7.574219-12.878907 0-23.320313 10.839844-23.320313 24.210938 0 22.542969 40.261719 44.53125 40.261719 44.53125s40.265625-21.988281 40.265625-44.53125c0-13.371094-10.441406-24.210938-23.320312-24.210938zm0 0" fill="#ff5d5d"/><path d="m306.628906 10c-8.609375 0-16.371094 3.753906-21.859375 9.773438-5.484375-6.019532-13.246093-9.773438-21.859375-9.773438-16.617187 0-30.089844 13.988281-30.089844 31.238281 0 29.085938 51.949219 57.457031 51.949219 57.457031s51.953125-28.371093 51.953125-57.457031c0-17.25-13.472656-31.238281-30.09375-31.238281zm0 0" fill="#fe8f8d"/><path d="m9.273438 336.957031v-73.222656h54.039062c27.464844 0 76.824219 18.542969 76.824219 73.394531v-36.652344c0-25.394531 20.585937-45.980468 45.980469-45.980468 25.390624 0 45.976562 20.585937 45.976562 45.980468v70.398438c0 42.597656-34.527344 77.125-77.125 77.125h-34.652344c-61.328125 0-111.042968-49.714844-111.042968-111.042969zm0 0" fill="#c9f3ff"/><path d="m502 336.957031v-73.222656h-54.039062c-27.464844 0-76.824219 18.542969-76.824219 73.394531v-36.652344c0-25.394531-20.585938-45.980468-45.980469-45.980468-25.390625 0-45.976562 20.585937-45.976562 45.980468v70.398438c0 42.597656 34.527343 77.125 77.125 77.125h34.648437c61.332031 0 111.046875-49.714844 111.046875-111.042969zm0 0" fill="#c9f3ff"/><path d="m189.5 299.859375c-2.640625 0-5.21875 1.070313-7.078125 2.929687-1.863281 1.859376-2.921875 4.441407-2.921875 7.070313s1.058594 5.210937 2.921875 7.070313c1.867187 1.859374 4.4375 2.929687 7.078125 2.929687 2.628906 0 5.199219-1.070313 7.070312-2.929687 1.859376-1.859376 2.929688-4.441407 2.929688-7.070313s-1.070312-5.210937-2.929688-7.070313c-1.859374-1.859374-4.441406-2.929687-7.070312-2.929687zm0 0"/><path d="m502 253.734375h-54.039062c-18.679688 0-39.089844 6.746094-54.601563 18.042969-4.71875 3.441406-9.726563 7.839844-14.355469 13.371094-6.679687-23.441407-28.289062-40.652344-53.847656-40.652344-30.867188 0-55.976562 25.109375-55.976562 55.976562v10.632813h-3.792969c-4.320313 0-7.988281 2.742187-9.386719 6.574219-1.398438-3.832032-5.066406-6.574219-9.386719-6.574219h-3.792969v-10.632813c0-30.867187-25.113281-55.976562-55.980468-55.976562-25.554688 0-47.164063 17.210937-53.847656 40.652344-4.625-5.53125-9.636719-9.933594-14.355469-13.371094-15.507813-11.296875-35.917969-18.042969-54.601563-18.042969h-54.035156c-5.523438 0-10 4.476563-10 10v73.222656c0 32.332031 12.589844 62.726563 35.453125 85.589844s53.257813 35.453125 85.589844 35.453125h34.652343c48.042969 0 87.125-39.085938 87.125-87.125v-39.769531h3.792969c4.320313 0 7.988281-2.746094 9.386719-6.578125 1.398438 3.832031 5.066406 6.578125 9.386719 6.578125h3.792969v39.769531c0 48.039062 39.082031 87.125 87.125 87.125h34.652343c66.742188 0 121.042969-54.300781 121.042969-121.042969v-73.222656c0-5.523437-4.476562-10-10-10zm-279.179688 117.140625c0 37.011719-30.109374 67.125-67.125 67.125h-34.652343c-26.988281 0-52.363281-10.511719-71.449219-29.59375-18.195312-18.195312-28.589844-42.113281-29.519531-67.691406 17.859375 23.324218 45.976562 38.394531 77.550781 38.394531 5.523438 0 10-4.476563 10-10 0-5.519531-4.476562-10-10-10-42.804688 0-77.625-34.820313-77.625-77.625v-7.75h44.039062c17.335938 0 66.824219 11.644531 66.824219 63.394531 0 5.519532 4.476563 10 10 10 5.523438 0 10-4.480468 10-10v-36.652344c0-19.839843 16.140625-35.980468 35.980469-35.980468 19.835938 0 35.976562 16.140625 35.976562 35.980468zm168.136719 67.125h-34.652343c-37.015626 0-67.125-30.113281-67.125-67.125v-70.398438c0-19.839843 16.140624-35.980468 35.976562-35.980468 19.839844 0 35.980469 16.140625 35.980469 35.980468v36.652344c0 5.519532 4.476562 10 10 10 5.523437 0 10-4.480468 10-10 0-51.75 49.488281-63.394531 66.824219-63.394531h44.039062v7.75c0 42.804687-34.824219 77.625-77.625 77.625-5.523438 0-10 4.480469-10 10 0 5.523437 4.476562 10 10 10 31.574219 0 59.691406-15.070313 77.546875-38.394531-1.984375 53.980468-46.511719 97.285156-100.964844 97.285156zm0 0"/><path d="m322.511719 299.859375c-2.640625 0-5.222657 1.070313-7.082031 2.929687-1.859376 1.859376-2.917969 4.441407-2.917969 7.070313s1.058593 5.210937 2.917969 7.070313c1.871093 1.859374 4.441406 2.929687 7.082031 2.929687 2.628906 0 5.199219-1.070313 7.066406-2.929687 1.863281-1.859376 2.933594-4.441407 2.933594-7.070313s-1.070313-5.210937-2.933594-7.070313c-1.859375-1.859374-4.4375-2.929687-7.066406-2.929687zm0 0"/><path d="m210.941406 208.714844c1.496094.8125 3.144532 1.222656 4.792969 1.222656 1.652344 0 3.300781-.40625 4.792969-1.222656 4.65625-2.542969 45.472656-25.632813 45.472656-53.308594 0-18.863281-14.949219-34.210938-33.320312-34.210938-5.996094 0-11.851563 1.679688-16.945313 4.761719-5.089844-3.082031-10.949219-4.761719-16.941406-4.761719-18.371094 0-33.320313 15.347657-33.320313 34.210938 0 27.675781 40.816406 50.765625 45.46875 53.308594zm-12.148437-67.519532c3.625 0 7.019531 1.53125 9.550781 4.3125 1.894531 2.078126 4.578125 3.261719 7.390625 3.261719 2.816406 0 5.496094-1.183593 7.390625-3.261719 2.535156-2.78125 5.925781-4.3125 9.550781-4.3125 7.347657 0 13.320313 6.375 13.320313 14.210938 0 10.195312-16.390625 24.363281-30.261719 32.953125-13.875-8.59375-30.261719-22.757813-30.261719-32.953125 0-7.835938 5.976563-14.210938 13.320313-14.210938zm0 0"/><path d="m279.976562 107.472656c1.496094.8125 3.144532 1.222656 4.792969 1.222656 1.652344 0 3.300781-.40625 4.792969-1.222656 5.851562-3.195312 57.160156-32.199218 57.160156-66.230468 0-22.742188-17.988281-41.242188-40.09375-41.242188-7.792968 0-15.402344 2.371094-21.859375 6.683594-6.457031-4.3125-14.0625-6.683594-21.859375-6.683594-22.105468 0-40.089844 18.5-40.089844 41.238281 0 34.035157 51.308594 63.039063 57.15625 66.234375zm-17.066406-87.472656c5.503906 0 10.644532 2.3125 14.472656 6.507812 1.894532 2.082032 4.578126 3.265626 7.390626 3.265626s5.496093-1.183594 7.390624-3.265626c3.824219-4.195312 8.960938-6.507812 14.464844-6.507812 11.078125 0 20.09375 9.527344 20.09375 21.238281 0 15.378907-24.007812 35.082031-41.929687 45.902344-14.589844-8.914063-41.972657-29.09375-41.972657-45.902344 0-11.710937 9.011719-21.238281 20.089844-21.238281zm0 0"/><path d="m64 74h9v9c0 5.523438 4.476562 10 10 10s10-4.476562 10-10v-9h9c5.523438 0 10-4.476562 10-10s-4.476562-10-10-10h-9v-9c0-5.523438-4.476562-10-10-10s-10 4.476562-10 10v9h-9c-5.523438 0-10 4.476562-10 10s4.476562 10 10 10zm0 0"/><path d="m365 157h9v9c0 5.523438 4.476562 10 10 10s10-4.476562 10-10v-9h9c5.523438 0 10-4.476562 10-10s-4.476562-10-10-10h-9v-9c0-5.523438-4.476562-10-10-10s-10 4.476562-10 10v9h-9c-5.523438 0-10 4.476562-10 10s4.476562 10 10 10zm0 0"/><path d="m356.304688 414.960938c-24.3125 0-44.085938-19.777344-44.085938-44.085938 0-5.523438 4.476562-10 10-10s10 4.476562 10 10c0 13.28125 10.804688 24.085938 24.085938 24.085938 5.519531 0 10 4.476562 10 10 0 5.519531-4.480469 10-10 10zm0 0"/><path d="m396.46875 414.960938c-2.628906 0-5.207031-1.070313-7.070312-2.933594-1.859376-1.855469-2.929688-4.4375-2.929688-7.066406 0-2.632813 1.070312-5.210938 2.929688-7.070313 1.863281-1.859375 4.441406-2.929687 7.070312-2.929687 2.632812 0 5.210938 1.066406 7.070312 2.929687 1.859376 1.859375 2.929688 4.4375 2.929688 7.070313 0 2.628906-1.070312 5.210937-2.929688 7.066406-1.859374 1.863281-4.4375 2.933594-7.070312 2.933594zm0 0"/></svg>