<svg viewBox="-47 0 511 511.99911" xmlns="http://www.w3.org/2000/svg"><path d="m239.445312 334.722656h-60c-5.519531 0-10-4.476562-10-10v-180c0-5.523437 4.480469-10 10-10h60c5.523438 0 10 4.476563 10 10v180c0 5.523438-4.476562 10-10 10zm0 0" fill="#ff5d5d"/><path d="m256.398438 87.769531c0-41.066406-46.953126-39.679687-46.953126-77.769531-35.402343 28.394531-46.949218 51.839844-46.949218 77.769531 0 25.929688 21.019531 46.953125 46.949218 46.953125 25.933594 0 46.953126-21.023437 46.953126-46.953125zm0 0" fill="#ffb954"/><path d="m87.453125 388.722656h-60c-5.523437 0-10-4.476562-10-10v-180c0-5.523437 4.476563-10 10-10h60c5.519531 0 10 4.476563 10 10v180c0 5.523438-4.480469 10-10 10zm0 0" fill="#ff5d5d"/><path d="m104.40625 141.769531c0-41.066406-46.953125-39.679687-46.953125-77.769531-35.40625 28.394531-46.953125 51.839844-46.953125 77.769531 0 25.929688 21.019531 46.953125 46.953125 46.953125 25.929687 0 46.953125-21.023437 46.953125-46.953125zm0 0" fill="#ffc66c"/><path d="m391.445312 388.722656h-60c-5.519531 0-10-4.476562-10-10v-180c0-5.523437 4.480469-10 10-10h60c5.523438 0 10 4.476563 10 10v180c0 5.523438-4.476562 10-10 10zm0 0" fill="#ff5d5d"/><path d="m408.398438 141.769531c0-41.066406-46.953126-39.679687-46.953126-77.769531-35.40625 28.394531-46.953124 51.839844-46.953124 77.769531 0 25.929688 21.023437 46.953125 46.953124 46.953125 25.933594 0 46.953126-21.023437 46.953126-46.953125zm0 0" fill="#ffc66c"/><path d="m159.445312 144.722656v180c0 11.027344 8.972657 20 20 20h60c11.03125 0 20-8.972656 20-20v-180c0-7.167968-3.800781-13.445312-9.480468-16.980468 10.152344-10.289063 16.433594-24.410157 16.433594-39.972657 0-25.675781-15.429688-38.222656-27.832032-48.300781-12.210937-9.925781-19.121094-16.1875-19.121094-29.46875 0-3.84375-2.203124-7.351562-5.671874-9.015625s-7.582032-1.191406-10.582032 1.214844c-35.535156 28.496093-50.695312 54.085937-50.695312 85.570312 0 15.5625 6.28125 29.683594 16.433594 39.972657-5.679688 3.53125-9.484376 9.8125-9.484376 16.980468zm80 180h-60v-180h60l.015626 180s-.003907 0-.015626 0zm-36.324218-296.054687c5.109375 11.917969 14.660156 19.679687 22.832031 26.320312 11.425781 9.285157 20.445313 16.621094 20.445313 32.78125 0 20.375-16.574219 36.953125-36.953126 36.953125-20.375 0-36.949218-16.578125-36.949218-36.953125 0-15.320312 3.949218-34.109375 30.625-59.101562zm0 0"/><path d="m401.964844 181.742188c10.152344-10.289063 16.433594-24.410157 16.433594-39.972657 0-25.675781-15.429688-38.222656-27.832032-48.300781-12.210937-9.925781-19.121094-16.1875-19.121094-29.46875 0-3.84375-2.203124-7.351562-5.671874-9.015625s-7.582032-1.191406-10.582032 1.214844c-35.535156 28.496093-50.695312 54.085937-50.695312 85.570312 0 15.5625 6.28125 29.683594 16.433594 39.972657-5.679688 3.53125-9.484376 9.8125-9.484376 16.980468v180c0 11.027344 8.972657 20 20 20h19.996094v29.277344c0 5.511719-4.484375 10-10 10h-121.996094v-34c0-5.523438-4.476562-10-10-10-5.519531 0-10 4.476562-10 10v34h-121.992187c-5.515625 0-10-4.488281-10-10v-29.277344h20c11.027344 0 20-8.972656 20-20v-180c0-7.167968-3.804687-13.445312-9.484375-16.980468 10.15625-10.289063 16.4375-24.410157 16.4375-39.972657 0-25.675781-15.433594-38.222656-27.832031-48.300781-12.214844-9.925781-19.121094-16.1875-19.121094-29.46875 0-3.84375-2.207031-7.351562-5.675781-9.015625s-7.582032-1.191406-10.582032 1.214844c-35.535156 28.496093-50.695312 54.085937-50.695312 85.570312 0 15.5625 6.28125 29.683594 16.433594 39.972657-5.679688 3.535156-9.480469 9.8125-9.480469 16.980468v180c0 11.027344 8.96875 20 20 20h20v29.277344c0 16.542969 13.457031 30 30 30h121.992187v34h-37.5c-5.519531 0-10 4.476562-10 10s4.480469 10 10 10h95c5.523438 0 10-4.476562 10-10s-4.476562-10-10-10h-37.5v-34h121.996094c16.542969 0 30-13.457031 30-30v-29.277344h20.003906c11.03125 0 20-8.972656 20-20v-180c0-7.167968-3.800781-13.445312-9.480468-16.980468zm-350.839844-99.074219c5.109375 11.914062 14.664062 19.679687 22.832031 26.320312 11.425781 9.285157 20.449219 16.621094 20.449219 32.78125 0 20.375-16.578125 36.953125-36.953125 36.953125s-36.953125-16.578125-36.953125-36.953125c0-15.320312 3.949219-34.109375 30.625-59.101562zm-23.671875 116.054687h60l.011719 180s-.003906 0-.011719 0h-60zm327.667969-116.054687c5.109375 11.914062 14.660156 19.679687 22.832031 26.320312 11.421875 9.285157 20.445313 16.621094 20.445313 32.78125 0 20.375-16.574219 36.953125-36.953126 36.953125-20.375 0-36.949218-16.578125-36.949218-36.953125 0-15.320312 3.949218-34.109375 30.625-59.101562zm36.324218 296.054687h-60v-180h60l.015626 180s-.003907 0-.015626 0zm0 0"/><path d="m202.378906 361.25c-1.859375 1.859375-2.933594 4.4375-2.933594 7.070312 0 2.640626 1.070313 5.210938 2.933594 7.070313 1.859375 1.867187 4.4375 2.929687 7.066406 2.929687 2.632813 0 5.210938-1.0625 7.070313-2.929687 1.859375-1.859375 2.929687-4.429687 2.929687-7.070313 0-2.632812-1.066406-5.210937-2.929687-7.070312-1.859375-1.859375-4.4375-2.929688-7.070313-2.929688-2.628906 0-5.207031 1.070313-7.066406 2.929688zm0 0"/></svg>