<svg viewBox="0 0 512 512" xmlns="http://www.w3.org/2000/svg"><path d="m345 461.875h157v40.125h-157zm0 0" fill="#ade5ff"/><path d="m10 461.875v40.125h216l39.769531-39.769531zm0 0" fill="#ade5ff"/><path d="m502 266.0625-1.90625 1.90625c-21.375 21.382812-50.371094 33.394531-80.605469 33.394531-30.097656 0-58.972656-11.90625-80.324219-33.113281l-2.203124-2.1875-45.820313 27.507812c-64.125 38.496094-134.507813 65.445313-207.945313 79.625-42.492187 8.203126-73.195312 45.402344-73.195312 88.679688h492zm0 0" fill="#ffb954"/><path d="m83.195312 373.195312c25.445313-4.914062 50.523438-11.363281 75.101563-19.289062 16.210937 28.347656 25.480469 61.179688 25.480469 96.179688 0 3.960937-.132813 7.886718-.367188 11.789062h-173.410156c0-43.277344 30.703125-80.476562 73.195312-88.679688zm0 0" fill="#fff"/><path d="m391.429688 461.875c0-.148438-.003907-.300781-.003907-.449219 0-61.070312 49.503907-110.578125 110.574219-110.578125v111.027344zm0 0" fill="#fff"/><path d="m10 205.8125h157v40.125h-157zm0 0" fill="#ade5ff"/><path d="m502 205.8125v40.125h-216l-39.769531-39.769531zm0 0" fill="#ade5ff"/><path d="m10 10 1.90625 1.90625c21.375 21.382812 50.371094 33.394531 80.605469 33.394531 30.097656 0 58.972656-11.902343 80.324219-33.113281l2.203124-2.1875 45.820313 27.507812c64.125 38.496094 134.503906 65.445313 207.941406 79.625 42.496094 8.203126 73.195313 45.402344 73.195313 88.679688h-491.996094zm0 0" fill="#ffb954"/><path d="m428.804688 117.132812c-25.445313-4.914062-50.523438-11.359374-75.097657-19.289062-16.214843 28.351562-25.484375 61.179688-25.484375 96.179688 0 3.960937.132813 7.886718.367188 11.789062h173.410156c0-43.277344-30.699219-80.476562-73.195312-88.679688zm0 0" fill="#fff"/><path d="m120.570312 205.8125c0-.152344.007813-.300781.007813-.449219-.003906-61.070312-49.507813-110.578125-110.578125-110.578125v111.027344zm0 0" fill="#fff"/><path d="m505.824219 256.824219c-3.738281-1.546875-8.039063-.691407-10.894531 2.167969l-1.90625 1.90625c-19.640626 19.644531-45.757813 30.464843-73.535157 30.464843-27.640625 0-53.667969-10.726562-73.277343-30.207031l-2.203126-2.1875c-3.246093-3.226562-8.269531-3.835938-12.195312-1.480469l-45.816406 27.507813c-63.316406 38.011718-132.183594 64.382812-204.691406 78.382812-47.113282 9.09375-81.304688 50.519532-81.304688 98.496094v40.125c0 5.523438 4.476562 10 10 10h216c2.652344 0 5.195312-1.054688 7.070312-2.929688l37-37c.0625-.0625.117188-.132812.175782-.195312h64.753906v30.125c0 5.523438 4.476562 10 10 10h157c5.523438 0 10-4.476562 10-10v-235.9375c0-4.042969-2.4375-7.691406-6.175781-9.238281zm-103.945313 195.050781c4.515625-47.703125 42.480469-85.808594 90.121094-90.53125v90.53125zm-105.59375-149.730469 4.253906-2.554687 25.144532 25.144531c1.953125 1.953125 4.511718 2.929687 7.074218 2.929687 2.558594 0 5.117188-.976562 7.070313-2.929687 3.902344-3.902344 3.902344-10.234375 0-14.140625l-21.617187-21.617188 17.296874-10.382812c22.953126 21.167969 52.589844 32.765625 83.976563 32.765625 26.398437 0 51.539063-8.195313 72.515625-23.378906v53.285156c-58.679688 4.839844-105.574219 51.871094-110.199219 110.605469h-188.207031c.117188-2.625.183594-5.253906.183594-7.875 0-29.578125-7.394532-58.460938-21.4375-84.199219 13.265625-4.539063 26.371094-9.503906 39.308594-14.894531l22.496093 22.496094c1.953125 1.953124 4.511719 2.929687 7.074219 2.929687 2.558594 0 5.117188-.976563 7.070312-2.929687 3.902344-3.90625 3.902344-10.238282 0-14.144532l-16.945312-16.941406c8.804688-4.019531 17.53125-8.234375 26.167969-12.652344l24.09375 24.09375c1.953125 1.953125 4.511719 2.929688 7.070312 2.929688 2.558594 0 5.121094-.976563 7.070313-2.929688 3.90625-3.90625 3.90625-10.238281 0-14.144531l-19.773438-19.773437c6.828125-3.769532 13.601563-7.664063 20.3125-11.691407zm-211.191406 80.871094c22.996094-4.441406 45.632812-10.09375 67.863281-16.921875 13.636719 23.613281 20.820313 50.421875 20.820313 77.90625 0 2.621094-.066406 5.25-.195313 7.875h-152.957031c4.269531-34.046875 30.066406-62.21875 64.46875-68.859375zm136.765625 108.984375h-201.859375v-20.125h221.984375zm270.140625 0h-137v-20.125h137zm0 0"/><path d="m357.871094 352.78125c2.640625 0 5.207031-1.070312 7.078125-2.929688 1.859375-1.859374 2.929687-4.433593 2.929687-7.070312 0-2.628906-1.070312-5.210938-2.929687-7.070312-1.871094-1.859376-4.4375-2.929688-7.078125-2.929688-2.632813 0-5.210938 1.070312-7.070313 2.929688-1.859375 1.859374-2.929687 4.441406-2.929687 7.070312 0 2.640625 1.070312 5.210938 2.929687 7.070312 1.871094 1.859376 4.4375 2.929688 7.070313 2.929688zm0 0"/><path d="m313.789062 375.800781c2.632813 0 5.210938-1.070312 7.070313-2.929687s2.929687-4.441406 2.929687-7.070313c0-2.632812-1.070312-5.210937-2.929687-7.070312s-4.4375-2.929688-7.070313-2.929688c-2.628906 0-5.210937 1.070313-7.070312 2.929688s-2.929688 4.4375-2.929688 7.070312c0 2.640625 1.070313 5.210938 2.929688 7.070313s4.441406 2.929687 7.070312 2.929687zm0 0"/><path d="m266.328125 375.449219c-2.628906 0-5.207031 1.0625-7.066406 2.929687-1.863281 1.863282-2.933594 4.433594-2.933594 7.070313 0 2.632812 1.070313 5.210937 2.933594 7.070312 1.859375 1.859375 4.4375 2.929688 7.066406 2.929688 2.640625 0 5.210937-1.070313 7.082031-2.929688 1.859375-1.859375 2.917969-4.4375 2.917969-7.070312 0-2.636719-1.058594-5.207031-2.917969-7.070313-1.859375-1.867187-4.441406-2.929687-7.082031-2.929687zm0 0"/><path d="m10 255.9375h157c5.523438 0 10-4.476562 10-10v-30.125h64.75c.0625.0625.117188.132812.179688.195312l37 37c1.875 1.875 4.417968 2.929688 7.070312 2.929688h216c5.523438 0 10-4.476562 10-10v-40.125c0-47.980469-34.191406-89.402344-81.300781-98.5-72.507813-14-141.378907-40.371094-204.691407-78.378906l-45.820312-27.507813c-3.925781-2.355469-8.945312-1.746093-12.195312 1.480469l-2.203126 2.1875c-19.609374 19.480469-45.632812 30.207031-73.277343 30.207031-27.777344 0-53.894531-10.820312-73.535157-30.464843l-1.90625-1.90625c-2.859374-2.8593755-7.160156-3.714844-10.894531-2.167969-3.738281 1.546875-6.175781 5.195312-6.175781 9.238281v235.9375c0 5.523438 4.476562 10 10 10zm10-60.125v-90.53125c47.640625 4.722656 85.605469 42.832031 90.121094 90.53125zm137 40.125h-137v-20.125h137zm133.140625 0-20.125-20.125h221.984375v20.125zm201.234375-40.125h-152.953125c-.132813-2.621094-.199219-5.253906-.199219-7.875 0-27.484375 7.1875-54.292969 20.824219-77.90625 22.226563 6.828125 44.867187 12.480469 67.863281 16.917969 34.398438 6.644531 60.195313 34.816406 64.464844 68.863281zm-398.863281-140.511719c31.386719 0 61.027343-11.601562 83.976562-32.765625l17.296875 10.382813-21.613281 21.613281c-3.90625 3.90625-3.90625 10.238281 0 14.140625 1.953125 1.953125 4.511719 2.929687 7.070313 2.929687 2.558593 0 5.121093-.976562 7.070312-2.929687l25.148438-25.144531 4.253906 2.554687c6.710937 4.027344 13.484375 7.921875 20.3125 11.695313l-19.773438 19.773437c-3.90625 3.90625-3.90625 10.238281 0 14.144531 1.953125 1.953126 4.511719 2.925782 7.070313 2.925782 2.558593 0 5.121093-.972656 7.070312-2.925782l24.09375-24.09375c8.636719 4.414063 17.363281 8.632813 26.167969 12.648438l-16.945312 16.945312c-3.902344 3.90625-3.902344 10.238282 0 14.144532 1.953124 1.953125 4.511718 2.929687 7.070312 2.929687 2.5625 0 5.121094-.976562 7.074219-2.929687l22.496093-22.496094c12.9375 5.386719 26.042969 10.355469 39.304688 14.890625-14.042969 25.742187-21.4375 54.625-21.4375 84.203125 0 2.621094.070312 5.25.1875 7.875h-188.207031c-4.625-58.738281-51.523438-105.769531-110.199219-110.609375v-53.285156c20.976562 15.1875 46.113281 23.382812 72.511719 23.382812zm0 0"/><path d="m154.121094 96.722656c2.640625 0 5.207031-1.070312 7.078125-2.933594 1.859375-1.859374 2.929687-4.4375 2.929687-7.066406 0-2.632812-1.070312-5.210937-2.929687-7.070312-1.859375-1.863282-4.4375-2.929688-7.078125-2.929688-2.632813 0-5.199219 1.066406-7.070313 2.929688-1.859375 1.859375-2.921875 4.4375-2.921875 7.070312 0 2.628906 1.0625 5.207032 2.921875 7.066406 1.871094 1.863282 4.4375 2.933594 7.070313 2.933594zm0 0"/><path d="m198.210938 119.742188c2.628906 0 5.210937-1.070313 7.070312-2.929688 1.859375-1.863281 2.929688-4.441406 2.929688-7.070312 0-2.632813-1.070313-5.210938-2.929688-7.070313s-4.441406-2.929687-7.070312-2.929687c-2.632813 0-5.210938 1.070312-7.070313 2.929687s-2.929687 4.4375-2.929687 7.070313c0 2.628906 1.070312 5.207031 2.929687 7.070312 1.859375 1.859375 4.4375 2.929688 7.070313 2.929688zm0 0"/><path d="m245.671875 139.378906c2.628906 0 5.207031-1.058594 7.066406-2.917968 1.863281-1.871094 2.933594-4.441407 2.933594-7.070313 0-2.640625-1.070313-5.210937-2.933594-7.078125-1.859375-1.863281-4.4375-2.933594-7.066406-2.933594-2.640625 0-5.210937 1.070313-7.070313 2.933594-1.871093 1.859375-2.929687 4.4375-2.929687 7.078125 0 2.628906 1.058594 5.210937 2.929687 7.070313 1.859376 1.859374 4.429688 2.917968 7.070313 2.917968zm0 0"/></svg>