<svg viewBox="-38 1 511 511.999" xmlns="http://www.w3.org/2000/svg"><path d="m259.195312 258.335938c-15.535156-6.289063-24.945312-22.1875-22.988281-38.828126l9.847657-83.746093c.40625-3.4375 2.363281-6.503907 5.316406-8.3125.96875-.59375 2.019531-1.039063 3.121094-1.320313l53.507812-13.613281 53.507812 13.613281c1.101563.28125 2.15625.726563 3.121094 1.320313 2.953125 1.808593 4.914063 4.875 5.316406 8.3125l9.847657 83.746093c1.957031 16.640626-7.453125 32.539063-22.988281 38.828126zm0 0" fill="#feda9b"/><path d="m133.878906 277.703125c17.476563 0 31.648438-14.171875 31.648438-31.652344v-92.039062c0-28.269531-22.917969-51.1875-51.1875-51.1875h-52.640625c-28.269531 0-51.1875 22.917969-51.1875 51.1875v92.039062c0 17.480469 14.167969 31.652344 31.648437 31.652344zm0 0" fill="#ade5ff"/><path d="m116.972656 103.488281-24.605468 46.128907-24.601563-46.128907zm0 0" fill="#fff"/><path d="m350.414062 129.828125c-5.964843 13.945313-9.640624 25.734375-22.488281 33.792969l-18.214843 11.425781.039062.03125h-.074219l.035157-.03125-18.210938-11.425781c-12.847656-8.058594-17.09375-23.125-23.058594-37.070313 0 0-16.648437 2.960938-16.136718 6.238281l7.433593 47.46875c2.414063 15.40625 11.410157 29 24.648438 37.238282h50.648437c13.242188-8.238282 22.238282-21.832032 24.648438-37.238282l7.433594-47.46875c.515624-3.277343-16.703126-2.960937-16.703126-2.960937zm0 0" fill="#fe8f8d"/><path d="m341.761719 418.082031v45.09375h-36.398438v-59.328125zm0 0" fill="#feda9b"/><path d="m268.960938 418.082031v45.09375h36.402343v-59.328125zm0 0" fill="#feda9b"/><path d="m151.371094 501.988281h-63.351563v-38.8125h24.539063c21.4375 0 38.8125 17.375 38.8125 38.8125zm0 0" fill="#4dbaf6"/><path d="m92.367188 25.320312c17.125 0 31.003906 13.878907 31.003906 31v15.5c0 17.125-13.878906 31.003907-31 31.003907-17.125 0-31.003906-13.878907-31.003906-31.003907v-15.5c0-17.121093 13.878906-31 31-31zm0 0" fill="#feda9b"/><path d="m24.664062 501.988281h63.355469v-38.8125h-24.542969c-21.4375 0-38.8125 17.375-38.8125 38.8125zm0 0" fill="#4dbaf6"/><path d="m49.265625 253.378906h77.507813v209.796875h-77.507813zm0 0" fill="#72d8ff"/><path d="m368.714844 501.988281h-63.351563v-38.8125h24.539063c21.4375 0 38.8125 17.375 38.8125 38.8125zm0 0" fill="#fe8f8d"/><path d="m327.136719 26.402344c0 9.625-7.800781 17.425781-17.425781 17.425781-9.621094 0-17.421876-7.800781-17.421876-17.425781 0-9.621094 7.800782-17.421875 17.421876-17.421875 9.625 0 17.425781 7.800781 17.425781 17.421875zm0 0" fill="#ff5d5d"/><path d="m309.710938 35.007812c17.125 0 31.003906 13.878907 31.003906 31v15.503907c0 17.121093-13.878906 31-31 31-17.125 0-31.003906-13.878907-31.003906-31v-15.5c0-17.125 13.878906-31.003907 31-31.003907zm0 0" fill="#feda9b"/><path d="m242.007812 501.988281h63.355469v-38.8125h-24.542969c-21.4375 0-38.8125 17.375-38.8125 38.8125zm0 0" fill="#fe8f8d"/><path d="m339.316406 217.496094 85.628906 195.5c-12.730468-12.726563-33.367187-12.726563-46.09375 0-12.726562 12.730468-33.363281 12.730468-46.09375 0-12.726562-12.726563-33.363281-12.726563-46.089843 0-12.730469 12.730468-33.367188 12.730468-46.09375 0-12.726563-12.726563-33.363281-12.726563-46.089844 0l85.625-195.5zm0 0" fill="#ff5d5d"/><path d="m126.785156 94.089844c4.164063-6.417969 6.597656-14.0625 6.597656-22.265625v-15.503907c0-22.613281-18.398437-41.011718-41.015624-41.011718-22.613282 0-41.011719 18.398437-41.011719 41.011718v15.503907c0 7.738281 2.15625 14.984375 5.898437 21.167969-31.675781 2.289062-56.753906 28.769531-56.753906 61.019531v92.039062c0 21.996094 17.132812 40.050781 38.753906 41.546875v172.027344c-14.683594 8.425781-24.601562 24.253906-24.601562 42.363281 0 5.527344 4.484375 10.011719 10.011718 10.011719h126.707032c5.527344 0 10.011718-4.484375 10.011718-10.011719 0-18.109375-9.917968-33.9375-24.601562-42.363281v-63.925781c0-5.527344-4.480469-10.011719-10.007812-10.011719-5.53125 0-10.011719 4.484375-10.011719 10.011719v57.464843h-18.734375v-143.007812c0-5.527344-4.480469-10.007812-10.007813-10.007812-5.527343 0-10.011719 4.480468-10.011719 10.007812v143.007812h-18.734374v-189.773437h57.488281v59.039063c0 5.527343 4.480469 10.011718 10.011719 10.011718 5.527343 0 10.007812-4.484375 10.007812-10.011718v-34.828126c21.621094-1.5 38.753906-19.554687 38.753906-41.546874v-92.042969c0-29.480469-20.953125-54.15625-48.75-59.921875zm12.78125 397.890625h-41.539062v-18.796875h14.53125c12.363281 0 22.933594 7.832031 27.007812 18.796875zm-61.558594-18.796875v18.792968h-41.539062c4.074219-10.960937 14.644531-18.792968 27.007812-18.792968zm22.632813-360.347656-8.273437 15.511718-8.269532-15.511718zm-29.265625-56.515626c0-11.574218 9.417969-20.992187 20.992188-20.992187 11.578124 0 20.996093 9.417969 20.996093 20.992187v15.503907c0 11.574219-9.417969 20.992187-20.996093 20.992187-11.574219 0-20.992188-9.417968-20.992188-20.992187zm84.140625 189.734376c0 10.945312-8.171875 20.011718-18.734375 21.4375v-95.464844c0-5.527344-4.480469-10.011719-10.007812-10.011719-5.53125 0-10.011719 4.484375-10.011719 10.011719v71.34375h-57.488281v-71.34375c0-5.527344-4.480469-10.011719-10.007813-10.011719s-10.011719 4.484375-10.011719 10.011719v95.464844c-10.5625-1.425782-18.734375-10.492188-18.734375-21.4375v-92.042969c0-22.605469 18.316407-41.011719 40.890625-41.167969l22.125 41.484375c1.738282 3.265625 5.136719 5.300781 8.832032 5.300781 3.699218 0 7.09375-2.035156 8.832031-5.300781l21.65625-40.601563c18.628906 3.9375 32.660156 20.503907 32.660156 40.285157zm0 0"/><path d="m126.777344 348.261719c-2.644532 0-5.214844 1.070312-7.089844 2.933593-1.859375 1.871094-2.929688 4.445313-2.929688 7.078126 0 2.632812 1.070313 5.214843 2.929688 7.074218 1.863281 1.875 4.445312 2.945313 7.089844 2.945313 2.632812 0 5.203125-1.070313 7.066406-2.945313 1.871094-1.859375 2.945312-4.433594 2.945312-7.074218 0-2.632813-1.074218-5.21875-2.945312-7.078126-1.863281-1.863281-4.433594-2.933593-7.066406-2.933593zm0 0"/><path d="m434.113281 408.980469-64.160156-146.492188c13.945313-9.808593 21.835937-26.703125 19.785156-44.148437l-9.847656-83.746094c-.769531-6.527344-4.421875-12.238281-10.027344-15.679688-1.828125-1.121093-3.8125-1.957031-5.886719-2.484374l-24.890624-6.332032c7.195312-7.394531 11.640624-17.476562 11.640624-28.585937v-15.503907c0-13.109374-6.191406-24.792968-15.789062-32.304687 1.378906-1.714844 2.210938-3.894531 2.210938-6.269531 0-15.125-12.308594-27.433594-27.4375-27.433594-15.125 0-27.433594 12.308594-27.433594 27.433594 0 2.375.832031 4.554687 2.210937 6.269531-9.601562 7.511719-15.789062 19.195313-15.789062 32.304687v15.503907c0 10.757812 4.171875 20.558593 10.972656 27.882812l-27.644531 7.035157c-2.074219.523437-4.054688 1.359374-5.890625 2.484374-5.601563 3.4375-9.253907 9.152344-10.023438 15.679688l-9.847656 83.742188c-2.179687 18.53125 6.851563 36.441406 22.441406 45.898437l-63.398437 144.746094c-1.929688 4.410156-.449219 9.570312 3.527344 12.285156 3.972656 2.710937 9.320312 2.210937 12.722656-1.191406 8.804687-8.804688 23.128906-8.804688 31.933594 0 6.9375 6.9375 15.84375 11.175781 25.457031 12.21875v26.0625c-15.96875 8.035156-26.953125 24.570312-26.953125 43.632812 0 5.527344 4.484375 10.007813 10.011718 10.007813h126.707032c5.527344 0 10.011718-4.480469 10.011718-10.007813 0-19.0625-10.988281-35.597656-26.957031-43.632812v-25.992188c1.335938.125 2.679688.191407 4.035157.191407 11.378906 0 22.078124-4.433594 30.125-12.480469 8.804687-8.804688 23.128906-8.800781 31.933593 0 3.40625 3.402343 8.75 3.902343 12.722657 1.191406 3.980468-2.714844 5.457031-7.875 3.527343-12.285156zm-164.484375-230.273438-6.941406-44.332031 3.386719-.863281c4.976562 15.511719 14.109375 29.316406 26.460937 39.953125l10.214844 8.800781c1.84375 1.769531 4.339844 2.824219 7 2.824219 2.800781 0 5.402344-1.167969 7.257812-3.117188l9.878907-8.507812c12.140625-10.453125 21.164062-23.964844 26.195312-39.148438l3.523438.894532-6.8125 43.496093c-1.820313 11.640625-8.246094 21.988281-17.78125 28.777344h-44.605469c-9.527344-6.789063-15.957031-17.136719-17.777344-28.777344zm19.089844-112.699219c0-11.574218 9.417969-20.992187 20.992188-20.992187 11.578124 0 20.996093 9.417969 20.996093 20.992187v15.503907c0 11.574219-9.417969 20.992187-20.996093 20.992187-11.574219 0-20.992188-9.417968-20.992188-20.992187zm19.28125 56.835938 25.628906 6.523438c-3.972656 11.195312-10.777344 21.152343-19.804687 28.925781l-4.113281 3.542969-4.109376-3.539063c-9.242187-7.960937-16.152343-18.210937-20.078124-29.734375zm53.625 120.632812-11.113281-25.375c7.25-6.878906 12.769531-15.367187 16.121093-24.792968l3.21875 27.367187c1.015626 8.632813-2.207031 17.023438-8.226562 22.800781zm-51.914062-223.457031c3.46875 0 6.378906 2.398438 7.1875 5.621094-2.335938-.417969-4.734376-.644531-7.1875-.644531-2.449219 0-4.847657.226562-7.183594.644531.804687-3.222656 3.71875-5.621094 7.183594-5.621094zm-63.5625 200.65625 4.230468-35.992187c2.625 12.863281 9.132813 24.496094 18.535156 33.417968l-12.046874 27.503907c-7.609376-5.707031-11.867188-15.167969-10.71875-24.929688zm32.824218 232.488281v-23.460937c5.472656-2.113281 10.5-5.355469 14.773438-9.625.515625-.519531 1.054687-1 1.605468-1.453125v34.539062zm1.847656 20.019532h14.53125v18.792968h-41.539062c4.074219-10.960937 14.644531-18.792968 27.007812-18.792968zm34.550782 18.796875v-18.796875h14.53125c12.363281 0 22.933594 7.832031 27.007812 18.796875zm16.382812-38.816407h-16.382812v-38.953124c3.777344.972656 7.355468 2.910156 10.308594 5.863281 1.886718 1.886719 3.921874 3.566406 6.070312 5.042969v28.046874zm40.019532-47.246093c-8.804688 8.808593-23.132813 8.808593-31.9375 0-8.304688-8.304688-19.214844-12.457031-30.125-12.457031-10.910157 0-21.820313 4.152343-30.125 12.457031-2.597657 2.597656-5.679688 4.410156-8.957032 5.472656-.542968-.089844-1.097656-.148437-1.667968-.148437-1.761719 0-3.414063.457031-4.851563 1.253906-5.945313.128906-11.929687-2.050782-16.457031-6.578125-9.226563-9.226563-21.660156-13.324219-33.753906-12.304688l72.75-166.105469h46.125l14.136718 32.269532c.113282.777344.308594 1.554687.617188 2.3125.382812.949218.902344 1.804687 1.515625 2.5625l56.484375 128.960937c-12.089844-1.015625-24.527344 3.078125-33.753906 12.304688zm0 0"/></svg>