<svg viewBox="0 0 511.99942 511" xmlns="http://www.w3.org/2000/svg"><path d="m502 466.441406c0 19.878906-16.113281 35.996094-35.996094 35.996094-19.878906 0-35.996094-16.117188-35.996094-35.996094 0-19.882812 16.117188-35.996094 35.996094-35.996094 19.882813 0 35.996094 16.113282 35.996094 35.996094zm0 0" fill="#ff5d5d"/><path d="m341.226562 436.003906c0 19.878906-16.117187 35.996094-35.996093 35.996094-19.878907 0-35.996094-16.117188-35.996094-35.996094s16.117187-35.996094 35.996094-35.996094c19.878906 0 35.996093 16.117188 35.996093 35.996094zm0 0" fill="#72d8ff"/><path d="m200.039062 371.707031c0 19.878907-16.117187 35.996094-35.996093 35.996094-19.878907 0-35.996094-16.117187-35.996094-35.996094 0-19.878906 16.117187-35.996093 35.996094-35.996093 19.878906 0 35.996093 16.117187 35.996093 35.996093zm0 0" fill="#a0e557"/><path d="m242.828125 262.058594c0 19.878906-16.117187 35.992187-35.996094 35.992187-19.878906 0-35.996093-16.113281-35.996093-35.992187 0-19.882813 16.117187-35.996094 35.996093-35.996094 19.878907 0 35.996094 16.113281 35.996094 35.996094zm0 0" fill="#ff5d5d"/><path d="m502 105.808594c0 19.878906-16.113281 35.996094-35.996094 35.996094-19.878906 0-35.996094-16.117188-35.996094-35.996094 0-19.882813 16.117188-35.996094 35.996094-35.996094 19.882813 0 35.996094 16.113281 35.996094 35.996094zm0 0" fill="#a0e557"/><path d="m82.054688 292.492188c0 19.882812-16.117188 35.996093-35.996094 35.996093s-35.996094-16.113281-35.996094-35.996093c0-19.878907 16.117188-35.992188 35.996094-35.992188s35.996094 16.113281 35.996094 35.992188zm0 0" fill="#72d8ff"/><path d="m384.015625 197.761719c0 19.878906-16.117187 35.992187-35.996094 35.992187-19.878906 0-35.996093-16.113281-35.996093-35.992187 0-19.882813 16.117187-35.996094 35.996093-35.996094 19.878907 0 35.996094 16.113281 35.996094 35.996094zm0 0" fill="#72d8ff"/><path d="m2.183594 190.652344c1.972656 2.519531 4.914062 3.839844 7.886718 3.839844 2.152344 0 4.324219-.691407 6.148438-2.121094 4.351562-3.402344 5.121094-9.6875 1.71875-14.035156l-.0625-.082032c-3.398438-4.351562-9.683594-5.121094-14.035156-1.71875-4.347656 3.398438-5.121094 9.683594-1.71875 14.035156zm0 0"/><path d="m512 430.316406c0-5.519531-4.476562-9.996094-10-9.996094-111.460938 0-218.917969-30.46875-311.953125-86.523437-1.398437-.960937-2.847656-1.847656-4.347656-2.652344-33.015625-20.277343-64.175781-43.796875-93.007813-70.34375 23.773438-3.195312 47.371094-7.75 70.632813-13.632812-1.605469 4.671875-2.488281 9.679687-2.488281 14.890625 0 25.359375 20.632812 45.992187 45.996093 45.992187 25.359375 0 45.992188-20.632812 45.992188-45.992187 0-15.273438-7.488281-28.820313-18.976563-37.191406 16.78125-6.417969 33.273438-13.554688 49.410156-21.402344 6.371094-3.097656 12.683594-6.320313 18.945313-9.640625-.109375 1.296875-.179687 2.609375-.179687 3.9375 0 25.359375 20.632812 45.992187 45.996093 45.992187 25.359375 0 45.992188-20.632812 45.992188-45.992187 0-19.152344-11.769531-35.601563-28.453125-42.511719 19.078125-13.226562 37.429687-27.519531 54.941406-42.769531 3.242188 22.207031 22.410156 39.320312 45.503906 39.320312 25.359375 0 45.996094-20.632812 45.996094-45.992187 0-22.785156-16.660156-41.746094-38.4375-45.363282 9.675781-10.6875 18.976562-21.703124 27.867188-33.027343l8.433593-10.746094c3.410157-4.34375 2.652344-10.628906-1.6875-14.039063-4.34375-3.410156-10.628906-2.6523432-14.042969 1.691407l-8.433593 10.746093c-15.511719 19.761719-32.082031 38.378907-49.585938 55.824219-1.640625 1.40625-3.183593 2.929688-4.617187 4.550781-31.53125 30.765626-66.023438 57.742188-102.867188 80.625-3.101562 1.449219-6.015625 3.230469-8.695312 5.304688-38.824219 23.207031-80.152344 41.933594-123.289063 55.839844-2.457031.558594-4.835937 1.308594-7.125 2.242187-37.285156 11.507813-75.878906 19.433594-115.339843 23.566407-12.207032-12.238282-23.953126-25.039063-35.183594-38.40625-3.554688-4.226563-9.859375-4.773438-14.085938-1.222657-4.230468 3.554688-4.777344 9.859375-1.226562 14.085938 7.957031 9.472656 16.210937 18.703125 24.726562 27.691406-12.710937.789063-25.496094 1.203125-38.351562 1.203125-5.519532 0-9.996094 4.476562-9.996094 9.996094 0 4.9375 3.578125 9.027344 8.28125 9.84375-5.210938 7.453125-8.28125 16.511718-8.28125 26.28125 0 25.359375 20.632812 45.992187 45.996094 45.992187 25.359375 0 45.992187-20.632812 45.992187-45.992187 0-1.976563-.140625-3.921875-.382812-5.832032 9.984375 8.695313 20.230469 17.082032 30.734375 25.117188 7.855468 6.007812 15.867187 11.820312 24.003906 17.453125-16.632812 6.929687-28.359375 23.355469-28.359375 42.472656 0 25.359375 20.632813 45.996094 45.996094 45.996094 25.359375 0 45.992187-20.636719 45.992187-45.996094 0-1.320312-.066406-2.625-.175781-3.917969 9.246094 4.894532 18.609375 9.5625 28.085937 13.984376 13.199219 6.15625 26.625 11.84375 40.234376 17.0625-11.46875 8.375-18.945313 21.910156-18.945313 37.167968 0 25.359375 20.636719 45.992188 45.996094 45.992188s45.992187-20.632813 45.992187-45.992188c0-5.167968-.867187-10.128906-2.445312-14.765625 5.703125 1.441407 11.421875 2.808594 17.15625 4.089844 21.558594 4.808594 43.402344 8.460937 65.382812 10.964844-7.035156 8.078125-11.304687 18.621093-11.304687 30.148437 0 25.359375 20.632812 45.992188 45.992187 45.992188s45.996094-20.632813 45.996094-45.992188c0-9.769531-3.070312-18.828125-8.28125-26.28125 4.699219-.816406 8.28125-4.90625 8.28125-9.84375zm-305.167969-142.261718c-14.335937 0-25.996093-11.664063-25.996093-25.996094 0-14.335938 11.660156-26 25.996093-26 14.332031 0 25.996094 11.664062 25.996094 26 0 14.332031-11.664063 25.996094-25.996094 25.996094zm167.183594-90.292969c0 14.332031-11.660156 25.996093-25.996094 25.996093-14.332031 0-25.996093-11.664062-25.996093-25.996093 0-14.335938 11.664062-26 25.996093-26 14.335938 0 25.996094 11.664062 25.996094 26zm117.988281-91.953125c0 14.332031-11.664062 25.996094-26 25.996094-14.332031 0-25.996094-11.664063-25.996094-25.996094 0-14.335938 11.664063-25.996094 25.996094-25.996094 14.335938 0 26 11.660156 26 25.996094zm-445.945312 212.683594c-14.335938 0-25.996094-11.664063-25.996094-26 0-14.332032 11.660156-25.996094 25.996094-25.996094 14.332031 0 25.996094 11.664062 25.996094 25.996094 0 14.335937-11.664063 26-25.996094 26zm117.984375 79.210937c-14.335938 0-25.996094-11.664063-25.996094-25.996094 0-14.335937 11.660156-25.996093 25.996094-25.996093 14.332031 0 25.996093 11.660156 25.996093 25.996093 0 14.332031-11.660156 25.996094-25.996093 25.996094zm141.1875 64.296875c-14.332031 0-25.996094-11.664062-25.996094-25.996094 0-14.335937 11.664063-25.996094 25.996094-25.996094 14.335937 0 25.996093 11.660157 25.996093 25.996094 0 14.332032-11.660156 25.996094-25.996093 25.996094zm160.773437 30.4375c-14.332031 0-25.996094-11.664062-25.996094-25.996094 0-14.335937 11.664063-25.996094 25.996094-25.996094 14.335938 0 25.996094 11.660157 25.996094 25.996094 0 14.332032-11.660156 25.996094-25.996094 25.996094zm0 0"/></svg>