<svg viewBox="0 0 512 512" xmlns="http://www.w3.org/2000/svg"><path d="m62.5 203.5-52.5 52.5v214c0 17.671875 14.328125 32 32 32h428c17.671875 0 32-14.328125 32-32v-214l-78.25-78.25zm0 0" fill="#72d8ff"/><path d="m492.964844 492.273438-236.964844-149.273438-235.285156 150.886719c5.652344 5.042969 13.109375 8.113281 21.285156 8.113281h428c9.011719 0 17.148438-3.730469 22.964844-9.726562zm0 0" fill="#ade5ff"/><path d="m422.527344 107.6875v-57.949219c0-21.949219 17.789062-39.738281 39.738281-39.738281 21.945313 0 39.734375 17.789062 39.734375 39.738281v57.949219zm0 0" fill="#ffc66c"/><path d="m64 289.742188v-240.003907c0-21.949219 17.789062-39.738281 39.738281-39.738281h358.527344c-21.949219 0-39.738281 17.789062-39.738281 39.738281v252.761719l-113.394532 74.011719-53.132812-33.511719-53.132812 33.511719zm0 0" fill="#fff"/><path d="m275.300781 97.519531c-12.617187 0-24 5.527344-32.039062 14.382813-8.039063-8.855469-19.417969-14.382813-32.039063-14.382813-24.355468 0-44.101562 20.585938-44.101562 45.976563 0 42.800781 76.140625 84.550781 76.140625 84.550781s76.144531-41.75 76.144531-84.550781c0-25.390625-19.746094-45.976563-44.105469-45.976563zm0 0" fill="#ff5d5d"/><path d="m446.929688 411.609375c1.859374 1.871094 4.441406 2.929687 7.070312 2.929687s5.210938-1.058593 7.070312-2.929687c1.859376-1.859375 2.929688-4.429687 2.929688-7.070313 0-2.628906-1.070312-5.210937-2.929688-7.070312-1.859374-1.859375-4.441406-2.929688-7.070312-2.929688s-5.210938 1.070313-7.070312 2.929688c-1.859376 1.859375-2.929688 4.441406-2.929688 7.070312 0 2.640626 1.070312 5.210938 2.929688 7.070313zm0 0"/><path d="m502 117.6875c5.523438 0 10-4.476562 10-10v-57.949219c0-27.425781-22.3125-49.738281-49.738281-49.738281h-358.523438c-27.425781 0-49.738281 22.3125-49.738281 49.738281v148.121094l-51.070312 51.070313c-1.875 1.875-2.929688 4.417968-2.929688 7.070312v214c0 23.160156 18.839844 42 42 42h428c23.160156 0 42-18.839844 42-42v-214c0-2.652344-1.054688-5.195312-2.929688-7.070312l-76.542968-76.546876v-54.695312zm-10-67.949219v47.949219h-59.472656v-47.949219c0-16.398437 13.339844-29.738281 29.734375-29.738281 16.398437 0 29.738281 13.339844 29.738281 29.738281zm-388.261719-29.738281h318.679688c-6.207031 8.300781-9.890625 18.597656-9.890625 29.738281v250.378907l-103.371094 64.589843-47.820312-30.164062c-3.261719-2.054688-7.410157-2.054688-10.671876 0l-47.820312 30.164062-128.84375-80.507812v-234.460938c0-16.398437 13.339844-29.738281 29.738281-29.738281zm350.261719 352.878906c5.523438 0 10-4.476562 10-10v-71.34375l28-17.496094v195.960938c0 3.148438-.671875 6.140625-1.867188 8.851562l-162.191406-102.300781 116.058594-72.519531v58.847656c0 5.523438 4.476562 10 10 10zm-432.132812 105.972656c-1.195313-2.710937-1.867188-5.703124-1.867188-8.851562v-195.960938l164.058594 102.511719zm32.132812-207.148437-28.039062-17.519531 28.039062-28.042969zm-12 220.296875c-1.0625 0-2.105469-.078125-3.128906-.226562l217.128906-136.949219 217.128906 136.949219c-1.023437.148437-2.066406.226562-3.128906.226562zm444.039062-237.816406-53.511718 33.433594v-86.949219zm0 0"/><path d="m198.808594 209.519531c19.546875 16.210938 38.835937 26.851563 39.644531 27.296875 1.5.820313 3.15625 1.230469 4.808594 1.230469 1.65625 0 3.3125-.410156 4.808593-1.230469.8125-.445312 20.101563-11.085937 39.648438-27.296875 27.660156-22.945312 41.6875-45.15625 41.6875-66.023437 0-30.863282-24.269531-55.976563-54.105469-55.976563-11.558593 0-22.8125 3.886719-32.039062 10.882813-9.222657-6.996094-20.480469-10.882813-32.039063-10.882813-29.832031 0-54.101562 25.113281-54.101562 55.976563 0 20.867187 14.023437 43.078125 41.6875 66.023437zm12.417968-102c9.382813 0 18.132813 3.945313 24.632813 11.105469 1.894531 2.085938 4.582031 3.277344 7.402344 3.277344 2.820312 0 5.511719-1.191406 7.40625-3.277344 6.5-7.160156 15.246093-11.105469 24.632812-11.105469 18.804688 0 34.105469 16.140625 34.105469 35.976563 0 27.976562-44 59.878906-66.148438 73.03125-22.152343-13.132813-66.136718-44.996094-66.136718-73.03125 0-19.835938 15.296875-35.976563 34.105468-35.976563zm0 0"/><path d="m184.140625 278.480469c0 5.523437 4.476563 10 10 10h138.859375c5.523438 0 10-4.476563 10-10 0-5.523438-4.476562-10-10-10h-138.859375c-5.523437 0-10 4.476562-10 10zm0 0"/><path d="m153.53125 288.480469c2.628906 0 5.199219-1.070313 7.070312-2.929688 1.859376-1.859375 2.929688-4.441406 2.929688-7.070312 0-2.628907-1.070312-5.210938-2.929688-7.070313-1.871093-1.859375-4.441406-2.929687-7.070312-2.929687-2.640625 0-5.210938 1.070312-7.070312 2.929687-1.871094 1.859375-2.929688 4.441406-2.929688 7.070313 0 2.628906 1.058594 5.210937 2.929688 7.070312 1.859374 1.859375 4.429687 2.929688 7.070312 2.929688zm0 0"/></svg>