<svg viewBox="0 0 512 512" xmlns="http://www.w3.org/2000/svg"><path d="m126 198.304688h48v30.324218h-48zm0 0" fill="#feda9b"/><path d="m347.066406 248.152344-68.265625 24.691406c-22.085937 7.988281-36.800781 28.960938-36.800781 52.445312v176.710938h218.816406c22.746094 0 41.183594-18.4375 41.183594-41.183594v-135.527344c0-23.484374-14.714844-44.453124-36.800781-52.445312l-68.269531-24.691406zm0 0" fill="#ff5d5d"/><path d="m131.03125 64c-18.761719 0-33.96875 15.207031-33.96875 33.96875v47.398438c0 29.238281 23.699219 52.9375 52.9375 52.9375s52.9375-23.699219 52.9375-52.9375v-81.367188zm0 0" fill="#ffb954"/><path d="m242 502h-190.816406c-22.746094 0-41.183594-18.4375-41.183594-41.183594v-149.117187c0-25.296875 15.847656-47.878907 39.632812-56.480469l73.515626-26.589844h53.699218l72.554688 26.242188c25.8125 9.332031 46.367187 29.308594 56.441406 54.839844l23.429688 59.367187c5.503906 13.953125 17.578124 24.257813 32.222656 27.5l67.460937 14.945313c11.125 2.464843 19.042969 12.328124 19.042969 23.722656 0 14.316406-12.320312 25.53125-26.574219 24.1875l-83.921875-7.902344c-23.746094-2.234375-45.25-14.972656-58.621094-34.722656l-36.882812-54.476563zm0 0" fill="#ade5ff"/><path d="m438.105469 296.894531v-118.789062c0-36.507813-29.59375-66.105469-66.105469-66.105469s-66.105469 29.597656-66.105469 66.105469v118.789062c0 36.507813 29.59375 66.105469 66.105469 66.105469s66.105469-29.597656 66.105469-66.105469zm0 0" fill="#4dbaf6"/><path d="m468.601562 263.441406-20.496093-7.414062v-77.921875c0-41.964844-34.140625-76.105469-76.105469-76.105469s-76.105469 34.140625-76.105469 76.105469v77.921875l-14.410156 5.210937c-8.597656-6.644531-18.25-12-28.679687-15.773437l-68.804688-24.886719v-22.273437c0-.003907 0-.007813 0-.015626 17.390625-11.210937 28.9375-30.734374 28.9375-52.921874v-81.367188c0-5.523438-4.476562-10-10-10h-71.90625c-24.246094 0-43.96875 19.726562-43.96875 43.96875v47.398438c0 22.1875 11.546875 41.710937 28.9375 52.921874v.015626 22.273437l-69.769531 25.234375c-27.652344 10.003906-46.230469 36.476562-46.230469 65.882812v149.121094c0 28.222656 22.960938 51.183594 51.183594 51.183594h409.632812c28.222656 0 51.183594-22.960938 51.183594-51.183594v-135.527344c0-27.601562-17.441406-52.460937-43.398438-61.847656zm-152.707031-85.335937c0-30.9375 25.167969-56.105469 56.105469-56.105469s56.105469 25.167969 56.105469 56.105469v118.789062c0 30.9375-25.167969 56.105469-56.105469 56.105469s-56.105469-25.167969-56.105469-56.105469zm-208.832031-80.136719c0-13.214844 10.753906-23.96875 23.96875-23.96875h61.90625v71.367188c0 23.675781-19.261719 42.9375-42.9375 42.9375s-42.9375-19.261719-42.9375-42.9375zm42.9375 110.335938c4.8125 0 9.492188-.558594 14-1.585938v11.910156h-28v-11.910156c4.507812 1.027344 9.1875 1.585938 14 1.585938zm-92 169.324218c-5.523438 0-10 4.476563-10 10v104.210938c-15.703125-1.601563-28-14.902344-28-31.023438v-149.121094c0-21.011718 13.273438-39.929687 33.035156-47.074218l71.867188-25.992188h50.191406l70.910156 25.644532c23.101563 8.355468 41.519532 26.253906 50.539063 49.105468l23.429687 59.371094c6.730469 17.066406 21.449219 29.625 39.359375 33.59375l67.464844 14.941406c6.59375 1.460938 11.203125 7.203125 11.203125 13.957032 0 4.078124-1.660156 7.832031-4.675781 10.574218-3.011719 2.746094-6.90625 4.042969-10.964844 3.660156l-83.921875-7.902343c-20.847656-1.960938-39.535156-13.035157-51.277344-30.371094l-36.859375-54.441406c-1.792969-2.671875-4.84375-4.429688-8.300781-4.429688-5.523438 0-10 4.480469-10 10v129.667969h-164v-104.371094c0-5.523437-4.476562-10-10-10zm194 17.308594 18.601562 27.476562c4.417969 6.523438 9.605469 12.355469 15.398438 17.40625v52.179688h-34zm54 58.074219c9.476562 4.554687 19.796875 7.460937 30.5625 8.476562l83.925781 7.902344c6.042969.566406 12.085938-.496094 17.511719-2.980469v25.589844h-132zm186 7.804687c0 17.195313-13.988281 31.183594-31.183594 31.183594h-2.816406v-56.757812c0-16.207032-11.054688-29.976563-26.878906-33.484376l-67.464844-14.941406c-11.414062-2.53125-20.789062-10.53125-25.082031-21.40625l-.078125-.203125c10.117187 4.980469 21.484375 7.792969 33.503906 7.792969 41.964844 0 76.105469-34.140625 76.105469-76.105469v-19.597656l13.691406 4.953125c18.066406 6.53125 30.203125 23.828125 30.203125 43.039062zm0 0"/><path d="m372 159.195312c10.425781 0 18.910156 8.484376 18.910156 18.910157 0 5.523437 4.476563 10 10 10 5.523438 0 10-4.476563 10-10 0-21.453125-17.457031-38.910157-38.910156-38.910157-5.523438 0-10 4.480469-10 10 0 5.523438 4.476562 10 10 10zm0 0"/><path d="m65.070312 342.558594c-1.859374-1.867188-4.441406-2.929688-7.070312-2.929688-2.640625 0-5.210938 1.0625-7.070312 2.929688-1.859376 1.863281-2.929688 4.433594-2.929688 7.070312 0 2.632813 1.070312 5.210938 2.929688 7.070313 1.859374 1.859375 4.441406 2.929687 7.070312 2.929687s5.210938-1.070312 7.070312-2.929687c1.859376-1.859375 2.929688-4.4375 2.929688-7.070313 0-2.628906-1.070312-5.207031-2.929688-7.070312zm0 0"/><path d="m452.578125 39h9v9c0 5.523438 4.476563 10 10 10 5.519531 0 10-4.476562 10-10v-9h9c5.519531 0 10-4.476562 10-10s-4.480469-10-10-10h-9v-9c0-5.523438-4.480469-10-10-10-5.523437 0-10 4.476562-10 10v9h-9c-5.523437 0-10 4.476562-10 10s4.476563 10 10 10zm0 0"/><path d="m264 74.015625h9v9c0 5.519531 4.476562 10 10 10s10-4.480469 10-10v-9h9c5.523438 0 10-4.480469 10-10 0-5.523437-4.476562-10-10-10h-9v-9c0-5.523437-4.476562-10-10-10s-10 4.476563-10 10v9h-9c-5.523438 0-10 4.476563-10 10 0 5.519531 4.476562 10 10 10zm0 0"/><path d="m400.910156 209.628906c-2.628906 0-5.210937 1.0625-7.070312 2.929688-1.859375 1.863281-2.929688 4.433594-2.929688 7.070312 0 2.632813 1.070313 5.210938 2.929688 7.070313s4.441406 2.929687 7.070312 2.929687 5.210938-1.070312 7.070313-2.929687c1.859375-1.871094 2.929687-4.4375 2.929687-7.070313 0-2.640625-1.070312-5.207031-2.929687-7.070312-1.859375-1.871094-4.441407-2.929688-7.070313-2.929688zm0 0"/></svg>