<svg viewBox="0 0 512.001 512" xmlns="http://www.w3.org/2000/svg"><path d="m42 502h256c17.671875 0 32-14.328125 32-32v-428c0-17.671875-14.328125-32-32-32h-256c-17.671875 0-32 14.328125-32 32v428c0 17.671875 14.328125 32 32 32zm0 0" fill="#72d8ff"/><path d="m50 82h240v348h-240zm0 0" fill="#fff"/><path d="m469.632812 128h-181.265624c-17.875 0-32.367188 14.492188-32.367188 32.371094v110.074218c0 17.875 14.492188 32.367188 32.367188 32.367188h41.632812v47.519531l48-47.519531h91.632812c17.875 0 32.367188-14.492188 32.367188-32.367188v-110.074218c0-17.878906-14.492188-32.371094-32.367188-32.371094zm0 0" fill="#feda9b"/><path d="m397.347656 181.375c-7.226562 0-13.742187 3.164062-18.347656 8.234375-4.605469-5.070313-11.121094-8.234375-18.347656-8.234375-13.953125 0-25.261719 11.785156-25.261719 26.328125 0 24.511719 43.609375 48.425781 43.609375 48.425781s43.609375-23.914062 43.609375-48.425781c0-14.539063-11.308594-26.328125-25.261719-26.328125zm0 0" fill="#ff5d5d"/><path d="m207.894531 56c5.523438 0 10-4.476562 10-10s-4.476562-10-10-10h-75.789062c-5.523438 0-10 4.476562-10 10s4.476562 10 10 10zm0 0"/><path d="m10 154.332031c2.628906 0 5.210938-1.0625 7.070312-2.929687 1.859376-1.863282 2.929688-4.433594 2.929688-7.070313 0-2.632812-1.070312-5.210937-2.929688-7.070312-1.859374-1.859375-4.441406-2.929688-7.070312-2.929688s-5.210938 1.070313-7.070312 2.929688c-1.859376 1.859375-2.929688 4.4375-2.929688 7.070312 0 2.636719 1.070312 5.207031 2.929688 7.070313 1.859374 1.867187 4.441406 2.929687 7.070312 2.929687zm0 0"/><path d="m177.070312 470.308594c1.859376-1.859375 2.929688-4.4375 2.929688-7.066406 0-2.632813-1.070312-5.210938-2.929688-7.070313-1.859374-1.863281-4.441406-2.929687-7.070312-2.929687s-5.210938 1.066406-7.070312 2.929687c-1.859376 1.859375-2.929688 4.4375-2.929688 7.070313 0 2.628906 1.070312 5.207031 2.929688 7.066406 1.859374 1.863281 4.441406 2.933594 7.070312 2.933594s5.210938-1.070313 7.070312-2.933594zm0 0"/><path d="m469.632812 118h-129.632812v-76c0-23.160156-18.839844-42-42-42h-256c-23.15625 0-42 18.839844-42 42v66.332031c0 5.523438 4.476562 10 10 10s10-4.476562 10-10v-66.332031c0-12.128906 9.867188-22 22-22h256c12.132812 0 22 9.871094 22 22v76h-20v-36c0-5.523438-4.476562-10-10-10h-240c-5.523438 0-10 4.476562-10 10v348c0 5.523438 4.476562 10 10 10h240c5.523438 0 10-4.476562 10-10v-117.1875h20v157.1875c0 12.132812-9.867188 22-22 22h-256c-12.128906 0-22-9.867188-22-22v-288.332031c0-5.523438-4.476562-10-10-10s-10 4.476562-10 10v288.332031c0 23.160156 18.839844 42 42 42h256c23.160156 0 42-18.839844 42-42v-115.496094l42.113281-41.691406h87.519531c23.359376 0 42.367188-19.007812 42.367188-42.367188v-110.074218c0-23.363282-19.007812-42.371094-42.367188-42.371094zm-409.632812 302v-328h220v26.835938c-19.367188 3.894531-34 21.035156-34 41.53125v110.078124c0 20.496094 14.632812 37.636719 34 41.53125v108.023438zm432-149.554688c0 12.332032-10.035156 22.367188-22.367188 22.367188h-91.632812c-2.636719 0-5.164062 1.039062-7.035156 2.894531l-30.964844 30.65625v-23.550781c0-5.523438-4.476562-10-10-10h-41.632812c-12.332032 0-22.367188-10.035156-22.367188-22.367188v-110.074218c0-12.335938 10.035156-22.371094 22.367188-22.371094h181.265624c12.332032 0 22.367188 10.035156 22.367188 22.371094zm0 0"/><path d="m397.351562 171.375c-6.507812 0-12.867187 1.878906-18.351562 5.316406-5.484375-3.4375-11.839844-5.316406-18.347656-5.316406-19.441406 0-35.261719 16.296875-35.261719 36.328125 0 29.582031 43.808594 54.453125 48.800781 57.191406 1.5.820313 3.152344 1.230469 4.808594 1.230469s3.3125-.410156 4.808594-1.230469c4.996094-2.738281 48.800781-27.613281 48.800781-57.191406 0-20.03125-15.816406-36.328125-35.257813-36.328125zm-18.359374 73.15625c-13.351563-8.308594-33.601563-24.402344-33.601563-36.828125 0-9.003906 6.847656-16.328125 15.261719-16.328125 4.152344 0 8.042968 1.757812 10.945312 4.957031 1.894532 2.085938 4.582032 3.277344 7.402344 3.277344s5.507812-1.191406 7.40625-3.277344c2.902344-3.199219 6.789062-4.960937 10.945312-4.960937 8.414063 0 15.257813 7.328125 15.257813 16.332031 0 12.375-20.269531 28.5-33.617187 36.828125zm0 0"/></svg>