<svg height="512pt" viewBox="-42 0 512 512.00018" width="512pt" xmlns="http://www.w3.org/2000/svg"><path d="m258.238281 333.902344h97.953125c39.34375 0 71.238282 31.894531 71.238282 71.238281v106.859375h-427.429688v-106.855469c0-39.347656 31.894531-71.238281 71.238281-71.238281h187zm0 0" fill="#985713"/><path d="m178.097656 253.761719-44.527344 26.714843v53.425782h160.289063v-53.425782l-44.523437-26.714843zm0 0" fill="#834b10"/><path d="m178.097656 253.761719h71.234375v80.140625h-71.234375zm0 0" fill="#fdc9a6"/><path d="m311.667969 182.523438h-26.714844v-44.523438h26.714844c9.835937 0 17.808593 7.972656 17.808593 17.808594v8.90625c0 9.835937-7.972656 17.808594-17.808593 17.808594zm0 0" fill="#f6bb92"/><path d="m178.097656 283.441406 8.902344 5.9375h53.429688l8.90625-5.9375v-29.679687h-71.238282zm0 0" fill="#f6bb92"/><path d="m115.761719 182.523438h35.621093v-44.523438h-35.621093c-9.835938 0-17.808594 7.972656-17.808594 17.808594v8.90625c0 9.835937 7.972656 17.808594 17.808594 17.808594zm0 0" fill="#f6bb92"/><path d="m293.859375 93.476562v115.761719l-26.714844 44.523438-26.714843 17.808593h-53.429688l-26.714844-17.808593-26.714844-44.523438v-115.761719zm0 0" fill="#fdc9a6"/><g fill="#834b10"><path d="m179.582031 155.808594c-4.917969 0-8.902343-3.988282-8.902343-8.90625v-8.902344c0-4.917969 3.984374-8.90625 8.902343-8.90625s8.90625 3.988281 8.90625 8.90625v8.902344c0 4.917968-3.988281 8.90625-8.90625 8.90625zm0 0"/><path d="m213.714844 200.332031c-1.378906 0-2.738282-.320312-3.972656-.933593l-17.808594-8.90625c-4.398438-2.199219-6.183594-7.546876-3.984375-11.945313.109375-.222656.230469-.441406.359375-.65625l17.808594-29.3125c2.628906-4.15625 8.128906-5.394531 12.289062-2.769531 4.054688 2.566406 5.347656 7.886718 2.921875 12.03125l-12.785156 21.039062 9.160156 4.578125c4.402344 2.195313 6.191406 7.539063 4 11.941407-1.511719 3.027343-4.605469 4.941406-7.988281 4.933593zm0 0"/><path d="m240.429688 467.476562h17.808593v17.808594h-17.808593zm0 0"/><path d="m53.429688 93.476562h320.570312c9.835938 0 17.8125 7.972657 17.8125 17.808594 0 9.835938-7.976562 17.808594-17.8125 17.808594h-320.570312c-9.835938 0-17.808594-7.972656-17.808594-17.808594-.003906-9.835937 7.972656-17.808594 17.808594-17.808594zm0 0"/></g><path d="m133.570312 57.855469h160.289063v35.621093h-160.289063zm0 0" fill="#f7ba61"/><path d="m213.714844 440.761719c-4.917969 0-8.90625 3.988281-8.90625 8.90625v62.332031h17.8125v-62.332031c0-4.917969-3.988282-8.90625-8.90625-8.90625zm0 0" fill="#834b10"/><path d="m365.097656 440.761719c-4.917968 0-8.90625 3.988281-8.90625 8.90625v62.332031h17.808594v-62.332031c0-4.917969-3.984375-8.90625-8.902344-8.90625zm0 0" fill="#834b10"/><path d="m71.238281 440.761719c-4.917969 0-8.90625 3.988281-8.90625 8.90625v62.332031h17.8125v-62.332031c0-4.917969-3.988281-8.90625-8.90625-8.90625zm0 0" fill="#834b10"/><path d="m284.953125 146.902344c0 19.671875-15.945313 35.621094-35.617187 35.621094-19.671876 0-35.621094-15.949219-35.621094-35.621094s15.949218-35.617188 35.621094-35.617188c19.671874 0 35.617187 15.945313 35.617187 35.617188zm0 0" fill="#b3e4e8"/><path d="m293.859375 218.140625c-.957031 0-1.90625-.15625-2.816406-.460937l-26.714844-8.90625c-3.632813-1.210938-6.085937-4.609376-6.089844-8.441407v-17.808593c0-4.917969 3.988281-8.90625 8.90625-8.90625s8.902344 3.988281 8.902344 8.90625v11.386718l20.625 6.886719c4.664063 1.5625 7.171875 6.613281 5.609375 11.273437-1.214844 3.621094-4.605469 6.0625-8.421875 6.070313zm0 0" fill="#176177"/><path d="m249.335938 191.425781c-24.589844 0-44.527344-19.933593-44.527344-44.523437s19.9375-44.523438 44.527344-44.523438c24.589843 0 44.523437 19.933594 44.523437 44.523438-.03125 24.578125-19.949219 44.496094-44.523437 44.523437zm0-71.238281c-14.753907 0-26.714844 11.960938-26.714844 26.714844s11.960937 26.714844 26.714844 26.714844c14.753906 0 26.710937-11.960938 26.710937-26.714844s-11.957031-26.714844-26.710937-26.714844zm0 0" fill="#1f6c8c"/><path d="m204.179688 235.953125h-8.273438c-4.917969 0-8.90625-3.988281-8.90625-8.90625s3.988281-8.90625 8.90625-8.90625h8.273438c9.449218.03125 18.519531-3.730469 25.179687-10.433594l4.773437-4.765625c3.417969-3.539062 9.054688-3.636718 12.59375-.21875 3.535157 3.417969 3.632813 9.054688.21875 12.589844-.074218.074219-.144531.148438-.21875.21875l-4.773437 4.765625c-9.992187 10.058594-23.597656 15.695313-37.773437 15.65625zm0 0" fill="#834b10"/><path d="m293.859375 57.855469h-160.289063l27.9375-48.878907c4.40625-7.714843 13.824219-11 22.074219-7.703124l16.917969 6.769531c8.496094 3.390625 17.96875 3.390625 26.464844 0l16.921875-6.769531c8.246093-3.296876 17.664062-.011719 22.074219 7.703124zm0 0" fill="#834b10"/><path d="m329.476562 485.285156h-44.523437c-4.917969 0-8.90625-3.988281-8.90625-8.90625 0-4.917968 3.988281-8.902344 8.90625-8.902344h44.523437c4.917969 0 8.90625 3.984376 8.90625 8.902344 0 4.917969-3.988281 8.90625-8.90625 8.90625zm0 0" fill="#834b10"/><path d="m250.820312 155.808594c-4.917968 0-8.902343-3.988282-8.902343-8.90625v-8.902344c0-4.917969 3.984375-8.90625 8.902343-8.90625 4.917969 0 8.90625 3.988281 8.90625 8.90625v8.902344c0 4.917968-3.988281 8.90625-8.90625 8.90625zm0 0" fill="#834b10"/><path d="m249.335938 431.855469-35.621094 35.621093-35.617188-44.523437v-115.761719h71.238282zm0 0" fill="#1f6c8c"/><path d="m178.097656 360.617188 35.617188 106.859374-80.144532-62.332031zm0 0" fill="#a45e14"/><path d="m249.335938 360.617188-35.621094 106.859374 80.144531-62.332031zm0 0" fill="#a45e14"/><path d="m187 307.191406-53.429688-26.714844v53.425782l44.527344 26.714844zm0 0" fill="#985713"/><path d="m240.429688 307.191406 53.429687-26.714844v53.425782l-44.523437 26.714844zm0 0" fill="#985713"/></svg>