<svg height="512pt" viewBox="-37 0 512 512.00047" width="512pt" xmlns="http://www.w3.org/2000/svg"><path d="m118.855469 155.429688h36.574219v-45.714844h-36.574219c-10.097657 0-18.285157 8.1875-18.285157 18.285156v9.144531c0 10.097657 8.1875 18.285157 18.285157 18.285157zm0 0" fill="#f6bb92"/><path d="m320 155.429688h-36.570312v-45.714844h36.570312c10.097656 0 18.285156 8.1875 18.285156 18.285156v9.144531c0 10.097657-8.1875 18.285157-18.285156 18.285157zm0 0" fill="#f6bb92"/><path d="m365.714844 320h-109.714844v-73.140625h-73.144531v73.140625h-109.710938c-40.398437 0-73.144531 32.746094-73.144531 73.144531v118.855469h438.859375v-118.855469c-.003906-40.398437-32.75-73.144531-73.144531-73.144531zm0 0" fill="#fdc9a6"/><g fill="#f6bb92"><path d="m182.855469 283.429688c22.851562 12.226562 50.296875 12.226562 73.144531 0v-27.429688h-73.144531zm0 0"/><path d="m374.855469 512v-109.714844c0-5.046875-4.09375-9.140625-9.140625-9.140625-5.050782 0-9.144532 4.09375-9.144532 9.140625v109.714844zm0 0"/><path d="m82.285156 512v-109.714844c0-5.046875-4.09375-9.140625-9.144531-9.140625-5.046875 0-9.140625 4.09375-9.140625 9.140625v109.714844zm0 0"/><path d="m128 429.714844h18.285156v18.285156h-18.285156zm0 0"/><path d="m292.570312 429.714844h18.285157v18.285156h-18.285157zm0 0"/></g><path d="m291.335938 219.308594-3.507813 6.144531c-14.027344 24.542969-40.132813 39.6875-68.398437 39.691406-28.269532-.003906-54.371094-15.148437-68.398438-39.691406l-3.511719-6.144531c-6.800781-11.902344-10.378906-25.375-10.375-39.085938v-97.9375c0-45.445312 36.839844-82.285156 82.285157-82.285156 45.445312 0 82.285156 36.839844 82.285156 82.285156v97.9375c0 13.710938-3.578125 27.183594-10.378906 39.085938zm0 0" fill="#fdc9a6"/><path d="m173.714844 155.429688c-5.050782 0-9.144532-4.09375-9.144532-9.144532v-9.140625c0-5.050781 4.09375-9.144531 9.144532-9.144531 5.050781 0 9.140625 4.09375 9.140625 9.144531v9.140625c0 5.050782-4.089844 9.144532-9.140625 9.144532zm0 0" fill="#834b10"/><path d="m265.144531 155.429688c-5.050781 0-9.144531-4.09375-9.144531-9.144532v-9.140625c0-5.050781 4.09375-9.144531 9.144531-9.144531 5.046875 0 9.140625 4.09375 9.140625 9.144531v9.140625c0 5.050782-4.09375 9.144532-9.140625 9.144532zm0 0" fill="#834b10"/><path d="m219.429688 192c-2.425782 0-4.75-.964844-6.464844-2.679688l-9.144532-9.140624c-2.449218-2.449219-3.304687-6.070313-2.210937-9.355469l9.144531-27.429688c1.59375-4.796875 6.777344-7.390625 11.574219-5.796875 4.796875 1.597656 7.390625 6.78125 5.796875 11.578125l-7.316406 22.058594 5.148437 5.15625c3.570313 3.574219 3.570313 9.359375 0 12.929687-1.730469 1.730469-4.082031 2.695313-6.527343 2.679688zm0 0" fill="#834b10"/><path d="m301.714844 82.285156c0-45.445312-36.839844-82.285156-82.285156-82.285156-45.445313 0-82.285157 36.839844-82.285157 82.285156v18.285156h164.570313zm0 0" fill="#a83b32"/><path d="m211.199219 228.570312h-.914063c-5.050781 0-9.144531-4.09375-9.144531-9.140624 0-5.050782 4.09375-9.144532 9.144531-9.144532h.914063c9.996093-.011718 19.855469-2.339844 28.800781-6.800781l2.742188-1.382813c4.519531-2.257812 10.011718-.421874 12.269531 4.097657 2.257812 4.519531.425781 10.011719-4.09375 12.269531l-2.742188 1.371094c-11.488281 5.726562-24.144531 8.714844-36.976562 8.730468zm0 0" fill="#834b10"/><path d="m146.285156 64h36.570313c10.101562 0 18.285156 8.1875 18.285156 18.285156v18.285156c0 10.101563-8.183594 18.285157-18.285156 18.285157h-36.570313c-10.097656 0-18.285156-8.183594-18.285156-18.285157v-18.285156c0-10.097656 8.1875-18.285156 18.285156-18.285156zm0 0" fill="#c3c3c3"/><path d="m256 64h36.570312c10.101563 0 18.285157 8.1875 18.285157 18.285156v18.285156c0 10.101563-8.183594 18.285157-18.285157 18.285157h-36.570312c-10.097656 0-18.285156-8.183594-18.285156-18.285157v-18.285156c0-10.097656 8.1875-18.285156 18.285156-18.285156zm0 0" fill="#c3c3c3"/><path d="m292.570312 54.855469h-36.570312c-15.148438 0-27.429688 12.28125-27.429688 27.429687h-18.285156c0-15.148437-12.28125-27.429687-27.429687-27.429687h-36.570313c-15.148437 0-27.429687 12.28125-27.429687 27.429687v18.285156c0 15.148438 12.28125 27.429688 27.429687 27.429688h36.570313c15.148437 0 27.429687-12.28125 27.429687-27.429688h18.285156c0 15.148438 12.28125 27.429688 27.429688 27.429688h36.570312c15.148438 0 27.429688-12.28125 27.429688-27.429688v-18.285156c0-15.148437-12.28125-27.429687-27.429688-27.429687zm-100.570312 45.714843c0 5.050782-4.09375 9.144532-9.144531 9.144532h-36.570313c-5.050781 0-9.144531-4.09375-9.144531-9.144532v-18.285156c0-5.050781 4.09375-9.140625 9.144531-9.140625h36.570313c5.050781 0 9.144531 4.089844 9.144531 9.140625zm109.714844 0c0 5.050782-4.09375 9.144532-9.144532 9.144532h-36.570312c-5.050781 0-9.144531-4.09375-9.144531-9.144532v-18.285156c0-5.050781 4.09375-9.140625 9.144531-9.140625h36.570312c5.050782 0 9.144532 4.089844 9.144532 9.140625zm0 0" fill="#176177"/></svg>