<svg height="511pt" viewBox="-44 1 511 511.99996" width="511pt" xmlns="http://www.w3.org/2000/svg"><path d="m322.707031 211.863281h-30.898437v-44.140625h30.898437c12.1875 0 22.070313 9.882813 22.070313 22.070313s-9.882813 22.070312-22.070313 22.070312zm0 0" fill="#f6bb92"/><path d="m102.015625 211.863281h30.898437v-44.140625h-30.898437c-12.1875 0-22.066406 9.882813-22.066406 22.070313s9.878906 22.070312 22.066406 22.070312zm0 0" fill="#f6bb92"/><path d="m177.050781 273.65625h70.621094v52.964844h-70.621094zm0 0" fill="#fdc9a6"/><path d="m177.050781 301.566406c22.507813 9.863282 48.113281 9.863282 70.621094 0v-19.082031h-70.621094zm0 0" fill="#f6bb92"/><path d="m300.636719 70.621094v52.964844h-176.550781v-52.964844" fill="#da922a"/><path d="m256.5 326.621094h97.101562c39.003907 0 70.621094 31.617187 70.621094 70.621094v114.757812h-423.722656v-114.757812c0-39.003907 31.617188-70.621094 70.621094-70.621094zm0 0" fill="#cdcdcd"/><g fill="#fdc9a6"><path d="m353.601562 459.035156h70.621094v52.964844h-70.621094zm0 0"/><path d="m.5 459.035156h70.621094v52.964844h-70.621094zm0 0"/><path d="m124.085938 132.414062v70.621094c0 48.753906 39.523437 88.273438 88.277343 88.273438 48.753907 0 88.273438-39.519532 88.273438-88.273438v-70.621094l-88.273438-8.828124zm0 0"/></g><path d="m216.777344 213.335938c-2.34375 0-4.585938-.929688-6.242188-2.585938l-10.300781-10.300781c-2.363281-2.367188-3.1875-5.863281-2.128906-9.03125l5.894531-17.65625c1.542969-4.632813 6.546875-7.136719 11.175781-5.597657 4.632813 1.542969 7.140625 6.546876 5.597657 11.175782l-4.15625 12.484375 6.433593 6.441406c3.449219 3.449219 3.445313 9.039063 0 12.484375-1.65625 1.65625-3.898437 2.585938-6.238281 2.585938zm0 0" fill="#834b10"/><path d="m212.363281 251.3125c-7.492187.007812-14.886719-1.730469-21.59375-5.066406-4.363281-2.175782-6.136719-7.480469-3.957031-11.84375 2.175781-4.363282 7.476562-6.132813 11.839844-3.957032 8.632812 4.296876 18.78125 4.296876 27.410156 0 4.363281-2.179687 9.667969-.410156 11.847656 3.953126 2.179688 4.363281.410156 9.667968-3.957031 11.847656-6.707031 3.335937-14.097656 5.070312-21.589844 5.066406zm0 0" fill="#834b10"/><path d="m362.429688 512v-79.449219c0-4.875-3.949219-8.828125-8.828126-8.828125-4.875 0-8.824218 3.953125-8.824218 8.828125v79.449219zm0 0" fill="#b9b9b9"/><path d="m79.949219 512v-79.449219c0-4.875-3.953125-8.828125-8.828125-8.828125s-8.828125 3.953125-8.828125 8.828125v79.449219zm0 0" fill="#b9b9b9"/><path d="m212.363281 0c22.917969 0 45.222657 7.433594 63.558594 21.1875l7.0625 5.296875 25.546875 12.773437c5.980469 2.988282 9.761719 9.101563 9.761719 15.792969v6.742188c0 9.75-7.90625 17.65625-17.65625 17.65625h-176.550781c-9.75 0-17.65625-7.90625-17.65625-17.65625v-6.742188c0-6.691406 3.78125-12.804687 9.765624-15.792969l25.546876-12.773437 7.0625-5.296875c18.335937-13.753906 40.636718-21.1875 63.558593-21.1875zm0 0" fill="#176177"/><path d="m124.085938 114.757812v26.484376l52.964843 10.59375c23.3125 4.65625 47.3125 4.65625 70.621094 0l52.964844-10.59375v-26.484376zm0 0" fill="#176177"/><path d="m247.671875 512h-70.621094l17.65625-114.757812v-5.519532l35.308594.371094v5.148438zm0 0" fill="#1a6c85"/><path d="m230.015625 397.242188h-35.308594l-17.65625-35.3125 35.3125-35.308594 35.308594 35.308594zm0 0" fill="#176177"/><path d="m265.328125 450.207031h61.792969v17.65625h-61.792969zm0 0" fill="#b9b9b9"/><path d="m97.601562 450.207031h61.796876v17.65625h-61.796876zm0 0" fill="#b9b9b9"/><path d="m141.742188 158.898438h44.136718v22.066406c0 12.1875-9.878906 22.070312-22.066406 22.070312-12.191406 0-22.070312-9.882812-22.070312-22.070312zm0 0" fill="#cdcdcd"/><path d="m238.84375 158.898438h44.140625v22.066406c0 12.1875-9.882813 22.070312-22.070313 22.070312s-22.070312-9.882812-22.070312-22.070312zm0 0" fill="#cdcdcd"/><path d="m.5 308.964844h105.929688v35.3125h-105.929688zm0 0" fill="#176177"/><path d="m212.363281 326.621094-52.964843 52.964844-17.65625-52.964844zm0 0" fill="#b9b9b9"/><path d="m212.363281 326.621094 52.964844 52.964844 17.65625-52.964844zm0 0" fill="#b9b9b9"/><path d="m35.808594 353.101562c-4.875 0-8.824219-3.949218-8.824219-8.824218v-35.3125c0-4.875 3.949219-8.828125 8.824219-8.828125 4.878906 0 8.828125 3.953125 8.828125 8.828125v35.3125c0 4.875-3.949219 8.824218-8.828125 8.824218zm0 0" fill="#da922a"/><path d="m71.121094 353.101562c-4.875 0-8.828125-3.949218-8.828125-8.824218v-35.3125c0-4.875 3.953125-8.828125 8.828125-8.828125s8.828125 3.953125 8.828125 8.828125v35.3125c0 4.875-3.953125 8.824218-8.828125 8.824218zm0 0" fill="#da922a"/><path d="m318.292969 308.964844h105.929687v35.3125h-105.929687zm0 0" fill="#176177"/><path d="m353.601562 353.101562c-4.875 0-8.824218-3.949218-8.824218-8.824218v-35.3125c0-4.875 3.949218-8.828125 8.824218-8.828125 4.878907 0 8.828126 3.953125 8.828126 8.828125v35.3125c0 4.875-3.949219 8.824218-8.828126 8.824218zm0 0" fill="#da922a"/><path d="m388.914062 353.101562c-4.875 0-8.828124-3.949218-8.828124-8.824218v-35.3125c0-4.875 3.953124-8.828125 8.828124-8.828125s8.828126 3.953125 8.828126 8.828125v35.3125c0 4.875-3.953126 8.824218-8.828126 8.824218zm0 0" fill="#da922a"/><path d="m296.222656 432.550781c-1.363281.015625-2.714844-.285156-3.945312-.882812l-17.65625-8.828125c-4.363282-2.179688-6.132813-7.480469-3.953125-11.84375 2.179687-4.363282 7.484375-6.136719 11.847656-3.957032l13.707031 6.859376 13.710938-6.859376c4.363281-2.179687 9.667968-.40625 11.847656 3.957032 2.179688 4.363281.40625 9.664062-3.957031 11.84375l-17.652344 8.828125c-1.230469.597656-2.582031.898437-3.949219.882812zm0 0" fill="#da922a"/><path d="m212.363281 61.792969c-1.746093 0-3.449219-.515625-4.902343-1.484375l-26.480469-17.652344c-4.058594-2.707031-5.152344-8.1875-2.445313-12.246094 2.703125-4.054687 8.1875-5.148437 12.242188-2.445312l21.585937 14.40625 21.582031-14.386719c4.054688-2.707031 9.539063-1.613281 12.242188 2.445313 2.707031 4.054687 1.613281 9.539062-2.445312 12.242187l-26.480469 17.65625c-1.453125.960937-3.15625 1.472656-4.898438 1.464844zm0 0" fill="#fbb540"/><path d="m300.636719 150.070312h-61.792969c-4.875 0-8.828125 3.953126-8.828125 8.828126h-35.308594c0-4.875-3.953125-8.828126-8.828125-8.828126h-61.792968c-4.875 0-8.828126 3.953126-8.828126 8.828126s3.953126 8.828124 8.828126 8.828124h8.828124v13.238282c0 17.066406 13.832032 30.898437 30.898438 30.898437 17.0625 0 30.894531-13.832031 30.894531-30.898437v-4.414063h35.308594v4.414063c0 17.066406 13.835937 30.898437 30.898437 30.898437s30.898438-13.832031 30.898438-30.898437v-13.238282h8.824219c4.878906 0 8.828125-3.953124 8.828125-8.828124s-3.953125-8.828126-8.828125-8.828126zm-123.585938 30.894532c0 7.3125-5.925781 13.242187-13.242187 13.242187-7.3125 0-13.238282-5.929687-13.238282-13.242187v-13.242188h26.480469zm97.105469 0c0 7.3125-5.929688 13.242187-13.242188 13.242187s-13.242187-5.929687-13.242187-13.242187v-13.242188h26.484375zm0 0" fill="#62666a"/></svg>