<svg height="512pt" viewBox="-57 0 512 512.00052" width="512pt" xmlns="http://www.w3.org/2000/svg"><path d="m83.824219 203.171875h30.882812v-44.117187h-30.882812c-12.179688 0-22.058594 9.875-22.058594 22.058593 0 12.179688 9.875 22.058594 22.058594 22.058594zm0 0" fill="#f6bb92"/><path d="m238.238281 326.703125h79.414063c38.984375 0 70.589844 31.605469 70.589844 70.589844v114.707031h-388.242188v-114.707031c0-38.984375 31.605469-70.589844 70.589844-70.589844zm0 0" fill="#6fbbc6"/><path d="m317.652344 459.058594h70.589844v52.941406h-70.589844zm0 0" fill="#fdc9a6"/><path d="m0 459.058594h70.589844v52.941406h-70.589844zm0 0" fill="#fdc9a6"/><path d="m229.417969 326.703125v-52.941406h-70.589844v52.941406h-17.648437l44.117187 105.882813h17.621094l44.144531-105.882813zm0 0" fill="#fdc9a6"/><path d="m158.828125 301.632812c22.496094 9.851563 48.089844 9.851563 70.585937 0v-27.871093h-70.585937zm0 0" fill="#f6bb92"/><path d="m141.179688 326.703125h-8.824219l-8.824219 61.765625 61.792969 44.117188zm0 0" fill="#69b0bb"/><path d="m247.0625 326.703125h8.824219l8.550781 61.765625-61.492188 44.117188zm0 0" fill="#69b0bb"/><path d="m85.644531 505.753906-2.550781-2.578125c-8.027344-7.984375-12.53125-18.84375-12.503906-30.167969v-7.535156c.003906-2.847656.667968-5.65625 1.941406-8.207031l13.058594-26.125c1.734375-3.480469 2.640625-7.316406 2.648437-11.207031v-13.816406c0-4.875-3.953125-8.824219-8.824219-8.824219-4.875 0-8.824218 3.949219-8.824218 8.824219v13.816406c0 1.148437-.269532 2.285156-.785156 3.308594l-13.058594 26.109374c-2.5 5.007813-3.800782 10.527344-3.804688 16.121094v7.535156c-.027344 14.292969 5.058594 28.125 14.339844 38.992188h20.957031c0-2.34375-.933593-4.59375-2.59375-6.246094zm0 0" fill="#64a8b2"/><path d="m305.160156 503.175781-2.558594 2.550781c-1.667968 1.660157-2.601562 3.917969-2.597656 6.273438h20.964844c9.28125-10.871094 14.363281-24.699219 14.332031-38.992188v-7.535156c-.007812-5.585937-1.308593-11.09375-3.804687-16.09375l-13.058594-26.144531c-.515625-1.023437-.785156-2.152344-.785156-3.300781v-13.816406c0-4.875-3.949219-8.824219-8.824219-8.824219-4.871094 0-8.824219 3.949219-8.824219 8.824219v13.816406c.007813 3.886718.910156 7.71875 2.648438 11.199218l13.058594 26.160157c1.273437 2.546875 1.941406 5.351562 1.941406 8.199219v7.535156c.019531 11.3125-4.476563 22.164062-12.492188 30.148437zm0 0" fill="#64a8b2"/><path d="m202.945312 459.058594h17.648438v17.648437h-17.648438zm0 0" fill="#64a8b2"/><path d="m105.882812 70.816406v123.53125c0 48.730469 39.507813 88.238282 88.238282 88.238282 48.730468 0 88.238281-39.507813 88.238281-88.238282v-123.53125zm0 0" fill="#fdc9a6"/><g fill="#985713"><path d="m150.003906 185.523438c-4.875 0-8.824218-3.949219-8.824218-8.824219v-8.824219c0-4.871094 3.949218-8.824219 8.824218-8.824219 4.871094 0 8.824219 3.953125 8.824219 8.824219v8.824219c0 4.875-3.953125 8.824219-8.824219 8.824219zm0 0"/><path d="m238.238281 185.523438c-4.871093 0-8.824219-3.949219-8.824219-8.824219v-8.824219c0-4.871094 3.953126-8.824219 8.824219-8.824219 4.875 0 8.824219 3.953125 8.824219 8.824219v8.824219c0 4.875-3.949219 8.824219-8.824219 8.824219zm0 0"/><path d="m202.945312 203.171875h-8.824218c-4.875 0-8.824219-3.953125-8.824219-8.824219v-17.648437c0-4.871094 3.949219-8.824219 8.824219-8.824219s8.824218 3.953125 8.824218 8.824219v8.824219c4.871094 0 8.824219 3.949218 8.824219 8.824218s-3.953125 8.824219-8.824219 8.824219zm0 0"/><path d="m194.121094 242.570312c-7.488282.007813-14.878906-1.726562-21.582032-5.066406-4.410156-2.078125-6.296874-7.335937-4.21875-11.742187 2.078126-4.410157 7.335938-6.296875 11.742188-4.222657.121094.058594.238281.117188.355469.179688 8.632812 4.285156 18.769531 4.285156 27.398437 0 4.34375-2.210938 9.65625-.484375 11.867188 3.855469 2.214844 4.34375.484375 9.65625-3.855469 11.867187-.039063.023438-.082031.042969-.121094.0625-6.707031 3.339844-14.09375 5.074219-21.585937 5.066406zm0 0"/><path d="m296.742188 47.105469c-8.761719-14.386719-24.039063-23.546875-40.855469-24.503907h-8.824219s-17.644531-40.023437-88.234375-13.550781c-10.492187 2.207031-36.445313 19.304688-45.515625 25.023438-16.25 10.269531-33.898438 30.40625-33.898438 53.769531v71.210938h26.46875l56.472657-22.574219c20.988281-8.394531 40.050781-20.964844 56.039062-36.941407l28.667969-28.722656 35.296875 88.238282h17.644531l7.132813-62.789063c2.78125-17.109375-.925781-34.640625-10.394531-49.160156zm0 0"/><path d="m397.066406 273.761719h-35.292968c-19.496094 0-35.296876-15.804688-35.296876-35.296875v-112.84375c0-6.96875-2.0625-13.78125-5.929687-19.582032l-20.539063-17.574218h52.941407c14.617187 0 26.46875 11.851562 26.46875 26.46875v121.671875c0 6.96875 2.0625 13.78125 5.929687 19.578125zm0 0"/></g><path d="m282.359375 159.054688h22.058594c12.183593 0 22.058593 9.875 22.058593 22.058593v8.824219c0 12.179688-9.875 22.058594-22.058593 22.058594h-22.058594zm0 0" fill="#6f7478"/><path d="m291.183594 159.054688v105.882812c-.003906 2.339844-.933594 4.582031-2.585938 6.238281l-26.472656 26.472657c-3.503906 3.382812-9.089844 3.289062-12.476562-.21875-3.300782-3.417969-3.300782-8.839844 0-12.257813l23.886718-23.886719v-93.410156c0-4.871094 3.949219-8.824219 8.824219-8.824219h8.824219zm0 0" fill="#787d82"/><path d="m178.035156 462.304688 30.203125-22.660157c3.902344-2.917969 4.695313-8.449219 1.777344-12.351562-2.921875-3.898438-8.449219-4.695313-12.351563-1.773438-.003906.003907-.007812.003907-.011718.007813l-35.296875 26.472656c-3.035157 2.28125-4.269531 6.246094-3.070313 9.847656l16.710938 50.152344h18.125c0-.949219-.15625-1.890625-.457032-2.789062zm0 0" fill="#64a8b2"/></svg>