<svg height="512pt" viewBox="-97 0 512 512.00039" width="512pt" xmlns="http://www.w3.org/2000/svg"><path d="m52.964844 335.449219h211.863281c29.25 0 52.964844 23.710937 52.964844 52.964843v123.585938h-317.792969v-123.585938c0-29.253906 23.714844-52.964843 52.964844-52.964843zm0 0" fill="#fdc9a6"/><path d="m123.585938 273.65625h70.621093v79.445312h-70.621093zm0 0" fill="#fdc9a6"/><g fill="#f6bb92"><path d="m123.585938 294.957031c8.410156 3.421875 17.402343 5.179688 26.484374 5.179688h17.652344c9.082032 0 18.074219-1.757813 26.484375-5.179688v-21.300781h-70.621093zm0 0"/><path d="m256 211.863281h-26.484375v-44.140625h26.484375c9.75 0 17.65625 7.90625 17.65625 17.65625v8.828125c0 9.75-7.90625 17.65625-17.65625 17.65625zm0 0"/><path d="m61.792969 211.863281h26.484375v-44.140625h-26.484375c-9.75 0-17.65625 7.90625-17.65625 17.65625v8.828125c0 9.75 7.90625 17.65625 17.65625 17.65625zm0 0"/></g><path d="m150.070312 35.308594h17.652344c39.003906 0 70.621094 31.621094 70.621094 70.621094v105.933593c0 39-31.617188 70.621094-70.621094 70.621094h-17.652344c-39.003906 0-70.621093-31.621094-70.621093-70.621094v-105.933593c0-39 31.617187-70.621094 70.621093-70.621094zm0 0" fill="#fdc9a6"/><path d="m114.757812 195c-4.875 0-8.828124-3.949219-8.828124-8.828125v-9.621094c0-4.875 3.953124-8.828125 8.828124-8.828125s8.828126 3.953125 8.828126 8.828125v9.621094c0 4.878906-3.953126 8.828125-8.828126 8.828125zm0 0" fill="#744630"/><path d="m203.035156 195c-4.875 0-8.828125-3.949219-8.828125-8.828125v-9.621094c0-4.875 3.953125-8.828125 8.828125-8.828125s8.828125 3.953125 8.828125 8.828125v9.621094c0 4.878906-3.953125 8.828125-8.828125 8.828125zm0 0" fill="#744630"/><path d="m158.898438 220.691406c-2.34375-.003906-4.585938-.933594-6.242188-2.589844l-8.828125-8.828124c-2.6875-2.683594-3.355469-6.785157-1.660156-10.183594l8.828125-17.65625c2.179687-4.363282 7.484375-6.132813 11.847656-3.953125 4.363281 2.175781 6.132812 7.480469 3.953125 11.84375l-5.984375 11.945312 4.324219 4.324219c3.464843 3.433594 3.484375 9.023438.054687 12.484375-1.664062 1.679687-3.933594 2.617187-6.292968 2.613281zm0 0" fill="#744630"/><path d="m194.207031 35.308594c0 19.503906-15.808593 35.3125-35.308593 35.3125-19.503907 0-35.3125-15.808594-35.3125-35.3125 0-19.5 15.808593-35.308594 35.3125-35.308594 19.5 0 35.308593 15.808594 35.308593 35.308594zm0 0" fill="#5b3726"/><path d="m155.222656 247.171875h-5.152344c-4.875 0-8.828124-3.953125-8.828124-8.828125s3.953124-8.828125 8.828124-8.828125h5.152344c6.851563-.007813 13.601563-1.601563 19.730469-4.660156l6.488281-3.238281c4.347656-2.207032 9.660156-.472657 11.871094 3.871093 2.207031 4.347657.472656 9.660157-3.875 11.871094-.039062.019531-.082031.039063-.121094.058594l-6.46875 3.230469c-8.582031 4.277343-18.035156 6.511718-27.625 6.523437zm0 0" fill="#744630"/><path d="m182.792969 399.828125c-3.445313-3.445313-9.035157-3.445313-12.480469 0l-7.3125 7.308594c-1.488281 1.5625-2.859375 3.234375-4.101562 4.996093-1.246094-1.761718-2.617188-3.433593-4.105469-4.996093l-7.308594-7.308594c-3.507813-3.386719-9.097656-3.289063-12.484375.214844-3.304688 3.421875-3.304688 8.847656 0 12.265625l7.308594 7.3125c4.984375 4.957031 7.777344 11.703125 7.761718 18.730468v11.855469c0 4.875 3.953126 8.828125 8.828126 8.828125s8.828124-3.953125 8.828124-8.828125v-11.855469c-.023437-7.03125 2.773438-13.777343 7.757813-18.730468l7.308594-7.3125c3.445312-3.445313 3.445312-9.035156 0-12.480469zm0 0" fill="#fbbf95"/><path d="m256 512 1.765625-3.726562c9.414063-20 9.414063-43.160157 0-63.160157l-1.765625-3.734375v-105.929687h-35.308594v88.273437l-61.792968 26.484375-61.792969-26.484375v-88.273437h-35.3125l.496093 88.273437v17.65625l-1.871093 3.734375c-9.941407 19.882813-9.941407 43.28125 0 63.160157l1.859375 3.726562zm0 0" fill="#99d8aa"/><path d="m167.722656 35.308594h-17.652344c-39.003906 0-70.621093 31.621094-70.621093 70.621094v52.964843l35.308593-35.308593h88.277344l35.308594 26.484374v-44.140624c0-39-31.617188-70.621094-70.621094-70.621094zm0 0" fill="#744630"/></svg>