<svg height="511pt" viewBox="-44 1 511 511.99912" width="511pt" xmlns="http://www.w3.org/2000/svg"><path d="m177.035156 326.59375h-23.488281c-23.230469-.003906-44.230469-13.847656-53.382813-35.203125-7.175781-16.742187-6.082031-35.882813 2.957032-51.699219l20.953125-36.675781h52.960937zm0 0" fill="#c38325"/><path d="m247.652344 326.59375h23.488281c23.230469-.003906 44.230469-13.847656 53.382813-35.203125 7.175781-16.742187 6.082031-35.882813-2.957032-51.699219l-20.953125-36.675781h-52.960937zm0 0" fill="#c38325"/><path d="m256.476562 326.59375h97.097657c38.996093 0 70.613281 31.613281 70.613281 70.613281v114.75h-423.6875v-114.75c0-39 31.613281-70.613281 70.613281-70.613281zm0 0" fill="#eaeae8"/><path d="m247.652344 326.59375v-61.789062h-70.617188v61.789062h-17.652344l26.480469 52.960938h61.789063l17.652344-52.960938zm0 0" fill="#fdc9a6"/><path d="m177.035156 292.714844c22.507813 9.863281 48.109375 9.863281 70.617188 0v-27.910156h-70.617188zm0 0" fill="#f6bb92"/><path d="m124.074219 88.269531v105.921875c0 48.75 39.519531 88.265625 88.269531 88.265625s88.269531-39.515625 88.269531-88.265625v-105.921875c0-48.75-39.519531-88.269531-88.269531-88.269531s-88.269531 39.519531-88.269531 88.269531zm0 0" fill="#fdc9a6"/><path d="m212.34375 211.84375c-2.339844 0-4.585938-.929688-6.242188-2.585938l-8.824218-8.828124c-2.6875-2.683594-3.355469-6.785157-1.660156-10.1875l8.828124-17.652344c2.175782-4.363282 7.480469-6.132813 11.84375-3.953125 4.363282 2.179687 6.132813 7.480469 3.953126 11.847656l-5.984376 11.941406 4.328126 4.324219c3.460937 3.433594 3.484374 9.023438.050781 12.484375-1.664063 1.675781-3.929688 2.617187-6.292969 2.609375zm0 0" fill="#c38325"/><path d="m212.34375 242.464844c-7.492188.007812-14.882812-1.726563-21.589844-5.066406-4.363281-2.175782-6.136718-7.480469-3.960937-11.84375 2.179687-4.363282 7.480469-6.132813 11.84375-3.957032 8.628906 4.292969 18.777343 4.292969 27.40625 0 4.34375-2.214844 9.660156-.484375 11.871093 3.855469 2.214844 4.34375.488282 9.660156-3.855468 11.875-.042969.019531-.082032.039063-.125.0625-6.703125 3.34375-14.097656 5.082031-21.589844 5.074219zm0 0" fill="#c38325"/><path d="m300.613281 158.882812h22.066407c12.1875 0 22.066406 9.878907 22.066406 22.066407s-9.878906 22.066406-22.066406 22.066406h-22.066407zm0 0" fill="#f6bb92"/><path d="m124.074219 203.015625h-22.066407c-12.1875 0-22.066406-9.878906-22.066406-22.066406s9.878906-22.066407 22.066406-22.066407h22.066407zm0 0" fill="#f6bb92"/><path d="m159.382812 326.59375h-26.480468l-8.828125 52.960938 61.789062-.027344zm0 0" fill="#d9d9d9"/><path d="m265.304688 326.59375h26.480468l8.828125 52.960938-61.789062.023437zm0 0" fill="#d9d9d9"/><path d="m309.4375 185.363281h-70.613281l-26.480469-17.652343-26.480469 17.652343h-70.613281v-52.960937h194.1875zm0 0" fill="#a8d6da"/><path d="m300.613281 132.402344h-176.539062v52.960937h61.789062l26.480469-17.652343 26.480469 17.652343h61.789062zm0 0" fill="#8aced8"/><g fill="#d9d9d9"><path d="m185.863281 379.527344 26.480469 79.46875-70.613281-44.136719zm0 0"/><path d="m238.824219 379.527344-26.480469 79.46875 70.613281-44.136719zm0 0"/><path d="m238.824219 467.820312h17.652343v17.65625h-17.652343zm0 0"/><path d="m221.171875 511.957031v-60.527343c.652344-4.875-2.765625-9.359376-7.640625-10.011719-4.875-.65625-9.359375 2.761719-10.015625 7.636719-.105469.789062-.105469 1.589843 0 2.375v60.527343zm0 0"/></g><path d="m238.824219 379.554688v-.027344l-26.480469 79.46875-26.480469-79.46875v.027344zm0 0" fill="#3b869e"/><path d="m354.457031 441.289062-.882812-1.863281.429687-24.40625c.089844-4.875-3.792968-8.898437-8.667968-8.984375-4.875-.089844-8.894532 3.792969-8.984376 8.667969l-.46875 26.480469c-.019531 1.363281.285157 2.710937.882813 3.9375l1.765625 3.722656c8.242188 17.621094 8.242188 37.988281 0 55.609375l-1.765625 3.726563c-.542969 1.1875-.816406 2.480468-.792969 3.785156h18.535156c10.457032-22.402344 10.4375-48.289063-.050781-70.675782zm0 0" fill="#d9d9d9"/><path d="m87.886719 508.167969-1.765625-3.714844c-8.242188-17.621094-8.242188-37.988281 0-55.609375l1.765625-3.734375c.597656-1.222656.902343-2.574219.882812-3.9375l-.46875-26.480469c-.183593-4.824218-4.144531-8.648437-8.976562-8.65625-4.875.082032-8.761719 4.097656-8.675781 8.972656v.011719l.464843 24.40625-.882812 1.914063c-10.472657 22.390625-10.472657 48.269531 0 70.660156h18.539062c0-1.328125-.300781-2.636719-.882812-3.832031zm0 0" fill="#d9d9d9"/><path d="m212.34375 0c-48.75 0-88.269531 39.519531-88.269531 88.269531v44.132813l88.269531-52.960938 88.269531 52.960938v-44.132813c0-48.75-39.519531-88.269531-88.269531-88.269531zm0 0" fill="#d18d28"/></svg>