<svg height="512pt" viewBox="-18 0 512 512.00038" width="512pt" xmlns="http://www.w3.org/2000/svg"><path d="m379.585938 114.757812v70.621094c0 14.625-11.855469 26.484375-26.480469 26.484375v17.652344c0 9.753906-7.90625 17.65625-17.65625 17.65625h-35.3125v-132.414063zm0 0" fill="#cdcdcd"/><path d="m326.621094 176.550781c10.019531-2.789062 17.132812-11.679687 17.65625-22.066406 0-10.488281-7.378906-19.53125-17.65625-21.628906l-17.65625-.441407v44.136719zm0 0" fill="#f6bb92"/><path d="m97.105469 114.757812v70.621094c0 14.625 11.855469 26.484375 26.480469 26.484375v17.652344c0 9.753906 7.90625 17.65625 17.65625 17.65625h26.480468v-132.414063zm0 0" fill="#cdcdcd"/><path d="m150.070312 176.550781c-10.023437-2.789062-17.132812-11.679687-17.65625-22.066406-.003906-10.488281 7.378907-19.53125 17.65625-21.628906l17.652344-.441407v44.136719zm0 0" fill="#f6bb92"/><path d="m361.929688 467.863281h79.449218v44.136719h-79.449218zm0 0" fill="#fdc9a6"/><path d="m441.378906 450.207031v-61.792969c0-39.003906-31.617187-70.621093-70.621094-70.621093h-264.828124c-39 0-70.617188 31.617187-70.617188 70.621093v61.792969zm0 0" fill="#c7463b"/><path d="m35.308594 467.863281h79.449218v44.136719h-79.449218zm0 0" fill="#fdc9a6"/><path d="m105.929688 317.785156h35.3125v123.59375h-35.3125zm0 0" fill="#60a0aa"/><path d="m335.449219 317.792969h35.308593v123.585937h-35.308593zm0 0" fill="#60a0aa"/><path d="m105.929688 476.691406h-88.273438c-9.75 0-17.65625-7.90625-17.65625-17.65625s7.90625-17.65625 17.65625-17.65625h88.273438zm0 0" fill="#a83b32"/><path d="m459.035156 476.691406h-88.277344v-35.3125h88.277344c9.75 0 17.65625 7.90625 17.65625 17.65625s-7.90625 17.65625-17.65625 17.65625zm0 0" fill="#a83b32"/><path d="m185.378906 432.550781h-79.449218v79.449219h264.828124v-79.449219zm0 0" fill="#3b869e"/><path d="m167.722656 476.691406h141.242188v35.308594h-141.242188zm0 0" fill="#60a0aa"/><path d="m167.722656 317.792969 70.621094 79.449219 70.621094-79.449219zm0 0" fill="#fdc9a6"/><path d="m158.898438 114.757812h158.894531v114.757813h-158.894531zm0 0" fill="#fdc9a6"/><path d="m317.792969 229.515625c-16.949219-16.945313-39.945313-35.308594-63.921875-35.308594h-29.535156c-19.554688 0-38.585938 15.175781-54.238282 26.90625l-11.199218 8.402344v44.140625c0 43.878906 35.570312 79.449219 79.445312 79.449219 43.878906 0 79.449219-35.570313 79.449219-79.449219zm0 0" fill="#cdcdcd"/><g fill="#985713"><path d="m194.207031 163.558594c-4.875 0-8.828125-3.953125-8.828125-8.828125v-8.828125c0-4.875 3.953125-8.828125 8.828125-8.828125s8.828125 3.953125 8.828125 8.828125v8.828125c0 4.875-3.953125 8.828125-8.828125 8.828125zm0 0"/><path d="m282.484375 163.558594c-4.875 0-8.828125-3.953125-8.828125-8.828125v-8.828125c0-4.875 3.953125-8.828125 8.828125-8.828125s8.828125 3.953125 8.828125 8.828125v8.828125c0 4.875-3.953125 8.828125-8.828125 8.828125zm0 0"/><path d="m238.34375 203.035156c-2.339844 0-4.585938-.929687-6.238281-2.585937l-17.65625-17.65625c-3.445313-3.445313-3.445313-9.035157 0-12.480469l17.65625-17.65625c3.503906-3.386719 9.09375-3.289062 12.480469.214844 3.304687 3.421875 3.304687 8.84375 0 12.265625l-11.414063 11.414062 11.414063 11.414063c3.445312 3.449218 3.445312 9.039062 0 12.484375-1.65625 1.65625-3.902344 2.585937-6.242188 2.585937zm0 0"/></g><path d="m79.449219 88.277344h317.792969c9.75 0 17.65625 7.902344 17.65625 17.652344 0 9.753906-7.90625 17.65625-17.65625 17.65625h-317.792969c-9.75 0-17.65625-7.902344-17.65625-17.65625 0-9.75 7.90625-17.652344 17.65625-17.652344zm0 0" fill="#a45e14"/><path d="m198.621094 0h79.449218c26.8125 0 48.550782 21.738281 48.550782 48.550781v48.550781h-176.550782v-48.550781c0-26.8125 21.734376-48.550781 48.550782-48.550781zm0 0" fill="#a45e14"/><path d="m150.070312 52.964844h176.550782v35.3125h-176.550782zm0 0" fill="#6b9777"/><path d="m238.34375 251.320312c-7.492188.007813-14.886719-1.730468-21.589844-5.074218-4.363281-2.175782-6.136718-7.480469-3.960937-11.84375 2.175781-4.363282 7.480469-6.132813 11.84375-3.957032 8.632812 4.289063 18.777343 4.289063 27.410156 0 4.34375-2.214843 9.660156-.484374 11.871094 3.855469 2.214843 4.347657.488281 9.660157-3.855469 11.875-.042969.019531-.082031.042969-.125.0625-6.707031 3.347657-14.097656 5.085938-21.59375 5.082031zm0 0" fill="#985713"/></svg>