<svg height="511pt" viewBox="-44 1 511 511.99995" width="511pt" xmlns="http://www.w3.org/2000/svg"><path d="m256.5 326.621094h97.101562c39.003907 0 70.621094 31.617187 70.621094 70.621094v114.757812h-423.722656v-114.757812c0-39.003907 31.617188-70.621094 70.621094-70.621094zm0 0" fill="#c38325"/><path d="m288.339844 133.527344c18.882812-4.875 38.140625 6.476562 43.015625 25.359375.746093 2.886719 1.125 5.855469 1.121093 8.835937 29.226563-.003906 52.917969 23.679688 52.925782 52.902344.003906 13.476562-5.136719 26.441406-14.363282 36.257812 14.128907 31.0625.40625 67.703126-30.660156 81.835938-18.503906 8.417969-39.964844 7.195312-57.394531-3.269531h-153.539063c-29.199218 17.621093-67.152343 8.238281-84.773437-20.957031-10.550781-17.480469-11.78125-39.046876-3.28125-57.609376-20.019531-21.289062-18.988281-54.777343 2.300781-74.792968 9.816406-9.230469 22.78125-14.367188 36.257813-14.367188-.003907-19.5 15.800781-35.3125 35.300781-35.316406 6.199219 0 12.292969 1.628906 17.664062 4.730469zm0 0" fill="#a8a8a8"/><path d="m132.914062 256v-150.070312h158.894532v150.070312l-35.308594 17.65625h-97.101562zm0 0" fill="#fdc9a6"/><path d="m132.914062 52.964844h158.894532v61.792968h-158.894532zm0 0" fill="#176177"/><path d="m212.363281 0-123.585937 44.136719 123.585937 35.3125 123.585938-35.3125zm0 0" fill="#1f6c8c"/><path d="m168.222656 211.863281c-4.875 0-8.828125-3.953125-8.828125-8.828125v-8.828125c0-4.875 3.953125-8.828125 8.828125-8.828125s8.828125 3.953125 8.828125 8.828125v8.828125c0 4.875-3.953125 8.828125-8.828125 8.828125zm0 0" fill="#834b10"/><path d="m256.5 211.863281c-4.875 0-8.828125-3.953125-8.828125-8.828125v-8.828125c0-4.875 3.953125-8.828125 8.828125-8.828125s8.828125 3.953125 8.828125 8.828125v8.828125c0 4.875-3.953125 8.828125-8.828125 8.828125zm0 0" fill="#834b10"/><path d="m247.671875 158.898438h-70.621094c-4.875 0-8.828125-3.953126-8.828125-8.828126s3.953125-8.828124 8.828125-8.828124h70.621094c4.875 0 8.828125 3.953124 8.828125 8.828124s-3.953125 8.828126-8.828125 8.828126zm0 0" fill="#eeb58e"/><path d="m230.015625 441.378906h-35.308594l-8.828125-35.308594h52.964844zm0 0" fill="#c7463b"/><path d="m238.84375 512h-52.964844l8.828125-70.621094h35.308594zm0 0" fill="#dc4d41"/><path d="m318.292969 485.515625h-44.136719c-4.875 0-8.828125-3.949219-8.828125-8.824219 0-4.878906 3.953125-8.828125 8.828125-8.828125h44.136719c4.875 0 8.828125 3.949219 8.828125 8.828125 0 4.875-3.953125 8.824219-8.828125 8.824219zm0 0" fill="#a45e14"/><path d="m150.570312 485.515625h-44.140624c-4.875 0-8.828126-3.949219-8.828126-8.824219 0-4.878906 3.953126-8.828125 8.828126-8.828125h44.140624c4.875 0 8.828126 3.949219 8.828126 8.828125 0 4.875-3.953126 8.824219-8.828126 8.824219zm0 0" fill="#a45e14"/><path d="m.5 476.691406h70.621094v35.308594h-70.621094zm0 0" fill="#fdc9a6"/><path d="m353.601562 476.691406h70.621094v35.308594h-70.621094zm0 0" fill="#fdc9a6"/><path d="m177.050781 397.242188-35.308593-44.140626 8.828124 88.277344 52.964844-35.308594zm0 0" fill="#a45e14"/><path d="m247.671875 397.242188 35.3125-44.140626-8.828125 88.277344-52.964844-35.308594zm0 0" fill="#a45e14"/><path d="m256.5 264.828125-44.136719-8.828125-44.140625 8.828125-35.308594-15.132813v76.546876c-.105468 43.878906 35.378907 79.53125 79.257813 79.636718 43.878906.105469 79.535156-35.378906 79.636719-79.257812v-81.972656zm0 0" fill="#b9b9b9"/><g fill="#834b10"><path d="m212.363281 304.773438c-6.851562.007812-13.609375-1.578126-19.738281-4.636719l-1.863281-.882813c-4.363281-2.179687-6.132813-7.480468-3.957031-11.84375 2.179687-4.363281 7.484374-6.136718 11.847656-3.957031l1.863281.9375c7.460937 3.707031 16.230469 3.707031 23.691406 0l1.863281-.9375c4.363282-2.179687 9.667969-.40625 11.847657 3.957031 2.179687 4.363282.410156 9.664063-3.953125 11.84375l-1.863282.882813c-6.132812 3.058593-12.890624 4.644531-19.738281 4.636719zm0 0"/><path d="m212.363281 264.828125c-2.34375 0-4.585937-.929687-6.242187-2.585937l-17.65625-17.65625c-3.445313-3.445313-3.445313-9.035157 0-12.480469l17.65625-17.65625c3.507812-3.386719 9.09375-3.289063 12.480468.214843 3.304688 3.421876 3.304688 8.84375 0 12.265626l-11.414062 11.414062 11.414062 11.414062c3.449219 3.449219 3.449219 9.039063 0 12.484376-1.65625 1.65625-3.898437 2.585937-6.238281 2.585937zm0 0"/></g></svg>