<svg height="512pt" viewBox="-26 0 512 512.00039" width="512pt" xmlns="http://www.w3.org/2000/svg"><path d="m0 397.242188h44.136719v88.273437h-44.136719zm0 0" fill="#3b869e"/><path d="m291.308594 326.621094h119.730468c26.507813 0 47.996094 21.488281 47.996094 47.996094v137.382812h-423.726562v-137.382812c0-26.507813 21.492187-47.996094 47.996094-47.996094zm0 0" fill="#fdc9a6"/><path d="m114.757812 326.621094h264.828126v185.378906h-264.828126zm0 0" fill="#f26b32"/><path d="m26.484375 423.722656h88.273437v35.3125h-88.273437zm0 0" fill="#176177"/><path d="m291.308594 326.621094v-79.449219h-88.273438v79.449219h-8.09375v61.058594h105.195313v-61.058594zm0 0" fill="#fdc9a6"/><path d="m203.035156 279.445312c.371094.265626.707032.566407 1.085938.8125l5.445312 3.636719c7.253906 4.835938 15.773438 7.414063 24.488282 7.414063h26.234374c8.71875 0 17.238282-2.578125 24.488282-7.414063l5.449218-3.636719c.378907-.246093.714844-.546874 1.082032-.8125v-32.273437h-88.273438zm0 0" fill="#f6bb92"/><path d="m344.277344 185.378906h-26.484375v-44.136718h26.484375c9.75 0 17.652344 7.902343 17.652344 17.65625v8.824218c0 9.753906-7.902344 17.65625-17.652344 17.65625zm0 0" fill="#f6bb92"/><path d="m150.070312 185.378906h26.480469v-44.136718h-26.480469c-9.753906 0-17.65625 7.902343-17.65625 17.65625v8.824218c0 9.753906 7.902344 17.65625 17.65625 17.65625zm0 0" fill="#f6bb92"/><path d="m326.621094 79.449219v84.460937c0 25.601563-6.957032 50.71875-20.128906 72.667969l-.226563.378906c-4.03125 6.730469-9.511719 12.472657-16.042969 16.816407l-5.445312 3.640624c-7.25 4.832032-15.773438 7.414063-24.488282 7.414063h-26.234374c-8.714844 0-17.238282-2.582031-24.488282-7.414063l-5.445312-3.640624c-6.53125-4.34375-12.007813-10.085938-16.039063-16.816407l-.230469-.378906c-13.171874-21.949219-20.128906-47.070313-20.128906-72.667969v-84.460937c0-43.878907 35.570313-79.449219 79.449219-79.449219s79.449219 35.570312 79.449219 79.449219zm0 0" fill="#fdc9a6"/><g fill="#8d7761"><path d="m326.621094 79.449219c0-43.878907-35.570313-79.449219-79.449219-79.449219s-79.449219 35.570312-79.449219 79.449219v26.480469h158.898438zm0 0"/><path d="m211.863281 158.898438c-4.875 0-8.828125-3.953126-8.828125-8.828126v-8.828124c0-4.875 3.953125-8.828126 8.828125-8.828126s8.828125 3.953126 8.828125 8.828126v8.828124c0 4.875-3.953125 8.828126-8.828125 8.828126zm0 0"/><path d="m282.484375 158.898438c-4.875 0-8.828125-3.953126-8.828125-8.828126v-8.828124c0-4.875 3.953125-8.828126 8.828125-8.828126s8.828125 3.953126 8.828125 8.828126v8.828124c-.003906 4.875-3.953125 8.828126-8.828125 8.828126zm0 0"/><path d="m264.828125 194.207031h-17.65625c-4.875 0-8.828125-3.953125-8.828125-8.828125v-26.484375c0-4.875 3.953125-8.828125 8.828125-8.828125s8.828125 3.953125 8.828125 8.828125v17.65625h8.828125c4.875 0 8.828125 3.953125 8.828125 8.828125s-3.953125 8.828125-8.828125 8.828125zm0 0"/><path d="m247.171875 234.152344c-6.851563.011718-13.609375-1.574219-19.738281-4.636719l-1.863282-.925781c-4.363281-2.179688-6.132812-7.484375-3.953124-11.847656 2.179687-4.363282 7.484374-6.132813 11.847656-3.953126l1.859375.933594c7.464843 3.710938 16.234375 3.710938 23.695312 0l1.863281-.933594c4.363282-2.179687 9.667969-.410156 11.84375 3.953126 2.179688 4.363281.410157 9.667968-3.953124 11.847656l-1.863282.925781c-6.128906 3.0625-12.886718 4.648437-19.738281 4.636719zm0 0"/></g><path d="m158.898438 70.621094h185.378906v35.308594h-185.378906zm0 0" fill="#dc4d41"/><path d="m379.585938 44.136719h-13.601563c-12.625.003906-23.488281 8.914062-25.964844 21.292969l-4.570312 22.847656 22.84375-4.574219c12.378906-2.472656 21.289062-13.339844 21.292969-25.960937zm0 0" fill="#dc4d41"/><path d="m379.585938 132.414062h-13.601563c-12.625-.003906-23.488281-8.914062-25.964844-21.292968l-4.570312-22.84375 22.84375 4.570312c12.378906 2.472656 21.289062 13.339844 21.292969 25.960938zm0 0" fill="#dc4d41"/><path d="m291.308594 326.621094v8.828125c0 24.375-19.757813 44.136719-44.136719 44.136719-24.375 0-44.136719-19.761719-44.136719-44.136719v-8.828125h-35.3125v8.828125c0 43.878906 35.570313 79.449219 79.449219 79.449219s79.449219-35.570313 79.449219-79.449219v-8.828125zm0 0" fill="#d9d9d9"/></svg>