<svg height="512pt" viewBox="-53 0 512 512.00039" width="512pt" xmlns="http://www.w3.org/2000/svg"><path d="m308.964844 123.585938-8.828125 8.828124h-194.207031l-8.824219-8.828124v-17.65625c0-58.503907 47.425781-105.929688 105.929687-105.929688s105.929688 47.425781 105.929688 105.929688zm0 0" fill="#f3af3e"/><path d="m247.171875 317.792969h88.277344c39.003906 0 70.621093 31.617187 70.621093 70.621093v123.585938h-406.070312v-123.585938c0-39.003906 31.617188-70.621093 70.621094-70.621093h79.449218" fill="#4799cf"/><path d="m335.449219 450.207031h70.621093v61.792969h-70.621093zm0 0" fill="#fdc9a6"/><path d="m0 459.035156h70.621094v52.964844h-70.621094zm0 0" fill="#fdc9a6"/><path d="m150.070312 317.792969h-79.449218v194.207031h264.828125v-194.207031zm0 0" fill="#d18d28"/><path d="m211.863281 512v-123.585938c0-4.875-3.953125-8.828124-8.828125-8.828124s-8.828125 3.953124-8.828125 8.828124v123.585938zm0 0" fill="#c38325"/><path d="m238.34375 450.207031h61.792969v61.792969h-61.792969zm0 0" fill="#c38325"/><path d="m0 423.722656h70.621094v35.3125h-70.621094zm0 0" fill="#277baa"/><path d="m335.449219 414.898438h70.621093v35.308593h-70.621093zm0 0" fill="#277baa"/><path d="m264.828125 88.277344c-.488281 0-.976563-.039063-1.457031-.125-4.808594-.800782-8.058594-5.347656-7.257813-10.160156h.003907l8.824218-52.964844c.921875-4.789063 5.546875-7.925782 10.335938-7.003906 4.625.890624 7.738281 5.253906 7.074218 9.917968l-8.828124 52.964844c-.710938 4.25-4.386719 7.363281-8.695313 7.371094zm0 0" fill="#ea9d2d"/><path d="m141.242188 88.277344c-4.308594-.007813-7.984376-3.121094-8.695313-7.371094l-8.828125-52.96875c-.6875-4.824219 2.664062-9.296875 7.492188-9.984375 4.664062-.664063 9.027343 2.449219 9.917968 7.074219l8.824219 52.964844c.804687 4.808593-2.445313 9.355468-7.253906 10.160156-.480469.085937-.96875.125-1.457031.125zm0 0" fill="#ea9d2d"/><path d="m92.691406 203.035156h30.894532v-44.136718h-30.894532c-12.191406 0-22.070312 9.878906-22.070312 22.066406s9.878906 22.070312 22.070312 22.070312zm0 0" fill="#f6bb92"/><path d="m313.378906 203.035156h-30.894531v-44.136718h30.894531c12.1875 0 22.070313 9.878906 22.070313 22.066406s-9.882813 22.070312-22.070313 22.070312zm0 0" fill="#f6bb92"/><path d="m167.722656 273.65625v44.136719l35.3125 79.449219 35.308594-79.449219v-44.136719zm0 0" fill="#fdc9a6"/><path d="m167.722656 292.742188c22.507813 9.859374 48.117188 9.859374 70.621094 0v-19.085938h-70.621094zm0 0" fill="#f6bb92"/><path d="m291.3125 141.242188v52.964843c0 48.753907-39.523438 88.277344-88.277344 88.277344s-88.277344-39.523437-88.277344-88.277344v-52.964843zm0 0" fill="#fdc9a6"/><g fill="#a45e14"><path d="m167.722656 203.035156c-4.875 0-8.824218-3.953125-8.824218-8.828125v-17.65625c0-4.875 3.949218-8.828125 8.824218-8.828125 4.878906 0 8.828125 3.953125 8.828125 8.828125v17.65625c0 4.875-3.949219 8.828125-8.828125 8.828125zm0 0"/><path d="m247.171875 203.035156c-4.875 0-8.828125-3.953125-8.828125-8.828125v-17.65625c0-4.875 3.953125-8.828125 8.828125-8.828125s8.828125 3.953125 8.828125 8.828125v17.65625c0 4.875-3.953125 8.828125-8.828125 8.828125zm0 0"/><path d="m211.863281 220.691406h-8.828125c-4.875 0-8.828125-3.953125-8.828125-8.828125v-17.65625c0-4.875 3.953125-8.828125 8.828125-8.828125s8.828125 3.953125 8.828125 8.828125v8.828125c4.875 0 8.828125 3.953125 8.828125 8.828125s-3.953125 8.828125-8.828125 8.828125zm0 0"/><path d="m203.035156 260.140625c-7.492187.007813-14.886718-1.726563-21.59375-5.066406-4.363281-2.175781-6.136718-7.480469-3.957031-11.84375 2.175781-4.363281 7.476563-6.136719 11.839844-3.957031 8.632812 4.292968 18.78125 4.292968 27.410156 0 4.34375-2.214844 9.660156-.488282 11.875 3.855468 2.210937 4.34375.484375 9.660156-3.859375 11.875-.039062.019532-.082031.039063-.121094.0625-6.707031 3.34375-14.101562 5.082032-21.59375 5.074219zm0 0"/></g><path d="m264.828125 167.722656h-123.585937c-24.378907 0-44.136719-19.757812-44.136719-44.136718h211.859375c0 24.378906-19.761719 44.136718-44.136719 44.136718zm0 0" fill="#ea9d2d"/><path d="m238.34375 123.585938h-70.621094l17.65625-123.585938h35.3125zm0 0" fill="#fbb540"/><path d="m167.722656 317.792969-26.480468 35.308593 61.792968 44.140626zm0 0" fill="#428dc5"/><path d="m238.34375 317.792969 26.484375 35.308593-61.792969 44.140626zm0 0" fill="#428dc5"/></svg>