<svg height="511pt" viewBox="-47 1 511 511.99999" width="511pt" xmlns="http://www.w3.org/2000/svg"><path d="m252.160156 329.761719h95.457032c38.34375 0 69.425781 31.082031 69.425781 69.425781v112.8125h-416.542969v-112.8125c0-38.34375 31.082031-69.425781 69.421875-69.425781zm0 0" fill="#5e8569"/><path d="m356.296875 512v-78.101562c0-4.792969-3.886719-8.679688-8.679687-8.679688-4.792969 0-8.675782 3.886719-8.675782 8.679688v78.101562zm0 0" fill="#52745c"/><path d="m78.601562 512v-78.101562c0-4.792969-3.886718-8.679688-8.679687-8.679688s-8.675781 3.886719-8.675781 8.679688v78.101562zm0 0" fill="#52745c"/><path d="m243.484375 433.898438h69.421875v43.390624h-69.421875zm0 0" fill="#d18d28"/><path d="m156.703125 451.253906c0 14.378906-11.65625 26.035156-26.035156 26.035156-14.375 0-26.03125-11.65625-26.03125-26.035156s11.65625-26.035156 26.03125-26.035156c14.378906 0 26.035156 11.65625 26.035156 26.035156zm0 0" fill="#5d9aa4"/><path d="m373.652344 390.507812c-.058594 14.320313 11.503906 25.976563 25.824218 26.035157 6.496094.023437 12.765626-2.386719 17.566407-6.761719v-10.59375c.011719-11.515625-2.855469-22.851562-8.339844-32.976562-2.878906-1.117188-5.933594-1.703126-9.015625-1.738282-14.378906 0-26.035156 11.65625-26.035156 26.035156zm0 0" fill="#60a0aa"/><path d="m43.890625 364.472656h-34.027344c-6.132812 10.542969-9.363281 22.519532-9.363281 34.714844v8.675781h43.390625zm0 0" fill="#85bc94"/><path d="m217.449219 512v-104.136719c0-4.792969-3.886719-8.675781-8.679688-8.675781s-8.675781 3.882812-8.675781 8.675781v104.136719zm0 0" fill="#52745c"/><path d="m243.484375 329.761719v-34.710938h-69.425781v34.710938h-8.675782l43.386719 60.746093 52.070313-60.746093zm0 0" fill="#fdc9a6"/><path d="m243.484375 329.761719v-52.066407h-69.425781v52.066407h-17.355469l52.066406 60.746093 52.070313-60.746093zm0 0" fill="#fdc9a6"/><path d="m174.058594 305.132812c22.125 9.695313 47.296875 9.695313 69.425781 0v-27.4375h-69.425781zm0 0" fill="#f6bb92"/><path d="m286.871094 234.304688h-156.203125c-28.753907 0-52.066407-23.3125-52.066407-52.066407v-52.070312c0-71.890625 58.277344-130.167969 130.167969-130.167969s130.171875 58.277344 130.171875 130.167969v52.070312c0 28.753907-23.3125 52.066407-52.070312 52.066407zm0 0" fill="#a8a8a8"/><path d="m121.992188 130.167969v78.101562c0 47.929688 38.851562 86.78125 86.777343 86.78125 47.929688 0 86.78125-38.851562 86.78125-86.78125v-78.101562zm0 0" fill="#fdc9a6"/><path d="m217.449219 225.628906c-1.777344-.003906-3.507813-.554687-4.964844-1.570312l-14.472656-10.128906c-2.761719-1.929688-4.15625-5.28125-3.578125-8.601563l5.796875-33.261719c.761719-4.730468 5.210937-7.953125 9.945312-7.191406 4.730469.757812 7.953125 5.210938 7.191407 9.941406-.011719.078125-.023438.15625-.039063.238282l-4.84375 27.820312 9.9375 6.941406c3.941406 2.730469 4.921875 8.136719 2.191406 12.074219-1.628906 2.347656-4.308593 3.746094-7.164062 3.738281zm0 0" fill="#834b10"/><path d="m208.214844 260.339844h-8.121094c-4.792969 0-8.679688-3.886719-8.679688-8.679688 0-4.792968 3.886719-8.675781 8.679688-8.675781h8.121094c4.726562-.003906 9.382812-1.105469 13.609375-3.222656l9.101562-4.546875c4.289063-2.140625 9.503907-.402344 11.644531 3.890625 2.144532 4.289062.402344 9.503906-3.886718 11.644531l-9.09375 4.539062c-6.636719 3.3125-13.953125 5.042969-21.375 5.050782zm0 0" fill="#834b10"/><path d="m208.769531 0c-5.804687.0429688-11.605469.476562-17.355469 1.292969v128.875h34.710938v-128.875c-5.746094-.816407-11.546875-1.2500002-17.355469-1.292969zm0 0" fill="#787d82"/><g fill="#b9b9b9"><path d="m255.199219 8.679688h-3.039063v17.355468h17.355469v-10.953125c-4.636719-2.421875-9.417969-4.558593-14.316406-6.402343zm0 0"/><path d="m252.160156 43.390625h17.355469v17.355469h-17.355469zm0 0"/><path d="m252.160156 78.101562h17.355469v17.355469h-17.355469zm0 0"/><path d="m165.382812 8.679688h-3.039062c-4.898438 1.84375-9.679688 3.980468-14.316406 6.402343v10.953125h17.355468zm0 0"/><path d="m148.027344 43.390625h17.355468v17.355469h-17.355468zm0 0"/><path d="m148.027344 78.101562h17.355468v17.355469h-17.355468zm0 0"/></g><path d="m278.195312 242.984375c-4.792968.007813-8.6875-3.871094-8.695312-8.664063-.007812-3.296874 1.855469-6.3125 4.808594-7.78125l12.5625-6.273437v-64.0625c0-4.792969 3.886718-8.679687 8.679687-8.679687s8.679688 3.886718 8.679688 8.679687v69.421875c0 3.292969-1.859375 6.296875-4.800781 7.769531l-17.355469 8.675781c-1.207031.601563-2.535157.914063-3.878907.914063zm0 0" fill="#787d82"/><path d="m113.3125 138.585938v17.617187c1.003906 20.109375 18.070312 35.625 38.183594 34.710937h4.914062c14.917969.105469 29.347656-5.328124 40.496094-15.246093l11.863281-10.785157 11.863281 10.785157c11.148438 9.917969 25.578126 15.351562 40.5 15.246093h4.914063c20.113281.914063 37.179687-14.601562 38.183594-34.710937v-17.617187c-.296875-10.710938-7.28125-20.082032-17.460938-23.429688-50.40625-18.207031-105.589843-18.207031-155.996093 0h-.105469c-10.140625 3.375-17.082031 12.746094-17.355469 23.429688zm0 0" fill="#62666a"/><path d="m156.703125 329.761719h104.136719l-52.070313 60.746093zm0 0" fill="#787d82"/><path d="m165.382812 329.761719 43.386719 52.070312-52.066406 17.355469-17.355469-69.425781zm0 0" fill="#52745c"/><path d="m252.160156 329.761719-43.390625 52.070312 52.070313 17.355469 17.355468-69.425781zm0 0" fill="#52745c"/><path d="m182.738281 390.507812 26.03125 34.710938 26.035157-34.710938-26.035157-8.675781zm0 0" fill="#6b9777"/></svg>