<svg height="511pt" viewBox="-26 1 511 511.99996" width="511pt" xmlns="http://www.w3.org/2000/svg"><path d="m371.257812 335.449219h-282.480468v-26.484375c0-9.75 7.902344-17.652344 17.652344-17.652344h247.171874c9.753907 0 17.65625 7.902344 17.65625 17.652344zm0 0" fill="#f3af3e"/><path d="m265.328125 326.621094h99.855469c52.109375 0 94.351562 42.242187 94.351562 94.347656v91.03125h-459.035156v-91.03125c0-52.101562 42.234375-94.34375 94.339844-94.347656h99.867187" fill="#6cbae5"/><path d="m194.707031 273.65625v61.792969c0 19.5 15.808594 35.308593 35.308594 35.308593 19.503906 0 35.3125-15.808593 35.3125-35.308593v-61.792969zm0 0" fill="#fdc9a6"/><g fill="#f6bb92"><path d="m194.707031 302.246094c22.6875 8.957031 47.933594 8.957031 70.621094 0v-28.589844h-70.621094zm0 0"/><path d="m318.292969 194.207031h17.65625c14.625 0 26.480469-11.855469 26.480469-26.484375 0-14.625-11.855469-26.480468-26.480469-26.480468h-17.65625zm0 0"/><path d="m141.742188 194.207031h-17.65625c-14.625 0-26.484376-11.855469-26.484376-26.484375 0-14.625 11.859376-26.480468 26.484376-26.480468h17.65625zm0 0"/></g><path d="m230.015625 0c53.628906 0 97.105469 43.476562 97.105469 97.101562v97.105469c0 53.628907-43.476563 97.101563-97.105469 97.101563s-97.101563-43.472656-97.101563-97.101563v-97.105469c0-53.625 43.472657-97.101562 97.101563-97.101562zm0 0" fill="#fdc9a6"/><path d="m238.84375 229.515625c-1.363281 0-2.714844-.316406-3.9375-.925781l-17.652344-8.828125c-3.707031-1.851563-5.625-6.027344-4.617187-10.042969l8.828125-35.3125c1.148437-4.738281 5.921875-7.644531 10.660156-6.492188 4.738281 1.148438 7.644531 5.925782 6.496094 10.660157-.011719.042969-.023438.082031-.03125.121093l-7.0625 28.4375 11.316406 5.65625c4.363281 2.175782 6.136719 7.476563 3.964844 11.839844-1.503906 3.015625-4.59375 4.910156-7.964844 4.886719zm0 0" fill="#834b10"/><path d="m159.398438 317.792969v79.449219c0 11.113281-5.234376 21.578124-14.125 28.246093l-56.496094 42.375v-44.140625l21.183594-15.886718c8.890624-6.671876 14.125-17.136719 14.125-28.25v-61.792969zm0 0" fill="#f7ba61"/><path d="m300.636719 317.792969v79.449219c0 11.113281 5.234375 21.578124 14.125 28.246093l56.496093 42.375v-44.140625l-21.183593-15.886718c-8.894531-6.671876-14.125-17.136719-14.125-28.25v-61.792969zm0 0" fill="#f7ba61"/><path d="m.5 459.035156h88.277344v52.964844h-88.277344zm0 0" fill="#fdc9a6"/><path d="m371.257812 459.035156h88.277344v52.964844h-88.277344zm0 0" fill="#fdc9a6"/><path d="m230.015625 0c-53.628906 0-97.101563 43.476562-97.101563 97.101562v26.484376l2.425782-1.21875c21.476562-10.734376 39.445312-27.371094 51.800781-47.960938l7.566406-12.613281 47.511719 35.636719c15.351562 11.511718 32.023438 21.148437 49.664062 28.707031l35.238282 15.105469v-44.140626c0-53.625-43.476563-97.101562-97.105469-97.101562zm0 0" fill="#834b10"/><path d="m212.363281 176.550781c0 14.628907-11.859375 26.484375-26.484375 26.484375s-26.484375-11.855468-26.484375-26.484375c0-14.625 11.859375-26.480469 26.484375-26.480469s26.484375 11.855469 26.484375 26.480469zm0 0" fill="#b3e4e8"/><path d="m300.636719 176.550781c0 14.628907-11.855469 26.484375-26.480469 26.484375-14.628906 0-26.484375-11.855468-26.484375-26.484375 0-14.625 11.855469-26.480469 26.484375-26.480469 14.625 0 26.480469 11.855469 26.480469 26.480469zm0 0" fill="#b3e4e8"/><path d="m327.121094 167.722656h-18.910156c-4.785157-18.808594-23.914063-30.175781-42.722657-25.386718-12.476562 3.175781-22.214843 12.914062-25.390625 25.386718h-20.164062c-4.785156-18.808594-23.914063-30.175781-42.722656-25.386718-12.472657 3.175781-22.214844 12.914062-25.390626 25.386718h-18.90625c-4.875 0-8.828124 3.953125-8.828124 8.828125s3.953124 8.828125 8.828124 8.828125h18.90625c4.789063 18.808594 23.917969 30.175782 42.726563 25.390625 12.472656-3.175781 22.214844-12.914062 25.386719-25.390625h20.164062c4.789063 18.808594 23.914063 30.175782 42.726563 25.390625 12.472656-3.175781 22.210937-12.914062 25.386719-25.390625h18.910156c4.875 0 8.828125-3.953125 8.828125-8.828125s-3.953125-8.828125-8.828125-8.828125zm-141.242188 26.484375c-9.75 0-17.65625-7.90625-17.65625-17.65625s7.90625-17.652343 17.65625-17.652343 17.65625 7.902343 17.65625 17.652343-7.90625 17.65625-17.65625 17.65625zm88.277344 0c-9.75 0-17.65625-7.90625-17.65625-17.65625s7.90625-17.652343 17.65625-17.652343 17.652344 7.902343 17.652344 17.652343-7.902344 17.65625-17.652344 17.65625zm0 0" fill="#60a0aa"/><path d="m230.015625 259.832031c-7.351563 0-14.617187-1.578125-21.308594-4.625-4.390625-2.121093-6.234375-7.394531-4.117187-11.789062 2.050781-4.25 7.085937-6.136719 11.425781-4.277344 8.894531 4.050781 19.109375 4.050781 28 0 4.484375-1.921875 9.671875.160156 11.589844 4.640625 1.859375 4.339844-.027344 9.375-4.277344 11.425781-6.691406 3.046875-13.957031 4.625-21.3125 4.625zm0 0" fill="#834b10"/></svg>