<svg height="511pt" viewBox="-37 1 511 511.99996" width="511pt" xmlns="http://www.w3.org/2000/svg"><path d="m265.328125 326.621094h97.101563c39.003906 0 70.621093 31.617187 70.621093 70.621094v114.757812h-423.722656v-114.757812c0-39.003907 31.617187-70.621094 70.621094-70.621094zm0 0" fill="#6fbbc6"/><path d="m362.429688 459.035156h70.621093v52.964844h-70.621093zm0 0" fill="#fdc9a6"/><path d="m9.328125 459.035156h70.621094v52.964844h-70.621094zm0 0" fill="#fdc9a6"/><path d="m371.257812 512v-79.449219c0-4.875-3.953124-8.828125-8.828124-8.828125s-8.828126 3.953125-8.828126 8.828125v79.449219zm0 0" fill="#64a8b2"/><path d="m88.777344 512v-79.449219c0-4.875-3.953125-8.828125-8.828125-8.828125s-8.828125 3.953125-8.828125 8.828125v79.449219zm0 0" fill="#64a8b2"/><path d="m256.5 326.621094v-52.964844h-70.621094v52.964844h-17.65625l44.140625 52.964844h17.628907l44.164062-52.964844zm0 0" fill="#f6bb92"/><path d="m238.84375 414.898438h-35.308594l-8.828125-35.3125h52.964844zm0 0" fill="#1f6c8c"/><path d="m247.671875 512h-52.964844l8.828125-97.101562h35.308594zm0 0" fill="#3b869e"/><path d="m274.15625 450.207031h61.792969v17.65625h-61.792969zm0 0" fill="#64a8b2"/><path d="m344.777344 308.964844h92.6875v35.3125h-92.6875zm0 0" fill="#3b869e"/><path d="m.5 308.964844h97.101562v35.3125h-97.101562zm0 0" fill="#3b869e"/><path d="m397.742188 397.242188c0 14.625 11.855468 26.480468 26.480468 26.480468 3.015625-.027344 6.003906-.578125 8.828125-1.621094v-24.859374c-.003906-8.941407-1.714843-17.804688-5.039062-26.105469-14.046875-2.460938-27.429688 6.929687-29.890625 20.976562-.296875 1.691407-.425782 3.410157-.378906 5.128907zm0 0" fill="#3b869e"/><path d="m168.222656 326.621094h-35.308594l17.65625 79.449218 61.816407-26.511718zm0 0" fill="#8aced8"/><path d="m274.15625 326.621094h35.308594l-17.929688 80.277344-61.519531-27.285157zm0 0" fill="#8aced8"/><path d="m185.878906 301.566406c22.507813 9.863282 48.113282 9.863282 70.621094 0v-27.910156h-70.621094zm0 0" fill="#eeb58e"/><path d="m331.535156 211.863281h-30.898437v-44.140625h30.898437c12.1875 0 22.066406 9.882813 22.066406 22.070313.003907 12.1875-9.878906 22.070312-22.066406 22.070312zm0 0" fill="#f6bb92"/><path d="m110.84375 211.863281h30.898438v-44.140625h-30.898438c-12.1875 0-22.066406 9.882813-22.066406 22.070313s9.878906 22.070312 22.066406 22.070312zm0 0" fill="#f6bb92"/><path d="m132.914062 141.242188v61.792968c0 48.753906 39.523438 88.277344 88.277344 88.277344s88.273438-39.523438 88.273438-88.277344v-61.792968l-88.273438-8.828126zm0 0" fill="#fdc9a6"/><g fill="#834b10"><path d="m177.050781 194.207031c-4.875 0-8.828125-3.953125-8.828125-8.828125v-8.828125c0-4.875 3.953125-8.828125 8.828125-8.828125s8.828125 3.953125 8.828125 8.828125v8.828125c0 4.875-3.953125 8.828125-8.828125 8.828125zm0 0"/><path d="m265.328125 194.207031c-4.875 0-8.828125-3.953125-8.828125-8.828125v-8.828125c0-4.875 3.953125-8.828125 8.828125-8.828125s8.828125 3.953125 8.828125 8.828125v8.828125c0 4.875-3.953125 8.828125-8.828125 8.828125zm0 0"/><path d="m230.015625 211.863281h-8.824219c-4.878906 0-8.828125-3.953125-8.828125-8.828125v-17.65625c0-4.875 3.949219-8.828125 8.828125-8.828125 4.875 0 8.824219 3.953125 8.824219 8.828125v8.828125c4.878906 0 8.828125 3.953125 8.828125 8.828125s-3.949219 8.828125-8.828125 8.828125zm0 0"/><path d="m221.191406 251.320312c-7.496094.007813-14.886718-1.730468-21.59375-5.074218-4.363281-2.175782-6.136718-7.480469-3.960937-11.84375 2.179687-4.363282 7.480469-6.132813 11.84375-3.957032 8.632812 4.289063 18.777343 4.289063 27.410156 0 4.34375-2.214843 9.660156-.484374 11.871094 3.855469 2.214843 4.347657.488281 9.660157-3.855469 11.875-.042969.019531-.082031.042969-.125.0625-6.703125 3.347657-14.097656 5.085938-21.589844 5.082031zm0 0"/></g><path d="m185.878906 0h70.621094l35.3125 26.484375 35.308594 17.652344v35.3125h-211.863282v-35.3125l35.3125-17.652344zm0 0" fill="#5d9aa4"/><path d="m132.914062 105.929688v44.140624l88.277344 8.828126 88.273438-8.828126v-44.140624zm0 0" fill="#3b869e"/><path d="m243.257812 48.550781c0 12.1875-9.878906 22.070313-22.066406 22.070313-12.191406 0-22.070312-9.882813-22.070312-22.070313s9.878906-22.066406 22.070312-22.066406c12.1875 0 22.066406 9.878906 22.066406 22.066406zm0 0" fill="#da922a"/><path d="m309.464844 79.449219v35.308593h-176.550782v-35.308593" fill="#f7ba61"/></svg>