<svg height="512pt" viewBox="-44 0 512 512.00039" width="512pt" xmlns="http://www.w3.org/2000/svg"><path d="m97.105469 220.691406h35.308593v-44.140625h-35.308593c-9.753907 0-17.65625 7.90625-17.65625 17.65625v8.828125c0 9.75 7.902343 17.65625 17.65625 17.65625zm0 0" fill="#f6bb92"/><path d="m326.621094 220.691406h-26.484375v-44.140625h26.484375c9.75 0 17.65625 7.90625 17.65625 17.65625v8.828125c0 9.75-7.90625 17.65625-17.65625 17.65625zm0 0" fill="#f6bb92"/><path d="m257.472656 335.449219h86.804688c43.878906 0 79.445312 35.570312 79.445312 79.449219v97.101562h-423.722656v-97.101562c0-43.878907 35.570312-79.449219 79.449219-79.449219h89.75" fill="#c7463b"/><path d="m0 476.691406h79.449219v35.308594h-79.449219zm0 0" fill="#fdc9a6"/><path d="m0 441.378906h79.449219v35.3125h-79.449219zm0 0" fill="#a83b32"/><path d="m353.105469 476.691406h70.617187v35.308594h-70.617187zm0 0" fill="#fdc9a6"/><path d="m353.105469 441.378906h70.617187v35.3125h-70.617187zm0 0" fill="#a83b32"/><path d="m203.035156 344.277344v57.070312l-22.554687 15.003906c-2.460938 1.644532-3.9375 4.414063-3.929688 7.371094v88.277344h17.65625v-83.554688l22.554688-15.003906c2.460937-1.644531 3.9375-4.410156 3.929687-7.371094v-61.792968c0-4.875-3.953125-8.828125-8.828125-8.828125s-8.828125 3.953125-8.828125 8.828125zm0 0" fill="#a83b32"/><path d="m220.691406 467.863281h17.652344v17.652344h-17.652344zm0 0" fill="#d9d9d9"/><path d="m220.691406 432.550781h17.652344v17.65625h-17.652344zm0 0" fill="#d9d9d9"/><path d="m94.3125 504.328125c-8.652344-17.40625-8.652344-37.863281 0-55.269531l1.871094-3.734375c.609375-1.226563.925781-2.574219.921875-3.945313v-17.65625c0-4.875-3.953125-8.824218-8.828125-8.824218s-8.828125 3.949218-8.828125 8.824218v15.574219l-.9375 1.871094c-11.078125 22.304687-11.113281 48.5-.085938 70.832031h18.675781c.003907-1.367188-.3125-2.71875-.925781-3.945312zm0 0" fill="#a83b32"/><path d="m336.332031 508.222656c-.542969 1.183594-.8125 2.476563-.796875 3.777344h18.539063c10.425781-22.390625 10.394531-48.253906-.089844-70.621094l-.882813-1.828125.40625-15.550781c.128907-4.878906-3.722656-8.933594-8.597656-9.058594-4.875-.128906-8.929687 3.722656-9.054687 8.597656l-.46875 17.65625c-.023438 1.386719.277343 2.757813.882812 4.007813l1.765625 3.734375c8.246094 17.617188 8.246094 37.992188 0 55.613281zm0 0" fill="#a83b32"/><path d="m167.722656 353.101562v-70.617187h88.277344v70.617187l-44.136719 8.828126-42.304687-8.828126" fill="#fdc9a6"/><path d="m167.722656 307.113281c27.703125 14.238281 60.574219 14.238281 88.277344 0v-24.628906h-88.277344zm0 0" fill="#f6bb92"/><path d="m114.757812 123.585938v72.070312c.003907 32.640625 14.5 63.597656 39.574219 84.496094 8.863281 7.40625 18.84375 13.363281 29.566407 17.65625l5.003906 2.003906c14.734375 5.894531 31.167968 5.894531 45.902344 0l5.007812-2.003906c10.71875-4.292969 20.699219-10.25 29.5625-17.65625 25.078125-20.894532 39.585938-51.851563 39.589844-84.496094v-72.070312zm0 0" fill="#fdc9a6"/><g fill="#834b10"><path d="m167.722656 203.828125c-4.875 0-8.828125-3.953125-8.828125-8.828125v-9.621094c0-4.875 3.953125-8.828125 8.828125-8.828125s8.828125 3.953125 8.828125 8.828125v9.621094c0 4.875-3.953125 8.828125-8.828125 8.828125zm0 0"/><path d="m256 203.828125c-4.875 0-8.828125-3.953125-8.828125-8.828125v-9.621094c0-4.875 3.953125-8.828125 8.828125-8.828125s8.828125 3.953125 8.828125 8.828125v9.621094c0 4.875-3.953125 8.828125-8.828125 8.828125zm0 0"/><path d="m220.691406 229.515625c-2.199218.003906-4.320312-.816406-5.941406-2.300781l-8.828125-8.035156c-1.835937-1.671876-2.886719-4.039063-2.886719-6.523438v-18.449219c0-4.875 3.953125-8.828125 8.828125-8.828125s8.828125 3.953125 8.828125 8.828125v14.539063l5.941406 5.417968c3.601563 3.285157 3.859376 8.871094.574219 12.472657-1.671875 1.832031-4.035156 2.878906-6.515625 2.878906zm0 0"/><path d="m211.863281 260.742188c-9.84375-.007813-19.632812-1.464844-29.054687-4.328126-4.664063-1.417968-7.296875-6.351562-5.878906-11.015624 1.421874-4.664063 6.351562-7.296876 11.019531-5.878907 15.585937 4.757813 32.238281 4.757813 47.828125 0 4.664062-1.417969 9.597656 1.214844 11.015625 5.878907 1.417969 4.664062-1.214844 9.597656-5.878907 11.015624-9.417968 2.863282-19.207031 4.320313-29.050781 4.328126zm0 0"/></g><path d="m167.722656 335.449219 44.140625 26.480469-44.140625 26.484374zm0 0" fill="#d9d9d9"/><path d="m256 379.585938v-44.136719l-44.136719 26.480469 44.136719 26.484374z" fill="#d9d9d9"/><path d="m114.757812 141.242188 16.632813 7.132812c28.644531 12.265625 61.238281 11.296875 89.105469-2.648438l44.332031-22.140624 44.136719 44.136718v-44.136718c0-48.753907-39.519532-88.277344-88.273438-88.277344h-17.65625c-48.753906 0-88.277344 39.523437-88.277344 88.277344zm0 0" fill="#834b10"/><path d="m220.945312 126.96875c-5.589843 3.351562-12.574218 3.351562-18.167968 0l-7-4.203125c-20.003906-12.542969-35.894532-30.671875-45.707032-52.144531v-17.65625l17.652344-26.480469 44.140625-26.484375 44.136719 26.484375 17.65625 26.480469v17.65625c-9.816406 21.472656-25.707031 39.601562-45.710938 52.144531zm0 0" fill="#c7463b"/><path d="m211.863281 70.621094-14.734375-9.816406c-7.757812-5.171876-14.414062-11.832032-19.589844-19.589844l-9.816406-14.730469 44.140625-26.484375 44.136719 26.484375-9.816406 14.730469c-5.171875 7.761718-11.828125 14.417968-19.589844 19.589844zm0 0" fill="#b94137"/></svg>