<svg height="512pt" viewBox="-44 0 512 512.00039" width="512pt" xmlns="http://www.w3.org/2000/svg"><path d="m256 326.621094h97.105469c39 0 70.617187 31.617187 70.617187 70.621094v114.757812h-423.722656v-114.757812c0-39.003907 31.617188-70.621094 70.621094-70.621094zm0 0" fill="#a8d6da"/><path d="m105.929688 326.621094h211.863281v185.378906h-211.863281zm0 0" fill="#6f7478"/><path d="m264.828125 326.621094v79.449218l-52.964844-17.65625v-61.792968zm0 0" fill="#8aced8"/><path d="m158.898438 326.621094v79.449218l52.964843-17.65625v-61.792968zm0 0" fill="#a8d6da"/><path d="m282.484375 70.621094h35.308594c9.300781-.425782 17.195312 6.75 17.65625 16.046875v72.230469h-35.3125zm0 0" fill="#834b10"/><path d="m322.207031 194.207031h-30.898437v-44.136719h30.898437c12.1875 0 22.070313 9.878907 22.070313 22.066407s-9.882813 22.070312-22.070313 22.070312zm0 0" fill="#f6bb92"/><path d="m101.515625 194.207031h30.898437v-44.136719h-30.898437c-12.1875 0-22.066406 9.878907-22.066406 22.066407s9.878906 22.070312 22.066406 22.070312zm0 0" fill="#f6bb92"/><path d="m123.585938 88.277344h176.550781v194.207031h-176.550781zm0 0" fill="#fdc9a6"/><path d="m353.105469 459.035156h70.617187v52.964844h-70.617187zm0 0" fill="#fdc9a6"/><path d="m0 459.035156h70.621094v52.964844h-70.621094zm0 0" fill="#fdc9a6"/><g fill="#834b10"><path d="m300.136719 97.101562h-176.550781c-19.5 0-35.308594-15.808593-35.308594-35.308593v-61.792969l26.480468 26.484375h150.070313c19.5 0 35.308594 15.808594 35.308594 35.308594zm0 0"/><path d="m264.828125 97.101562 35.308594 52.96875h8.828125v-61.792968h-44.136719zm0 0"/><path d="m158.898438 97.101562-35.3125 52.96875v-61.792968h35.3125zm0 0"/><path d="m123.585938 176.550781 26.484374 52.964844 61.792969-17.652344 61.792969 17.652344 26.480469-70.617187v110.800781c-.003907 14.125-3.980469 27.964843-11.472657 39.9375l-10.542968 16.878906c-13.769532 22.027344-37.914063 35.414063-63.890625 35.414063-23.722657.003906-46.054688-11.167969-60.285157-30.144532l-15.289062-20.375c-9.78125-13.046875-15.070312-28.914062-15.070312-45.222656zm0 0"/></g><path d="m206.0625 273.65625h-11.855469c-4.875 0-8.828125-3.953125-8.828125-8.828125s3.953125-8.828125 8.828125-8.828125h11.855469c7.027344.019531 13.773438-2.769531 18.730469-7.75l7.3125-7.320312c3.386719-3.503907 8.972656-3.601563 12.480469-.214844 3.507812 3.386718 3.605468 8.976562.21875 12.480468-.074219.074219-.144532.148438-.21875.21875l-7.308594 7.316407c-8.261719 8.304687-19.5 12.957031-31.214844 12.925781zm0 0" fill="#985713"/><path d="m70.621094 326.621094h35.308594v185.378906h-35.308594zm0 0" fill="#834b10"/><path d="m317.792969 326.621094h35.3125v185.378906h-35.3125zm0 0" fill="#834b10"/><path d="m105.929688 450.207031h-35.308594c-4.875 0-8.828125-3.953125-8.828125-8.828125v-35.308594c0-4.875 3.953125-8.828124 8.828125-8.828124h35.308594c4.878906 0 8.828124 3.953124 8.828124 8.828124v35.308594c0 4.875-3.953124 8.828125-8.828124 8.828125zm-26.480469-17.65625h17.65625v-17.652343h-17.65625zm0 0" fill="#b9b9b9"/><path d="m353.105469 450.207031h-35.3125c-4.875 0-8.828125-3.953125-8.828125-8.828125v-35.308594c0-4.875 3.953125-8.828124 8.828125-8.828124h35.3125c4.875 0 8.824219 3.953124 8.824219 8.828124v35.308594c0 4.875-3.949219 8.828125-8.824219 8.828125zm-26.484375-17.65625h17.65625v-17.652343h-17.65625zm0 0" fill="#b9b9b9"/><path d="m211.863281 414.898438c-4.875 0-8.828125 3.949218-8.828125 8.824218v88.277344h17.65625v-88.277344c0-4.875-3.953125-8.824218-8.828125-8.824218zm0 0" fill="#62666a"/><path d="m185.378906 397.242188 26.484375 44.136718 26.480469-44.136718-26.480469-8.828126zm0 0" fill="#a83b32"/><path d="m238.34375 432.550781h17.65625v17.65625h-17.65625zm0 0" fill="#b9b9b9"/><path d="m238.34375 467.863281h17.65625v17.652344h-17.65625zm0 0" fill="#b9b9b9"/><path d="m194.207031 167.722656c0 14.628906-11.855469 26.484375-26.484375 26.484375-14.625 0-26.480468-11.855469-26.480468-26.484375 0-14.625 11.855468-26.480468 26.480468-26.480468 14.628906 0 26.484375 11.855468 26.484375 26.480468zm0 0" fill="#787d82"/><path d="m282.484375 167.722656c0 14.628906-11.859375 26.484375-26.484375 26.484375s-26.484375-11.855469-26.484375-26.484375c0-14.625 11.859375-26.480468 26.484375-26.480468s26.484375 11.855468 26.484375 26.480468zm0 0" fill="#787d82"/><path d="m211.863281 220.691406h-8.828125c-4.875 0-8.828125-3.953125-8.832031-8.828125 0-.59375.0625-1.183593.179687-1.765625l8.828126-44.140625c1.121093-4.742187 5.875-7.683593 10.621093-6.5625 4.515625 1.066407 7.433594 5.445313 6.679688 10.023438l-6.75 33.785156c4.78125.9375 7.898437 5.578125 6.960937 10.363281-.828125 4.210938-4.566406 7.21875-8.859375 7.125zm0 0" fill="#985713"/><path d="m256 132.414062c-16.050781.058594-30.042969 10.941407-34.058594 26.484376h-20.160156c-4.875-18.882813-24.136719-30.238282-43.015625-25.363282-18.882813 4.875-30.238281 24.136719-25.363281 43.015625 4.875 18.882813 24.136718 30.238281 43.015625 25.363281 12.4375-3.210937 22.152343-12.925781 25.363281-25.363281h20.160156c4.910156 18.839844 24.164063 30.128907 43 25.222657 18.839844-4.910157 30.128906-24.160157 25.21875-43-4.050781-15.542969-18.097656-26.382813-34.160156-26.359376zm-88.277344 52.964844c-9.75 0-17.652344-7.902344-17.652344-17.65625 0-9.75 7.902344-17.652344 17.652344-17.652344 9.753906 0 17.65625 7.902344 17.65625 17.652344 0 9.753906-7.902344 17.65625-17.65625 17.65625zm88.277344 0c-9.75 0-17.65625-7.902344-17.65625-17.65625 0-9.75 7.90625-17.652344 17.65625-17.652344s17.65625 7.902344 17.65625 17.652344c0 9.753906-7.90625 17.65625-17.65625 17.65625zm0 0" fill="#176177"/></svg>