<svg height="512pt" viewBox="-37 0 512 512.00047" width="512pt" xmlns="http://www.w3.org/2000/svg"><g fill="#5b3726"><path d="m146.285156 59.429688c0 12.621093-10.234375 22.855468-22.855468 22.855468-12.625 0-22.859376-10.234375-22.859376-22.855468 0-12.625 10.234376-22.859376 22.859376-22.859376 12.621093 0 22.855468 10.234376 22.855468 22.859376zm0 0"/><path d="m164.570312 77.714844c0 12.625-10.230468 22.855468-22.855468 22.855468s-22.855469-10.230468-22.855469-22.855468 10.230469-22.855469 22.855469-22.855469 22.855468 10.230469 22.855468 22.855469zm0 0"/><path d="m164.570312 132.570312c0 12.625-10.230468 22.859376-22.855468 22.859376s-22.855469-10.234376-22.855469-22.859376c0-12.621093 10.230469-22.855468 22.855469-22.855468s22.855468 10.234375 22.855468 22.855468zm0 0"/><path d="m329.144531 132.570312c0 12.625-10.234375 22.859376-22.859375 22.859376-12.621094 0-22.855468-10.234376-22.855468-22.859376 0-12.621093 10.234374-22.855468 22.855468-22.855468 12.625 0 22.859375 10.234375 22.859375 22.855468zm0 0"/><path d="m146.285156 105.144531c0 17.671875-14.324218 32-32 32-17.671875 0-32-14.328125-32-32 0-17.675781 14.328125-32 32-32 17.675782 0 32 14.324219 32 32zm0 0"/><path d="m338.285156 59.429688c0 12.621093-10.234375 22.855468-22.855468 22.855468-12.625 0-22.859376-10.234375-22.859376-22.855468 0-12.625 10.234376-22.859376 22.859376-22.859376 12.621093 0 22.855468 10.234376 22.855468 22.859376zm0 0"/><path d="m329.144531 77.714844c0 12.625-10.234375 22.855468-22.859375 22.855468-12.621094 0-22.855468-10.230468-22.855468-22.855468s10.234374-22.855469 22.855468-22.855469c12.625 0 22.859375 10.230469 22.859375 22.855469zm0 0"/><path d="m356.570312 105.144531c0 17.671875-14.324218 32-32 32-17.671874 0-32-14.328125-32-32 0-17.675781 14.328126-32 32-32 17.675782 0 32 14.324219 32 32zm0 0"/></g><path d="m265.144531 320h100.570313c40.394531 0 73.140625 32.746094 73.140625 73.144531v118.855469h-438.855469v-118.855469c0-40.398437 32.746094-73.144531 73.144531-73.144531zm0 0" fill="#f7ba61"/><path d="m365.714844 457.144531h73.144531v54.855469h-73.144531zm0 0" fill="#fdc9a6"/><path d="m0 457.144531h73.144531v54.855469h-73.144531zm0 0" fill="#fdc9a6"/><path d="m219.429688 475.429688c-5.050782 0-9.144532-4.09375-9.144532-9.144532v-137.140625c0-5.050781 4.09375-9.144531 9.144532-9.144531 5.050781 0 9.140624 4.09375 9.140624 9.144531v137.140625c0 5.050782-4.089843 9.144532-9.140624 9.144532zm0 0" fill="#f3af3e"/><path d="m246.855469 402.285156h18.289062v18.285156h-18.289062zm0 0" fill="#f3af3e"/><path d="m73.144531 320v192h292.570313v-192h-64v71.316406c0 28.90625-17.023438 55.101563-43.4375 66.84375l-9.144532 4.058594c-18.914062 8.410156-40.511718 8.410156-59.425781 0l-9.144531-4.058594c-26.410156-11.746094-43.425781-37.941406-43.417969-66.84375v-71.316406zm0 0" fill="#834b10"/><path d="m256 338.285156-36.570312 9.144532-36.574219-9.144532v-91.429687h73.144531zm0 0" fill="#fdc9a6"/><path d="m182.855469 274.285156c22.851562 12.226563 50.296875 12.226563 73.144531 0v-27.429687h-73.144531zm0 0" fill="#f6bb92"/><path d="m324.570312 182.855469h-32v-45.710938h32c12.625 0 22.859376 10.230469 22.859376 22.855469s-10.234376 22.855469-22.859376 22.855469zm0 0" fill="#f6bb92"/><path d="m114.285156 182.855469h32v-45.710938h-32c-12.621094 0-22.855468 10.230469-22.855468 22.855469s10.234374 22.855469 22.855468 22.855469zm0 0" fill="#f6bb92"/><path d="m291.335938 219.308594-3.507813 6.144531c-14.027344 24.542969-40.128906 39.6875-68.398437 39.691406-28.269532-.003906-54.371094-15.148437-68.398438-39.691406l-3.511719-6.144531c-6.800781-11.902344-10.375-25.375-10.375-39.085938v-97.9375c0-45.445312 36.839844-82.285156 82.285157-82.285156 45.445312 0 82.285156 36.839844 82.285156 82.285156v97.9375c0 13.710938-3.578125 27.183594-10.378906 39.085938zm0 0" fill="#fdc9a6"/><path d="m173.714844 155.429688c-5.050782 0-9.144532-4.09375-9.144532-9.144532v-9.140625c0-5.050781 4.09375-9.144531 9.144532-9.144531 5.050781 0 9.144531 4.09375 9.144531 9.144531v9.140625c-.003906 5.050782-4.09375 9.144532-9.144531 9.144532zm0 0" fill="#834b10"/><path d="m265.144531 155.429688c-5.050781 0-9.144531-4.09375-9.144531-9.144532v-9.140625c0-5.050781 4.09375-9.144531 9.144531-9.144531 5.046875 0 9.140625 4.09375 9.140625 9.144531v9.140625c0 5.050782-4.09375 9.144532-9.140625 9.144532zm0 0" fill="#834b10"/><path d="m219.429688 192c-3.480469.019531-6.671876-1.941406-8.230469-5.054688l-9.140625-18.285156c-1.285156-2.574218-1.285156-5.601562 0-8.175781l9.140625-18.285156c2.257812-4.519531 7.75-6.351563 12.269531-4.09375 4.519531 2.253906 6.355469 7.75 4.097656 12.269531l-7.058594 14.199219 7.105469 14.195312c2.257813 4.519531.425781 10.011719-4.09375 12.265625-1.269531.636719-2.671875.964844-4.089843.964844zm0 0" fill="#834b10"/><path d="m256 73.144531h-73.140625c-5.050781 0-9.144531-4.09375-9.144531-9.144531s4.09375-9.144531 9.144531-9.144531h73.140625c5.050781 0 9.144531 4.09375 9.144531 9.144531s-4.09375 9.144531-9.144531 9.144531zm0 0" fill="#834b10"/><path d="m256 109.714844h-73.140625c-5.050781 0-9.144531-4.09375-9.144531-9.144532 0-5.046874 4.09375-9.140624 9.144531-9.140624h73.140625c5.050781 0 9.144531 4.09375 9.144531 9.140624 0 5.050782-4.09375 9.144532-9.144531 9.144532zm0 0" fill="#834b10"/><path d="m173.714844 320h91.429687v9.144531h-91.429687zm0 0" fill="#fdc9a6"/><path d="m265.144531 365.714844v-45.714844l-45.714843 27.429688 45.714843 27.425781z" fill="#a83b32"/><path d="m173.714844 320 45.714844 27.429688-45.714844 27.425781zm0 0" fill="#a83b32"/><path d="m219.429688 219.429688c-7.089844.003906-14.085938-1.636719-20.433594-4.792969l-1.96875-.996094c-4.574219-2.132813-6.554688-7.574219-4.421875-12.148437 2.132812-4.578126 7.574219-6.558594 12.148437-4.425782.171875.082032.339844.164063.503906.253906l1.929688.980469c7.722656 3.8125 16.777344 3.8125 24.5 0l1.894531-.960937c4.4375-2.410156 9.988281-.769532 12.398438 3.667968 2.410156 4.4375.769531 9.988282-3.667969 12.398438-.164062.089844-.332031.171875-.5.253906l-1.929688.976563c-6.359374 3.15625-13.359374 4.792969-20.453124 4.792969zm0 0" fill="#834b10"/><path d="m219.429688 181.027344 24.574218-5.375c10.503906-2.386719 21.519532.28125 29.769532 7.207031l18.796874 16.457031-18.394531 8.042969c-13.414062 5.960937-29.136719 2.714844-39.09375-8.070313zm0 0" fill="#5b3726"/><path d="m219.429688 181.027344-24.578126-5.375c-10.503906-2.386719-21.515624.28125-29.769531 7.207031l-18.796875 16.457031 18.394532 8.042969c13.417968 5.960937 29.136718 2.714844 39.097656-8.070313zm0 0" fill="#5b3726"/></svg>