<svg height="512pt" viewBox="-53 0 512 512.00039" width="512pt" xmlns="http://www.w3.org/2000/svg"><path d="m247.171875 308.964844h88.277344c39.003906 0 70.621093 31.621094 70.621093 70.621094v132.414062h-406.070312v-132.414062c0-39.003907 31.617188-70.621094 70.621094-70.621094zm0 0" fill="#3b869e"/><path d="m150.070312 308.964844h-79.449218v203.035156h264.828125v-203.035156zm0 0" fill="#1f6c8c"/><path d="m335.449219 441.378906h70.621093v70.621094h-70.621093zm0 0" fill="#fdc9a6"/><path d="m0 441.378906h70.621094v70.621094h-70.621094zm0 0" fill="#fdc9a6"/><path d="m300.136719 388.414062c-4.875 0-8.828125 3.953126-8.828125 8.828126v12.199218l-8.824219 4.414063-8.828125-4.414063v-12.199218c0-4.875-3.953125-8.828126-8.828125-8.828126s-8.828125 3.953126-8.828125 8.828126v17.65625c-.019531 3.359374 1.875 6.441406 4.878906 7.941406l12.777344 6.339844v29.855468c0 4.875 3.949219 8.828125 8.824219 8.828125 4.878906 0 8.828125-3.953125 8.828125-8.828125v-29.855468l12.773437-6.382813c2.996094-1.496094 4.886719-4.554687 4.882813-7.898437v-17.65625c0-4.875-3.953125-8.828126-8.828125-8.828126zm0 0" fill="#a8a8a8"/><path d="m247.171875 467.863281c-4.875 0-8.828125-3.953125-8.828125-8.828125v-26.484375c0-4.875 3.953125-8.828125 8.828125-8.828125s8.828125 3.953125 8.828125 8.828125v26.484375c0 4.875-3.953125 8.828125-8.828125 8.828125zm0 0" fill="#b9b9b9"/><path d="m105.929688 450.207031h61.792968v61.792969h-61.792968zm0 0" fill="#3b869e"/><path d="m167.722656 423.722656h-61.792968c-4.875 0-8.824219-3.949218-8.824219-8.824218 0-4.878907 3.949219-8.828126 8.824219-8.828126h61.792968c4.878906 0 8.828125 3.949219 8.828125 8.828126 0 4.875-3.949219 8.824218-8.828125 8.824218zm0 0" fill="#3b869e"/><path d="m0 406.070312h35.308594v35.308594h-35.308594zm0 0" fill="#1f6c8c"/><path d="m370.757812 406.070312h35.3125v35.308594h-35.3125zm0 0" fill="#1f6c8c"/><path d="m211.863281 512v-150.070312c0-4.875-3.953125-8.828126-8.828125-8.828126s-8.828125 3.953126-8.828125 8.828126v150.070312zm0 0" fill="#3b869e"/><path d="m167.722656 264.828125v44.136719l35.3125 61.792968 35.308594-61.792968v-44.136719zm0 0" fill="#fdc9a6"/><path d="m167.722656 283.914062c22.507813 9.863282 48.117188 9.863282 70.621094 0v-19.085937h-70.621094zm0 0" fill="#f6bb92"/><path d="m167.722656 308.964844-17.652344 35.3125 52.964844 26.480468zm0 0" fill="#3b869e"/><path d="m238.34375 308.964844 17.65625 35.3125-52.964844 26.480468zm0 0" fill="#3b869e"/><path d="m92.691406 194.207031h30.894532v-44.136719h-30.894532c-12.191406 0-22.070312 9.878907-22.070312 22.066407s9.878906 22.070312 22.070312 22.070312zm0 0" fill="#eeb58e"/><path d="m313.378906 194.207031h-30.894531v-44.136719h30.894531c12.1875 0 22.070313 9.878907 22.070313 22.066407s-9.882813 22.070312-22.070313 22.070312zm0 0" fill="#eeb58e"/><path d="m291.3125 123.585938v61.792968c0 48.753906-39.523438 88.277344-88.277344 88.277344s-88.277344-39.523438-88.277344-88.277344v-61.792968zm0 0" fill="#fdc9a6"/><g fill="#834b10"><path d="m167.722656 185.378906c-4.875 0-8.824218-3.953125-8.824218-8.828125v-8.828125c0-4.875 3.949218-8.828125 8.824218-8.828125 4.878906 0 8.828125 3.953125 8.828125 8.828125v8.828125c0 4.875-3.949219 8.828125-8.828125 8.828125zm0 0"/><path d="m247.171875 185.378906c-4.875 0-8.828125-3.953125-8.828125-8.828125v-8.828125c0-4.875 3.953125-8.828125 8.828125-8.828125s8.828125 3.953125 8.828125 8.828125v8.828125c0 4.875-3.953125 8.828125-8.828125 8.828125zm0 0"/><path d="m211.863281 211.863281h-8.828125c-4.875 0-8.828125-3.953125-8.828125-8.828125v-17.65625c0-4.875 3.953125-8.828125 8.828125-8.828125s8.828125 3.953125 8.828125 8.828125v8.828125c4.875 0 8.828125 3.953125 8.828125 8.828125s-3.953125 8.828125-8.828125 8.828125zm0 0"/><path d="m203.035156 242.484375c-7.492187.011719-14.886718-1.722656-21.59375-5.066406-4.363281-2.175781-6.136718-7.480469-3.957031-11.84375 2.175781-4.363281 7.476563-6.132813 11.839844-3.957031 8.632812 4.292968 18.78125 4.292968 27.410156 0 4.34375-2.214844 9.660156-.488282 11.875 3.855468 2.210937 4.34375.484375 9.660156-3.859375 11.875-.039062.019532-.082031.042969-.121094.0625-6.707031 3.34375-14.101562 5.082032-21.59375 5.074219zm0 0"/></g><path d="m291.3125 105.929688h-176.554688v-35.308594c0-39.003906 31.617188-70.621094 70.621094-70.621094h35.3125c39 0 70.617188 31.617188 70.617188 70.621094v35.308594zm0 0" fill="#1f6c8c"/><path d="m238.34375 459.035156h61.792969v52.964844h-61.792969zm0 0" fill="#3b869e"/><path d="m114.757812 97.101562h247.175782v35.3125h-247.175782zm0 0" fill="#3b869e"/></svg>