<svg height="512pt" viewBox="0 0 512 512.00039" width="512pt" xmlns="http://www.w3.org/2000/svg"><path d="m26.484375 141.242188h79.445313v105.929687h-79.445313zm0 0" fill="#cdcdcd"/><path d="m397.242188 141.242188h88.277343v105.929687h-88.277343zm0 0" fill="#cdcdcd"/><path d="m414.898438 361.929688h-317.792969v-203.03125c0-87.757813 71.136719-158.898438 158.894531-158.898438s158.898438 71.140625 158.898438 158.898438zm0 0" fill="#d9d9d9"/><path d="m379.585938 194.207031c0 68.253907-55.332032 123.585938-123.585938 123.585938s-123.585938-55.332031-123.585938-123.585938c0-68.253906 55.332032-123.585937 123.585938-123.585937s123.585938 55.332031 123.585938 123.585937zm0 0" fill="#69b0bb"/><path d="m348.691406 194.207031c0 51.191407-41.5 92.691407-92.691406 92.691407s-92.691406-41.5-92.691406-92.691407c0-51.191406 41.5-92.691406 92.691406-92.691406s92.691406 41.5 92.691406 92.691406zm0 0" fill="#aedee2"/><path d="m256 101.515625c-11.289062.027344-22.476562 2.121094-33.007812 6.179687-11.308594 49.816407 19.90625 99.371094 69.722656 110.679688 17.878906 4.058594 36.558594 2.714844 53.671875-3.863281 11.320312-49.816407-19.886719-99.375-69.699219-110.695313-6.785156-1.542968-13.726562-2.3125-20.6875-2.300781zm0 0" fill="#b3e4e8"/><path d="m52.964844 167.722656h17.65625v17.65625h-17.65625zm0 0" fill="#f7ba61"/><path d="m52.964844 203.035156h17.65625v17.65625h-17.65625zm0 0" fill="#ea9d2d"/><path d="m441.378906 167.722656h17.65625v17.65625h-17.65625zm0 0" fill="#f7ba61"/><path d="m441.378906 203.035156h17.65625v17.65625h-17.65625zm0 0" fill="#ea9d2d"/><path d="m97.105469 353.101562-30.289063 5.050782c-14.863281 2.484375-28.839844 8.726562-40.605468 18.140625-16.566407 13.234375-26.21484425 33.289062-26.210938 54.492187v81.214844h512v-81.214844c0-21.183594-9.628906-41.222656-26.171875-54.457031-11.765625-9.414063-25.746094-15.65625-40.609375-18.140625l-30.324219-5.085938zm0 0" fill="#cbcbcb"/><path d="m450.207031 512v-70.621094c0-4.875-3.953125-8.828125-8.828125-8.828125s-8.828125 3.953125-8.828125 8.828125v70.621094zm0 0" fill="#c3c3c3"/><path d="m79.449219 512v-70.621094c0-4.875-3.953125-8.828125-8.828125-8.828125s-8.828125 3.953125-8.828125 8.828125v70.621094zm0 0" fill="#c3c3c3"/><path d="m132.414062 406.070312h247.171876v105.929688h-247.171876zm0 0" fill="#d9d9d9"/><path d="m167.722656 441.378906h176.554688v70.621094h-176.554688zm0 0" fill="#f7ba61"/><path d="m476.691406 432.550781h35.308594v44.140625h-35.308594zm0 0" fill="#428dc5"/><path d="m35.308594 445.792969c0-17.0625-13.832032-30.894531-30.894532-30.894531h-2.570312c-1.222656 5.207031-1.84375 10.539062-1.84375 15.886718v45.90625h4.414062c17.0625 0 30.894532-13.835937 30.894532-30.898437zm0 0" fill="#64a8b2"/><path d="m167.722656 441.378906h88.277344v70.621094h-88.277344zm0 0" fill="#c3c3c3"/><path d="m256 441.378906h44.136719v70.621094h-44.136719zm0 0" fill="#ea6b65"/><g fill="#cdcdcd"><path d="m123.585938 291.308594h-26.480469c-4.878907 0-8.828125-3.949219-8.828125-8.824219 0-4.878906 3.949218-8.828125 8.828125-8.828125h26.480469c4.875 0 8.828124 3.949219 8.828124 8.828125 0 4.875-3.953124 8.824219-8.828124 8.824219zm0 0"/><path d="m132.414062 326.621094h-35.308593c-4.878907 0-8.828125-3.953125-8.828125-8.828125s3.949218-8.828125 8.828125-8.828125h35.308593c4.875 0 8.828126 3.953125 8.828126 8.828125s-3.953126 8.828125-8.828126 8.828125zm0 0"/><path d="m414.898438 291.308594h-26.484376c-4.875 0-8.828124-3.949219-8.828124-8.824219 0-4.878906 3.953124-8.828125 8.828124-8.828125h26.484376c4.875 0 8.824218 3.949219 8.824218 8.828125 0 4.875-3.949218 8.824219-8.824218 8.824219zm0 0"/><path d="m414.898438 326.621094h-35.3125c-4.875 0-8.828126-3.953125-8.828126-8.828125s3.953126-8.828125 8.828126-8.828125h35.3125c4.875 0 8.824218 3.953125 8.824218 8.828125s-3.949218 8.828125-8.824218 8.828125zm0 0"/></g></svg>