<svg height="512pt" viewBox="-44 0 512 512.00039" width="512pt" xmlns="http://www.w3.org/2000/svg"><path d="m308.964844 185.378906h-26.480469v-44.136718h26.480469c9.75 0 17.65625 7.902343 17.65625 17.65625v8.824218c0 9.753906-7.90625 17.65625-17.65625 17.65625zm0 0" fill="#f6bb92"/><path d="m114.757812 185.378906h26.484376v-44.136718h-26.484376c-9.75 0-17.652343 7.902343-17.652343 17.65625v8.824218c0 9.753906 7.902343 17.65625 17.652343 17.65625zm0 0" fill="#f6bb92"/><path d="m167.722656 256h88.277344v79.449219h-88.277344zm0 0" fill="#f6bb92"/><path d="m291.308594 61.792969v150.070312l-26.480469 44.136719-26.484375 17.65625h-52.964844l-26.480468-17.65625-26.484376-44.136719v-150.070312c0-34.128907 27.664063-61.792969 61.792969-61.792969h35.308594c34.128906 0 61.792969 27.664062 61.792969 61.792969zm0 0" fill="#fdc9a6"/><path d="m229.515625 0h-35.308594c-34.128906 0-61.792969 27.664062-61.792969 61.792969v79.449219l26.484376-35.3125h35.308593l17.65625 8.828124 17.652344-8.828124h35.3125l26.480469 35.3125v-79.449219c0-34.128907-27.664063-61.792969-61.792969-61.792969zm0 0" fill="#834b10"/><path d="m178.027344 158.898438c-4.875 0-8.828125-3.953126-8.828125-8.828126v-8.828124c0-4.875 3.953125-8.828126 8.828125-8.828126s8.828125 3.953126 8.828125 8.828126v8.828124c0 4.875-3.953125 8.828126-8.828125 8.828126zm0 0" fill="#834b10"/><path d="m248.648438 158.898438c-4.878907 0-8.828126-3.953126-8.828126-8.828126v-8.828124c0-4.875 3.949219-8.828126 8.828126-8.828126 4.875 0 8.824218 3.953126 8.824218 8.828126v8.828124c0 4.875-3.949218 8.828126-8.824218 8.828126zm0 0" fill="#834b10"/><path d="m211.863281 203.035156c-1.367187 0-2.714843-.316406-3.9375-.925781l-17.65625-8.828125c-4.363281-2.179688-6.132812-7.480469-3.953125-11.84375.164063-.328125.347656-.648438.554688-.957031l17.65625-26.484375c2.703125-4.054688 8.1875-5.152344 12.242187-2.445313 4.058594 2.707031 5.152344 8.1875 2.445313 12.246094l-12.121094 18.15625 8.714844 4.351563c4.363281 2.175781 6.136718 7.476562 3.960937 11.839843-1.492187 3-4.558593 4.894531-7.90625 4.890625zm0 0" fill="#834b10"/><path d="m375.730469 335.449219h-119.730469v-35.3125h-88.277344v35.3125h-119.726562c-26.507813 0-47.996094 21.488281-47.996094 47.996093v128.554688h423.722656v-128.554688c0-26.507812-21.488281-47.996093-47.992187-47.996093zm0 0" fill="#f3af3e"/><g fill="#834b10"><path d="m194.207031 282.484375c-4.875 0-8.828125-3.953125-8.828125-8.828125v-17.65625c0-4.875 3.953125-8.828125 8.828125-8.828125s8.828125 3.953125 8.828125 8.828125v17.65625c0 4.875-3.953125 8.828125-8.828125 8.828125zm0 0"/><path d="m229.515625 282.484375c-4.875 0-8.824219-3.953125-8.824219-8.828125v-17.65625c0-4.875 3.949219-8.828125 8.824219-8.828125 4.878906 0 8.828125 3.953125 8.828125 8.828125v17.65625c0 4.875-3.949219 8.828125-8.828125 8.828125zm0 0"/><path d="m211.863281 234.152344c-6.851562.011718-13.609375-1.574219-19.738281-4.636719l-1.863281-.925781c-4.363281-2.179688-6.132813-7.484375-3.957031-11.847656 2.179687-4.363282 7.484374-6.132813 11.847656-3.953126l1.863281.933594c7.460937 3.710938 16.230469 3.710938 23.691406 0l1.863281-.933594c4.363282-2.179687 9.667969-.410156 11.847657 3.953126 2.179687 4.363281.410156 9.667968-3.953125 11.847656l-1.863282.925781c-6.132812 3.058594-12.890624 4.644531-19.738281 4.636719zm0 0"/><path d="m150.070312 414.898438c-4.875 0-8.828124-3.953126-8.828124-8.828126v-70.621093c0-4.875 3.953124-8.828125 8.828124-8.828125s8.828126 3.953125 8.828126 8.828125v70.621093c0 4.875-3.953126 8.828126-8.828126 8.828126zm0 0"/><path d="m273.65625 414.898438c-4.875 0-8.828125-3.953126-8.828125-8.828126v-70.621093c0-4.875 3.953125-8.828125 8.828125-8.828125s8.828125 3.953125 8.828125 8.828125v70.621093c0 4.875-3.953125 8.828126-8.828125 8.828126zm0 0"/></g><path d="m132.414062 397.242188h158.894532v79.449218h-158.894532zm0 0" fill="#787d82"/><path d="m176.550781 397.242188 8.828125-26.484376h52.964844l8.828125 26.484376v8.828124h-70.621094zm0 0" fill="#b9b9b9"/><path d="m167.722656 397.242188h88.277344v79.449218h-88.277344zm0 0" fill="#a8a8a8"/><path d="m344.277344 476.691406h79.445312v35.308594h-79.445312zm0 0" fill="#3b869e"/><path d="m344.277344 406.070312h79.445312v35.308594h-79.445312zm0 0" fill="#3b869e"/><path d="m0 476.691406h79.449219v35.308594h-79.449219zm0 0" fill="#3b869e"/><path d="m0 406.070312h79.449219v35.308594h-79.449219zm0 0" fill="#3b869e"/><path d="m291.308594 61.792969c0-34.128907-27.664063-61.792969-61.792969-61.792969h-35.308594c-34.128906 0-61.792969 27.664062-61.792969 61.792969v8.828125h158.894532zm0 0" fill="#3b869e"/><path d="m353.105469 79.449219h-220.691407c-4.875 0-8.828124-3.953125-8.828124-8.828125s3.953124-8.828125 8.828124-8.828125h220.691407c4.875 0 8.824219 3.953125 8.824219 8.828125s-3.949219 8.828125-8.824219 8.828125zm0 0" fill="#b94137"/><path d="m353.105469 406.070312c0-4.875-3.953125-8.828124-8.828125-8.828124s-8.828125 3.953124-8.828125 8.828124v105.929688h17.652343v-105.929688zm0 0" fill="#ea9d2d"/><path d="m88.277344 512v-105.929688c0-4.875-3.953125-8.828124-8.828125-8.828124s-8.828125 3.953124-8.828125 8.828124v105.929688zm0 0" fill="#ea9d2d"/><path d="m238.34375 441.378906c0 14.625-11.855469 26.484375-26.480469 26.484375-14.628906 0-26.484375-11.859375-26.484375-26.484375s11.855469-26.480468 26.484375-26.480468c14.625 0 26.480469 11.855468 26.480469 26.480468zm0 0" fill="#b3e4e8"/><path d="m211.863281 476.691406c-19.503906 0-35.3125-15.8125-35.3125-35.3125s15.808594-35.308594 35.3125-35.308594c19.5 0 35.308594 15.808594 35.308594 35.308594s-15.808594 35.3125-35.308594 35.3125zm0-52.96875c-9.75 0-17.65625 7.90625-17.65625 17.65625s7.90625 17.65625 17.65625 17.65625 17.652344-7.90625 17.652344-17.65625-7.902344-17.65625-17.652344-17.65625zm0 0" fill="#787d82"/></svg>