<svg height="512pt" viewBox="-85 0 512 512.00001" width="512pt" xmlns="http://www.w3.org/2000/svg"><path d="m331.851562 237.035156h-37.925781c-20.945312 0-37.925781-16.976562-37.925781-37.925781v-94.8125h-9.480469l-18.964843-66.371094h56.890624c15.707032 0 28.445313 12.734375 28.445313 28.445313v130.738281c0 7.488281 2.214844 14.808594 6.371094 21.039063zm0 0" fill="#533222"/><path d="m56.890625 322.371094h227.554687c31.417969 0 56.886719 25.46875 56.886719 56.886718v132.742188h-341.332031v-132.742188c0-31.417968 25.46875-56.886718 56.890625-56.886718zm0 0" fill="#d9d9d9"/><path d="m123.257812 322.371094h94.816407v189.628906h-94.816407zm0 0" fill="#85bc94"/><path d="m142.222656 256h56.886719v75.851562h-56.886719zm0 0" fill="#fdc9a6"/><path d="m142.222656 281.960938c6.191406 1.625 12.5625 2.460937 18.960938 2.484374h18.964844c6.398437-.023437 12.773437-.859374 18.960937-2.484374v-25.960938h-56.886719zm0 0" fill="#f6bb92"/><path d="m66.371094 189.628906h28.445312v-47.40625h-28.445312c-10.472656 0-18.964844 8.488282-18.964844 18.960938v9.484375c0 10.472656 8.492188 18.960937 18.964844 18.960937zm0 0" fill="#f6bb92"/><path d="m85.332031 208.59375-19.910156 29.875c-11.371094 17.050781-14.226563 38.398438-7.738281 57.835938l8.6875 26.066406h75.851562v-66.371094l-28.445312-9.480469-18.960938-56.890625zm0 0" fill="#533222"/><path d="m265.480469 208.59375 3.160156 18.960938 7.28125 10.914062c11.371094 17.050781 14.222656 38.398438 7.734375 57.835938l-8.691406 26.066406h-75.851563v-75.851563h28.441407l28.445312-66.371093zm0 0" fill="#533222"/><path d="m274.964844 189.628906h-28.445313l9.480469-47.40625h18.964844c10.472656 0 18.960937 8.488282 18.960937 18.960938v9.484375c0 10.472656-8.488281 18.960937-18.960937 18.960937zm0 0" fill="#f6bb92"/><path d="m256 85.332031v104.296875c0 41.890625-33.960938 75.851563-75.851562 75.851563h-18.964844c-41.890625 0-75.851563-33.960938-75.851563-75.851563v-104.296875zm0 0" fill="#fdc9a6"/><path d="m170.667969 237.035156c-7.355469.007813-14.609375-1.691406-21.191407-4.964844l-2.039062-1.035156c-4.746094-2.210937-6.800781-7.855468-4.585938-12.597656 2.210938-4.746094 7.851563-6.800781 12.597657-4.589844.175781.082032.351562.171875.519531.261719l2 1.015625c8.007812 3.957031 17.402344 3.957031 25.410156 0l1.964844-.996094c4.601562-2.5 10.359375-.796875 12.859375 3.804688 2.5 4.601562.792969 10.359375-3.804687 12.859375-.171876.089843-.34375.179687-.519532.261719l-2.003906 1.015624c-6.589844 3.269532-13.851562 4.96875-21.207031 4.964844zm0 0" fill="#533222"/><path d="m170.667969 199.109375c-2.515625 0-4.925781-.996094-6.703125-2.777344l-9.484375-9.480469c-2.886719-2.882812-3.601563-7.292968-1.78125-10.941406l9.480469-18.964844c2.34375-4.683593 8.039062-6.585937 12.726562-4.246093 4.6875 2.339843 6.585938 8.039062 4.246094 12.722656l-6.429688 12.828125 4.648438 4.648438c3.71875 3.6875 3.742187 9.691406.054687 13.410156-1.789062 1.800781-4.222656 2.808594-6.757812 2.800781zm0 0" fill="#533222"/><path d="m151.703125 151.703125c0 15.710937-12.734375 28.445313-28.445313 28.445313-15.707031 0-28.441406-12.734376-28.441406-28.445313 0-15.707031 12.734375-28.445313 28.441406-28.445313 15.710938 0 28.445313 12.738282 28.445313 28.445313zm0 0" fill="#d9d9d9"/><path d="m246.519531 151.703125c0 15.710937-12.734375 28.445313-28.445312 28.445313-15.710938 0-28.445313-12.734376-28.445313-28.445313 0-15.707031 12.734375-28.445313 28.445313-28.445313 15.710937 0 28.445312 12.738282 28.445312 28.445313zm0 0" fill="#d9d9d9"/><g fill="#99d8aa"><path d="m123.257812 322.371094 47.410157 66.371094 47.40625-66.371094zm0 0"/><path d="m189.628906 445.628906h28.445313v18.964844h-28.445313zm0 0"/><path d="m170.667969 426.667969c-5.238281 0-9.484375-4.246094-9.484375-9.484375v-47.40625c0-5.234375 4.246094-9.480469 9.484375-9.480469 5.234375 0 9.480469 4.246094 9.480469 9.480469v47.40625c0 5.238281-4.246094 9.484375-9.480469 9.484375zm0 0"/></g><path d="m265.480469 94.816406v-18.964844h-9.480469c0-41.890624-33.960938-75.851562-75.851562-75.851562h-18.964844c-41.890625 0-75.851563 33.960938-75.851563 75.851562v66.371094l28.445313-47.40625h104.296875l37.925781 56.886719v-18.960937h9.480469zm0 0" fill="#533222"/><path d="m265.480469 132.742188h-14.75c-10.351563-18.054688-33.375-24.300782-51.429688-13.953126-8.859375 5.078126-15.277343 13.535157-17.785156 23.433594h-21.675781c-5.113282-20.171875-25.609375-32.382812-45.78125-27.269531-9.898438 2.507813-18.355469 8.929687-23.433594 17.789063h-14.773438c-5.234374 0-9.480468 4.242187-9.480468 9.480468 0 5.234375 4.246094 9.480469 9.480468 9.480469h9.484376c-.027344 20.90625 16.898437 37.871094 37.800781 37.898437 17.289062.019532 32.394531-11.675781 36.703125-28.417968h21.65625c5.210937 20.246094 25.84375 32.433594 46.089844 27.222656 16.742187-4.308594 28.4375-19.414062 28.414062-36.703125h9.484375c5.234375 0 9.480469-4.246094 9.480469-9.480469 0-5.238281-4.246094-9.480468-9.484375-9.480468zm-142.222657 37.925781c-10.472656 0-18.960937-8.492188-18.960937-18.964844s8.488281-18.960937 18.960937-18.960937c10.472657 0 18.964844 8.488281 18.964844 18.960937s-8.492187 18.964844-18.964844 18.964844zm94.816407 0c-10.472657 0-18.964844-8.492188-18.964844-18.964844s8.492187-18.960937 18.964844-18.960937c10.472656 0 18.960937 8.488281 18.960937 18.960937s-8.488281 18.964844-18.960937 18.964844zm0 0" fill="#62666a"/><path d="m76.375 511.78125c-.03125-1.398438-.371094-2.769531-.996094-4.019531l-2-4c-9.292968-18.699219-9.292968-40.667969 0-59.363281l2-4.011719c.660156-1.3125 1.003906-2.765625 1.003906-4.238281l-.113281-37.984376c-.03125-5.210937-4.269531-9.421874-9.480469-9.421874-5.238281 0-9.484374 4.242187-9.484374 9.480468v.054688l.113281 35.632812-1.003907 2.011719c-11.902343 23.953125-11.941406 52.089844-.105468 76.078125h20.074218zm0 0" fill="#cdcdcd"/><path d="m266.429688 507.941406c-.542969 1.148438-.851563 2.390625-.902344 3.660156l-.046875.398438h19.980469c11.207031-24.046875 11.183593-51.824219-.066407-75.851562l-.949219-2.085938v-35.839844c0-5.238281-4.246093-9.480468-9.480468-9.480468-5.238282 0-9.484375 4.242187-9.484375 9.480468v37.925782c.015625 1.40625.339843 2.792968.949219 4.058593l1.898437 4.011719c8.859375 18.925781 8.859375 40.804688 0 59.730469zm0 0" fill="#cdcdcd"/></svg>