<svg height="511pt" viewBox="-47 0 511 511.99977" width="511pt" xmlns="http://www.w3.org/2000/svg"><path d="m253.601562 338.445312h85.328126c43.132812 0 78.097656 34.96875 78.097656 78.101563v95.453125h-416.527344v-95.453125c0-43.132813 34.964844-78.101563 78.097656-78.101563zm0 0" fill="#3b869e"/><path d="m260.832031 512h-95.457031l-52.066406-173.554688h190.910156zm0 0" fill="#eaeae8"/><path d="m.5 477.289062h78.097656v34.710938h-78.097656zm0 0" fill="#fdc9a6"/><path d="m347.605469 477.289062h69.421875v34.710938h-69.421875zm0 0" fill="#fdc9a6"/><g fill="#d9d9d9"><path d="m200.085938 347.125v164.875h17.355468v-164.875c0-4.792969-3.882812-8.679688-8.675781-8.679688s-8.679687 3.886719-8.679687 8.679688zm0 0"/><path d="m234.796875 416.546875h17.355469v17.355469h-17.355469zm0 0"/><path d="m234.796875 451.257812h17.355469v17.351563h-17.355469zm0 0"/></g><path d="m95.953125 511.730469c-.023437-1.25-.320313-2.484375-.867187-3.609375l-1.828126-3.664063c-8.515624-17.113281-8.515624-37.226562 0-54.339843l1.828126-3.660157c.585937-1.207031.882812-2.535156.867187-3.878906v-17.355469c0-4.792968-3.882813-8.679687-8.675781-8.679687-4.792969 0-8.679688 3.886719-8.679688 8.679687v15.308594l-.910156 1.828125c-10.894531 21.929687-10.929688 47.683594-.09375 69.640625h18.359375zm0 0" fill="#1f6c8c"/><path d="m331.121094 508.277344c-.570313 1.160156-.867188 2.433594-.867188 3.722656h18.222656c10.289063-22.015625 10.289063-47.460938 0-69.472656l-.867187-1.789063.40625-15.289062c.125-4.773438-3.628906-8.753907-8.398437-8.902344h-.234376c-4.707031-.003906-8.558593 3.746094-8.679687 8.449219l-.460937 17.355468c-.027344 1.363282.269531 2.714844.867187 3.941407l1.738281 3.660156c8.101563 17.324219 8.101563 37.347656 0 54.671875zm0 0" fill="#1f6c8c"/><path d="m252.152344 277.703125v78.097656l-43.386719 8.679688-41.585937-8.679688h-1.804688v-78.097656zm0 0" fill="#fdc9a6"/><path d="m165.375 301.914062c27.234375 14 59.546875 14 86.777344 0v-24.210937h-86.777344zm0 0" fill="#f6bb92"/><path d="m321.574219 199.601562h-26.03125v-43.386718h26.03125c9.585937 0 17.355469 7.769531 17.355469 17.355468v8.675782c0 9.585937-7.769532 17.355468-17.355469 17.355468zm0 0" fill="#f6bb92"/><path d="m95.953125 199.601562h34.710937v-43.386718h-34.710937c-9.582031 0-17.355469 7.769531-17.355469 17.355468v8.675782c0 9.585937 7.773438 17.355468 17.355469 17.355468zm0 0" fill="#f6bb92"/><path d="m113.308594 95.46875v104.132812c0 52.71875 42.738281 95.457032 95.457031 95.457032 52.714844 0 95.453125-42.738282 95.453125-95.457032v-104.132812l-17.355469-8.675781h-156.199219zm0 0" fill="#fdc9a6"/><path d="m208.765625 260.347656c-7.367187.007813-14.632813-1.695312-21.226563-4.980468-4.289062-2.140626-6.03125-7.351563-3.890624-11.644532 2.136718-4.289062 7.351562-6.03125 11.640624-3.890625 8.484376 4.222657 18.457032 4.222657 26.945313 0 4.269531-2.175781 9.496094-.476562 11.667969 3.792969 2.175781 4.273438.476562 9.496094-3.792969 11.671875-.039063.019531-.078125.039063-.117187.058594-6.59375 3.289062-13.859376 5-21.226563 4.992187zm0 0" fill="#9a826a"/><path d="m301.964844 72.910156c18.695312-10.75 25.136718-34.621094 14.386718-53.316406-10.75-18.699219-34.621093-25.140625-53.316406-14.390625-6.539062 3.761719-11.851562 9.335937-15.289062 16.046875zm0 0" fill="#8d7761"/><path d="m217.441406 225.636719h-8.675781c-4.792969 0-8.679687-3.886719-8.679687-8.679688v-34.710937c0-4.789063 3.886718-8.675782 8.679687-8.675782s8.675781 3.886719 8.675781 8.675782v26.035156c4.792969 0 8.679688 3.886719 8.679688 8.675781 0 4.792969-3.886719 8.679688-8.679688 8.679688zm0 0" fill="#9a826a"/><path d="m113.308594 112.824219 16.351562 7.011719c28.15625 12.058593 60.199219 11.105468 87.589844-2.601563l43.582031-21.765625 43.386719 43.390625v-43.390625c0-47.921875-38.851562-86.773438-86.777344-86.773438h-8.675781c-52.71875 0-95.457031 42.734376-95.457031 95.453126zm0 0" fill="#9a826a"/><path d="m191.410156 182.246094c0 14.378906-11.65625 26.035156-26.035156 26.035156-14.375 0-26.03125-11.65625-26.03125-26.035156 0-14.375 11.65625-26.03125 26.03125-26.03125 14.378906 0 26.035156 11.65625 26.035156 26.03125zm0 0" fill="#8aced8"/><path d="m278.1875 182.246094c0 14.378906-11.65625 26.035156-26.035156 26.035156s-26.03125-11.65625-26.03125-26.035156c0-14.375 11.652344-26.03125 26.03125-26.03125s26.035156 11.65625 26.035156 26.03125zm0 0" fill="#8aced8"/><path d="m252.152344 381.835938v-43.390626l-43.386719 26.035157 43.386719 26.03125z" fill="#b9b9b9"/><path d="m165.375 338.445312 43.390625 26.035157-43.390625 26.03125zm0 0" fill="#b9b9b9"/><path d="m304.21875 173.570312h-18.585938c-4.707031-18.488281-23.511718-29.664062-42-24.957031-12.261718 3.121094-21.835937 12.695313-24.957031 24.957031h-19.820312c-4.707031-18.488281-23.511719-29.664062-42-24.957031-12.261719 3.121094-21.835938 12.695313-24.957031 24.957031h-18.589844c-4.792969 0-8.675782 3.886719-8.675782 8.675782 0 4.792968 3.882813 8.679687 8.675782 8.679687h18.589844c4.703124 18.488281 23.507812 29.664063 42 24.957031 12.261718-3.121093 21.835937-12.695312 24.957031-24.957031h19.820312c4.703125 18.488281 23.507813 29.664063 41.996094 24.957031 12.265625-3.121093 21.839844-12.695312 24.960937-24.957031h18.585938c4.792969 0 8.679688-3.886719 8.679688-8.679687 0-4.789063-3.886719-8.675782-8.679688-8.675782zm-138.84375 26.03125c-9.582031 0-17.355469-7.769531-17.355469-17.355468 0-9.582032 7.773438-17.355469 17.355469-17.355469 9.585938 0 17.355469 7.773437 17.355469 17.355469 0 9.585937-7.769531 17.355468-17.355469 17.355468zm86.777344 0c-9.585938 0-17.355469-7.769531-17.355469-17.355468 0-9.582032 7.769531-17.355469 17.355469-17.355469 9.585937 0 17.355468 7.773437 17.355468 17.355469 0 9.585937-7.769531 17.355468-17.355468 17.355468zm0 0" fill="#d970a2"/></svg>