<svg height="512pt" viewBox="-85 0 512 512.00048" width="512pt" xmlns="http://www.w3.org/2000/svg"><path d="m56.890625 322.371094h227.554687c31.417969 0 56.886719 25.46875 56.886719 56.886718v132.742188h-341.332031v-132.742188c0-31.417968 25.46875-56.886718 56.890625-56.886718zm0 0" fill="#fdc9a6"/><path d="m132.742188 256h75.851562v66.371094h-75.851562zm0 0" fill="#fdc9a6"/><g fill="#f6bb92"><path d="m132.742188 276.101562c8.527343 5.359376 18.371093 8.246094 28.445312 8.34375h18.960938c10.070312-.097656 19.917968-2.984374 28.445312-8.34375v-20.101562h-75.851562zm0 0"/><path d="m66.371094 189.628906h28.445312v-47.40625h-28.445312c-10.472656 0-18.964844 8.488282-18.964844 18.960938v9.484375c0 10.472656 8.492188 18.960937 18.964844 18.960937zm0 0"/><path d="m274.964844 189.628906h-28.445313v-47.40625h28.445313c10.472656 0 18.960937 8.488282 18.960937 18.960938v9.484375c0 10.472656-8.488281 18.960937-18.960937 18.960937zm0 0"/></g><path d="m161.1875 0h18.960938c41.890624 0 75.851562 33.960938 75.851562 75.851562v113.777344c0 41.890625-33.960938 75.851563-75.851562 75.851563h-18.960938c-41.894531 0-75.851562-33.960938-75.851562-75.851563v-113.777344c-.003907-41.890624 33.957031-75.851562 75.851562-75.851562zm0 0" fill="#fdc9a6"/><path d="m180.148438 0h-18.960938c-41.894531 0-75.851562 33.960938-75.851562 75.851562v66.371094l37.925781-47.40625 1.183593-7.699218h93.628907v7.699218l37.925781 47.40625v-66.371094c0-41.890624-33.960938-75.851562-75.851562-75.851562zm0 0" fill="#834b10"/><path d="m170.667969 199.109375h-9.484375c-5.234375 0-9.476563-4.25-9.472656-9.488281 0-1.015625.164062-2.023438.484374-2.988282l9.484376-28.445312c1.652343-4.972656 7.027343-7.664062 12.003906-6.007812 4.972656 1.652343 7.664062 7.027343 6.011718 12l-5.539062 16.613281c4.878906 1.898437 7.296875 7.390625 5.402344 12.273437-1.425782 3.664063-4.960938 6.066406-8.890625 6.042969zm0 0" fill="#834b10"/><path d="m274.964844 512 1.894531-4c10.113281-21.484375 10.113281-46.359375 0-67.839844l-1.894531-4.011718v-113.777344h-208.59375l.53125 94.8125v18.964844l-2.011719 4.011718c-10.675781 21.351563-10.675781 46.484375 0 67.839844l2 4zm0 0" fill="#ffb1b5"/><path d="m104.296875 322.371094v32.292968c-.011719 37.9375 22.597656 72.230469 57.46875 87.171876l8.902344 3.792968 8.902343-3.792968c34.871094-14.941407 57.476563-49.234376 57.46875-87.171876v-32.292968" fill="#fdc9a6"/><path d="m182.925781 391.519531-7.851562 7.851563c-1.597657 1.675781-3.070313 3.46875-4.40625 5.363281-1.335938-1.890625-2.8125-3.6875-4.410157-5.363281l-7.851562-7.851563c-3.765625-3.640625-9.769531-3.535156-13.40625.230469-3.546875 3.675781-3.546875 9.5 0 13.175781l7.851562 7.851563c5.351563 5.324218 8.351563 12.570312 8.335938 20.117187v8.621094c.199219.085937.378906.207031.578125.292969l8.902344 3.820312 8.902343-3.792968c.199219-.085938.378907-.207032.578126-.292969v-8.617188c-.019532-7.550781 2.980468-14.796875 8.335937-20.121093l7.851563-7.851563c3.636718-3.765625 3.53125-9.769531-.234376-13.40625-3.675781-3.546875-9.5-3.546875-13.175781 0zm0 0" fill="#fbbf95"/><path d="m180.148438 0h-18.960938c-41.894531 0-75.851562 33.960938-75.851562 75.851562v18.964844h170.664062v-18.964844c0-41.890624-33.960938-75.851562-75.851562-75.851562zm0 0" fill="#ffb1b5"/><path d="m104.296875 303.40625h28.445313c10.472656 0 18.960937 8.492188 18.960937 18.964844v9.480468c0 10.472657-8.488281 18.964844-18.960937 18.964844h-28.445313c-10.472656 0-18.964844-8.492187-18.964844-18.964844v-9.480468c0-10.472656 8.492188-18.964844 18.964844-18.964844zm0 0" fill="#b3e4e8"/><path d="m208.59375 303.40625h28.445312c10.472657 0 18.960938 8.492188 18.960938 18.964844v9.480468c0 10.472657-8.488281 18.964844-18.960938 18.964844h-28.445312c-10.472656 0-18.964844-8.492187-18.964844-18.964844v-9.480468c0-10.472656 8.492188-18.964844 18.964844-18.964844zm0 0" fill="#b3e4e8"/><path d="m170.667969 232.011719c-8.050781.003906-15.996094-1.863281-23.203125-5.453125-4.6875-2.339844-6.585938-8.035156-4.246094-12.722656s8.035156-6.589844 12.722656-4.246094c9.273438 4.617187 20.175782 4.617187 29.449219 0 4.6875-2.34375 10.386719-.441406 12.726563 4.246094 2.339843 4.6875.4375 10.382812-4.25 12.722656-7.207032 3.589844-15.148438 5.457031-23.199219 5.453125zm0 0" fill="#834b10"/><path d="m237.039062 293.925781h-28.445312c-13.292969.023438-24.796875 9.246094-27.707031 22.214844l-10.21875 5.109375-10.222657-5.109375c-2.910156-12.96875-14.414062-22.191406-27.703124-22.214844h-28.445313c-15.710937 0-28.445313 12.734375-28.445313 28.445313v9.480468c0 15.710938 12.734376 28.445313 28.445313 28.445313h28.445313c13.554687-.003906 25.226562-9.574219 27.882812-22.871094l5.804688 2.914063c2.667968 1.332031 5.808593 1.332031 8.476562 0l5.800781-2.914063c2.65625 13.296875 14.328125 22.867188 27.886719 22.871094h28.445312c15.707032 0 28.441407-12.734375 28.441407-28.445313v-9.480468c0-15.710938-12.734375-28.445313-28.441407-28.445313zm-94.816406 37.925781c0 5.238282-4.246094 9.480469-9.480468 9.480469h-28.445313c-5.238281 0-9.484375-4.242187-9.484375-9.480469v-9.480468c0-5.238282 4.246094-9.480469 9.484375-9.480469h28.445313c5.234374 0 9.480468 4.242187 9.480468 9.480469zm104.296875 0c0 5.238282-4.246093 9.480469-9.480469 9.480469h-28.445312c-5.238281 0-9.484375-4.242187-9.484375-9.480469v-9.480468c0-5.238282 4.246094-9.480469 9.484375-9.480469h28.445312c5.234376 0 9.480469 4.242187 9.480469 9.480469zm0 0" fill="#69b0bb"/><path d="m123.257812 170.667969c-5.234374 0-9.480468-4.246094-9.480468-9.484375v-9.480469c0-5.234375 4.246094-9.480469 9.480468-9.480469 5.238282 0 9.484376 4.246094 9.484376 9.480469v9.480469c0 5.238281-4.246094 9.484375-9.484376 9.484375zm0 0" fill="#834b10"/><path d="m218.074219 170.667969c-5.234375 0-9.480469-4.246094-9.480469-9.484375v-9.480469c0-5.234375 4.246094-9.480469 9.480469-9.480469 5.238281 0 9.480469 4.246094 9.480469 9.480469v9.480469c0 5.238281-4.242188 9.484375-9.480469 9.484375zm0 0" fill="#834b10"/></svg>