<svg height="512pt" viewBox="-44 0 512 512.00036" width="512pt" xmlns="http://www.w3.org/2000/svg"><path d="m423.707031 512h-423.707031v-61.789062c0-43.878907 35.570312-79.445313 79.445312-79.445313h88.273438l44.136719 8.824219 44.136719-8.824219h88.273437c43.875 0 79.445313 35.566406 79.445313 79.445313v61.789062zm0 0" fill="#cfcfcf"/><path d="m423.707031 450.210938c0-43.878907-35.566406-79.445313-79.445312-79.445313h-88.269531l-44.136719 8.824219-44.136719-8.824219h-44.136719l-44.136719 61.789063v79.445312h344.261719zm0 0" fill="#d9d9d9"/><path d="m255.992188 317.800781v52.964844l-44.136719 70.617187-44.136719-70.617187v-52.964844zm0 0" fill="#fdc9a6"/><g fill="#f6bb92"><path d="m167.71875 342.429688c27.699219 14.238281 60.570312 14.238281 88.273438 0v-24.628907h-88.273438zm0 0"/><path d="m326.609375 256.011719h-26.484375v-44.136719h26.484375c9.75 0 17.652344 7.902344 17.652344 17.652344v8.828125c0 9.75-7.902344 17.65625-17.652344 17.65625zm0 0"/><path d="m97.101562 256.011719h35.308594v-44.136719h-35.308594c-9.75 0-17.65625 7.902344-17.65625 17.652344v8.828125c0 9.75 7.90625 17.65625 17.65625 17.65625zm0 0"/></g><path d="m114.753906 132.429688v105.925781c0 53.625 43.472656 97.101562 97.101563 97.101562 53.625 0 97.097656-43.476562 97.097656-97.101562v-105.925781zm0 0" fill="#fdc9a6"/><path d="m167.71875 239.148438c-4.875 0-8.828125-3.949219-8.828125-8.824219v-9.625c0-4.875 3.953125-8.824219 8.828125-8.824219s8.828125 3.949219 8.828125 8.824219v9.625c0 4.875-3.953125 8.824219-8.828125 8.824219zm0 0" fill="#8f563b"/><path d="m255.992188 239.148438c-4.875 0-8.828126-3.949219-8.828126-8.824219v-9.625c0-4.875 3.953126-8.824219 8.828126-8.824219s8.824218 3.949219 8.824218 8.824219v9.625c0 4.875-3.949218 8.824219-8.824218 8.824219zm0 0" fill="#8f563b"/><path d="m0 476.691406h79.445312v35.308594h-79.445312zm0 0" fill="#fdc9a6"/><path d="m353.089844 476.691406h70.617187v35.308594h-70.617187zm0 0" fill="#fdc9a6"/><path d="m211.855469 264.835938c-2.199219 0-4.316407-.816407-5.941407-2.292969l-8.828124-8.035157c-2.886719-2.621093-3.707032-6.828124-2.023438-10.34375l8.828125-18.449218c2.363281-4.265625 7.734375-5.808594 12-3.445313 3.917969 2.167969 5.589844 6.925781 3.890625 11.070313l-5.996094 12.527344 3.972656 3.609374c3.609376 3.28125 3.875 8.863282.597657 12.46875-1.667969 1.835938-4.023438 2.882813-6.5 2.890626zm0 0" fill="#8f563b"/><path d="m211.855469 295.933594c-7.351563.003906-14.617188-1.570313-21.308594-4.613282-4.394531-2.121093-6.234375-7.394531-4.117187-11.785156 2.050781-4.253906 7.085937-6.140625 11.425781-4.28125 8.890625 4.050782 19.105469 4.050782 28 0 4.480469-1.917968 9.667969.160156 11.585937 4.640625 1.859375 4.339844-.027344 9.375-4.277344 11.425781-6.691406 3.042969-13.957031 4.617188-21.308593 4.613282zm0 0" fill="#8f563b"/><path d="m308.449219 132.429688c.335937 3.265624.503906 31.953124.503906 35.308593v17.652344l-16.628906 8.828125c-27.507813 17.65625-61.234375 13.9375-89.101563 0l-44.332031-17.652344-44.136719 35.308594v-79.445312zm0 0" fill="#8f563b"/><path d="m123.582031 441.382812c0 4.875-3.953125 8.828126-8.828125 8.828126s-8.828125-3.953126-8.828125-8.828126 3.953125-8.828124 8.828125-8.828124 8.828125 3.953124 8.828125 8.828124zm0 0" fill="#b9b9b9"/><path d="m123.582031 476.691406c0 4.875-3.953125 8.828125-8.828125 8.828125s-8.828125-3.953125-8.828125-8.828125 3.953125-8.828125 8.828125-8.828125 8.828125 3.953125 8.828125 8.828125zm0 0" fill="#b9b9b9"/><path d="m228.097656 451.269531 19.066406 25.421875-34.207031-17.097656-18.757812-9.382812-17.652344-8.828126-52.964844-70.617187h44.136719l44.136719 58.851563zm0 0" fill="#1f6c8c"/><path d="m176.546875 476.691406 70.617187-35.308594 52.960938-70.617187h-44.132812zm0 0" fill="#3b869e"/><path d="m326.609375 57.398438c.042969-21.894532-17.671875-39.679688-39.566406-39.722657-12.796875-.023437-24.816407 6.128907-32.28125 16.523438-5.429688-23.699219-29.042969-38.507813-52.742188-33.078125-16.453125 3.773437-29.304687 16.621094-33.074219 33.078125-12.824218-17.765625-37.621093-21.769531-55.382812-8.945313-17.765625 12.820313-21.769531 37.617188-8.949219 55.382813 2.769531 3.835937 6.203125 7.144531 10.140625 9.773437v50.84375h194.199219v-50.84375c11.035156-7.359375 17.660156-19.75 17.65625-33.011718zm0 0" fill="#d9d9d9"/><path d="m229.507812 114.773438h-114.753906c-4.875 0-8.828125-3.953126-8.828125-8.828126s3.953125-8.828124 8.828125-8.828124h114.753906c4.875 0 8.828126 3.953124 8.828126 8.828124s-3.953126 8.828126-8.828126 8.828126zm0 0" fill="#cdcdcd"/><path d="m308.953125 114.773438h-26.480469c-4.875 0-8.828125-3.953126-8.828125-8.828126s3.953125-8.828124 8.828125-8.828124h26.480469c4.875 0 8.828125 3.953124 8.828125 8.828124s-3.953125 8.828126-8.828125 8.828126zm0 0" fill="#cdcdcd"/></svg>