<svg height="512pt" viewBox="-44 0 512 512.00039" width="512pt" xmlns="http://www.w3.org/2000/svg"><path d="m256 326.621094h97.105469c39 0 70.617187 31.617187 70.617187 70.621094v114.757812h-423.722656v-114.757812c0-39.003907 31.617188-70.621094 70.621094-70.621094zm0 0" fill="#d9d9d9"/><path d="m70.621094 326.621094h282.484375v185.378906h-282.484375zm0 0" fill="#62666a"/><path d="m247.171875 326.621094h8.828125l-44.136719 61.792968-44.140625-61.792968h8.828125v-52.964844h70.621094zm0 0" fill="#fdc9a6"/><path d="m176.550781 301.566406c22.507813 9.863282 48.113281 9.863282 70.621094 0v-27.910156h-70.621094zm0 0" fill="#f6bb92"/><path d="m322.207031 211.863281h-30.898437v-44.140625h30.898437c12.1875 0 22.070313 9.882813 22.070313 22.070313s-9.882813 22.070312-22.070313 22.070312zm0 0" fill="#f6bb92"/><path d="m101.515625 211.863281h39.726563v-44.140625h-39.726563c-12.1875 0-22.066406 9.882813-22.066406 22.070313s9.878906 22.070312 22.066406 22.070312zm0 0" fill="#f6bb92"/><g fill="#fdc9a6"><path d="m353.105469 459.035156h70.617187v52.964844h-70.617187zm0 0"/><path d="m0 459.035156h70.621094v52.964844h-70.621094zm0 0"/><path d="m123.585938 114.757812v88.277344c0 48.753906 39.523437 88.277344 88.277343 88.277344 48.753907 0 88.273438-39.523438 88.273438-88.277344v-88.277344zm0 0"/><path d="m123.585938 97.101562v105.933594c0 48.753906 39.523437 88.277344 88.277343 88.277344 48.753907 0 88.273438-39.523438 88.273438-88.277344v-105.933594zm0 0"/></g><path d="m167.722656 194.207031c-4.875 0-8.828125-3.953125-8.828125-8.828125v-8.828125c0-4.875 3.953125-8.828125 8.828125-8.828125s8.828125 3.953125 8.828125 8.828125v8.828125c0 4.875-3.953125 8.828125-8.828125 8.828125zm0 0" fill="#8d7761"/><path d="m256 194.207031c-4.875 0-8.828125-3.953125-8.828125-8.828125v-8.828125c0-4.875 3.953125-8.828125 8.828125-8.828125s8.828125 3.953125 8.828125 8.828125v8.828125c0 4.875-3.953125 8.828125-8.828125 8.828125zm0 0" fill="#8d7761"/><path d="m220.691406 211.863281h-8.828125c-4.875 0-8.828125-3.953125-8.828125-8.828125v-17.65625c0-4.875 3.953125-8.828125 8.828125-8.828125s8.828125 3.953125 8.828125 8.828125v8.828125c4.875 0 8.828125 3.953125 8.828125 8.828125s-3.953125 8.828125-8.828125 8.828125zm0 0" fill="#8d7761"/><path d="m211.863281 251.3125c-7.492187.007812-14.886719-1.730469-21.59375-5.066406-4.363281-2.175782-6.136719-7.480469-3.957031-11.84375 2.175781-4.363282 7.476562-6.132813 11.839844-3.957032 8.632812 4.296876 18.78125 4.296876 27.410156 0 4.363281-2.179687 9.667969-.410156 11.847656 3.953126 2.179688 4.363281.410156 9.667968-3.953125 11.847656-6.710937 3.335937-14.101562 5.070312-21.59375 5.066406zm0 0" fill="#8d7761"/><path d="m264.828125 450.207031h61.792969v17.65625h-61.792969zm0 0" fill="#ebebeb"/><path d="m264.828125 141.242188 35.308594 26.480468v-61.792968h-35.308594zm0 0" fill="#8d7761"/><path d="m158.898438 141.242188-35.3125 26.480468v-61.792968h35.3125zm0 0" fill="#8d7761"/><path d="m300.136719 114.757812h-176.550781v-52.964843c0-14.625 11.859374-26.484375 26.484374-26.484375 0-19.5 15.808594-35.308594 35.308594-35.308594h52.964844c19.503906 0 35.3125 15.808594 35.3125 35.308594 14.625 0 26.480469 11.859375 26.480469 26.484375zm0 0" fill="#8d7761"/><path d="m220.691406 114.757812v-44.136718c0-4.875-3.953125-8.828125-8.828125-8.828125s-8.828125 3.953125-8.828125 8.828125v44.136718zm0 0" fill="#9a826a"/><path d="m185.378906 88.277344c0-4.875-3.953125-8.828125-8.828125-8.828125s-8.828125 3.953125-8.828125 8.828125v26.480468h17.65625zm0 0" fill="#9a826a"/><path d="m256 88.277344c0-4.875-3.953125-8.828125-8.828125-8.828125s-8.828125 3.953125-8.828125 8.828125v26.480468h17.65625zm0 0" fill="#9a826a"/><path d="m211.863281 441.378906 26.480469-44.136718-26.480469-8.828126-26.484375 8.828126zm0 0" fill="#b94137"/><path d="m203.035156 467.863281h17.65625v17.652344h-17.65625zm0 0" fill="#a8a8a8"/><path d="m176.550781 326.621094h-17.652343v79.449218l52.964843-17.65625zm0 0" fill="#d9d9d9"/><path d="m247.171875 326.621094-35.308594 61.792968 52.964844 17.65625v-79.449218zm0 0" fill="#d9d9d9"/></svg>