<svg height="511pt" viewBox="-44 1 511 511.99995" width="511pt" xmlns="http://www.w3.org/2000/svg"><path d="m97.601562 335.449219h229.519532c53.628906 0 97.101562 43.472656 97.101562 97.101562v79.449219h-423.722656v-79.449219c0-53.628906 43.472656-97.101562 97.101562-97.101562zm0 0" fill="#85bc94"/><path d="m168.222656 273.65625h88.277344v70.621094h-88.277344zm0 0" fill="#fdc9a6"/><path d="m124.085938 512v-114.757812l44.136718-61.792969h158.898438c53.628906 0 97.101562 43.472656 97.101562 97.101562v79.449219z" fill="#8dc79d"/><path d="m150.570312 467.863281h17.652344v17.652344h-17.652344zm0 0" fill="#6b9777"/><path d="m150.570312 432.550781h17.652344v17.65625h-17.652344zm0 0" fill="#6b9777"/><path d="m.5 476.691406h70.621094v35.308594h-70.621094zm0 0" fill="#fdc9a6"/><path d="m353.601562 476.691406h70.621094v35.308594h-70.621094zm0 0" fill="#fdc9a6"/><path d="m362.429688 512v-59.832031c.980468-4.875-2.175782-9.625-7.050782-10.601563-4.875-.980468-9.625 2.175782-10.601562 7.050782-.238282 1.171874-.238282 2.378906 0 3.550781v59.832031zm0 0" fill="#6b9777"/><path d="m79.949219 512v-59.832031c.484375-5.402344-3.441407-10.195313-8.828125-10.789063-5.390625.59375-9.3125 5.386719-8.828125 10.789063v59.832031zm0 0" fill="#6b9777"/><path d="m256.5 273.65625h-88.277344v18.617188c12.207032 5.628906 25.539063 8.382812 38.976563 8.050781l17.652343-.460938c10.878907-.285156 21.609376-2.585937 31.648438-6.789062zm0 0" fill="#f6bb92"/><path d="m203.535156 0h17.65625c48.75 0 88.273438 39.523438 88.273438 88.277344v105.929687c0 48.753907-39.523438 88.277344-88.273438 88.277344h-17.65625c-48.753906 0-88.277344-39.523437-88.277344-88.277344v-105.929687c0-48.753906 39.523438-88.277344 88.277344-88.277344zm0 0" fill="#8dc79d"/><path d="m302.066406 52.964844h-63.222656c-4.875 0-8.828125 3.953125-8.828125 8.828125s3.953125 8.828125 8.828125 8.828125h68.855469c-1.246094-6.070313-3.132813-11.988282-5.632813-17.65625zm0 0" fill="#3b869e"/><path d="m185.878906 52.964844h-63.222656c-2.496094 5.667968-4.378906 11.585937-5.625 17.65625h68.847656c4.875 0 8.828125-3.953125 8.828125-8.828125s-3.953125-8.828125-8.828125-8.828125zm0 0" fill="#3b869e"/><path d="m238.84375 61.792969c0 14.625-11.855469 26.484375-26.480469 26.484375-14.628906 0-26.484375-11.859375-26.484375-26.484375s11.855469-26.484375 26.484375-26.484375c14.625 0 26.480469 11.859375 26.480469 26.484375zm0 0" fill="#f7ba61"/><path d="m212.363281 97.101562c-19.503906 0-35.3125-15.808593-35.3125-35.308593s15.808594-35.308594 35.3125-35.308594c19.5 0 35.308594 15.808594 35.308594 35.308594s-15.808594 35.308593-35.308594 35.308593zm0-52.964843c-9.753906 0-17.65625 7.90625-17.65625 17.65625s7.902344 17.65625 17.65625 17.65625c9.75 0 17.652344-7.90625 17.652344-17.65625s-7.902344-17.65625-17.652344-17.65625zm0 0" fill="#5d9aa4"/><path d="m327.121094 176.550781h-26.484375v-44.136719h26.484375c9.75 0 17.65625 7.902344 17.65625 17.65625v8.828126c0 9.75-7.90625 17.652343-17.65625 17.652343zm0 0" fill="#f6bb92"/><path d="m97.601562 176.550781h35.3125v-44.136719h-35.3125c-9.75 0-17.652343 7.902344-17.652343 17.65625v8.828126c0 9.75 7.902343 17.652343 17.652343 17.652343zm0 0" fill="#f6bb92"/><path d="m115.257812 114.757812h194.207032v70.621094h-194.207032zm0 0" fill="#fdc9a6"/><g fill="#834b10"><path d="m168.222656 167.722656c-4.875 0-8.828125-3.949218-8.828125-8.824218v-8.828126c0-4.875 3.953125-8.828124 8.828125-8.828124s8.828125 3.953124 8.828125 8.828124v8.828126c0 4.875-3.953125 8.824218-8.828125 8.824218zm0 0"/><path d="m256.5 167.722656c-4.875 0-8.828125-3.949218-8.828125-8.824218v-8.828126c0-4.875 3.953125-8.828124 8.828125-8.828124s8.828125 3.953124 8.828125 8.828124v8.828126c0 4.875-3.953125 8.824218-8.828125 8.824218zm0 0"/></g></svg>