<svg height="512pt" viewBox="-17 0 512 512.00042" width="512pt" xmlns="http://www.w3.org/2000/svg"><path d="m364.476562 347.117188h-242.984374v-242.175782l52.066406-72.652344 69.425781-32.289062 69.421875 32.289062 52.070312 72.652344zm0 0" fill="#787d82"/><path d="m399.1875 164.882812h-78.101562c-4.792969 0-8.679688-3.886718-8.679688-8.679687s3.886719-8.679687 8.679688-8.679687h78.101562c4.792969 0 8.675781 3.886718 8.675781 8.679687s-3.882812 8.679687-8.675781 8.679687zm0 0" fill="#c7463b"/><path d="m156.203125 216.949219h173.558594v112.8125h-173.558594zm0 0" fill="#6f7478"/><g fill="#b3e4e8"><path d="m442.578125 26.035156h17.355469v17.355469h-17.355469zm0 0"/><path d="m442.578125 60.746094h17.355469v17.355468h-17.355469zm0 0"/><path d="m425.21875 43.390625h17.359375v17.355469h-17.359375zm0 0"/><path d="m459.933594 43.390625h17.355468v17.355469h-17.355468zm0 0"/></g><path d="m26.035156 156.203125h17.355469v17.355469h-17.355469zm0 0" fill="#f7ba61"/><path d="m26.035156 208.269531h17.355469v17.355469h-17.355469zm0 0" fill="#f7ba61"/><path d="m0 182.238281h17.355469v17.355469h-17.355469zm0 0" fill="#f7ba61"/><path d="m52.066406 182.238281h17.355469v17.355469h-17.355469zm0 0" fill="#f7ba61"/><path d="m286.375 329.761719h95.457031c38.339844 0 69.421875 31.082031 69.421875 69.425781v112.8125h-416.542968v-112.8125c0-38.34375 31.082031-69.425781 69.425781-69.425781zm0 0" fill="#787d82"/><path d="m156.203125 329.761719h173.558594v182.238281h-173.558594zm0 0" fill="#3b869e"/><path d="m104.136719 416.542969c-4.792969 0-8.679688 3.886719-8.679688 8.675781v86.78125h17.355469v-86.78125c0-4.792969-3.882812-8.675781-8.675781-8.675781zm0 0" fill="#6f7478"/><path d="m381.832031 416.542969c-4.792969 0-8.679687 3.886719-8.679687 8.675781v86.78125h17.355468v-86.78125c0-4.792969-3.882812-8.675781-8.675781-8.675781zm0 0" fill="#6f7478"/><path d="m277.695312 329.761719v-43.390625h-69.421874v43.390625h-17.359376l4.460938 11.160156c10.523438 26.292969 40.367188 39.078125 66.660156 28.554687 13.023438-5.210937 23.34375-15.53125 28.554688-28.554687l4.460937-11.160156zm0 0" fill="#fdc9a6"/><path d="m242.984375 451.75c-9.257813 0-18.285156-2.890625-25.816406-8.269531-27.34375-19.570313-43.574219-51.117188-43.609375-84.742188v-28.976562c0-4.792969 3.886718-8.675781 8.679687-8.675781s8.679688 3.882812 8.679688 8.675781v28.976562c.019531 28.019531 13.550781 54.308594 36.339843 70.613281 9.40625 6.71875 22.042969 6.71875 31.449219 0 22.789063-16.304687 36.316407-42.59375 36.34375-70.613281v-28.976562c0-4.792969 3.886719-8.675781 8.679688-8.675781s8.679687 3.882812 8.679687 8.675781v28.976562c-.046875 33.609375-16.277344 65.144531-43.609375 84.707031-7.53125 5.390626-16.554687 8.296876-25.816406 8.304688zm0 0" fill="#d18d28"/><path d="m269.015625 451.253906c0 14.378906-11.652344 26.035156-26.03125 26.035156s-26.035156-11.65625-26.035156-26.035156 11.65625-26.035156 26.035156-26.035156 26.03125 11.65625 26.03125 26.035156zm0 0" fill="#fbb540"/><path d="m208.273438 306.503906c8.417968 3.867188 17.574218 5.882813 26.839843 5.902344h15.742188c9.265625-.019531 18.417969-2.035156 26.839843-5.902344v-20.128906h-69.421874zm0 0" fill="#f6bb92"/><path d="m342.78125 216.949219h-30.375v-43.390625h30.375c11.980469 0 21.691406 9.714844 21.691406 21.695312.003906 11.980469-9.710937 21.695313-21.691406 21.695313zm0 0" fill="#f6bb92"/><path d="m143.1875 216.949219h30.371094v-43.390625h-30.371094c-11.984375 0-21.695312 9.714844-21.695312 21.695312 0 11.980469 9.710937 21.695313 21.695312 21.695313zm0 0" fill="#f6bb92"/><path d="m156.203125 156.203125 13.703125 82.1875c2.378906 14.273437 9.15625 27.449219 19.386719 37.679687 12.152343 12.152344 28.632812 18.976563 45.820312 18.980469h15.742188c17.183593-.003906 33.664062-6.828125 45.816406-18.980469 10.234375-10.230468 17.011719-23.40625 19.386719-37.679687l13.703125-82.1875-8.679688-8.679687h-156.199219zm0 0" fill="#fdc9a6"/><path d="m242.984375 225.628906c-2.300781-.003906-4.507813-.917968-6.136719-2.542968l-8.675781-8.679688c-2.328125-2.324219-3.140625-5.757812-2.101563-8.878906l8.675782-26.03125c1.515625-4.554688 6.433594-7.019532 10.988281-5.503906 4.554687 1.515624 7.015625 6.433593 5.5 10.988281l-6.941406 20.949219 4.886719 4.882812c3.386718 3.390625 3.386718 8.882812 0 12.273438-1.644532 1.640624-3.875 2.558593-6.195313 2.542968zm0 0" fill="#985713"/><path d="m242.984375 255.738281c-7.367187.007813-14.636719-1.699219-21.226563-4.988281-4.289062-2.140625-6.03125-7.351562-3.890624-11.640625 2.136718-4.289063 7.351562-6.03125 11.640624-3.894531 8.484376 4.21875 18.457032 4.21875 26.945313 0 4.269531-2.175782 9.496094-.476563 11.671875 3.792968 2.175781 4.273438.476562 9.496094-3.792969 11.671876-.042969.023437-.082031.042968-.121093.0625-6.59375 3.289062-13.859376 5-21.226563 4.996093zm0 0" fill="#985713"/><path d="m260.339844 190.914062h-34.710938c-4.792968 0-8.679687-3.882812-8.679687-8.675781s3.886719-8.679687 8.679687-8.679687h34.710938c4.792968 0 8.675781 3.886718 8.675781 8.679687s-3.882813 8.675781-8.675781 8.675781zm0 0" fill="#cdcdcd"/><path d="m156.203125 156.203125h69.425781v26.035156c0 14.378907-11.65625 26.03125-26.035156 26.03125h-17.355469c-14.378906 0-26.035156-11.652343-26.035156-26.03125zm0 0" fill="#b9b9b9"/><path d="m260.339844 156.203125h69.421875v26.035156c0 14.378907-11.65625 26.03125-26.03125 26.03125h-17.355469c-14.378906 0-26.035156-11.652343-26.035156-26.03125zm0 0" fill="#b9b9b9"/><path d="m329.761719 156.203125h-173.558594v-13.882813c0-18.292968 9.597656-35.238281 25.28125-44.648437l61.5-45.605469 61.5 45.578125c15.691406 9.414063 25.289063 26.375 25.277344 44.675781zm0 0" fill="#dc4d41"/><path d="m260.339844 130.167969h-34.710938c-4.792968 0-8.679687-3.882813-8.679687-8.675781 0-4.792969 3.886719-8.679688 8.679687-8.679688h34.710938c4.792968 0 8.675781 3.886719 8.675781 8.679688 0 4.792968-3.882813 8.675781-8.675781 8.675781zm0 0" fill="#787d82"/></svg>