<svg height="511pt" viewBox="-80 0 511 511.99991" width="511pt" xmlns="http://www.w3.org/2000/svg"><path d="m294.109375 44.703125 17.917969 5.214844c10.652344 3.09375 18.128906 12.660156 18.558594 23.746093.703124 13.585938-9.738282 25.171876-23.324219 25.878907-.945313.046875-1.894531.042969-2.839844-.015625l-23-.132813-10.394531-42.007812zm0 0" fill="#ea6b65"/><path d="m244.375 27.128906 3.160156-10.429687c2.808594-10.191407 12.265625-17.101563 22.824219-16.6796878h.222656c11.789063 1.0117188 21.445313 9.7890628 23.578125 21.4257808l6.375 34.898438-23.082031 12.683594zm0 0" fill="#ea6b65"/><path d="m351.652344 512h-351.152344v-122.902344c0-29.089844 23.582031-52.675781 52.671875-52.675781h245.808594c29.089843 0 52.671875 23.585937 52.671875 52.675781zm0 0" fill="#60a0aa"/><path d="m351.652344 512h-351.152344v-122.902344c0-29.089844 23.582031-52.675781 52.671875-52.675781h245.808594c29.089843 0 52.671875 23.585937 52.671875 52.675781zm0 0" fill="#60a0aa"/><path d="m88.289062 336.421875 13.921876 34.808594c14.03125 35.082031 33.738281 67.617187 58.328124 96.304687l15.539063 18.128906c40.332031-40.339843 70.03125-90.054687 86.425781-144.695312l1.359375-4.546875" fill="#f7ba61"/><path d="m69.273438 507.011719c-.136719-.914063-.417969-1.804688-.835938-2.632813-8.601562-17.308594-8.601562-37.652344 0-54.964844l1.855469-3.710937c.613281-1.222656.933593-2.566406.929687-3.933594l-.105468-35.167969c-.03125-4.828124-3.953126-8.726562-8.78125-8.726562-4.847657 0-8.777344 3.929688-8.777344 8.777344v.054687l.105468 32.988281-.929687 1.863282c-10.835937 21.796875-11.066406 47.359375-.632813 69.351562l.191407 1.089844h17.753906zm0 0" fill="#5d9aa4"/><path d="m282.925781 507.011719c.136719-.914063.417969-1.804688.832031-2.632813 8.605469-17.308594 8.605469-37.652344 0-54.964844l-1.851562-3.710937c-.617188-1.222656-.933594-2.566406-.929688-3.933594l.105469-35.167969c.027344-4.828124 3.949219-8.726562 8.777344-8.726562h.042969c4.847656.023438 8.761718 3.972656 8.734375 8.824219v.007812l-.105469 32.992188.933594 1.859375c10.832031 21.796875 11.066406 47.359375.628906 69.351562l-.164062 1.089844h-17.742188zm0 0" fill="#5d9aa4"/><path d="m176.078125 397.875c-4.851563 0-8.78125-3.929688-8.78125-8.777344v-43.894531c0-4.847656 3.929687-8.78125 8.78125-8.78125 4.847656 0 8.777344 3.933594 8.777344 8.78125v43.894531c0 4.847656-3.929688 8.777344-8.777344 8.777344zm0 0" fill="#f3af3e"/><path d="m293.246094 242.726562c2.535156 8.863282 5.730468 17.527344 9.554687 25.914063 5.921875 13.832031 6.5625 29.351563 1.808594 43.625l-8.058594 24.15625h-94.136719v-61.449219l17.554688-8.78125 26.339844-43.894531 8.777344-122.902344 35.117187 8.777344v110.867187c0 7.996094 1.023437 15.953126 3.042969 23.6875zm0 0" fill="#62666a"/><path d="m263.863281 213.519531h-17.554687v-43.894531h17.554687c9.699219 0 17.558594 7.859375 17.558594 17.558594v8.777344c0 9.699218-7.859375 17.558593-17.558594 17.558593zm0 0" fill="#f6bb92"/><path d="m58.90625 242.726562c-2.535156 8.863282-5.726562 17.527344-9.550781 25.914063-5.921875 13.832031-6.566407 29.351563-1.808594 43.625l8.058594 24.15625h94.132812v-61.449219l-26.335937-17.558594-8.777344-35.117187-17.558594-122.902344-35.113281 8.777344v110.871094c-.003906 7.992187-1.027344 15.949219-3.046875 23.683593zm0 0" fill="#62666a"/><path d="m88.289062 213.519531h17.558594v-43.894531h-17.558594c-9.699218 0-17.558593 7.859375-17.558593 17.558594v8.777344c0 9.699218 7.859375 17.558593 17.558593 17.558593zm0 0" fill="#f6bb92"/><path d="m149.738281 274.972656h52.675781v70.230469h-52.675781zm0 0" fill="#fdc9a6"/><path d="m202.414062 274.972656h-52.675781v24.035156c5.734375 1.503907 11.632813 2.277344 17.558594 2.300782h17.558594c5.925781-.023438 11.824219-.796875 17.558593-2.300782zm0 0" fill="#f6bb92"/><path d="m97.066406 152.066406v61.453125c0 38.789063 31.445313 70.230469 70.230469 70.230469h17.558594c38.789062 0 70.230469-31.445312 70.230469-70.230469v-61.453125l-43.894532-17.558594-35.113281-43.890624-35.117187 43.890624zm0 0" fill="#fdc9a6"/><g fill="#62666a"><path d="m173.871094 257.414062c-6.804688.003907-13.523438-1.570312-19.617188-4.601562l-1.890625-.957031c-4.394531-2.046875-6.292969-7.269531-4.246093-11.664063 2.050781-4.394531 7.273437-6.296875 11.667968-4.246094.160156.074219.324219.15625.480469.242188l1.851563.9375c7.414062 3.664062 16.113281 3.664062 23.527343 0l1.816407-.921875c4.261718-2.3125 9.589843-.734375 11.90625 3.523437 2.316406 4.261719.738281 9.589844-3.523438 11.90625-.15625.085938-.316406.164063-.480469.242188l-1.851562.9375c-6.105469 3.027344-12.824219 4.601562-19.640625 4.601562zm0 0"/><path d="m173.882812 222.296875c-2.328124 0-4.5625-.925781-6.207031-2.570313l-8.78125-8.78125c-2.671875-2.667968-3.335937-6.75-1.648437-10.128906l8.777344-17.558594c2.167968-4.339843 7.445312-6.097656 11.78125-3.933593 4.339843 2.167969 6.101562 7.441406 3.933593 11.78125l-5.949219 11.878906 4.300782 4.300781c3.441406 3.414063 3.464844 8.972656.050781 12.417969-1.65625 1.667969-3.910156 2.601563-6.257813 2.59375zm0 0"/><path d="m211.191406 195.960938c-4.847656 0-8.777344-3.929688-8.777344-8.777344v-8.78125c0-4.847656 3.929688-8.777344 8.777344-8.777344s8.78125 3.929688 8.78125 8.777344v8.78125c-.003906 4.847656-3.933594 8.777344-8.78125 8.777344zm0 0"/><path d="m132.183594 195.960938c-4.851563 0-8.78125-3.929688-8.78125-8.777344v-8.78125c0-4.847656 3.929687-8.777344 8.78125-8.777344 4.847656 0 8.777344 3.929688 8.777344 8.777344v8.78125c0 4.847656-3.929688 8.777344-8.777344 8.777344zm0 0"/><path d="m167.296875 2.828125h17.558594c58.179687 0 105.347656 47.164063 105.347656 105.34375h-228.25c0-58.179687 47.164063-105.34375 105.34375-105.34375zm0 0"/><path d="m97.066406 64.277344h158.019532v87.789062h-27.019532c-10.664062 0-20.746094-4.84375-27.410156-13.167968l-24.578125-30.726563-24.582031 30.726563c-6.664063 8.324218-16.746094 13.167968-27.40625 13.167968h-27.023438zm0 0"/></g><path d="m132.183594 318.867188 43.894531 26.335937-43.894531 26.335937zm0 0" fill="#1a6c85"/><path d="m219.96875 362.761719v-43.894531l-43.890625 26.335937 43.890625 26.335937z" fill="#1a6c85"/><path d="m306.152344 52.910156c0 9.695313-7.859375 17.558594-17.558594 17.558594-9.695312 0-17.554688-7.863281-17.554688-17.558594 0-9.695312 7.859376-17.558594 17.554688-17.558594 9.699219 0 17.558594 7.863282 17.558594 17.558594zm0 0" fill="#f7ba61"/></svg>