<svg height="511pt" viewBox="-44 1 511 511.99955" width="511pt" xmlns="http://www.w3.org/2000/svg"><path d="m309.257812 105.75v17.625h-193.871093v-17.625l-18.222657-72.898438c-3.542968-14.164062 5.066407-28.519531 19.230469-32.0625 2.097657-.523437 4.25-.789062 6.410157-.789062h179.035156c14.601562 0 26.433594 11.839844 26.433594 26.441406 0 2.160156-.265626 4.3125-.789063 6.410156zm0 0" fill="#ebebeb"/><path d="m98.132812 334.394531c-53.523437-.203125-97.082031 43.007813-97.308593 96.53125l-.324219 79.3125 422.996094 1.761719.332031-79.3125c.226563-53.535156-42.992187-97.117188-96.527344-97.339844-.015625 0-.03125 0-.046875 0zm0 0" fill="#ebebeb"/><path d="m203.511719 449.433594h17.625v17.621094h-17.625zm0 0" fill="#cbcbcb"/><path d="m203.511719 414.183594h17.625v17.625h-17.625zm0 0" fill="#cbcbcb"/><path d="m.824219 475.867188h79.3125v35.25h-79.3125zm0 0" fill="#fdc9a6"/><path d="m353.320312 475.867188h70.5v35.25h-70.5zm0 0" fill="#fdc9a6"/><path d="m238.761719 449.433594h17.625v35.246094h-17.625zm0 0" fill="#cbcbcb"/><path d="m300.445312 449.433594h17.625v35.246094h-17.625zm0 0" fill="#cbcbcb"/><path d="m247.574219 458.246094h61.683593v17.621094h-61.683593zm0 0" fill="#cbcbcb"/><path d="m238.761719 44.0625h-17.625v-17.625h-17.625v17.625h-17.625v17.625h17.625v17.625h17.625v-17.625h17.625zm0 0" fill="#ea6b65"/><path d="m256.386719 290.808594v70.5l-44.0625 17.625-44.0625-17.625v-70.5zm0 0" fill="#fdc9a6"/><path d="m168.261719 315.394531c27.652343 14.21875 60.46875 14.21875 88.125 0v-24.585937h-88.125zm0 0" fill="#f6bb92"/><path d="m96.878906 507.179688-1.859375-3.71875c-8.640625-17.378907-8.640625-37.796876 0-55.175782l1.859375-3.71875c.597656-1.230468.898438-2.582031.882813-3.945312v-26.4375c0-4.867188-3.945313-8.8125-8.8125-8.8125-4.867188 0-8.8125 3.945312-8.8125 8.8125v24.355468l-.933594 1.859376c-10.957031 22.078124-11.078125 47.984374-.328125 70.164062l18.859375.082031c-.046875-1.203125-.335937-2.382812-.855469-3.464843zm0 0" fill="#cbcbcb"/><path d="m354.203125 511.171875c10.46875-22.371094 10.46875-48.234375 0-70.605469l-.882813-1.859375.433594-24.367187c.085938-4.867188-3.789062-8.882813-8.65625-8.96875-4.867187-.089844-8.882812 3.785156-8.96875 8.652344l-.46875 26.4375c-.011718 1.359374.289063 2.707031.882813 3.929687l1.761719 3.71875c8.230468 17.59375 8.230468 37.925781 0 55.519531l-1.761719 3.71875c-.601563 1.34375-.84375 2.816406-.707031 4.28125l18.144531.082032zm0 0" fill="#cbcbcb"/><path d="m168.261719 352.496094 44.0625 26.4375-44.0625 26.4375zm0 0" fill="#dbdbdb"/><path d="m256.386719 396.558594v-44.0625l-44.0625 26.4375 44.0625 26.4375z" fill="#dbdbdb"/><path d="m423.820312 299.621094h-44.0625c-19.46875 0-35.25-15.78125-35.25-35.25v-85.1875c0-7.628906-2.472656-15.050782-7.046874-21.152344l-28.203126-25.84375h61.6875c14.601563 0 26.4375 11.835938 26.4375 26.4375v103.886719c0 6.960937 2.0625 13.765625 5.921876 19.554687zm0 0" fill="#ea9d2d"/><path d="m326.882812 229.121094h-26.4375v-44.0625h26.4375c9.734376 0 17.625 7.890625 17.625 17.625v8.8125c0 9.734375-7.890624 17.625-17.625 17.625zm0 0" fill="#f6bb92"/><path d="m97.761719 229.121094h35.25v-44.0625h-35.25c-9.734375 0-17.625 7.890625-17.625 17.625v8.8125c0 9.734375 7.890625 17.625 17.625 17.625zm0 0" fill="#f6bb92"/><path d="m309.257812 114.5625v96.933594c0 53.539062-43.398437 96.9375-96.933593 96.9375-53.539063 0-96.9375-43.398438-96.9375-96.9375v-96.933594" fill="#fdc9a6"/><path d="m115.386719 105.75h193.871093v79.308594l-138.792968-46.261719-55.078125 46.261719zm0 0" fill="#ea9d2d"/><g fill="#834b10"><path d="m168.261719 211.496094c-4.867188 0-8.8125-3.945313-8.8125-8.8125v-8.8125c0-4.867188 3.945312-8.8125 8.8125-8.8125 4.867187 0 8.8125 3.945312 8.8125 8.8125v8.8125c0 4.867187-3.945313 8.8125-8.8125 8.8125zm0 0"/><path d="m256.386719 211.496094c-4.867188 0-8.8125-3.945313-8.8125-8.8125v-8.8125c0-4.867188 3.945312-8.8125 8.8125-8.8125 4.863281 0 8.8125 3.945312 8.8125 8.8125v8.8125c-.003907 4.867187-3.949219 8.8125-8.8125 8.8125zm0 0"/><path d="m221.136719 229.121094h-8.8125c-4.867188 0-8.8125-3.945313-8.8125-8.8125v-17.625c0-4.867188 3.945312-8.8125 8.8125-8.8125 4.863281 0 8.8125 3.945312 8.8125 8.8125v8.8125c4.863281 0 8.8125 3.945312 8.8125 8.8125 0 4.867187-3.949219 8.8125-8.8125 8.8125zm0 0"/><path d="m212.324219 264.371094c-7.484375.007812-14.867188-1.726563-21.566407-5.066406-4.371093-2.140626-6.175781-7.421876-4.035156-11.789063 2.140625-4.371094 7.421875-6.179687 11.789063-4.039063.042969.019532.085937.042969.125.0625 8.621093 4.292969 18.753906 4.292969 27.371093 0 4.335938-2.210937 9.644532-.484374 11.851563 3.851563 2.210937 4.335937.488281 9.640625-3.847656 11.851563-.042969.023437-.082031.042968-.125.0625-6.699219 3.339843-14.082031 5.074218-21.5625 5.066406zm0 0"/></g></svg>