<svg height="511pt" viewBox="-44 1 511 511.99996" width="511pt" xmlns="http://www.w3.org/2000/svg"><path d="m257.972656 335.449219h86.804688c43.875 0 79.445312 35.570312 79.445312 79.449219v97.101562h-423.722656v-97.101562c0-43.878907 35.570312-79.449219 79.449219-79.449219zm0 0" fill="#1a6c85"/><path d="m170.058594 344.277344h-1.835938v-70.621094h88.277344v70.621094l-44.136719 17.652344z" fill="#fdc9a6"/><path d="m168.222656 298.285156c27.703125 14.242188 60.574219 14.242188 88.277344 0v-24.628906h-88.277344zm0 0" fill="#f6bb92"/><path d="m.5 476.691406h88.277344v35.308594h-88.277344zm0 0" fill="#fdc9a6"/><path d="m344.777344 476.691406h79.445312v35.308594h-79.445312zm0 0" fill="#fdc9a6"/><path d="m168.222656 335.449219 44.140625 26.480469-44.140625 26.484374zm0 0" fill="#6cbae5"/><path d="m256.5 379.585938v-44.136719l-44.136719 26.480469 44.136719 26.484374z" fill="#6cbae5"/><path d="m88.777344 335.449219h35.308594v97.101562h-35.308594zm0 0" fill="#cdcdcd"/><path d="m309.464844 335.449219h35.3125v97.101562h-35.3125zm0 0" fill="#cdcdcd"/><path d="m327.121094 211.863281h-26.484375v-44.140625h26.484375c9.75 0 17.65625 7.90625 17.65625 17.65625v8.828125c0 9.75-7.90625 17.65625-17.65625 17.65625zm0 0" fill="#f6bb92"/><path d="m97.601562 211.863281h26.484376v-44.140625h-26.484376c-9.75 0-17.652343 7.90625-17.652343 17.65625v8.828125c0 9.75 7.902343 17.65625 17.652343 17.65625zm0 0" fill="#f6bb92"/><path d="m168.222656 35.308594c0 19.503906-15.808594 35.3125-35.308594 35.3125s-35.3125-15.808594-35.3125-35.3125c0-19.5 15.8125-35.308594 35.3125-35.308594s35.308594 15.808594 35.308594 35.308594zm0 0" fill="#834b10"/><path d="m115.257812 105.929688v88.277343c0 53.628907 43.476563 97.105469 97.105469 97.105469 53.628907 0 97.101563-43.476562 97.101563-97.105469v-88.277343l-17.65625-8.828126h-167.722656zm0 0" fill="#fdc9a6"/><g fill="#985713"><path d="m168.222656 195c-4.875 0-8.828125-3.949219-8.828125-8.828125v-9.621094c0-4.875 3.953125-8.828125 8.828125-8.828125s8.828125 3.953125 8.828125 8.828125v9.621094c0 4.878906-3.953125 8.828125-8.828125 8.828125zm0 0"/><path d="m256.5 195c-4.875 0-8.828125-3.949219-8.828125-8.828125v-9.621094c0-4.875 3.953125-8.828125 8.828125-8.828125s8.828125 3.953125 8.828125 8.828125v9.621094c0 4.878906-3.953125 8.828125-8.828125 8.828125zm0 0"/><path d="m221.191406 220.691406c-2.199218 0-4.316406-.820312-5.941406-2.296875l-8.828125-8.03125c-1.839844-1.675781-2.886719-4.046875-2.886719-6.535156v-18.449219c0-4.875 3.953125-8.828125 8.828125-8.828125s8.828125 3.953125 8.828125 8.828125v14.546875l5.941406 5.402344c3.605469 3.28125 3.871094 8.863281.59375 12.472656-1.675781 1.839844-4.046874 2.890625-6.535156 2.890625zm0 0"/><path d="m309.464844 123.585938-16.628906 7.132812c-28.648438 12.265625-61.242188 11.296875-89.109376-2.648438l-44.332031-22.140624-44.136719 44.140624v-44.140624c0-48.75 39.523438-88.273438 88.277344-88.273438h8.828125c53.628907 0 97.101563 43.472656 97.101563 97.101562zm0 0"/><path d="m212.363281 254.710938c-9.085937.035156-17.78125-3.679688-24.039062-10.265626-3.367188-3.527343-3.242188-9.113281.28125-12.484374 3.527343-3.367188 9.113281-3.242188 12.484375.285156 6.230468 6.214844 16.316406 6.214844 22.546875 0 3.367187-3.527344 8.957031-3.652344 12.480469-.285156 3.523437 3.371093 3.652343 8.957031.28125 12.484374-6.257813 6.585938-14.953126 10.300782-24.035157 10.265626zm0 0"/></g><path d="m88.777344 512-1.863282-3.726562c-9.941406-19.878907-9.941406-43.28125 0-63.160157l1.863282-3.734375v-17.65625h256.464844l-.464844 17.65625 1.761718 3.734375c9.417969 20 9.417969 43.160157 0 63.160157l-1.761718 3.726562" fill="#d9d9d9"/><path d="m168.222656 459.035156h88.277344v52.964844h-88.277344zm0 0" fill="#cdcdcd"/></svg>