<svg height="512pt" viewBox="-79 0 512 512.00039" width="512pt" xmlns="http://www.w3.org/2000/svg"><path d="m353.105469 512h-353.105469v-123.585938c0-29.253906 23.714844-52.964843 52.964844-52.964843h247.171875c29.253906 0 52.96875 23.710937 52.96875 52.964843zm0 0" fill="#f3af3e"/><path d="m0 441.378906h61.792969v70.621094h-61.792969zm0 0" fill="#fdc9a6"/><path d="m132.414062 441.378906h88.277344v70.621094h-88.277344zm0 0" fill="#eaeae8"/><path d="m220.691406 450.207031h-88.277344c-4.875 0-8.828124-3.953125-8.828124-8.828125v-70.621094c0-4.875 3.953124-8.828124 8.828124-8.828124s8.828126 3.953124 8.828126 8.828124v61.792969h70.621093v-61.792969c0-4.875 3.953125-8.828124 8.828125-8.828124s8.828125 3.953124 8.828125 8.828124v70.621094c0 4.875-3.953125 8.828125-8.828125 8.828125zm0 0" fill="#c3c3c3"/><path d="m291.308594 441.378906h61.796875v70.621094h-61.796875zm0 0" fill="#fdc9a6"/><path d="m176.550781 397.242188-61.792969-26.484376 26.484376-35.308593h70.621093l26.480469 35.308593z" fill="#ea9d2d"/><path d="m294.375 241.230469c2.546875 8.914062 5.757812 17.625 9.601562 26.058593 5.957032 13.90625 6.601563 29.515626 1.820313 43.863282l-8.105469 24.296875h-85.828125v-61.792969l8.828125-8.828125 26.480469-44.140625 8.828125-114.757812h35.3125v111.484374c0 8.039063 1.03125 16.042969 3.0625 23.816407zm0 0" fill="#834b10"/><path d="m58.730469 241.230469c-2.550781 8.914062-5.757813 17.625-9.605469 26.058593-5.953125 13.90625-6.601562 29.515626-1.816406 43.863282l8.101562 24.296875h85.832032v-61.792969l-17.65625-17.65625-8.828126-35.308594-17.65625-114.761718h-35.308593v111.484374c0 8.039063-1.03125 16.042969-3.0625 23.816407zm0 0" fill="#834b10"/><path d="m141.242188 0h70.621093c39 0 70.621094 31.617188 70.621094 70.621094v35.308594h-211.863281v-35.308594c0-39.003906 31.617187-70.621094 70.621094-70.621094zm0 0" fill="#f3af3e"/><path d="m264.828125 211.863281h-17.65625v-44.140625h17.65625c9.75 0 17.65625 7.90625 17.65625 17.65625v8.828125c0 9.75-7.90625 17.65625-17.65625 17.65625zm0 0" fill="#f6bb92"/><path d="m88.277344 211.863281h17.652344v-44.140625h-17.652344c-9.75 0-17.65625 7.90625-17.65625 17.65625v8.828125c0 9.75 7.90625 17.65625 17.65625 17.65625zm0 0" fill="#f6bb92"/><path d="m211.863281 335.449219-35.3125 61.792969-35.308593-61.792969v-61.792969h70.621093zm0 0" fill="#fdc9a6"/><path d="m141.242188 294.957031c8.410156 3.421875 17.402343 5.179688 26.480468 5.179688h17.65625c9.082032 0 18.074219-1.757813 26.484375-5.179688v-21.300781h-70.621093zm0 0" fill="#f6bb92"/><path d="m97.105469 105.929688v105.933593c0 39 31.617187 70.621094 70.617187 70.621094h17.65625c39.003906 0 70.621094-31.621094 70.621094-70.621094v-105.933593zm0 0" fill="#fdc9a6"/><path d="m70.621094 70.621094h211.863281v35.308594h-211.863281zm0 0" fill="#aac16b"/><path d="m97.105469 203.035156 7.058593-5.835937c11.699219-9.382813 23.945313-18.066407 36.671876-26.003907 10.695312-6.863281 20.625-14.855468 29.617187-23.835937l14.925781-14.945313 70.621094 35.308594v-61.792968h-158.894531zm0 0" fill="#834b10"/><path d="m326.621094 114.757812h-300.136719c-4.875 0-8.828125-3.953124-8.828125-8.828124s3.953125-8.828126 8.828125-8.828126h300.136719c4.875 0 8.828125 3.953126 8.828125 8.828126s-3.953125 8.828124-8.828125 8.828124zm0 0" fill="#ea9d2d"/><g fill="#834b10"><path d="m105.929688 158.898438-8.824219 8.824218-8.828125-8.824218v-44.140626h17.652344zm0 0"/><path d="m264.828125 158.898438-8.828125 8.824218-8.828125-8.824218v-44.140626h17.65625zm0 0"/><path d="m174.335938 256c-6.84375.003906-13.597657-1.578125-19.730469-4.625l-1.898438-.960938c-4.417969-2.0625-6.328125-7.3125-4.269531-11.734374 2.0625-4.417969 7.3125-6.328126 11.730469-4.269532.164062.078125.328125.160156.484375.246094l1.863281.945312c7.453125 3.6875 16.203125 3.6875 23.660156 0l1.824219-.929687c4.285156-2.328125 9.644531-.742187 11.972656 3.542969s.742188 9.644531-3.542968 11.972656c-.15625.085938-.320313.167969-.484376.242188l-1.859374.945312c-6.140626 3.042969-12.898438 4.628906-19.75 4.625zm0 0"/><path d="m174.34375 220.691406c-2.339844-.003906-4.585938-.933594-6.238281-2.589844l-8.828125-8.828124c-2.6875-2.683594-3.355469-6.785157-1.660156-10.183594l8.828124-17.65625c2.179688-4.363282 7.480469-6.132813 11.847657-3.953125 4.363281 2.175781 6.132812 7.480469 3.953125 11.84375l-5.984375 11.945312 4.324219 4.324219c3.460937 3.433594 3.484374 9.023438.050781 12.484375-1.664063 1.679687-3.929688 2.617187-6.292969 2.613281zm0 0"/><path d="m211.863281 194.207031c-4.875 0-8.828125-3.953125-8.828125-8.828125v-8.828125c0-4.875 3.953125-8.828125 8.828125-8.828125s8.828125 3.953125 8.828125 8.828125v8.828125c0 4.875-3.953125 8.828125-8.828125 8.828125zm0 0"/></g><path d="m70.179688 508.054688-1.863282-3.726563c-8.652344-17.40625-8.652344-37.859375 0-55.269531l1.863282-3.734375c.617187-1.222657.9375-2.574219.933593-3.945313l-.105469-35.363281c-.027343-4.855469-3.972656-8.773437-8.828124-8.773437-4.875 0-8.824219 3.953124-8.824219 8.828124v.050782l.105469 33.175781-.9375 1.871094c-11.082032 22.300781-11.117188 48.5-.097657 70.832031h18.664063c.007812-1.367188-.300782-2.71875-.910156-3.945312zm0 0" fill="#ea9d2d"/><path d="m283.367188 508.222656c-.574219 1.175782-.875 2.46875-.882813 3.777344h18.589844c10.445312-22.382812 10.425781-48.25-.054688-70.621094l-.882812-1.941406v-33.367188c0-4.875-3.949219-8.828124-8.828125-8.828124-4.875 0-8.824219 3.953124-8.824219 8.828124v35.308594c.007813 1.3125.308594 2.601563.882813 3.777344l1.765624 3.734375c8.25 17.621094 8.25 37.996094 0 55.617187zm0 0" fill="#ea9d2d"/></svg>