<svg height="512pt" viewBox="-37 0 512 512.00002" width="512pt" xmlns="http://www.w3.org/2000/svg"><path d="m310.855469 73.144531h18.289062c9.632813-.441406 17.804688 6.988281 18.285157 16.621094v74.804687h-36.574219zm0 0" fill="#985713"/><path d="m265.144531 320h100.570313c40.394531 0 73.140625 32.746094 73.140625 73.144531v118.855469h-438.855469v-118.855469c0-40.398437 32.746094-73.144531 73.144531-73.144531zm0 0" fill="#dbdbdb"/><path d="m365.714844 457.144531h73.140625v54.855469h-73.140625zm0 0" fill="#fdc9a6"/><path d="m0 457.144531h73.144531v54.855469h-73.144531zm0 0" fill="#fdc9a6"/><path d="m374.855469 512v-82.285156c0-5.050782-4.089844-9.144532-9.140625-9.144532-5.050782 0-9.144532 4.09375-9.144532 9.144532v82.285156zm0 0" fill="#cbcbcb"/><path d="m82.285156 512v-82.285156c0-5.050782-4.09375-9.144532-9.140625-9.144532-5.050781 0-9.144531 4.09375-9.144531 9.144532v82.285156zm0 0" fill="#cbcbcb"/><path d="m237.714844 420.570312h-36.570313l-9.144531-45.714843h54.855469zm0 0" fill="#6f7478"/><path d="m246.855469 512h-54.855469l9.144531-91.429688h36.570313zm0 0" fill="#787d82"/><path d="m274.285156 448h64v18.285156h-64zm0 0" fill="#cbcbcb"/><path d="m164.570312 320h-27.425781l9.140625 82.285156 64.027344-27.457031zm0 0" fill="#ebebeb"/><path d="m274.285156 320h27.429688l-9.425782 83.144531-63.71875-28.261719zm0 0" fill="#ebebeb"/><path d="m256 320v-45.714844h-73.144531v45.714844h-18.285157l45.714844 54.855469h18.257813l45.742187-54.855469zm0 0" fill="#fdc9a6"/><path d="m182.855469 294.050781c23.3125 10.21875 49.832031 10.21875 73.144531 0v-19.765625h-73.144531zm0 0" fill="#eeb58e"/><path d="m105.144531 201.144531h32v-45.714843h-32c-12.625 0-22.859375 10.234374-22.859375 22.855468 0 12.625 10.234375 22.859375 22.859375 22.859375zm0 0" fill="#f6bb92"/><path d="m333.714844 201.144531h-32v-45.714843h32c12.625 0 22.855468 10.234374 22.855468 22.855468 0 12.625-10.230468 22.859375-22.855468 22.859375zm0 0" fill="#f6bb92"/><path d="m128 91.429688v100.570312c0 50.496094 40.933594 91.429688 91.429688 91.429688 50.492187 0 91.429687-40.933594 91.429687-91.429688v-100.570312zm0 0" fill="#fdc9a6"/><g fill="#985713"><path d="m173.714844 182.855469c-5.050782 0-9.144532-4.09375-9.144532-9.140625v-9.144532c0-5.046874 4.09375-9.140624 9.144532-9.140624 5.050781 0 9.144531 4.09375 9.144531 9.140624v9.144532c-.003906 5.050781-4.09375 9.140625-9.144531 9.140625zm0 0"/><path d="m265.144531 182.855469c-5.050781 0-9.144531-4.09375-9.144531-9.140625v-9.144532c0-5.046874 4.09375-9.140624 9.144531-9.140624 5.046875 0 9.140625 4.09375 9.140625 9.140624v9.144532c0 5.050781-4.09375 9.140625-9.140625 9.140625zm0 0"/><path d="m228.570312 201.144531h-9.140624c-5.050782 0-9.144532-4.09375-9.144532-9.144531v-18.285156c0-5.050782 4.09375-9.144532 9.144532-9.144532 5.046874 0 9.140624 4.09375 9.140624 9.144532v9.140625c5.050782 0 9.144532 4.09375 9.144532 9.144531s-4.09375 9.144531-9.144532 9.144531zm0 0"/><path d="m219.429688 242.003906c-7.761719.007813-15.417969-1.789062-22.363282-5.25-4.519531-2.253906-6.355468-7.746094-4.101562-12.265625s7.746094-6.355469 12.265625-4.101562c8.941406 4.449219 19.449219 4.449219 28.390625 0 4.496094-2.289063 10.003906-.5 12.296875 3.996093 2.289062 4.5.5 10.007813-3.996094 12.296876-.042969.023437-.085937.042968-.128906.066406-6.945313 3.464844-14.601563 5.265625-22.363281 5.257812zm0 0"/><path d="m310.855469 73.144531v-9.144531c0-20.199219-16.371094-36.570312-36.570313-36.570312h-155.425781l-27.429687-27.429688v64c0 20.199219 16.371093 36.570312 36.570312 36.570312h146.285156l36.570313 54.859376h9.144531v-82.285157zm0 0"/></g></svg>