<svg height="512pt" viewBox="-32 0 512 512.00001" width="512pt" xmlns="http://www.w3.org/2000/svg"><path d="m271.898438 325.558594h91.664062c46.335938 0 83.902344 37.5625 83.902344 83.898437v102.542969h-447.464844v-102.542969c0-46.335937 37.5625-83.898437 83.898438-83.898437h186.445312" fill="#dc4d41"/><path d="m233.054688 512v-139.832031c0-5.148438-4.175782-9.324219-9.324219-9.324219-5.148438 0-9.320313 4.175781-9.320313 9.324219v139.832031zm0 0" fill="#a83b32"/><g fill="#c7463b"><path d="m27.964844 390.8125h18.644531v18.644531h-18.644531zm0 0"/><path d="m102.542969 353.523438h18.644531v18.644531h-18.644531zm0 0"/><path d="m65.253906 353.523438h18.644532v18.644531h-18.644532zm0 0"/><path d="m139.832031 390.8125h18.644531v18.644531h-18.644531zm0 0"/><path d="m177.121094 390.8125h18.644531v18.644531h-18.644531zm0 0"/><path d="m177.121094 428.101562h18.644531v18.644532h-18.644531zm0 0"/><path d="m139.832031 428.101562h18.644531v18.644532h-18.644531zm0 0"/><path d="m177.121094 465.390625h18.644531v18.644531h-18.644531zm0 0"/><path d="m139.832031 465.390625h18.644531v18.644531h-18.644531zm0 0"/><path d="m102.542969 390.8125h18.644531v18.644531h-18.644531zm0 0"/><path d="m102.542969 428.101562h18.644531v18.644532h-18.644531zm0 0"/><path d="m102.542969 465.390625h18.644531v18.644531h-18.644531zm0 0"/><path d="m27.964844 428.101562h18.644531v18.644532h-18.644531zm0 0"/><path d="m27.964844 465.390625h18.644531v18.644531h-18.644531zm0 0"/><path d="m251.699219 390.8125h18.644531v18.644531h-18.644531zm0 0"/><path d="m288.988281 390.8125h18.644531v18.644531h-18.644531zm0 0"/><path d="m288.988281 428.101562h18.644531v18.644532h-18.644531zm0 0"/><path d="m251.699219 428.101562h18.644531v18.644532h-18.644531zm0 0"/><path d="m288.988281 465.390625h18.644531v18.644531h-18.644531zm0 0"/><path d="m326.273438 390.8125h18.644531v18.644531h-18.644531zm0 0"/><path d="m326.273438 428.101562h18.644531v18.644532h-18.644531zm0 0"/><path d="m326.273438 465.390625h18.644531v18.644531h-18.644531zm0 0"/><path d="m400.851562 390.8125h18.644532v18.644531h-18.644532zm0 0"/><path d="m400.851562 428.101562h18.644532v18.644532h-18.644532zm0 0"/><path d="m400.851562 465.390625h18.644532v18.644531h-18.644532zm0 0"/><path d="m251.699219 465.390625h18.644531v18.644531h-18.644531zm0 0"/><path d="m326.273438 353.523438h18.644531v18.644531h-18.644531zm0 0"/><path d="m363.5625 353.523438h18.644531v18.644531h-18.644531zm0 0"/></g><path d="m83.433594 507.832031-1.96875-3.933593c-9.128906-18.382813-9.128906-39.980469 0-58.363282l1.976562-3.9375c.648438-1.296875.984375-2.726562.980469-4.175781v-27.964844c0-5.148437-4.171875-9.324219-9.320313-9.324219-5.152343 0-9.324218 4.175782-9.324218 9.324219v25.765625l-.988282 1.96875c-11.699218 23.554688-11.734374 51.21875-.101562 74.808594h19.679688c.015624-1.441406-.304688-2.867188-.933594-4.167969zm0 0" fill="#a83b32"/><path d="m364.496094 508.011719c-.601563 1.242187-.917969 2.605469-.933594 3.988281h19.632812c11.058594-23.648438 11.058594-50.984375 0-74.632812l-.929687-1.96875.453125-25.773438c.09375-5.148438-4.003906-9.398438-9.148438-9.488281-.011718 0-.023437-.003907-.03125-.003907-5.101562.023438-9.28125 4.058594-9.480468 9.15625l-.496094 27.964844c-.011719 1.441406.308594 2.863282.933594 4.160156l1.863281 3.933594c8.707031 18.609375 8.707031 40.121094 0 58.730469zm0 0" fill="#a83b32"/><path d="m177.121094 334.878906 46.609375 37.289063 46.613281-37.289063v-83.898437h-93.222656zm0 0" fill="#fdc9a6"/><path d="m177.121094 284.894531c5.625 4.453125 11.855468 8.082031 18.503906 10.777344 18.023438 7.21875 38.132812 7.21875 56.15625 0 6.667969-2.691406 12.917969-6.320313 18.5625-10.777344v-33.914062h-93.222656zm0 0" fill="#f6bb92"/><path d="m130.511719 111.148438c-25.738281 0-55.933594 20.871093-55.933594 46.609374 0 .28125.074219.542969.082031.832032-30.453125 5.171875-50.945312 34.058594-45.769531 64.511718 3.496094 20.570313 18.152344 37.484376 38.015625 43.875-6.742188 24.710938 7.828125 50.207032 32.539062 56.949219 3.835938 1.046875 7.792969 1.59375 11.769532 1.632813h65.90625v-74.578125l-9.320313-46.613281zm0 0" fill="#834b10"/><path d="m316.953125 111.148438c25.738281 0 55.933594 20.871093 55.933594 46.609374 0 .28125-.074219.542969-.085938.832032 30.453125 5.171875 50.949219 34.058594 45.773438 64.511718-3.496094 20.570313-18.152344 37.484376-38.015625 43.875 6.738281 24.710938-7.828125 50.207032-32.539063 56.949219-3.835937 1.046875-7.792969 1.59375-11.769531 1.632813h-65.910156v-121.1875zm0 0" fill="#834b10"/><path d="m326.273438 195.046875h-27.964844v-46.609375h27.964844c10.300781 0 18.644531 8.347656 18.644531 18.644531v9.320313c0 10.296875-8.34375 18.644531-18.644531 18.644531zm0 0" fill="#f6bb92"/><path d="m121.1875 195.046875h27.96875v-46.609375h-27.96875c-10.296875 0-18.644531 8.347656-18.644531 18.644531v9.320313c0 10.296875 8.347656 18.644531 18.644531 18.644531zm0 0" fill="#f6bb92"/><path d="m251.839844 267.703125c-18.023438 7.21875-38.136719 7.21875-56.160156 0-12.128907-4.851563-22.796876-12.765625-30.957032-22.96875l-8.269531-10.339844c-10.742187-13.394531-16.605469-30.050781-16.621094-47.222656v-85.347656h167.800781v85.347656c-.003906 17.164063-5.84375 33.820313-16.566406 47.222656l-8.269531 10.339844c-8.160156 10.203125-18.828125 18.117187-30.957031 22.96875zm0 0" fill="#fdc9a6"/><path d="m177.121094 177.242188c-5.148438 0-9.324219-4.175782-9.324219-9.324219v-10.160157c0-5.148437 4.175781-9.320312 9.324219-9.320312 5.148437 0 9.320312 4.171875 9.320312 9.320312v10.160157c0 5.148437-4.171875 9.324219-9.320312 9.324219zm0 0" fill="#834b10"/><path d="m270.34375 177.242188c-5.148438 0-9.324219-4.175782-9.324219-9.324219v-10.160157c0-5.148437 4.175781-9.320312 9.324219-9.320312s9.320312 4.171875 9.320312 9.320312v10.160157c0 5.148437-4.171874 9.324219-9.320312 9.324219zm0 0" fill="#834b10"/><path d="m223.730469 204.371094c-2.472657-.003906-4.839844-.984375-6.589844-2.734375l-9.320313-9.320313c-2.839843-2.835937-3.546874-7.167968-1.753906-10.757812l9.320313-18.644532c2.304687-4.609374 7.902343-6.476562 12.511719-4.175781 4.609374 2.300781 6.476562 7.902344 4.175781 12.507813l-6.320313 12.613281 4.570313 4.570313c3.652343 3.625 3.679687 9.527343.054687 13.183593-1.757812 1.769531-4.152344 2.761719-6.648437 2.757813zm0 0" fill="#834b10"/><path d="m177.121094 325.558594 46.609375 46.609375h-55.933594zm0 0" fill="#b94137"/><path d="m270.34375 325.558594-46.613281 46.609375h55.933593zm0 0" fill="#b94137"/><path d="m223.730469 0c-56.632813 0-102.542969 45.910156-102.542969 102.542969l9.324219 55.933593 55.929687-55.933593 25.582032 17.050781c20.167968 13.445312 41.824218 24.507812 64.535156 32.972656l38.960937 14.515625 10.753907-64.539062c0-56.632813-45.910157-102.542969-102.542969-102.542969zm0 0" fill="#834b10"/><path d="m223.730469 0c-56.351563 0-102.148438 45.472656-102.542969 101.824219h205.085938c-.394532-56.351563-46.1875-101.824219-102.542969-101.824219zm0 0" fill="#a45e14"/><path d="m410.175781 111.148438h-372.886719c-5.148437 0-9.324218-4.175782-9.324218-9.324219 0-5.148438 4.175781-9.320313 9.324218-9.320313h372.886719c5.148438 0 9.320313 4.171875 9.320313 9.320313 0 5.148437-4.171875 9.324219-9.320313 9.324219zm0 0" fill="#995813"/><path d="m223.730469 236.382812c-7.761719-.003906-15.4375-1.667968-22.503907-4.886718-4.636718-2.234375-6.582031-7.808594-4.34375-12.445313 2.164063-4.492187 7.480469-6.480469 12.0625-4.519531 9.394532 4.277344 20.179688 4.277344 29.570313 0 4.734375-2.027344 10.214844.167969 12.238281 4.902344 1.964844 4.582031-.027344 9.898437-4.519531 12.0625-7.066406 3.21875-14.738281 4.882812-22.503906 4.886718zm0 0" fill="#834b10"/></svg>