<svg height="511pt" viewBox="-44 1 511 511.99995" width="511pt" xmlns="http://www.w3.org/2000/svg"><path d="m177.050781 317.792969h70.621094v61.792969h-70.621094zm0 0" fill="#fdc9a6"/><path d="m177.050781 344.277344 8.828125 8.824218h52.964844l8.828125-8.824218v-17.65625h-70.621094zm0 0" fill="#f6bb92"/><path d="m371.257812 158.898438c0 87.753906-71.140624 158.894531-158.894531 158.894531-87.757812 0-158.898437-71.140625-158.898437-158.894531 0-87.757813 71.140625-158.898438 158.898437-158.898438 87.753907 0 158.894531 71.140625 158.894531 158.898438zm0 0" fill="#533222"/><path d="m309.464844 238.34375h-26.480469v-44.136719h26.480469c9.75 0 17.65625 7.902344 17.65625 17.65625v8.828125c0 9.75-7.90625 17.652344-17.65625 17.652344zm0 0" fill="#f6bb92"/><path d="m115.257812 238.34375h35.3125v-44.136719h-35.3125c-9.75 0-17.65625 7.902344-17.65625 17.65625v8.828125c0 9.75 7.90625 17.652344 17.65625 17.652344zm0 0" fill="#f6bb92"/><path d="m291.808594 194.207031v70.621094l-26.480469 44.136719-26.484375 26.484375h-52.964844l-26.480468-26.484375-26.484376-44.136719v-70.621094l26.484376-35.308593h105.929687z" fill="#fdc9a6"/><path d="m178.527344 211.863281c-4.875 0-8.828125-3.953125-8.828125-8.828125v-8.828125c0-4.875 3.953125-8.828125 8.828125-8.828125s8.828125 3.953125 8.828125 8.828125v8.828125c-.003907 4.875-3.953125 8.828125-8.828125 8.828125zm0 0" fill="#744630"/><path d="m249.144531 211.863281c-4.875 0-8.824219-3.953125-8.824219-8.828125v-8.828125c0-4.875 3.949219-8.828125 8.824219-8.828125 4.878907 0 8.828125 3.953125 8.828125 8.828125v8.828125c0 4.875-3.949218 8.828125-8.828125 8.828125zm0 0" fill="#744630"/><path d="m212.363281 256c-1.367187 0-2.714843-.316406-3.9375-.925781l-17.65625-8.828125c-4.363281-2.179688-6.132812-7.480469-3.953125-11.84375.164063-.328125.347656-.648438.554688-.957032l17.65625-26.484374c2.703125-4.054688 8.1875-5.148438 12.242187-2.445313 4.058594 2.707031 5.152344 8.1875 2.445313 12.246094l-12.121094 18.15625 8.714844 4.351562c4.363281 2.175781 6.136718 7.476563 3.960937 11.839844-1.492187 3-4.558593 4.894531-7.90625 4.890625zm0 0" fill="#744630"/><path d="m256.5 370.757812h119.726562c26.507813 0 47.996094 21.488282 47.996094 47.996094v93.246094h-423.722656v-93.246094c0-26.507812 21.488281-47.996094 47.996094-47.996094zm0 0" fill="#99d8aa"/><path d="m344.777344 432.550781c-4.875 0-8.828125 3.953125-8.828125 8.828125v70.621094h17.652343v-70.621094c0-4.875-3.949218-8.828125-8.824218-8.828125zm0 0" fill="#85bc94"/><path d="m79.949219 432.550781c-4.875 0-8.828125 3.953125-8.828125 8.828125v70.621094h17.65625v-70.621094c0-4.875-3.953125-8.828125-8.828125-8.828125zm0 0" fill="#85bc94"/><path d="m212.363281 287.117188c-6.851562.011718-13.609375-1.574219-19.738281-4.632813l-1.863281-.882813c-4.363281-2.179687-6.132813-7.484374-3.957031-11.847656 2.179687-4.363281 7.484374-6.136718 11.847656-3.957031l1.863281.9375c7.460937 3.707031 16.230469 3.707031 23.691406 0l1.863281-.9375c4.363282-2.179687 9.667969-.40625 11.847657 3.957031 2.179687 4.363282.410156 9.667969-3.953125 11.847656l-1.863282.882813c-6.132812 3.054687-12.890624 4.640625-19.738281 4.632813zm0 0" fill="#744630"/><path d="m.695312 414.898438h423.335938c-.488281-6.152344-2.167969-12.148438-4.945312-17.65625h-413.449219c-2.773438 5.507812-4.453125 11.503906-4.941407 17.65625zm0 0" fill="#62666a"/><path d="m.5 432.550781h423.722656v17.65625h-423.722656zm0 0" fill="#62666a"/><path d="m.5 467.863281h423.722656v17.652344h-423.722656zm0 0" fill="#62666a"/><g fill="#744630"><path d="m150.570312 247.171875h-17.65625c-4.875 0-8.828124-3.953125-8.828124-8.828125s3.953124-8.828125 8.828124-8.828125h17.65625c4.875 0 8.828126 3.953125 8.828126 8.828125s-3.953126 8.828125-8.828126 8.828125zm0 0"/><path d="m150.570312 273.65625h-17.65625c-4.875 0-8.828124-3.953125-8.828124-8.828125s3.953124-8.828125 8.828124-8.828125h17.65625c4.875 0 8.828126 3.953125 8.828126 8.828125s-3.953126 8.828125-8.828126 8.828125zm0 0"/><path d="m291.808594 247.171875h-17.652344c-4.875 0-8.828125-3.953125-8.828125-8.828125s3.953125-8.828125 8.828125-8.828125h17.652344c4.878906 0 8.828125 3.953125 8.828125 8.828125s-3.949219 8.828125-8.828125 8.828125zm0 0"/><path d="m291.808594 273.65625h-17.652344c-4.875 0-8.828125-3.953125-8.828125-8.828125s3.953125-8.828125 8.828125-8.828125h17.652344c4.878906 0 8.828125 3.953125 8.828125 8.828125s-3.949219 8.828125-8.828125 8.828125zm0 0"/><path d="m238.84375 335.449219-26.480469-26.484375-26.484375 26.484375zm0 0"/></g></svg>