<svg height="512pt" viewBox="0 -86 512.00051 512" width="512pt" xmlns="http://www.w3.org/2000/svg"><path d="m511.925781 92.273438c-1.410156-26.214844-22.777343-47.421876-49.003906-48.640626-19.460937-.90625-36.679687 8.996094-46.183594 24.210938-2.792969 4.464844-7.796875 7.144531-13.035156 6.605469-2.925781-.300781-5.9375-.308594-9.007813.019531-20.242187 2.148438-36.375 18.683594-38.011718 38.972656-1.414063 17.578125 7.808594 33.152344 21.921875 40.972656 5.296875 2.933594 7.996093 8.96875 7.011719 14.941407-.78125 4.742187-.925782 9.703125-.332032 14.789062 2.898438 24.890625 23.464844 44.453125 48.464844 46.167969 30.6875 2.105469 56.234375-22.167969 56.234375-52.40625 0-7.832031-1.714844-15.261719-4.792969-21.9375-3.050781-6.621094-.9375-14.558594 5.011719-18.773438 13.898437-9.835937 22.714844-26.378906 21.722656-44.921874zm0 0" fill="#dfe3e5"/><path d="m409.109375 147.300781c-32.0625-11.976562-36.3125-41.679687-26.722656-69.585937-14.164063 6.140625-24.417969 19.773437-25.703125 35.726562-1.40625 17.453125 7.679687 32.929688 21.625 40.804688 5.375 3.035156 8.324218 8.984375 7.3125 15.074218-.785156 4.753907-.933594 9.722657-.339844 14.824219 2.921875 25.0625 23.75 44.691407 48.9375 46.199219 11.3125.675781 21.910156-2.230469 30.765625-7.691406-27.972656-9.269532-40.644531-32.042969-42.941406-58.554688-.664063-7.644531-5.742188-14.113281-12.933594-16.796875zm0 0" fill="#cacdcf"/><path d="m320.128906 310.851562-101.199218-17.84375c-32.773438-5.777343-65.949219-8.992187-99.222657-9.609374l-105.375-1.957032c-6.289062-.117187-11.488281-4.941406-12.074219-11.207031l-2.2031245-23.636719c-.6406255-6.886718 4.4960935-12.960937 11.3945315-13.46875l108.472656-8.003906c40.511719-2.988281 81.238281-.933594 121.242187 6.121094l90.195313 15.90625zm0 0" fill="#ddaf89"/><g fill="#c9a07d"><path d="m112.425781 225.679688-100.976562 7.449218c-6.898438.507813-12.035157 6.582032-11.3945315 13.46875l2.2031245 23.636719c.585938 6.265625 5.785157 11.089844 12.074219 11.207031l105.375 1.957032c16.613281.308593 33.207031 1.265624 49.734375 2.863281-26.980468-11.886719-51.554687-30.496094-57.015625-60.582031zm0 0"/><path d="m195.308594 225.378906c-10.367188 9.609375-19.964844 13.546875-40.160156 16.285156-16.398438 2.21875-27.515626-5.605468-35.035157-16.550781-.0625.003907-.128906.007813-.191406.011719l-16.523437 1.21875c10.785156 19.914062 26.898437 30.699219 46.296874 30.699219 2.4375 0 4.929688-.171875 7.46875-.515625 29.882813-4.050782 41.65625-12.082032 57.183594-29.230469-6.335937-.761719-12.679687-1.40625-19.039062-1.917969zm0 0"/><path d="m197.035156 289.546875c7.304688 1.027344 14.597656 2.175781 21.867188 3.457031 20.976562-11.722656 54.28125-19.503906 107.105468-15.492187l2.605469-14.78125c-35.5-2.773438-65.675781-.722657-90.195312 6.179687-20.109375 5.660156-33.074219 13.703125-41.382813 20.636719zm0 0"/></g><path d="m377.503906 202.78125-8.570312 11.9375c-8.472656 11.796875-22.957032 17.695312-37.257813 15.171875l-13.695312-2.414063c-8.171875-1.441406-15.964844 4.015626-17.40625 12.1875l-11.9375 67.695313c-1.441407 8.171875 4.015625 15.960937 12.1875 17.402344l73.3125 12.929687c48.136719 8.488282 94.042969-23.65625 102.53125-71.796875l6.941406-39.363281c1.125-6.382812-3.136719-12.472656-9.519531-13.597656l-84.800782-14.953125c-4.523437-.796875-9.105468 1.070312-11.785156 4.800781zm0 0" fill="#ad9386"/><path d="m308.34375 229.007812c-3.949219 2.097657-6.929688 5.914063-7.769531 10.65625l-11.9375 67.695313c-1.441407 8.171875 4.015625 15.964844 12.1875 17.40625l73.3125 12.925781c29.988281 5.289063 59.105469-5.195312 78.851562-25.488281-96.464843 2.6875-130.050781-47.488281-144.644531-83.195313zm0 0" fill="#998377"/><path d="m67.1875 229.015625-55.738281 4.113281c-6.898438.507813-12.035157 6.582032-11.3945315 13.46875l2.2031245 23.636719c.585938 6.265625 5.78125 11.089844 12.074219 11.207031l58.070313 1.078125zm0 0" fill="#495059"/><path d="m349.78125 228.652344c-5.738281 1.839844-11.9375 2.328125-18.105469 1.238281l-13.695312-2.414063c-8.171875-1.441406-15.964844 4.015626-17.40625 12.1875l-11.9375 67.695313c-1.441407 8.171875 4.015625 15.964844 12.1875 17.40625l31.042969 5.472656zm0 0" fill="#495059"/><path d="m413.921875 24.75c0 13.667969-11.082031 24.75-24.75 24.75s-24.75-11.082031-24.75-24.75 11.082031-24.75 24.75-24.75 24.75 11.082031 24.75 24.75zm0 0" fill="#dfe3e5"/><path d="m341.132812 277.691406c-16.746093-15.34375-26.523437-33.347656-32.789062-48.683594-3.949219 2.097657-6.929688 5.914063-7.769531 10.65625l-11.9375 67.695313c-1.441407 8.171875 4.015625 15.960937 12.1875 17.402344l31.042969 5.476562zm0 0" fill="#41464f"/><path d="m409.382812 39.003906c-27.550781 5.148438-37.042968-24.605468-25.492187-38.425781-11.128906 2.421875-19.46875 12.316406-19.46875 24.171875 0 13.671875 11.082031 24.75 24.75 24.75 8.355469 0 15.730469-4.152344 20.210937-10.496094zm0 0" fill="#cacdcf"/></svg>