<svg height="512pt" viewBox="-133 0 512 512" width="512pt" xmlns="http://www.w3.org/2000/svg"><path d="m211.515625 328.09375c-4.515625-4.117188-5.539063-10.882812-2.277344-16.050781 7.351563-11.636719 11.53125-24.9375 11.53125-39.074219 0-45.714844-35.269531-80.507812-97.304687-80.507812s-97.304688 34.792968-97.304688 80.507812c0 14.136719 4.179688 27.4375 11.53125 39.074219 3.261719 5.167969 2.238282 11.933593-2.277344 16.050781-21.898437 19.992188-35.414062 47.40625-35.414062 77.652344 0 61.1875 44.394531 106.253906 123.464844 106.253906 79.070312 0 123.464844-45.066406 123.464844-106.253906 0-30.246094-13.515626-57.660156-35.414063-77.652344zm0 0" fill="#ddaf89"/><path d="m222.699219 473.855469c-113.21875-1.070313-160.40625-152.472657-154.554688-269.410157-27.210937 13.96875-41.984375 38.953126-41.984375 68.523438 0 14.136719 4.179688 27.4375 11.527344 39.074219 3.265625 5.167969 2.242188 11.933593-2.273438 16.050781-21.902343 19.992188-35.414062 47.40625-35.414062 77.652344 0 61.1875 44.394531 106.253906 123.464844 106.253906 44.800781 0 78.46875-14.472656 99.234375-38.144531zm0 0" fill="#c9a07d"/><path d="m101.535156 88.410156h43.859375v231.84375h-43.859375zm0 0" fill="#f8eed1"/><path d="m101.535156 88.410156h43.859375v19.859375h-43.859375zm0 0" fill="#f0e3c0"/><path d="m175.8125 67.808594h-104.695312c-4.144532 0-7.5-3.359375-7.5-7.5 0-4.144532 3.355468-7.5 7.5-7.5h104.691406c4.144531 0 7.5 3.355468 7.5 7.5.003906 4.140625-3.355469 7.5-7.496094 7.5zm0 0" fill="#495059"/><path d="m175.8125 35.605469h-104.695312c-4.144532 0-7.5-3.359375-7.5-7.5 0-4.144531 3.355468-7.5 7.5-7.5h104.691406c4.144531 0 7.5 3.355469 7.5 7.5.003906 4.140625-3.355469 7.5-7.496094 7.5zm0 0" fill="#495059"/><path d="m148.339844 0h-49.75c-7.289063 0-13.195313 5.90625-13.195313 13.195312v62.023438c0 7.285156 5.90625 13.195312 13.195313 13.195312h49.75c7.289062 0 13.195312-5.910156 13.195312-13.195312v-62.023438c0-7.289062-5.90625-13.195312-13.195312-13.195312zm0 0" fill="#ad9386"/><path d="m98.589844 88.410156h49.75c2.109375 0 4.09375-.503906 5.863281-1.386718-36.203125-14.503907-49.613281-62.117188-47.273437-87.023438h-8.339844c-7.289063 0-13.195313 5.90625-13.195313 13.195312v62.023438c0 7.285156 5.90625 13.191406 13.195313 13.191406zm0 0" fill="#998377"/><path d="m168.960938 331.675781c0 25.128907-20.371094 45.5-45.496094 45.5-25.128906 0-45.496094-20.371093-45.496094-45.5 0-25.125 20.367188-45.496093 45.496094-45.496093 25.125 0 45.496094 20.371093 45.496094 45.496093zm0 0" fill="#ad9386"/><path d="m165.320312 401.222656h-83.714843c-5.816407 0-10.53125 4.714844-10.53125 10.535156v9.207032c0 5.816406 4.714843 10.53125 10.53125 10.53125h83.714843c5.816407 0 10.53125-4.714844 10.53125-10.53125v-9.207032c0-5.820312-4.714843-10.535156-10.53125-10.535156zm0 0" fill="#f8eed1"/><path d="m146.660156 331.675781c0 12.8125-10.386718 23.199219-23.195312 23.199219-12.8125 0-23.199219-10.386719-23.199219-23.199219 0-12.808593 10.386719-23.195312 23.199219-23.195312 12.808594 0 23.195312 10.386719 23.195312 23.195312zm0 0" fill="#495059"/><path d="m92.828125 478.316406c0-7.878906-8.019531-14.265625-17.914063-14.265625-9.894531 0-17.914062 6.386719-17.914062 14.265625s8.019531 14.265625 17.914062 14.265625c9.894532 0 17.914063-6.386719 17.914063-14.265625zm0 0" fill="#fff"/><path d="m189.925781 478.316406c0-7.878906-8.019531-14.265625-17.914062-14.265625-9.890625 0-17.914063 6.386719-17.914063 14.265625s8.023438 14.265625 17.914063 14.265625c9.894531 0 17.914062-6.386719 17.914062-14.265625zm0 0" fill="#fff"/><g fill="#495059"><path d="m85.355469 471.585938c-4.144531 0-7.5-3.359376-7.5-7.5v-6.328126c0-4.140624 3.355469-7.5 7.5-7.5 4.140625 0 7.5 3.359376 7.5 7.5v6.328126c0 4.140624-3.359375 7.5-7.5 7.5zm0 0"/><path d="m161.574219 471.585938c-4.144531 0-7.5-3.359376-7.5-7.5v-6.328126c0-4.140624 3.355469-7.5 7.5-7.5 4.140625 0 7.5 3.359376 7.5 7.5v6.328126c0 4.140624-3.359375 7.5-7.5 7.5zm0 0"/><path d="m123.464844 476.441406c-6.019532 0-11.742188-2.605468-15.703125-7.148437-2.722657-3.125-2.394531-7.863281.730469-10.582031 3.121093-2.722657 7.859374-2.394532 10.582031.726562 1.125 1.292969 2.683593 2.003906 4.390625 2.003906 1.707031 0 3.265625-.710937 4.390625-2.003906 2.722656-3.121094 7.460937-3.449219 10.582031-.726562 3.125 2.71875 3.449219 7.457031.730469 10.582031-3.960938 4.542969-9.683594 7.148437-15.703125 7.148437zm0 0"/></g><path d="m101.53125 232.328125h43.863281v15h-43.863281zm0 0" fill="#cacdcf"/><path d="m101.53125 175.804688h43.863281v15h-43.863281zm0 0" fill="#cacdcf"/><path d="m101.53125 119.28125h43.863281v15h-43.863281zm0 0" fill="#cacdcf"/><path d="m81.609375 401.222656c-5.820313 0-10.535156 4.714844-10.535156 10.535156v9.207032c0 5.816406 4.714843 10.53125 10.535156 10.53125h37.203125c-11.691406-5.445313-19.003906-17.085938-14.058594-30.273438zm0 0" fill="#f0e3c0"/></svg>