<svg height="511pt" viewBox="-110 0 511 511.9996" width="511pt" xmlns="http://www.w3.org/2000/svg"><path d="m224.769531 12.949219c-4.699219-.058594-9.152343.980469-13.117187 2.871093-4.21875 2.015626-9.167969 1.0625-12.363282-2.347656-8.386718-8.949218-20.589843-14.273437-34.015624-13.3749998-21.011719 1.4101558-38.039063 18.3593748-39.53125 39.3632818-1.773438 24.925781 17.921874 45.699218 42.46875 45.699218 15.433593 0 28.949218-8.210937 36.417968-20.503906 5.242188 4.699219 12.167969 7.558594 19.761719 7.558594 16.988281 0 30.640625-14.296875 29.574219-31.515625-.945313-15.328125-13.839844-27.558594-29.195313-27.75zm0 0" fill="#f8eed1"/><path d="m202.164062 68.246094c-31.792968-13.5625-43.441406-52.308594-33.871093-68.2343752-1-.0039063-2.003907.0195312-3.019531.0859374-21.011719 1.4101558-38.039063 18.3593748-39.535157 39.3632818-1.773437 24.925781 17.921875 45.699218 42.472657 45.699218 13.871093 0 26.179687-6.644531 33.953124-16.914062zm0 0" fill="#f0e3c0"/><path d="m11.140625 438.4375 16.851563 30.304688h236.625l16.851562-30.304688c6.976562-12.546875 10.640625-26.664062 10.640625-41.023438v-240.25c0-14.355468-3.664063-28.472656-10.640625-41.019531l-16.851562-30.304687h-236.625l-16.851563 30.304687c-6.980469 12.546875-10.640625 26.664063-10.640625 41.019531v240.25c0 14.355469 3.660156 28.476563 10.640625 41.023438zm0 0" fill="#f8eed1"/><path d="m274.960938 104.441406-10.34375-18.601562h-236.625l-16.851563 30.304687c-6.980469 12.546875-10.640625 26.664063-10.640625 41.019531v240.25c0 14.355469 3.660156 28.476563 10.640625 41.023438l16.851563 30.304688h170.984374c-135.3125-60.300782-123.75-237.257813-123.75-364.300782zm0 0" fill="#f0e3c0"/><path d="m53.132812 238.085938c0 5.222656.433594 10.347656 1.261719 15.339843.742188 4.492188 4.574219 7.816407 9.125 7.816407h165.566407c4.554687 0 8.382812-3.324219 9.128906-7.816407.828125-4.992187 1.257812-10.117187 1.257812-15.339843 0-5.226563-.429687-10.351563-1.257812-15.339844-.746094-4.492188-4.574219-7.820313-9.128906-7.820313h-165.566407c-4.550781 0-8.382812 3.328125-9.125 7.820313-.828125 4.988281-1.261719 10.113281-1.261719 15.339844zm0 0" fill="#d97b7d"/><path d="m63.519531 214.925781c-4.550781 0-8.382812 3.328125-9.125 7.820313-.828125 4.988281-1.261719 10.113281-1.261719 15.339844 0 5.226562.433594 10.347656 1.261719 15.339843.742188 4.492188 4.574219 7.816407 9.125 7.816407h15.347657c-1.523438-15.351563-2.472657-30.863282-3.050782-46.3125h-12.296875zm0 0" fill="#c77172"/><path d="m210.34375 238.085938c0 35.367187-28.671875 64.035156-64.039062 64.035156-35.367188 0-64.039063-28.667969-64.039063-64.035156 0-35.367188 28.671875-64.039063 64.039063-64.039063 35.367187 0 64.039062 28.671875 64.039062 64.039063zm0 0" fill="#7dad91"/><path d="m208.082031 325.464844h-123.554687c-5.0625 0-7.917969 5.8125-4.828125 9.816406l7.34375 9.519531c1.949219 2.527344 1.949219 6.046875 0 8.574219l-7.34375 9.519531c-3.089844 4.007813-.234375 9.816407 4.828125 9.816407h123.554687c5.058594 0 7.914063-5.8125 4.824219-9.816407l-7.339844-9.519531c-1.949218-2.527344-1.949218-6.046875 0-8.574219l7.339844-9.519531c3.09375-4.003906.238281-9.816406-4.824219-9.816406zm0 0" fill="#f7cf66"/><path d="m84.527344 325.464844c-5.0625 0-7.917969 5.8125-4.828125 9.816406l7.34375 9.519531c1.949219 2.527344 1.949219 6.046875 0 8.574219l-7.34375 9.519531c-3.089844 4.007813-.234375 9.816407 4.828125 9.816407h20.875c-6.617188-14.9375-11.816406-30.792969-15.890625-47.246094zm0 0" fill="#ebc35c"/><path d="m168.207031 356.589844h-43.808593c-4.144532 0-7.5-3.359375-7.5-7.5 0-4.144532 3.355468-7.5 7.5-7.5h43.808593c4.144531 0 7.5 3.355468 7.5 7.5 0 4.140625-3.355469 7.5-7.5 7.5zm0 0" fill="#495059"/><path d="m11.140625 116.144531c-4.269531 7.675781-7.289063 15.941407-9 24.488281h288.324219c-1.707032-8.546874-4.726563-16.8125-8.996094-24.488281l-16.851562-30.304687h-236.625zm0 0" fill="#7dad91"/><path d="m27.992188 85.839844-16.851563 30.304687c-4.269531 7.675781-7.289063 15.941407-9 24.488281h72.914063c.050781-8.554687.109374-16.976562.144531-25.210937.027343-6.070313 4.949219-10.980469 11.023437-10.980469h188.738282l-10.34375-18.601562zm0 0" fill="#6e9981"/><path d="m6.667969 429.078125c1.296875 3.199219 2.785156 6.324219 4.472656 9.359375l16.851563 30.304688h236.625l16.851562-30.304688c1.6875-3.035156 3.175781-6.160156 4.46875-9.359375zm0 0" fill="#7dad91"/><path d="m271.363281 42.582031h-250.117187c-9.8125 0-17.765625 7.953125-17.765625 17.765625v7.726563c0 9.8125 7.953125 17.765625 17.765625 17.765625h250.113281c9.8125 0 17.765625-7.953125 17.765625-17.765625v-7.726563c0-9.8125-7.953125-17.765625-17.761719-17.765625zm0 0" fill="#dfe3e5"/><path d="m21.246094 42.582031c-9.8125 0-17.765625 7.953125-17.765625 17.765625v7.726563c0 9.8125 7.953125 17.765625 17.765625 17.765625h89.558594c-25.5-6.589844-26.457032-33.90625-17.816407-43.257813zm0 0" fill="#cacdcf"/><path d="m271.363281 512h-250.117187c-9.8125 0-17.765625-7.953125-17.765625-17.765625v-7.726563c0-9.8125 7.953125-17.765624 17.765625-17.765624h250.113281c9.8125 0 17.765625 7.953124 17.765625 17.765624v7.726563c0 9.8125-7.953125 17.765625-17.761719 17.765625zm0 0" fill="#dfe3e5"/><path d="m21.246094 468.742188c-9.8125 0-17.765625 7.953124-17.765625 17.761718v7.730469c0 9.8125 7.953125 17.765625 17.765625 17.765625h89.558594c-25.5-6.589844-26.457032-33.90625-17.816407-43.261719h-71.742187zm0 0" fill="#cacdcf"/><path d="m120.261719 246.125c0-6.699219-6.820313-12.128906-15.230469-12.128906s-15.226562 5.429687-15.226562 12.128906c0 6.695312 6.816406 12.125 15.226562 12.125s15.230469-5.429688 15.230469-12.125zm0 0" fill="#f1a18f"/><path d="m202.804688 246.125c0-6.699219-6.816407-12.128906-15.230469-12.128906-8.410157 0-15.226563 5.429687-15.226563 12.128906 0 6.695312 6.816406 12.125 15.226563 12.125 8.414062 0 15.230469-5.429688 15.230469-12.125zm0 0" fill="#f1a18f"/><g fill="#495059"><path d="m113.90625 241.527344c-4.140625 0-7.5-3.359375-7.5-7.5v-5.378906c0-4.144532 3.359375-7.5 7.5-7.5 4.144531 0 7.5 3.355468 7.5 7.5v5.378906c0 4.140625-3.355469 7.5-7.5 7.5zm0 0"/><path d="m178.699219 241.527344c-4.140625 0-7.5-3.359375-7.5-7.5v-5.378906c0-4.144532 3.359375-7.5 7.5-7.5 4.144531 0 7.5 3.355468 7.5 7.5v5.378906c0 4.140625-3.355469 7.5-7.5 7.5zm0 0"/><path d="m146.304688 245.65625c-5.441407 0-10.617188-2.355469-14.195313-6.464844-2.722656-3.121094-2.398437-7.859375.726563-10.582031 3.121093-2.71875 7.859374-2.394531 10.582031.730469.429687.492187 1.375 1.316406 2.886719 1.316406 1.511718 0 2.457031-.824219 2.886718-1.316406 2.71875-3.125 7.457032-3.453125 10.582032-.730469 3.121093 2.722656 3.449218 7.460937.726562 10.582031-3.582031 4.109375-8.753906 6.464844-14.195312 6.464844zm0 0"/></g><path d="m181.757812 407.070312h-70.90625c-4.144531 0-7.5-3.355468-7.5-7.5 0-4.140624 3.355469-7.5 7.5-7.5h70.90625c4.140626 0 7.5 3.359376 7.5 7.5 0 4.144532-3.359374 7.5-7.5 7.5zm0 0" fill="#7dad91"/><path d="m270.792969 243.710938c-4.144531 0-7.5-3.359376-7.5-7.5v-56.96875c0-4.144532 3.355469-7.5 7.5-7.5 4.140625 0 7.5 3.355468 7.5 7.5v56.96875c0 4.140624-3.359375 7.5-7.5 7.5zm0 0" fill="#f0e3c0"/><path d="m270.792969 297.007812c-4.144531 0-7.5-3.355468-7.5-7.5v-22.261718c0-4.144532 3.355469-7.5 7.5-7.5 4.140625 0 7.5 3.355468 7.5 7.5v22.261718c0 4.144532-3.359375 7.5-7.5 7.5zm0 0" fill="#f0e3c0"/><path d="m11.140625 438.4375 16.851563 30.304688h170.984374c-22.824218-10.171876-41.484374-23.652344-56.710937-39.664063h-135.597656c1.296875 3.199219 2.785156 6.324219 4.472656 9.359375zm0 0" fill="#6e9981"/><path d="m229.683594 123.984375c-13.445313 0-24.339844-10.898437-24.339844-24.339844v-57.0625h48.679688v57.0625c0 13.441407-10.898438 24.339844-24.339844 24.339844zm0 0" fill="#f8eed1"/></svg>