<svg height="511pt" viewBox="-24 1 511 511.99988" width="511pt" xmlns="http://www.w3.org/2000/svg"><path d="m284.734375 152.257812c-8.511719 0-15.417969 6.902344-15.417969 15.417969v46.792969c0 4.253906-2.511718 8.121094-6.398437 9.847656l-30.566407 13.582032-30.5625-13.582032c-3.890624-1.726562-6.402343-5.59375-6.402343-9.847656v-46.792969c0-8.515625-6.902344-15.417969-15.417969-15.417969-8.511719 0-15.417969 6.902344-15.417969 15.417969v46.792969c0 16.429688 9.703125 31.355469 24.714844 38.027344l27.667969 12.296875v84.648437c0 8.511719 6.90625 15.417969 15.417968 15.417969 8.515626 0 15.417969-6.902344 15.417969-15.417969v-84.648437l27.671875-12.296875c15.011719-6.671875 24.710938-21.597656 24.710938-38.027344v-46.792969c0-8.515625-6.902344-15.417969-15.417969-15.417969zm0 0" fill="#495059"/><path d="m195.386719 205.125v-37.449219c0-8.515625-6.902344-15.417969-15.417969-15.417969-8.511719 0-15.417969 6.902344-15.417969 15.417969v32.386719c10.148438 2.179688 20.4375 3.871094 30.835938 5.0625zm0 0" fill="#41464f"/><path d="m300.152344 200.0625v-32.386719c0-8.515625-6.902344-15.417969-15.417969-15.417969-8.511719 0-15.417969 6.902344-15.417969 15.417969v37.449219c10.402344-1.191406 20.691406-2.882812 30.835938-5.0625zm0 0" fill="#41464f"/><path d="m257.789062 349.441406h-50.871093c-7.324219 0-13.261719 5.933594-13.261719 13.261719v122.058594c0 15.042969 12.195312 27.238281 27.238281 27.238281h22.914063c15.042968 0 27.238281-12.195312 27.238281-27.238281v-122.058594c.003906-7.324219-5.9375-13.261719-13.257813-13.261719zm0 0" fill="#ad9386"/><path d="m257.789062 349.441406h-50.871093c-7.324219 0-13.261719 5.933594-13.261719 13.261719v122.058594c0 15.042969 12.195312 27.238281 27.238281 27.238281h22.914063c15.042968 0 27.238281-12.195312 27.238281-27.238281v-122.058594c.003906-7.324219-5.9375-13.261719-13.257813-13.261719zm0 0" fill="#ad9386"/><path d="m271.046875 468.601562v-25.660156c-8.695313-12.730468-11.960937-25.167968-9.445313-36.558594 1.507813-6.832031 4.988282-12.917968 9.445313-18.023437v-22.023437c-11.332031 7.953124-21.984375 20.222656-25.574219 36.484374-5.894531 26.691407 10.351563 50.226563 25.023438 65.269532.175781.179687.363281.347656.550781.511718zm0 0" fill="#998377"/><path d="m266.914062 499.183594c-50.011718-15.960938-47.320312-99.402344-47.1875-149.742188h-12.804687c-7.324219 0-13.265625 5.933594-13.265625 13.261719v122.058594c0 15.042969 12.195312 27.238281 27.242188 27.238281h22.910156c9.746094 0 18.292968-5.121094 23.105468-12.816406zm0 0" fill="#998377"/><path d="m224.476562 469.347656c-8.921874-6.308594-20.535156-8.0625-30.820312-7.105468v16.648437c6.8125-.902344 15.269531-.308594 21.28125 3.941406 7.175781 5.078125 9.1875 14.886719 6.011719 29.167969h16.84375c4.289062-24.164062-4.597657-36.480469-13.316407-42.652344zm0 0" fill="#ad9386"/><path d="m232.351562 190.726562c-80.972656 0-157.101562-31.535156-214.363281-88.792968-23.316406-23.320313-23.316406-61.125 0-84.445313 23.320313-23.320312 61.125-23.316406 84.445313 0 71.636718 71.636719 188.199218 71.636719 259.839844 0 23.316406-23.316406 61.125-23.320312 84.445312 0 23.316406 23.320313 23.316406 61.128907 0 84.445313-57.261719 57.257812-133.390625 88.792968-214.367188 88.792968zm0 0" fill="#d97b7d"/><g fill="#c77172"><path d="m120.15625 33.082031c-6.15625-4.753906-12.078125-9.949219-17.722656-15.59375-23.320313-23.316406-61.125-23.320312-84.445313 0-23.316406 23.320313-23.316406 61.128907 0 84.445313 57.261719 57.257812 133.390625 88.792968 214.363281 88.792968 5.46875 0 10.914063-.15625 16.332032-.441406-140.40625-20.234375-144.578125-108.074218-128.527344-157.203125zm0 0"/><path d="m156.898438 55.089844-12.144532 12.144531c-2.535156 2.535156-2.535156 6.644531 0 9.175781 1.839844 1.84375 4.515625 2.347656 6.8125 1.511719.863282-.316406 1.671875-.816406 2.363282-1.511719l16.046874-16.042968c-4.414062-1.585938-8.773437-3.347657-13.078124-5.277344zm0 0"/><path d="m297.820312 59.230469-8.003906 8.003906c-2.53125 2.535156-2.53125 6.640625.003906 9.175781 1.839844 1.84375 4.515626 2.347656 6.8125 1.511719.863282-.316406 1.671876-.816406 2.363282-1.511719l37.378906-37.378906c-12.164062 8.363281-25.117188 15.097656-38.554688 20.199219zm0 0"/><path d="m223.976562 71.023438-17.171874 17.171874c-2.535157 2.535157-2.535157 6.640626 0 9.175782 1.84375 1.839844 4.515624 2.347656 6.8125 1.511718.863281-.316406 1.675781-.820312 2.367187-1.511718l26.4375-26.4375c-6.144531.332031-12.300781.367187-18.445313.089844zm0 0"/></g><path d="m179.96875 142.667969c0-13.472657-13.710938-24.390625-30.628906-24.390625-16.917969 0-30.628906 10.917968-30.628906 24.390625 0 13.472656 13.710937 24.390625 30.628906 24.390625 16.917968 0 30.628906-10.917969 30.628906-24.390625zm0 0" fill="#f1a18f"/><path d="m345.996094 142.667969c0-13.472657-13.710938-24.390625-30.628906-24.390625-16.917969 0-30.628907 10.917968-30.628907 24.390625 0 13.472656 13.710938 24.390625 30.628907 24.390625 16.917968 0 30.628906-10.917969 30.628906-24.390625zm0 0" fill="#f1a18f"/><path d="m181.769531 123.625c-4.140625 0-7.5-3.355469-7.5-7.5 0-3.902344-3.175781-7.078125-7.078125-7.078125s-7.082031 3.175781-7.082031 7.078125c0 4.144531-3.355469 7.5-7.5 7.5-4.140625 0-7.5-3.355469-7.5-7.5 0-12.175781 9.90625-22.078125 22.082031-22.078125 12.175782 0 22.078125 9.902344 22.078125 22.078125 0 4.144531-3.355469 7.5-7.5 7.5zm0 0" fill="#495059"/><path d="m312.09375 123.625c-4.140625 0-7.5-3.355469-7.5-7.5 0-3.902344-3.175781-7.078125-7.078125-7.078125-3.90625 0-7.082031 3.175781-7.082031 7.078125 0 4.144531-3.355469 7.5-7.5 7.5-4.140625 0-7.5-3.355469-7.5-7.5 0-12.175781 9.90625-22.078125 22.082031-22.078125s22.078125 9.902344 22.078125 22.078125c0 4.144531-3.355469 7.5-7.5 7.5zm0 0" fill="#495059"/><path d="m232.351562 147.710938c-8.09375 0-15.792968-3.507813-21.117187-9.617188-2.722656-3.125-2.398437-7.859375.726563-10.582031 3.121093-2.722657 7.859374-2.394531 10.582031.726562 2.476562 2.84375 6.050781 4.472657 9.808593 4.472657 3.757813 0 7.335938-1.628907 9.8125-4.472657 2.71875-3.125 7.457032-3.449219 10.582032-.726562 3.121094 2.71875 3.445312 7.457031.726562 10.582031-5.328125 6.109375-13.023437 9.617188-21.121094 9.617188zm0 0" fill="#495059"/><path d="m63.628906 45.460938c2.117188 2.894531 6.183594 3.523437 9.070313 1.410156 2.890625-2.113282 3.523437-6.175782 1.410156-9.066406-15.3125-20.953126-36.035156-25.253907-49.023437-26.386719-2.480469 1.8125-4.855469 3.832031-7.097657 6.070312-2.160156 2.160157-4.117187 4.445313-5.878906 6.832031 1.523437 12.90625 6.40625 33.796876 28.144531 48.542969 1.792969 1.21875 3.976563 1.414063 5.867188.726563 1.238281-.449219 2.347656-1.28125 3.144531-2.453125 2.011719-2.964844 1.238281-7-1.726563-9.011719-16.390624-11.121094-20.804687-26.667969-22.324218-37.660156 11.039062 1.136718 26.730468 5.003906 38.414062 20.996094zm0 0" fill="#d97b7d"/><path d="m452.59375 24.320312c-1.757812-2.386718-3.714844-4.671874-5.875-6.832031-2.242188-2.238281-4.617188-4.257812-7.097656-6.070312-12.988282 1.132812-33.710938 5.433593-49.023438 26.386719-2.117187 2.890624-1.484375 6.953124 1.410156 9.066406 2.890626 2.113281 6.949219 1.484375 9.066407-1.410156 11.6875-15.992188 27.378906-19.859376 38.417969-20.992188-1.519532 10.988281-5.933594 26.539062-22.324219 37.65625-2.964844 2.011719-3.738281 6.046875-1.726563 9.011719 1.703125 2.511719 4.855469 3.453125 7.582032 2.460937.496093-.183594.976562-.425781 1.429687-.734375 21.734375-14.746093 26.617187-35.636719 28.140625-48.542969zm0 0" fill="#c77172"/><path d="m406.863281 105.8125c0 3.578125-2.902343 6.480469-6.484375 6.480469-3.578125 0-6.480468-2.902344-6.480468-6.480469 0-3.582031 2.902343-6.484375 6.480468-6.484375 3.582032 0 6.484375 2.902344 6.484375 6.484375zm0 0" fill="#c77172"/><path d="m350.507812 79.523438c0 3.578124-2.902343 6.480468-6.484374 6.480468-3.578126 0-6.480469-2.902344-6.480469-6.480468 0-3.582032 2.902343-6.484376 6.480469-6.484376 3.582031 0 6.484374 2.902344 6.484374 6.484376zm0 0" fill="#c77172"/><path d="m95.851562 116.90625c0 3.578125-2.902343 6.480469-6.480468 6.480469-3.582032 0-6.484375-2.902344-6.484375-6.480469 0-3.582031 2.902343-6.484375 6.484375-6.484375 3.578125 0 6.480468 2.902344 6.480468 6.484375zm0 0" fill="#d97b7d"/><path d="m193.65625 389.191406h77.390625v15h-77.390625zm0 0" fill="#ebc35c"/><path d="m216.933594 331.484375h30.835937v17.957031h-30.835937zm0 0" fill="#41464f"/></svg>