<svg height="512pt" viewBox="0 -151 512 512" width="512pt" xmlns="http://www.w3.org/2000/svg"><path d="m141.824219 49.480469h-38.308594l-49.675781 152.570312c-1.265625 3.875 1.625 7.851563 5.699218 7.851563h23.15625c4.113282 0 7.757813-2.644532 9.035157-6.558594zm0 0" fill="#495059"/><path d="m65.992188 164.71875h38.3125l10.710937-32.890625h-38.3125zm0 0" fill="#41464f"/><path d="m97.03125 69.390625h38.3125l6.480469-19.90625h-38.308594zm0 0" fill="#41464f"/><path d="m370.175781 49.480469h38.308594l49.675781 152.570312c1.265625 3.875-1.625 7.851563-5.699218 7.851563h-23.15625c-4.113282 0-7.757813-2.644532-9.03125-6.558594zm0 0" fill="#495059"/><path d="m446.007812 164.71875h-38.3125l-10.710937-32.890625h38.3125zm0 0" fill="#41464f"/><path d="m414.96875 69.390625h-38.3125l-6.480469-19.90625h38.308594zm0 0" fill="#41464f"/><path d="m426.621094 49.480469h-341.242188c-4.253906 0-7.699218-3.445313-7.699218-7.699219v-34.082031c0-4.25 3.445312-7.699219 7.699218-7.699219h341.242188c4.253906 0 7.699218 3.449219 7.699218 7.699219v34.082031c0 4.253906-3.445312 7.699219-7.699218 7.699219zm0 0" fill="#ad9386"/><path d="m434.320312 16.828125c-46.566406 14.328125-81.011718-1.816406-90.269531-16.828125h-15.910156c0 .945312.175781 1.90625.554687 2.832031 5.402344 13.238281 20.382813 24.601563 40.074219 30.390625 7.777344 2.289063 17.976563 4.210938 30.296875 4.210938 10.324219 0 22.136719-1.355469 35.253906-4.972656zm0 0" fill="#998377"/><path d="m256 49.480469h-170.621094c-4.253906 0-7.699218-3.445313-7.699218-7.699219v-34.082031c0-4.25 3.445312-7.699219 7.699218-7.699219h170.621094zm0 0" fill="#998377"/><path d="m77.679688 18.570312v16.390626c5.109374-2.621094 10.925781-4.640626 17.523437-4.226563 10.023437.636719 20.628906 6.949219 31.625 18.746094h19.65625c-28.488281-36.65625-52.230469-37.050781-68.804687-30.910157zm0 0" fill="#ad9386"/><path d="m129.332031 151.394531h-120.675781c-4.78125 0-8.65625-3.875-8.65625-8.65625v-15.578125c0-4.78125 3.875-8.65625 8.65625-8.65625h120.675781c4.777344 0 8.652344 3.875 8.652344 8.65625v15.578125c0 4.78125-3.875 8.65625-8.652344 8.65625zm0 0" fill="#ad9386"/><path d="m8.65625 118.503906c-4.78125 0-8.65625 3.875-8.65625 8.65625v15.578125c0 4.78125 3.875 8.65625 8.65625 8.65625h73.761719c-15.105469-7.21875-27.316407-21.023437-22.441407-32.890625zm0 0" fill="#998377"/><path d="m72.640625 151.023438c-19.414063-16.375-33.75-22.882813-45.109375-20.492188-10.992188 2.320312-15.769531 12.089844-18.929688 18.558594-.378906.773437-.746093 1.515625-1.105468 2.21875.382812.050781.765625.085937 1.160156.085937h15.621094c1.914062-3.421875 3.75-5.636719 6.351562-6.183593 2.496094-.527344 7.683594-.050782 17.523438 6.183593h24.882812c-.128906-.125-.253906-.253906-.394531-.371093zm0 0" fill="#ad9386"/><path d="m137.984375 142.738281v-10.902343c-28.878906 3.074218-40.976563-5.113282-47.453125-13.332032h-17.847656c5.609375 9.832032 16.621094 28.996094 53.652344 28.996094 3.289062 0 6.796874-.15625 10.511718-.480469.71875-1.261719 1.136719-2.722656 1.136719-4.28125zm0 0" fill="#998377"/><path d="m382.667969 151.394531h120.675781c4.78125 0 8.65625-3.875 8.65625-8.65625v-15.578125c0-4.78125-3.875-8.65625-8.65625-8.65625h-120.675781c-4.777344 0-8.652344 3.875-8.652344 8.65625v15.578125c0 4.78125 3.875 8.65625 8.652344 8.65625zm0 0" fill="#ad9386"/><path d="m382.667969 118.503906c-4.777344 0-8.652344 3.875-8.652344 8.65625v15.578125c0 4.78125 3.875 8.65625 8.652344 8.65625h73.765625c-15.105469-7.21875-27.316406-21.023437-22.445313-32.890625zm0 0" fill="#998377"/><path d="m390.925781 143.179688c7.226563 0 14.050781-1.621094 19.277344-6.164063 4.992187-4.339844 7.617187-10.550781 7.882813-18.511719h-15.003907c-.164062 2.9375-.902343 5.609375-2.722656 7.191406-4.910156 4.265626-16.785156 2.25-26.164063-.300781-.121093.570313-.183593 1.160157-.183593 1.765625v13.707032c5.511719 1.34375 11.328125 2.3125 16.914062 2.3125zm0 0" fill="#ad9386"/><g fill="#f8eed1"><path d="m375.460938 0-107.03125 107.03125c-6.867188 6.863281-17.996094 6.863281-24.859376 0l-107.03125-107.03125zm0 0"/><path d="m375.460938 0-107.03125 107.03125c-6.867188 6.863281-17.996094 6.863281-24.859376 0l-107.03125-107.03125zm0 0"/><path d="m375.460938 0-107.03125 107.03125c-6.867188 6.863281-17.996094 6.863281-24.859376 0l-107.03125-107.03125zm0 0"/></g><path d="m199.265625 0h-62.726563l107.03125 107.03125c6.867188 6.863281 17.996094 6.863281 24.859376 0l9.542968-9.542969c-43.859375-12.765625-69.71875-65.636719-78.707031-97.488281zm0 0" fill="#f0e3c0"/><path d="m216.179688 0 39.820312 39.820312 39.820312-39.820312zm0 0" fill="#9cd6e3"/><path d="m136.539062 0 39.820313 39.820312 39.820313-39.820312zm0 0" fill="#9cd6e3"/><path d="m136.539062 0 39.820313 39.820312 39.820313-39.820312zm0 0" fill="#9cd6e3"/><path d="m199.265625 0h-62.726563l39.820313 39.820312 27.050781-27.050781c-1.644531-4.503906-3.023437-8.796875-4.144531-12.769531zm0 0" fill="#8bc7d6"/><path d="m295.820312 0 39.820313 39.820312 39.820313-39.820312zm0 0" fill="#9cd6e3"/><path d="m256 39.820312-39.820312 39.820313 27.390624 27.390625c6.863282 6.863281 17.992188 6.863281 24.859376 0l27.390624-27.390625zm0 0" fill="#9cd6e3"/><path d="m268.429688 107.03125 9.542968-9.542969c-18.65625-5.429687-34.058594-18.109375-46.289062-33.351562l-15.503906 15.503906 27.390624 27.390625c6.863282 6.863281 17.996094 6.863281 24.859376 0zm0 0" fill="#8bc7d6"/><path d="m458.855469 118.503906c-.726563 11.429688 6.382812 18.085938 12.796875 24.09375 2.871094 2.6875 5.796875 5.4375 8.398437 8.796875h17.601563c-4.503906-9.214843-10.703125-15.023437-15.75-19.746093-5.785156-5.417969-8.613282-8.070313-7.96875-13.144532zm0 0" fill="#998377"/></svg>