<svg height="512pt" viewBox="-108 0 511 512" width="512pt" xmlns="http://www.w3.org/2000/svg"><path d="m218.320312 121.667969-4.519531-96.925781h-130.984375l-4.519531 96.925781c-1.597656 34.257812-10.007813 67.855469-24.738281 98.824219l-33.125 69.644531c-27.652344 58.140625-26.480469 125.882812 3.175781 183.03125l5.945313 11.460937c8.726562 16.816406 26.089843 27.371094 45.035156 27.371094h147.4375c18.941406 0 36.308594-10.554688 45.035156-27.367188l5.945312-11.464843c29.652344-57.148438 30.828126-124.886719 3.171876-183.03125l-33.121094-69.640625c-14.730469-30.972656-23.140625-64.570313-24.738282-98.828125zm0 0" fill="#ad9386"/><path d="m111.6875 24.742188h-28.871094l-4.519531 96.925781c-1.597656 34.257812-10.007813 67.855469-24.738281 98.828125l-33.125 69.640625c-27.652344 58.144531-26.480469 125.882812 3.175781 183.03125l5.945313 11.464843c8.726562 16.8125 26.089843 27.367188 45.035156 27.367188h143.3125c-128.90625-75.464844-106.699219-312.414062-106.214844-487.257812zm0 0" fill="#998377"/><path d="m3.226562 411.808594h290.164063c5.152344-31.375 2.988281-63.695313-6.535156-94.355469h-277.09375c-9.523438 30.660156-11.6875 62.980469-6.535157 94.355469zm0 0" fill="#f8eed1"/><path d="m117.75 317.457031h-107.988281c-9.523438 30.65625-11.6875 62.976563-6.535157 94.351563h136.714844c-10.652344-28.464844-17.652344-60.425782-22.191406-94.351563zm0 0" fill="#f0e3c0"/><path d="m219.347656 364.632812c0-44.476562-31.804687-80.53125-71.039062-80.53125s-71.039063 36.054688-71.039063 80.53125c0 44.476563 31.804688 80.53125 71.039063 80.53125s71.039062-36.054687 71.039062-80.53125zm0 0" fill="#9cd6e3"/><path d="m148.308594 445.164062c2.230468 0 4.433594-.132812 6.609375-.359374-22.683594-41.601563-34.265625-94.273438-39.9375-151.292969-22.433594 13.535156-37.710938 40.300781-37.710938 71.121093 0 44.476563 31.804688 80.53125 71.039063 80.53125zm0 0" fill="#8bc7d6"/><path d="m217.28125 57.054688-13.226562-5.0625c-8.417969-3.21875-17.726563-3.21875-26.144532 0l-7.535156 2.882812c-14.207031 5.4375-29.925781 5.4375-44.132812 0l-7.535157-2.882812c-8.417969-3.21875-17.726562-3.21875-26.144531 0l-13.226562 5.0625c-7.898438 3.023437-16.375-2.808594-16.375-11.265626v-26.289062c0-10.769531 8.730468-19.5 19.5-19.5h131.695312c10.769531 0 19.5 8.730469 19.5 19.5v26.289062c0 8.457032-8.476562 14.289063-16.375 11.265626zm0 0" fill="#dfe3e5"/><path d="m82.460938 0c-10.769532 0-19.5 8.730469-19.5 19.5v26.289062c0 8.457032 8.476562 14.289063 16.375 11.265626l13.226562-5.0625c8.417969-3.21875 17.726562-3.21875 26.144531 0l7.535157 2.882812c10.3125 3.945312 21.417968 5.011719 32.167968 3.230469-19.40625-10.988281-31.472656-39.980469-24.527344-58.105469zm0 0" fill="#cacdcf"/><path d="m182.085938 357.933594h-67.554688c-4.144531 0-7.5-3.355469-7.5-7.5 0-4.140625 3.355469-7.5 7.5-7.5h67.554688c4.144531 0 7.5 3.359375 7.5 7.5 0 4.144531-3.355469 7.5-7.5 7.5zm0 0" fill="#fff"/><path d="m163.835938 393.722656h-31.054688c-4.144531 0-7.5-3.359375-7.5-7.5 0-4.144531 3.355469-7.5 7.5-7.5h31.054688c4.140624 0 7.5 3.355469 7.5 7.5 0 4.140625-3.359376 7.5-7.5 7.5zm0 0" fill="#fff"/><path d="m148.308594 497.609375c-4.144532 0-7.5-3.355469-7.5-7.5v-6.566406c0-4.144531 3.355468-7.5 7.5-7.5 4.144531 0 7.5 3.355469 7.5 7.5v6.566406c0 4.144531-3.355469 7.5-7.5 7.5zm0 0" fill="#ad9386"/><path d="m81.503906 497.609375c-4.144531 0-7.5-3.355469-7.5-7.5v-6.566406c0-4.144531 3.355469-7.5 7.5-7.5 4.144532 0 7.5 3.355469 7.5 7.5v6.566406c0 4.144531-3.355468 7.5-7.5 7.5zm0 0" fill="#ad9386"/><path d="m215.113281 497.609375c-4.144531 0-7.5-3.355469-7.5-7.5v-6.566406c0-4.144531 3.355469-7.5 7.5-7.5s7.5 3.355469 7.5 7.5v6.566406c0 4.144531-3.359375 7.5-7.5 7.5zm0 0" fill="#998377"/><path d="m107.367188 256.394531c0-10.527343-10.714844-19.0625-23.9375-19.0625-13.222657 0-23.9375 8.535157-23.9375 19.0625 0 10.53125 10.714843 19.066407 23.9375 19.066407 13.222656 0 23.9375-8.535157 23.9375-19.066407zm0 0" fill="#f1a18f"/><path d="m237.125 256.394531c0-10.527343-10.714844-19.0625-23.9375-19.0625s-23.9375 8.535157-23.9375 19.0625c0 10.53125 10.714844 19.066407 23.9375 19.066407s23.9375-8.535157 23.9375-19.066407zm0 0" fill="#f1a18f"/><g fill="#495059"><path d="m97.378906 244.878906c-4.140625 0-7.5-3.359375-7.5-7.5v-8.453125c0-4.144531 3.359375-7.5 7.5-7.5 4.144532 0 7.5 3.355469 7.5 7.5v8.453125c0 4.140625-3.355468 7.5-7.5 7.5zm0 0"/><path d="m199.234375 244.878906c-4.140625 0-7.5-3.359375-7.5-7.5v-8.453125c0-4.144531 3.359375-7.5 7.5-7.5 4.144531 0 7.5 3.355469 7.5 7.5v8.453125c0 4.140625-3.355469 7.5-7.5 7.5zm0 0"/><path d="m148.308594 251.371094c-7.3125 0-14.269532-3.167969-19.082032-8.691406-2.722656-3.121094-2.394531-7.859376.726563-10.582032 3.125-2.71875 7.863281-2.394531 10.582031.726563 1.964844 2.253906 4.796875 3.546875 7.773438 3.546875 2.976562 0 5.8125-1.292969 7.773437-3.546875 2.71875-3.121094 7.457031-3.445313 10.582031-.726563 3.121094 2.722656 3.449219 7.460938.726563 10.582032-4.8125 5.523437-11.769531 8.691406-19.082031 8.691406zm0 0"/></g><path d="m272.109375 364.632812c0 8.449219-6.847656 15.296876-15.296875 15.296876s-15.300781-6.847657-15.300781-15.296876c0-8.449218 6.851562-15.296874 15.300781-15.296874s15.296875 6.847656 15.296875 15.296874zm0 0" fill="#f1a18f"/><path d="m55.105469 364.632812c0 8.449219-6.851563 15.296876-15.300781 15.296876-8.449219 0-15.296876-6.847657-15.296876-15.296876 0-8.449218 6.847657-15.296874 15.296876-15.296874 8.449218 0 15.300781 6.847656 15.300781 15.296874zm0 0" fill="#f1a18f"/></svg>