<svg height="512pt" viewBox="-9 0 511 512" width="512pt" xmlns="http://www.w3.org/2000/svg"><path d="m91.554688 273.410156h310.105468v238.589844h-310.105468zm0 0" fill="#495059"/><path d="m33.253906 245.808594c0 87.0625 3.554688 183.152344-32.019531 255.929687-2.316406 4.738281 1.117187 10.261719 6.394531 10.261719h117.46875c12.019532 0 23.277344-5.980469 29.894532-16.015625 34.039062-51.585937 69.726562-145.296875 77.554687-254.664063zm0 0" fill="#f8eed1"/><path d="m12.351562 474.753906c-3.203124 9.285156-6.875 18.304688-11.117187 26.984375-2.316406 4.738281 1.117187 10.261719 6.394531 10.261719h117.46875c12.019532 0 23.277344-5.980469 29.894532-16.015625 4.25-6.4375 8.523437-13.53125 12.765624-21.230469zm0 0" fill="#9cd6e3"/><path d="m232.546875 241.320312-199.292969 4.488282c0 87.0625 3.558594 183.152344-32.015625 255.929687-2.320312 4.738281 1.113281 10.261719 6.390625 10.261719h117.46875c12.09375 0 23.359375-6.089844 30.011719-16.191406 2.269531-3.449219 4.550781-7.101563 6.828125-10.917969-25.390625-47.25-33.53125-114.726563-36.132812-170.070313-.398438-8.453124 6.40625-15.492187 14.867187-15.429687l84.886719.625c3.148437-18.925781 5.542968-38.539063 6.988281-58.695313zm0 0" fill="#f0e3c0"/><path d="m459.960938 245.808594c0 87.0625-3.554688 183.152344 32.019531 255.929687 2.316406 4.738281-1.117188 10.261719-6.394531 10.261719h-117.46875c-12.019532 0-23.277344-5.980469-29.894532-16.015625-34.039062-51.585937-69.726562-145.296875-77.554687-254.664063zm0 0" fill="#f8eed1"/><path d="m260.671875 241.320312c1.421875 19.894532 3.777344 39.257813 6.867187 57.953126h192.339844c-.058594-18.011719.082032-35.921876.082032-53.464844zm0 0" fill="#f0e3c0"/><path d="m480.863281 474.753906c3.203125 9.285156 6.875 18.304688 11.117188 26.984375 2.316406 4.738281-1.117188 10.261719-6.394531 10.261719h-117.46875c-12.019532 0-23.277344-5.980469-29.894532-16.015625-4.25-6.4375-8.523437-13.53125-12.765625-21.230469zm0 0" fill="#9cd6e3"/><path d="m360.949219 30.71875-12.640625 16.773438c-3.816406 5.0625-3.816406 12.035156 0 17.097656l12.640625 16.773437c3.996093 5.300781.210937 12.890625-6.425781 12.890625h-107.914063v-76.429687h107.910156c6.640625 0 10.425781 7.589843 6.429688 12.894531zm0 0" fill="#f7cf66"/><path d="m246.609375 149.652344c-4.144531 0-7.5-3.355469-7.5-7.5v-134.652344c0-4.144531 3.355469-7.5 7.5-7.5 4.140625 0 7.5 3.355469 7.5 7.5v134.652344c0 4.144531-3.359375 7.5-7.5 7.5zm0 0" fill="#495059"/><path d="m490.570312 255.789062v-21.132812c0-11.5-8.808593-21.148438-20.273437-22.042969-59.523437-4.644531-149.976563-28.589843-200.667969-76.136719-12.992187-12.1875-33.046875-12.1875-46.039062 0-50.691406 47.546876-141.148438 71.492188-200.667969 76.136719-11.46875.894531-20.273437 10.542969-20.273437 22.042969v21.132812c0 9.730469 7.886718 17.621094 17.617187 17.621094h452.683594c9.730469 0 17.621093-7.890625 17.621093-17.621094zm0 0" fill="#9cd6e3"/><path d="m92.253906 411.773438-19.007812-14.320313c-5.734375-4.320313-13.632813-4.320313-19.367188 0l-19.003906 14.320313c-6.011719 4.53125-14.609375.242187-14.609375-7.28125v-131.082032h86.59375v131.082032c0 7.523437-8.597656 11.8125-14.605469 7.28125zm0 0" fill="#d97b7d"/><path d="m400.960938 411.773438 19.003906-14.320313c5.734375-4.320313 13.636718-4.320313 19.371094 0l19.003906 14.320313c6.007812 4.53125 14.609375.242187 14.609375-7.28125v-131.082032h-86.59375v131.082032c0 7.523437 8.597656 11.8125 14.605469 7.28125zm0 0" fill="#d97b7d"/><path d="m386.355469 320.371094h86.59375v37.523437h-86.59375zm0 0" fill="#f7cf66"/><path d="m275.296875 361.082031-19.003906-14.320312c-5.734375-4.324219-13.636719-4.324219-19.371094 0l-19.003906 14.320312c-6.007813 4.527344-14.605469.242188-14.605469-7.28125v-80.390625h86.589844v80.390625c0 7.523438-8.597656 11.808594-14.605469 7.28125zm0 0" fill="#f7cf66"/><path d="m154.992188 495.984375c2.3125-3.5 4.628906-7.210937 6.945312-11.09375-1.765625-3.285156-3.449219-6.664063-5.054688-10.136719h-144.53125c-3.203124 9.285156-6.875 18.304688-11.117187 26.984375-2.316406 4.738281 1.117187 10.261719 6.394531 10.261719h117.46875c12.019532 0 23.277344-5.980469 29.894532-16.015625zm0 0" fill="#8bc7d6"/><path d="m20.265625 273.410156h86.59375v19.839844h-86.59375zm0 0" fill="#c77172"/><path d="m203.3125 273.410156h86.589844v19.839844h-86.589844zm0 0" fill="#ebc35c"/><path d="m386.355469 273.410156h86.59375v19.839844h-86.59375zm0 0" fill="#c77172"/><path d="m199.890625 155.214844c-51.964844 35.171875-125.859375 53.40625-176.96875 57.398437-11.46875.894531-20.273437 10.539063-20.273437 22.042969v21.128906c0 9.734375 7.886718 17.625 17.617187 17.625h252.851563c-46.808594-19.910156-89.890626-66.65625-73.226563-118.195312zm0 0" fill="#8bc7d6"/><path d="m20.265625 320.371094h86.59375v37.523437h-86.59375zm0 0" fill="#f7cf66"/></svg>