<svg height="512pt" viewBox="-66 0 511 512" width="512pt" xmlns="http://www.w3.org/2000/svg"><path d="m106.265625 512c-28.25 0-54.8125-11-74.789063-30.976562-41.234374-41.238282-41.238281-108.335938 0-149.578126 4.046876-4.046874 3.972657-5.15625 3.90625-6.136718-.402343-5.953125-5.160156-17.367188-9.765624-28.40625-10.597657-25.425782-25.117188-60.242188-25.117188-107.785156 0-104.28125 84.835938-189.117188 189.117188-189.117188s189.117187 84.835938 189.117187 189.117188c0 108.027343-87.605469 189.125-157.996094 254.285156-14.296875 13.234375-27.796875 25.734375-39.683593 37.621094-19.980469 19.976562-46.539063 30.976562-74.789063 30.976562zm0 0" fill="#ddaf89"/><path d="m263.949219 402.546875c-160.277344 2.695313-187.527344-267.667969-159.101563-382.449219-61.828125 31.132813-104.347656 95.199219-104.347656 169.019532 0 47.542968 14.519531 82.359374 25.121094 107.785156 4.601562 11.039062 9.363281 22.453125 9.765625 28.40625.0625.980468.140625 2.089844-3.910157 6.136718-41.234374 41.238282-41.234374 108.339844.003907 149.578126 19.972656 19.976562 46.535156 30.976562 74.785156 30.976562s54.808594-11 74.789063-30.976562c11.886718-11.886719 25.386718-24.386719 39.683593-37.621094 13.996094-12.957032 28.675781-26.550782 43.210938-40.855469zm0 0" fill="#c9a07d"/><path d="m58.773438 358.742188c-26.226563 26.230468-26.226563 68.753906 0 94.984374 26.230468 26.226563 68.753906 26.226563 94.984374 0 69.808594-69.808593 186.375-153.738281 186.375-264.609374 0-83.128907-67.390624-150.515626-150.515624-150.515626-83.128907 0-150.515626 67.386719-150.515626 150.515626 0 90.605468 63.054688 126.246093 19.671876 169.625zm0 0" fill="#d97b7d"/><path d="m96.863281 70.570312c-35.164062 27.554688-57.761719 70.410157-57.761719 118.546876 0 90.605468 63.050782 126.246093 19.671876 169.625-26.226563 26.230468-26.226563 68.753906 0 94.984374 26.230468 26.226563 68.753906 26.226563 94.984374 0 18.671876-18.671874 40.6875-38.355468 62.921876-59.289062-101.375-39.148438-129.769532-211.078125-119.816407-323.867188zm0 0" fill="#c77172"/><path d="m128.226562 204.445312c0-15.785156-16.074218-28.585937-35.902343-28.585937-19.824219 0-35.898438 12.800781-35.898438 28.585937 0 15.789063 16.074219 28.589844 35.898438 28.589844 19.828125 0 35.902343-12.800781 35.902343-28.589844zm0 0" fill="#f1a18f"/><path d="m322.808594 204.445312c0-15.785156-16.074219-28.585937-35.902344-28.585937-19.824219 0-35.898438 12.800781-35.898438 28.585937 0 15.789063 16.074219 28.589844 35.898438 28.589844 19.828125 0 35.902344-12.800781 35.902344-28.589844zm0 0" fill="#f1a18f"/><path d="m98.328125 178.191406c-4.144531 0-7.5-3.355468-7.5-7.5v-15.410156c0-4.140625 3.355469-7.5 7.5-7.5 4.140625 0 7.5 3.359375 7.5 7.5v15.410156c0 4.144532-3.359375 7.5-7.5 7.5zm0 0" fill="#495059"/><path d="m218.558594 182.480469c0-17.886719-12.957032-32.386719-28.941406-32.386719-15.984376 0-28.941407 14.5-28.941407 32.386719s12.957031 32.386719 28.941407 32.386719c15.984374 0 28.941406-14.5 28.941406-32.386719zm0 0" fill="#495059"/><path d="m280.90625 178.191406c-4.140625 0-7.5-3.355468-7.5-7.5v-15.410156c0-4.140625 3.359375-7.5 7.5-7.5 4.144531 0 7.5 3.359375 7.5 7.5v15.410156c0 4.144532-3.355469 7.5-7.5 7.5zm0 0" fill="#495059"/><path d="m242.273438 316.5c-32.300782-2.363281-68.914063-5.046875-101.203126 22.136719-33.832031 28.488281-37.214843 85.703125-25.878906 134.15625 4.949219-.660157 9.832032-1.878907 14.5625-3.640625-10.414062-44.773438-6.8125-95.636719 20.980469-119.039063 27.617187-23.253906 59.554687-20.914062 90.445313-18.652343 12.050781.882812 24.246093 1.777343 35.800781.859374 4.980469-5.867187 9.78125-11.832031 14.371093-17.890624-1.34375.464843-2.726562.886718-4.175781 1.246093-12.773437 3.179688-28.378906 2.035157-44.902343.824219zm0 0" fill="#f1a18f"/><path d="m222.449219 42.203125c-7.625 19.707031-20.601563 40.949219-51.535157 52.070313-21.953124 7.894531-58.808593 4.113281-90.953124-8.246094-3.613282 3.839844-7.023438 7.871094-10.21875 12.074218 23.710937 9.863282 50.09375 15.269532 72.953124 15.269532 12.484376 0 23.921876-1.609375 33.292969-4.980469 37.484375-13.476563 52.535157-39.648437 60.996094-62.175781-4.746094-1.570313-9.59375-2.910156-14.535156-4.011719zm0 0" fill="#f1a18f"/><g fill="#c77172"><path d="m266.035156 120.882812c0 4.148438-3.363281 7.511719-7.511718 7.511719-4.148438 0-7.511719-3.363281-7.511719-7.511719 0-4.148437 3.363281-7.515624 7.511719-7.515624 4.148437 0 7.511718 3.367187 7.511718 7.515624zm0 0"/><path d="m226.074219 297.035156c0 4.152344-3.363281 7.515625-7.515625 7.515625-4.148438 0-7.511719-3.363281-7.511719-7.515625 0-4.148437 3.363281-7.511718 7.511719-7.511718 4.152344 0 7.515625 3.363281 7.515625 7.511718zm0 0"/><path d="m152.609375 70.570312c0 4.152344-3.363281 7.515626-7.511719 7.515626-4.152344 0-7.515625-3.363282-7.515625-7.515626 0-4.148437 3.363281-7.511718 7.515625-7.511718 4.148438 0 7.511719 3.363281 7.511719 7.511718zm0 0"/></g><path d="m92.324219 272.003906c0 4.148438-3.363281 7.511719-7.511719 7.511719s-7.511719-3.363281-7.511719-7.511719c0-4.148437 3.363281-7.515625 7.511719-7.515625s7.511719 3.367188 7.511719 7.515625zm0 0" fill="#d97b7d"/><path d="m92.324219 422.710938c0 4.148437-3.363281 7.511718-7.511719 7.511718s-7.511719-3.363281-7.511719-7.511718c0-4.148438 3.363281-7.515626 7.511719-7.515626s7.511719 3.367188 7.511719 7.515626zm0 0" fill="#d97b7d"/></svg>