<svg height="512pt" viewBox="0 -29 512 512" width="512pt" xmlns="http://www.w3.org/2000/svg"><path d="m419.664062 154.109375v106.492187l-93.988281 8.992188c-77.054687 7.375-154.632812 7.375-231.6875 0l-93.988281-8.992188v-106.492187l93.988281-8.992187c77.054688-7.375 154.632813-7.375 231.6875 0zm0 0" fill="#ddaf89"/><path d="m114.054688 143.386719c-6.691407.527343-13.382813 1.089843-20.066407 1.730469l-93.988281 8.992187v106.492187l93.988281 8.992188c19.894531 1.90625 39.824219 3.308594 59.769531 4.226562-20.570312-38.488281-32.800781-81.460937-39.703124-130.433593zm0 0" fill="#c9a07d"/><path d="m419.664062 260.601562v84.21875c0 13.1875-8.730468 24.777344-21.40625 28.417969l-24.796874 7.117188c-106.925782 30.695312-220.332032 30.695312-327.257813 0l-24.796875-7.117188c-12.671875-3.640625-21.40625-15.230469-21.40625-28.417969v-84.21875l93.988281 8.992188c77.054688 7.375 154.632813 7.375 231.6875 0zm0 0" fill="#ad9386"/><path d="m275.316406 399.730469c-57.367187-36.972657-95.941406-77.964844-121.558594-125.90625-19.945312-.921875-39.875-2.324219-59.769531-4.226563l-93.988281-8.996094v84.21875c0 13.1875 8.734375 24.777344 21.40625 28.417969l24.796875 7.117188c74.683594 21.4375 152.523437 27.882812 229.113281 19.375zm0 0" fill="#998377"/><path d="m419.664062 69.890625v84.21875l-93.988281-8.992187c-77.054687-7.375-154.632812-7.375-231.6875 0l-93.988281 8.992187v-84.21875c0-13.1875 8.734375-24.777344 21.40625-28.417969l24.796875-7.117187c106.925781-30.695313 220.332031-30.695313 327.257813 0l24.796874 7.117187c12.675782 3.640625 21.40625 15.230469 21.40625 28.417969zm0 0" fill="#ad9386"/><path d="m106.1875 20.46875c-20.164062 3.578125-40.183594 8.203125-59.984375 13.886719l-24.796875 7.117187c-12.671875 3.640625-21.40625 15.230469-21.40625 28.417969v84.21875l93.988281-8.992187c6.683594-.640626 13.371094-1.203126 20.0625-1.734376-5.253906-37.273437-7.433593-78.019531-7.863281-122.914062zm0 0" fill="#998377"/><path d="m330.105469 15.585938v383.542968c0 10.128906 9.519531 17.566406 19.351562 15.113282l9.382813-2.339844c9.078125-2.265625 15.453125-10.425782 15.453125-19.785156v-369.519532c0-9.359375-6.371094-17.519531-15.453125-19.785156l-9.382813-2.339844c-9.832031-2.457031-19.351562 4.980469-19.351562 15.113282zm0 0" fill="#dfe3e5"/><path d="m374.292969 259.863281v132.253907c0 9.359374-6.371094 17.515624-15.453125 19.785156l-9.382813 2.339844c-9.832031 2.453124-19.351562-4.984376-19.351562-15.117188v-186.761719c7.742187 28.496094 22.09375 50.027344 44.1875 47.5zm0 0" fill="#cacdcf"/><path d="m89.558594 15.585938v383.542968c0 10.128906-9.519532 17.566406-19.347656 15.113282l-9.382813-2.339844c-9.082031-2.265625-15.457031-10.425782-15.457031-19.785156v-369.519532c0-9.359375 6.375-17.519531 15.457031-19.785156l9.382813-2.339844c9.828124-2.457031 19.347656 4.980469 19.347656 15.113282zm0 0" fill="#dfe3e5"/><path d="m311.972656 222.628906c0-12.109375-12.324218-21.921875-27.53125-21.921875-15.203125 0-27.527344 9.8125-27.527344 21.921875s12.324219 21.925782 27.527344 21.925782c15.207032 0 27.53125-9.816407 27.53125-21.925782zm0 0" fill="#fff"/><path d="m162.75 222.628906c0-12.109375-12.324219-21.921875-27.527344-21.921875-15.207031 0-27.53125 9.8125-27.53125 21.921875s12.324219 21.925782 27.53125 21.925782c15.203125 0 27.527344-9.816407 27.527344-21.925782zm0 0" fill="#fff"/><g fill="#495059"><path d="m268.398438 208.257812c-4.140626 0-7.5-3.355468-7.5-7.5v-9.71875c0-4.144531 3.359374-7.5 7.5-7.5 4.144531 0 7.5 3.355469 7.5 7.5v9.71875c0 4.144532-3.355469 7.5-7.5 7.5zm0 0"/><path d="m151.265625 208.257812c-4.144531 0-7.5-3.355468-7.5-7.5v-9.71875c0-4.144531 3.355469-7.5 7.5-7.5s7.5 3.355469 7.5 7.5v9.71875c0 4.144532-3.359375 7.5-7.5 7.5zm0 0"/><path d="m209.832031 215.722656c-8.085937 0-15.773437-3.5-21.09375-9.605468-2.722656-3.121094-2.398437-7.859376.726563-10.582032 3.121094-2.71875 7.859375-2.394531 10.582031.726563 2.46875 2.835937 6.035156 4.460937 9.785156 4.460937 3.746094 0 7.316407-1.625 9.785157-4.460937 2.722656-3.121094 7.460937-3.449219 10.582031-.726563 3.125 2.722656 3.449219 7.460938.726562 10.582032-5.320312 6.105468-13.007812 9.605468-21.09375 9.605468zm0 0"/></g><path d="m89.558594 399.125c0 10.132812-9.519532 17.570312-19.347656 15.117188l-9.382813-2.339844c-9.082031-2.269532-15.457031-10.425782-15.457031-19.785156v-187.410157c6.53125 28.867188 14.53125 54.074219 44.1875 55.007813zm0 0" fill="#cacdcf"/><path d="m314.941406 52.878906c0-8.542968-11.304687-15.464844-25.25-15.464844-13.945312 0-25.253906 6.921876-25.253906 15.464844 0 8.542969 11.308594 15.464844 25.253906 15.464844 13.945313 0 25.25-6.921875 25.25-15.464844zm0 0" fill="#998377"/><path d="m359.128906 187.976562c0-1.574218.597656-3.148437 1.800782-4.347656l13.363281-13.363281v17.386719l-4.671875 4.671875c-2.398438 2.398437-6.292969 2.398437-8.691406 0-1.203126-1.203125-1.800782-2.777344-1.800782-4.347657zm0 0" fill="#cacdcf"/><path d="m45.371094 322.328125 13.136718-13.136719c2.402344-2.402344 6.292969-2.402344 8.695313 0s2.402344 6.292969 0 8.695313l-19.609375 19.605469c-.648438.652343-1.410156 1.121093-2.222656 1.417968zm0 0" fill="#dfe3e5"/><path d="m59.902344 102.921875c0 1.574219.601562 3.148437 1.800781 4.347656 2.402344 2.398438 6.292969 2.398438 8.695313 0l12.539062-12.542969c2.402344-2.398437 2.402344-6.289062 0-8.691406s-6.292969-2.402344-8.695312 0l-12.539063 12.542969c-1.199219 1.199219-1.800781 2.769531-1.800781 4.34375zm0 0" fill="#cacdcf"/><path d="m304.199219 328.347656c0 3.394532-2.75 6.144532-6.140625 6.144532s-6.140625-2.75-6.140625-6.144532c0-3.390625 2.75-6.140625 6.140625-6.140625s6.140625 2.75 6.140625 6.140625zm0 0" fill="#998377"/><path d="m127.867188 356.128906c0 3.394532-2.75 6.140625-6.140626 6.140625-3.390624 0-6.140624-2.746093-6.140624-6.140625 0-3.390625 2.75-6.140625 6.140624-6.140625 3.390626 0 6.140626 2.75 6.140626 6.140625zm0 0" fill="#ad9386"/><path d="m170.574219 38.9375c0 3.390625-2.746094 6.140625-6.140625 6.140625-3.390625 0-6.140625-2.75-6.140625-6.140625s2.75-6.140625 6.140625-6.140625c3.394531 0 6.140625 2.75 6.140625 6.140625zm0 0" fill="#998377"/><path d="m404.742188 111.355469c0 3.390625-2.75 6.140625-6.140626 6.140625-3.390624 0-6.140624-2.75-6.140624-6.140625s2.75-6.140625 6.140624-6.140625c3.390626 0 6.140626 2.75 6.140626 6.140625zm0 0" fill="#998377"/><path d="m35.210938 188.335938c0 3.390624-2.75 6.140624-6.140626 6.140624-3.390624 0-6.140624-2.75-6.140624-6.140624 0-3.394532 2.75-6.140626 6.140624-6.140626 3.390626 0 6.140626 2.746094 6.140626 6.140626zm0 0" fill="#ddaf89"/><path d="m419.664062 286.296875v52.613281h38.410157c3.308593 0 5.988281 2.679688 5.988281 5.988282v16.121093c0 5.183594 4.203125 9.382813 9.382812 9.382813h29.171876c5.183593 0 9.382812-4.199219 9.382812-9.382813v-58.367187c0-9.03125-7.324219-16.355469-16.355469-16.355469zm0 0" fill="#dfe3e5"/><path d="m419.664062 338.910156h37.109376c-9.308594-11.398437-14.921876-36.625-15.96875-52.613281h-21.140626zm0 0" fill="#cacdcf"/><path d="m477.375 202.4375c-12.3125 0-21.996094 10.53125-20.960938 22.800781l5.144532 61.058594h31.636718l5.144532-61.058594c1.03125-12.269531-8.648438-22.800781-20.964844-22.800781zm0 0" fill="#495059"/><path d="m105.921875 453.542969h-76.910156c-8.667969 0-15.1875-7.90625-13.539063-16.414063l11.984375-61.851562c1.464844-7.550782 8.078125-13.007813 15.769531-13.007813h48.476563c7.695313 0 14.308594 5.457031 15.769531 13.007813l11.988282 61.851562c1.648437 8.507813-4.871094 16.414063-13.539063 16.414063zm0 0" fill="#ddaf89"/><path d="m390.652344 453.542969h-76.910156c-8.667969 0-15.183594-7.90625-13.535157-16.414063l11.984375-61.851562c1.460938-7.550782 8.074219-13.007813 15.769532-13.007813h48.476562c7.695312 0 14.304688 5.457031 15.769531 13.007813l11.984375 61.851562c1.648438 8.507813-4.871094 16.414063-13.539062 16.414063zm0 0" fill="#ddaf89"/><path d="m106.390625 453.515625c-42.265625-13.039063-53.972656-58.761719-56.023437-91.246094h-7.140626c-7.691406 0-14.304687 5.457031-15.769531 13.007813l-11.984375 61.851562c-1.648437 8.507813 4.871094 16.414063 13.539063 16.414063h76.910156c.15625 0 .3125-.023438.46875-.027344zm0 0" fill="#c9a07d"/><path d="m391.125 453.515625c-42.265625-13.039063-53.972656-58.761719-56.023438-91.246094h-7.140624c-7.695313 0-14.308594 5.457031-15.769532 13.007813l-11.984375 61.851562c-1.648437 8.507813 4.867188 16.414063 13.535157 16.414063h76.910156c.160156 0 .3125-.023438.472656-.027344zm0 0" fill="#c9a07d"/></svg>