<svg height="512pt" viewBox="-109 0 512 512.001" width="512pt" xmlns="http://www.w3.org/2000/svg"><path d="m209.554688 112.640625-29.441407 4.9375c-22.164062 3.71875-44.792969 3.71875-66.957031 0l-29.4375-4.9375v-38.480469l29.4375-4.933594c22.164062-3.71875 44.792969-3.71875 66.957031 0l29.441407 4.933594zm0 0" fill="#6e9981"/><path d="m69.933594 0h-21.5c-7.609375 0-13.78125 6.171875-13.78125 13.78125v246.394531h49.066406v-246.394531c0-7.609375-6.171875-13.78125-13.785156-13.78125zm0 0" fill="#7dad91"/><path d="m83.71875 223.035156c-28.285156-35.589844-42.921875-106.039062-49.066406-159.398437v196.539062h49.066406zm0 0" fill="#6e9981"/><path d="m223.335938 0h21.5c7.613281 0 13.785156 6.171875 13.785156 13.78125v246.394531h-49.066406v-246.394531c0-7.609375 6.171874-13.78125 13.78125-13.78125zm0 0" fill="#7dad91"/><path d="m275.632812 512h-72.761718c-9.300782 0-17.621094-5.792969-20.84375-14.519531l-31.898438-86.324219c-1.199218-3.242188-5.789062-3.242188-6.988281 0l-31.898437 86.324219c-3.222657 8.726562-11.539063 14.519531-20.839844 14.519531h-72.765625c-9.738281 0-17.636719-7.894531-17.636719-17.636719v-217.835937c0-9.03125 7.320312-16.351563 16.351562-16.351563h260.566407c9.03125 0 16.351562 7.320313 16.351562 16.351563v217.835937c.003907 9.742188-7.894531 17.636719-17.636719 17.636719zm0 0" fill="#7dad91"/><path d="m0 276.527344v217.835937c0 9.742188 7.898438 17.636719 17.636719 17.636719h72.765625c9.300781 0 17.617187-5.792969 20.84375-14.519531l17.675781-47.835938c-21.042969-47.324219-33.308594-108.851562-33.71875-189.464843h-78.847656c-9.03125-.003907-16.355469 7.316406-16.355469 16.347656zm0 0" fill="#6e9981"/><path d="m0 367.269531c27.660156 0 56.773438-25.464843 56.773438-61.726562h-56.773438zm0 0" fill="#495059"/><path d="m293.273438 367.269531c-27.660157 0-56.773438-25.464843-56.773438-61.726562h56.773438zm0 0" fill="#495059"/><path d="m293.273438 305.542969h-293.273438v-29.015625c0-9.03125 7.324219-16.351563 16.351562-16.351563h260.566407c9.03125 0 16.351562 7.320313 16.351562 16.351563v29.015625zm0 0" fill="#f8eed1"/><path d="m95.203125 260.175781h-78.851563c-9.027343 0-16.351562 7.320313-16.351562 16.351563v29.015625h96.792969c-.972657-14.40625-1.507813-29.519531-1.589844-45.367188zm0 0" fill="#f0e3c0"/><path d="m25.214844 493.332031c-4.144532 0-7.5-3.355469-7.5-7.5v-98.800781c0-4.144531 3.355468-7.5 7.5-7.5 4.144531 0 7.5 3.355469 7.5 7.5v98.800781c0 4.144531-3.355469 7.5-7.5 7.5zm0 0" fill="#fae37b"/><path d="m268.058594 493.332031c-4.144532 0-7.5-3.355469-7.5-7.5v-98.800781c0-4.144531 3.355468-7.5 7.5-7.5 4.144531 0 7.5 3.355469 7.5 7.5v98.800781c0 4.144531-3.355469 7.5-7.5 7.5zm0 0" fill="#fae37b"/><path d="m169.179688 100.902344h-45.089844c-4.140625 0-7.5-3.359375-7.5-7.5 0-4.144532 3.359375-7.5 7.5-7.5h45.089844c4.144531 0 7.5 3.355468 7.5 7.5 0 4.140625-3.355469 7.5-7.5 7.5zm0 0" fill="#f8eed1"/><path d="m34.652344 138.070312h49.066406v37.53125h-49.066406zm0 0" fill="#fae37b"/><path d="m47.757812 138.070312h-13.105468v37.53125h24.339844c-4.308594-11.871093-8.035157-24.570312-11.234376-37.53125zm0 0" fill="#f0d66a"/><path d="m34.652344 175.601562h49.066406v24.53125h-49.066406zm0 0" fill="#f1a18f"/><path d="m209.554688 138.070312h49.066406v37.53125h-49.066406zm0 0" fill="#fae37b"/><path d="m209.554688 175.601562h49.066406v24.53125h-49.066406zm0 0" fill="#f1a18f"/><path d="m139.136719 260.175781h15v45.367188h-15zm0 0" fill="#f0e3c0"/><path d="m49.277344 260.175781h15v45.367188h-15zm0 0" fill="#f8eed1"/><path d="m228.996094 260.175781h15v45.367188h-15zm0 0" fill="#f0e3c0"/><path d="m58.992188 175.601562h-24.339844v24.53125h34.777344c-3.804688-7.585937-7.277344-15.832031-10.4375-24.53125zm0 0" fill="#e09686"/><g fill="#fae37b"><path d="m66.765625 25.394531c0 4.183594-3.394531 7.578125-7.582031 7.578125-4.183594 0-7.578125-3.394531-7.578125-7.578125 0-4.1875 3.394531-7.582031 7.578125-7.582031 4.1875 0 7.582031 3.394531 7.582031 7.582031zm0 0"/><path d="m241.667969 25.394531c0 4.183594-3.394531 7.578125-7.582031 7.578125-4.183594 0-7.578126-3.394531-7.578126-7.578125 0-4.1875 3.394532-7.582031 7.578126-7.582031 4.1875 0 7.582031 3.394531 7.582031 7.582031zm0 0"/></g></svg>