<svg height="511pt" viewBox="0 -58 511.9996 511" width="511pt" xmlns="http://www.w3.org/2000/svg"><path d="m49.535156 48.675781c8.960938 8.960938 22.101563 10.351563 33.410156-.960937 8.496094-8.496094 12.546876-19.105469 14.429688-28.210938 2.300781-11.140625-7.527344-20.96875-18.667969-18.667968-9.105469 1.882812-19.714843 5.929687-28.210937 14.429687-11.3125 11.308594-9.921875 24.449219-.960938 33.410156zm0 0" fill="#f8eed1"/><path d="m82.945312 47.714844c1.621094-1.621094 3.082032-3.320313 4.394532-5.074219-13.183594-3.273437-23.5625-25.792969-12.179688-40.972656-8.230468 2.15625-17.25 6.183593-24.664062 13.597656-11.3125 11.308594-9.921875 24.449219-.960938 33.410156 8.960938 8.960938 22.101563 10.351563 33.410156-.960937zm0 0" fill="#f0e3c0"/><path d="m259.90625 90.738281c12.480469-2.203125 21.15625-12.167969 18.378906-27.921875-2.089844-11.832031-8.457031-21.234375-14.835937-28-7.804688-8.277344-21.492188-5.863281-25.996094 4.585938-3.683594 8.535156-6.453125 19.546875-4.363281 31.382812 2.777344 15.753906 14.335937 22.152344 26.816406 19.953125zm0 0" fill="#f8eed1"/><path d="m277.210938 77.355469c-16.695313-5.820313-32.035157-24.335938-29.902344-46.804688-4.195313 1.285157-7.898438 4.304688-9.855469 8.851563-3.683594 8.535156-6.453125 19.550781-4.363281 31.382812 2.777344 15.753906 14.335937 22.152344 26.816406 19.953125 8.03125-1.417969 14.464844-6.066406 17.304688-13.382812zm0 0" fill="#f0e3c0"/><path d="m189.078125 54.308594c8.148437-9.707032 8.386719-22.917969-3.867187-33.199219-9.207032-7.726563-20.128907-10.832031-29.363282-11.914063-11.296875-1.324218-20.230468 9.328126-16.96875 20.222657 2.671875 8.90625 7.628906 19.121093 16.832032 26.847656 12.253906 10.28125 25.222656 7.75 33.367187-1.957031zm0 0" fill="#f8eed1"/><path d="m157.679688 9.4375c-.617188-.089844-1.226563-.171875-1.832032-.242188-11.296875-1.324218-20.230468 9.324219-16.96875 20.222657 2.667969 8.90625 7.628906 19.121093 16.832032 26.847656 12.253906 10.28125 25.222656 7.75 33.367187-1.953125 1.535156-1.828125 2.789063-3.78125 3.730469-5.816406-30.289063-4.617188-35.855469-25.59375-35.128906-39.058594zm0 0" fill="#f0e3c0"/><path d="m268.03125 66.210938c-67.734375-26.445313-140.042969-39.195313-212.738281-37.507813-25.890625.597656-44.597657 24.984375-38.460938 50.148437 2.832031 11.617188 3.222657 23.695313 1.144531 35.472657l-17.179687 97.429687c-4.976563 28.234375 13.875 55.164063 42.113281 60.144532l153.582032 27.078124c28.238281 4.980469 55.164062-13.875 60.144531-42.113281l17.179687-97.429687c2.074219-11.773438 6.574219-22.988282 13.207032-32.9375 14.371093-21.550782 5.136718-50.863282-18.992188-60.285156zm0 0" fill="#ad9386"/><g fill="#998377"><path d="m232.84375 291.976562c-147.652344-12.257812-185.492188-173.480468-153.53125-263.296874-7.996094-.164063-16.003906-.164063-24.019531.019531-25.890625.601562-44.597657 24.988281-38.460938 50.152343 2.832031 11.617188 3.222657 23.695313 1.144531 35.46875l-17.179687 97.429688c-4.976563 28.238281 13.878906 55.167969 42.113281 60.144531l153.582032 27.082031c13.085937 2.308594 25.882812-.511718 36.351562-7zm0 0"/><path d="m156.769531 225.191406c0 4.105469-3.328125 7.433594-7.433593 7.433594-4.105469 0-7.433594-3.328125-7.433594-7.433594 0-4.109375 3.328125-7.4375 7.433594-7.4375 4.105468 0 7.433593 3.328125 7.433593 7.4375zm0 0"/><path d="m251.320312 102.878906c0 4.105469-3.328124 7.4375-7.433593 7.4375s-7.433594-3.332031-7.433594-7.4375c0-4.105468 3.328125-7.433594 7.433594-7.433594s7.433593 3.328126 7.433593 7.433594zm0 0"/><path d="m131.289062 67.214844c0 4.105468-3.328124 7.433594-7.433593 7.433594s-7.433594-3.328126-7.433594-7.433594c0-4.105469 3.328125-7.433594 7.433594-7.433594s7.433593 3.328125 7.433593 7.433594zm0 0"/></g><path d="m49.84375 227.464844c0 4.105468-3.328125 7.433594-7.433594 7.433594-4.105468 0-7.433594-3.328126-7.433594-7.433594 0-4.105469 3.328126-7.433594 7.433594-7.433594 4.105469 0 7.433594 3.328125 7.433594 7.433594zm0 0" fill="#ad9386"/><path d="m93.800781 167.734375c2.050781-11.640625-8.132812-23.164063-22.75-25.738281-14.613281-2.578125-28.125 4.769531-30.179687 16.40625-2.050782 11.640625 8.136718 23.164062 22.75 25.738281 14.617187 2.578125 28.128906-4.769531 30.179687-16.40625zm0 0" fill="#f1a18f"/><path d="m184.292969 183.714844c-2.050781 11.636718 8.132812 23.160156 22.75 25.738281 14.613281 2.574219 28.125-4.769531 30.179687-16.410156 2.050782-11.636719-8.136718-23.160157-22.75-25.738281-14.617187-2.574219-28.128906 4.769531-30.179687 16.410156zm0 0" fill="#f1a18f"/><path d="m76.148438 146.46875c-.433594 0-.871094-.035156-1.3125-.113281-4.078126-.71875-6.804688-4.609375-6.082032-8.6875l2-11.359375c.71875-4.078125 4.613282-6.804688 8.6875-6.082032 4.078125.71875 6.804688 4.605469 6.085938 8.6875l-2.003906 11.359376c-.640626 3.636718-3.804688 6.195312-7.375 6.195312zm0 0" fill="#495059"/><path d="m163.246094 163.28125c2.324218-13.1875-5.34375-25.558594-17.125-27.636719-11.785156-2.078125-23.21875 6.925781-25.542969 20.113281-2.328125 13.1875 5.339844 25.558594 17.125 27.636719s23.21875-6.929687 25.542969-20.113281zm0 0" fill="#495059"/><path d="m210.742188 170.203125c-.433594 0-.871094-.035156-1.3125-.113281-4.078126-.71875-6.804688-4.609375-6.082032-8.6875l2-11.359375c.722656-4.078125 4.605469-6.804688 8.691406-6.082031 4.078126.71875 6.800782 4.609374 6.082032 8.6875l-2.003906 11.355468c-.640626 3.640625-3.804688 6.199219-7.375 6.199219zm0 0" fill="#495059"/><path d="m341.210938 161.328125-215.839844 78.558594c-49.710938 18.09375-89.335938 56.542969-108.917969 105.6875-5.714844 14.332031-1.902344 30.707031 9.554687 41.042969 10.679688 9.636718 25.804688 12.585937 39.320313 7.664062l421.121094-153.273438c13.515625-4.917968 23.207031-16.902343 25.195312-31.148437 2.132813-15.28125-5.472656-30.277344-19.0625-37.585937-46.589843-25.054688-101.660156-29.039063-151.371093-10.945313zm0 0" fill="#ddaf89"/><path d="m165.753906 225.191406-40.378906 14.695313c-49.710938 18.09375-89.339844 56.542969-108.921875 105.6875-5.710937 14.332031-1.902344 30.707031 9.554687 41.042969 10.679688 9.636718 25.804688 12.585937 39.320313 7.667968l192.019531-69.890625c-62.160156-5.96875-99.53125-60.089843-91.59375-99.203125zm0 0" fill="#c9a07d"/><path d="m453.773438 220.03125c0 4.105469-3.328126 7.433594-7.433594 7.433594-4.105469 0-7.433594-3.328125-7.433594-7.433594s3.328125-7.433594 7.433594-7.433594c4.105468 0 7.433594 3.328125 7.433594 7.433594zm0 0" fill="#c9a07d"/><path d="m326.773438 212.597656c0 4.105469-3.328126 7.433594-7.433594 7.433594-4.105469 0-7.433594-3.328125-7.433594-7.433594 0-4.105468 3.328125-7.433594 7.433594-7.433594 4.105468 0 7.433594 3.328126 7.433594 7.433594zm0 0" fill="#c9a07d"/><path d="m82.574219 336.683594c0 4.105468-3.328125 7.433594-7.433594 7.433594s-7.433594-3.328126-7.433594-7.433594c0-4.105469 3.328125-7.433594 7.433594-7.433594s7.433594 3.328125 7.433594 7.433594zm0 0" fill="#ddaf89"/><path d="m212.691406 208.105469 15.339844 27.796875c4.097656 7.429687 12.996094 10.765625 20.96875 7.863281s12.644531-11.179687 11.007812-19.503906l-6.117187-31.152344zm0 0" fill="#f8eed1"/><path d="m125.371094 239.886719c-13.996094 5.097656-27.195313 11.804687-39.371094 19.910156l18.761719 40.820313c4.066406 8.851562 14.25 13.101562 23.40625 9.769531s14.222656-13.132813 11.648437-22.53125l-13.257812-48.398438zm0 0" fill="#f0e3c0"/><path d="m341.210938 161.328125c13.996093-5.09375 28.417968-8.4375 42.957031-10.054687l11.867187 43.324218c2.574219 9.398438-2.492187 19.199219-11.648437 22.53125-9.160157 3.335938-19.339844-.917968-23.410157-9.769531l-20.953124-45.601563zm0 0" fill="#f8eed1"/><path d="m232.484375 300.371094c-3.070313-8.425782-14.132813-12.136719-24.714844-8.285156-10.585937 3.851562-16.675781 13.804687-13.609375 22.234374 3.066406 8.429688 14.132813 12.136719 24.714844 8.285157 10.582031-3.851563 16.675781-13.804688 13.609375-22.234375zm0 0" fill="#fff"/><path d="m298.03125 276.5c3.070312 8.429688 14.132812 12.140625 24.714844 8.289062 10.585937-3.851562 16.675781-13.808593 13.609375-22.234374-3.066407-8.429688-14.132813-12.136719-24.714844-8.285157-10.582031 3.851563-16.675781 13.804688-13.609375 22.230469zm0 0" fill="#fff"/><path d="m218.957031 295.554688c-3.066406 0-5.941406-1.890626-7.050781-4.9375l-2.460938-6.765626c-1.417968-3.894531.589844-8.195312 4.480469-9.613281 3.894531-1.414062 8.199219.589844 9.613281 4.480469l2.464844 6.769531c1.414063 3.890625-.59375 8.195313-4.484375 9.613281-.847656.308594-1.710937.453126-2.5625.453126zm0 0" fill="#495059"/><path d="m300.480469 265.878906c-3.0625 0-5.9375-1.890625-7.046875-4.933594l-2.464844-6.769531c-1.414062-3.890625.59375-8.195312 4.484375-9.609375 3.890625-1.417968 8.195313.589844 9.613281 4.480469l2.460938 6.765625c1.417968 3.894531-.589844 8.195312-4.480469 9.613281-.847656.308594-1.710937.453125-2.566406.453125zm0 0" fill="#495059"/><path d="m256.429688 286.824219c-3.796876 0-7.578126-.953125-10.976563-2.832031-3.625-2.003907-4.941406-6.570313-2.9375-10.195313s6.570313-4.9375 10.191406-2.933594c1.945313 1.074219 4.253907 1.257813 6.339844.5 2.078125-.753906 3.730469-2.378906 4.527344-4.453125 1.488281-3.867187 5.832031-5.792968 9.695312-4.304687s5.789063 5.828125 4.304688 9.691406c-2.359375 6.125-7.242188 10.921875-13.398438 13.164063-2.511719.914062-5.132812 1.363281-7.746093 1.363281zm0 0" fill="#495059"/></svg>