<svg height="512pt" viewBox="-142 0 512 512.001" width="512pt" xmlns="http://www.w3.org/2000/svg"><path d="m163.914062 132.636719v-97.847657h-99.269531v97.847657c0 7.726562-3.113281 15.125-8.640625 20.527343l-25.089844 24.535157c-19.769531 19.328125-30.914062 45.808593-30.914062 73.457031v210.625c0 27.738281 22.484375 50.21875 50.21875 50.21875h128.121094c27.734375 0 50.21875-22.480469 50.21875-50.21875v-210.625c0-27.648438-11.144532-54.128906-30.914063-73.460938l-25.089843-24.53125c-5.527344-5.402343-8.640626-12.804687-8.640626-20.527343zm0 0" fill="#7dad91"/><path d="m178.339844 512c11.824218 0 22.683594-4.097656 31.261718-10.933594-119.609374-38.753906-121.039062-350.347656-120.347656-466.277344h-24.613281v97.847657c0 7.722656-3.113281 15.125-8.636719 20.527343l-25.089844 24.53125c-19.769531 19.332032-30.914062 45.8125-30.914062 73.460938v210.625c0 27.734375 22.484375 50.21875 50.21875 50.21875zm0 0" fill="#6e9981"/><path d="m167.269531 43.835938-10.160156-3.890626c-6.46875-2.472656-13.621094-2.472656-20.089844 0l-5.785156 2.214844c-10.917969 4.179688-22.992187 4.179688-33.910156 0l-5.789063-2.214844c-6.464844-2.472656-13.621094-2.472656-20.085937 0l-10.164063 3.890626c-6.066406 2.320312-12.578125-2.160157-12.578125-8.65625v-20.199219c0-8.273438 6.707031-14.980469 14.980469-14.980469h101.179688c8.273437 0 14.984374 6.707031 14.984374 14.980469v20.199219c0 6.496093-6.511718 10.976562-12.582031 8.65625zm0 0" fill="#dfe3e5"/><path d="m63.6875 0c-8.273438 0-14.980469 6.707031-14.980469 14.980469v20.199219c0 6.496093 6.511719 10.976562 12.578125 8.65625l10.164063-3.890626c6.464843-2.472656 13.621093-2.472656 20.085937 0l5.789063 2.214844c7.921875 3.035156 16.457031 3.851563 24.714843 2.484375-14.90625-8.445312-24.179687-30.71875-18.84375-44.644531zm0 0" fill="#cacdcf"/><path d="m114.277344 259.167969c-33.417969 0-60.511719 27.09375-60.511719 60.511719v72.765624c0 33.417969 27.09375 60.511719 60.511719 60.511719 33.421875 0 60.511718-27.09375 60.511718-60.511719v-72.765624c.003907-33.417969-27.089843-60.511719-60.511718-60.511719zm0 0" fill="#f8eed1"/><path d="m0 322.882812h228.554688v66.363282h-228.554688zm0 0" fill="#495059"/><path d="m114.277344 259.167969c-33.417969 0-60.511719 27.09375-60.511719 60.511719v72.765624c0 33.417969 27.09375 60.511719 60.511719 60.511719 33.421875 0 60.511718-27.09375 60.511718-60.511719v-72.765624c.003907-33.417969-27.089843-60.511719-60.511718-60.511719zm0 0" fill="#f8eed1"/><path d="m114.277344 452.957031c12.359375 0 23.84375-3.710937 33.421875-10.070312-25.65625-46.492188-40.15625-113.574219-48.300781-181.871094-26.226563 6.632813-45.632813 30.378906-45.632813 58.664063v72.765624c0 33.417969 27.09375 60.511719 60.511719 60.511719zm0 0" fill="#f0e3c0"/><path d="m139.148438 385.414062h-49.738282c-4.144531 0-7.5-3.355468-7.5-7.5 0-4.140624 3.355469-7.5 7.5-7.5h49.738282c4.140624 0 7.5 3.359376 7.5 7.5 0 4.144532-3.359376 7.5-7.5 7.5zm0 0" fill="#495059"/><path d="m126.773438 417.003906h-24.988282c-4.144531 0-7.5-3.359375-7.5-7.5 0-4.144531 3.355469-7.5 7.5-7.5h24.988282c4.144531 0 7.5 3.355469 7.5 7.5 0 4.140625-3.355469 7.5-7.5 7.5zm0 0" fill="#495059"/><path d="m75.617188 230.152344c0-9.941406-10.121094-18.003906-22.605469-18.003906s-22.605469 8.0625-22.605469 18.003906 10.121094 18 22.605469 18 22.605469-8.058594 22.605469-18zm0 0" fill="#f1a18f"/><path d="m198.152344 230.152344c0-9.941406-10.121094-18.003906-22.609375-18.003906-12.484375 0-22.605469 8.0625-22.605469 18.003906s10.121094 18 22.605469 18c12.488281 0 22.609375-8.058594 22.609375-18zm0 0" fill="#f1a18f"/><path d="m66.1875 219.695312c-4.144531 0-7.5-3.359374-7.5-7.5v-7.984374c0-4.140626 3.355469-7.5 7.5-7.5 4.140625 0 7.5 3.359374 7.5 7.5v7.984374c0 4.140626-3.359375 7.5-7.5 7.5zm0 0" fill="#495059"/><path d="m162.371094 219.695312c-4.144532 0-7.5-3.359374-7.5-7.5v-7.984374c0-4.140626 3.355468-7.5 7.5-7.5 4.140625 0 7.5 3.359374 7.5 7.5v7.984374c0 4.140626-3.359375 7.5-7.5 7.5zm0 0" fill="#495059"/><path d="m114.277344 225.824219c-7.023438 0-13.707032-3.042969-18.332032-8.347657-2.722656-3.125-2.394531-7.863281.726563-10.582031 3.121094-2.722656 7.859375-2.398437 10.582031.726563 1.773438 2.035156 4.335938 3.203125 7.023438 3.203125 2.691406 0 5.25-1.167969 7.023437-3.203125 2.722657-3.125 7.457031-3.449219 10.582031-.726563 3.125 2.71875 3.449219 7.457031.730469 10.582031-4.625 5.304688-11.308593 8.347657-18.335937 8.347657zm0 0" fill="#495059"/><path d="m142.230469 319.679688c0 15.4375-12.515625 27.953124-27.953125 27.953124s-27.953125-12.515624-27.953125-27.953124 12.515625-27.953126 27.953125-27.953126 27.953125 12.515626 27.953125 27.953126zm0 0" fill="#f1a18f"/><path d="m103.839844 293.75c-10.265625 4.136719-17.515625 14.183594-17.515625 25.929688 0 15.339843 12.355469 27.785156 27.65625 27.945312-3.976563-17.371094-7.324219-35.460938-10.140625-53.875zm0 0" fill="#e09686"/><g fill="#7dad91"><path d="m114.277344 494.683594c-4.140625 0-7.5-3.355469-7.5-7.5v-9.410156c0-4.140626 3.359375-7.5 7.5-7.5 4.144531 0 7.5 3.359374 7.5 7.5v9.410156c0 4.144531-3.355469 7.5-7.5 7.5zm0 0"/><path d="m63.164062 494.683594c-4.140624 0-7.5-3.355469-7.5-7.5v-9.410156c0-4.140626 3.359376-7.5 7.5-7.5 4.144532 0 7.5 3.359374 7.5 7.5v9.410156c0 4.144531-3.355468 7.5-7.5 7.5zm0 0"/><path d="m165.390625 494.683594c-4.140625 0-7.5-3.355469-7.5-7.5v-9.410156c0-4.140626 3.359375-7.5 7.5-7.5 4.144531 0 7.5 3.359374 7.5 7.5v9.410156c0 4.144531-3.355469 7.5-7.5 7.5zm0 0"/></g></svg>