<svg height="512pt" viewBox="0 0 512.001 512" width="512pt" xmlns="http://www.w3.org/2000/svg"><path d="m295.011719 364.492188c0 81.46875-66.039063 147.507812-147.503907 147.507812-81.464843 0-147.507812-66.039062-147.507812-147.507812 0-81.464844 66.042969-147.503907 147.507812-147.503907 81.464844 0 147.503907 66.039063 147.503907 147.503907zm0 0" fill="#ad9386"/><path d="m198.257812 503.019531c-127.441406-56.035156-122.925781-238.449219.84375-276.746093-52.433593-19.535157-113.746093-8.234376-155.898437 33.917968-57.605469 57.605469-57.605469 151 0 208.605469 41.925781 41.925781 102.808594 53.328125 155.054687 34.222656zm0 0" fill="#998377"/><path d="m48.640625 255.023438c-1.84375 1.667968-3.65625 3.390624-5.4375 5.167968-1.777344 1.78125-3.5 3.59375-5.167969 5.4375l22.191406 22.191406c1.464844 1.464844 3.382813 2.195313 5.300782 2.195313 1.921875 0 3.839844-.730469 5.304687-2.195313 2.929688-2.929687 2.929688-7.679687 0-10.605468zm98.867187 217.90625c-4.144531 0-7.5 3.355468-7.5 7.5v31.375c4.996094.253906 10 .253906 15 0v-31.375c0-4.144532-3.359374-7.5-7.5-7.5zm-115.933593-115.9375h-31.378907c-.2539058 5-.2539058 10.003906 0 15h31.378907c4.140625 0 7.5-3.355469 7.5-7.5 0-4.140626-3.359375-7.5-7.5-7.5zm263.242187 0h-31.375c-4.144531 0-7.5 3.359374-7.5 7.5 0 4.144531 3.355469 7.5 7.5 7.5h31.375c.253906-4.996094.253906-10 0-15zm-70.636718 84.175781c-2.929688 2.929687-2.929688 7.679687 0 10.605469l22.191406 22.191406c1.84375-1.667969 3.660156-3.390625 5.4375-5.167969 1.777344-1.78125 3.5-3.59375 5.171875-5.4375l-22.191407-22.191406c-2.929687-2.929688-7.679687-2.929688-10.609374 0zm-84.171876-223.984375v31.378906c0 4.140625 3.355469 7.5 7.5 7.5 4.140626 0 7.5-3.359375 7.5-7.5v-31.378906c-5-.253906-10.003906-.253906-15 0zm0 0" fill="#dfe3e5"/><path d="m379.679688 91.0625 41.253906 41.253906-205.824219 205.824219-41.253906-41.253906zm0 0" fill="#ddaf89"/><path d="m379.679688 91.0625 41.253906 41.253906-18.679688 18.675782-41.25-41.253907zm0 0" fill="#c9a07d"/><path d="m474.015625 140.03125c-1.917969 0-3.835937-.734375-5.304687-2.195312l-94.542969-94.546876c-2.929688-2.929687-2.929688-7.679687 0-10.609374 2.929687-2.925782 7.675781-2.925782 10.605469 0l94.546874 94.546874c2.929688 2.929688 2.929688 7.679688 0 10.609376-1.464843 1.460937-3.382812 2.195312-5.304687 2.195312zm0 0" fill="#495059"/><path d="m504.304688 109.742188c-1.921876 0-3.839844-.730469-5.304688-2.195313l-94.546875-94.542969c-2.929687-2.933594-2.929687-7.679687 0-10.609375 2.929687-2.929687 7.675781-2.929687 10.609375 0l94.542969 94.546875c2.929687 2.929688 2.929687 7.675782 0 10.605469-1.464844 1.464844-3.382813 2.195313-5.300781 2.195313zm0 0" fill="#495059"/><path d="m506.859375 51.933594-46.792969-46.792969c-6.855468-6.855469-17.96875-6.855469-24.820312 0l-58.335938 58.332031c-6.851562 6.855469-6.851562 17.96875 0 24.824219l46.792969 46.792969c6.855469 6.851562 17.96875 6.851562 24.824219 0l58.332031-58.332032c6.855469-6.855468 6.855469-17.96875 0-24.824218zm0 0" fill="#ad9386"/><path d="m376.914062 88.296875 46.792969 46.792969c1.984375 1.984375 4.328125 3.375 6.820313 4.210937-20.410156-47.695312 11.757812-105.089843 37.386718-126.316406l-7.847656-7.84375c-6.851562-6.855469-17.964844-6.855469-24.820312 0l-58.332032 58.332031c-6.855468 6.855469-6.855468 17.96875 0 24.824219zm0 0" fill="#998377"/><g fill="#495059"><path d="m255.546875 215.199219 41.25 41.25-10.605469 10.605469-41.25-41.25zm0 0"/><path d="m301.503906 169.238281 41.253906 41.253907-10.609374 10.605468-41.25-41.25zm0 0"/><path d="m347.460938 123.28125 41.253906 41.25-10.609375 10.609375-41.25-41.253906zm0 0"/></g><path d="m263.441406 364.492188c0 64.03125-51.90625 115.9375-115.933594 115.9375-64.03125 0-115.933593-51.90625-115.933593-115.9375 0-64.027344 51.902343-115.933594 115.933593-115.933594 64.027344 0 115.933594 51.90625 115.933594 115.933594zm0 0" fill="#f8eed1"/><path d="m160.277344 479.71875c-73.777344-61.035156-73.496094-176.53125-4.566406-230.867188-32.339844-2.28125-65.457032 8.9375-90.179688 33.664063-45.277344 45.277344-45.277344 118.679687 0 163.957031 25.886719 25.890625 60.976562 36.96875 94.746094 33.246094zm0 0" fill="#f0e3c0"/><path d="m135.382812 324.859375c6.65625-6.65625 5.277344-18.824219-3.082031-27.183594-8.355469-8.355469-20.527343-9.734375-27.183593-3.082031-6.652344 6.65625-5.273438 18.828125 3.082031 27.183594 8.359375 8.359375 20.527343 9.738281 27.183593 3.082031zm0 0" fill="#f1a18f"/><path d="m187.136719 376.625c-6.652344 6.652344-5.273438 18.824219 3.082031 27.179688 8.359375 8.359374 20.527344 9.738281 27.183594 3.082031s5.273437-18.824219-3.082032-27.179688c-8.355468-8.359375-20.527343-9.738281-27.183593-3.082031zm0 0" fill="#f1a18f"/><path d="m141.089844 314.027344c-1.917969 0-3.839844-.730469-5.304688-2.195313-2.925781-2.929687-2.925781-7.679687 0-10.609375l5.34375-5.34375c2.929688-2.925781 7.679688-2.925781 10.609375 0 2.925781 2.929688 2.925781 7.679688 0 10.609375l-5.34375 5.34375c-1.464843 1.464844-3.386719 2.195313-5.304687 2.195313zm0 0" fill="#495059"/><path d="m205.472656 378.410156c-1.917968 0-3.839844-.730468-5.304687-2.195312-2.925781-2.929688-2.925781-7.679688 0-10.605469l5.347656-5.34375c2.925781-2.929687 7.675781-2.929687 10.605469 0 2.925781 2.929687 2.925781 7.675781 0 10.605469l-5.34375 5.34375c-1.464844 1.464844-3.382813 2.195312-5.304688 2.195312zm0 0" fill="#495059"/><path d="m180.433594 354.980469c-6.191406 0-12.152344-2.449219-16.558594-6.855469-4.785156-4.785156-7.265625-11.40625-6.800781-18.171875.285156-4.128906 3.859375-7.234375 7.996093-6.96875 4.132813.285156 7.253907 3.863281 6.96875 7.996094-.167968 2.4375.722657 4.820312 2.441407 6.539062s4.101562 2.605469 6.535156 2.441407c4.140625-.273438 7.714844 2.835937 8 6.96875.28125 4.132812-2.835937 7.710937-6.96875 7.996093-.539063.039063-1.078125.054688-1.613281.054688zm0 0" fill="#495059"/><path d="m77.121094 314.46875c-25.394532 32.695312-20.910156 80.828125 9.335937 111.074219l-20.929687 20.929687c-43.886719-43.890625-45.230469-114.214844-4.027344-159.71875 2.167969-2.398437 5.914062-2.445312 8.1875-.148437 6.722656 6.792969 15.488281 17.5 7.433594 27.863281zm0 0" fill="#ddaf89"/><path d="m53.601562 392.339844-12.964843 17.167968c5.652343 13.433594 13.949219 26.019532 24.890625 36.964844l20.929687-20.929687c-11.566406-11.566407-19.351562-25.753907-23.152343-40.6875-3.804688 1.566406-7.167969 4.128906-9.703126 7.484375zm0 0" fill="#c9a07d"/><path d="m112.683594 432.835938-33.519532-33.519532c-4.265624-4.261718-11.3125-3.773437-14.949218 1.039063l-35 46.339843c-4.238282 5.617188-3.691406 13.503907 1.285156 18.480469l16.324219 16.324219c4.976562 4.976562 12.863281 5.523438 18.480469 1.28125l46.339843-34.996094c4.8125-3.636718 5.300781-10.683594 1.039063-14.949218zm0 0" fill="#495059"/><path d="m145.40625 426.148438c-1.917969 0-3.839844-.730469-5.304688-2.195313l-52.054687-52.054687c-2.925781-2.929688-2.925781-7.679688 0-10.609376 2.929687-2.925781 7.679687-2.925781 10.609375 0l52.050781 52.058594c2.929688 2.929688 2.929688 7.675782 0 10.605469-1.460937 1.464844-3.382812 2.195313-5.300781 2.195313zm0 0" fill="#cacdcf"/></svg>