<svg height="512pt" viewBox="-69 0 512 512" width="512pt" xmlns="http://www.w3.org/2000/svg"><path d="m63.683594 455.660156-.839844-59.296875c-.453125-32.074219-4.515625-64-12.105469-95.167969l-7.929687-32.566406c-5.953125-24.449218-8.960938-49.523437-8.960938-74.683594v-86.789062c0-14.164062 11.480469-25.644531 25.644532-25.644531h254.648437c14.164063 0 25.644531 11.480469 25.644531 25.644531v86.789062c0 25.160157-3.007812 50.234376-8.960937 74.683594l-7.929688 32.566406c-7.589843 31.167969-11.652343 63.09375-12.105469 95.167969l-.839843 59.296875c-.441407 31.242188-25.894531 56.339844-57.140625 56.339844h-131.984375c-31.246094 0-56.699219-25.097656-57.140625-56.339844zm0 0" fill="#9cd6e3"/><path d="m314.136719 81.511719h-254.644531c-14.164063 0-25.644532 11.480469-25.644532 25.644531v86.785156c0 25.164063 3.007813 50.238282 8.960938 74.6875l7.929687 32.566406c7.589844 31.167969 11.652344 63.09375 12.105469 95.167969l.839844 59.296875c.441406 31.242188 25.894531 56.339844 57.140625 56.339844h131.984375c15.648437 0 29.84375-6.296875 40.171875-16.507812-109.734375-53.367188-137.203125-151.019532-143.191407-250.390626-.226562-3.789062 3.023438-6.761718 6.800782-6.382812 1.003906.097656 2.027344.152344 3.058594.152344 16.777343 0 30.375-13.601563 30.375-30.378906v-23.203126c0-4.914062 3.695312-9.066406 8.582031-9.570312 11.789062-1.210938 22.832031-4.246094 32.636719-8.875 9.453124-4.460938 20.386718-4.960938 30.085937-1.066406 10.011719 4.015625 21.132813 6.257812 32.847656 6.257812 16.976563 0 32.695313-4.714844 45.609375-12.714844v-52.164062c0-14.164062-11.480468-25.644531-25.648437-25.644531zm0 0" fill="#8bc7d6"/><path d="m299.285156 122.011719h-224.9375v67.074219c0 25.160156 3.007813 50.234374 8.960938 74.679687l7.863281 32.292969c7.589844 31.167968 11.648437 63.089844 12.101563 95.164062l.816406 57.652344c.179687 12.546875 10.398437 22.625 22.945312 22.625h119.5625c12.546875 0 22.769532-10.078125 22.945313-22.625l.816406-57.652344c.453125-32.074218 4.511719-63.996094 12.101563-95.164062l7.863281-32.292969c5.953125-24.445313 8.960937-49.519531 8.960937-74.679687zm0 0" fill="#fae37b"/><g fill="#f0d66a"><path d="m299.285156 122.011719h-224.9375v67.074219c0 25.160156 3.007813 50.234374 8.960938 74.679687l7.863281 32.292969c7.589844 31.167968 11.648437 63.089844 12.101563 95.164062l.816406 57.65625c.179687 12.542969 10.398437 22.621094 22.945312 22.621094h119.5625c1.835938 0 3.617188-.238281 5.332032-.648438-75.878907-55.839843-96.980469-140.15625-102.140626-225.75-.226562-3.789062 3.023438-6.761718 6.800782-6.382812 1.007812.097656 2.027344.152344 3.058594.152344 16.777343 0 30.378906-13.601563 30.378906-30.378906v-23.203126c0-4.914062 3.691406-9.066406 8.578125-9.570312 11.792969-1.210938 22.832031-4.246094 32.640625-8.875 9.453125-4.460938 20.382812-4.960938 30.082031-1.066406 10.011719 4.015625 21.132813 6.257812 32.847656 6.257812 1.71875 0 3.417969-.0625 5.109375-.15625zm0 0"/><path d="m277.632812 209.496094c0 4.144531-3.359374 7.503906-7.503906 7.503906-4.144531 0-7.503906-3.359375-7.503906-7.503906 0-4.144532 3.359375-7.503906 7.503906-7.503906 4.144532 0 7.503906 3.359374 7.503906 7.503906zm0 0"/><path d="m225.601562 325.257812c0 4.140626-3.359374 7.5-7.5 7.5-4.144531 0-7.503906-3.359374-7.503906-7.5 0-4.144531 3.359375-7.503906 7.503906-7.503906 4.140626 0 7.5 3.359375 7.5 7.503906zm0 0"/></g><path d="m108.234375 186.691406c0 4.144532-3.359375 7.503906-7.503906 7.503906s-7.503907-3.359374-7.503907-7.503906c0-4.144531 3.359376-7.503906 7.503907-7.503906s7.503906 3.359375 7.503906 7.503906zm0 0" fill="#fae37b"/><path d="m153.273438 370.203125c0 4.144531-3.359376 7.503906-7.503907 7.503906s-7.503906-3.359375-7.503906-7.503906c0-4.140625 3.359375-7.5 7.503906-7.5s7.503907 3.359375 7.503907 7.5zm0 0" fill="#fae37b"/><path d="m103.503906 407.484375.585938 41.390625c.175781 12.546875 10.398437 22.625 22.945312 22.625h119.558594c12.546875 0 22.769531-10.078125 22.945312-22.625l.585938-41.390625zm0 0" fill="#f7cf66"/><path d="m193.449219 407.484375h-89.945313l.585938 41.390625c.179687 12.546875 10.398437 22.625 22.945312 22.625h119.5625c1.835938 0 3.617188-.238281 5.328125-.648438-24.953125-18.363281-43.992187-39.808593-58.476562-63.367187zm0 0" fill="#ebc35c"/><path d="m294.175781 11.417969c-10.230469 0-20.003906 1.710937-28.980469 4.820312-10.558593 3.660157-22.136718 2.0625-31.753906-3.628906-13.484375-7.984375-29.476562-12.609375-46.625-12.609375-17.148437 0-33.140625 4.625-46.628906 12.609375-9.617188 5.691406-21.191406 7.289063-31.75 3.628906-8.976562-3.109375-18.75-4.820312-28.980469-4.820312-43.882812 0-79.457031 31.382812-79.457031 70.09375 0 38.710937 35.574219 70.089843 79.457031 70.089843 11.996094 0 23.367188-2.347656 33.5625-6.546874 2.140625-.882813 4.34375-1.527344 6.574219-1.945313 5.019531-.933594 9.679688 2.851563 9.679688 7.957031v36.996094c0 16.777344 13.597656 30.375 30.375 30.375 16.777343 0 30.375-13.597656 30.375-30.375v-23.207031c0-4.957031 3.769531-9.066407 8.699218-9.578125 11.898438-1.238282 23.03125-4.332032 32.898438-9.042969 9.378906-4.480469 20.265625-4.648437 29.921875-.804687 9.953125 3.964843 21 6.171874 32.632812 6.171874 43.882813 0 79.457031-31.378906 79.457031-70.089843 0-38.710938-35.574218-70.09375-79.457031-70.09375zm0 0" fill="#f8eed1"/><path d="m145.769531 283.726562c0-10.554687-10.746093-19.113281-24-19.113281-13.257812 0-24 8.558594-24 19.113281 0 10.558594 10.742188 19.113282 24 19.113282 13.253907 0 24-8.554688 24-19.113282zm0 0" fill="#f1a18f"/><path d="m275.863281 283.726562c0-10.554687-10.746093-19.113281-24-19.113281-13.253906 0-24 8.558594-24 19.113281 0 10.558594 10.746094 19.113282 24 19.113282 13.253907 0 24-8.554688 24-19.113282zm0 0" fill="#f1a18f"/><path d="m135.757812 272.160156c-4.144531 0-7.5-3.355468-7.5-7.5v-8.476562c0-4.140625 3.355469-7.5 7.5-7.5 4.140626 0 7.5 3.359375 7.5 7.5v8.476562c0 4.144532-3.359374 7.5-7.5 7.5zm0 0" fill="#495059"/><path d="m237.875 272.160156c-4.140625 0-7.5-3.355468-7.5-7.5v-8.476562c0-4.140625 3.359375-7.5 7.5-7.5 4.144531 0 7.5 3.359375 7.5 7.5v8.476562c0 4.144532-3.355469 7.5-7.5 7.5zm0 0" fill="#495059"/><path d="m186.816406 278.671875c-7.328125 0-14.292968-3.175781-19.117187-8.707031-2.71875-3.121094-2.394531-7.859375.726562-10.582032 3.125-2.722656 7.859375-2.394531 10.582031.726563 1.972657 2.261719 4.816407 3.5625 7.808594 3.5625 2.992188 0 5.835938-1.300781 7.808594-3.5625 2.722656-3.121094 7.460938-3.449219 10.582031-.726563 3.121094 2.722657 3.445313 7.460938.726563 10.582032-4.824219 5.53125-11.789063 8.707031-19.117188 8.707031zm0 0" fill="#495059"/><path d="m119.59375 143.109375c5.019531-.933594 9.679688 2.851563 9.679688 7.957031v36.996094c0 16.777344 13.597656 30.375 30.375 30.375 11.609374 0 21.695312-6.511719 26.804687-16.085938-55.558594-26.539062-67.179687-133.503906-69.226563-184.285156-2.964843-.238281-5.914062-.832031-8.789062-1.828125-8.976562-3.109375-18.75-4.820312-28.980469-4.820312-43.882812 0-79.457031 31.382812-79.457031 70.09375 0 38.710937 35.574219 70.089843 79.457031 70.089843 11.996094 0 23.367188-2.347656 33.5625-6.550781 2.140625-.878906 4.34375-1.523437 6.574219-1.941406zm0 0" fill="#f0e3c0"/><path d="m62.8125 92.417969c0 4.144531-3.359375 7.503906-7.503906 7.503906-4.144532 0-7.503906-3.359375-7.503906-7.503906s3.359374-7.503907 7.503906-7.503907c4.144531 0 7.503906 3.359376 7.503906 7.503907zm0 0" fill="#f8eed1"/><path d="m165.984375 36.757812c0 4.144532-3.359375 7.503907-7.5 7.503907-4.144531 0-7.503906-3.359375-7.503906-7.503907 0-4.144531 3.359375-7.5 7.503906-7.5 4.140625 0 7.5 3.355469 7.5 7.5zm0 0" fill="#f0e3c0"/><path d="m238.820312 109.597656c0 4.144532-3.359374 7.503906-7.5 7.503906-4.144531 0-7.503906-3.359374-7.503906-7.503906 0-4.144531 3.359375-7.503906 7.503906-7.503906 4.140626 0 7.5 3.359375 7.5 7.503906zm0 0" fill="#f0e3c0"/><path d="m328.484375 61c0 4.144531-3.359375 7.503906-7.503906 7.503906s-7.503907-3.359375-7.503907-7.503906 3.359376-7.503906 7.503907-7.503906 7.503906 3.359375 7.503906 7.503906zm0 0" fill="#f0e3c0"/></svg>