<svg height="512pt" viewBox="-41 0 512 512.00152" width="512pt" xmlns="http://www.w3.org/2000/svg"><g fill="#cacdcf"><path d="m138.859375 141.90625h124.832031v37.570312h-124.832031zm0 0"/><path d="m301.523438 123.59375-40.773438 14.839844-43.527344-96.605469c-7.082031-15.714844.6875-34.132813 16.886719-40.03125 16.195313-5.894531 33.988281 3.222656 38.664063 19.8125zm0 0"/><path d="m292.570312 266.3125-19.40625-94.128906 36.070313-7.433594 19.410156 94.125c.878907 4.273438-1.867187 8.453125-6.140625 9.332031l-20.601562 4.246094c-4.273438.882813-8.449219-1.867187-9.332032-6.140625zm0 0"/></g><path d="m336.679688 160.691406c0-23.496094-23.203126-42.539062-51.832032-42.539062-28.625 0-51.828125 19.042968-51.828125 42.539062s23.203125 42.542969 51.828125 42.542969c28.628906 0 51.832032-19.046875 51.832032-42.542969zm0 0" fill="#dfe3e5"/><path d="m301.523438 168.191406h-33.351563c-4.140625 0-7.5-3.359375-7.5-7.5s3.359375-7.5 7.5-7.5h33.351563c4.144531 0 7.5 3.359375 7.5 7.5s-3.355469 7.5-7.5 7.5zm0 0" fill="#cacdcf"/><path d="m215.292969 468.339844h-158.574219l14.960938-23.941406c16.152343-25.84375 22.933593-56.453126 19.210937-86.699219l-19.25-156.292969c-7.929687-64.378906 42.296875-121.171875 107.164063-121.171875 16.648437 0 27.390624 17.628906 19.753906 32.425781l-24.28125 47.039063c-11.832032 22.929687-15.3125 49.265625-9.835938 74.484375zm0 0" fill="#dfe3e5"/><path d="m272.773438 21.609375c-4.675782-16.589844-22.46875-25.703125-38.664063-19.808594-16.199219 5.894531-23.96875 24.316407-16.886719 40.03125l23.167969 51.421875 47.6875-17.355468zm0 0" fill="#495059"/><path d="m371.160156 335.964844h-93.945312c-3.578125 0-6.347656 3.136718-5.902344 6.6875l13.75 109.859375c1.132812 9.042969 8.816406 15.824219 17.929688 15.824219h42.394531c9.113281 0 16.796875-6.78125 17.929687-15.824219l13.75-109.859375c.441406-3.550782-2.324218-6.6875-5.90625-6.6875zm0 0" fill="#fae37b"/><path d="m371.160156 335.964844h-93.945312c-3.578125 0-6.347656 3.136718-5.902344 6.6875l13.746094 109.859375c1.132812 9.042969 8.820312 15.824219 17.929687 15.824219h42.398438c3.921875 0 7.578125-1.261719 10.566406-3.417969-30.328125-21.859375-37.257813-76.382813-38.691406-100.554688-.089844-1.523437 1.234375-2.769531 2.738281-2.535156 1.367188.210937 2.761719.324219 4.1875.324219 2.988281 0 5.867188-.472656 8.5625-1.347656 4.808594-1.558594 9.992188-1.113282 14.398438 1.367187 3.566406 2.011719 7.609374 3.476563 11.988281 4.226563 5.226562.894531 10.335937.660156 15.015625-.484376l2.910156-23.261718c.445312-3.550782-2.320312-6.6875-5.902344-6.6875zm0 0" fill="#f0d66a"/><path d="m368.515625 298.570312c-5.519531-.945312-10.914063-.640624-15.804687.679688-4.949219 1.335938-10.152344.597656-14.585938-1.980469-4.097656-2.378906-8.859375-3.742187-13.933594-3.742187-5.078125 0-9.839844 1.363281-13.9375 3.742187-4.433594 2.574219-9.636718 3.316407-14.585937 1.980469-4.890625-1.320312-10.285157-1.625-15.804688-.679688-17.710937 3.03125-29.96875 17.75-27.378906 32.878907 1.265625 7.390625 5.84375 13.511719 12.265625 17.484375 2.902344 1.796875 4.714844 4.925781 4.714844 8.34375v12.144531c0 10.871094 8.8125 19.683594 19.679687 19.683594 10.871094 0 19.683594-8.8125 19.683594-19.683594v-16.621094c0-3.507812 3.390625-6.132812 6.730469-5.0625.023437.007813.046875.011719.066406.019531 2.699219.875 5.574219 1.351563 8.5625 1.351563s5.867188-.476563 8.5625-1.351563c4.808594-1.558593 9.992188-1.113281 14.398438 1.367188 3.566406 2.011719 7.609374 3.476562 11.988281 4.226562 17.710937 3.03125 34.167969-6.777343 36.757812-21.902343 2.589844-15.128907-9.671875-29.847657-27.378906-32.878907zm0 0" fill="#f8eed1"/><path d="m83.386719 296.773438 2.363281 19.191406 4.789062 38.898437.351563 2.835938c3.722656 30.25-3.058594 60.855469-19.210937 86.699219l-14.960938 23.941406h158.574219l-15.292969-70.414063c-43.511719-18.78125-88.964844-52.617187-116.613281-101.152343zm0 0" fill="#cacdcf"/><path d="m180.328125 290.125h-103.75c-4.847656 0-8.957031-3.570312-9.636719-8.367188l-2.136718-15.023437c-.804688-5.6875 3.609374-10.773437 9.351562-10.773437h104.339844c4.703125 0 8.6875 3.460937 9.347656 8.117187l2.125 14.941406c.832031 5.863281-3.71875 11.105469-9.640625 11.105469zm0 0" fill="#cacdcf"/><path d="m301.902344 272.453125 20.601562-4.246094c4.269532-.878906 7.019532-5.058593 6.140625-9.332031l-4.035156-19.566406-36.074219 7.4375 4.035156 19.566406c.882813 4.273438 5.058594 7.023438 9.332032 6.140625zm0 0" fill="#495059"/><path d="m421.554688 512h-412.515626c-6.46875 0-10.839843-6.601562-8.308593-12.554688l6.992187-16.464843c3.773438-8.878907 12.484375-14.640625 22.128906-14.640625h370.886719c9.644531 0 18.359375 5.761718 22.128907 14.640625l6.996093 16.464843c2.527344 5.953126-1.839843 12.554688-8.308593 12.554688zm0 0" fill="#d97b7d"/><path d="m181.34375 468.339844h-151.492188c-9.644531 0-18.355468 5.761718-22.128906 14.640625l-6.996094 16.464843c-2.527343 5.953126 1.84375 12.554688 8.3125 12.554688h202.914063c-23.839844-10.960938-30.992187-31.578125-30.609375-43.660156zm0 0" fill="#c77172"/><path d="m289.144531 389.105469c7.972657 0 14.820313-4.75 17.914063-11.566407-22.210938-15.203124-27.082032-63.953124-22.703125-79.460937-1.484375.078125-2.980469.234375-4.492188.492187-17.710937 3.03125-29.96875 17.75-27.378906 32.878907 1.261719 7.390625 5.84375 13.511719 12.261719 17.484375 2.90625 1.796875 4.71875 4.925781 4.71875 8.34375v12.144531c0 10.871094 8.8125 19.683594 19.679687 19.683594zm0 0" fill="#f0e3c0"/><path d="m380.257812 319.5c0 4.121094-3.339843 7.464844-7.460937 7.464844s-7.464844-3.34375-7.464844-7.464844 3.34375-7.460938 7.464844-7.460938 7.460937 3.339844 7.460937 7.460938zm0 0" fill="#f0e3c0"/><path d="m305.4375 333.855469c0 4.121093-3.339844 7.460937-7.460938 7.460937-4.121093 0-7.460937-3.339844-7.460937-7.460937 0-4.121094 3.339844-7.464844 7.460937-7.464844 4.121094 0 7.460938 3.34375 7.460938 7.464844zm0 0" fill="#f0e3c0"/></svg>