<svg height="511pt" viewBox="-23 0 511 511.9996" width="511pt" xmlns="http://www.w3.org/2000/svg"><path d="m291.734375 98.488281 69.648437-22.230469c9.527344 20.171876 19.140626 37.488282 36.667969 50.703126 5.886719 4.4375 13.65625 5.574218 20.492188 2.8125 13.574219-5.492188 28.679687-16.65625 39.394531-26.359376 6.839844-6.191406 8.816406-16.09375 4.914062-24.457031-11.757812-25.195312-37.742187-55.3125-61.828124-71.957031-10.304688-7.121094-23.402344-8.871094-35.269532-4.863281-52.542968 17.75-85.101562 17.371093-133.085937 17.371093s-80.542969.378907-133.089844-17.371093c-11.867187-4.011719-24.964844-2.257813-35.269531 4.863281-24.085938 16.644531-50.070313 46.757812-61.828125 71.957031-3.902344 8.363281-1.921875 18.265625 4.917969 24.457031 10.714843 9.703126 25.820312 20.863282 39.394531 26.355469 6.832031 2.765625 14.601562 1.628907 20.492187-2.8125 17.523438-13.210937 27.136719-30.527343 36.664063-50.699219l69.648437 22.230469zm0 0" fill="#f8eed1"/><path d="m125.210938 9.800781c-8.070313-2.082031-16.546876-4.59375-25.632813-7.664062-11.867187-4.007813-24.964844-2.257813-35.269531 4.863281-24.085938 16.644531-50.070313 46.761719-61.828125 71.960938-3.902344 8.359374-1.921875 18.261718 4.917969 24.457031 10.714843 9.699219 25.820312 20.863281 39.394531 26.355469 6.832031 2.765624 14.601562 1.625 20.492187-2.8125 17.523438-13.214844 27.136719-30.53125 36.664063-50.699219l35.664062 11.382812c-22.804687-19.449219-30.570312-50.023437-14.402343-77.84375zm0 0" fill="#f0e3c0"/><path d="m354.429688 281.050781c18.820312 35.359375 44.007812 120.5 53.636718 157.601563 2.566406 9.890625-2.472656 20.113281-11.832031 24.226562-35.566406 15.625-104.519531 27.007813-163.566406 27.007813s-128.003907-11.382813-163.570313-27.007813c-9.355468-4.113281-14.398437-14.335937-11.832031-24.226562 9.628906-37.101563 34.816406-122.246094 53.640625-157.601563zm0 0" fill="#f8eed1"/><path d="m110.90625 281.050781c-18.824219 35.359375-44.007812 120.5-53.636719 157.601563-2.566406 9.890625 2.472657 20.113281 11.828125 24.226562 24.835938 10.910156 65.945313 19.746094 108.597656 24.089844-80.539062-56.765625-64.609374-113.367188-33.503906-205.917969zm0 0" fill="#f0e3c0"/><path d="m172.605469 365.398438c-3.765625 15.140624-38.785157 88.808593-59.519531 111.164062 23.675781 5.433594 51.222656 9.542969 78.75 11.679688zm0 0" fill="#f0e3c0"/><path d="m292.726562 365.398438c3.769532 15.140624 38.785157 88.808593 59.523438 111.164062-23.679688 5.433594-51.222656 9.542969-78.75 11.679688zm0 0" fill="#f0e3c0"/><path d="m232.667969 305.496094c30.34375 0 93.101562-6.3125 121.761719-24.445313-48.046876-71.128906-6.570313-118.917969 6.953124-204.789062-38.121093-27.753907-81.015624-23.066407-121.027343-3.882813-4.855469 2.328125-10.523438 2.328125-15.375 0-40.011719-19.183594-82.910157-23.871094-121.03125 3.882813 13.527343 85.871093 55.003906 133.660156 6.957031 204.789062 28.65625 18.132813 91.417969 24.445313 121.761719 24.445313zm0 0" fill="#7dad91"/><path d="m224.558594 305.359375c-56.816406-43.339844-45.15625-192.480469-67.613282-248.445313-18.160156 1.09375-36.050781 7.007813-52.992187 19.34375 13.523437 85.871094 55 133.660157 6.953125 204.792969 26.304688 16.644531 81.324219 23.324219 113.652344 24.308594zm0 0" fill="#6e9981"/><path d="m240.355469 72.378906c-4.855469 2.328125-10.523438 2.328125-15.375 0-40.011719-19.183594-82.910157-23.875-121.03125 3.878906 3.660156 23.238282 9.367187 43.6875 14.792969 62.5625 46.832031 20.578126 78.988281-5.476562 113.925781-5.476562 34.933593 0 67.089843 26.054688 113.921875 5.476562 5.425781-18.875 11.132812-39.324218 14.792968-62.5625-38.121093-27.753906-81.015624-23.0625-121.027343-3.878906zm0 0" fill="#495059"/><path d="m400.566406 6.695312c-10.164062-6.964843-23.113281-8.511718-34.789062-4.566406-52.558594 17.757813-85.121094 17.378906-133.109375 17.378906s-80.546875.378907-133.097657-17.375c-11.785156-3.980468-24.820312-2.316406-35.0625 4.742188-3.621093 2.496094-7.289062 5.296875-10.945312 8.339844 76.542969 28.539062 119.15625 27.996094 184.542969 27.996094 63.183593 0 105.109375.503906 176.929687-25.214844-4.816406-4.207032-9.683594-8.023438-14.46875-11.300782zm0 0" fill="#f0e3c0"/><path d="m292.726562 365.398438s22.417969 88.929687 28.285157 123.121093c.808593 4.699219-2.105469 9.238281-6.707031 10.5-29.832032 8.164063-53.890626 12.980469-81.636719 12.980469-27.75 0-51.808594-4.816406-81.636719-12.980469-4.601562-1.261719-7.515625-5.800781-6.707031-10.5 5.867187-34.191406 28.28125-123.121093 28.28125-123.121093zm0 0" fill="#f8eed1"/><g fill="#495059"><path d="m258.695312 204.46875c-.988281 0-1.996093-.199219-2.964843-.613281l-52.0625-22.4375c-3.804688-1.640625-5.558594-6.054688-3.921875-9.855469 1.640625-3.804688 6.054687-5.5625 9.855468-3.921875l52.066407 22.4375c3.804687 1.640625 5.558593 6.050781 3.921875 9.855469-1.222656 2.835937-3.988282 4.535156-6.894532 4.535156zm0 0"/><path d="m206.636719 204.46875c-2.902344 0-5.667969-1.699219-6.890625-4.535156-1.636719-3.804688.117187-8.21875 3.921875-9.855469l52.0625-22.4375c3.804687-1.640625 8.21875.113281 9.855469 3.917969 1.640624 3.804687-.113282 8.21875-3.917969 9.855468l-52.066407 22.4375c-.964843.417969-1.972656.617188-2.964843.617188zm0 0"/><path d="m258.695312 244.269531c-.988281 0-1.996093-.195312-2.964843-.613281l-52.0625-22.4375c-3.804688-1.640625-5.558594-6.050781-3.921875-9.855469 1.640625-3.804687 6.054687-5.5625 9.855468-3.917969l52.066407 22.433594c3.804687 1.640625 5.558593 6.054688 3.921875 9.859375-1.222656 2.835938-3.988282 4.53125-6.894532 4.53125zm0 0"/><path d="m206.636719 244.269531c-2.902344 0-5.667969-1.695312-6.890625-4.535156-1.636719-3.804687.117187-8.214844 3.921875-9.855469l52.0625-22.4375c3.804687-1.636718 8.21875.117188 9.855469 3.921875 1.640624 3.800781-.113282 8.214844-3.917969 9.855469l-52.066407 22.4375c-.964843.417969-1.972656.613281-2.964843.613281zm0 0"/><path d="m258.695312 284.074219c-.988281 0-1.996093-.199219-2.964843-.617188l-52.0625-22.433593c-3.804688-1.640626-5.558594-6.054688-3.921875-9.859376 1.640625-3.804687 6.054687-5.558593 9.855468-3.917968l52.066407 22.4375c3.804687 1.640625 5.558593 6.050781 3.921875 9.855468-1.222656 2.835938-3.988282 4.535157-6.894532 4.535157zm0 0"/><path d="m206.636719 284.074219c-2.902344 0-5.667969-1.699219-6.890625-4.535157-1.636719-3.804687.117187-8.21875 3.921875-9.855468l52.0625-22.4375c3.804687-1.640625 8.21875.117187 9.855469 3.917968 1.640624 3.804688-.113282 8.21875-3.917969 9.855469l-52.066407 22.4375c-.964843.417969-1.972656.617188-2.964843.617188zm0 0"/></g><path d="m157.480469 252.753906c-.894531 0-1.808594-.160156-2.695313-.503906-3.863281-1.488281-5.789062-5.828125-4.300781-9.695312 10.246094-26.582032 4.304687-53.378907 1.449219-66.253907l-.378906-1.726562c-.886719-4.046875 1.675781-8.046875 5.722656-8.933594 4.046875-.882813 8.042968 1.675781 8.929687 5.722656l.371094 1.6875c3.175781 14.3125 9.777344 44.09375-2.097656 74.898438-1.144531 2.980469-3.988281 4.804687-7 4.804687zm0 0" fill="#fae37b"/><path d="m307.851562 252.753906c-3.011718 0-5.851562-1.828125-7-4.804687-11.871093-30.804688-5.269531-60.585938-2.097656-74.898438l.375-1.6875c.882813-4.042969 4.882813-6.605469 8.929688-5.722656 4.046875.886719 6.609375 4.886719 5.722656 8.933594l-.378906 1.726562c-2.855469 12.875-8.796875 39.671875 1.449218 66.253907 1.488282 3.867187-.4375 8.207031-4.300781 9.695312-.886719.34375-1.800781.503906-2.699219.503906zm0 0" fill="#fae37b"/><path d="m156.945312 56.917969c-18.160156 1.089843-36.050781 7.003906-52.992187 19.339843 3.660156 23.238282 9.367187 43.6875 14.789063 62.5625 20.316406 8.925782 37.867187 9.078126 54.082031 6.386719-4.0625-35.375-7.726563-67.96875-15.878907-88.289062zm0 0" fill="#41464f"/></svg>