<svg height="512pt" viewBox="-3 0 511 512" width="512pt" xmlns="http://www.w3.org/2000/svg"><path d="m318.441406 0h-129.921875l-10.972656 114.667969c-8.996094 94.007812-8.996094 188.65625 0 282.664062l10.972656 114.667969h129.921875l10.972656-114.667969c8.992188-94.007812 8.992188-188.65625 0-282.664062zm0 0" fill="#ddaf89"/><path d="m188.519531 0h-102.75c-16.085937 0-30.230469 10.652344-34.667969 26.117188l-8.6875 30.25c-37.445312 130.453124-37.445312 268.8125 0 399.265624l8.6875 30.25c4.4375 15.464844 18.582032 26.117188 34.667969 26.117188h102.75l-10.972656-114.667969c-8.996094-94.007812-8.996094-188.65625 0-282.664062zm0 0" fill="#ad9386"/><path d="m421.191406 0h-102.75l10.972656 114.667969c8.992188 94.007812 8.992188 188.65625 0 282.664062l-10.972656 114.667969h102.75c16.085938 0 30.230469-10.652344 34.667969-26.117188l8.683594-30.25c37.449219-130.453124 37.449219-268.8125 0-399.265624l-8.683594-30.25c-4.4375-15.464844-18.582031-26.117188-34.667969-26.117188zm0 0" fill="#ad9386"/><path d="m176.054688 380.710938c.46875 5.542968.960937 11.082031 1.492187 16.617187l10.972656 114.671875h101.5625c-51.121093-29.554688-88.351562-76.191406-114.027343-131.289062zm0 0" fill="#c9a07d"/><path d="m51.101562 485.882812c4.4375 15.464844 18.582032 26.117188 34.667969 26.117188h102.75l-10.972656-114.667969c-.53125-5.539062-1.023437-11.078125-1.488281-16.621093-54.238282-116.390626-56.933594-270.445313-30.140625-380.710938h-60.148438c-16.085937 0-30.230469 10.652344-34.667969 26.117188l-8.6875 30.25c-37.445312 130.453124-37.445312 268.8125 0 399.265624zm0 0" fill="#998377"/><path d="m487.445312 109.265625h-467.929687c-12.363281 0-21.433594-11.617187-18.441406-23.609375l2.859375-11.445312c2.761718-11.082032 12.714844-18.855469 24.136718-18.855469h450.820313c11.417969 0 21.371094 7.773437 24.136719 18.855469l2.859375 11.445312c2.992187 11.992188-6.082031 23.609375-18.441407 23.609375zm0 0" fill="#dfe3e5"/><path d="m229.71875 55.355469h-201.648438c-11.421874 0-21.375 7.773437-24.136718 18.855469l-2.859375 11.445312c-2.992188 11.992188 6.078125 23.609375 18.441406 23.609375h227.851563c-28.097657-13.964844-31.515626-40.277344-17.648438-53.910156zm0 0" fill="#cacdcf"/><path d="m487.445312 402.734375h-467.929687c-12.363281 0-21.433594 11.617187-18.441406 23.609375l2.855469 11.445312c2.765624 11.078126 12.71875 18.855469 24.136718 18.855469h450.824219c11.417969 0 21.371094-7.773437 24.136719-18.855469l2.855468-11.445312c2.996094-11.992188-6.078124-23.609375-18.4375-23.609375zm0 0" fill="#dfe3e5"/><path d="m153.304688 275.101562c0-25.761718-26.226563-46.648437-58.578126-46.648437-32.351562 0-58.578124 20.886719-58.578124 46.648437 0 25.761719 26.226562 46.648438 58.578124 46.648438 32.351563 0 58.578126-20.886719 58.578126-46.648438zm0 0" fill="#f1a18f"/><path d="m470.808594 275.101562c0-25.761718-26.222656-46.648437-58.574219-46.648437s-58.578125 20.886719-58.578125 46.648437c0 25.761719 26.226562 46.648438 58.578125 46.648438s58.574219-20.886719 58.574219-46.648438zm0 0" fill="#f1a18f"/><g fill="#495059"><path d="m128.867188 236.066406c-4.144532 0-7.5-3.355468-7.5-7.5v-20.683594c0-4.144531 3.355468-7.5 7.5-7.5 4.140624 0 7.5 3.355469 7.5 7.5v20.683594c0 4.144532-3.359376 7.5-7.5 7.5zm0 0"/><path d="m378.09375 236.066406c-4.144531 0-7.5-3.355468-7.5-7.5v-20.683594c0-4.144531 3.355469-7.5 7.5-7.5 4.140625 0 7.5 3.355469 7.5 7.5v20.683594c0 4.144532-3.355469 7.5-7.5 7.5zm0 0"/><path d="m253.480469 251.949219c-14.757813 0-28.792969-6.390625-38.507813-17.539063-2.722656-3.121094-2.398437-7.859375.726563-10.582031 3.121093-2.71875 7.859375-2.394531 10.582031.730469 6.863281 7.875 16.777344 12.394531 27.199219 12.394531s20.335937-4.519531 27.199219-12.394531c2.722656-3.125 7.460937-3.449219 10.582031-.726563 3.125 2.71875 3.445312 7.457031.726562 10.582031-9.714843 11.144532-23.75 17.535157-38.507812 17.535157zm0 0"/></g><path d="m19.515625 402.734375c-12.363281 0-21.433594 11.617187-18.441406 23.609375l2.859375 11.445312c2.761718 11.082032 12.714844 18.855469 24.136718 18.855469h219.296876c-28.097657-13.960937-31.515626-40.277343-17.648438-53.910156zm0 0" fill="#cacdcf"/><path d="m460.8125 158.574219c0-17.015625-8.445312-30.808594-18.867188-30.808594-10.421874 0-18.871093 13.792969-18.871093 30.808594 0 17.011719 8.449219 30.804687 18.871093 30.804687 10.421876 0 18.867188-13.792968 18.867188-30.804687zm0 0" fill="#998377"/><path d="m277.125 73.855469c1.917969 0 3.839844-.734375 5.304688-2.195313l16.300781-16.304687h-21.210938l-5.699219 5.695312c-2.929687 2.929688-2.929687 7.679688 0 10.609375 1.464844 1.460938 3.386719 2.195313 5.304688 2.195313zm0 0" fill="#cacdcf"/><path d="m113.210938 456.644531 16.027343-16.027343c2.929688-2.929688 2.929688-7.675782 0-10.605469-2.929687-2.929688-7.679687-2.929688-10.605469 0l-23.921874 23.921875c-.792969.792968-1.363282 1.722656-1.730469 2.710937zm0 0" fill="#dfe3e5"/><path d="m380.890625 438.917969c-1.917969 0-3.839844-.730469-5.304687-2.195313-2.929688-2.929687-2.929688-7.679687 0-10.609375l15.300781-15.296875c2.929687-2.929687 7.679687-2.929687 10.605469 0 2.929687 2.929688 2.929687 7.675782 0 10.605469l-15.300782 15.300781c-1.460937 1.460938-3.382812 2.195313-5.300781 2.195313zm0 0" fill="#cacdcf"/><path d="m71.972656 149.398438c0 4.136718-3.355468 7.492187-7.492187 7.492187s-7.492188-3.355469-7.492188-7.492187c0-4.140626 3.355469-7.492188 7.492188-7.492188s7.492187 3.351562 7.492187 7.492188zm0 0" fill="#ad9386"/><path d="m79.464844 363.492188c0 4.136718-3.355469 7.492187-7.492188 7.492187-4.136718 0-7.492187-3.355469-7.492187-7.492187 0-4.136719 3.355469-7.492188 7.492187-7.492188 4.136719 0 7.492188 3.355469 7.492188 7.492188zm0 0" fill="#ad9386"/><path d="m456.929688 356c0 4.136719-3.355469 7.492188-7.492188 7.492188s-7.492188-3.355469-7.492188-7.492188 3.355469-7.492188 7.492188-7.492188 7.492188 3.355469 7.492188 7.492188zm0 0" fill="#998377"/><path d="m378.09375 25.699219c0 4.136719-3.351562 7.492187-7.492188 7.492187-4.136718 0-7.492187-3.355468-7.492187-7.492187 0-4.140625 3.355469-7.492188 7.492187-7.492188 4.140626 0 7.492188 3.351563 7.492188 7.492188zm0 0" fill="#998377"/><path d="m220.625 341.316406c0 4.136719-3.351562 7.492188-7.492188 7.492188-4.136718 0-7.492187-3.355469-7.492187-7.492188 0-4.140625 3.355469-7.492187 7.492187-7.492187 4.140626 0 7.492188 3.351562 7.492188 7.492187zm0 0" fill="#c9a07d"/></svg>