<svg height="511pt" viewBox="0 -30 511.99911 511" width="511pt" xmlns="http://www.w3.org/2000/svg"><path d="m256 427.5625c71.871094 0 132.03125-47.367188 137.707031-136.066406 7.132813-111.457032-20.367187-202.683594-93.59375-265.164063-25.394531-21.664062-62.832031-21.664062-88.226562 0-73.226563 62.480469-100.726563 153.707031-93.59375 265.164063 5.675781 88.699218 65.835937 136.066406 137.707031 136.066406zm0 0" fill="#84d0a6"/><path d="m393.707031 291.496094c4.972657-77.726563-6.921875-145.59375-39.394531-200.757813l-76.921875 211.339844c-2.828125 7.769531-12.734375 10.066406-18.675781 4.320313-61.265625-59.261719-92.085938-146.609376-72.984375-254.355469-53.597657 60.746093-73.648438 142.429687-67.4375 239.453125 5.675781 88.699218 65.835937 136.066406 137.707031 136.066406s132.03125-47.367188 137.707031-136.066406zm0 0" fill="#79bf99"/><path d="m209.277344 170.039062c0-12.015624-12.230469-21.757812-27.320313-21.757812-15.085937 0-27.320312 9.742188-27.320312 21.757812 0 12.015626 12.234375 21.753907 27.320312 21.753907 15.089844 0 27.320313-9.738281 27.320313-21.753907zm0 0" fill="#fff"/><path d="m357.363281 170.039062c0-12.015624-12.234375-21.757812-27.320312-21.757812-15.089844 0-27.320313 9.742188-27.320313 21.757812 0 12.015626 12.230469 21.753907 27.320313 21.753907 15.085937 0 27.320312-9.738281 27.320312-21.753907zm0 0" fill="#fff"/><g fill="#495059"><path d="m197.878906 155.835938c-4.140625 0-7.5-3.359376-7.5-7.5v-9.648438c0-4.144531 3.359375-7.5 7.5-7.5 4.144532 0 7.5 3.355469 7.5 7.5v9.648438c0 4.140624-3.355468 7.5-7.5 7.5zm0 0"/><path d="m314.121094 155.835938c-4.144532 0-7.5-3.359376-7.5-7.5v-9.648438c0-4.144531 3.355468-7.5 7.5-7.5 4.140625 0 7.5 3.355469 7.5 7.5v9.648438c0 4.140624-3.359375 7.5-7.5 7.5zm0 0"/><path d="m256 163.242188c-8.042969 0-15.6875-3.480469-20.976562-9.550782-2.722657-3.125-2.394532-7.863281.726562-10.582031 3.125-2.722656 7.859375-2.398437 10.582031.726563 2.441407 2.800781 5.964844 4.40625 9.667969 4.40625s7.226562-1.605469 9.671875-4.40625c2.71875-3.125 7.457031-3.449219 10.578125-.726563 3.125 2.722656 3.449219 7.457031.726562 10.582031-5.292968 6.070313-12.9375 9.550782-20.976562 9.550782zm0 0"/></g><path d="m77.476562 1.929688c-8.671874 3.15625-14.359374 10.859374-15.371093 19.4375-.578125 4.878906-2.648438 9.429687-6.121094 12.90625-71.535156 71.648437-66.429687 189.304687-29.71875 290.167968 34.679687 95.285156 104.773437 129.34375 172.117187 118.441406 7.46875-1.210937 15.003907.582032 21.414063 4.601563 5.960937 3.738281 13.523437 4.785156 20.644531 2.191406 12.265625-4.460937 18.589844-18.023437 14.128906-30.292969l-146.800781-403.324218c-4.464843-12.265625-18.027343-18.59375-30.292969-14.128906zm0 0" fill="#f8eed1"/><path d="m235.292969 366.421875c-123.90625-30.203125-190.863281-206.515625-202.34375-303.679687-46.753907 71.925781-38.871094 173.265624-6.683594 261.699218 34.679687 95.285156 104.773437 129.34375 172.117187 118.441406 7.46875-1.210937 15.003907.582032 21.414063 4.601563 5.960937 3.738281 13.519531 4.785156 20.644531 2.191406 12.265625-4.464843 18.589844-18.023437 14.125-30.292969zm0 0" fill="#f0e3c0"/><path d="m434.523438 1.929688c8.671874 3.15625 14.359374 10.859374 15.371093 19.4375.578125 4.878906 2.648438 9.429687 6.121094 12.90625 71.53125 71.648437 66.429687 189.304687 29.71875 290.167968-34.683594 95.285156-104.773437 129.34375-172.117187 118.441406-7.46875-1.210937-15.003907.582032-21.414063 4.601563-5.960937 3.738281-13.523437 4.785156-20.644531 2.191406-12.269532-4.460937-18.59375-18.023437-14.128906-30.292969l146.800781-403.324218c4.464843-12.265625 18.027343-18.59375 30.292969-14.128906zm0 0" fill="#f8eed1"/><path d="m445.054688 395.152344c-69.257813-6.9375-96.769532-121.953125-96.75-225.445313l-90.871094 249.675781c-4.464844 12.265626 1.859375 25.828126 14.125 30.292969 7.125 2.59375 14.683594 1.542969 20.644531-2.191406 6.410156-4.023437 13.945313-5.8125 21.414063-4.601563 46.742187 7.566407 94.804687-6.535156 131.4375-47.730468zm0 0" fill="#f0e3c0"/><path d="m191.675781 402.332031c-2.816406 0-5.515625-1.589843-6.792969-4.308593-1.75-3.722657-7.003906-9.695313-12.5625-16.019532-10.804687-12.292968-24.253906-27.59375-31.957031-46.578125-1.558593-3.839843.292969-8.210937 4.128907-9.769531 3.84375-1.5625 8.214843.292969 9.769531 4.128906 6.75 16.628906 19.269531 30.871094 29.324219 42.3125 6.824218 7.765625 12.214843 13.894532 14.871093 19.539063 1.765625 3.75.15625 8.21875-3.59375 9.980469-1.03125.488281-2.121093.714843-3.1875.714843zm0 0" fill="#f8eed1"/><path d="m79.613281 334.820312c-3.890625 0-7.179687-3.003906-7.472656-6.945312-.542969-7.371094-5.53125-22.058594-10.8125-37.605469-7.949219-23.417969-16.960937-49.960937-18.28125-70.976562-.257813-4.132813 2.882813-7.695313 7.015625-7.957031 4.125-.253907 7.695312 2.882812 7.957031 7.019531 1.191407 19.019531 9.863281 44.558593 17.515625 67.089843 5.835938 17.195313 10.878906 32.046876 11.566406 41.324219.304688 4.128907-2.796874 7.726563-6.925781 8.03125-.1875.015625-.375.019531-.5625.019531zm0 0" fill="#f8eed1"/><path d="m100.652344 194.578125c-2.902344 0-5.667969-1.699219-6.890625-4.535156-1.109375-2.574219-27.089844-63.265625-23.042969-86.527344.707031-4.078125 4.585938-6.816406 8.671875-6.101563 4.082031.707032 6.8125 4.59375 6.105469 8.671876-2.292969 13.195312 11.507812 53.566406 22.042968 78.023437 1.636719 3.800781-.117187 8.214844-3.921874 9.855469-.96875.414062-1.972657.613281-2.964844.613281zm0 0" fill="#f0e3c0"/><path d="m320.324219 402.332031c-1.070313 0-2.15625-.226562-3.1875-.714843-3.746094-1.761719-5.355469-6.230469-3.59375-9.980469 2.65625-5.644531 8.046875-11.773438 14.871093-19.539063 10.058594-11.441406 22.574219-25.683594 29.324219-42.3125 1.558594-3.835937 5.929688-5.6875 9.769531-4.128906 3.839844 1.558594 5.6875 5.933594 4.128907 9.769531-7.703125 18.984375-21.152344 34.285157-31.957031 46.578125-5.558594 6.324219-10.8125 12.300782-12.5625 16.023438-1.28125 2.714844-3.976563 4.304687-6.792969 4.304687zm0 0" fill="#f8eed1"/><path d="m432.386719 334.820312c-.1875 0-.375-.003906-.5625-.019531-4.128907-.304687-7.230469-3.902343-6.925781-8.035156.6875-9.273437 5.730468-24.125 11.566406-41.316406 7.648437-22.535157 16.320312-48.074219 17.515625-67.097657.257812-4.132812 3.820312-7.265624 7.953125-7.015624 4.136718.261718 7.277344 3.820312 7.015625 7.957031-1.316407 21.015625-10.328125 47.558593-18.28125 70.976562-5.277344 15.546875-10.265625 30.234375-10.808594 37.605469-.292969 3.941406-3.582031 6.945312-7.472656 6.945312zm0 0" fill="#f0e3c0"/><path d="m411.347656 194.578125c-.992187 0-1.996094-.199219-2.964844-.613281-3.804687-1.640625-5.558593-6.054688-3.921874-9.855469 10.535156-24.457031 24.335937-64.828125 22.042968-78.023437-.710937-4.078126 2.023438-7.964844 6.105469-8.671876 4.078125-.714843 7.964844 2.023438 8.671875 6.101563 4.046875 23.261719-21.933594 83.953125-23.042969 86.527344-1.222656 2.835937-3.988281 4.535156-6.890625 4.535156zm0 0" fill="#f0e3c0"/></svg>