<svg height="512pt" viewBox="-58 0 512 512" width="512pt" xmlns="http://www.w3.org/2000/svg"><path d="m205.746094 308.273438c0-32.222657 17.839844-60.289063 44.226562-74.976563 7.542969-4.199219 11.707032-12.617187 10.152344-21.105469-9.894531-53.980468-61.546875-88.324218-123.785156-88.324218-62.238282 0-113.890625 34.34375-123.78125 88.324218-1.558594 8.488282 2.605468 16.90625 10.148437 21.105469 26.386719 14.6875 44.226563 42.757813 44.226563 74.976563 0 36.34375-22.691406 67.398437-54.742188 79.9375-8.332031 3.257812-13.425781 11.828124-11.933594 20.652343 10.128907 59.855469 67.195313 97.03125 136.082032 97.03125 68.886718 0 125.953125-37.175781 136.082031-97.03125 1.492187-8.824219-3.597656-17.394531-11.933594-20.652343-32.050781-12.539063-54.742187-43.59375-54.742187-79.9375zm0 0" fill="#ad9386"/><path d="m247.722656 460.871094c-150.996094-21.332032-178.765625-241.363282-179.164062-321.363282-29.175782 15.082032-50.078125 40.359376-56 72.683594-1.558594 8.488282 2.605468 16.90625 10.148437 21.105469 26.386719 14.6875 44.226563 42.757813 44.226563 74.976563 0 36.34375-22.691406 67.398437-54.742188 79.9375-8.335937 3.257812-13.425781 11.828124-11.933594 20.652343 10.128907 59.855469 67.195313 97.03125 136.082032 97.03125 45.789062 0 86.351562-16.429687 111.382812-45.023437zm0 0" fill="#998377"/><path d="m142.980469 512h-13.277344c-5.1875 0-9.589844-3.804688-10.34375-8.9375l-11.96875-81.675781h57.902344l-11.972657 81.675781c-.75 5.132812-5.152343 8.9375-10.339843 8.9375zm0 0" fill="#495059"/><path d="m197.253906 394.867188h-121.828125c-3.5 0-6.339843 2.839843-6.339843 6.339843v13.835938c0 3.503906 2.839843 6.34375 6.339843 6.34375h121.828125c3.503906 0 6.339844-2.839844 6.339844-6.34375v-13.835938c0-3.5-2.835938-6.339843-6.339844-6.339843zm0 0" fill="#f8eed1"/><path d="m121.992188 394.867188h-46.566407c-3.5 0-6.339843 2.839843-6.339843 6.339843v13.835938c0 3.503906 2.839843 6.34375 6.339843 6.34375h54.394531c-12.546874-5.671875-15.867187-19.238281-7.828124-26.519531zm0 0" fill="#f0e3c0"/><path d="m158.585938 87.679688h-44.492188v167.363281c0 6.011719 4.875 10.886719 10.886719 10.886719h22.71875c6.011719 0 10.886719-4.875 10.886719-10.886719zm0 0" fill="#ddaf89"/><path d="m193.390625 67.726562h-114.101563c-4.140624 0-7.5-3.359374-7.5-7.5 0-4.140624 3.359376-7.5 7.5-7.5h114.101563c4.144531 0 7.5 3.359376 7.5 7.5 0 4.140626-3.355469 7.5-7.5 7.5zm0 0" fill="#495059"/><path d="m193.390625 34.953125h-114.101563c-4.140624 0-7.5-3.359375-7.5-7.5s3.359376-7.5 7.5-7.5h114.101563c4.144531 0 7.5 3.359375 7.5 7.5s-3.355469 7.5-7.5 7.5zm0 0" fill="#495059"/><path d="m161.613281 87.679688h-50.546875c-8.496094 0-15.386718-6.890626-15.386718-15.390626v-56.902343c0-8.496094 6.890624-15.386719 15.386718-15.386719h50.546875c8.5 0 15.386719 6.890625 15.386719 15.386719v56.902343c0 8.5-6.886719 15.390626-15.386719 15.390626zm0 0" fill="#ad9386"/><path d="m111.066406 87.679688h50.546875c3.917969 0 7.480469-1.476563 10.195313-3.886719-56.890625-13.632813-59.550782-66.148438-50.875-83.792969h-9.867188c-8.496094 0-15.386718 6.890625-15.386718 15.386719v56.902343c0 8.5 6.890624 15.390626 15.386718 15.390626zm0 0" fill="#998377"/><path d="m100.703125 366.570312c0-9.164062-9.328125-16.59375-20.839844-16.59375-11.507812 0-20.839843 7.429688-20.839843 16.59375 0 9.164063 9.332031 16.59375 20.839843 16.59375 11.511719 0 20.839844-7.429687 20.839844-16.59375zm0 0" fill="#f1a18f"/><path d="m213.65625 366.570312c0-9.164062-9.332031-16.59375-20.839844-16.59375-11.507812 0-20.839844 7.429688-20.839844 16.59375 0 9.164063 9.332032 16.59375 20.839844 16.59375 11.507813 0 20.839844-7.429687 20.839844-16.59375zm0 0" fill="#f1a18f"/><g fill="#495059"><path d="m92.007812 357.515625c-4.140624 0-7.5-3.359375-7.5-7.5v-7.359375c0-4.140625 3.359376-7.5 7.5-7.5 4.140626 0 7.5 3.359375 7.5 7.5v7.359375c0 4.140625-3.359374 7.5-7.5 7.5zm0 0"/><path d="m180.671875 357.515625c-4.140625 0-7.5-3.359375-7.5-7.5v-7.359375c0-4.140625 3.359375-7.5 7.5-7.5s7.5 3.359375 7.5 7.5v7.359375c0 4.140625-3.359375 7.5-7.5 7.5zm0 0"/><path d="m136.339844 363.167969c-6.648438 0-12.96875-2.878907-17.34375-7.898438-2.71875-3.121093-2.394532-7.859375.730468-10.582031 3.121094-2.71875 7.859376-2.398438 10.582032.726562 1.523437 1.75 3.722656 2.753907 6.03125 2.753907s4.507812-1.003907 6.035156-2.753907c2.71875-3.121093 7.457031-3.445312 10.582031-.726562 3.121094 2.722656 3.445313 7.460938.726563 10.582031-4.375 5.019531-10.695313 7.898438-17.34375 7.898438zm0 0"/><path d="m90.425781 293.546875c-.339843 0-.6875-.023437-1.035156-.074219-4.105469-.570312-6.96875-4.355468-6.402344-8.457031 1.816407-13.109375-2.246093-21.664063-6.945312-31.570313-4.285157-9.03125-9.144531-19.261718-9.121094-33.28125.003906-4.136718 3.363281-7.488281 7.5-7.488281h.011719c4.140625.007813 7.492187 3.371094 7.488281 7.511719-.019531 10.628906 3.714844 18.496094 7.671875 26.824219 5.007812 10.550781 10.683594 22.511719 8.253906 40.0625-.519531 3.753906-3.734375 6.472656-7.421875 6.472656zm0 0"/><path d="m182.253906 293.546875c-3.6875 0-6.898437-2.71875-7.417968-6.472656-2.433594-17.550781 3.242187-29.511719 8.253906-40.0625 3.953125-8.328125 7.6875-16.195313 7.671875-26.824219-.007813-4.140625 3.34375-7.503906 7.484375-7.511719h.015625c4.136719 0 7.492187 3.351563 7.5 7.488281.019531 14.019532-4.835938 24.25-9.121094 33.28125-4.703125 9.90625-8.765625 18.460938-6.949219 31.570313.570313 4.101563-2.296875 7.890625-6.398437 8.457031-.351563.050782-.695313.074219-1.039063.074219zm0 0"/></g><path d="m247.933594 440.496094 99.1875-272.515625 37.664062 35.847656c10.199219 9.707031 13.679688 24.53125 8.863282 37.765625l-62.757813 172.421875c-4.816406 13.230469-17.007813 22.351563-31.0625 23.230469l-.46875-7.484375.46875 7.484375zm105.445312-245.851563-83.515625 229.449219 29.027344-1.820312c8.097656-.503907 15.128906-5.761719 17.90625-13.390626l62.753906-172.421874c2.777344-7.625.769531-16.171876-5.109375-21.765626zm0 0" fill="#ad9386"/><path d="m234.570312 511.316406-7.828124-2.851562c-5.867188-2.136719-8.890626-8.621094-6.757813-14.488282l123.046875-338.0625c2.132812-5.867187 8.621094-8.890624 14.488281-6.757812l7.828125 2.851562c5.867188 2.132813 8.890625 8.621094 6.757813 14.488282l-123.046875 338.0625c-2.132813 5.867187-8.621094 8.890625-14.488282 6.757812zm0 0" fill="#ddaf89"/><path d="m239.800781 439.539062-19.816406 54.4375c-2.132813 5.867188.890625 12.351563 6.757813 14.488282l7.828124 2.851562c5.867188 2.132813 12.355469-.890625 14.488282-6.757812l19.8125-54.4375zm0 0" fill="#495059"/><path d="m114.097656 87.679688h44.488282v24.257812h-44.488282zm0 0" fill="#c9a07d"/></svg>