<svg height="512pt" viewBox="0 -109 512.00023 512" width="512pt" xmlns="http://www.w3.org/2000/svg"><g fill="#9cd6e3"><path d="m97.972656 114.546875c-7.582031-39.757813-42.34375-68.519531-82.820312-68.519531-10.664063 0-17.882813 10.691406-14.097656 20.65625 8.03125 21.128906 12.769531 43.363281 14.054687 65.929687.507813 8.898438 5.941406 16.402344 13.5625 19.917969 1.855469.859375 1.855469 3.433594 0 4.289062-7.621094 3.519532-13.054687 11.023438-13.5625 19.921876-1.289063 22.613281-6.042969 44.890624-14.105469 66.058593-3.773437 9.910157 3.546875 20.523438 14.148438 20.523438 40.476562 0 75.238281-28.757813 82.820312-68.515625l7.652344-40.132813zm0 0"/><path d="m365.660156 116.574219h-124.40625l-41.292968-77.367188c-9.480469-17.757812 3.386718-39.207031 23.511718-39.207031 49.222656 0 94.441406 27.121094 117.621094 70.546875zm0 0"/><path d="m300.679688 178.140625h-124.40625l-41.296876 77.367187c-9.480468 17.753907 3.386719 39.207032 23.511719 39.207032 49.222657 0 94.441407-27.121094 117.621094-70.546875zm0 0"/><path d="m426.839844 163.746094-110.863282 19.550781-24.640624 75.433594c-5.65625 17.3125 9.179687 34.40625 27.113281 31.242187 43.863281-7.734375 79.898437-39.007812 93.730469-81.347656zm0 0"/></g><path d="m45.554688 132.550781c-10.425782 12.820313-10.425782 31.433594 0 44.253907 8.253906 10.152343 22.648437 25.207031 44.835937 40.246093 3.480469-6.890625 6.074219-14.34375 7.582031-22.242187l7.652344-40.132813-7.652344-40.128906c-1.507812-7.898437-4.101562-15.351563-7.582031-22.242187-22.1875 15.039062-36.582031 30.09375-44.835937 40.246093zm0 0" fill="#8bc7d6"/><path d="m176.273438 178.140625-35.09375 65.746094c26.585937 10.722656 59.074218 19.394531 98.378906 23.328125 14.867187-11.386719 27.421875-25.945313 36.550781-43.046875l24.570313-46.03125h-124.40625zm0 0" fill="#8bc7d6"/><path d="m204.234375 47.21875 37.019531 69.355469h124.40625l-24.566406-46.027344c-5.851562-10.957031-13.105469-20.875-21.472656-29.582031-10.738282-.730469-21.710938-1.109375-32.933594-1.109375-30.808594-.003907-58.1875 2.753906-82.453125 7.363281zm0 0" fill="#8bc7d6"/><path d="m291.335938 258.730469c-1.195313 3.648437-1.464844 7.289062-1 10.730469 31.515624-.222657 61.148437-3.355469 88.65625-9.355469 15.039062-13.777344 26.617187-31.378907 33.1875-51.480469l14.660156-44.878906-110.863282 19.546875zm0 0" fill="#8bc7d6"/><path d="m59.855469 144.179688c-4.976563 6.121093-4.976563 14.875 0 20.992187 20.316406 24.980469 84.445312 85.894531 226.832031 85.894531 122.984375 0 187.585938-45.441406 216-73.925781 12.417969-12.445313 12.417969-32.488281 0-44.929687-28.410156-28.484376-93.015625-73.925782-216-73.925782-142.386719.003906-206.515625 60.914063-226.832031 85.894532zm0 0" fill="#dfe3e5"/><path d="m286.6875 251.066406c37.484375 0 69.535156-4.226562 96.800781-10.902344-170.226562 2.410157-191.65625-120.820312-184.855469-172.996093-82.113281 17.832031-123.25 57.917969-138.777343 77.011719-4.976563 6.121093-4.976563 14.871093 0 20.992187 20.316406 24.980469 84.445312 85.894531 226.832031 85.894531zm0 0" fill="#cacdcf"/><path d="m448.34375 173.851562c-1.917969 0-3.839844-.730468-5.304688-2.195312l-31.996093-31.996094c-2.929688-2.929687-2.929688-7.679687 0-10.605468 2.929687-2.929688 7.679687-2.929688 10.609375 0l31.996094 31.996093c2.925781 2.929688 2.925781 7.675781 0 10.605469-1.464844 1.464844-3.386719 2.195312-5.304688 2.195312zm0 0" fill="#495059"/><path d="m416.347656 173.851562c-1.917968 0-3.839844-.730468-5.304687-2.195312-2.929688-2.929688-2.929688-7.679688 0-10.605469l31.996093-31.996093c2.929688-2.929688 7.679688-2.929688 10.605469 0 2.929688 2.929687 2.929688 7.675781 0 10.605468l-31.996093 31.996094c-1.460938 1.464844-3.382813 2.195312-5.300782 2.195312zm0 0" fill="#495059"/><path d="m343.085938 121.351562c.570312-5.167968-3.792969-9.53125-8.957032-8.960937-11.007812 1.214844-21.585937 4.957031-30.914062 10.925781-10.09375 6.460938-18.667969 15.035156-25.128906 25.128906-5.96875 9.328126-9.707032 19.90625-10.921876 30.910157-.570312 5.167969 3.792969 9.53125 8.957032 8.960937 11.007812-1.214844 21.585937-4.953125 30.914062-10.921875 10.09375-6.460937 18.667969-15.035156 25.128906-25.132812 5.96875-9.324219 9.707032-19.902344 10.921876-30.910157zm0 0" fill="#d97b7d"/><path d="m230.175781 121.351562c.570313-5.167968-3.792969-9.53125-8.960937-8.960937-11.003906 1.214844-21.582032 4.957031-30.910156 10.925781-10.09375 6.460938-18.667969 15.035156-25.128907 25.128906-5.972656 9.328126-9.710937 19.90625-10.925781 30.910157-.570312 5.167969 3.792969 9.53125 8.960938 8.960937 11.007812-1.214844 21.585937-4.953125 30.910156-10.921875 10.097656-6.460937 18.667968-15.035156 25.132812-25.132812 5.96875-9.324219 9.707032-19.902344 10.921875-30.910157zm0 0" fill="#d97b7d"/><path d="m362.832031 224.550781c-1.921875 0-3.839843-.734375-5.304687-2.195312-7.03125-7.035157-10.902344-16.382813-10.902344-26.328125 0-9.941406 3.871094-19.292969 10.902344-26.324219 2.929687-2.929687 7.679687-2.929687 10.605468 0 2.929688 2.929687 2.929688 7.679687 0 10.605469-4.199218 4.199218-6.511718 9.78125-6.511718 15.71875 0 5.941406 2.3125 11.523437 6.511718 15.71875 2.929688 2.929687 2.929688 7.679687 0 10.609375-1.464843 1.460937-3.382812 2.195312-5.300781 2.195312zm0 0" fill="#cacdcf"/><path d="m136.269531 141.4375c-1.917969 0-3.835937-.734375-5.300781-2.199219-4.300781-4.300781-6.667969-10.015625-6.667969-16.097656s2.367188-11.796875 6.664063-16.097656c2.929687-2.929688 7.679687-2.929688 10.609375-.003907 2.929687 2.929688 2.929687 7.679688 0 10.605469-1.46875 1.46875-2.273438 3.421875-2.273438 5.496094s.804688 4.023437 2.273438 5.492187c2.929687 2.929688 2.929687 7.675782 0 10.605469-1.464844 1.464844-3.382813 2.199219-5.304688 2.199219zm0 0" fill="#dfe3e5"/><path d="m225.398438 227.011719c-1.917969 0-3.835938-.730469-5.300782-2.195313-4.300781-4.300781-6.667968-10.019531-6.667968-16.101562 0-6.078125 2.367187-11.796875 6.667968-16.097656 2.929688-2.929688 7.675782-2.929688 10.605469 0 2.929687 2.929687 2.929687 7.679687 0 10.605468-1.46875 1.46875-2.273437 3.417969-2.273437 5.492188 0 2.074218.804687 4.023437 2.273437 5.492187 2.929687 2.929688 2.929687 7.679688 0 10.605469-1.464844 1.46875-3.382813 2.199219-5.304687 2.199219zm0 0" fill="#dfe3e5"/><path d="m271.585938 115.027344c-1.921876 0-3.839844-.730469-5.304688-2.195313-4.300781-4.300781-6.667969-10.019531-6.667969-16.101562s2.367188-11.800781 6.667969-16.097657c2.929688-2.929687 7.679688-2.929687 10.609375 0 2.925781 2.929688 2.925781 7.675782-.003906 10.605469-1.464844 1.46875-2.273438 3.417969-2.273438 5.492188s.808594 4.023437 2.273438 5.492187c2.929687 2.929688 2.929687 7.675782.003906 10.605469-1.464844 1.46875-3.386719 2.199219-5.304687 2.199219zm0 0" fill="#cacdcf"/><path d="m378.1875 125.820312c-1.921875 0-3.839844-.730468-5.304688-2.195312-4.300781-4.300781-6.667968-10.015625-6.667968-16.097656 0-6.082032 2.367187-11.800782 6.667968-16.101563 2.929688-2.925781 7.679688-2.925781 10.605469 0 2.929688 2.929688 2.929688 7.679688 0 10.609375-1.464843 1.464844-2.273437 3.414063-2.273437 5.492188 0 2.074218.808594 4.023437 2.273437 5.488281 2.929688 2.929687 2.929688 7.679687 0 10.609375-1.464843 1.464844-3.382812 2.195312-5.300781 2.195312zm0 0" fill="#cacdcf"/></svg>