<svg height="512pt" viewBox="-12 0 512 512" width="512pt" xmlns="http://www.w3.org/2000/svg"><path d="m366.691406 512h-314.347656c-28.910156 0-52.34375-23.433594-52.34375-52.339844v-355.296875h488.457031v285.875c0 67.246094-54.515625 121.761719-121.765625 121.761719zm0 0" fill="#f8eed1"/><path d="m0 459.660156c0 28.90625 23.433594 52.339844 52.339844 52.339844h279.183594c-143.625-82.171875-178.738282-285.898438-187.324219-407.632812h-144.199219zm0 0" fill="#f0e3c0"/><path d="m410.511719 241.796875c0 90.949219-73.726563 164.675781-164.675781 164.675781-90.949219 0-164.679688-73.726562-164.679688-164.675781s73.730469-164.675781 164.679688-164.675781c90.949218 0 164.675781 73.726562 164.675781 164.675781zm0 0" fill="#7dad91"/><path d="m225.996094 405.28125c-55.808594-92.246094-74.785156-210.179688-81.242188-293.488281-38.699218 30.132812-63.597656 77.15625-63.597656 130.003906 0 84.234375 63.246094 153.6875 144.839844 163.484375zm0 0" fill="#6e9981"/><path d="m101.25 443.394531c0 16.089844-13.042969 29.132813-29.136719 29.132813-16.089843 0-29.132812-13.042969-29.132812-29.132813 0-16.09375 13.042969-29.136719 29.132812-29.136719 16.09375 0 29.136719 13.042969 29.136719 29.136719zm0 0" fill="#6e9981"/><path d="m168.753906 384.605469c-1.023437 0-2.054687-.113281-3.09375-.34375l-34.070312-7.648438c-22.207032-4.980469-37.410156-25.832031-35.359375-48.5l4.054687-44.824219c1.613282-17.828124 16.328125-31.273437 34.230469-31.273437h44.339844c7.761719 0 14.054687 6.292969 14.054687 14.054687 0 7.765626-6.292968 14.058594-14.054687 14.058594h-44.339844c-3.257813 0-5.9375 2.445313-6.234375 5.691406l-4.054688 44.824219c-.78125 8.664063 5.027344 16.636719 13.515626 18.542969l34.074218 7.644531c7.574219 1.699219 12.335938 9.21875 10.636719 16.792969-1.46875 6.539062-7.269531 10.980469-13.699219 10.980469zm0 0" fill="#9cd6e3"/><path d="m325.078125 472.527344h-132.632813c-9.136718 0-17.722656-4.386719-23.070312-11.800782l-12.246094-16.964843c-5.019531-6.953125-7.273437-15.519531-6.328125-24.042969l24.621094-221.832031c.554687-5 4.777344-8.78125 9.808594-8.78125h147.066406c5.027344 0 9.253906 3.78125 9.808594 8.78125l24.621093 221.832031c.945313 8.523438-1.3125 17.089844-6.328124 24.042969l-12.246094 16.964843c-5.351563 7.414063-13.933594 11.800782-23.074219 11.800782zm0 0" fill="#fae37b"/><path d="m346.726562 462.523438c-57.5625-33.117188-87.347656-100.882813-102.683593-164.714844 11.375-2.226563 19.960937-12.246094 19.960937-24.273438v-29.46875c0-2.8125 1.941406-5.214844 4.664063-5.914062 1.902343-.488282 3.753906-1.097656 5.554687-1.8125 2.691406-1.078125 5.796875-.292969 7.625 1.960937 8.453125 10.402344 21.339844 17.058594 35.792969 17.058594 11.289063 0 21.628906-4.0625 29.644531-10.804687l-5.179687-46.671876c-.554688-4.996093-4.78125-8.78125-9.8125-8.78125h-147.0625c-5.03125 0-9.253907 3.785157-9.808594 8.78125l-24.621094 221.835938c-.945312 8.523438 1.308594 17.089844 6.328125 24.042969l12.246094 16.964843c5.347656 7.414063 13.933594 11.800782 23.070312 11.800782h132.632813c8.371094 0 16.269531-3.6875 21.648437-10.003906zm0 0" fill="#f0d66a"/><path d="m150.800781 419.71875c-.945312 8.523438 1.308594 17.089844 6.328125 24.042969l12.246094 16.964843c5.347656 7.414063 13.933594 11.800782 23.070312 11.800782h132.632813c9.140625 0 17.722656-4.386719 23.074219-11.800782l12.246094-16.964843c5.015624-6.953125 7.273437-15.519531 6.324218-24.042969l-1.007812-9.109375h-213.902344zm0 0" fill="#f7cf66"/><path d="m150.800781 419.71875c-.945312 8.523438 1.308594 17.089844 6.328125 24.042969l12.246094 16.964843c5.347656 7.414063 13.933594 11.800782 23.070312 11.800782h132.632813c8.371094 0 16.269531-3.691406 21.648437-10.003906-22.320312-12.839844-40.445312-30.902344-55.191406-51.914063h-139.722656zm0 0" fill="#ebc35c"/><path d="m299.785156 272c0 2.84375-2.304687 5.148438-5.148437 5.148438s-5.148438-2.304688-5.148438-5.148438 2.304688-5.148438 5.148438-5.148438 5.148437 2.304688 5.148437 5.148438zm0 0" fill="#f0d66a"/><path d="m213.074219 294.269531c0 2.84375-2.304688 5.148438-5.148438 5.148438s-5.148437-2.304688-5.148437-5.148438c0-2.839843 2.304687-5.148437 5.148437-5.148437s5.148438 2.308594 5.148438 5.148437zm0 0" fill="#fae37b"/><path d="m245.746094 392.523438c0 2.84375-2.304688 5.148437-5.148438 5.148437s-5.148437-2.304687-5.148437-5.148437c0-2.839844 2.304687-5.144532 5.148437-5.144532s5.148438 2.304688 5.148438 5.144532zm0 0" fill="#fae37b"/><path d="m320.535156 150.480469c-5.773437-.351563-11.339844.363281-16.511718 1.960937-4.855469 1.5-10.132813.003906-13.65625-3.660156-8.386719-8.714844-20.160157-14.140625-33.210938-14.140625-12.78125 0-24.339844 5.203125-32.691406 13.605469-3.316406 3.339844-8.179688 4.691406-12.746094 3.539062-4.507812-1.136718-9.285156-1.609375-14.21875-1.300781-23.371094 1.46875-42.121094 20.617187-43.109375 44.011719-1.113281 26.375 19.9375 48.105468 46.0625 48.105468 2.917969 0 5.769531-.273437 8.535156-.796874 2.878907-.539063 5.542969 1.640624 5.542969 4.566406v14.40625c0 13.660156 11.074219 24.734375 24.734375 24.734375 13.664063 0 24.738281-11.074219 24.738281-24.734375v-29.472656c0-2.8125 1.941406-5.210938 4.664063-5.914063 1.902343-.488281 3.757812-1.09375 5.554687-1.8125 2.691406-1.074219 5.796875-.292969 7.625 1.960937 8.453125 10.40625 21.34375 17.0625 35.792969 17.0625 26.167969 0 47.242187-21.800781 46.054687-48.230468-1.046874-23.367188-19.808593-42.457032-43.160156-43.890625zm0 0" fill="#f8eed1"/><path d="m263.34375 266.449219c-44.832031-7.960938-68.019531-72.910157-63.808594-116.042969-.675781.011719-1.351562.035156-2.035156.078125-23.371094 1.46875-42.121094 20.617187-43.109375 44.015625-1.113281 26.371094 19.9375 48.101562 46.0625 48.101562 2.917969 0 5.769531-.273437 8.535156-.796874 2.878907-.539063 5.542969 1.640624 5.542969 4.566406v14.40625c0 13.660156 11.074219 24.734375 24.734375 24.734375 11.710937.003906 21.511719-8.136719 24.078125-19.0625zm0 0" fill="#f0e3c0"/><path d="m330.570312 180.484375c0 2.84375-2.304687 5.148437-5.144531 5.148437-2.84375 0-5.148437-2.304687-5.148437-5.148437s2.304687-5.148437 5.148437-5.148437c2.839844 0 5.144531 2.304687 5.144531 5.148437zm0 0" fill="#f0e3c0"/><path d="m192.910156 213.199219c0 2.84375-2.304687 5.148437-5.148437 5.148437s-5.148438-2.304687-5.148438-5.148437 2.304688-5.148438 5.148438-5.148438 5.148437 2.304688 5.148437 5.148438zm0 0" fill="#f8eed1"/><path d="m248.46875 157.722656c0 2.84375-2.304688 5.148438-5.148438 5.148438s-5.148437-2.304688-5.148437-5.148438 2.304687-5.148437 5.148437-5.148437 5.148438 2.304687 5.148438 5.148437zm0 0" fill="#f0e3c0"/><path d="m289.523438 199.535156c0 2.84375-2.304688 5.148438-5.148438 5.148438s-5.148438-2.304688-5.148438-5.148438 2.304688-5.148437 5.148438-5.148437 5.148438 2.304687 5.148438 5.148437zm0 0" fill="#f0e3c0"/><path d="m219.121094 359.964844c0-10.195313-10.375-18.460938-23.175782-18.460938-12.800781 0-23.179687 8.265625-23.179687 18.460938 0 10.191406 10.378906 18.457031 23.179687 18.457031 12.800782 0 23.175782-8.265625 23.175782-18.457031zm0 0" fill="#f1a18f"/><path d="m344.757812 359.964844c0-10.195313-10.375-18.460938-23.175781-18.460938s-23.179687 8.265625-23.179687 18.460938c0 10.191406 10.378906 18.457031 23.179687 18.457031s23.175781-8.265625 23.175781-18.457031zm0 0" fill="#f1a18f"/><g fill="#495059"><path d="m199.820312 345.667969c-4.140624 0-7.5-3.359375-7.5-7.5v-9.949219c0-4.140625 3.359376-7.5 7.5-7.5 4.140626 0 7.5 3.359375 7.5 7.5v9.949219c0 4.140625-3.359374 7.5-7.5 7.5zm0 0"/><path d="m258.761719 362.574219c-9.273438 0-16.792969-7.519531-16.792969-16.792969v-12.210938c0-2.53125 2.054688-4.582031 4.585938-4.582031h24.417968c2.53125 0 4.582032 2.050781 4.582032 4.582031v12.210938c0 9.273438-7.519532 16.792969-16.792969 16.792969zm0 0"/><path d="m317.707031 345.667969c-4.144531 0-7.5-3.359375-7.5-7.5v-9.949219c0-4.140625 3.355469-7.5 7.5-7.5 4.140625 0 7.5 3.359375 7.5 7.5v9.949219c0 4.140625-3.359375 7.5-7.5 7.5zm0 0"/></g><path d="m488.457031 390.238281c0 67.246094-54.515625 121.761719-121.765625 121.761719 17.101563 0 30.960938-13.859375 30.960938-30.960938v-7.5c0-28.90625 23.433594-52.34375 52.339844-52.34375h7.503906c17.097656 0 30.960937-13.859374 30.960937-30.957031zm0 0" fill="#ddaf89"/><path d="m436.113281 26.859375h-383.769531c-28.910156 0-52.34375 23.4375-52.34375 52.34375v25.160156h488.457031v-25.160156c0-28.90625-23.433593-52.34375-52.34375-52.34375zm0 0" fill="#d97b7d"/><path d="m52.34375 26.859375c-28.910156 0-52.34375 23.4375-52.34375 52.34375v25.160156h144.203125c-2.355469-33.417969-2.714844-60.652343-2.769531-77.503906zm0 0" fill="#c77172"/><path d="m244.226562 0c-11.300781 0-20.464843 9.164062-20.464843 20.464844v24.683594c0 11.300781 9.164062 20.464843 20.464843 20.464843 11.304688 0 20.46875-9.164062 20.46875-20.464843v-24.683594c0-11.300782-9.164062-20.464844-20.46875-20.464844zm0 0" fill="#495059"/><path d="m104.941406 0c-11.304687 0-20.464844 9.164062-20.464844 20.464844v24.683594c0 11.300781 9.160157 20.464843 20.464844 20.464843 11.300782 0 20.464844-9.164062 20.464844-20.464843v-24.683594c0-11.300782-9.164062-20.464844-20.464844-20.464844zm0 0" fill="#495059"/><path d="m383.515625 0c11.300781 0 20.464844 9.164062 20.464844 20.464844v24.683594c0 11.300781-9.164063 20.464843-20.464844 20.464843-11.304687 0-20.464844-9.164062-20.464844-20.464843v-24.683594c0-11.300782 9.160157-20.464844 20.464844-20.464844zm0 0" fill="#495059"/></svg>