<svg height="511pt" viewBox="-47 0 511 511.99925" width="511pt" xmlns="http://www.w3.org/2000/svg"><path d="m373.121094 430.5625c27.992187 0 34.132812 18.183594 34.132812 34.863281 0 20.585938-13.394531 36.871094-28.636718 45.171875-3.429688 1.867188-7.5625 1.867188-10.992188 0-15.242188-8.300781-28.636719-24.585937-28.636719-45.171875 0-16.679687 6.140625-34.863281 34.132813-34.863281zm0 0" fill="#fae37b"/><path d="m335.316406 367.003906c0-26.394531 9.8125-47.789062 37.804688-47.789062 27.992187 0 37.804687 21.394531 37.804687 47.789062 0 26.394532-9.8125 47.792969-37.804687 47.792969-27.992188 0-37.804688-21.398437-37.804688-47.792969zm0 0" fill="#f7cf66"/><path d="m405.132812 450.449219c-8.320312 2.695312-19.089843 3.539062-32.011718 3.539062s-23.691406-.84375-32.011719-3.539062c3.585937-11.023438 12.472656-19.886719 32.011719-19.886719 19.539062 0 28.425781 8.863281 32.011718 19.886719zm0 0" fill="#f0d66a"/><path d="m374.589844 494.03125c-1.238282 0-2.496094-.308594-3.65625-.957031-3.613282-2.023438-4.902344-6.59375-2.878906-10.207031 3.144531-5.613282 4.90625-23.523438 3.148437-31.941407-.847656-4.054687 1.75-8.03125 5.804687-8.875 4.054688-.851562 8.027344 1.75 8.875 5.804688 2.320313 11.101562.589844 32.820312-4.738281 42.339843-1.375 2.453126-3.925781 3.835938-6.554687 3.835938zm0 0" fill="#f0d66a"/><path d="m335.316406 421.058594c0 11.550781 1.175782 18.914062 37.804688 18.914062s37.804687-7.363281 37.804687-18.914062c0-11.550782-1.175781-18.914063-37.804687-18.914063s-37.804688 7.363281-37.804688 18.914063zm0 0" fill="#d97b7d"/><path d="m335.316406 281.546875c0-26.398437 9.8125-47.792969 37.804688-47.792969 27.992187 0 37.804687 21.394532 37.804687 47.792969 0 26.394531-9.8125 47.789063-37.804687 47.789063-27.992188 0-37.804688-21.394532-37.804688-47.789063zm0 0" fill="#fae37b"/><path d="m335.316406 196.085938c0-26.394532 9.8125-47.792969 37.804688-47.792969 27.992187 0 37.804687 21.398437 37.804687 47.792969 0 26.394531-9.8125 47.792968-37.804687 47.792968-27.992188 0-37.804688-21.398437-37.804688-47.792968zm0 0" fill="#f7cf66"/><path d="m337.097656 178.351562c23.410156 3.023438 46.945313 4.5 68.523438 4.5 1.457031 0 2.90625-.019531 4.355468-.035156-3.035156-19.9375-13.746093-34.523437-36.855468-34.523437-21.34375 0-32.109375 12.445312-36.023438 30.058593zm0 0" fill="#ebc35c"/><path d="m366.046875 402.253906c-29.695313.929688-30.730469 8.050782-30.730469 18.804688 0 11.550781 1.175782 18.914062 37.804688 18.914062 5.453125 0 10.101562-.164062 14.09375-.480468-26.894532-3.921876-28.457032-30.683594-21.167969-37.238282zm0 0" fill="#c77172"/><path d="m45.839844 430.5625c-27.988282 0-34.132813 18.183594-34.132813 34.863281 0 20.585938 13.398438 36.871094 28.640625 45.171875 3.425782 1.867188 7.5625 1.867188 10.988282 0 15.246093-8.300781 28.640624-24.585937 28.640624-45.171875 0-16.679687-6.144531-34.863281-34.136718-34.863281zm0 0" fill="#fae37b"/><path d="m83.648438 367.003906c0-26.394531-9.816407-47.789062-37.808594-47.789062-27.988282 0-37.804688 21.394531-37.804688 47.789062 0 26.394532 9.816406 47.792969 37.804688 47.792969 27.992187 0 37.808594-21.398437 37.808594-47.792969zm0 0" fill="#f7cf66"/><path d="m13.828125 450.449219c8.320313 2.695312 19.089844 3.539062 32.011719 3.539062 12.925781 0 23.695312-.84375 32.015625-3.539062-3.589844-11.023438-12.472657-19.886719-32.011719-19.886719-19.542969 0-28.425781 8.863281-32.015625 19.886719zm0 0" fill="#f0d66a"/><path d="m44.371094 494.03125c-2.625 0-5.175782-1.382812-6.550782-3.835938-5.328124-9.519531-7.0625-31.238281-4.742187-42.339843.847656-4.054688 4.820313-6.652344 8.878906-5.808594 4.050781.847656 6.652344 4.820313 5.804688 8.878906-1.761719 8.417969.003906 26.328125 3.148437 31.9375 2.019532 3.617188.734375 8.1875-2.882812 10.210938-1.15625.648437-2.414063.957031-3.65625.957031zm0 0" fill="#f0d66a"/><path d="m8.039062 421.058594c0 11.550781 1.171876 18.914062 37.804688 18.914062 36.628906 0 37.804688-7.363281 37.804688-18.914062 0-11.550782-1.175782-18.914063-37.804688-18.914063-36.632812 0-37.804688 7.363281-37.804688 18.914063zm0 0" fill="#d97b7d"/><path d="m83.648438 281.546875c0-26.398437-9.816407-47.792969-37.808594-47.792969-27.988282 0-37.804688 21.394532-37.804688 47.792969 0 26.394531 9.816406 47.789063 37.804688 47.789063 27.992187 0 37.808594-21.394532 37.808594-47.789063zm0 0" fill="#fae37b"/><path d="m83.648438 196.085938c0-26.394532-9.816407-47.792969-37.808594-47.792969-27.988282 0-37.804688 21.398437-37.804688 47.792969 0 26.394531 9.816406 47.792968 37.804688 47.792968 27.992187 0 37.808594-21.398437 37.808594-47.792968zm0 0" fill="#f7cf66"/><path d="m81.867188 178.351562c-23.414063 3.023438-46.945313 4.5-68.527344 4.5-1.457032 0-2.902344-.019531-4.351563-.035156 3.035157-19.9375 13.746094-34.523437 36.855469-34.523437 21.34375 0 32.109375 12.445312 36.023438 30.058593zm0 0" fill="#ebc35c"/><path d="m214.894531 123.765625c36.386719 29.59375 120.550781 45.039063 190.488281 45.074219 8.039063.003906 14.253907-7.167969 12.894532-15.09375-16.386719-95.332032-108.5625-153.746094-208.796875-153.746094s-192.410157 58.414062-208.792969 153.746094c-1.363281 7.925781 4.855469 15.097656 12.894531 15.09375 69.9375-.035156 154.097657-15.480469 190.484375-45.074219 3.15625-2.570313 7.671875-2.570313 10.828125 0zm0 0" fill="#fae37b"/><path d="m38.769531 402.253906c-29.695312.929688-30.730469 8.050782-30.730469 18.804688 0 11.550781 1.171876 18.914062 37.804688 18.914062 5.449219 0 10.101562-.164062 14.09375-.480468-26.894531-3.921876-28.457031-30.683594-21.167969-37.238282zm0 0" fill="#c77172"/><path d="m166.078125 82.070312c0-11.160156-11.363281-20.210937-25.378906-20.210937s-25.378907 9.050781-25.378907 20.210937c0 11.164063 11.363282 20.210938 25.378907 20.210938s25.378906-9.046875 25.378906-20.210938zm0 0" fill="#f1a18f"/><path d="m303.644531 82.070312c0-11.160156-11.363281-20.210937-25.382812-20.210937-14.015625 0-25.378907 9.050781-25.378907 20.210937 0 11.164063 11.363282 20.210938 25.378907 20.210938 14.019531 0 25.382812-9.046875 25.382812-20.210938zm0 0" fill="#f1a18f"/><path d="m155.492188 69.410156c-4.144532 0-7.5-3.359375-7.5-7.5v-8.964844c0-4.140624 3.355468-7.5 7.5-7.5 4.140624 0 7.5 3.359376 7.5 7.5v8.964844c0 4.140625-3.359376 7.5-7.5 7.5zm0 0" fill="#495059"/><path d="m263.472656 69.410156c-4.144531 0-7.5-3.359375-7.5-7.5v-8.964844c0-4.140624 3.355469-7.5 7.5-7.5 4.140625 0 7.5 3.359376 7.5 7.5v8.964844c0 4.140625-3.359375 7.5-7.5 7.5zm0 0" fill="#495059"/><path d="m209.480469 76.289062c-7.621094 0-14.871094-3.300781-19.886719-9.054687-2.722656-3.125-2.394531-7.863281.726562-10.582031 3.125-2.722656 7.859376-2.398438 10.582032.726562 2.167968 2.484375 5.292968 3.910156 8.578125 3.910156 3.289062 0 6.414062-1.425781 8.582031-3.910156 2.71875-3.125 7.457031-3.449218 10.582031-.726562 3.121094 2.71875 3.445313 7.457031.726563 10.582031-5.015625 5.753906-12.265625 9.054687-19.890625 9.054687zm0 0" fill="#495059"/><g fill="#f0d66a"><path d="m13.582031 168.839844c35.3125-.019532 74.25-3.96875 108.839844-11.683594-68.050781-4.878906-45.179687-93.851562-23.441406-131.300781-50.476563 25.828125-88.238281 69.949219-98.242188 127.613281-1.394531 8.023438 4.699219 15.375 12.84375 15.371094zm0 0"/><path d="m362.746094 133.871094c-.496094 0-1-.050782-1.503906-.152344-22.664063-4.609375-46.96875-20.832031-56.988282-30.878906-2.921875-2.933594-2.917968-7.683594.015625-10.605469 2.933594-2.925781 7.683594-2.917969 10.605469.011719 7.300781 7.320312 29.273438 22.691406 49.355469 26.773437 4.0625.824219 6.683593 4.785157 5.855469 8.84375-.722657 3.554688-3.847657 6.007813-7.339844 6.007813zm0 0"/><path d="m56.21875 133.871094c-3.492188 0-6.621094-2.453125-7.34375-6.007813-.824219-4.058593 1.796875-8.019531 5.855469-8.84375 20.085937-4.085937 42.054687-19.453125 49.355469-26.773437 2.921874-2.933594 7.671874-2.9375 10.605468-.015625 2.933594 2.925781 2.9375 7.675781.015625 10.609375-10.019531 10.046875-34.324219 26.269531-56.988281 30.878906-.503906.101562-1.007812.152344-1.5.152344zm0 0"/></g></svg>