<svg height="512pt" viewBox="0 0 512 512.00058" width="512pt" xmlns="http://www.w3.org/2000/svg"><path d="m447.703125 215.367188c-3.632813 0-7.261719-1.386719-10.023437-4.160157-5.503907-5.53125-5.507813-14.460937.011718-19.980469.820313-.820312 20.480469-20.292968 53.765625-37.132812 6.976563-3.527344 15.488281-.734375 19.015625 6.238281 3.527344 6.972657.734375 15.484375-6.238281 19.011719-29.011719 14.679688-46.378906 31.746094-46.550781 31.914062-2.765625 2.738282-6.375 4.109376-9.980469 4.109376zm0 0" fill="#ad9386"/><path d="m310.769531 78.453125c-3.625 0-7.246093-1.378906-10.007812-4.144531-5.527344-5.523438-5.527344-14.484375 0-20.011719.148437-.152344 17.214843-17.519531 31.894531-46.53125 3.527344-6.972656 12.042969-9.765625 19.011719-6.238281 6.976562 3.527344 9.769531 12.039062 6.238281 19.015625-16.839844 33.285156-36.3125 52.945312-37.132812 53.765625-2.761719 2.765625-6.382813 4.144531-10.003907 4.144531zm0 0" fill="#ad9386"/><path d="m312.242188 52.371094c40.699218 40.699218 40.699218 106.683594 0 147.386718l-26.679688 26.683594-8.390625-8.390625c-41-41-41-107.476562 0-148.476562l17.203125-17.203125c4.933594-4.933594 12.933594-4.933594 17.867188 0zm0 0" fill="#f7cf66"/><path d="m285.5625 226.441406 26.679688-26.683594c1.246093-1.246093 2.453124-2.519531 3.625-3.8125-48.394532-56.714843-29.246094-108.726562-11.988282-147.25-3.421875-.152343-6.890625 1.0625-9.503906 3.675782l-17.203125 17.203125c-41 41-41 107.476562 0 148.476562zm0 0" fill="#ebc35c"/><path d="m256.652344 107.960938c40.699218 40.699218 40.699218 106.6875 0 147.386718l-26.679688 26.679688-8.390625-8.386719c-41-41-41-107.476563 0-148.476563l17.203125-17.203124c4.933594-4.933594 12.933594-4.933594 17.867188 0zm0 0" fill="#fae37b"/><path d="m229.972656 282.03125 26.679688-26.683594c1.246094-1.246094 2.453125-2.519531 3.625-3.8125-48.394532-56.714844-29.246094-108.726562-11.988282-147.25-3.421874-.152344-6.890624 1.0625-9.503906 3.675782l-17.203125 17.203124c-41 41-41 107.476563 0 148.476563zm0 0" fill="#f0d66a"/><path d="m201.0625 163.550781c40.699219 40.699219 40.699219 106.6875 0 147.386719l-26.683594 26.679688-8.386718-8.386719c-41-41-41-107.476563 0-148.476563l17.203124-17.203125c4.933594-4.933593 12.933594-4.933593 17.867188 0zm0 0" fill="#f7cf66"/><path d="m174.378906 337.621094 26.683594-26.683594c1.246094-1.246094 2.453125-2.519531 3.625-3.8125-48.394531-56.714844-29.246094-108.726562-11.988281-147.25-3.421875-.152344-6.890625 1.0625-9.503907 3.675781l-17.203124 17.203125c-41 41-41 107.476563 0 148.476563zm0 0" fill="#ebc35c"/><path d="m145.472656 219.140625c40.699219 40.699219 40.699219 106.6875 0 147.386719l-26.683594 26.679687-8.386718-8.386719c-41-41-41-107.476562 0-148.476562l17.203125-17.203125c4.933593-4.933594 12.933593-4.933594 17.867187 0zm0 0" fill="#fae37b"/><path d="m118.789062 393.210938 26.683594-26.683594c1.246094-1.246094 2.453125-2.519532 3.625-3.8125-48.394531-56.714844-29.246094-108.726563-11.988281-147.25-3.421875-.152344-6.890625 1.0625-9.503906 3.675781l-17.203125 17.203125c-41 41-41 107.476562 0 148.476562zm0 0" fill="#f0d66a"/><path d="m459.628906 199.757812c-40.699218-40.699218-106.6875-40.699218-147.386718 0l-26.679688 26.683594 8.386719 8.386719c41 41 107.476562 41 148.480469 0l17.199218-17.203125c4.9375-4.933594 4.9375-12.933594 0-17.867188zm0 0" fill="#f7cf66"/><path d="m285.5625 226.441406 26.679688-26.683594c1.246093-1.246093 2.519531-2.453124 3.8125-3.625 56.71875 48.394532 108.726562 29.246094 147.25 11.988282.152343 3.421875-1.0625 6.890625-3.675782 9.503906l-17.199218 17.203125c-41.003907 41-107.480469 41-148.480469 0zm0 0" fill="#ebc35c"/><path d="m404.039062 255.347656c-40.699218-40.699218-106.6875-40.699218-147.386718 0l-26.679688 26.683594 8.386719 8.386719c41 41 107.476563 41 148.476563 0l17.203124-17.203125c4.9375-4.933594 4.9375-12.933594 0-17.867188zm0 0" fill="#fae37b"/><path d="m229.972656 282.03125 26.679688-26.683594c1.246094-1.246094 2.519531-2.453125 3.8125-3.625 56.71875 48.394532 108.726562 29.246094 147.25 11.988282.152344 3.421874-1.0625 6.890624-3.675782 9.503906l-17.203124 17.203125c-41 41-107.476563 41-148.476563 0zm0 0" fill="#f0d66a"/><path d="m348.449219 310.9375c-40.699219-40.699219-106.6875-40.699219-147.386719 0l-26.679688 26.683594 8.386719 8.386718c41 41 107.476563 41 148.476563 0l17.203125-17.203124c4.9375-4.933594 4.9375-12.933594 0-17.867188zm0 0" fill="#f7cf66"/><path d="m174.378906 337.621094 26.683594-26.683594c1.246094-1.246094 2.519531-2.453125 3.8125-3.621094 56.714844 48.390625 108.726562 29.242188 147.25 11.984375.152344 3.421875-1.0625 6.890625-3.675781 9.503907l-17.203125 17.203124c-41 41-107.476563 41-148.476563 0zm0 0" fill="#ebc35c"/><path d="m292.859375 366.527344c-40.699219-40.699219-106.6875-40.699219-147.386719 0l-26.679687 26.679687 8.386719 8.390625c41 41 107.476562 41 148.476562 0l17.203125-17.203125c4.933594-4.933593 4.933594-12.933593 0-17.867187zm0 0" fill="#fae37b"/><path d="m118.789062 393.210938 26.683594-26.683594c1.246094-1.246094 2.519532-2.453125 3.8125-3.621094 56.714844 48.390625 108.726563 29.242188 147.25 11.984375.152344 3.421875-1.0625 6.890625-3.675781 9.503906l-17.203125 17.203125c-41 41-107.476562 41-148.476562 0zm0 0" fill="#f0d66a"/><path d="m431.570312 80.429688c-5.527343-5.527344-14.488281-5.527344-20.011718 0l-338.824219 338.824218c.949219-12.40625.246094-24.988281-2.375-36.664062-1.710937-7.625-9.285156-12.417969-16.90625-10.707032-7.625 1.714844-12.421875 9.28125-10.707031 16.910157 6.628906 29.527343-2.75 63.195312-15.667969 76.117187-.003906 0-.003906.003906-.007813.007813l-22.925781 22.925781c-5.527343 5.527344-5.527343 14.488281 0 20.011719 2.761719 2.765625 6.382813 4.144531 10.007813 4.144531 3.621094 0 7.242187-1.378906 10.003906-4.144531l50.078125-50.078125c3.867187-3.40625 24.949219-6.894532 39.363281-2.742188 7.507813 2.164063 15.351563-2.167968 17.515625-9.675781 2.164063-7.511719-2.167969-15.355469-9.679687-17.515625-4.21875-1.21875-9.265625-2.089844-14.707032-2.558594l324.84375-324.84375c5.527344-5.523437 5.527344-14.484375 0-20.011718zm0 0" fill="#ad9386"/></svg>