<svg height="512pt" viewBox="-51 0 512 512" width="512pt" xmlns="http://www.w3.org/2000/svg"><path d="m110.167969 378.769531c-1.542969 0-3.113281-.167969-4.683594-.519531l-51.628906-11.589844c-33.652344-7.550781-56.683594-39.144531-53.574219-73.492187l6.144531-67.921875c2.441407-27.015625 24.738281-47.390625 51.867188-47.390625h67.183593c11.765626 0 21.300782 9.535156 21.300782 21.300781 0 11.761719-9.539063 21.296875-21.300782 21.296875h-67.183593c-4.941407 0-9 3.707031-9.445313 8.628906l-6.144531 67.921875c-1.1875 13.128906 7.617187 25.207032 20.480469 28.09375l51.628906 11.589844c11.480469 2.574219 18.695312 13.964844 16.117188 25.445312-2.222657 9.90625-11.015626 16.636719-20.761719 16.636719zm0 0" fill="#9cd6e3"/><path d="m347.046875 512h-200.972656c-13.851563 0-26.855469-6.652344-34.960938-17.882812l-18.558593-25.707032c-7.601563-10.535156-11.019532-23.519531-9.585938-36.429687l37.304688-336.144531c.84375-7.574219 7.242187-13.304688 14.867187-13.304688h222.84375c7.621094 0 14.023437 5.730469 14.863281 13.304688l37.308594 336.144531c1.429688 12.910156-1.984375 25.894531-9.589844 36.429687l-18.554687 25.707032c-8.109375 11.230468-21.113281 17.882812-34.964844 17.882812zm0 0" fill="#9cd6e3"/><path d="m379.851562 496.839844c-87.226562-50.179688-132.359374-152.867188-155.59375-249.589844 17.234376-3.371094 30.246094-18.554688 30.246094-36.777344v-44.660156c0-4.261719 2.941406-7.898438 7.066406-8.960938 2.882813-.738281 5.691407-1.660156 8.414063-2.746093 4.082031-1.628907 8.789063-.441407 11.558594 2.96875 12.804687 15.769531 32.335937 25.851562 54.234375 25.851562 17.109375 0 32.773437-6.160156 44.917968-16.371093l-7.847656-70.71875c-.84375-7.574219-7.246094-13.308594-14.867187-13.308594h-222.84375c-7.621094 0-14.023438 5.734375-14.863281 13.308594l-37.304688 336.140624c-1.433594 12.914063 1.984375 25.894532 9.585938 36.429688l18.558593 25.710938c8.101563 11.230468 21.109375 17.878906 34.960938 17.878906h200.972656c12.6875.003906 24.652344-5.589844 32.804687-15.15625zm0 0" fill="#8bc7d6"/><path d="m136.582031 467.015625-9.828125-13.613281c-5.257812-7.285156-7.621094-16.265625-6.628906-25.195313l34.308594-309.164062h184.253906l34.3125 309.164062c.988281 8.929688-1.375 17.910157-6.632812 25.195313l-9.824219 13.613281c-3.839844 5.320313-10.003907 8.472656-16.566407 8.472656h-186.835937c-6.558594 0-12.71875-3.152343-16.558594-8.472656zm0 0" fill="#fae37b"/><path d="m254.5 210.472656v-44.660156c0-4.261719 2.941406-7.898438 7.070312-8.960938 2.878907-.738281 5.6875-1.660156 8.414063-2.746093 4.082031-1.628907 8.789063-.441407 11.558594 2.96875 12.804687 15.769531 32.335937 25.851562 54.234375 25.851562 3.367187 0 6.675781-.253906 9.917968-.714843l-7.011718-63.171876h-184.25l-34.308594 309.167969c-.992188 8.929688 1.371094 17.910157 6.628906 25.195313l9.828125 13.613281c3.839844 5.320313 10 8.472656 16.5625 8.472656h186.835938c2.507812 0 4.953125-.464843 7.238281-1.328125-66.21875-54.722656-102.816406-143.054687-122.964844-226.910156 17.238282-3.371094 30.246094-18.554688 30.246094-36.777344zm0 0" fill="#f0d66a"/><path d="m308.71875 208.144531c0 4.304688-3.492188 7.796875-7.796875 7.796875-4.308594 0-7.800781-3.492187-7.800781-7.796875 0-4.308593 3.492187-7.800781 7.800781-7.800781 4.304687 0 7.796875 3.492188 7.796875 7.800781zm0 0" fill="#f0d66a"/><path d="m177.328125 241.886719c0 4.308593-3.492187 7.800781-7.800781 7.800781s-7.800782-3.492188-7.800782-7.800781c0-4.308594 3.492188-7.800781 7.800782-7.800781s7.800781 3.492187 7.800781 7.800781zm0 0" fill="#fae37b"/><path d="m226.835938 390.769531c0 4.308594-3.492188 7.800781-7.800782 7.800781s-7.800781-3.492187-7.800781-7.800781c0-4.304687 3.492187-7.796875 7.800781-7.796875s7.800782 3.492188 7.800782 7.796875zm0 0" fill="#fae37b"/><path d="m120.125 428.207031c-.992188 8.929688 1.371094 17.910157 6.628906 25.195313l9.828125 13.613281c3.839844 5.320313 10 8.472656 16.5625 8.472656h186.835938c6.558593 0 12.722656-3.152343 16.5625-8.472656l9.828125-13.613281c5.257812-7.285156 7.621094-16.265625 6.628906-25.195313l-1.113281-10.03125h-250.648438zm0 0" fill="#f7cf66"/><path d="m120.125 428.207031c-.992188 8.929688 1.371094 17.910157 6.628906 25.195313l9.828125 13.613281c3.839844 5.320313 10 8.472656 16.5625 8.472656h186.835938c2.507812 0 4.953125-.464843 7.238281-1.328125-19.457031-16.078125-36.335938-35.070312-51.011719-55.984375h-174.96875zm0 0" fill="#ebc35c"/><path d="m340.164062 24.007812c-8.753906-.539062-17.179687.542969-25.023437 2.96875-7.355469 2.273438-15.351563.003907-20.691406-5.546874-12.703125-13.207032-30.550781-21.429688-50.324219-21.429688-19.367188 0-36.882812 7.886719-49.535156 20.617188-5.023438 5.0625-12.398438 7.113281-19.3125 5.367187-6.835938-1.722656-14.070313-2.441406-21.546875-1.972656-35.414063 2.226562-63.824219 31.242187-65.320313 66.691406-1.6875 39.960937 30.207032 72.890625 69.796875 72.890625 4.417969 0 8.742188-.414062 12.929688-1.203125 4.359375-.820313 8.398437 2.484375 8.398437 6.921875v21.824219c0 20.699219 16.78125 37.480469 37.484375 37.480469 20.699219 0 37.484375-16.78125 37.484375-37.480469v-44.660157c0-4.261718 2.941406-7.898437 7.066406-8.957031 2.882813-.742187 5.691407-1.664062 8.414063-2.75 4.082031-1.628906 8.789063-.441406 11.558594 2.96875 12.804687 15.769531 32.335937 25.855469 54.234375 25.855469 39.648437 0 71.585937-33.035156 69.789062-73.082031-1.589844-35.40625-30.023437-64.335938-65.402344-66.503907zm0 0" fill="#f8eed1"/><path d="m253.5 199.726562c-67.929688-12.058593-103.066406-110.476562-96.6875-175.835937-1.023438.019531-2.050781.054687-3.082031.121094-35.414063 2.226562-63.824219 31.242187-65.320313 66.691406-1.6875 39.960937 30.207032 72.890625 69.796875 72.890625 4.417969 0 8.742188-.414062 12.929688-1.203125 4.359375-.820313 8.398437 2.484375 8.398437 6.921875v21.824219c0 20.699219 16.78125 37.480469 37.484375 37.480469 17.742188 0 32.597657-12.332032 36.480469-28.890626zm0 0" fill="#f0e3c0"/><path d="m355.371094 69.46875c0 4.308594-3.492188 7.800781-7.800782 7.800781-4.308593 0-7.800781-3.492187-7.800781-7.800781 0-4.304688 3.492188-7.796875 7.800781-7.796875 4.308594 0 7.800782 3.492187 7.800782 7.796875zm0 0" fill="#f0e3c0"/><path d="m146.773438 119.042969c0 4.308593-3.492188 7.800781-7.800782 7.800781-4.304687 0-7.796875-3.492188-7.796875-7.800781 0-4.308594 3.492188-7.800781 7.796875-7.800781 4.308594 0 7.800782 3.492187 7.800782 7.800781zm0 0" fill="#f8eed1"/><path d="m230.960938 34.980469c0 4.304687-3.492188 7.796875-7.800782 7.796875s-7.800781-3.492188-7.800781-7.796875c0-4.308594 3.492187-7.800781 7.800781-7.800781s7.800782 3.492187 7.800782 7.800781zm0 0" fill="#f0e3c0"/><path d="m293.167969 98.335938c0 4.308593-3.492188 7.800781-7.796875 7.800781-4.308594 0-7.800782-3.492188-7.800782-7.800781 0-4.308594 3.492188-7.800782 7.800782-7.800782 4.304687 0 7.796875 3.492188 7.796875 7.800782zm0 0" fill="#f0e3c0"/><path d="m200 339.167969c0-11.976563-12.1875-21.683594-27.222656-21.683594-15.039063 0-27.226563 9.707031-27.226563 21.683594 0 11.972656 12.1875 21.679687 27.226563 21.679687 15.035156 0 27.222656-9.707031 27.222656-21.679687zm0 0" fill="#f1a18f"/><path d="m347.570312 339.167969c0-11.976563-12.1875-21.683594-27.226562-21.683594-15.035156 0-27.222656 9.707031-27.222656 21.683594 0 11.972656 12.1875 21.679687 27.222656 21.679687 15.039062 0 27.226562-9.707031 27.226562-21.679687zm0 0" fill="#f1a18f"/><g fill="#495059"><path d="m177.328125 321.066406c-4.144531 0-7.5-3.355468-7.5-7.5v-11.683594c0-4.144531 3.355469-7.5 7.5-7.5 4.140625 0 7.5 3.355469 7.5 7.5v11.683594c0 4.144532-3.359375 7.5-7.5 7.5zm0 0"/><path d="m246.558594 342.234375c-10.890625 0-19.722656-8.832031-19.722656-19.726563v-14.339843c0-2.972657 2.410156-5.382813 5.382812-5.382813h28.683594c2.972656 0 5.382812 2.410156 5.382812 5.382813v14.339843c0 10.894532-8.832031 19.726563-19.726562 19.726563zm0 0"/><path d="m315.792969 321.066406c-4.140625 0-7.5-3.355468-7.5-7.5v-11.683594c0-4.144531 3.359375-7.5 7.5-7.5 4.144531 0 7.5 3.355469 7.5 7.5v11.683594c0 4.144532-3.355469 7.5-7.5 7.5zm0 0"/></g></svg>