<svg height="512pt" viewBox="0 -65 512.00071 512" width="512pt" xmlns="http://www.w3.org/2000/svg"><path d="m256 341.300781c-94.335938 0-173.210938-27.375-216.398438-75.109375-10.660156-11.78125-9.75-29.972656 2.03125-40.632812 11.777344-10.660156 29.972657-9.75 40.632813 2.03125 15.28125 16.890625 62.804687 56.175781 173.734375 56.175781 110.933594 0 158.457031-39.285156 173.738281-56.175781 10.660157-11.78125 28.851563-12.691406 40.632813-2.03125s12.6875 28.851562 2.03125 40.632812c-43.191406 47.734375-122.066406 75.109375-216.402344 75.109375zm0 0" fill="#ddaf89"/><path d="m511.558594 146.433594c-3.195313-45.101563-23.527344-86.359375-55.789063-113.199219-25.34375-21.082031-59.792969-33.1953125-94.519531-33.234375-.054688 0-.109375 0-.167969 0-38.050781 0-72.605469 14.207031-97.3125 40.011719-2.742187 2.859375-5.324219 5.8125-7.769531 8.839843-2.441406-3.027343-5.027344-5.980468-7.765625-8.839843-24.710937-25.808594-59.261719-40.011719-97.3125-40.011719-.054687 0-.117187 0-.171875 0-34.722656.0390625-69.171875 12.152344-94.515625 33.234375-32.261719 26.839844-52.597656 68.097656-55.792969 113.199219-3.195312 45.074218 11.082032 88.722656 39.160156 119.757812 10.660157 11.78125 28.851563 12.691406 40.632813 2.03125s12.6875-28.851562 2.03125-40.632812c-17.621094-19.46875-26.527344-47.570313-24.433594-77.089844 2.09375-29.546875 14.921875-56.167969 35.199219-73.035156 29.332031-24.402344 83.21875-29.441406 113.648438 2.335937 31.707031 33.117188 26.175781 82.203125-13.769532 122.148438l-130.460937 130.464843c-11.234375 11.234376-11.234375 29.449219 0 40.679688 5.617187 5.617188 12.980469 8.425781 20.339843 8.425781 7.363282 0 14.726563-2.808593 20.34375-8.425781l130.460938-130.464844c8.480469-8.480468 15.960938-17.378906 22.40625-26.601562 6.445312 9.222656 13.929688 18.121094 22.410156 26.601562l130.460938 130.464844c5.617187 5.617188 12.980468 8.425781 20.339844 8.425781 7.363281 0 14.726562-2.808593 20.34375-8.425781 11.230468-11.230469 11.234374-29.445312 0-40.679688l-130.464844-130.46875c-39.941406-39.941406-45.472656-89.027343-13.761719-122.144531 30.425781-31.78125 84.308594-26.738281 113.644531-2.335937 20.273438 16.867187 33.101563 43.488281 35.195313 73.035156 2.09375 29.519531-6.8125 57.617188-24.429688 77.089844-10.660156 11.78125-9.75 29.972656 2.03125 40.632812 11.78125 10.65625 29.972657 9.75 40.628907-2.03125 28.082031-31.035156 42.355468-74.683594 39.160156-119.757812zm0 0" fill="#ddaf89"/><path d="m76.671875 296.972656c.023437.015625.050781.03125.070313.046875 1.417968.898438 2.855468 1.78125 4.304687 2.652344.1875.113281.378906.226563.566406.339844 2.753907 1.644531 5.5625 3.246093 8.4375 4.796875l42.925781-42.925782c-5.183593-2.246093-9.949218-4.5625-14.3125-6.902343l-8.894531 8.898437c-6.863281-9.128906-13.136719-18.367187-18.785156-27.761718-3.636719-3.183594-6.515625-6.089844-8.722656-8.523438-16.972657-18.761719-25.855469-45.53125-24.613281-73.867188-8.117188-35.578124-9.730469-74.132812-5.253907-117.164062-30.027343 26.855469-48.886719 66.589844-51.953125 109.871094-3.195312 45.074218 11.078125 88.726562 39.160156 119.757812 10.382813 11.476563 22.839844 21.761719 37.070313 30.78125zm0 0" fill="#c9a07d"/><path d="m421.941406 304.800781c4.617188-2.496093 9.089844-5.097656 13.386719-7.824219l-41.992187-41.996093c-4.363282 2.339843-9.128907 4.65625-14.308594 6.902343zm0 0" fill="#c9a07d"/><path d="m315.300781 279.519531c-6.011719.917969-12.292969 1.710938-18.863281 2.355469l50.101562 50.101562c5.789063-1.273437 11.453126-2.683593 17.007813-4.207031zm0 0" fill="#c9a07d"/><path d="m196.703125 279.519531-48.25 48.25c5.554687 1.523438 11.222656 2.933594 17.007813 4.203125l.03125-.03125c3.6875.8125 7.40625 1.589844 11.183593 2.296875-2.425781-2.105469-4.804687-4.214843-7.15625-6.324219l46.042969-46.039062c-6.570312-.644531-12.851562-1.4375-18.859375-2.355469zm0 0" fill="#c9a07d"/><g fill="#f8eed1"><path d="m434.199219 29.648438c0 10.628906 8.675781 16.703124 19.242187 17.859374 10.363282 1.132813 15.855469-8.136718 16.828125-18.71875.972657-10.550781-6.695312-19.539062-17.140625-16.695312-10.253906 2.792969-18.929687 6.925781-18.929687 17.554688zm0 0"/><path d="m193.457031 332.609375c0 10.628906 8.675781 16.703125 19.242188 17.859375 10.359375 1.132812 17.871093-4.664062 18.84375-15.25.972656-10.546875-8.566407-19.667969-19.007813-16.824219-10.257812 2.792969-19.078125 3.585938-19.078125 14.214844zm0 0"/><path d="m175.382812 216.953125c5.757813 8.929687 15.804688 5.332031 23.816407-1.648437 7.859375-6.847657 9.496093-14.910157 2.378906-22.804688-7.09375-7.867188-19.90625-7.019531-24.902344 2.585938-4.902343 9.429687-6.773437 13.363281-1.292969 21.867187zm0 0"/><path d="m18.65625 223.867188c-9.921875 3.808593-12.484375 14.089843-9.777344 24.363281 2.65625 10.078125 13.277344 11.890625 23.507813 9.007812 10.195312-2.875 15.839843-13.253906 9.441406-21.984375-6.28125-8.574218-13.25-15.195312-23.171875-11.386718zm0 0"/><path d="m100.953125 65.019531c-.824219 10.59375 5.132813 15.097657 15.574219 17.066407 10.242187 1.929687 18.664062-4.660157 20.453125-15.132813 1.785156-10.445313-5.164063-20-15.796875-17.972656-10.4375 1.992187-19.410156 5.441406-20.230469 16.039062zm0 0"/><path d="m410.917969 231.773438c-.824219 10.597656 5.132812 15.101562 15.574219 17.066406 10.242187 1.929687 18.664062-4.65625 20.457031-15.132813 1.78125-10.441406-5.167969-19.996093-15.800781-17.96875-10.4375 1.988281-19.410157 5.4375-20.230469 16.035157zm0 0"/><path d="m283.046875 119.605469c7.75 5.789062 14.453125 2.949219 21.617187-4.886719 7.023438-7.683594 6.480469-17.933594-.65625-24.480469-7.113281-6.523437-18.253906-5.277343-22.429687 4.640625-4.101563 9.738282-6.28125 18.9375 1.46875 24.726563zm0 0"/></g><path d="m323.523438 47.601562c0 4.148438-3.363282 7.511719-7.511719 7.511719-4.152344 0-7.515625-3.363281-7.515625-7.511719 0-4.148437 3.363281-7.511718 7.515625-7.511718 4.148437 0 7.511719 3.363281 7.511719 7.511718zm0 0" fill="#c9a07d"/><path d="m493.449219 141.070312c0 4.148438-3.363281 7.511719-7.511719 7.511719-4.152344 0-7.511719-3.363281-7.511719-7.511719 0-4.148437 3.359375-7.511718 7.511719-7.511718 4.148438 0 7.511719 3.363281 7.511719 7.511718zm0 0" fill="#c9a07d"/><path d="m39.675781 141.070312c0 4.148438-3.363281 7.511719-7.511719 7.511719-4.148437 0-7.511718-3.363281-7.511718-7.511719 0-4.148437 3.363281-7.511718 7.511718-7.511718 4.148438 0 7.511719 3.363281 7.511719 7.511718zm0 0" fill="#ddaf89"/><path d="m77.804688 258.199219c0 4.148437-3.363282 7.511719-7.515626 7.511719-4.148437 0-7.511718-3.363282-7.511718-7.511719 0-4.152344 3.363281-7.515625 7.511718-7.515625 4.152344 0 7.515626 3.363281 7.515626 7.515625zm0 0" fill="#ddaf89"/><path d="m169.429688 29.582031c0 4.148438-3.363282 7.511719-7.511719 7.511719-4.148438 0-7.511719-3.363281-7.511719-7.511719 0-4.148437 3.363281-7.511719 7.511719-7.511719 4.148437 0 7.511719 3.363282 7.511719 7.511719zm0 0" fill="#c9a07d"/><path d="m256.578125 305.21875c0 4.148438-3.363281 7.511719-7.511719 7.511719-4.148437 0-7.511718-3.363281-7.511718-7.511719s3.363281-7.511719 7.511718-7.511719c4.148438 0 7.511719 3.363281 7.511719 7.511719zm0 0" fill="#c9a07d"/><path d="m220.046875 232.320312c0 4.148438-3.363281 7.511719-7.511719 7.511719-4.148437 0-7.511718-3.363281-7.511718-7.511719 0-4.148437 3.363281-7.511718 7.511718-7.511718 4.148438 0 7.511719 3.363281 7.511719 7.511718zm0 0" fill="#c9a07d"/><path d="m393.214844 302.707031c0 4.148438-3.363282 7.511719-7.511719 7.511719s-7.511719-3.363281-7.511719-7.511719c0-4.152343 3.363282-7.515625 7.511719-7.515625s7.511719 3.363282 7.511719 7.515625zm0 0" fill="#c9a07d"/></svg>