<svg height="512pt" viewBox="0 -122 512.00132 512" width="512pt" xmlns="http://www.w3.org/2000/svg"><path d="m136.339844 248.773438c43.683594-20.15625 92.734375-30.695313 154.570312-30.695313 61.839844 0 110.890625 10.539063 154.574219 30.695313v-218.078126c-43.683594-20.15625-92.734375-30.695312-154.574219-30.695312-61.835937 0-110.886718 10.539062-154.570312 30.695312zm0 0" fill="#f8eed1"/><path d="m409.347656 16.679688-32.96875 182.949218c-.6875 3.8125-4.269531 6.402344-8.109375 5.871094-152.761719-21.09375-170.640625-48.863281-193.429687-189.570312-13.375 4.140624-26.152344 9.066406-38.5 14.765624v218.078126c43.683594-20.152344 92.734375-30.691407 154.570312-30.691407 61.839844 0 110.890625 10.539063 154.574219 30.691407v-218.078126c-11.617187-5.363281-23.621094-10.035156-36.136719-14.015624zm0 0" fill="#f0e3c0"/><path d="m184.542969 257.042969-58.792969 10.367187c-7.246094 1.277344-14.160156-3.5625-15.4375-10.8125l-40.285156-228.453125c-1.277344-7.25 3.5625-14.164062 10.8125-15.441406l58.792968-10.367187c7.25-1.277344 14.160157 3.5625 15.441407 10.8125l40.28125 228.453124c1.277343 7.25-3.5625 14.164063-10.8125 15.441407zm0 0" fill="#d97b7d"/><path d="m143.363281 216.398438-38.929687 6.863281-28.527344-161.78125 38.933594-6.867188c7.8125-1.378906 15.265625 3.839844 16.644531 11.65625l23.535156 133.484375c1.378907 7.8125-3.839843 15.265625-11.65625 16.644532zm0 0" fill="#dfe3e5"/><path d="m48.75 197.378906 51.953125 4.71875-29.164063-165.390625-52.464843 9.25c-12.550781 2.210938-20.933594 14.183594-18.71875 26.738281l16.875 95.703126c2.761719 15.667968 15.675781 27.539062 31.519531 28.980468zm0 0" fill="#c77172"/><g fill="#495059"><path d="m58.117188 66.882812c0 4.28125-3.46875 7.75-7.75 7.75s-7.75-3.46875-7.75-7.75 3.46875-7.75 7.75-7.75 7.75 3.46875 7.75 7.75zm0 0"/><path d="m62.523438 91.871094c0 4.28125-3.46875 7.75-7.75 7.75s-7.75-3.46875-7.75-7.75 3.46875-7.75 7.75-7.75 7.75 3.46875 7.75 7.75zm0 0"/><path d="m66.929688 116.859375c0 4.277344-3.46875 7.75-7.75 7.75s-7.75-3.472656-7.75-7.75c0-4.28125 3.46875-7.753906 7.75-7.753906s7.75 3.472656 7.75 7.753906zm0 0"/><path d="m71.335938 141.84375c0 4.28125-3.46875 7.75-7.75 7.75s-7.753907-3.46875-7.753907-7.75 3.472657-7.75 7.753907-7.75 7.75 3.46875 7.75 7.75zm0 0"/><path d="m75.742188 166.832031c0 4.28125-3.472657 7.75-7.75 7.75-4.28125 0-7.753907-3.46875-7.753907-7.75s3.472657-7.75 7.753907-7.75c4.277343 0 7.75 3.46875 7.75 7.75zm0 0"/><path d="m34.3125 71.082031c0 4.28125-3.46875 7.75-7.75 7.75s-7.75-3.46875-7.75-7.75 3.46875-7.75 7.75-7.75 7.75 3.46875 7.75 7.75zm0 0"/><path d="m38.71875 96.070312c0 4.277344-3.46875 7.75-7.75 7.75s-7.75-3.472656-7.75-7.75c0-4.28125 3.46875-7.753906 7.75-7.753906s7.75 3.472656 7.75 7.753906zm0 0"/><path d="m43.125 121.054688c0 4.28125-3.46875 7.753906-7.75 7.753906s-7.75-3.472656-7.75-7.753906 3.46875-7.75 7.75-7.75 7.75 3.46875 7.75 7.75zm0 0"/><path d="m47.53125 146.042969c0 4.28125-3.46875 7.75-7.75 7.75s-7.75-3.46875-7.75-7.75 3.46875-7.75 7.75-7.75 7.75 3.46875 7.75 7.75zm0 0"/><path d="m51.9375 171.03125c0 4.277344-3.46875 7.75-7.75 7.75s-7.75-3.472656-7.75-7.75c0-4.28125 3.46875-7.753906 7.75-7.753906s7.75 3.472656 7.75 7.753906zm0 0"/></g><path d="m141.949219 125.617188 2.601562 14.773437-53.078125 9.355469-2.605468-14.773438zm0 0" fill="#cacdcf"/><path d="m134.722656 84.628906 2.601563 14.769532-53.078125 9.359374-2.605469-14.773437zm0 0" fill="#cacdcf"/><path d="m149.175781 166.605469 2.605469 14.773437-53.082031 9.355469-2.605469-14.769531zm0 0" fill="#cacdcf"/><path d="m397.28125 257.042969 58.792969 10.367187c7.246093 1.277344 14.160156-3.5625 15.4375-10.8125l40.285156-228.453125c1.277344-7.25-3.5625-14.164062-10.8125-15.441406l-58.792969-10.367187c-7.246094-1.277344-14.160156 3.5625-15.441406 10.8125l-40.28125 228.453124c-1.277344 7.25 3.5625 14.164063 10.8125 15.441407zm0 0" fill="#d97b7d"/><path d="m290.910156 0c-2.523437 0-5.015625.0273438-7.5.0625v218.019531c0 .019531.003906.039063.003906.058594 2.480469-.035156 4.976563-.058594 7.496094-.058594 2.523438 0 5.015625.023438 7.5.058594 0-.019531 0-.039063 0-.058594v-218.019531c-2.480468-.0351562-4.972656-.0625-7.5-.0625zm0 0" fill="#f0e3c0"/><path d="m232.882812 221.589844c4.886719-.628906 9.855469-1.175782 14.914063-1.632813l-26.503906-214.785156c-5.015625.800781-9.9375 1.695313-14.78125 2.683594zm0 0" fill="#f0e3c0"/><path d="m334.027344 219.957031c5.058594.460938 10.027344 1.003907 14.914062 1.632813l26.371094-213.734375c-4.84375-.984375-9.765625-1.882813-14.78125-2.683594zm0 0" fill="#f0e3c0"/><path d="m457.503906 177.464844c-10.453125-1.839844-20.804687 7.304687-23.117187 20.433594-2.3125 13.125 4.285156 25.257812 14.738281 27.101562 10.449219 1.839844 20.800781-7.304688 23.113281-20.429688s-4.285156-25.261718-14.734375-27.105468zm0 0" fill="#f1a18f"/><path d="m471.886719 96.195312c10.453125 1.84375 20.800781-7.304687 23.117187-20.429687 2.3125-13.125-4.285156-25.257813-14.738281-27.101563s-20.800781 7.304688-23.117187 20.429688c-2.3125 13.125 4.285156 25.257812 14.738281 27.101562zm0 0" fill="#f1a18f"/><path d="m431.699219 200.832031c-.433594 0-.871094-.039062-1.3125-.113281l-10.199219-1.800781c-4.078125-.71875-6.804688-4.609375-6.082031-8.6875.71875-4.078125 4.601562-6.800781 8.6875-6.082031l10.199219 1.796874c4.082031.71875 6.804687 4.609376 6.085937 8.6875-.644531 3.640626-3.808594 6.199219-7.378906 6.199219zm0 0" fill="#495059"/><path d="m467.371094 137.308594c-1.675782 9.507812-10.746094 15.855468-20.253906 14.179687l-12.519532-2.207031c-2.597656-.457031-4.328125-2.929688-3.871094-5.527344l4.414063-25.039062c.460937-2.59375 2.933594-4.328125 5.53125-3.871094l12.515625 2.207031c9.511719 1.679688 15.859375 10.746094 14.183594 20.257813zm0 0" fill="#495059"/><path d="m453.011719 79.957031c-.433594 0-.867188-.039062-1.3125-.113281l-10.199219-1.800781c-4.078125-.71875-6.804688-4.609375-6.082031-8.6875.71875-4.078125 4.601562-6.796875 8.6875-6.082031l10.199219 1.796874c4.078124.71875 6.804687 4.609376 6.082031 8.6875-.640625 3.640626-3.804688 6.199219-7.375 6.199219zm0 0" fill="#495059"/></svg>