<svg height="512pt" viewBox="-100 0 512 512" width="512pt" xmlns="http://www.w3.org/2000/svg"><path d="m129.328125 411.738281h52.382813v69.351563h-52.382813zm0 0" fill="#9cd6e3"/><path d="m219.425781 512h-127.816406c-5.441406 0-9.3125-5.296875-7.664063-10.480469 3.875-12.167969 15.171876-20.429687 27.941407-20.429687h87.265625c12.765625 0 24.066406 8.261718 27.9375 20.429687 1.648437 5.183594-2.222656 10.480469-7.664063 10.480469zm0 0" fill="#8bc7d6"/><path d="m280.375 83.660156h-249.714844v231.453125c0 34.203125 14.246094 66.863281 39.316406 90.132813 18.339844 17.023437 42.4375 26.484375 67.460938 26.484375h36.164062c25.019532 0 49.121094-9.460938 67.457032-26.484375 25.070312-23.269532 39.316406-55.929688 39.316406-90.132813zm0 0" fill="#9cd6e3"/><path d="m173.601562 431.730469c19.449219 0 38.328126-5.742188 54.390626-16.28125-109.359376-32.855469-137.203126-158.273438-143.542969-250.828125-.367188-5.355469 2.621093-10.3125 7.414062-12.738282 4.121094-2.085937 7.957031-4.589843 11.441407-7.457031 6.902343-5.675781 16.371093-6.9375 24.5625-3.359375 8.417968 3.671875 17.78125 5.722656 27.652343 5.722656 9.882813 0 19.261719-2.054687 27.691407-5.742187 2.84375-1.242187 5.839843-1.898437 8.832031-1.984375 3.949219-.113281 7.226562 3.039062 7.226562 6.992188v38.535156c0 15.75 12.765625 28.511718 28.511719 28.511718s28.511719-12.761718 28.511719-28.511718v-19.832032c0-3.492187 2.476562-6.472656 5.894531-7.160156 6.503906-1.304687 12.621094-3.5625 18.1875-6.585937v-67.351563h-249.714844v231.453125c0 34.203125 14.246094 66.863281 39.316406 90.132813 18.339844 17.023437 42.4375 26.484375 67.460938 26.484375zm0 0" fill="#8bc7d6"/><path d="m137.4375 393.898438c-15.527344 0-30.34375-5.820313-41.726562-16.378907-17.296876-16.058593-27.21875-38.804687-27.21875-62.40625v-203.710937h174.050781v203.710937c0 23.601563-9.921875 46.347657-27.21875 62.40625-11.378907 10.558594-26.195313 16.378907-41.722657 16.378907zm0 0" fill="#fae37b"/><path d="m173.601562 393.898438c2.789063 0 5.558594-.195313 8.289063-.566407-71.539063-49.691406-92.109375-150.832031-97.441406-228.707031-.367188-5.359375 2.621093-10.316406 7.414062-12.742188 4.121094-2.085937 7.957031-4.589843 11.441407-7.453124 6.902343-5.675782 16.371093-6.9375 24.5625-3.363282 8.417968 3.675782 17.78125 5.726563 27.652343 5.726563 9.882813 0 19.261719-2.058594 27.691407-5.746094 2.84375-1.242187 5.84375-1.894531 8.832031-1.980469 3.953125-.117187 7.226562 3.035156 7.226562 6.988282v38.539062c0 15.746094 12.765625 28.511719 28.511719 28.511719 5.40625 0 10.457031-1.503907 14.765625-4.117188v-97.585937h-174.054687v203.710937c0 23.601563 9.921874 46.347657 27.21875 62.40625 11.382812 10.5625 26.199218 16.378907 41.726562 16.378907zm0 0" fill="#f0d66a"/><path d="m311.035156 81.550781c0-31.6875-27.792968-57.375-62.078125-57.375-7.855469 0-15.371093 1.351563-22.289062 3.8125-7.140625 2.542969-15.132813.398438-20.140625-5.292969-12.207032-13.871093-30.523438-22.695312-51.007813-22.695312-20.488281 0-38.804687 8.824219-51.011719 22.695312-5.007812 5.6875-13 7.835938-20.140624 5.292969-6.917969-2.460937-14.433594-3.8125-22.289063-3.8125-34.285156 0-62.078125 25.6875-62.078125 57.375s27.792969 57.375 62.078125 57.375c15.828125 0 30.265625-5.476562 41.226563-14.492187 6.890624-5.667969 16.34375-6.957032 24.519531-3.378906 8.429687 3.683593 17.808593 5.742187 27.691406 5.742187 9.886719 0 19.261719-2.058594 27.695313-5.742187 2.84375-1.246094 5.839843-1.898438 8.828124-1.984376 3.953126-.113281 7.230469 3.039063 7.230469 6.992188v38.535156c0 15.746094 12.761719 28.511719 28.511719 28.511719 15.746094 0 28.511719-12.765625 28.511719-28.511719v-19.835937c0-3.488281 2.472656-6.472657 5.894531-7.160157 27.925781-5.601562 48.847656-28.5625 48.847656-56.050781zm0 0" fill="#f8eed1"/><path d="m103.214844 124.503906c-41.386719-7.488281-55.417969-70.839844-29.769532-99.363281-3.6875-.632813-7.484374-.964844-11.367187-.964844-34.285156 0-62.078125 25.6875-62.078125 57.375s27.792969 57.375 62.078125 57.375c15.785156 0 30.183594-5.449219 41.136719-14.421875zm0 0" fill="#f0e3c0"/><path d="m72.886719 341.976562c4.484375 13.453126 12.273437 25.746094 22.824219 35.539063 11.382812 10.5625 26.199218 16.382813 41.726562 16.382813h36.164062c15.523438 0 30.34375-5.820313 41.722657-16.378907 10.554687-9.796875 18.339843-22.089843 22.824219-35.542969zm0 0" fill="#f7cf66"/><path d="m95.710938 377.519531c11.382812 10.5625 26.199218 16.378907 41.726562 16.378907h36.164062c2.789063 0 5.558594-.195313 8.289063-.566407-19.753906-13.71875-35.628906-31.359375-48.363281-51.355469h-60.640625c4.484375 13.453126 12.273437 25.746094 22.824219 35.542969zm0 0" fill="#ebc35c"/><path d="m117.429688 258.734375c0-9.796875-9.972657-17.738281-22.273438-17.738281-12.296875 0-22.269531 7.941406-22.269531 17.738281 0 9.792969 9.972656 17.734375 22.269531 17.734375 12.300781 0 22.273438-7.941406 22.273438-17.734375zm0 0" fill="#f1a18f"/><path d="m238.148438 258.734375c0-9.796875-9.96875-17.738281-22.269532-17.738281-12.300781 0-22.273437 7.941406-22.273437 17.738281 0 9.792969 9.972656 17.734375 22.273437 17.734375 12.300782 0 22.269532-7.941406 22.269532-17.734375zm0 0" fill="#f1a18f"/><path d="m118.738281 246.933594c-4.140625 0-7.5-3.359375-7.5-7.5 0-1.710938-1.390625-3.101563-3.101562-3.101563-1.707031 0-3.101563 1.390625-3.101563 3.101563 0 4.140625-3.355468 7.5-7.5 7.5-4.140625 0-7.5-3.359375-7.5-7.5 0-9.980469 8.121094-18.101563 18.101563-18.101563s18.101562 8.117188 18.101562 18.101563c0 4.140625-3.355469 7.5-7.5 7.5zm0 0" fill="#495059"/><path d="m213.5 246.933594c-4.144531 0-7.5-3.359375-7.5-7.5 0-1.710938-1.390625-3.101563-3.101562-3.101563-1.710938 0-3.101563 1.390625-3.101563 3.101563 0 4.140625-3.359375 7.5-7.5 7.5s-7.5-3.359375-7.5-7.5c0-9.980469 8.121094-18.101563 18.101563-18.101563 9.980468 0 18.101562 8.117188 18.101562 18.101563 0 4.140625-3.359375 7.5-7.5 7.5zm0 0" fill="#495059"/><path d="m155.519531 264.445312c-6.480469 0-12.636719-2.804687-16.902343-7.695312-2.71875-3.121094-2.394532-7.859375.730468-10.582031 3.121094-2.722657 7.859375-2.394531 10.582032.726562 1.410156 1.621094 3.449218 2.550781 5.589843 2.550781s4.175781-.929687 5.589844-2.550781c2.71875-3.121093 7.457031-3.445312 10.582031-.726562 3.121094 2.722656 3.449219 7.460937.726563 10.582031-4.261719 4.890625-10.421875 7.695312-16.898438 7.695312zm0 0" fill="#495059"/><path d="m279.304688 105.816406c0 4.132813-3.351563 7.484375-7.484376 7.484375-4.132812 0-7.484374-3.351562-7.484374-7.484375 0-4.132812 3.351562-7.480468 7.484374-7.480468 4.132813 0 7.484376 3.347656 7.484376 7.480468zm0 0" fill="#f0e3c0"/><path d="m127.386719 38.347656c0 4.132813-3.347657 7.484375-7.480469 7.484375s-7.484375-3.351562-7.484375-7.484375c0-4.132812 3.351563-7.484375 7.484375-7.484375s7.480469 3.351563 7.480469 7.484375zm0 0" fill="#f0e3c0"/><path d="m196.628906 81.550781c0 4.132813-3.351562 7.484375-7.484375 7.484375-4.132812 0-7.484375-3.351562-7.484375-7.484375 0-4.132812 3.351563-7.484375 7.484375-7.484375 4.132813 0 7.484375 3.351563 7.484375 7.484375zm0 0" fill="#f0e3c0"/><path d="m51.605469 103.921875c0 4.132813-3.347657 7.480469-7.480469 7.480469s-7.484375-3.347656-7.484375-7.480469 3.351563-7.484375 7.484375-7.484375 7.480469 3.351562 7.480469 7.484375zm0 0" fill="#f8eed1"/><g fill="#f0d66a"><path d="m115.621094 173.992188c0 4.132812-3.351563 7.484374-7.484375 7.484374-4.132813 0-7.480469-3.351562-7.480469-7.484374 0-4.132813 3.347656-7.480469 7.480469-7.480469 4.132812 0 7.484375 3.347656 7.484375 7.480469zm0 0"/><path d="m193.605469 198.46875c0 4.132812-3.347657 7.480469-7.480469 7.480469s-7.484375-3.347657-7.484375-7.480469 3.351563-7.484375 7.484375-7.484375 7.480469 3.351563 7.480469 7.484375zm0 0"/><path d="m174.246094 320.632812c0 4.132813-3.351563 7.484376-7.484375 7.484376-4.132813 0-7.480469-3.351563-7.480469-7.484376 0-4.132812 3.347656-7.484374 7.480469-7.484374 4.132812 0 7.484375 3.351562 7.484375 7.484374zm0 0"/></g></svg>