<svg height="512pt" viewBox="-61 0 512 512.00019" width="512pt" xmlns="http://www.w3.org/2000/svg"><path d="m55.195312 476.105469-21.246093-21.246094c-39.160157-39.160156-45.144531-100.554687-14.285157-146.539063l70.882813-105.613281c25.933594-38.640625 46.011719-80.898437 59.59375-125.40625l13.328125-43.695312 193.070312 193.066406-50.246093 15.328125c-39.777344 12.136719-75.960938 33.863281-105.367188 63.269531l-70.925781 70.925781-19.480469 60.625 39.476563 51.898438 70.976562-6.40625-33.269531 16.128906c-44.417969 21.535156-97.601563 12.570313-132.507813-22.335937zm0 0" fill="#fae37b"/><path d="m83.003906 213.945312-63.339844 94.375c-30.859374 45.984376-24.875 107.378907 14.285157 146.539063l21.246093 21.246094c20.21875 20.21875 46.570313 31.710937 73.800782 33.640625-128.996094-99.164063-68.539063-202.667969-45.992188-295.800782zm0 0" fill="#f0d66a"/><path d="m122.859375 490.054688c-1.742187-.8125-3.367187-1.933594-4.804687-3.371094-16.351563-16.351563-25.355469-38.089844-25.355469-61.214844s9.003906-44.867188 25.355469-61.21875l52.332031-52.332031c16.351562-16.351563 38.09375-25.359375 61.21875-25.359375s44.863281 9.007812 61.21875 25.359375c6.59375 6.597656 6.59375 17.292969 0 23.890625-6.597657 6.597656-17.292969 6.597656-23.890625 0-9.972656-9.96875-23.226563-15.460938-37.328125-15.460938-14.101563 0-27.355469 5.488282-37.328125 15.460938l-52.332032 52.332031c-9.96875 9.96875-15.460937 23.226563-15.460937 37.328125 0 14.097656 5.492187 27.355469 15.460937 37.328125 6.597657 6.59375 6.597657 17.292969 0 23.886719-5.164062 5.164062-12.835937 6.285156-19.085937 3.371094zm0 0" fill="#f7cf66"/><path d="m148.578125 381.507812-23.890625-23.890624 45.609375-45.605469 23.890625 23.890625zm0 0" fill="#ebc35c"/><path d="m226.894531 484.558594c-1.738281-.808594-3.367187-1.933594-4.800781-3.367188-6.597656-6.597656-6.597656-17.292968 0-23.890625 3.203125-3.207031 4.96875-7.464843 4.96875-12 0-4.53125-1.765625-8.792969-4.96875-12l-169.621094-169.621093c-6.597656-6.59375-6.597656-17.292969 0-23.886719 6.597656-6.597657 17.292969-6.601563 23.890625 0l169.621094 169.621093c9.585937 9.585938 14.863281 22.332032 14.863281 35.886719 0 13.558594-5.277344 26.304688-14.863281 35.890625-5.164063 5.160156-12.835937 6.285156-19.089844 3.367188zm0 0" fill="#ddaf89"/><path d="m97.429688 260.855469-21.066407-21.0625c-6.597656-6.601563-17.292969-6.597657-23.890625 0-6.597656 6.59375-6.597656 17.292969 0 23.886719l21.066406 21.066406zm0 0" fill="#c9a07d"/><path d="m247.097656 410.582031-23.917968 23.917969c2.511718 3.03125 3.882812 6.8125 3.882812 10.800781 0 4.535157-1.765625 8.796875-4.96875 12-6.597656 6.597657-6.597656 17.292969 0 23.890625 1.433594 1.4375 3.0625 2.558594 4.800781 3.367188 6.253907 2.917968 13.925781 1.792968 19.089844-3.367188 9.585937-9.585937 14.863281-22.332031 14.863281-35.890625.003906-13.015625-4.878906-25.277343-13.75-34.71875zm0 0" fill="#c9a07d"/><path d="m142.605469 503.898438c-8.894531-4.144532-17.21875-9.882813-24.550781-17.214844-6.597657-6.597656-6.597657-17.292969 0-23.890625 6.597656-6.597657 17.292968-6.597657 23.890624 0 9.96875 9.972656 23.226563 15.464843 37.328126 15.460937 14.097656 0 27.355468-5.488281 37.328124-15.460937l52.332032-52.332031c20.582031-20.582032 20.582031-54.074219 0-74.65625-6.597656-6.59375-6.597656-17.292969 0-23.886719 6.59375-6.597657 17.289062-6.601563 23.886718 0 33.757813 33.753906 33.757813 88.679687 0 122.433593l-52.332031 52.332032c-26.421875 26.425781-65.824219 32.164062-97.882812 17.214844zm0 0" fill="#f7cf66"/><g fill="#495059"><path d="m234.664062 380.191406c0 8.277344-6.710937 14.988282-14.988281 14.988282-8.28125 0-14.992187-6.710938-14.992187-14.988282s6.710937-14.988281 14.992187-14.988281c8.277344 0 14.988281 6.710937 14.988281 14.988281zm0 0"/><path d="m272.335938 417.863281c0 8.277344-6.710938 14.988281-14.988282 14.988281-8.28125 0-14.992187-6.710937-14.992187-14.988281 0-8.277343 6.710937-14.988281 14.992187-14.988281 8.277344 0 14.988282 6.710938 14.988282 14.988281zm0 0"/><path d="m196.992188 342.519531c0 8.28125-6.710938 14.992188-14.988282 14.992188s-14.988281-6.710938-14.988281-14.992188c0-8.277343 6.710937-14.988281 14.988281-14.988281s14.988282 6.710938 14.988282 14.988281zm0 0"/></g><path d="m84.417969 229.863281-10.960938-21.933593c-4.714843-9.433594-17.28125-11.472657-24.738281-4.019532l-32.125 32.128906c-7.457031 7.453126-5.414062 20.023438 4.015625 24.734376l21.9375 10.960937c5.277344 2.640625 11.648437 1.605469 15.820313-2.566406l23.484374-23.484375c4.167969-4.171875 5.203126-10.542969 2.566407-15.820313zm0 0" fill="#f7cf66"/><path d="m62.898438 264.636719c-13.960938-10.34375-21.199219-37.53125-19.214844-55.691407l-27.089844 27.09375c-7.457031 7.453126-5.414062 20.023438 4.015625 24.734376l21.9375 10.960937c5.277344 2.640625 11.648437 1.605469 15.820313-2.566406zm0 0" fill="#ebc35c"/><path d="m173.84375 160.273438c7.367188-7.367188 5.839844-20.839844-3.414062-30.089844-9.25-9.25-22.722657-10.777344-30.089844-3.410156-7.367188 7.367187-5.839844 20.839843 3.410156 30.089843 9.253906 9.253907 22.722656 10.777344 30.09375 3.410157zm0 0" fill="#f1a18f"/><path d="m231.140625 217.578125c-7.367187 7.367187-5.839844 20.835937 3.410156 30.089844 9.25 9.25 22.722657 10.777343 30.089844 3.410156s5.839844-20.839844-3.410156-30.089844-22.722657-10.777343-30.089844-3.410156zm0 0" fill="#f1a18f"/><path d="m180.160156 147.480469c-1.917968 0-3.835937-.730469-5.300781-2.195313-2.929687-2.929687-2.929687-7.679687 0-10.609375l5.914063-5.914062c2.929687-2.929688 7.679687-2.929688 10.605468 0 2.929688 2.929687 2.929688 7.679687 0 10.605469l-5.914062 5.917968c-1.464844 1.464844-3.382813 2.195313-5.304688 2.195313zm0 0" fill="#495059"/><path d="m251.433594 218.753906c-1.917969 0-3.835938-.734375-5.300782-2.199218-2.929687-2.925782-2.929687-7.675782 0-10.605469l5.914063-5.914063c2.929687-2.929687 7.679687-2.929687 10.605469 0 2.929687 2.929688 2.929687 7.675782 0 10.605469l-5.914063 5.914063c-1.464843 1.464843-3.382812 2.199218-5.304687 2.199218zm0 0" fill="#495059"/><path d="m223.71875 192.816406c-6.644531 0-13.039062-2.628906-17.765625-7.351562-5.132813-5.136719-7.792969-12.242188-7.292969-19.496094.285156-4.132812 3.871094-7.253906 7.996094-6.96875 4.132812.285156 7.25 3.867188 6.96875 7.996094-.199219 2.929687.867188 5.792968 2.9375 7.859375 2.066406 2.066406 4.921875 3.132812 7.855469 2.9375 4.132812-.289063 7.714843 2.835937 7.996093 6.96875.285157 4.132812-2.835937 7.710937-6.96875 7.996093-.578124.039063-1.152343.058594-1.726562.058594zm0 0" fill="#495059"/><path d="m384.070312 200.84375-194.769531-194.773438c-8.097656-8.09375-21.222656-8.09375-29.316406 0l-8.464844 8.464844c-8.09375 8.09375-8.09375 21.21875 0 29.3125l194.773438 194.773438c8.09375 8.09375 21.21875 8.09375 29.316406 0l8.460937-8.460938c8.09375-8.097656 8.09375-21.222656 0-29.316406zm0 0" fill="#f7cf66"/><path d="m233.152344 49.921875-43.851563-43.851563c-8.097656-8.09375-21.222656-8.09375-29.316406 0l-8.464844 8.464844c-8.09375 8.09375-8.09375 21.21875 0 29.3125l77.554688 77.554688c-12.742188-22.972656-10.175781-56.617188 4.078125-71.480469zm0 0" fill="#ebc35c"/><path d="m372.769531 133.003906c-.675781 0-1.367187-.089844-2.050781-.285156-3.984375-1.128906-6.296875-5.277344-5.167969-9.261719 7.832031-27.613281.144531-57.320312-20.0625-77.527343-20.210937-20.207032-49.914062-27.894532-77.527343-20.0625-3.988282 1.125-8.132813-1.1875-9.261719-5.171876-1.132813-3.984374 1.183593-8.132812 5.167969-9.261718 32.835937-9.3125 68.175781-.160156 92.226562 23.890625 24.046875 24.046875 33.199219 59.386719 23.886719 92.226562-.9375 3.300781-3.941407 5.453125-7.210938 5.453125zm0 0" fill="#dfe3e5"/><path d="m336.121094 122.542969c-.679688 0-1.371094-.089844-2.054688-.285157-3.984375-1.132812-6.296875-5.285156-5.164062-9.265624 4.058594-14.265626.078125-29.625-10.386719-40.09375-10.464844-10.464844-25.828125-14.445313-40.089844-10.386719-3.980469 1.132812-8.132812-1.179688-9.265625-5.164063-1.132812-3.980468 1.175782-8.128906 5.160156-9.265625 19.492188-5.542969 40.492188-.097656 54.800782 14.210938 14.308594 14.308593 19.753906 35.308593 14.210937 54.800781-.9375 3.300781-3.945312 5.449219-7.210937 5.449219zm0 0" fill="#dfe3e5"/></svg>