<svg height="511pt" viewBox="0 -57 511.99901 511" width="511pt" xmlns="http://www.w3.org/2000/svg"><path d="m229.945312 54.585938h52.109376v243.230468h-52.109376zm0 0" fill="#dfe3e5"/><path d="m229.945312 131.53125v86.65625c8.652344.980469 17.375 1.484375 26.054688 1.484375s17.402344-.503906 26.054688-1.484375v-86.65625c-8.652344-.980469-17.375-1.488281-26.054688-1.488281s-17.402344.507812-26.054688 1.488281zm0 0" fill="#cacdcf"/><path d="m292.257812 145.527344c-24.003906-4.035156-48.511718-4.035156-72.519531 0-11.261719 1.890625-19.507812 11.640625-19.507812 23.0625v12.539062c0 11.421875 8.246093 21.171875 19.507812 23.066406 24.007813 4.03125 48.515625 4.03125 72.519531 0 11.261719-1.894531 19.511719-11.644531 19.511719-23.066406v-12.539062c0-11.421875-8.246093-21.171875-19.511719-23.0625zm0 0" fill="#495059"/><path d="m331.765625.5h-151.53125c-8.425781 0-13.601563 9.222656-9.210937 16.414062l13.855468 22.695313c5.679688 9.300781 15.789063 14.976563 26.6875 14.976563h88.867188c10.894531 0 21.007812-5.675782 26.6875-14.976563l13.855468-22.695313c4.390626-7.191406-.785156-16.414062-9.210937-16.414062zm0 0" fill="#cacdcf"/><path d="m339.066406 20.042969h-166.132812l9.15625 15h147.820312zm0 0" fill="#dfe3e5"/><path d="m52.035156 297.816406h407.929688v72.214844h-407.929688zm0 0" fill="#dfe3e5"/><path d="m52.035156 297.816406v72.214844h141.09375c-28.070312-18.234375-33.640625-49.679688-27.484375-72.214844zm0 0" fill="#cacdcf"/><path d="m89.851562 258.804688h-75.636718c-6.617188 0-11.566406 6.078124-10.222656 12.558593l2.863281 13.78125c2.652343 12.777344 2.59375 25.972657-.167969 38.730469l-5.777344 26.683594c-5.324218 24.578125 13.402344 47.789062 38.546875 47.789062h25.152344c25.144531 0 43.871094-23.210937 38.546875-47.789062l-5.777344-26.683594c-2.761718-12.757812-2.816406-25.953125-.164062-38.730469l2.859375-13.78125c1.34375-6.480469-3.601563-12.558593-10.222657-12.558593zm0 0" fill="#9cd6e3"/><path d="m10.210938 259.613281c-4.449219 1.851563-7.269532 6.671875-6.21875 11.75l2.863281 13.78125c2.652343 12.777344 2.59375 25.972657-.167969 38.730469l-5.777344 26.683594c-5.324218 24.574218 13.402344 47.789062 38.546875 47.789062h25.152344c10.992187 0 20.753906-4.433594 27.820313-11.476562-65.175782-5.449219-78.066407-90.457032-82.21875-127.257813zm0 0" fill="#8bc7d6"/><path d="m293.820312 258.804688h-75.640624c-6.617188 0-11.566407 6.078124-10.222657 12.558593l2.863281 13.78125c2.652344 12.777344 2.59375 25.972657-.167968 38.730469l-5.777344 26.683594c-5.320312 24.578125 13.402344 47.789062 38.546875 47.789062h25.152344c25.148437 0 43.871093-23.210937 38.550781-47.789062l-5.78125-26.683594c-2.761719-12.757812-2.816406-25.953125-.164062-38.730469l2.859374-13.78125c1.347657-6.480469-3.601562-12.558593-10.21875-12.558593zm0 0" fill="#9cd6e3"/><path d="m214.179688 259.613281c-4.453126 1.851563-7.273438 6.671875-6.21875 11.75l2.859374 13.78125c2.652344 12.777344 2.597657 25.972657-.164062 38.730469l-5.78125 26.683594c-5.320312 24.574218 13.402344 47.789062 38.550781 47.789062h25.152344c10.988281 0 20.75-4.433594 27.816406-11.476562-65.175781-5.449219-78.0625-90.457032-82.214843-127.257813zm0 0" fill="#8bc7d6"/><path d="m497.785156 258.804688h-75.640625c-6.617187 0-11.566406 6.078124-10.21875 12.558593l2.859375 13.78125c2.652344 12.777344 2.597656 25.972657-.164062 38.730469l-5.78125 26.683594c-5.320313 24.578125 13.402344 47.789062 38.550781 47.789062h25.152344c25.144531 0 43.871093-23.210937 38.546875-47.789062l-5.777344-26.683594c-2.765625-12.757812-2.820312-25.953125-.167969-38.730469l2.859375-13.78125c1.347656-6.480469-3.601562-12.558593-10.21875-12.558593zm0 0" fill="#9cd6e3"/><path d="m418.144531 259.613281c-4.453125 1.851563-7.273437 6.671875-6.21875 11.75l2.859375 13.78125c2.65625 12.777344 2.597656 25.972657-.164062 38.730469l-5.777344 26.683594c-5.324219 24.574218 13.402344 47.789062 38.546875 47.789062h25.152344c10.988281 0 20.75-4.433594 27.816406-11.476562-65.171875-5.449219-78.0625-90.457032-82.214844-127.257813zm0 0" fill="#8bc7d6"/><path d="m168.898438 333.925781c0 9.558594-7.75 17.308594-17.308594 17.308594-9.5625 0-17.3125-7.75-17.3125-17.308594 0-9.5625 7.75-17.3125 17.3125-17.3125 9.558594 0 17.308594 7.75 17.308594 17.3125zm0 0" fill="#495059"/><path d="m377.683594 333.925781c0 9.558594-7.75 17.308594-17.308594 17.308594s-17.308594-7.75-17.308594-17.308594c0-9.5625 7.75-17.3125 17.308594-17.3125s17.308594 7.75 17.308594 17.3125zm0 0" fill="#495059"/><path d="m53.542969 371.292969c12.703125-.820313 21.816406-12.464844 20.800781-25.15625-.960938-12.03125-8-24.90625-18.851562-35.0625-1.945313-1.816407-4.929688-1.824219-6.871094-.007813-11.703125 10.949219-18.972656 25.0625-18.972656 37.871094 0 12.867188 10.84375 23.199219 23.894531 22.355469zm0 0" fill="#d97b7d"/><path d="m30.777344 339.964844c-.730469 3.023437-1.128906 6.03125-1.128906 8.972656 0 12.867188 10.84375 23.199219 23.894531 22.355469.234375-.015625.460937-.058594.695312-.082031-9.875-8.320313-17.519531-19.253907-23.460937-31.246094zm0 0" fill="#c77172"/><path d="m257.488281 371.292969c12.707031-.820313 21.820313-12.464844 20.804688-25.15625-.964844-12.03125-8-24.90625-18.855469-35.0625-1.941406-1.816407-4.925781-1.824219-6.867188-.007813-11.707031 10.949219-18.976562 25.0625-18.976562 37.871094 0 12.867188 10.847656 23.199219 23.894531 22.355469zm0 0" fill="#d97b7d"/><path d="m234.746094 339.964844c-.730469 3.023437-1.132813 6.03125-1.132813 8.972656 0 12.867188 10.847657 23.199219 23.894531 22.355469.234376-.015625.460938-.058594.695313-.082031-9.875-8.320313-17.515625-19.253907-23.457031-31.246094zm0 0" fill="#c77172"/><path d="m458.421875 371.292969c-12.703125-.820313-21.816406-12.464844-20.800781-25.15625.960937-12.03125 8-24.90625 18.851562-35.0625 1.941406-1.816407 4.925782-1.824219 6.871094-.007813 11.703125 10.949219 18.972656 25.0625 18.972656 37.871094 0 12.867188-10.84375 23.199219-23.894531 22.355469zm0 0" fill="#d97b7d"/><path d="m438.710938 339.964844c-.730469 3.023437-1.132813 6.03125-1.132813 8.972656 0 12.867188 10.847656 23.199219 23.894531 22.355469.238282-.015625.464844-.058594.695313-.082031-9.871094-8.320313-17.515625-19.253907-23.457031-31.246094zm0 0" fill="#c77172"/></svg>