<svg height="512pt" viewBox="-55 0 512 512.0005" width="512pt" xmlns="http://www.w3.org/2000/svg"><path d="m235.914062 419.777344h-70.625v74.199218c0 9.953126 8.070313 18.023438 18.023438 18.023438h34.578125c9.953125 0 18.019531-8.070312 18.019531-18.023438v-74.199218zm0 0" fill="#84d0a6"/><path d="m178.8125 9.570312c11.710938-12.761718 31.863281-12.761718 43.578125 0 24.179687 26.347657 59.839844 75.734376 59.839844 137.890626 0 55.367187-36.546875 85.722656-81.628907 85.722656-45.082031 0-81.628906-30.355469-81.628906-85.722656 0-62.152344 35.65625-111.542969 59.839844-137.890626zm0 0" fill="#84d0a6"/><path d="m282.207031 148.554688c-91.605469 15.871093-120.839843-71.914063-110.882812-130.46875-23.417969 27.757812-52.351563 73.382812-52.351563 129.375 0 55.367187 36.546875 85.722656 81.628906 85.722656 44.78125 0 81.121094-29.964844 81.605469-84.628906zm0 0" fill="#79bf99"/><path d="m116.785156 84.289062c10.261719-11.203124 27.957032-11.203124 38.21875 0 21.066406 22.988282 52.011719 65.957032 52.011719 120 0 48.242188-31.84375 74.6875-71.121094 74.6875-39.277343 0-71.121093-26.445312-71.121093-74.6875 0-54.042968 30.945312-97.011718 52.011718-120zm0 0" fill="#7dad91"/><path d="m206.964844 206.625c-78.929688 3.738281-93.53125-72.585938-89.578125-122.929688-.195313.203126-.410157.382813-.605469.59375-21.066406 22.988282-52.007812 65.957032-52.007812 120 0 48.242188 31.839843 74.6875 71.121093 74.6875 38.636719 0 70.054688-25.605468 71.070313-72.351562zm0 0" fill="#6e9981"/><path d="m284.417969 84.289062c-10.265625-11.203124-27.957031-11.203124-38.222657 0-21.066406 22.988282-52.007812 65.957032-52.007812 120 0 48.242188 31.839844 74.6875 71.121094 74.6875 39.277344 0 71.117187-26.445312 71.117187-74.6875 0-54.042968-30.941406-97.011718-52.007812-120zm0 0" fill="#7dad91"/><path d="m336.378906 206.625c-78.929687 3.738281-93.535156-72.585938-89.578125-122.929688-.199219.203126-.410156.382813-.605469.59375-21.066406 22.988282-52.007812 65.957032-52.007812 120 0 48.242188 31.839844 74.6875 71.121094 74.6875 38.632812 0 70.050781-25.605468 71.070312-72.351562zm0 0" fill="#6e9981"/><path d="m61.203125 152.613281c9.289063-11.78125 26.558594-13.292969 37.746094-3.300781 25.457031 22.722656 66.269531 68.234375 71.675781 130.027344 4.671875 53.394531-28.007812 85.746094-71.480469 89.550781-43.472656 3.800781-81.273437-22.382813-85.945312-75.777344-5.40625-61.792969 26.882812-113.699219 48.003906-140.5zm0 0" fill="#84d0a6"/><path d="m57.988281 156.792969c-21.015625 27.796875-49.929687 77.585937-44.789062 136.320312 4.667969 53.390625 42.472656 79.578125 85.945312 75.773438 34.882813-3.050781 62.796875-24.5 70.058594-60.4375-71.964844-4.960938-120.457031-94.738281-111.214844-151.65625zm0 0" fill="#79bf99"/><path d="m339.996094 152.613281c-9.285156-11.78125-26.554688-13.292969-37.746094-3.300781-25.453125 22.722656-66.265625 68.234375-71.671875 130.027344-4.671875 53.394531 28.007813 85.746094 71.480469 89.550781 43.472656 3.800781 81.273437-22.382813 85.945312-75.777344 5.40625-61.792969-26.886718-113.699219-48.007812-140.5zm0 0" fill="#84d0a6"/><path d="m388.003906 293.113281c.613282-7.023437.71875-13.910156.429688-20.652343-76.648438 3.03125-106.472656-51.558594-106.847656-102.5-22.621094 25.292968-46.925782 62.683593-51.011719 109.378906-4.667969 53.394531 28.011719 85.746094 71.484375 89.550781 43.472656 3.800781 81.273437-22.386719 85.945312-75.777344zm0 0" fill="#79bf99"/><path d="m181.65625 166.84375c10.277344-10.929688 27.613281-10.929688 37.890625 0 23.375 24.855469 60.066406 73.75 60.066406 135.78125 0 53.59375-35.375 82.976562-79.011719 82.976562-43.640624 0-79.015624-29.382812-79.015624-82.976562 0-62.03125 36.691406-110.925781 60.070312-135.78125zm0 0" fill="#84d0a6"/><path d="m279.613281 302.625c0-6.519531-.425781-12.882812-1.175781-19.097656-.042969.015625-.082031.027344-.121094.046875-83.277344 32.085937-113.371094-47.996094-111.695312-99.25-21.414063 27.226562-45.035156 68.527343-45.035156 118.300781 0 53.59375 35.375 82.976562 79.015624 82.976562 43.636719 0 79.011719-29.382812 79.011719-82.976562zm0 0" fill="#79bf99"/><path d="m401.195312 268.558594c.1875-12.96875-10.367187-23.523438-23.335937-23.339844-34.035156.492188-99.539063 8.140625-146.472656 55.070312-10.296875 10.296876-18.355469 20.5-24.59375 30.441407-2.863281 4.5625-9.523438 4.5625-12.386719 0-6.238281-9.941407-14.296875-20.144531-24.59375-30.441407-46.933594-46.929687-112.4375-54.578124-146.472656-55.070312-12.96875-.1875-23.523438 10.371094-23.33593775 23.339844.48828175 34.035156 8.13671875 99.539062 55.06640575 146.46875 75.34375 75.34375 113.328126 47.042968 145.527344 47.042968 32.203125 0 70.183594 28.300782 145.527344-47.042968 46.933594-46.929688 54.582031-112.433594 55.070312-146.46875zm0 0" fill="#7dad91"/><path d="m200.601562 462.070312c26.863282 0 57.753907 19.679688 110.992188-17.527343-229.035156 23.265625-259.4375-129.726563-262.710938-197.722657-9.609374-1.0625-18.285156-1.496093-25.527343-1.601562-12.976563-.1875-23.539063 10.375-23.35156275 23.351562.49218775 34.035157 8.14453175 99.53125 55.07031275 146.457032 75.34375 75.34375 113.324219 47.042968 145.527343 47.042968zm0 0" fill="#6e9981"/><path d="m147.257812 411.046875c0-13.71875-13.964843-24.839844-31.191406-24.839844-17.230468 0-31.195312 11.121094-31.195312 24.839844s13.964844 24.839844 31.195312 24.839844c17.226563 0 31.191406-11.121094 31.191406-24.839844zm0 0" fill="#f1a18f"/><path d="m316.328125 411.046875c0-13.71875-13.964844-24.839844-31.191406-24.839844-17.226563 0-31.191407 11.121094-31.191407 24.839844s13.964844 24.839844 31.191407 24.839844c17.226562 0 31.191406-11.121094 31.191406-24.839844zm0 0" fill="#f1a18f"/><g fill="#495059"><path d="m121.28125 389.21875c-4.144531 0-7.5-3.359375-7.5-7.5v-13.390625c0-4.140625 3.355469-7.5 7.5-7.5 4.140625 0 7.5 3.359375 7.5 7.5v13.390625c0 4.140625-3.359375 7.5-7.5 7.5zm0 0"/><path d="m200.601562 414.558594c-12.480468 0-22.601562-10.117188-22.601562-22.597656v-16.429688c0-3.40625 2.761719-6.167969 6.171875-6.167969h32.859375c3.40625 0 6.167969 2.761719 6.167969 6.167969v16.429688c0 12.480468-10.117188 22.597656-22.597657 22.597656zm0 0"/><path d="m279.921875 389.21875c-4.140625 0-7.5-3.359375-7.5-7.5v-13.390625c0-4.140625 3.359375-7.5 7.5-7.5s7.5 3.359375 7.5 7.5v13.390625c0 4.140625-3.359375 7.5-7.5 7.5zm0 0"/></g></svg>