<svg height="511pt" viewBox="0 -167 511.99974 511" width="511pt" xmlns="http://www.w3.org/2000/svg"><path d="m262.15625 141.519531c85.316406 61.359375 205.34375 40.933594 247.644531-30.1875 6.363281-10.699219-1.90625-24.328125-14.324219-23.449219-23.667968 1.671876-56.332031-5.800781-76.660156-29.832031-30.734375-36.324219-103.292968-83.234375-158.808594-40.597656-2.375 1.824219-5.644531 1.824219-8.015624 0-55.515626-42.636719-128.074219 4.273437-158.808594 40.597656-20.328125 24.03125-52.992188 31.503907-76.660156 29.832031-12.417969-.878906-20.6875 12.75-14.324219 23.449219 42.300781 71.121094 162.332031 91.546875 247.644531 30.1875 3.691406-2.652343 8.621094-2.652343 12.3125 0zm0 0" fill="#ad9386"/><g fill="#998377"><path d="m106.777344 108.96875c-3.171875 0-6.121094-2.027344-7.140625-5.214844-1.265625-3.941406.910156-8.164062 4.855469-9.429687 22.988281-7.363281 33.574218-16.886719 43.8125-26.09375 11.082031-9.96875 22.539062-20.273438 47.253906-26.191407 4.027344-.964843 8.074218 1.523438 9.039062 5.550782s-1.519531 8.074218-5.550781 9.039062c-21.003906 5.027344-30.136719 13.242188-40.710937 22.753906-10.882813 9.789063-23.214844 20.878907-49.269532 29.226563-.757812.246094-1.53125.359375-2.289062.359375zm0 0"/><path d="m163.621094 138.644531c-3.140625 0-6.0625-1.984375-7.113282-5.128906-1.308593-3.929687.8125-8.175781 4.742188-9.488281 8.359375-2.785156 35.40625-17.617188 38.949219-20.375 3.269531-2.542969 7.980469-1.953125 10.523437 1.316406 2.542969 3.269531 1.953125 7.980469-1.316406 10.523438-5.269531 4.097656-33.84375 19.578124-43.410156 22.765624-.789063.265626-1.585938.386719-2.375.386719zm0 0"/><path d="m405.222656 108.96875c-.761718 0-1.53125-.113281-2.289062-.359375-26.058594-8.34375-38.390625-19.4375-49.273438-29.226563-10.574218-9.511718-19.703125-17.726562-40.710937-22.753906-4.027344-.964844-6.511719-5.011718-5.546875-9.039062s5.007812-6.515625 9.039062-5.550782c24.710938 5.917969 36.171875 16.222657 47.25 26.191407 10.238282 9.207031 20.824219 18.730469 43.816406 26.09375 3.941407 1.265625 6.117188 5.488281 4.851563 9.429687-1.015625 3.1875-3.964844 5.214844-7.136719 5.214844zm0 0"/><path d="m348.375 138.644531c-.785156 0-1.585938-.125-2.371094-.386719-9.566406-3.1875-38.140625-18.667968-43.410156-22.765624-3.269531-2.542969-3.859375-7.253907-1.316406-10.523438 2.542968-3.269531 7.253906-3.859375 10.527344-1.3125 3.539062 2.753906 30.589843 17.585938 38.945312 20.375 3.929688 1.308594 6.050781 5.554688 4.742188 9.484375-1.050782 3.140625-3.976563 5.128906-7.117188 5.128906zm0 0"/><path d="m210.394531 163.335938c-101.113281 9.972656-136.671875-59.253907-119.425781-102.789063-20.429688 22.050781-51.617188 28.945313-74.445312 27.332031-12.417969-.875-20.6875 12.753906-14.324219 23.453125 36.09375 60.683594 128.769531 84.445313 208.195312 52.003907zm0 0"/><path d="m474.726562 148.5625c-112.386718 45.507812-170.679687-11.792969-205.617187-28.117188-3.882813-1.816406-8.5625.027344-10.097656 4.03125-2.105469 5.492188-1.917969 11.050782-1.082031 15.253907 1.488281.277343 2.933593.859375 4.226562 1.789062 67.734375 48.714844 157.34375 45.871094 212.570312 7.042969zm0 0"/></g></svg>