<svg height="512pt" viewBox="-11 0 512 512" width="512pt" xmlns="http://www.w3.org/2000/svg"><path d="m81.046875 128.261719c-4.144531 0-7.5-3.355469-7.5-7.5v-58.003907c0-4.140624 3.355469-7.5 7.5-7.5 4.140625 0 7.5 3.359376 7.5 7.5v58.003907c0 4.144531-3.359375 7.5-7.5 7.5zm0 0" fill="#495059"/><path d="m321.582031 128.261719c-4.144531 0-7.5-3.355469-7.5-7.5v-58.003907c0-4.140624 3.355469-7.5 7.5-7.5 4.140625 0 7.5 3.359376 7.5 7.5v58.003907c0 4.144531-3.359375 7.5-7.5 7.5zm0 0" fill="#495059"/><path d="m201.3125 512c160.894531 0 191.96875-112.566406 181.828125-168.820312-14.015625-77.75-.332031-97.207032 18.859375-187.117188 3.976562-18.628906-11.519531-35.578125-30.449219-33.453125-69.703125 7.820313-109.792969-31.226563-170.238281-31.226563-60.441406 0-100.53125 39.046876-170.238281 31.226563-18.925781-2.125-34.421875 14.824219-30.445313 33.453125 19.1875 89.910156 32.875 109.367188 18.859375 187.117188-10.140625 56.253906 20.933594 168.820312 181.824219 168.820312zm0 0" fill="#ad9386"/><path d="m201.3125 512c160.894531 0 191.96875-112.566406 181.828125-168.820312-14.015625-77.75-.332031-97.207032 18.859375-187.117188 3.976562-18.628906-11.519531-35.578125-30.449219-33.453125-69.703125 7.820313-109.792969-31.226563-170.238281-31.226563-60.441406 0-100.53125 39.046876-170.238281 31.226563-18.925781-2.125-34.421875 14.824219-30.445313 33.453125 19.1875 89.910156 32.875 109.367188 18.859375 187.117188-10.140625 56.253906 20.933594 168.820312 181.824219 168.820312zm0 0" fill="#ad9386"/><path d="m119.175781 110.09375c-26.140625 8.714844-53.464843 16.402344-88.101562 12.515625-18.925781-2.125-34.421875 14.824219-30.445313 33.453125 19.191406 89.910156 32.875 109.367188 18.859375 187.117188-10.140625 56.253906 20.933594 168.820312 181.824219 168.820312 68.257812 0 113.144531-20.265625 141.4375-47.890625-141.878906-4.328125-211.75-179.761719-223.574219-354.015625zm0 0" fill="#998377"/><path d="m55.171875 123.535156c-6.660156.242188-13.578125.078125-20.820313-.589844.800782.871094 1.605469 1.742188 2.398438 2.601563 15.945312 17.269531 28.542969 30.910156 22.164062 58.132813-4.300781 18.359374-16.359374 26.878906-29.125 35.894531-4.15625 2.933593-8.351562 5.910156-12.277343 9.230469 1.367187 6.058593 2.585937 11.816406 3.628906 17.433593 4.535156-5.382812 10.636719-9.707031 17.300781-14.414062 13.816406-9.757813 29.476563-20.816407 35.078125-44.722657 6.976563-29.765624-4.488281-47.734374-18.347656-63.566406zm0 0" fill="#ad9386"/><path d="m287.316406 498.300781c-31.128906-9.789062-58.199218-32.15625-84.398437-53.808593-25.527344-21.09375-49.636719-41.019532-76.238281-48.523438-26.980469-7.617188-71.171876-2.710938-100.578126 15.226562 1.671876 4.695313 3.621094 9.394532 5.867188 14.054688 25.074219-16.25 66.742188-21.585938 90.636719-14.847656 23.558593 6.648437 46.484375 25.59375 70.753906 45.652344 22.128906 18.289062 44.851563 37.058593 70.699219 49.195312 8.253906-1.945312 16-4.277344 23.257812-6.949219zm0 0" fill="#ad9386"/><path d="m311.898438 256.597656c-14.097657 12.84375-20.589844 32.242188-19.296876 57.648438 1.992188 39.097656 37.417969 63.445312 65.882813 83.015625 6.269531 4.308593 12.910156 8.875 18.3125 13.167969 1.8125-5.1875 3.285156-10.371094 4.457031-15.492188-4.363281-3.226562-9.179687-6.539062-14.273437-10.039062-25.746094-17.695313-57.785157-39.71875-59.398438-71.414063-1.070312-21.003906 3.648438-35.984375 14.417969-45.796875 11.59375-10.5625 31.160156-15.527344 58.339844-14.863281.792968-4.878907 1.730468-9.824219 2.800781-14.9375-32.734375-1.183594-56.195313 5.003906-71.242187 18.710937zm0 0" fill="#998377"/><path d="m480.261719 62.757812h-462.835938c-9.625 0-17.425781-7.800781-17.425781-17.421874v-27.910157c0-9.625 7.800781-17.425781 17.425781-17.425781h462.835938c5.921875 0 10.722656 4.800781 10.722656 10.722656v41.3125c0 5.925782-4.800781 10.722656-10.722656 10.722656zm0 0" fill="#ddaf89"/><path d="m480.261719 62.757812h-56.726563v-62.757812h56.726563c5.921875 0 10.722656 4.800781 10.722656 10.722656v41.3125c0 5.925782-4.800781 10.722656-10.722656 10.722656zm0 0" fill="#495059"/><path d="m15.988281 0c-8.832031 0-15.988281 8.503906-15.988281 18.988281v24.78125c0 10.488281 7.160156 18.988281 15.988281 18.988281h171.121094c-24.984375-9.316406-29.015625-46.53125-25.121094-62.757812zm0 0" fill="#c9a07d"/><path d="m122.464844 0c-34.765625 18.617188-55.285156 27.003906-73.53125 0h-17.507813c11.875 21.707031 26.609375 32.3125 44.960938 32.3125.949219 0 1.910156-.03125 2.875-.085938 16.835937-.984374 34.324219-10.402343 52.839843-20.375 7.46875-4.023437 15.1875-8.160156 23.03125-11.851562zm0 0" fill="#ddaf89"/><path d="m378.003906 53.074219c-16.265625-10.304688-36.503906-23.128907-57.117187-27.253907-29.21875-5.835937-44.515625 9.964844-58.007813 23.910157-4.539062 4.6875-8.824218 9.117187-13.476562 12.605469-.179688.132812-.347656.277343-.511719.421874h22.242187c.847657-.867187 1.6875-1.734374 2.523438-2.597656 12.394531-12.808594 23.09375-23.871094 44.289062-19.628906 16.140626 3.226562 32.492188 12.910156 47.300782 22.226562h28.625c-4.839844-2.699218-10.273438-6.140624-15.867188-9.683593zm0 0" fill="#c9a07d"/><path d="m131.960938 368.019531c-.902344 0-1.816407-.101562-2.734376-.304687l-30.128906-6.761719c-19.632812-4.40625-33.074218-22.84375-31.261718-42.886719l3.585937-39.636718c1.425781-15.765626 14.4375-27.652344 30.265625-27.652344h39.207031c6.863281 0 12.425781 5.5625 12.425781 12.425781 0 6.867187-5.5625 12.429687-12.425781 12.429687h-39.207031c-2.882812 0-5.25 2.164063-5.511719 5.035157l-3.582031 39.636719c-.695312 7.660156 4.445312 14.707031 11.949219 16.390624l30.128906 6.761719c6.695313 1.503907 10.90625 8.152344 9.402344 14.847657-1.296875 5.785156-6.425781 9.714843-12.113281 9.714843zm0 0" fill="#9cd6e3"/><path d="m270.1875 445.761719h-117.273438c-8.082031 0-15.671874-3.882813-20.402343-10.433594l-10.828125-15.003906c-4.4375-6.144531-6.429688-13.722657-5.59375-21.257813l21.769531-196.152344c.488281-4.417968 4.226563-7.761718 8.671875-7.761718h130.039062c4.445313 0 8.183594 3.34375 8.671876 7.761718l21.769531 196.152344c.835937 7.535156-1.15625 15.113282-5.59375 21.257813l-10.828125 15.003906c-4.730469 6.550781-12.320313 10.433594-20.402344 10.433594zm0 0" fill="#fae37b"/><path d="m289.332031 436.914062c-50.902343-29.28125-77.238281-89.199218-90.796875-145.644531 10.058594-1.96875 17.648438-10.824219 17.648438-21.460937v-26.058594c0-2.488281 1.714844-4.609375 4.125-5.226562 1.679687-.433594 3.320312-.972657 4.910156-1.605469 2.382812-.949219 5.128906-.257813 6.746094 1.734375 7.472656 9.203125 18.867187 15.085937 31.644531 15.085937 9.984375 0 19.125-3.59375 26.214844-9.554687l-4.582031-41.265625c-.488282-4.421875-4.226563-7.765625-8.671876-7.765625h-130.039062c-4.445312 0-8.183594 3.34375-8.675781 7.765625l-21.765625 196.148437c-.835938 7.535156 1.15625 15.113282 5.59375 21.257813l10.828125 15.003906c4.726562 6.554687 12.316406 10.433594 20.398437 10.433594h117.277344c7.402344 0 14.386719-3.265625 19.144531-8.847657zm0 0" fill="#f0d66a"/><path d="m116.089844 399.066406c-.835938 7.535156 1.15625 15.113282 5.59375 21.257813l10.828125 15.003906c4.726562 6.550781 12.316406 10.433594 20.398437 10.433594h117.277344c8.082031 0 15.671875-3.882813 20.402344-10.433594l10.828125-15.003906c4.433593-6.144531 6.429687-13.722657 5.59375-21.257813l-.894531-8.054687h-189.136719zm0 0" fill="#f7cf66"/><path d="m116.089844 399.066406c-.835938 7.535156 1.15625 15.113282 5.59375 21.257813l10.828125 15.003906c4.726562 6.550781 12.316406 10.433594 20.398437 10.433594h117.277344c7.402344 0 14.382812-3.265625 19.140625-8.847657-19.734375-11.351562-35.765625-27.324218-48.800781-45.902343h-123.546875zm0 0" fill="#ebc35c"/><path d="m247.824219 268.449219c0 2.515625-2.039063 4.554687-4.554688 4.554687-2.511719 0-4.550781-2.039062-4.550781-4.554687 0-2.511719 2.039062-4.550781 4.550781-4.550781 2.515625 0 4.554688 2.039062 4.554688 4.550781zm0 0" fill="#f0d66a"/><path d="m171.148438 288.140625c0 2.515625-2.035157 4.554687-4.550782 4.554687-2.511718 0-4.550781-2.039062-4.550781-4.554687 0-2.511719 2.039063-4.550781 4.550781-4.550781 2.515625 0 4.550782 2.039062 4.550782 4.550781zm0 0" fill="#fae37b"/><path d="m200.039062 375.019531c0 2.515625-2.035156 4.554688-4.550781 4.554688s-4.550781-2.039063-4.550781-4.554688c0-2.511719 2.035156-4.550781 4.550781-4.550781s4.550781 2.039062 4.550781 4.550781zm0 0" fill="#fae37b"/><path d="m266.171875 161c-5.109375-.3125-10.027344.316406-14.601563 1.734375-4.292968 1.324219-8.960937 0-12.078124-3.238281-7.410157-7.707032-17.824219-12.503906-29.363282-12.503906-11.300781 0-21.523437 4.601562-28.90625 12.03125-2.933594 2.953124-7.234375 4.152343-11.269531 3.132812-3.988281-1.007812-8.210937-1.425781-12.574219-1.152344-20.664062 1.300782-37.242187 18.230469-38.117187 38.917969-.984375 23.316406 17.628906 42.53125 40.730469 42.53125 2.578124 0 5.101562-.242187 7.546874-.699219 2.542969-.480468 4.898438 1.449219 4.898438 4.035156v12.734376c0 12.082031 9.792969 21.875 21.871094 21.875 12.082031 0 21.875-9.792969 21.875-21.875v-26.058594c0-2.484375 1.714844-4.609375 4.125-5.226563 1.679687-.433593 3.320312-.96875 4.910156-1.605469 2.382812-.949218 5.125-.253906 6.742188 1.734376 7.472656 9.203124 18.871093 15.085937 31.648437 15.085937 23.136719 0 41.773437-19.273437 40.726563-42.644531-.929688-20.660156-17.519532-37.542969-38.164063-38.808594zm0 0" fill="#f8eed1"/><path d="m215.601562 263.539062c-39.640624-7.035156-60.144531-64.46875-56.421874-102.605468-.597657.011718-1.195313.03125-1.796876.070312-20.667968 1.300782-37.246093 18.230469-38.121093 38.917969-.984375 23.316406 17.628906 42.53125 40.730469 42.53125 2.578124 0 5.101562-.242187 7.546874-.699219 2.542969-.480468 4.898438 1.449219 4.898438 4.035156v12.734376c0 12.082031 9.792969 21.875 21.875 21.875 10.351562 0 19.019531-7.195313 21.289062-16.859376zm0 0" fill="#f0e3c0"/><path d="m275.046875 187.53125c0 2.511719-2.039063 4.550781-4.554687 4.550781-2.511719 0-4.550782-2.039062-4.550782-4.550781 0-2.515625 2.039063-4.554688 4.550782-4.554688 2.515624 0 4.554687 2.039063 4.554687 4.554688zm0 0" fill="#f0e3c0"/><path d="m153.320312 216.457031c0 2.515625-2.039062 4.550781-4.550781 4.550781-2.515625 0-4.550781-2.035156-4.550781-4.550781s2.035156-4.550781 4.550781-4.550781c2.511719 0 4.550781 2.035156 4.550781 4.550781zm0 0" fill="#f8eed1"/><path d="m202.445312 167.402344c0 2.515625-2.035156 4.550781-4.550781 4.550781-2.511719 0-4.550781-2.035156-4.550781-4.550781 0-2.511719 2.039062-4.550782 4.550781-4.550782 2.515625 0 4.550781 2.039063 4.550781 4.550782zm0 0" fill="#f0e3c0"/><path d="m238.75 204.375c0 2.515625-2.039062 4.550781-4.554688 4.550781-2.511718 0-4.550781-2.035156-4.550781-4.550781s2.039063-4.550781 4.550781-4.550781c2.515626 0 4.554688 2.035156 4.554688 4.550781zm0 0" fill="#f0e3c0"/><path d="m176.5 346.226562c0-9.011718-9.175781-16.320312-20.496094-16.320312-11.316406 0-20.492187 7.308594-20.492187 16.320312 0 9.015626 9.175781 16.324219 20.492187 16.324219 11.320313 0 20.496094-7.308593 20.496094-16.324219zm0 0" fill="#f1a18f"/><path d="m287.589844 346.226562c0-9.011718-9.175782-16.320312-20.496094-16.320312-11.316406 0-20.492188 7.308594-20.492188 16.320312 0 9.015626 9.175782 16.324219 20.492188 16.324219 11.320312 0 20.496094-7.308593 20.496094-16.324219zm0 0" fill="#f1a18f"/><g fill="#495059"><path d="m159.429688 334.457031c-4.140626 0-7.5-3.355469-7.5-7.5v-8.796875c0-4.144531 3.359374-7.5 7.5-7.5 4.144531 0 7.5 3.355469 7.5 7.5v8.796875c0 4.144531-3.355469 7.5-7.5 7.5zm0 0"/><path d="m211.550781 348.535156c-8.203125 0-14.851562-6.644531-14.851562-14.847656v-10.792969c0-2.242187 1.816406-4.054687 4.054687-4.054687h21.589844c2.238281 0 4.054688 1.816406 4.054688 4.054687v10.792969c0 8.203125-6.648438 14.847656-14.847657 14.847656zm0 0"/><path d="m263.667969 334.457031c-4.140625 0-7.5-3.355469-7.5-7.5v-8.796875c0-4.144531 3.359375-7.5 7.5-7.5s7.5 3.355469 7.5 7.5v8.796875c0 4.144531-3.359375 7.5-7.5 7.5zm0 0"/></g></svg>