<svg height="512pt" viewBox="0 -108 512 512" width="512pt" xmlns="http://www.w3.org/2000/svg"><path d="m464.675781 213.5625-61.945312-32.375c-27.929688-14.597656-58.980469-22.222656-90.496094-22.222656h-271.101563v-69.710938h271.101563c31.515625 0 62.566406-7.625 90.496094-22.222656l61.945312-32.378906zm0 0" fill="#f7cf66"/><path d="m364.996094 166.230469c-25.769532-25.824219-36.046875-55.558594-38.3125-77.53125-4.800782.355469-9.617188.554687-14.449219.554687h-271.101563v69.707032h271.101563c17.902344.003906 35.648437 2.46875 52.761719 7.269531zm0 0" fill="#ebc35c"/><path d="m25.429688 67.011719h-9.726563c-8.671875 0-15.703125 7.03125-15.703125 15.703125v82.789062c0 8.671875 7.03125 15.703125 15.703125 15.703125h9.726563c8.671874 0 15.703124-7.03125 15.703124-15.703125v-82.789062c0-8.671875-7.03125-15.703125-15.703124-15.703125zm0 0" fill="#ddaf89"/><path d="m25.429688 181.203125c8.671874 0 15.703124-7.027344 15.703124-15.699219v-19.886718c-24.980468 1.699218-35.980468-18.707032-41.132812-39.246094v59.132812c0 8.671875 7.03125 15.699219 15.703125 15.699219zm0 0" fill="#c9a07d"/><path d="m172.722656 50.886719c-4.144531 0-7.5-3.359375-7.5-7.5v-35.886719c0-4.144531 3.355469-7.5 7.5-7.5 4.140625 0 7.5 3.355469 7.5 7.5v35.886719c0 4.140625-3.359375 7.5-7.5 7.5zm0 0" fill="#fae37b"/><path d="m195.988281 15h-46.535156c-4.144531 0-7.5-3.355469-7.5-7.5s3.355469-7.5 7.5-7.5h46.535156c4.144531 0 7.5 3.355469 7.5 7.5s-3.355469 7.5-7.5 7.5zm0 0" fill="#495059"/><path d="m179.820312 296.125h-14.199218c-5.117188 0-9.269532-4.152344-9.269532-9.269531v-214.4375h32.742188v214.4375c-.003906 5.117187-4.152344 9.269531-9.273438 9.269531zm0 0" fill="#fae37b"/><path d="m156.351562 109.1875h32.738282v63.152344h-32.738282zm0 0" fill="#f0d66a"/><path d="m156.351562 217.804688h32.738282v63.148437h-32.738282zm0 0" fill="#f0d66a"/><path d="m193.390625 43.386719h-41.339844c-4.371093 0-7.914062 3.542969-7.914062 7.914062v13.203125c0 4.371094 3.542969 7.914063 7.914062 7.914063h41.339844c4.371094 0 7.914063-3.542969 7.914063-7.914063v-13.203125c0-4.371093-3.542969-7.914062-7.914063-7.914062zm0 0" fill="#ddaf89"/><path d="m260.441406 50.886719c-4.144531 0-7.5-3.359375-7.5-7.5v-35.886719c0-4.144531 3.355469-7.5 7.5-7.5 4.140625 0 7.5 3.355469 7.5 7.5v35.886719c0 4.140625-3.359375 7.5-7.5 7.5zm0 0" fill="#fae37b"/><path d="m283.710938 15h-46.539063c-4.144531 0-7.5-3.355469-7.5-7.5s3.355469-7.5 7.5-7.5h46.539063c4.140624 0 7.5 3.355469 7.5 7.5s-3.359376 7.5-7.5 7.5zm0 0" fill="#495059"/><path d="m253.339844 296.125h14.199218c5.121094 0 9.269532-4.152344 9.269532-9.269531v-214.4375h-32.738282v214.4375c0 5.117187 4.152344 9.269531 9.269532 9.269531zm0 0" fill="#fae37b"/><path d="m244.070312 109.1875h32.738282v63.152344h-32.738282zm0 0" fill="#f0d66a"/><path d="m244.070312 217.804688h32.738282v63.148437h-32.738282zm0 0" fill="#f0d66a"/><g fill="#ddaf89"><path d="m239.769531 43.386719h41.339844c4.371094 0 7.914063 3.542969 7.914063 7.914062v13.203125c0 4.371094-3.542969 7.914063-7.914063 7.914063h-41.339844c-4.371093 0-7.914062-3.542969-7.914062-7.914063v-13.203125c0-4.371093 3.542969-7.914062 7.914062-7.914062zm0 0"/><path d="m281.476562 122.285156h-129.792968c-36.578125 0-66.339844 29.761719-66.339844 66.34375v12.886719c0 36.582031 29.761719 66.339844 66.339844 66.339844h129.792968c36.582032 0 66.339844-29.757813 66.339844-66.339844v-12.886719c0-36.582031-29.757812-66.34375-66.339844-66.34375zm29.664063 79.230469c0 16.355469-13.304687 29.664063-29.664063 29.664063h-129.792968c-16.355469 0-29.664063-13.308594-29.664063-29.664063v-12.886719c0-16.359375 13.308594-29.664062 29.664063-29.664062h129.792968c16.359376 0 29.664063 13.308594 29.664063 29.664062zm0 0"/><path d="m494.75 12.910156h-12.824219c-9.527343 0-17.25 7.726563-17.25 17.253906v187.894532c0 9.527344 7.722657 17.25 17.25 17.25h12.824219c9.527344 0 17.25-7.722656 17.25-17.25v-187.898438c0-9.523437-7.722656-17.25-17.25-17.25zm0 0"/></g><path d="m512 218.054688v-76.207032c-23.511719 5.09375-40.167969-17.003906-47.324219-51.839844v128.046876c0 9.527343 7.722657 17.25 17.25 17.25h12.824219c9.527344 0 17.25-7.722657 17.25-17.25zm0 0" fill="#c9a07d"/></svg>