<svg height="511pt" viewBox="1 -14 511.999 511" width="511pt" xmlns="http://www.w3.org/2000/svg"><path d="m180.605469 125.554688v-92.253907h-93.59375v92.253907c0 7.285156-2.9375 14.261718-8.144531 19.351562l-23.65625 23.132812c-18.640626 18.222657-29.144532 43.191407-29.144532 69.257813v198.585937c0 26.148438 21.195313 47.347657 47.34375 47.347657h120.796875c26.148438 0 47.347657-21.199219 47.347657-47.347657v-198.585937c0-26.066406-10.507813-51.035156-29.144532-69.257813l-23.65625-23.132812c-5.210937-5.089844-8.148437-12.070312-8.148437-19.351562zm0 0" fill="#7dad91"/><path d="m194.207031 483.230469c11.148438 0 21.386719-3.863281 29.476563-10.308594-112.773438-36.539063-114.121094-330.320313-113.46875-439.621094h-23.203125v92.253907c0 7.285156-2.9375 14.261718-8.144531 19.351562l-23.65625 23.132812c-18.640626 18.222657-29.144532 43.191407-29.144532 69.257813v198.585937c0 26.148438 21.195313 47.347657 47.34375 47.347657zm0 0" fill="#6e9981"/><path d="m183.773438 41.828125-9.582032-3.664063c-6.097656-2.332031-12.84375-2.332031-18.941406 0l-5.457031 2.085938c-10.292969 3.941406-21.675781 3.941406-31.96875 0l-5.457031-2.085938c-6.097657-2.332031-12.84375-2.332031-18.941407 0l-9.582031 3.664063c-5.71875 2.191406-11.859375-2.035156-11.859375-8.160156v-19.042969c0-7.800781 6.324219-14.125 14.125-14.125h95.398437c7.800782 0 14.125 6.324219 14.125 14.125v19.042969c0 6.125-6.140624 10.351562-11.859374 8.160156zm0 0" fill="#dfe3e5"/><path d="m86.109375.5c-7.800781 0-14.125 6.324219-14.125 14.125v19.042969c0 6.125 6.140625 10.347656 11.863281 8.160156l9.582032-3.664063c6.097656-2.335937 12.839843-2.335937 18.9375 0l5.457031 2.085938c7.472656 2.859375 15.515625 3.632812 23.304687 2.339844-14.058594-7.960938-22.800781-28.960938-17.769531-42.089844zm0 0" fill="#cacdcf"/><path d="m133.808594 244.851562c-31.507813 0-57.050782 25.546876-57.050782 57.054688v68.601562c0 31.511719 25.542969 57.054688 57.050782 57.054688 31.511718 0 57.054687-25.542969 57.054687-57.054688v-68.601562c0-31.507812-25.542969-57.054688-57.054687-57.054688zm0 0" fill="#f8eed1"/><path d="m26.066406 304.921875h215.488282v62.570313h-215.488282zm0 0" fill="#495059"/><path d="m133.808594 244.851562c-31.507813 0-57.050782 25.546876-57.050782 57.054688v68.601562c0 31.511719 25.542969 57.054688 57.050782 57.054688 31.511718 0 57.054687-25.542969 57.054687-57.054688v-68.601562c0-31.507812-25.542969-57.054688-57.054687-57.054688zm0 0" fill="#f8eed1"/><path d="m133.808594 427.5625c11.652344 0 22.480468-3.496094 31.511718-9.492188-24.1875-43.835937-37.859374-107.085937-45.539062-171.476562-24.726562 6.253906-43.023438 28.644531-43.023438 55.3125v68.601562c0 31.511719 25.542969 57.054688 57.050782 57.054688zm0 0" fill="#f0e3c0"/><path d="m145.589844 394.09375h-23.5625c-4.140625 0-7.5-3.359375-7.5-7.5 0-4.144531 3.359375-7.5 7.5-7.5h23.5625c4.144531 0 7.5 3.355469 7.5 7.5 0 4.140625-3.359375 7.5-7.5 7.5zm0 0" fill="#495059"/><path d="m97.359375 217.496094c0-9.375-9.542969-16.972656-21.3125-16.972656-11.773437 0-21.316406 7.597656-21.316406 16.972656s9.542969 16.972656 21.316406 16.972656c11.769531 0 21.3125-7.597656 21.3125-16.972656zm0 0" fill="#f1a18f"/><path d="m212.886719 217.496094c0-9.375-9.542969-16.972656-21.3125-16.972656-11.773438 0-21.316407 7.597656-21.316407 16.972656s9.542969 16.972656 21.316407 16.972656c11.769531 0 21.3125-7.597656 21.3125-16.972656zm0 0" fill="#f1a18f"/><path d="m88.46875 208.0625c-4.144531 0-7.5-3.355469-7.5-7.5v-7.523438c0-4.144531 3.355469-7.5 7.5-7.5 4.140625 0 7.5 3.355469 7.5 7.5v7.523438c0 4.144531-3.359375 7.5-7.5 7.5zm0 0" fill="#495059"/><path d="m179.152344 208.0625c-4.144532 0-7.5-3.355469-7.5-7.5v-7.523438c0-4.144531 3.355468-7.5 7.5-7.5 4.140625 0 7.5 3.355469 7.5 7.5v7.523438c0 4.144531-3.359375 7.5-7.5 7.5zm0 0" fill="#495059"/><path d="m133.808594 213.84375c-6.75 0-13.167969-2.921875-17.605469-8.019531-2.722656-3.125-2.398437-7.859375.726563-10.582031 3.121093-2.71875 7.859374-2.398438 10.582031.726562 1.589843 1.828125 3.886719 2.875 6.300781 2.875 2.410156 0 4.707031-1.046875 6.296875-2.875 2.722656-3.125 7.460937-3.449219 10.582031-.726562 3.125 2.71875 3.449219 7.457031.730469 10.582031-4.445313 5.097656-10.863281 8.019531-17.613281 8.019531zm0 0" fill="#495059"/><path d="m424.988281 125.554688v-92.253907h-93.59375v92.253907c0 7.285156-2.9375 14.261718-8.148437 19.351562l-23.65625 23.132812c-18.636719 18.222657-29.144532 43.191407-29.144532 69.257813v198.585937c0 26.148438 21.199219 47.347657 47.347657 47.347657h120.796875c26.148437 0 47.347656-21.199219 47.347656-47.347657v-198.585937c0-26.066406-10.507812-51.035156-29.148438-69.257813l-23.65625-23.132812c-5.207031-5.089844-8.144531-12.070312-8.144531-19.351562zm0 0" fill="#7dad91"/><path d="m438.589844 483.230469c11.144531 0 21.386718-3.863281 29.476562-10.308594-112.773437-36.539063-114.121094-330.320313-113.46875-439.621094h-23.207031v92.253907c0 7.285156-2.933594 14.261718-8.144531 19.351562l-23.65625 23.132812c-18.640625 18.222657-29.144532 43.191407-29.144532 69.257813v198.585937c0 26.148438 21.199219 47.347657 47.347657 47.347657zm0 0" fill="#6e9981"/><path d="m428.152344 41.828125-9.582032-3.664063c-6.097656-2.332031-12.839843-2.332031-18.9375 0l-5.457031 2.085938c-10.292969 3.941406-21.679687 3.941406-31.972656 0l-5.457031-2.085938c-6.097656-2.332031-12.839844-2.332031-18.9375 0l-9.582032 3.664063c-5.71875 2.191406-11.859374-2.035156-11.859374-8.160156v-19.042969c0-7.800781 6.324218-14.125 14.125-14.125h95.394531c7.800781 0 14.125 6.324219 14.125 14.125v19.042969c.003906 6.125-6.136719 10.351562-11.859375 8.160156zm0 0" fill="#dfe3e5"/><path d="m330.492188.5c-7.800782 0-14.125 6.324219-14.125 14.125v19.042969c0 6.125 6.140624 10.347656 11.859374 8.160156l9.582032-3.664063c6.097656-2.335937 12.84375-2.335937 18.941406 0l5.457031 2.085938c7.46875 2.859375 15.515625 3.632812 23.300781 2.339844-14.054687-7.960938-22.796874-28.960938-17.765624-42.089844zm0 0" fill="#cacdcf"/><path d="m378.191406 244.851562c-31.511718 0-57.054687 25.546876-57.054687 57.054688v68.601562c0 31.511719 25.542969 57.054688 57.054687 57.054688 31.507813 0 57.050782-25.542969 57.050782-57.054688v-68.601562c0-31.507812-25.542969-57.054688-57.050782-57.054688zm0 0" fill="#f8eed1"/><path d="m270.445312 304.921875h215.492188v62.570313h-215.492188zm0 0" fill="#495059"/><path d="m378.191406 244.851562c-31.511718 0-57.054687 25.546876-57.054687 57.054688v68.601562c0 31.511719 25.542969 57.054688 57.054687 57.054688 31.507813 0 57.050782-25.542969 57.050782-57.054688v-68.601562c0-31.507812-25.542969-57.054688-57.050782-57.054688zm0 0" fill="#f8eed1"/><path d="m378.191406 427.5625c11.648438 0 22.476563-3.496094 31.507813-9.492188-24.1875-43.835937-37.859375-107.085937-45.539063-171.476562-24.722656 6.253906-43.023437 28.644531-43.023437 55.3125v68.601562c0 31.511719 25.542969 57.054688 57.054687 57.054688zm0 0" fill="#f0e3c0"/><path d="m389.972656 394.09375h-23.5625c-4.144531 0-7.5-3.359375-7.5-7.5 0-4.144531 3.355469-7.5 7.5-7.5h23.5625c4.140625 0 7.5 3.355469 7.5 7.5 0 4.140625-3.359375 7.5-7.5 7.5zm0 0" fill="#495059"/><path d="m341.742188 217.496094c0-9.375-9.542969-16.972656-21.316407-16.972656-11.769531 0-21.3125 7.597656-21.3125 16.972656s9.542969 16.972656 21.3125 16.972656c11.773438 0 21.316407-7.597656 21.316407-16.972656zm0 0" fill="#f1a18f"/><path d="m457.269531 217.496094c0-9.375-9.542969-16.972656-21.316406-16.972656-11.769531 0-21.3125 7.597656-21.3125 16.972656s9.542969 16.972656 21.3125 16.972656c11.773437 0 21.316406-7.597656 21.316406-16.972656zm0 0" fill="#f1a18f"/><path d="m332.847656 208.0625c-4.140625 0-7.5-3.355469-7.5-7.5v-7.523438c0-4.144531 3.359375-7.5 7.5-7.5 4.144532 0 7.5 3.355469 7.5 7.5v7.523438c0 4.144531-3.355468 7.5-7.5 7.5zm0 0" fill="#495059"/><path d="m423.53125 208.0625c-4.140625 0-7.5-3.355469-7.5-7.5v-7.523438c0-4.144531 3.359375-7.5 7.5-7.5 4.144531 0 7.5 3.355469 7.5 7.5v7.523438c0 4.144531-3.355469 7.5-7.5 7.5zm0 0" fill="#495059"/><path d="m378.191406 213.84375c-6.75 0-13.167968-2.921875-17.609375-8.019531-2.722656-3.125-2.394531-7.859375.726563-10.582031 3.121094-2.71875 7.863281-2.398438 10.582031.726562 1.59375 1.828125 3.886719 2.875 6.300781 2.875 2.410156 0 4.707032-1.046875 6.300782-2.875 2.71875-3.125 7.457031-3.449219 10.578124-.726562 3.125 2.71875 3.449219 7.457031.730469 10.582031-4.441406 5.097656-10.859375 8.019531-17.609375 8.019531zm0 0" fill="#495059"/><path d="m499.519531 415.128906h-487.039062c-6.894531 0-12.480469 5.589844-12.480469 12.480469v43.140625c0 6.894531 5.585938 12.480469 12.480469 12.480469h487.039062c6.890625 0 12.480469-5.585938 12.480469-12.480469v-43.140625c0-6.890625-5.585938-12.480469-12.480469-12.480469zm0 0" fill="#ad9386"/><path d="m499.214844 270.855469h-486.429688c-7.0625 0-12.785156 5.722656-12.785156 12.785156v71.066406c0 7.0625 5.722656 12.785157 12.785156 12.785157h486.429688c7.058594 0 12.785156-5.722657 12.785156-12.785157v-71.066406c0-7.0625-5.722656-12.785156-12.785156-12.785156zm0 0" fill="#ad9386"/><path d="m139.515625 415.128906h-127.035156c-6.894531 0-12.480469 5.589844-12.480469 12.480469v43.140625c0 6.894531 5.585938 12.480469 12.480469 12.480469h162.625c-44.53125-10.398438-51.726563-47.796875-35.589844-68.101563zm0 0" fill="#998377"/><path d="m242.859375 480.71875c-.042969-.152344-.085937-.339844-.140625-.550781-6.816406-27.085938-31.425781-35.84375-50.871094-38.421875-44.152344-5.855469-92.882812 21.332031-105.539062 36.9375-1.089844 1.34375-1.628906 2.945312-1.667969 4.546875h18.398437c15.15625-12.429688 52.824219-31.125 86.835938-26.613281 7.976562 1.054687 32.085938 4.265624 38.128906 26.613281h15.34375c-.015625-.84375-.171875-1.691407-.488281-2.511719zm0 0" fill="#998377"/><path d="m399.445312 415.128906c-5.570312 4.128906-9.195312 8.984375-12.640624 13.59375-6.148438 8.230469-11.460938 15.335938-28.257813 19.382813-27.136719 6.539062-45.390625-11.132813-60.988281-32.976563h-18.210938c12.636719 19.121094 34.039063 49.359375 68.050782 49.359375 4.648437 0 9.53125-.566406 14.660156-1.800781 22.058594-5.3125 30.210937-16.222656 36.757812-24.984375 7.566406-10.121094 13.582032-18.121094 42.777344-17.929687h.050781c3.125 0 5.804688-1.914063 6.929688-4.644532zm0 0" fill="#998377"/><path d="m499.214844 270.855469h-486.429688c-7.0625 0-12.785156 5.722656-12.785156 12.785156v71.066406c0 7.0625 5.722656 12.785157 12.785156 12.785157h486.429688c7.058594 0 12.785156-5.722657 12.785156-12.785157v-71.066406c0-7.0625-5.722656-12.785156-12.785156-12.785156zm0 0" fill="#ad9386"/><path d="m12.785156 270.855469c-7.0625 0-12.785156 5.722656-12.785156 12.785156v71.066406c0 7.0625 5.722656 12.785157 12.785156 12.785157h149.128906c-49.128906-10.679688-80.957031-62.570313-51.550781-96.636719zm0 0" fill="#998377"/><path d="m456.496094 357.308594c-25.773438-21.234375-68.910156-56.773438-113.625-45.402344-24.503906 6.230469-39.882813 19.128906-54.757813 31.597656-11.785156 9.886719-22.53125 18.890625-37.003906 23.988282h31.027344c5.460937-3.984376 10.5625-8.257813 15.617187-12.492188 14.207032-11.914062 27.628906-23.167969 48.816406-28.558594 36.464844-9.273437 74.953126 21.511719 98.695313 41.050782h24.039063c-3.429688-2.460938-7.847657-6.097657-12.808594-10.183594zm0 0" fill="#998377"/><path d="m197.730469 270.855469c-2.464844 3.113281-4.746094 6.320312-6.96875 9.445312-10.882813 15.304688-20.28125 28.527344-45.4375 29.425781-42.597657 1.53125-56.523438-17.574218-66.394531-38.871093h-16.425782c10.421875 24.046875 26.007813 53.953125 78.230469 53.953125 1.667969 0 3.378906-.03125 5.121094-.09375 32.558593-1.164063 45.613281-19.523438 57.132812-35.722656 5.054688-7.113282 9.617188-13.527344 15.472657-18.140626h-20.730469zm0 0" fill="#998377"/><g fill="#dfe3e5"><path d="m54.566406 319.171875c0 7.871094-6.378906 14.253906-14.25 14.253906s-14.253906-6.382812-14.253906-14.253906c0-7.867187 6.382812-14.25 14.253906-14.25s14.25 6.382813 14.25 14.25zm0 0"/><path d="m485.9375 319.171875c0 7.871094-6.382812 14.253906-14.253906 14.253906s-14.25-6.382812-14.25-14.253906c0-7.867187 6.378906-14.25 14.25-14.25s14.253906 6.382813 14.253906 14.25zm0 0"/><path d="m54.566406 449.179688c0 7.871093-6.378906 14.25-14.25 14.25s-14.253906-6.378907-14.253906-14.25c0-7.871094 6.382812-14.25 14.253906-14.25s14.25 6.378906 14.25 14.25zm0 0"/><path d="m485.9375 449.179688c0 7.871093-6.382812 14.25-14.253906 14.25s-14.25-6.378907-14.25-14.25c0-7.871094 6.378906-14.25 14.25-14.25s14.253906 6.378906 14.253906 14.25zm0 0"/></g></svg>