<svg height="512pt" viewBox="0 -29 512 511" width="512pt" xmlns="http://www.w3.org/2000/svg"><path d="m473.140625 116.726562-217.140625-93.703124-217.140625 93.703124v323.859376c0 6.953124 5.632813 12.585937 12.585937 12.585937h409.109376c6.953124 0 12.589843-5.632813 12.589843-12.585937v-323.859376zm0 0" fill="#f8eed1"/><path d="m246.664062 27.050781-207.804687 89.675781v323.859376c0 6.953124 5.632813 12.585937 12.585937 12.585937h238.183594c-112.082031-62.882813-150.167968-229.925781-156.976562-310.003906-.65625-7.695313 3.671875-14.945313 10.765625-18l98.007812-42.195313c9.300781-4.003906 19.84375-4.003906 29.148438 0l202.566406 87.210938v-53.457032l-207.804687-89.675781c-6.191407-.898437-12.480469-.898437-18.671876 0zm0 0" fill="#f0e3c0"/><path d="m460.554688 453.171875h-409.109376c-6.953124 0-12.585937-5.632813-12.585937-12.585937v-29.242188h434.285156v29.242188c-.003906 6.949218-5.636719 12.585937-12.589843 12.585937zm0 0" fill="#ddaf89"/><path d="m38.859375 440.585938c0 6.953124 5.632813 12.585937 12.585937 12.585937h238.183594c-19.726562-11.0625-37.160156-25.351563-52.53125-41.828125h-198.238281zm0 0" fill="#c9a07d"/><path d="m256 232.808594c-6.992188 0-13.574219-3.304688-17.75-8.910156l-100.546875-135.03125 35.496094-26.433594 82.800781 111.195312 82.800781-111.195312 35.496094 26.433594-100.546875 135.03125c-4.175781 5.605468-10.757812 8.910156-17.75 8.910156zm0 0" fill="#ddaf89"/><g fill="#c9a07d"><path d="m238.25 223.898438c4.175781 5.605468 10.757812 8.910156 17.75 8.910156s13.574219-3.304688 17.75-8.910156l37.433594-50.269532h-110.367188zm0 0"/><path d="m310.65625 100.230469 41.785156 17.988281 21.855469-29.351562-35.496094-26.433594zm0 0"/><path d="m137.703125 88.867188 21.855469 29.351562 41.785156-17.988281-28.144531-37.796875zm0 0"/></g><path d="m38.859375 190.027344h434.28125v44.257812h-434.28125zm0 0" fill="#ddaf89"/><path d="m138.945312 190.027344h-100.085937v44.257812h109.710937c-3.96875-15.433594-7.140624-30.335937-9.625-44.257812zm0 0" fill="#c9a07d"/><path d="m210.726562 369.515625h-55.277343v-96.007813h55.277343c5.164063 0 9.351563 4.1875 9.351563 9.351563v77.304687c0 5.167969-4.1875 9.351563-9.351563 9.351563zm0 0" fill="#9cd6e3"/><path d="m160.140625 273.507812h-4.691406v96.007813h49.46875c-19.195313-29.976563-33.824219-63.292969-44.777344-96.007813zm0 0" fill="#8bc7d6"/><path d="m155.449219 369.515625h-55.273438c-5.164062 0-9.351562-4.183594-9.351562-9.351563v-77.304687c0-5.164063 4.1875-9.351563 9.351562-9.351563h55.273438zm0 0" fill="#ddaf89"/><path d="m405.671875 285.863281h-99.003906c-5.371094 0-9.730469 4.355469-9.730469 9.730469v157.578125h118.464844v-157.578125c0-5.375-4.355469-9.730469-9.730469-9.730469zm0 0" fill="#ad9386"/><path d="m336.425781 285.863281h39.488281v167.308594h-39.488281zm0 0" fill="#998377"/><path d="m296.9375 349.921875h118.464844v39.195313h-118.464844zm0 0" fill="#ddaf89"/><path d="m90.820312 330.242188h64.628907v15h-64.628907zm0 0" fill="#c9a07d"/><path d="m90.820312 297.78125h64.628907v15h-64.628907zm0 0" fill="#c9a07d"/><path d="m19.652344 152.585938 221.773437-95.476563c9.304688-4.007813 19.84375-4.007813 29.148438 0l221.773437 95.476563c9.296875 4.003906 19.652344-2.8125 19.652344-12.933594v-17.554688c0-10.394531-6.1875-19.796875-15.734375-23.90625l-214.65625-92.414062c-16.347656-7.035156-34.871094-7.035156-51.21875 0l-214.65625 92.414062c-9.546875 4.109375-15.734375 13.511719-15.734375 23.90625v17.554688c0 10.121094 10.355469 16.9375 19.652344 12.933594zm0 0" fill="#7dad91"/><path d="m19.652344 152.585938 200.417968-86.285157c-15.480468-9.652343-15.058593-34.589843-7.066406-53.039062l-197.269531 84.929687c-9.546875 4.109375-15.734375 13.511719-15.734375 23.90625v17.554688c0 10.121094 10.355469 16.9375 19.652344 12.933594zm0 0" fill="#6e9981"/></svg>