<svg height="512pt" viewBox="0 -114 512.00055 512" width="512pt" xmlns="http://www.w3.org/2000/svg"><path d="m183.722656 54.21875c-20.503906 0-38.984375 7.621094-51.984375 19.816406-4.21875 3.957032-10.261719 5.367188-15.746093 3.527344-5.285157-1.769531-11.019532-2.742188-17.011719-2.742188-26.445313 0-47.878907 18.847657-47.878907 42.097657s21.433594 42.097656 47.878907 42.097656c5.996093 0 11.730469-.972656 17.011719-2.746094 5.484374-1.835937 11.527343-.425781 15.746093 3.53125 13 12.195313 31.480469 19.816407 51.984375 19.816407 39.363282 0 71.273438-28.070313 71.273438-62.699219 0-34.628907-31.910156-62.699219-71.273438-62.699219zm0 0" fill="#9cd6e3"/><path d="m279.695312 20.277344-173.535156 264.253906h386.566406c15.308594 0 24.488282-17.007812 16.082032-29.804688l-153.960938-234.449218c-17.753906-27.035156-57.398437-27.035156-75.152344 0zm0 0" fill="#ad9386"/><path d="m282.96875 15.898438c-1.15625 1.375-2.253906 2.828124-3.273438 4.378906l-173.535156 264.253906h312.621094c-149.851562-42.773438-149.867188-191.644531-135.8125-268.632812zm0 0" fill="#998377"/><path d="m247.140625 251.507812c-1.21875 0-2.457031-.300781-3.605469-.929687-3.628906-1.992187-4.957031-6.554687-2.960937-10.183594 3.847656-7.003906 7.769531-10.753906 11.230469-14.058593 4.425781-4.230469 8.605468-8.222657 14.097656-20.28125 1.71875-3.769532 6.167968-5.433594 9.9375-3.71875 3.769531 1.71875 5.433594 6.167968 3.714844 9.9375-6.691407 14.6875-12.375 20.117187-17.386719 24.90625-3.191407 3.050781-5.710938 5.457031-8.445313 10.4375-1.367187 2.484374-3.933594 3.890624-6.582031 3.890624zm0 0" fill="#ad9386"/><path d="m97.332031 126.449219-93.566406 127.449219c-9.328125 12.710937-.253906 30.632812 15.511719 30.632812h266.582031l-116.054687-158.082031c-17.960938-24.46875-54.511719-24.46875-72.472657 0zm0 0" fill="#ddaf89"/><path d="m121.347656 109.785156c-9.214844 2.578125-17.75 8.125-24.019531 16.664063l-93.5625 127.449219c-9.332031 12.710937-.253906 30.632812 15.511719 30.632812h156.367187c-69.144531-28.644531-76.488281-120.925781-54.296875-174.746094zm0 0" fill="#c9a07d"/><path d="m254.753906 88.699219c12.101563-2.664063 24.707032-1.90625 36.402344 2.195312l12.015625 4.210938c9.125 3.199219 19.070313 3.199219 28.203125 0l12.011719-4.210938c11.695312-4.101562 24.300781-4.859375 36.402343-2.195312l23.371094 5.148437-48.3125-73.570312c-17.753906-27.035156-57.398437-27.035156-75.152344 0l-48.3125 73.570312zm0 0" fill="#f8eed1"/><path d="m71.050781 181.746094c12.101563-2.667969 24.707031-1.90625 36.398438 2.191406l12.015625 4.210938c9.128906 3.203124 19.074218 3.203124 28.203125 0l12.015625-4.210938c11.695312-4.097656 24.300781-4.859375 36.402344-2.191406l17.074218 3.761718-43.355468-59.058593c-17.960938-24.46875-54.511719-24.46875-72.476563 0l-43.351563 59.058593zm0 0" fill="#f8eed1"/><path d="m277.683594 169.898438c0-10.179688-10.367188-18.433594-23.152344-18.433594s-23.148438 8.253906-23.148438 18.433594c0 10.183593 10.363282 18.4375 23.148438 18.4375s23.152344-8.253907 23.152344-18.4375zm0 0" fill="#f1a18f"/><path d="m403.160156 169.898438c0-10.179688-10.363281-18.433594-23.148437-18.433594-12.785157 0-23.148438 8.253906-23.148438 18.433594 0 10.183593 10.363281 18.4375 23.148438 18.4375 12.785156 0 23.148437-8.253907 23.148437-18.4375zm0 0" fill="#f1a18f"/><g fill="#495059"><path d="m268.023438 159.007812c-4.144532 0-7.5-3.355468-7.5-7.5v-8.175781c0-4.140625 3.355468-7.5 7.5-7.5 4.144531 0 7.5 3.359375 7.5 7.5v8.175781c0 4.144532-3.355469 7.5-7.5 7.5zm0 0"/><path d="m366.519531 159.007812c-4.140625 0-7.5-3.355468-7.5-7.5v-8.175781c0-4.140625 3.359375-7.5 7.5-7.5 4.144531 0 7.5 3.359375 7.5 7.5v8.175781c0 4.144532-3.355469 7.5-7.5 7.5zm0 0"/><path d="m317.273438 165.285156c-7.144532 0-13.9375-3.09375-18.640626-8.488281-2.722656-3.121094-2.394531-7.859375.730469-10.582031 3.121094-2.71875 7.859375-2.394532 10.582031.730468 1.847657 2.121094 4.519532 3.339844 7.328126 3.339844 2.804687 0 5.476562-1.21875 7.328124-3.34375 2.722657-3.121094 7.457032-3.445312 10.582032-.726562 3.121094 2.722656 3.449218 7.460937.726562 10.582031-4.699218 5.394531-11.492187 8.488281-18.636718 8.488281zm0 0"/></g><path d="m437.644531 257.777344c-2.679687 0-5.273437-1.441406-6.625-3.972656-3.300781-6.1875-8.546875-10.722657-14.621093-15.972657-7.140626-6.167969-15.230469-13.160156-22.617188-24.601562-2.25-3.476563-1.25-8.121094 2.230469-10.367188 3.476562-2.246093 8.121093-1.25 10.367187 2.230469 6.222656 9.636719 13.140625 15.609375 19.824219 21.386719 6.910156 5.972656 13.4375 11.613281 18.050781 20.265625 1.949219 3.652344.566406 8.195312-3.085937 10.148437-1.125.597657-2.332031.882813-3.523438.882813zm0 0" fill="#998377"/><path d="m63.925781 261.78125c-1.433593 0-2.875-.40625-4.15625-1.261719-3.445312-2.296875-4.375-6.953125-2.078125-10.398437.417969-.628906.945313-1.398438 1.546875-2.28125 4.085938-5.984375 12.582031-18.429688 14.929688-27.378906 1.050781-4.007813 5.148437-6.40625 9.15625-5.355469 4.007812 1.050781 6.402343 5.148437 5.355469 9.15625-3.003907 11.460937-12.144532 24.84375-17.050782 32.035156-.570312.832031-1.0625 1.550781-1.457031 2.144531-1.445313 2.167969-3.824219 3.339844-6.246094 3.339844zm0 0" fill="#ddaf89"/><path d="m205.679688 257.777344c-2.824219 0-5.527344-1.601563-6.800782-4.332032-2.214844-4.746093-5.953125-8.695312-10.277344-13.269531-4.765624-5.035156-10.164062-10.742187-14.269531-18.5625-1.925781-3.664062-.511719-8.199219 3.15625-10.125s8.199219-.511719 10.125 3.152344c3.144531 5.988281 7.390625 10.472656 11.882813 15.222656 4.785156 5.0625 9.734375 10.289063 12.976562 17.242188 1.75 3.753906.125 8.214843-3.628906 9.964843-1.023438.480469-2.101562.707032-3.164062.707032zm0 0" fill="#c9a07d"/><path d="m277.253906 87.644531c-.65625-26.699219 2.050782-51.667969 5.714844-71.746093-1.152344 1.375-2.253906 2.828124-3.273438 4.378906l-48.3125 73.570312 23.371094-5.148437c7.417969-1.632813 15.027344-1.976563 22.5-1.054688zm0 0" fill="#f0e3c0"/><path d="m71.050781 181.746094c12.101563-2.667969 24.707031-1.90625 36.398438 2.191406l3.394531 1.191406c-2.410156-26.925781 1.75-54.125 10.5-75.34375-9.214844 2.578125-17.746094 8.125-24.015625 16.664063l-43.355469 59.058593zm0 0" fill="#f0e3c0"/></svg>