<svg height="512pt" viewBox="0 -53 512.00034 512" width="512pt" xmlns="http://www.w3.org/2000/svg"><path d="m75 104.492188c-23.746094 0-45.921875-.832032-67.851562-1.867188-4.136719-.195312-7.332032-3.707031-7.1367192-7.84375.1953122-4.136719 3.6992192-7.34375 7.8437502-7.136719 68.042969 3.207031 138.503906 4.433594 251.808593-15.546875 113.304688-19.976562 179.097657-45.226562 241.941407-71.515625 3.820312-1.597656 8.214843.203125 9.8125 4.023438 1.597656 3.824219-.203125 8.214843-4.027344 9.8125-63.652344 26.628906-130.300781 52.207031-245.121094 72.453125-78.289062 13.804687-136.382812 17.621094-187.269531 17.621094zm0 0" fill="#495059"/><path d="m428.984375 133.957031-73.902344-79.769531c-2.902343-3.128906-1.675781-8.199219 2.335938-9.660156l86.480469-31.476563c4.007812-1.457031 8.210937 1.636719 8 5.898438l-5.335938 108.613281c-.441406 8.972656-11.472656 12.988281-17.578125 6.394531zm0 0" fill="#7dad91"/><path d="m446.5625 127.5625 1.078125-21.972656c-29.773437-1.589844-65.003906-43.722656-78.769531-65.230469l-11.453125 4.167969c-4.011719 1.460937-5.238281 6.53125-2.335938 9.660156l73.902344 79.769531c6.105469 6.59375 17.136719 2.578125 17.578125-6.394531zm0 0" fill="#6e9981"/><path d="m426.65625 70.910156c0 5.972656-4.839844 10.8125-10.8125 10.8125s-10.8125-4.839844-10.8125-10.8125 4.839844-10.8125 10.8125-10.8125 10.8125 4.839844 10.8125 10.8125zm0 0" fill="#fae37b"/><path d="m120.300781 188.386719 42.164063-100.234375c1.652344-3.933594-1.234375-8.28125-5.5-8.28125h-92.035156c-4.265626 0-7.152344 4.347656-5.5 8.28125l42.164062 100.234375c3.484375 8.285156 15.222656 8.285156 18.707031 0zm0 0" fill="#7dad91"/><path d="m74.957031 79.871094h-10.027343c-4.265626 0-7.152344 4.347656-5.5 8.28125l42.164062 100.234375c3.484375 8.285156 15.222656 8.285156 18.707031 0l17.921875-42.609375c-40.703125 7.199218-59.738281-44.828125-63.265625-65.90625zm0 0" fill="#6e9981"/><path d="m121.894531 124.648438c0 5.972656-4.839843 10.8125-10.8125 10.8125-5.96875 0-10.8125-4.839844-10.8125-10.8125 0-5.972657 4.84375-10.8125 10.8125-10.8125 5.972657 0 10.8125 4.839843 10.8125 10.8125zm0 0" fill="#fae37b"/><path d="m315.292969 169.332031-35.304688-7.855469c-3.527343-.785156-7.21875-.132812-10.265625 1.808594l-30.488281 19.457032c-6.023437 3.84375-14.015625.332031-15.257813-6.703126l-17.496093-99.238281c-.863281-4.886719 2.398437-9.542969 7.28125-10.40625l85.671875-15.105469c4.886718-.859374 9.542968 2.402344 10.402344 7.285157l17.5 99.238281c1.238281 7.035156-5.070313 13.070312-12.042969 11.519531zm0 0" fill="#f7cf66"/><path d="m239.230469 182.742188 30.492187-19.457032c.515625-.328125 1.054688-.605468 1.605469-.859375-22.097656-24.933593-33.023437-71.488281-37.734375-99.527343l-19.832031 3.496093c-4.882813.863281-8.144531 5.519531-7.28125 10.40625l17.496093 99.234375c1.238282 7.039063 9.234376 10.550782 15.253907 6.707032zm0 0" fill="#ebc35c"/><path d="m211.472656 105.1875 103.359375-18.222656 6.269531 35.5625-103.359374 18.21875zm0 0" fill="#d97b7d"/><path d="m211.480469 105.175781 6.273437 35.5625 36.175782-6.378906c-5.007813-10.996094-9.03125-22.933594-12.230469-34.511719zm0 0" fill="#c77172"/><path d="m299.433594 51.289062-85.671875 15.105469c-4.882813.863281-8.144531 5.519531-7.285157 10.40625l5.003907 28.375 103.359375-18.222656-5.003906-28.378906c-.859376-4.882813-5.519532-8.144531-10.402344-7.285157zm0 0" fill="#495059"/><path d="m233.59375 62.898438-19.832031 3.496093c-4.882813.863281-8.144531 5.519531-7.28125 10.40625l5.003906 28.375 30.214844-5.328125c-3.734375-13.503906-6.351563-26.507812-8.105469-36.949218zm0 0" fill="#41464f"/><path d="m437.003906 310.1875c-50.890625 0-108.976562-3.8125-187.273437-17.621094-114.820313-20.246094-181.46875-45.824218-245.121094-72.449218-3.824219-1.597657-5.625-5.992188-4.027344-9.8125 1.597657-3.824219 5.992188-5.625 9.8125-4.027344 62.84375 26.289062 128.636719 51.539062 241.941407 71.515625 113.300781 19.980469 183.761718 18.753906 251.808593 15.546875 4.128907-.207032 7.648438 3 7.84375 7.140625.195313 4.136719-3 7.648437-7.136719 7.84375-21.925781 1.03125-44.105468 1.863281-67.847656 1.863281zm0 0" fill="#495059"/><path d="m227.347656 369.78125-24.117187-106.035156c-.945313-4.15625 2.652343-7.9375 6.855469-7.195313l90.632812 15.980469c4.203125.738281 6.292969 5.523438 3.980469 9.109375l-58.929688 91.390625c-4.871093 7.550781-16.429687 5.515625-18.421875-3.25zm0 0" fill="#9cd6e3"/><path d="m439.859375 404.859375-33.40625-13.867187c-3.335937-1.382813-7.085937-1.382813-10.421875 0l-33.40625 13.867187c-6.597656 2.738281-13.859375-2.109375-13.859375-9.253906v-100.769531c0-4.957032 4.019531-8.980469 8.980469-8.980469h86.992187c4.960938 0 8.980469 4.023437 8.980469 8.980469v100.769531c0 7.144531-7.261719 11.992187-13.859375 9.253906zm0 0" fill="#f7cf66"/><path d="m348.765625 294.835938v100.769531c0 7.144531 7.261719 11.992187 13.859375 9.253906l33.40625-13.867187c.816406-.339844 1.660156-.59375 2.515625-.765626-17.503906-26.539062-22.078125-77.402343-23.074219-104.371093h-17.726562c-4.960938 0-8.980469 4.023437-8.980469 8.980469zm0 0" fill="#ebc35c"/><path d="m348.765625 323.652344h104.953125v36.113281h-104.953125zm0 0" fill="#d97b7d"/><path d="m378.585938 323.652344h-29.820313v36.109375h36.894531c-3.246094-11.617188-5.507812-24.148438-7.074218-36.109375zm0 0" fill="#c77172"/><path d="m444.738281 285.855469h-86.992187c-4.957032 0-8.980469 4.023437-8.980469 8.980469v28.816406h104.953125v-28.816406c0-4.957032-4.019531-8.980469-8.980469-8.980469zm0 0" fill="#495059"/><path d="m375.476562 285.855469h-17.730468c-4.960938 0-8.980469 4.019531-8.980469 8.980469v28.816406h29.820313c-1.863282-14.261719-2.738282-27.703125-3.109376-37.796875zm0 0" fill="#41464f"/><path d="m34.078125 333.308594 36.132813-1.605469c3.609374-.160156 7.132812 1.125 9.792968 3.566406l26.648438 24.457031c5.261718 4.828126 13.746094 2.757813 16.1875-3.957031l34.464844-94.691406c1.695312-4.660156-.707032-9.8125-5.367188-11.511719l-81.746094-29.75c-4.660156-1.699218-9.8125.707032-11.507812 5.367188l-34.464844 94.691406c-2.445312 6.710938 2.722656 13.75 9.859375 13.433594zm0 0" fill="#f7cf66"/><path d="m81.824219 224.046875-11.628907-4.234375c-4.664062-1.695312-9.816406.707031-11.511718 5.371094l-34.464844 94.691406c-2.445312 6.710938 2.722656 13.75 9.859375 13.433594l36.132813-1.605469c3.609374-.160156 7.132812 1.125 9.792968 3.566406l5.742188 5.269531c-13.089844-36.726562-10.933594-92.949218-3.921875-116.492187zm0 0" fill="#ebc35c"/><path d="m135.09375 322.085938-98.625-35.894532 12.351562-33.929687 98.625 35.890625zm0 0" fill="#d97b7d"/><path d="m76.496094 262.328125-27.667969-10.070313-12.351563 33.933594 41.058594 14.945313c-1.324218-13.148438-1.578125-26.550781-1.039062-38.808594zm0 0" fill="#c77172"/><path d="m70.195312 219.8125 81.742188 29.753906c4.664062 1.699219 7.066406 6.851563 5.371094 11.511719l-9.859375 27.078125-98.621094-35.898438 9.855469-27.078124c1.695312-4.660157 6.847656-7.0625 11.511718-5.367188zm0 0" fill="#495059"/><path d="m70.195312 219.8125c-4.664062-1.695312-9.816406.707031-11.511718 5.371094l-9.855469 27.078125 27.667969 10.070312c.683594-15.585937 2.65625-29.308593 5.328125-38.285156zm0 0" fill="#41464f"/><path d="m210.085938 256.550781c-4.203126-.742187-7.800782 3.039063-6.855469 7.195313l24.117187 106.035156c1.992188 8.765625 13.550782 10.800781 18.421875 3.25l7.890625-12.238281c-21.882812-22.355469-30.136718-76.515625-32.1875-102.238281zm0 0" fill="#8bc7d6"/><path d="m257.953125 311.382812c0 5.972657-4.839844 10.8125-10.8125 10.8125-5.96875 0-10.808594-4.839843-10.808594-10.8125 0-5.972656 4.839844-10.8125 10.808594-10.8125 5.972656 0 10.8125 4.839844 10.8125 10.8125zm0 0" fill="#fff"/></svg>