<svg height="512pt" viewBox="-1 -166 512.00033 512" width="512pt" xmlns="http://www.w3.org/2000/svg"><path d="m311.953125 134.109375c-9.210937 0-18.300781-.179687-27.359375-.359375-9.308594-.179688-18.933594-.367188-28.59375-.367188s-19.285156.1875-28.59375.367188c-62.363281 1.222656-126.84375 2.484375-213.371094-54.667969-14.40625-9.519531-18.371094-28.910156-8.855468-43.316406 9.515624-14.40625 28.910156-18.375 43.316406-8.855469 70.296875 46.429688 117.691406 45.503906 177.6875 44.328125 9.609375-.1875 19.542968-.382812 29.816406-.382812s20.207031.195312 29.816406.382812c60.003906 1.175781 107.390625 2.101563 177.6875-44.328125 14.40625-9.515625 33.800782-5.554687 43.316406 8.855469 9.515626 14.40625 5.550782 33.796875-8.855468 43.316406-73.960938 48.851563-131.824219 55.027344-186.011719 55.027344zm0 0" fill="#d97b7d"/><path d="m19.15625 65.367188c1.359375 1.046874 2.96875 1.550781 4.5625 1.550781 2.25 0 4.476562-1.007813 5.953125-2.929688 2.523437-3.285156 1.90625-7.996093-1.378906-10.519531-4.003907-3.070312-7.109375-6.351562-9.558594-9.535156 3.957031.683594 8.304687 1.902344 12.890625 4.003906 1.015625.46875 2.078125.6875 3.125.6875 2.839844 0 5.558594-1.621094 6.820312-4.371094 1.730469-3.765625.078126-8.21875-3.6875-9.945312-8.078124-3.710938-16.546874-5.710938-25.699218-6.078125-2.664063 2.054687-5.046875 4.570312-7.003906 7.53125-1.804688 2.734375-3.125 5.648437-3.980469 8.640625 4.699219 8.402344 10.597656 15.3125 17.957031 20.964844zm0 0" fill="#c77172"/><path d="m510.800781 44.402344c-.859375-2.992188-2.175781-5.90625-3.980469-8.636719-1.957031-2.964844-4.339843-5.480469-7.007812-7.535156-9.148438.367187-17.621094 2.371093-25.695312 6.078125-3.765626 1.726562-5.417969 6.179687-3.6875 9.945312 1.261718 2.75 3.976562 4.371094 6.820312 4.371094 1.046875 0 2.109375-.21875 3.125-.683594 4.582031-2.105468 8.933594-3.324218 12.890625-4.003906-2.449219 3.179688-5.558594 6.460938-9.558594 9.53125-3.285156 2.523438-3.902343 7.234375-1.378906 10.519531 1.476563 1.921875 3.699219 2.929688 5.953125 2.929688 1.59375 0 3.199219-.503907 4.5625-1.550781 7.359375-5.652344 13.257812-12.5625 17.957031-20.964844zm0 0" fill="#c77172"/><path d="m151.78125 33.992188c-1.71875-12.140626 16.273438-33.417969 42.996094-33.9804692 22.609375-.4765628 40.949218 12.9648432 52.273437 29.7343752 19.214844 28.453125 16.554688-8.019532 42.203125-20.621094 19.21875-9.445312 58.027344-6.714844 77.210938 25.417969 19.183594 32.132812-29.253906 66.179687-34.046875 69.058593-4.796875 2.878907-133.804688 0-133.804688 0s-39.640625-18.777343-46.832031-69.609374zm0 0" fill="#f8eed1"/><path d="m285.015625 11.578125c-15.917969 10.691406-19.140625 30.710937-27.445313 28.609375-6.332031 19.320312-7.210937 42.558594-5.746093 64.347656 36.15625.484375 77.902343.679688 80.59375-.933594 1.667969-1.003906 8.636719-5.792968 16.195312-12.960937-33.253906-18.976563-62.890625-59.253906-63.597656-79.0625zm0 0" fill="#f0e3c0"/><path d="m278.425781 104.8125c-63.308593-12.511719-96.652343-73.230469-89.03125-104.390625-23.71875 3.042969-39.214843 22.265625-37.613281 33.566406 7.191406 50.835938 46.832031 69.613281 46.832031 69.613281s42.648438.949219 79.8125 1.210938zm0 0" fill="#f0e3c0"/><path d="m204.035156 54.160156c0-20.449218-18.609375-37.023437-41.5625-37.023437s-41.558594 16.574219-41.558594 37.023437c0 20.449219 18.605469 37.023438 41.558594 37.023438s41.5625-16.574219 41.5625-37.023438zm0 0" fill="#fae37b"/><path d="m162.472656 91.1875c15.035156 0 28.203125-7.113281 35.5-17.765625-35.332031-6.347656-42.402344-45.265625-35.515625-56.285156-22.949219.007812-41.546875 16.582031-41.546875 37.023437.003906 20.449219 18.609375 37.027344 41.5625 37.027344zm0 0" fill="#f0d66a"/><path d="m293.160156 58.292969c0-20.449219-16.636718-37.027344-37.160156-37.027344s-37.160156 16.578125-37.160156 37.027344 16.636718 37.023437 37.160156 37.023437 37.160156-16.574218 37.160156-37.023437zm0 0" fill="#fae37b"/><path d="m256 95.316406c16.53125 0 30.53125-10.757812 35.355469-25.625-31.238281 1.492188-51.8125-29.675781-37.167969-48.378906-19.679688.941406-35.347656 17.136719-35.347656 36.980469 0 20.449219 16.636718 37.023437 37.160156 37.023437zm0 0" fill="#f0d66a"/><path d="m394.714844 58.292969c0-20.449219-18.609375-37.027344-41.5625-37.027344s-41.558594 16.578125-41.558594 37.027344 18.605469 37.023437 41.558594 37.023437 41.5625-16.574218 41.5625-37.023437zm0 0" fill="#fae37b"/><path d="m393.644531 66.628906c-28.847656 3.511719-62.570312-28.714844-47.914062-44.761718-19.410157 3.121093-34.140625 18.234374-34.140625 36.425781 0 20.449219 18.609375 37.027343 41.5625 37.027343 19.734375-.003906 36.246094-12.261718 40.492187-28.691406zm0 0" fill="#f0d66a"/><path d="m430.726562 107.101562c4.394532-18.296874.230469-37.265624-11.417968-52.042968-.699219-.886719-1.421875-1.75-2.164063-2.59375-46.980469 20.425781-85.46875 19.671875-131.328125 18.773437-9.605468-.1875-19.542968-.382812-29.816406-.382812s-20.207031.195312-29.8125.382812c-45.855469.898438-84.347656 1.648438-131.328125-18.773437-.742187.84375-1.46875 1.707031-2.167969 2.59375-11.648437 14.777344-15.808594 33.746094-11.417968 52.042968l1.917968 7.992188c54 20.417969 99.652344 19.53125 144.21875 18.65625 9.304688-.179688 18.929688-.367188 28.589844-.367188 9.664062 0 19.285156.1875 28.59375.367188 9.058594.179688 18.148438.359375 27.359375.359375 36.097656 0 73.832031-2.761719 116.859375-19.03125zm0 0" fill="#c77172"/><path d="m335.527344 180.917969h-159.054688c-34.941406 0-65.324218-23.953125-73.480468-57.925781l-4.792969-19.957032c-6.585938-27.4375 14.207031-53.816406 42.425781-53.816406h230.75c28.214844 0 49.011719 26.378906 42.425781 53.816406l-4.792969 19.957032c-8.15625 33.972656-38.539062 57.925781-73.480468 57.925781zm0 0" fill="#ddaf89"/><path d="m140.625 49.21875c-28.214844 0-49.011719 26.378906-42.425781 53.816406l4.792969 19.957032c8.15625 33.972656 38.542968 57.925781 73.480468 57.925781h60.75c-71.75-25.171875-80.132812-101.109375-62.015625-131.699219zm0 0" fill="#c9a07d"/><path d="m138.886719 82.972656c0 4.148438-3.363281 7.511719-7.511719 7.511719s-7.511719-3.363281-7.511719-7.511719c0-4.148437 3.363281-7.511718 7.511719-7.511718s7.511719 3.363281 7.511719 7.511718zm0 0" fill="#ddaf89"/><path d="m177.496094 154.167969c0 4.148437-3.363282 7.511719-7.511719 7.511719s-7.511719-3.363282-7.511719-7.511719c0-4.148438 3.363282-7.511719 7.511719-7.511719s7.511719 3.363281 7.511719 7.511719zm0 0" fill="#ddaf89"/><path d="m345.40625 70.40625c0 4.148438-3.359375 7.511719-7.511719 7.511719-4.148437 0-7.511719-3.363281-7.511719-7.511719s3.363282-7.511719 7.511719-7.511719c4.152344 0 7.511719 3.363281 7.511719 7.511719zm0 0" fill="#c9a07d"/><path d="m392.445312 124.15625c0 4.148438-3.363281 7.511719-7.511718 7.511719-4.148438 0-7.511719-3.363281-7.511719-7.511719 0-4.152344 3.363281-7.515625 7.511719-7.515625 4.148437 0 7.511718 3.363281 7.511718 7.515625zm0 0" fill="#c9a07d"/><path d="m214.789062 128.859375c0-10.597656-10.789062-19.191406-24.097656-19.191406s-24.097656 8.59375-24.097656 19.191406 10.789062 19.191406 24.097656 19.191406 24.097656-8.59375 24.097656-19.191406zm0 0" fill="#fff"/><path d="m345.40625 128.859375c0-10.597656-10.789062-19.191406-24.097656-19.191406s-24.097656 8.59375-24.097656 19.191406 10.789062 19.191406 24.097656 19.191406 24.097656-8.59375 24.097656-19.191406zm0 0" fill="#fff"/><g fill="#495059"><path d="m216.207031 115.476562c-4.144531 0-7.5-3.355468-7.5-7.5 0-2.1875-1.78125-3.96875-3.972656-3.96875-2.1875 0-3.96875 1.78125-3.96875 3.96875 0 4.144532-3.359375 7.5-7.5 7.5-4.144531 0-7.5-3.355468-7.5-7.5 0-10.460937 8.507813-18.96875 18.96875-18.96875s18.972656 8.507813 18.972656 18.96875c0 4.144532-3.359375 7.5-7.5 7.5zm0 0"/><path d="m318.734375 115.476562c-4.140625 0-7.5-3.355468-7.5-7.5 0-2.1875-1.78125-3.96875-3.96875-3.96875-2.191406 0-3.972656 1.78125-3.972656 3.96875 0 4.144532-3.355469 7.5-7.5 7.5-4.140625 0-7.5-3.355468-7.5-7.5 0-10.460937 8.511719-18.96875 18.972656-18.96875s18.96875 8.507813 18.96875 18.96875c0 4.144532-3.355469 7.5-7.5 7.5zm0 0"/><path d="m256 134.425781c-6.832031 0-13.328125-2.957031-17.820312-8.117187-2.722657-3.121094-2.394532-7.859375.726562-10.582032 3.125-2.71875 7.859375-2.394531 10.582031.730469 1.644531 1.886719 4.019531 2.96875 6.511719 2.96875 2.496094 0 4.867188-1.082031 6.515625-2.972656 2.71875-3.121094 7.457031-3.445313 10.582031-.726563 3.121094 2.722657 3.445313 7.460938.722656 10.582032-4.496093 5.160156-10.988281 8.117187-17.820312 8.117187zm0 0"/></g></svg>