<svg height="511pt" viewBox="0 -34 511.99927 511" width="511pt" xmlns="http://www.w3.org/2000/svg"><path d="m441.875 74.25c-51.328125-51.328125-134.546875-51.328125-185.875 0-51.5625-51.5625-135.3125-51.328125-186.578125.707031-50.867187 51.625-49.378906 135.089844 1.867187 186.335938l143.664063 143.667969c22.671875 22.667968 59.421875 22.667968 82.09375 0l144.832031-144.832032c51.328125-51.328125 51.328125-134.550781-.003906-185.878906zm0 0" fill="#ddaf89"/><path d="m214.953125 404.960938c22.671875 22.667968 59.421875 22.667968 82.09375 0l38.519531-38.523438c-193.851562-95.046875-195.023437-272.929688-174.269531-330.664062-33.355469.445312-66.570313 13.5-91.875 39.183593-50.867187 51.625-49.378906 135.089844 1.867187 186.335938zm0 0" fill="#c9a07d"/><path d="m316.875 105.738281c0 4.183594-3.390625 7.574219-7.574219 7.574219-4.1875 0-7.578125-3.390625-7.578125-7.574219 0-4.183593 3.390625-7.578125 7.578125-7.578125 4.183594 0 7.574219 3.394532 7.574219 7.578125zm0 0" fill="#c9a07d"/><path d="m419.890625 157.5625c0 4.183594-3.394531 7.574219-7.578125 7.574219s-7.574219-3.390625-7.574219-7.574219c0-4.1875 3.390625-7.578125 7.574219-7.578125s7.578125 3.390625 7.578125 7.578125zm0 0" fill="#c9a07d"/><path d="m318.484375 309.605469c0 4.1875-3.390625 7.578125-7.574219 7.578125s-7.578125-3.390625-7.578125-7.578125c0-4.183594 3.394531-7.574219 7.578125-7.574219s7.574219 3.390625 7.574219 7.574219zm0 0" fill="#c9a07d"/><path d="m121.007812 119.816406c0 4.183594-3.394531 7.578125-7.578124 7.578125-4.183594 0-7.574219-3.394531-7.574219-7.578125s3.390625-7.574218 7.574219-7.574218c4.183593 0 7.578124 3.390624 7.578124 7.574218zm0 0" fill="#ddaf89"/><path d="m140.367188 233.949219c0 4.183593-3.390626 7.578125-7.574219 7.578125-4.1875 0-7.578125-3.394532-7.578125-7.578125 0-4.183594 3.390625-7.574219 7.578125-7.574219 4.183593 0 7.574219 3.390625 7.574219 7.574219zm0 0" fill="#ddaf89"/><path d="m232.164062 328.097656c0 4.183594-3.390624 7.578125-7.574218 7.578125-4.1875 0-7.578125-3.394531-7.578125-7.578125s3.390625-7.574218 7.578125-7.574218c4.183594 0 7.574218 3.390624 7.574218 7.574218zm0 0" fill="#ddaf89"/><path d="m202.699219 187.824219c0-13.707031-13.953125-24.820313-31.167969-24.820313-17.210938 0-31.164062 11.113282-31.164062 24.820313s13.953124 24.816406 31.164062 24.816406c17.214844 0 31.167969-11.109375 31.167969-24.816406zm0 0" fill="#fff"/><path d="m371.632812 187.824219c0-13.707031-13.957031-24.820313-31.167968-24.820313-17.210938 0-31.164063 11.113282-31.164063 24.820313s13.953125 24.816406 31.164063 24.816406c17.210937 0 31.167968-11.109375 31.167968-24.816406zm0 0" fill="#fff"/><path d="m189.695312 170.5625c-4.140624 0-7.5-3.355469-7.5-7.5v-11.003906c0-4.144532 3.359376-7.5 7.5-7.5 4.144532 0 7.5 3.355468 7.5 7.5v11.003906c0 4.144531-3.355468 7.5-7.5 7.5zm0 0" fill="#495059"/><path d="m322.300781 170.5625c-4.140625 0-7.5-3.355469-7.5-7.5v-11.003906c0-4.144532 3.359375-7.5 7.5-7.5s7.5 3.355468 7.5 7.5v11.003906c0 4.144531-3.359375 7.5-7.5 7.5zm0 0" fill="#495059"/><path d="m256 179.015625c-8.867188 0-17.300781-3.839844-23.136719-10.535156-2.71875-3.125-2.394531-7.859375.726563-10.582031 3.125-2.722657 7.859375-2.394532 10.582031.726562 2.984375 3.425781 7.296875 5.390625 11.828125 5.390625 4.527344 0 8.839844-1.964844 11.824219-5.390625 2.722656-3.121094 7.460937-3.445312 10.582031-.726562 3.125 2.722656 3.449219 7.457031.726562 10.582031-5.835937 6.695312-14.265624 10.535156-23.132812 10.535156zm0 0" fill="#495059"/><path d="m256 443.78125c-21.332031 0-41.390625-8.308594-56.476562-23.394531l-143.664063-143.664063c-59.953125-59.957031-60.84375-157.335937-1.980469-217.078125 18.523438-18.804687 41.652344-32.558593 66.882813-39.78125 16.0625-4.597656 32.683593-6.542969 49.410156-5.765625 21.042969.972656 41.273437 6.132813 60.125 15.335938 9.085937 4.433594 17.683594 9.75 25.707031 15.878906 60.027344-45.84375 146.453125-41.339844 201.300782 13.507812 59.75 59.753907 59.75 156.980469 0 216.734376l-144.832032 144.832031c-15.085937 15.085937-35.140625 23.394531-56.472656 23.394531zm-92.972656-386.210938c-10.246094 0-20.398438 1.421876-30.257813 4.242188-18.015625 5.160156-34.546875 15-47.808593 28.457031-42.097657 42.726563-41.3125 112.527344 1.757812 155.597657l143.664062 143.664062c14.125 14.125 37.109376 14.125 51.234376 0l144.832031-144.832031c42.738281-42.738281 42.738281-112.28125 0-155.023438-42.738281-42.734375-112.28125-42.734375-155.019531 0-8.523438 8.523438-22.335938 8.523438-30.859376.003907-8.648437-8.652344-18.546874-15.726563-29.414062-21.03125-13.46875-6.578126-27.933594-10.261719-42.996094-10.957032-1.714844-.078125-3.425781-.121094-5.132812-.121094zm0 0" fill="#f8eed1"/><path d="m317.058594 354.089844-35.441406 35.441406c-14.125 14.125-37.109376 14.125-51.234376 0l-143.664062-143.664062c-43.070312-43.066407-43.855469-112.867188-1.757812-155.597657 13.261718-13.457031 29.792968-23.296875 47.808593-28.453125 7.679688-2.199218 15.542969-3.535156 23.488281-4.023437-2.328124-16.167969-3.742187-30.863281-4.433593-43.445313-10.5.765625-20.894531 2.605469-31.0625 5.515625-25.230469 7.222657-48.359375 20.980469-66.882813 39.78125-58.863281 59.742188-57.972656 157.125 1.980469 217.078125l143.667969 143.667969c15.082031 15.085937 35.140625 23.390625 56.472656 23.390625s41.390625-8.304688 56.472656-23.390625l44.929688-44.929687c-14.382813-6.046876-27.8125-13.226563-40.34375-21.371094zm0 0" fill="#f0e3c0"/><path d="m202.699219 187.824219c0-13.707031-13.953125-24.820313-31.167969-24.820313-17.210938 0-31.164062 11.113282-31.164062 24.820313s13.953124 24.816406 31.164062 24.816406c17.214844 0 31.167969-11.109375 31.167969-24.816406zm0 0" fill="#fff"/><path d="m371.632812 187.824219c0-13.707031-13.957031-24.820313-31.167968-24.820313-17.210938 0-31.164063 11.113282-31.164063 24.820313s13.953125 24.816406 31.164063 24.816406c17.210937 0 31.167968-11.109375 31.167968-24.816406zm0 0" fill="#fff"/><path d="m189.695312 170.5625c-4.140624 0-7.5-3.355469-7.5-7.5v-11.003906c0-4.144532 3.359376-7.5 7.5-7.5 4.144532 0 7.5 3.355468 7.5 7.5v11.003906c0 4.144531-3.355468 7.5-7.5 7.5zm0 0" fill="#495059"/><path d="m322.300781 170.5625c-4.140625 0-7.5-3.355469-7.5-7.5v-11.003906c0-4.144532 3.359375-7.5 7.5-7.5s7.5 3.355468 7.5 7.5v11.003906c0 4.144531-3.359375 7.5-7.5 7.5zm0 0" fill="#495059"/><path d="m256 179.015625c-8.867188 0-17.300781-3.839844-23.136719-10.535156-2.71875-3.125-2.394531-7.859375.726563-10.582031 3.125-2.722657 7.859375-2.394532 10.582031.726562 2.984375 3.425781 7.296875 5.390625 11.828125 5.390625 4.527344 0 8.839844-1.964844 11.824219-5.390625 2.722656-3.121094 7.460937-3.445312 10.582031-.726562 3.125 2.722656 3.449219 7.457031.726562 10.582031-5.835937 6.695312-14.265624 10.535156-23.132812 10.535156zm0 0" fill="#495059"/><g fill="#d97b7d"><path d="m161.304688 70.574219c-6.757813 0-13.277344-3.671875-16.609376-10.078125l-16.984374-32.660156c-4.765626-9.164063-1.199219-20.457032 7.964843-25.222657 9.164063-4.761719 20.457031-1.199219 25.21875 7.964844l16.984375 32.660156c4.765625 9.164063 1.199219 20.457031-7.960937 25.222657-2.757813 1.433593-5.707031 2.113281-8.613281 2.113281zm0 0"/><path d="m75.878906 111.464844c-3.074218 0-6.195312-.761719-9.074218-2.359375l-32.171876-17.898438c-9.023437-5.019531-12.273437-16.40625-7.25-25.433593 5.019532-9.027344 16.410157-12.269532 25.433594-7.253907l32.171875 17.898438c9.027344 5.019531 12.273438 16.40625 7.25 25.433593-3.417969 6.144532-9.789062 9.613282-16.359375 9.613282zm0 0"/><path d="m18.695312 201.433594c-10.148437 0-18.480468-8.117188-18.69140575-18.3125-.21484425-10.324219 7.98046875-18.871094 18.30859375-19.085938l36.804688-.765625c10.347656-.164062 18.871093 7.984375 19.085937 18.308594.214844 10.328125-7.980469 18.871094-18.308594 19.085937l-36.804687.765626c-.132813.003906-.265625.003906-.394532.003906zm0 0"/><path d="m62.207031 293.636719c-7.625 0-14.785156-4.699219-17.5625-12.277344-3.550781-9.699219 1.429688-20.441406 11.128907-23.992187l34.570312-12.660157c9.699219-3.550781 20.4375 1.429688 23.992188 11.132813 3.550781 9.695312-1.433594 20.4375-11.128907 23.988281l-34.570312 12.660156c-2.121094.777344-4.292969 1.148438-6.429688 1.148438zm0 0"/><path d="m129.839844 363.9375c-6.316406 0-12.480469-3.199219-16-8.992188-5.367188-8.824218-2.558594-20.328124 6.265625-25.691406l31.460937-19.121094c8.828125-5.367187 20.332032-2.558593 25.695313 6.269532 5.367187 8.824218 2.558593 20.328125-6.269531 25.691406l-31.460938 19.121094c-3.03125 1.84375-6.382812 2.722656-9.691406 2.722656zm0 0"/><path d="m194.480469 427.160156c-5.390625 0-10.738281-2.316406-14.433594-6.796875-6.578125-7.964843-5.449219-19.753906 2.515625-26.332031l28.390625-23.433594c7.96875-6.574218 19.753906-5.445312 26.328125 2.519532 6.578125 7.964843 5.449219 19.753906-2.515625 26.328124l-28.390625 23.433594c-3.484375 2.878906-7.703125 4.28125-11.894531 4.28125zm0 0"/><path d="m350.695312 70.574219c-2.90625 0-5.855468-.679688-8.613281-2.113281-9.164062-4.765626-12.730469-16.058594-7.964843-25.222657l16.984374-32.660156c4.765626-9.164063 16.054688-12.730469 25.222657-7.964844 9.160156 4.765625 12.730469 16.058594 7.964843 25.222657l-16.984374 32.660156c-3.332032 6.40625-9.855469 10.078125-16.609376 10.078125zm0 0"/><path d="m436.117188 111.464844c-6.566407 0-12.941407-3.464844-16.359376-9.613282-5.023437-9.027343-1.773437-20.414062 7.25-25.433593l32.171876-17.898438c9.03125-5.015625 20.414062-1.773437 25.433593 7.253907 5.023438 9.027343 1.777344 20.414062-7.25 25.433593l-32.171875 17.898438c-2.878906 1.597656-5.996094 2.359375-9.074218 2.359375zm0 0"/><path d="m493.304688 201.433594c-.132813 0-.261719 0-.394532-.003906l-36.804687-.765626c-10.328125-.214843-18.523438-8.757812-18.308594-19.085937.214844-10.324219 8.789063-18.472656 19.085937-18.308594l36.804688.765625c10.324219.214844 18.523438 8.757813 18.308594 19.085938-.210938 10.195312-8.542969 18.3125-18.691406 18.3125zm0 0"/><path d="m449.789062 293.636719c-2.136718 0-4.308593-.371094-6.429687-1.148438l-34.566406-12.660156c-9.699219-3.550781-14.683594-14.292969-11.128907-23.988281 3.550782-9.699219 14.292969-14.679688 23.992188-11.132813l34.566406 12.660157c9.699219 3.554687 14.683594 14.292968 11.128906 23.992187-2.773437 7.578125-9.9375 12.277344-17.5625 12.277344zm0 0"/><path d="m382.160156 363.9375c-3.308594 0-6.660156-.878906-9.695312-2.722656l-31.460938-19.121094c-8.824218-5.363281-11.632812-16.867188-6.269531-25.691406 5.363281-8.832032 16.867187-11.636719 25.695313-6.269532l31.460937 19.121094c8.828125 5.363282 11.632813 16.867188 6.269531 25.691406-3.519531 5.792969-9.683594 8.992188-16 8.992188zm0 0"/><path d="m317.519531 427.160156c-4.195312 0-8.410156-1.402344-11.894531-4.28125l-28.390625-23.433594c-7.964844-6.574218-9.09375-18.363281-2.519531-26.328124 6.578125-7.964844 18.363281-9.09375 26.328125-2.519532l28.390625 23.433594c7.964844 6.578125 9.09375 18.363281 2.519531 26.332031-3.699219 4.480469-9.046875 6.796875-14.433594 6.796875zm0 0"/><path d="m256 101.078125c-10.328125 0-18.703125-8.371094-18.703125-18.699219v-38.824218c0-10.332032 8.375-18.703126 18.703125-18.703126s18.699219 8.371094 18.699219 18.703126v38.824218c0 10.328125-8.371094 18.699219-18.699219 18.699219zm0 0"/></g><path d="m193.941406 284.6875c-6.46875 0-12.683594-3.609375-15.707031-9.816406-4.21875-8.667969-.613281-19.113282 8.054687-23.335938 29.488282-14.363281 57.894532-10.132812 82.953126-6.398437 18.75 2.792969 34.941406 5.203125 47.074218-.96875 8.59375-4.375 19.101563-.953125 23.472656 7.640625 4.375 8.589844.953126 19.101562-7.640624 23.472656-22.074219 11.234375-45.445313 7.753906-68.050782 4.386719-21.992187-3.277344-42.761718-6.371094-62.527344 3.253906-2.457031 1.199219-5.0625 1.765625-7.628906 1.765625zm0 0" fill="#f8eed1"/><path d="m264.101562 279.664062c2.855469.425782 5.726563.855469 8.605469 1.253907-37.730469-9.476563-43.351562-30.589844-36.738281-39.332031-15.90625-.441407-32.609375 1.636718-49.679688 9.949218-8.667968 4.222656-12.273437 14.667969-8.054687 23.335938 3.023437 6.207031 9.238281 9.816406 15.707031 9.816406 2.566406 0 5.167969-.566406 7.628906-1.765625 19.765626-9.625 40.539063-6.53125 62.53125-3.257813zm0 0" fill="#f0e3c0"/></svg>