<svg height="512pt" viewBox="0 -20 512 512" width="512pt" xmlns="http://www.w3.org/2000/svg"><path d="m35.925781 210.621094h440.148438v202.042968h-440.148438zm0 0" fill="#d97b7d"/><path d="m35.925781 210.621094v202.042968h217.902344c-90.726563-45.703124-88.976563-138.699218-70.710937-202.042968zm0 0" fill="#c77172"/><path d="m366.039062 391.226562c-2.339843 0-4.542968-1.089843-5.964843-2.949218l-104.074219-136.359375-104.074219 136.359375c-1.421875 1.859375-3.625 2.949218-5.964843 2.949218-2.335938 0-4.542969-1.089843-5.960938-2.949218l-110.039062-144.171875c-2.511719-3.292969-1.878907-7.996094 1.414062-10.511719 3.289062-2.511719 7.996094-1.878906 10.511719 1.414062l104.074219 136.359376 104.078124-136.359376c1.417969-1.859374 3.621094-2.953124 5.960938-2.953124s4.542969 1.09375 5.960938 2.953124l104.078124 136.359376 104.074219-136.359376c2.511719-3.292968 7.21875-3.925781 10.515625-1.414062 3.289063 2.515625 3.921875 7.222656 1.410156 10.511719l-110.039062 144.171875c-1.417969 1.859375-3.621094 2.949218-5.960938 2.949218zm0 0" fill="#dfe3e5"/><g fill="#495059"><path d="m256 247.054688c-4.140625 0-7.5-3.355469-7.5-7.5v-28.933594c0-4.140625 3.359375-7.5 7.5-7.5 4.144531 0 7.5 3.359375 7.5 7.5v28.933594c0 4.144531-3.355469 7.5-7.5 7.5zm0 0"/><path d="m35.925781 247.054688c-4.144531 0-7.5-3.355469-7.5-7.5v-28.933594c0-4.140625 3.355469-7.5 7.5-7.5 4.140625 0 7.5 3.359375 7.5 7.5v28.933594c0 4.144531-3.359375 7.5-7.5 7.5zm0 0"/><path d="m145.960938 420.164062c-4.140626 0-7.5-3.359374-7.5-7.5v-28.9375c0-4.140624 3.359374-7.5 7.5-7.5 4.144531 0 7.5 3.359376 7.5 7.5v28.9375c0 4.140626-3.355469 7.5-7.5 7.5zm0 0"/><path d="m476.074219 247.054688c-4.140625 0-7.5-3.355469-7.5-7.5v-28.933594c0-4.140625 3.359375-7.5 7.5-7.5 4.144531 0 7.5 3.359375 7.5 7.5v28.933594c0 4.144531-3.355469 7.5-7.5 7.5zm0 0"/><path d="m366.039062 420.164062c-4.144531 0-7.5-3.359374-7.5-7.5v-28.9375c0-4.140624 3.355469-7.5 7.5-7.5 4.140626 0 7.5 3.359376 7.5 7.5v28.9375c0 4.140626-3.359374 7.5-7.5 7.5zm0 0"/></g><path d="m482.40625 151.433594h-452.8125c-16.34375 0-29.59375 13.25-29.59375 29.59375s13.25 29.59375 29.59375 29.59375h452.8125c16.34375 0 29.59375-13.25 29.59375-29.59375s-13.25-29.59375-29.59375-29.59375zm0 0" fill="#f7cf66"/><path d="m29.59375 151.433594c-16.34375 0-29.59375 13.25-29.59375 29.59375s13.25 29.59375 29.59375 29.59375h273.382812c-32.480468-14.171875-34.886718-45.308594-21.078124-59.191406h-252.304688zm0 0" fill="#ebc35c"/><path d="m482.40625 412.664062h-452.8125c-16.34375 0-29.59375 13.25-29.59375 29.59375s13.25 29.59375 29.59375 29.59375h452.8125c16.34375 0 29.59375-13.25 29.59375-29.59375s-13.25-29.59375-29.59375-29.59375zm0 0" fill="#f7cf66"/><path d="m29.59375 412.664062c-16.34375 0-29.59375 13.25-29.59375 29.59375s13.25 29.59375 29.59375 29.59375h273.382812c-32.480468-14.171874-34.886718-45.308593-21.078124-59.1875zm0 0" fill="#ebc35c"/><path d="m135.328125 46.667969v43.023437l234.480469 6.527344c12.253906.34375 22.371094-9.496094 22.371094-21.753906v-12.566406c0-12.261719-10.121094-22.097657-22.371094-21.757813zm0 0" fill="#ad9386"/><path d="m117.914062 28.605469c30.714844 0 44.5625 17.71875 44.5625 39.574219 0 21.859374-13.847656 39.578124-44.5625 39.578124-30.710937 0-55.609374-13.554687-55.609374-39.578124 0-26.023438 24.898437-39.574219 55.609374-39.574219zm0 0" fill="#f8eed1"/><path d="m369.808594 40.140625-104.820313 2.917969-46.304687 48.953125 106.5625 2.96875 41.089844-38.867188c4.511718-4.265625 7.726562-9.511719 9.464843-15.285156-1.914062-.488281-3.917969-.746094-5.992187-.6875zm0 0" fill="#998377"/><path d="m156.367188 177.230469 30.421874 30.421875 170.421876-161.1875c8.902343-8.425782 9.101562-22.535156.433593-31.203125l-8.886719-8.886719c-8.667968-8.667969-22.78125-8.472656-31.203124.433594zm0 0" fill="#ad9386"/><path d="m131.28125 176.765625c21.71875-21.71875 44.042969-18.980469 59.496094-3.523437 15.457031 15.453124 18.195312 37.777343-3.523438 59.496093-21.71875 21.714844-48.910156 29.738281-67.308594 11.335938-18.402343-18.398438-10.378906-45.589844 11.335938-67.308594zm0 0" fill="#f8eed1"/><path d="m192.96875 226.296875c-51.988281 9.800781-71.582031-17.867187-67.921875-42.679687-16.84375 20.359374-21.613281 43.945312-5.101563 60.457031 18.398438 18.402343 45.589844 10.378906 67.308594-11.335938 2.140625-2.144531 4.039063-4.292969 5.714844-6.441406zm0 0" fill="#f0e3c0"/><path d="m158.253906 87.1875c-55.027344 6.75-69.304687-31.191406-55.355468-57.410156-23.414063 3.789062-40.59375 16.792968-40.59375 38.402344 0 26.023437 24.894531 39.578124 55.609374 39.578124 21.035157 0 34.15625-8.3125 40.339844-20.570312zm0 0" fill="#f0e3c0"/></svg>