<svg height="512pt" viewBox="-33 0 512 512" width="512pt" xmlns="http://www.w3.org/2000/svg"><path d="m309.367188 402.4375-21.9375-34.242188 78.933593-50.574218c35.859375-22.972656 49.191407-69.339844 31.015625-107.851563-9.144531-19.367187-29.53125-30.363281-50.734375-27.390625l-45.414062 6.390625-5.664063-40.273437 45.414063-6.386719c38.945312-5.484375 76.386719 14.734375 93.171875 50.300781 26.875 56.941406 7.164062 125.488282-45.851563 159.453125zm0 0" fill="#cacdcf"/><path d="m291.183594 102.886719h-216.28125c-11 0-20.019532 8.710937-20.40625 19.707031l-11.09375 316.019531h279.285156l-11.09375-316.019531c-.386719-10.996094-9.410156-19.707031-20.410156-19.707031zm0 0" fill="#dfe3e5"/><path d="m346.859375 512h-327.632813c-10.617187 0-19.226562-8.609375-19.226562-19.226562 0-14.761719 7.175781-28.601563 19.234375-37.113282l24.167969-17.046875h279.28125l24.167968 17.046875c12.058594 8.511719 19.234376 22.351563 19.234376 37.113282 0 10.617187-8.605469 19.226562-19.226563 19.226562zm0 0" fill="#495059"/><path d="m311.59375 122.59375c-.386719-10.996094-9.410156-19.707031-20.410156-19.707031h-216.28125c-11 0-20.019532 8.710937-20.40625 19.703125l-11.09375 316.023437h102.679687c-37.339843-69.585937-51.53125-163.003906-52.226562-276.667969-.027344-4.898437 3.222656-9.234374 7.960937-10.476562 2.925782-.765625 5.773438-1.71875 8.519532-2.84375 9.097656-3.726562 19.503906-2.457031 27.660156 3.03125 13.40625 9.019531 29.953125 14.351562 47.867187 14.351562 9.632813 0 18.867188-1.546874 27.429688-4.378906 4.4375-1.46875 9.015625 1.789063 9.015625 6.464844v26.378906c0 14.503906 11.753906 26.261719 26.257812 26.261719s26.261719-11.757813 26.261719-26.261719v-34.484375c0-3.832031 3.292969-6.785156 7.113281-6.46875 1.898438.160157 3.820313.242188 5.761719.242188 8.785156 0 17.160156-1.625 24.824219-4.550781zm0 0" fill="#cacdcf"/><path d="m46.339844 354.921875h273.40625l-4.34375-123.792969h-264.71875zm0 0" fill="#cacdcf"/><path d="m157.039062 438.613281h-113.636718l-24.164063 17.046875c-12.0625 8.511719-19.238281 22.351563-19.238281 37.113282 0 10.617187 8.609375 19.226562 19.226562 19.226562h167.589844c-47.496094-17.53125-45.566406-58.503906-29.777344-73.386719zm0 0" fill="#41464f"/><path d="m287.703125 12.246094c-8.925781 0-17.4375 1.671875-25.199219 4.691406-9.839844 3.828125-20.859375 2.574219-29.703125-3.199219-13.238281-8.648437-29.433593-13.738281-46.9375-13.738281-17.503906 0-33.699219 5.089844-46.9375 13.738281-8.84375 5.773438-19.863281 7.027344-29.703125 3.199219-7.761718-3.023438-16.273437-4.691406-25.199218-4.691406-36.433594 0-65.972657 27.722656-65.972657 61.917968 0 34.195313 29.539063 61.921876 65.972657 61.921876 9.402343 0 18.34375-1.855469 26.433593-5.1875 8.992188-3.703126 19.304688-2.492188 27.359375 2.957031 13.4375 9.09375 30.054688 14.476562 48.046875 14.476562 9.632813 0 18.867188-1.546875 27.429688-4.378906 4.4375-1.46875 9.015625 1.789063 9.015625 6.460937v26.382813c0 14.503906 11.757812 26.261719 26.257812 26.261719 14.503906 0 26.261719-11.757813 26.261719-26.261719v-34.484375c0-3.832031 3.292969-6.785156 7.113281-6.46875 1.898438.160156 3.820313.242188 5.765625.242188 36.433594 0 65.96875-27.722657 65.96875-61.921876 0-34.195312-29.535156-61.917968-65.972656-61.917968zm0 0" fill="#f8eed1"/><path d="m110.457031 130.902344c1.246094-.515625 2.523438-.925782 3.8125-1.25-31.847656-31.242188-33.671875-90.277344-15.191406-115.761719-4.835937-1.0625-9.875-1.644531-15.054687-1.644531-36.433594 0-65.972657 27.722656-65.972657 61.917968 0 34.199219 29.539063 61.921876 65.972657 61.921876 9.402343 0 18.339843-1.851563 26.433593-5.183594zm0 0" fill="#f0e3c0"/><path d="m72.519531 94.050781c0 4.128907-3.347656 7.480469-7.480469 7.480469-4.128906 0-7.480468-3.351562-7.480468-7.480469 0-4.132812 3.351562-7.480469 7.480468-7.480469 4.132813 0 7.480469 3.347657 7.480469 7.480469zm0 0" fill="#f8eed1"/><g fill="#f0e3c0"><path d="m154.644531 36.636719c0 4.132812-3.351562 7.480469-7.480469 7.480469-4.132812 0-7.480468-3.347657-7.480468-7.480469 0-4.128907 3.347656-7.480469 7.480468-7.480469 4.128907 0 7.480469 3.351562 7.480469 7.480469zm0 0"/><path d="m250.296875 136.085938c0 4.128906-3.351563 7.480468-7.480469 7.480468-4.132812 0-7.480468-3.351562-7.480468-7.480468 0-4.132813 3.347656-7.480469 7.480468-7.480469 4.128906 0 7.480469 3.347656 7.480469 7.480469zm0 0"/><path d="m212.914062 84.601562c0 4.128907-3.347656 7.476563-7.480468 7.476563-4.128906 0-7.480469-3.347656-7.480469-7.476563 0-4.132812 3.351563-7.480468 7.480469-7.480468 4.132812 0 7.480468 3.347656 7.480468 7.480468zm0 0"/><path d="m320.007812 59.3125c0 4.128906-3.351562 7.476562-7.480468 7.476562-4.132813 0-7.480469-3.347656-7.480469-7.476562 0-4.132812 3.347656-7.480469 7.480469-7.480469 4.128906 0 7.480468 3.347657 7.480468 7.480469zm0 0"/></g><path d="m135.546875 311.472656c0-12.214844-12.433594-22.117187-27.773437-22.117187-15.339844 0-27.773438 9.902343-27.773438 22.117187s12.433594 22.117188 27.773438 22.117188c15.339843 0 27.773437-9.902344 27.773437-22.117188zm0 0" fill="#f1a18f"/><path d="m286.085938 311.472656c0-12.214844-12.433594-22.117187-27.773438-22.117187-15.335938 0-27.773438 9.902343-27.773438 22.117187s12.4375 22.117188 27.773438 22.117188c15.339844 0 27.773438-9.902344 27.773438-22.117188zm0 0" fill="#f1a18f"/><path d="m112.414062 292.855469c-4.140624 0-7.5-3.355469-7.5-7.5v-11.917969c0-4.144531 3.359376-7.5 7.5-7.5 4.144532 0 7.5 3.355469 7.5 7.5v11.917969c0 4.144531-3.355468 7.5-7.5 7.5zm0 0" fill="#495059"/><path d="m205.433594 294.480469c0-13.839844-10.023438-25.058594-22.390625-25.058594-12.367188 0-22.390625 11.21875-22.390625 25.058594 0 13.835937 10.023437 25.054687 22.390625 25.054687 12.367187 0 22.390625-11.21875 22.390625-25.054687zm0 0" fill="#495059"/><path d="m253.671875 292.855469c-4.144531 0-7.5-3.355469-7.5-7.5v-11.917969c0-4.144531 3.355469-7.5 7.5-7.5 4.140625 0 7.5 3.355469 7.5 7.5v11.917969c0 4.144531-3.359375 7.5-7.5 7.5zm0 0" fill="#495059"/><path d="m277.308594 424.125c-1.921875 0-3.839844-.730469-5.304688-2.195312-2.929687-2.929688-2.929687-7.679688 0-10.605469l13.183594-13.1875c2.929688-2.929688 7.675781-2.925781 10.609375 0 2.925781 2.929687 2.925781 7.679687 0 10.605469l-13.1875 13.1875c-1.464844 1.464843-3.382813 2.195312-5.300781 2.195312zm0 0" fill="#cacdcf"/><path d="m128.953125 207.070312c-1.917969 0-3.835937-.730468-5.300781-2.195312-2.929688-2.929688-2.929688-7.675781-.003906-10.605469l13.1875-13.183593c2.929687-2.929688 7.675781-2.929688 10.605468 0 2.929688 2.925781 2.929688 7.675781 0 10.605468l-13.183594 13.183594c-1.464843 1.464844-3.382812 2.195312-5.304687 2.195312zm0 0" fill="#cacdcf"/><path d="m90.222656 407.546875c-1.917968 0-3.839844-.730469-5.304687-2.195313l-6.558594-6.558593c-2.925781-2.929688-2.925781-7.679688.003906-10.609375 2.925781-2.925782 7.675781-2.925782 10.605469.003906l6.558594 6.554688c2.925781 2.929687 2.925781 7.679687-.003906 10.609374-1.460938 1.464844-3.382813 2.195313-5.300782 2.195313zm0 0" fill="#dfe3e5"/></svg>