<svg height="512pt" viewBox="-71 0 512 512.00001" width="512pt" xmlns="http://www.w3.org/2000/svg"><path d="m129.671875 439.90625c-4.144531 0-7.5-3.355469-7.5-7.5v-86.523438c0-4.144531 3.355469-7.5 7.5-7.5 4.140625 0 7.5 3.355469 7.5 7.5v86.523438c0 4.144531-3.359375 7.5-7.5 7.5zm0 0" fill="#f7cf66"/><path d="m157.460938 472.203125c0-21.976563-12.445313-39.796875-27.789063-39.796875-15.347656 0-27.789063 17.820312-27.789063 39.796875 0 21.980469 12.441407 39.796875 27.789063 39.796875 15.34375 0 27.789063-17.816406 27.789063-39.796875zm0 0" fill="#f7cf66"/><path d="m129.671875 512c6.964844 0 13.324219-3.679688 18.203125-9.742188-26.226562-1.140624-32.199219-44.929687-26.1875-68.171874-11.457031 4.910156-19.804688 20.113281-19.804688 38.117187 0 21.980469 12.441407 39.796875 27.789063 39.796875zm0 0" fill="#ebc35c"/><path d="m153.695312 432.40625c0-8.289062-3.875-15.007812-24.023437-15.007812-20.152344 0-24.027344 6.71875-24.027344 15.007812s3.875 15.011719 24.027344 15.011719c20.148437 0 24.023437-6.722657 24.023437-15.011719zm0 0" fill="#ad9386"/><path d="m241.035156 411.109375c-4.140625 0-7.5-3.359375-7.5-7.5v-57.726563c0-4.144531 3.359375-7.5 7.5-7.5 4.144532 0 7.5 3.355469 7.5 7.5v57.726563c0 4.140625-3.355468 7.5-7.5 7.5zm0 0" fill="#f7cf66"/><path d="m268.824219 443.40625c0-21.980469-12.441407-39.796875-27.789063-39.796875s-27.789062 17.816406-27.789062 39.796875c0 21.976562 12.441406 39.792969 27.789062 39.792969s27.789063-17.816407 27.789063-39.792969zm0 0" fill="#f7cf66"/><path d="m241.035156 483.199219c6.964844 0 13.328125-3.675781 18.203125-9.738281-26.222656-1.140626-32.199219-44.933594-26.1875-68.175782-11.453125 4.914063-19.804687 20.117188-19.804687 38.121094 0 21.976562 12.441406 39.792969 27.789062 39.792969zm0 0" fill="#ebc35c"/><path d="m217.011719 403.609375c0-8.289063 3.875-15.011719 24.023437-15.011719 20.148438 0 24.023438 6.722656 24.023438 15.011719s-3.875 15.007813-24.023438 15.007813c-20.148437 0-24.023437-6.71875-24.023437-15.007813zm0 0" fill="#ad9386"/><path d="m314.492188 345.882812h-258.277344c-14.515625 0-26.28125-11.769531-26.28125-26.28125v-218.140624l155.417968-59.089844 155.421876 59.089844v218.140624c0 14.511719-11.765626 26.28125-26.28125 26.28125zm0 0" fill="#f8eed1"/><g fill="#f0e3c0"><path d="m29.933594 101.460938v218.140624c0 14.511719 11.765625 26.28125 26.28125 26.28125h130.1875c-91.90625-45.164062-110.34375-142.316406-113.996094-221.605468-.339844-7.378906 4.097656-14.132813 11-16.757813l82.800781-31.480469c12.332031-4.691406 25.957031-4.691406 38.292969 0l136.273438 51.808594v-26.386718l-155.421876-59.089844zm0 0"/><path d="m243.417969 335.304688c-16.484375-11.386719-22.148438-25.382813-23.113281-28.070313-6.46875-17.992187-27.132813-60.066406-79.128907-62.195313-50.765625-2.074218-78.988281 42.539063-97.667969 72.066407-3.128906 4.941406-6.917968 10.925781-10.195312 15.386719 2.523438 4.472656 6.316406 8.125 10.890625 10.484374 3.613281-4.640624 7.421875-10.652343 11.980469-17.855468 17.839844-28.195313 42.261718-66.851563 84.378906-65.09375 42.894531 1.753906 60.183594 37.148437 65.625 52.28125 1.667969 4.632812 8.363281 20.28125 26.253906 33.574218h32.722656c-8.03125-2.609374-15.296874-6.125-21.746093-10.578124zm0 0"/><path d="m340.773438 220.679688c-22.4375-13.113282-36.648438-30.140626-41.296876-43.082032-3.617187-10.066406-2.949218-19.570312 2.039063-29.058594 8.527344-16.226562 21.503906-20.59375 39.257813-25.574218v-15.574219c-.292969.082031-.589844.164063-.882813.246094-20.371094 5.667969-39.613281 11.019531-51.652344 33.921875-6.957031 13.234375-7.925781 27.066406-2.878906 41.113281 4.554687 12.675781 14.242187 25.4375 28.023437 36.914063 8.207032 6.835937 17.667969 13.074218 27.390626 18.121093zm0 0"/><path d="m29.933594 175.371094c14.863281 3.136718 32.5 5.496094 50.175781 5.496094 1.160156 0 2.324219-.011719 3.484375-.03125 35.074219-.628907 57.9375-10.945313 66.113281-29.828126 7.914063-18.28125 2.449219-41.910156-2.839843-64.765624-2.441407-10.566407-4.332032-19.578126-5.328126-27.214844l-14.445312 5.492187c1.257812 8.207031 3.222656 16.730469 5.160156 25.101563 4.738282 20.488281 9.640625 41.675781 3.6875 55.425781-7.535156 17.402344-36.199218 20.496094-52.617187 20.792969-18.921875.332031-37.996094-2.339844-53.390625-5.804688zm0 0"/></g><path d="m340.773438 279.746094h-310.839844v39.855468c0 14.515626 11.765625 26.28125 26.28125 26.28125h258.277344c14.515624 0 26.28125-11.765624 26.28125-26.28125zm0 0" fill="#ddaf89"/><path d="m29.933594 319.601562c0 14.515626 11.765625 26.28125 26.28125 26.28125h130.15625c-33.246094-16.34375-56.867188-39.492187-73.65625-66.136718h-82.78125zm0 0" fill="#c9a07d"/><path d="m206.1875 312.308594c1.667969 4.636718 8.363281 20.28125 26.257812 33.574218h32.71875c-8.03125-2.609374-15.296874-6.125-21.746093-10.578124-16.484375-11.386719-22.144531-25.382813-23.113281-28.070313-2.460938-6.851563-6.984376-17.1875-14.507813-27.488281h-19.753906c11.234375 11.269531 17.308593 24.667968 20.144531 32.5625zm0 0" fill="#c9a07d"/><path d="m90.980469 279.746094h-20.847657c-10.792968 12.335937-19.421874 25.96875-26.628906 37.359375-3.125 4.941406-6.914062 10.925781-10.191406 15.386719 2.523438 4.472656 6.316406 8.125 10.890625 10.484374 3.613281-4.640624 7.421875-10.652343 11.976563-17.855468 9.292968-14.683594 20.371093-32.199219 34.800781-45.375zm0 0" fill="#c9a07d"/><path d="m98.816406 236.84375c-17.039062 0-30.851562 13.8125-30.851562 30.851562v34.601563c0 5.148437 4.171875 9.320313 9.320312 9.320313h43.066406c5.144532 0 9.320313-4.171876 9.320313-9.320313v-34.601563c0-17.039062-13.816406-30.851562-30.855469-30.851562zm0 0" fill="#ad9386"/><path d="m77.285156 311.617188h43.066406c5.054688 0 9.160157-4.027344 9.304688-9.046876-16.871094-19.378906-28.855469-41.617187-37.359375-65.03125-13.90625 2.996094-24.332031 15.355469-24.332031 30.15625v34.601563c0 5.148437 4.171875 9.320313 9.320312 9.320313zm0 0" fill="#998377"/><path d="m271.890625 236.84375c17.039063 0 30.851563 13.8125 30.851563 30.851562v34.601563c0 5.148437-4.171876 9.320313-9.320313 9.320313h-43.066406c-5.148438 0-9.320313-4.171876-9.320313-9.320313v-34.601563c0-17.039062 13.8125-30.851562 30.855469-30.851562zm0 0" fill="#ad9386"/><path d="m252.171875 161.496094c0 36.902344-29.917969 66.816406-66.820313 66.816406-36.902343 0-66.816406-29.914062-66.816406-66.816406s29.914063-66.820313 66.816406-66.820313c36.902344 0 66.820313 29.917969 66.820313 66.820313zm0 0" fill="#fff"/><path d="m185.351562 235.8125c-40.980468 0-74.316406-33.335938-74.316406-74.316406 0-40.980469 33.335938-74.320313 74.316406-74.320313 40.980469 0 74.320313 33.339844 74.320313 74.320313 0 40.976562-33.339844 74.316406-74.320313 74.316406zm0-133.636719c-32.707031 0-59.316406 26.609375-59.316406 59.320313 0 32.707031 26.609375 59.316406 59.316406 59.316406 32.710938 0 59.320313-26.609375 59.320313-59.316406 0-32.710938-26.609375-59.320313-59.320313-59.320313zm0 0" fill="#495059"/><path d="m201.8125 185.453125c-1.921875 0-3.839844-.730469-5.304688-2.195313l-16.457031-16.457031c-2.929687-2.933593-2.929687-7.679687 0-10.609375 2.925781-2.925781 7.675781-2.925781 10.605469 0l16.457031 16.457032c2.929688 2.929687 2.929688 7.679687 0 10.609374-1.464843 1.464844-3.382812 2.195313-5.300781 2.195313zm0 0" fill="#495059"/><path d="m185.351562 168.996094c-1.917968 0-3.835937-.734375-5.300781-2.195313-2.929687-2.933593-2.929687-7.679687 0-10.609375l26.933594-26.933594c2.929687-2.929687 7.679687-2.929687 10.609375 0 2.929688 2.929688 2.929688 7.675782 0 10.605469l-26.9375 26.9375c-1.464844 1.460938-3.382812 2.195313-5.304688 2.195313zm0 0" fill="#495059"/><path d="m356.335938 60.550781-148.3125-56.386719c-14.601563-5.550781-30.738282-5.550781-45.339844 0l-148.3125 56.386719c-8.652344 3.289063-14.371094 11.582031-14.371094 20.839844v18.449219c0 7.644531 7.652344 12.921875 14.796875 10.203125l150.40625-57.183594c12.980469-4.933594 27.320313-4.933594 40.300781 0l150.40625 57.183594c7.144532 2.71875 14.796875-2.558594 14.796875-10.203125v-18.449219c0-9.257813-5.71875-17.550781-14.371093-20.839844zm0 0" fill="#7dad91"/><path d="m134.523438 14.871094-120.152344 45.679687c-8.652344 3.289063-14.371094 11.582031-14.371094 20.839844v18.449219c0 7.644531 7.652344 12.921875 14.796875 10.203125l146.292969-55.617188c-19.144532-4.574219-32.207032-22.890625-26.566406-39.554687zm0 0" fill="#6e9981"/></svg>