<svg height="512pt" viewBox="-116 0 512 512" width="512pt" xmlns="http://www.w3.org/2000/svg"><path d="m156.816406 85.480469h-33.136718c-7.074219 0-13.246094-4.792969-15-11.644531l-5.917969-23.144532h74.976562l-5.917969 23.144532c-1.757812 6.851562-7.929687 11.644531-15.003906 11.644531zm0 0" fill="#cacdcf"/><path d="m266.992188 24.921875c-12.269532-15.839844-30.796876-24.921875-50.832032-24.921875h-151.824218c-20.035157 0-38.5625 9.082031-50.832032 24.921875-12.269531 15.835937-16.4375 36.042969-11.433594 55.445313l19.089844 74.011718c6.476563 25.109375 29.109375 42.644532 55.039063 42.644532h25.394531v59.667968h77.308594v-59.667968h25.390625c25.933593 0 48.566406-17.535157 55.042969-42.644532l19.089843-74.011718c5.003907-19.402344.835938-39.609376-11.433593-55.445313zm-37.652344 42.78125-19.089844 74.011719c-.699219 2.71875-3.148438 4.613281-5.957031 4.613281h-128.09375c-2.804688 0-5.253907-1.894531-5.953125-4.613281l-19.089844-74.011719c-1.449219-5.621094.894531-9.765625 2.421875-11.734375 1.523437-1.972656 4.953125-5.277344 10.757813-5.277344h151.824218c5.804688 0 9.230469 3.304688 10.757813 5.277344 1.527343 1.96875 3.871093 6.113281 2.421875 11.734375zm0 0" fill="#dfe3e5"/><path d="m178.902344 256.691406v-28.746094c-32.4375-14.28125-59.765625-45.554687-80.136719-81.617187h-22.566406c-2.804688 0-5.253907-1.894531-5.953125-4.613281l-19.089844-74.011719c-1.449219-5.621094.894531-9.765625 2.421875-11.734375 1.390625-1.796875 4.375-4.699219 9.296875-5.195312-3.859375-19.203126-5.1875-36.707032-3.6875-50.546876-18.03125 1.417969-34.472656 10.222657-45.683594 24.691407-12.269531 15.839843-16.4375 36.046875-11.433594 55.445312l19.089844 74.011719c6.476563 25.109375 29.109375 42.648438 55.039063 42.648438h25.394531v59.667968zm0 0" fill="#cacdcf"/><path d="m165.523438 512h-50.550782c-25.855468 0-47.71875-19.132812-51.152344-44.757812l-2.324218-17.355469c-5.828125-43.5-5.828125-87.582031 0-131.078125l4.917968-36.710938c1.949219-14.546875 14.359376-25.40625 29.035157-25.40625h89.59375c14.679687 0 27.089843 10.859375 29.039062 25.40625l4.917969 36.710938c5.824219 43.496094 5.824219 87.578125 0 131.078125l-2.328125 17.355469c-3.429687 25.625-25.296875 44.757812-51.148437 44.757812zm0 0" fill="#d97b7d"/><path d="m109.191406 256.691406h-13.742187c-14.675781 0-27.085938 10.859375-29.035157 25.40625l-4.917968 36.707032c-5.824219 43.5-5.824219 87.582031 0 131.078124l2.328125 17.359376c3.429687 25.625 25.292969 44.757812 51.148437 44.757812h50.550782c9.738281 0 18.914062-2.71875 26.75-7.472656-90.191407-51.582032-84-190.738282-83.082032-247.835938zm0 0" fill="#c77172"/><path d="m104.34375 383.082031c0-9.234375-9.402344-16.722656-20.996094-16.722656-11.597656 0-20.996094 7.488281-20.996094 16.722656s9.398438 16.71875 20.996094 16.71875c11.59375 0 20.996094-7.484375 20.996094-16.71875zm0 0" fill="#f1a18f"/><path d="m218.144531 383.082031c0-9.234375-9.398437-16.722656-20.996093-16.722656-11.59375 0-20.996094 7.488281-20.996094 16.722656s9.402344 16.71875 20.996094 16.71875c11.597656 0 20.996093-7.484375 20.996093-16.71875zm0 0" fill="#f1a18f"/><g fill="#495059"><path d="m95.582031 373.902344c-4.140625 0-7.5-3.359375-7.5-7.5v-7.414063c0-4.140625 3.359375-7.5 7.5-7.5 4.144531 0 7.5 3.359375 7.5 7.5v7.414063c0 4.140625-3.355469 7.5-7.5 7.5zm0 0"/><path d="m184.914062 373.902344c-4.144531 0-7.5-3.359375-7.5-7.5v-7.414063c0-4.140625 3.355469-7.5 7.5-7.5 4.140626 0 7.5 3.359375 7.5 7.5v7.414063c0 4.140625-3.359374 7.5-7.5 7.5zm0 0"/><path d="m140.246094 379.59375c-6.679688 0-13.03125-2.890625-17.429688-7.9375-2.71875-3.121094-2.394531-7.859375.726563-10.582031 3.125-2.71875 7.863281-2.394531 10.582031.726562 1.546875 1.773438 3.777344 2.792969 6.121094 2.792969s4.578125-1.019531 6.125-2.792969c2.71875-3.121093 7.457031-3.445312 10.578125-.726562 3.125 2.722656 3.449219 7.460937.730469 10.582031-4.398438 5.046875-10.75 7.9375-17.433594 7.9375zm0 0"/></g><path d="m216.671875 467.242188 1.964844-14.65625c-42.210938-2.179688-55.878907-18.039063-78.390625-18.039063-22.507813 0-36.175782 15.859375-78.386719 18.039063l1.960937 14.65625c3.433594 25.625 25.296876 44.757812 51.152344 44.757812h50.550782c25.851562 0 47.71875-19.132812 51.148437-44.757812zm0 0" fill="#f7cf66"/><path d="m132.628906 435.164062c-18.492187 2.925782-33.515625 15.5-70.769531 17.421876l1.960937 14.65625c3.433594 25.625 25.296876 44.757812 51.152344 44.757812h50.550782c9.738281 0 18.914062-2.71875 26.75-7.472656-28.359376-16.21875-47.1875-41.097656-59.644532-69.363282zm0 0" fill="#ebc35c"/><path d="m61.496094 318.808594c-.054688.398437-.097656.800781-.148438 1.203125h157.800782c-.050782-.402344-.09375-.804688-.148438-1.203125l-1.847656-13.796875h-153.808594zm0 0" fill="#f1a18f"/></svg>