<svg height="512pt" viewBox="-85 0 512 512" width="512pt" xmlns="http://www.w3.org/2000/svg"><path d="m151.167969 385.816406c-1.917969 0-3.863281-.296875-5.785157-.914062l-107.765624-34.695313c-19.085938-6.144531-32.222657-23.046875-33.460938-43.058593l-4.0625-65.4375c-.855469-13.824219 4.09375-27.542969 13.578125-37.636719 9.488281-10.09375 22.875-15.882813 36.726563-15.882813h100.765624c10.414063 0 18.859376 8.445313 18.859376 18.863282 0 10.414062-8.445313 18.859374-18.859376 18.859374h-100.765624c-3.535157 0-6.8125 1.417969-9.234376 3.996094-2.421874 2.574219-3.632812 5.9375-3.414062 9.464844l4.058594 65.4375c.273437 4.40625 3.164062 8.128906 7.371094 9.484375l107.765624 34.695313c9.914063 3.191406 15.367188 13.820312 12.171876 23.734374-2.574219 7.996094-9.980469 13.089844-17.949219 13.089844zm0 0" fill="#9cd6e3"/><path d="m269.746094 512h-156.5625c-18.980469 0-35.953125-11.835938-42.511719-29.652344-3.324219-9.03125-3.980469-18.832031-1.890625-28.226562l4.929688-22.152344c22.648437-101.757812 24.917968-206.996094 6.683593-309.632812l-8.839843-49.746094c-2.679688-15.097656 8.929687-28.949219 24.261718-28.949219h191.296875c15.332031 0 26.941407 13.851563 24.257813 28.949219l-8.835938 49.746094c-18.238281 102.636718-15.964844 207.875 6.683594 309.632812l4.929688 22.152344c2.089843 9.394531 1.433593 19.195312-1.890626 28.226562-6.558593 17.816406-23.53125 29.652344-42.511718 29.652344zm0 0" fill="#9cd6e3"/><path d="m311.371094 72.589844c2.683594-15.097656-8.925782-28.949219-24.257813-28.949219h-191.296875c-15.332031 0-26.941406 13.851563-24.261718 28.949219l8.839843 49.746094c18.234375 102.640624 15.964844 207.875-6.683593 309.632812l-4.929688 22.152344c-2.089844 9.394531-1.433594 19.195312 1.890625 28.226562 6.558594 17.816406 23.527344 29.652344 42.511719 29.652344h156.5625c3.871094 0 7.648437-.515625 11.28125-1.449219-71.90625-46.082031-124.046875-267.804687-139.035156-382.003906 5.507812-.859375 11.296874.285156 16.183593 3.40625 9.613281 6.144531 21.03125 9.707031 33.289063 9.707031 3.828125 0 7.574218-.351562 11.210937-1.019531 7.503907-1.378906 14.46875 4.210937 14.46875 11.839844v44.304687c0 15.46875 12.535157 28.003906 28.003907 28.003906 15.464843 0 28.003906-12.535156 28.003906-28.003906v-41.492187c0-6.386719 5.234375-11.4375 11.625-11.425781h.121094c4.972656 0 9.792968-.636719 14.390624-1.824219 1-6.578125 2.078126-13.148438 3.242188-19.707031zm0 0" fill="#8bc7d6"/><path d="m106.074219 469.316406c-.824219-2.242187-.988281-4.671875-.46875-7l4.929687-22.152344c23.851563-107.171874 26.207032-216.328124 7.003906-324.429687l-6.109374-34.371094h160.066406l-6.105469 34.371094c-19.207031 108.105469-16.851563 217.257813 7.003906 324.429687l4.929688 22.15625c.515625 2.328126.355469 4.753907-.46875 6.992188v.003906c-1.097657 2.980469-3.9375 4.957032-7.113281 4.957032h-156.558594c-3.175782 0-6.011719-1.976563-7.109375-4.957032zm0 0" fill="#fae37b"/><path d="m246.882812 474.273438c-54.070312-80.585938-92.394531-250.515626-104.890624-345.726563 5.507812-.859375 11.296874.285156 16.183593 3.40625 9.613281 6.144531 21.03125 9.707031 33.289063 9.707031 3.828125 0 7.574218-.351562 11.210937-1.019531 7.503907-1.378906 14.46875 4.210937 14.46875 11.839844v44.304687c0 15.46875 12.535157 28.003906 28.003907 28.003906 2.875 0 5.648437-.433593 8.257812-1.238281 1.628906-35.980469 5.613281-71.953125 11.984375-107.816406l6.105469-34.371094h-160.066406l6.109374 34.371094c19.203126 108.105469 16.847657 217.257813-7.003906 324.429687l-4.929687 22.152344c-.519531 2.332032-.355469 4.761719.46875 7 1.097656 2.980469 3.933593 4.960938 7.109375 4.960938h133.699218zm0 0" fill="#f0d66a"/><path d="m287.546875 11.488281c-9.789063-.441406-19.0625 1.574219-27.261719 5.484375-9.804687 4.671875-21.433594 3.652344-29.871094-3.183594-10.636718-8.621093-24.1875-13.789062-38.949218-13.789062-14.761719 0-28.3125 5.167969-38.953125 13.785156-8.4375 6.835938-20.0625 7.859375-29.867188 3.1875-8.199219-3.910156-17.476562-5.925781-27.261719-5.484375-29.5625 1.328125-53.546874 25.496094-54.664062 55.066407-1.234375 32.6875 24.898438 59.578124 57.3125 59.578124 12.75 0 24.527344-4.167968 34.046875-11.210937 7.644531-5.652344 18.085937-5.824219 26.097656-.707031 9.613281 6.144531 21.03125 9.707031 33.289063 9.707031 3.828125 0 7.574218-.347656 11.210937-1.015625 7.503907-1.378906 14.46875 4.207031 14.46875 11.835938v44.308593c0 15.464844 12.535157 28.003907 28.003907 28.003907 15.464843 0 28.003906-12.539063 28.003906-28.003907v-41.492187c0-6.390625 5.234375-11.441406 11.625-11.425782h.121094c32.414062 0 58.542968-26.890624 57.308593-59.578124-1.117187-29.570313-25.097656-53.734376-54.660156-55.066407zm0 0" fill="#f8eed1"/><path d="m138.261719 111.703125c-27.171875-21.632813-39.964844-58.628906-19.113281-96.253906-7.304688-2.894531-15.34375-4.339844-23.765626-3.960938-29.5625 1.328125-53.546874 25.496094-54.664062 55.066407-1.234375 32.6875 24.898438 59.578124 57.3125 59.578124 12.75 0 24.527344-4.167968 34.046875-11.210937 1.914063-1.414063 4.003906-2.484375 6.183594-3.21875zm0 0" fill="#f0e3c0"/><path d="m110.535156 440.164062-4.929687 22.152344c-.519531 2.328125-.355469 4.757813.46875 7 1.097656 2.980469 3.933593 4.957032 7.109375 4.957032h156.558594c3.175781 0 6.015624-1.976563 7.113281-4.957032v-.003906c.824219-2.238281.988281-4.667969.46875-6.992188l-4.929688-22.15625c-.679687-3.050781-1.335937-6.101562-1.980469-9.15625h-157.898437c-.644531 3.054688-1.300781 6.105469-1.980469 9.15625zm0 0" fill="#f7cf66"/><path d="m246.882812 474.273438c-8.378906-12.484376-16.378906-27.097657-23.964843-43.265626h-110.402344c-.644531 3.054688-1.300781 6.105469-1.980469 9.15625l-4.929687 22.152344c-.519531 2.328125-.355469 4.757813.46875 7 1.097656 2.980469 3.933593 4.957032 7.109375 4.957032zm0 0" fill="#ebc35c"/><path d="m162.4375 383.691406c0-7.464844-7.601562-13.515625-16.976562-13.515625-9.371094 0-16.972657 6.050781-16.972657 13.515625s7.601563 13.515625 16.972657 13.515625c9.375 0 16.976562-6.050781 16.976562-13.515625zm0 0" fill="#f1a18f"/><path d="m254.441406 383.691406c0-7.464844-7.601562-13.515625-16.976562-13.515625s-16.972656 6.050781-16.972656 13.515625 7.597656 13.515625 16.972656 13.515625 16.976562-6.050781 16.976562-13.515625zm0 0" fill="#f1a18f"/><g fill="#495059"><path d="m155.355469 377.707031c-4.144531 0-7.5-3.359375-7.5-7.5v-5.992187c0-4.144532 3.355469-7.5 7.5-7.5 4.140625 0 7.5 3.355468 7.5 7.5v5.992187c0 4.140625-3.359375 7.5-7.5 7.5zm0 0"/><path d="m227.574219 377.707031c-4.144531 0-7.5-3.359375-7.5-7.5v-5.992187c0-4.144532 3.355469-7.5 7.5-7.5 4.140625 0 7.5 3.355468 7.5 7.5v5.992187c0 4.140625-3.359375 7.5-7.5 7.5zm0 0"/><path d="m191.464844 382.308594c-5.816406 0-11.347656-2.515625-15.175782-6.90625-2.71875-3.121094-2.394531-7.859375.726563-10.582032 3.121094-2.722656 7.859375-2.398437 10.582031.726563.574219.65625 1.84375 1.765625 3.867188 1.765625 2.023437 0 3.289062-1.105469 3.863281-1.765625 2.722656-3.121094 7.460937-3.449219 10.582031-.726563 3.125 2.71875 3.449219 7.457032.726563 10.582032-3.824219 4.386718-9.355469 6.90625-15.171875 6.90625zm0 0"/></g><path d="m240.59375 279.628906c0 4.308594-3.492188 7.800782-7.800781 7.800782-4.308594 0-7.800781-3.492188-7.800781-7.800782s3.492187-7.800781 7.800781-7.800781c4.308593 0 7.800781 3.492187 7.800781 7.800781zm0 0" fill="#f0d66a"/><path d="m191.695312 188.191406c0 4.308594-3.492187 7.800782-7.800781 7.800782-4.308593 0-7.800781-3.492188-7.800781-7.800782s3.492188-7.800781 7.800781-7.800781c4.308594 0 7.800781 3.492187 7.800781 7.800781zm0 0" fill="#f0d66a"/><path d="m166.613281 306.96875c0 4.308594-3.492187 7.800781-7.800781 7.800781s-7.800781-3.492187-7.800781-7.800781 3.492187-7.800781 7.800781-7.800781 7.800781 3.492187 7.800781 7.800781zm0 0" fill="#fae37b"/><path d="m177.828125 414.332031c0 4.308594-3.492187 7.800781-7.796875 7.800781-4.308594 0-7.800781-3.492187-7.800781-7.800781 0-4.308593 3.492187-7.800781 7.800781-7.800781 4.304688 0 7.796875 3.492188 7.796875 7.800781zm0 0" fill="#fae37b"/><path d="m313.082031 57.644531c0 4.308594-3.492187 7.800781-7.800781 7.800781-4.304688 0-7.796875-3.492187-7.796875-7.800781 0-4.308593 3.492187-7.800781 7.796875-7.800781 4.308594 0 7.800781 3.492188 7.800781 7.800781zm0 0" fill="#f0e3c0"/><path d="m88.445312 91.703125c0 4.308594-3.492187 7.800781-7.800781 7.800781-4.308593 0-7.800781-3.492187-7.800781-7.800781s3.492188-7.800781 7.800781-7.800781c4.308594 0 7.800781 3.492187 7.800781 7.800781zm0 0" fill="#f8eed1"/><path d="m177.828125 38.753906c0 4.308594-3.492187 7.800782-7.796875 7.800782-4.308594 0-7.800781-3.492188-7.800781-7.800782s3.492187-7.800781 7.800781-7.800781c4.304688 0 7.796875 3.492187 7.796875 7.800781zm0 0" fill="#f0e3c0"/><path d="m250.878906 86.511719c0 4.308593-3.492187 7.800781-7.796875 7.800781-4.308593 0-7.800781-3.492188-7.800781-7.800781 0-4.308594 3.492188-7.800781 7.800781-7.800781 4.304688 0 7.796875 3.492187 7.796875 7.800781zm0 0" fill="#f0e3c0"/></svg>