<svg height="512pt" viewBox="0 -15 512.00099 512" width="512pt" xmlns="http://www.w3.org/2000/svg"><path d="m118.019531 247.90625-34.910156 3.953125-2.121094 33.058594c-1.257812 19.640625.976563 39.355469 6.597657 58.21875l4.585937 15.378906c2.824219 9.46875 12.027344 15.554687 21.847656 14.441406 9.351563-1.0625 15.46875-10.316406 12.78125-19.335937l-4.304687-14.441406c-5.625-18.863282-7.859375-38.578126-6.597656-58.21875zm0 0" fill="#f7cf66"/><path d="m159.644531 49.46875c-4.003906-10.242188-14.75-16.125-25.535156-13.964844-6.832031 1.371094-12.382813.539063-19.765625-3.761718-12.363281-7.191407-20.53125-16.027344-26.230469-25.644532-5-8.4375-17.367187-8.0625-21.605469.78125-9.199218 19.1875-15.972656 39.992188-30.894531 54.976563-29.664062 29.785156-38.15625 73.613281-34.992187 117.324219 2.046875 28.226562 15.691406 44.796874 19.871094 66.605468 6.957031 36.292969 32.1875 43.160156 72.75 43.261719 42.429687.101563 80.023437-13.226563 83.078124-52.683594 1.730469-22.332031 19.015626-39.816406 19.078126-65.613281.113281-45.378906-22.46875-58.113281-28.703126-95.722656-1.480468-8.9375-3.882812-17.453125-7.050781-25.558594zm0 0" fill="#f7cf66"/><path d="m16.128906 88.613281c-13.886718 26.558594-17.820312 58.589844-15.507812 90.566407 2.046875 28.226562 15.691406 44.796874 19.871094 66.605468 6.957031 36.292969 32.1875 43.160156 72.75 43.261719 42.410156.101563 79.984374-13.214844 83.070312-52.628906-54.679688 28.027343-93.0625 18.214843-104.320312-20.652344-11.667969-40.300781-33.230469-41.765625-44.652344-63.347656-11.34375-21.433594-8.523438-43.070313-11.210938-63.804688zm0 0" fill="#ebc35c"/><path d="m93.636719 248.882812c-.257813 0-.519531-.015624-.78125-.039062-4.117188-.425781-7.113281-4.113281-6.6875-8.234375 4.160156-40.234375 2.398437-73.101563.691406-104.886719-1.441406-26.820312-2.929687-54.554687-.710937-85.84375.292968-4.132812 3.871093-7.246094 8.011718-6.953125 4.128906.292969 7.242188 3.878907 6.949219 8.011719-2.148437 30.359375-.75 56.40625.726563 83.980469 1.738281 32.363281 3.535156 65.828125-.746094 107.234375-.398438 3.859375-3.65625 6.730468-7.453125 6.730468zm0 0" fill="#ebc35c"/><path d="m133.511719 193.625c-1.949219 0-3.894531-.753906-5.363281-2.257812-2.898438-2.964844-2.839844-7.714844.125-10.605469 4.671874-4.566407 8.296874-6.511719 11.210937-8.074219 3.667969-1.964844 5.882813-3.152344 10.484375-11.5 1.996094-3.628906 6.558594-4.949219 10.1875-2.949219 3.625 1.996094 4.945312 6.558594 2.949219 10.1875-6.257813 11.355469-10.800781 14.410157-16.53125 17.484375-2.503907 1.34375-4.667969 2.5-7.820313 5.582032-1.460937 1.425781-3.351562 2.132812-5.242187 2.132812zm0 0" fill="#ebc35c"/><path d="m126.148438 123.402344c-2.28125 0-4.53125-1.035156-6.007813-3.003906-2.480469-3.3125-1.808594-8.011719 1.507813-10.496094 2.636718-1.976563 3.84375-4.050782 5.511718-6.921875 1.800782-3.089844 4.039063-6.9375 8.347656-10.789063 3.085938-2.761718 7.828126-2.496094 10.589844.589844 2.761719 3.089844 2.496094 7.832031-.59375 10.589844-2.535156 2.269531-3.851562 4.53125-5.378906 7.152344-2.066406 3.554687-4.40625 7.578124-9.484375 11.382812-1.347656 1.011719-2.925781 1.496094-4.492187 1.496094zm0 0" fill="#ebc35c"/><path d="m54.390625 215.769531c-1.226563 0-2.46875-.296875-3.617187-.933593-4.410157-2.433594-7.191407-5.046876-9.648438-7.351563-2.820312-2.652344-5.488281-5.15625-11.285156-7.9375-3.734375-1.792969-5.308594-6.273437-3.515625-10.007813 1.792969-3.734374 6.273437-5.308593 10.007812-3.519531 7.882813 3.785157 11.863281 7.523438 15.0625 10.527344 2.160157 2.027344 3.863281 3.632813 6.625 5.152344 3.628907 2 4.945313 6.5625 2.945313 10.191406-1.367188 2.480469-3.929688 3.878906-6.574219 3.878906zm0 0" fill="#f7cf66"/><path d="m60.320312 133.042969c-1.550781 0-3.113281-.480469-4.457031-1.472657-3.101562-2.296874-5.226562-5.34375-7.480469-8.566406-2.457031-3.519531-4.996093-7.15625-9.042968-10.089844-3.355469-2.429687-4.101563-7.117187-1.671875-10.472656 2.433593-3.355468 7.121093-4.101562 10.476562-1.671875 6.09375 4.417969 9.664063 9.535157 12.535157 13.644531 1.53125 2.191407 2.976562 4.261719 4.105468 5.097657 3.332032 2.464843 4.03125 7.160156 1.566406 10.492187-1.46875 1.984375-3.734374 3.039063-6.03125 3.039063zm0 0" fill="#ebc35c"/><path d="m260.152344 480.046875c-7.664063-3.882813-11.082032-12.976563-7.90625-20.957031 5.316406-13.359375 6.53125-22.640625 7.800781-32.328125 2.316406-17.679688 4.707031-35.957031 27.117187-71.496094l28.058594 17.695313c-18.523437 29.371093-20.269531 42.6875-22.285156 58.105468-1.4375 10.984375-3.023438 23.101563-9.859375 40.257813-3.617187 9.078125-14.210937 13.136719-22.925781 8.722656zm0 0" fill="#ddaf89"/><path d="m281.890625 411.089844c40.316406 14.675781 71.769531 2.21875 101.542969 7.074218 28.519531 4.652344 64.425781-13.375 80.332031-34.839843 19.324219-26.074219 36.269531-47.125 46.070313-63.902344 5.230468-8.949219.550781-20.433594-9.398438-23.335937-10.636719-3.109376-24.648438-7.328126-40.519531-14.796876-13.3125-6.261718-31.644531-4.035156-51.691407-3.140624.582032-16.3125-4.296874-31.429688-3.480468-45.574219 1.199218-20.808594-13.675782-34.925781-16.007813-51.324219-.878906-6.175781-2.820312-11.1875-4.976562-15.097656-4.207031-7.632813-13.109375-11.214844-21.460938-8.714844-6.613281 1.976562-15.050781 5.859375-23.371093 13.464844-9.542969 8.71875-21.414063 20.855468-37.355469 25.25-13.328125 3.671875-21.261719 19.390625-31.015625 31.890625-17.265625-15.855469-28.285156-29.808594-47.933594-34.300781-14.621094-3.339844-26.089844-7.890626-34.890625-11.605469-9.175781-3.871094-19.761719.75-23.0625 10.140625-5.980469 17.027344-11.078125 40.65625-5.863281 65.839844 6.800781 32.835937 29.71875 44.304687 38.152344 86.96875 5.613281 28.390624 46.75 52.109374 84.929687 66.003906zm0 0" fill="#ddaf89"/><g fill="#c9a07d"><path d="m293.511719 380.328125c-.695313 0-1.398438-.097656-2.101563-.300781-3.976562-1.160156-6.261718-5.324219-5.101562-9.300782 6.167968-21.179687 16.691406-46.421874 26.871094-70.832031 9.425781-22.601562 18.328124-43.949219 22.3125-58.75 1.078124-4 5.191406-6.371093 9.191406-5.292969 4 1.078126 6.371094 5.191407 5.292968 9.191407-4.242187 15.757812-13.332031 37.550781-22.949218 60.625-10.023438 24.027343-20.382813 48.875-26.316406 69.253906-.957032 3.277344-3.949219 5.40625-7.199219 5.40625zm0 0"/><path d="m297.8125 366.644531c-1.074219 0-2.167969-.230469-3.203125-.722656-38.101563-18.039063-46.476563-41.316406-54.578125-63.828125-5.972656-16.605469-12.148438-33.773438-30.96875-50.75-3.078125-2.777344-3.320312-7.519531-.546875-10.59375 2.773437-3.078125 7.519531-3.320312 10.59375-.546875 21.613281 19.5 28.746094 39.320313 35.039063 56.8125 7.714843 21.441406 14.378906 39.960937 46.878906 55.351563 3.746094 1.769531 5.34375 6.242187 3.570312 9.984374-1.28125 2.707032-3.976562 4.292969-6.785156 4.292969zm0 0"/><path d="m334.523438 372.257812c-10.980469 0-23.675782-1.707031-38.714844-5.886718-3.992188-1.109375-6.328125-5.246094-5.214844-9.234375 1.105469-3.992188 5.242188-6.332031 9.230469-5.21875 45.105469 12.542969 65.375.300781 84.972656-11.539063 13.789063-8.324218 28.050781-16.941406 49.125-16.230468 4.140625.140624 7.382813 3.609374 7.246094 7.75-.140625 4.140624-3.59375 7.421874-7.75 7.242187-16.625-.570313-27.859375 6.226563-40.863281 14.078125-15.050782 9.089844-31.523438 19.039062-58.03125 19.039062zm0 0"/><path d="m314.664062 323.359375c-3.261718 0-6.265624-2.144531-7.207031-5.433594-.652343-2.28125-1.433593-5.589843-2.335937-9.417969-2.433594-10.332031-6.507813-27.621093-10.792969-34.195312-2.265625-3.46875-1.289063-8.113281 2.179687-10.378906s8.117188-1.285156 10.378907 2.183594c5.726562 8.769531 9.835937 26.214843 12.835937 38.949218.859375 3.644532 1.601563 6.789063 2.152344 8.726563 1.144531 3.980469-1.160156 8.132812-5.140625 9.273437-.691406.199219-1.386719.292969-2.070313.292969zm0 0"/><path d="m326.828125 294.308594c-2.332031 0-4.628906-1.082032-6.09375-3.121094-2.417969-3.363281-1.652344-8.046875 1.707031-10.46875 1.554688-1.117188 3.996094-2.222656 11.148438-5.359375 6.511718-2.851563 17.410156-7.632813 20.675781-10.125 3.289063-2.515625 7.996094-1.886719 10.511719 1.40625 2.515625 3.289063 1.886718 7.996094-1.40625 10.511719-4.351563 3.324218-12.960938 7.210937-23.757813 11.945312-3.351562 1.46875-7.511719 3.292969-8.558593 3.902344-1.289063.882812-2.765626 1.308594-4.226563 1.308594zm4.375-1.414063c-.03125.023438-.058594.042969-.089844.066407.035157-.023438.0625-.042969.089844-.066407zm0 0"/><path d="m358.667969 368.820312c-.289063 0-.582031-.015624-.878907-.050781-4.113281-.480469-7.058593-4.207031-6.578124-8.320312.039062-.351563 4.710937-35.847657 17.597656-45.152344 3.355468-2.425781 8.046875-1.667969 10.46875 1.6875 2.425781 3.359375 1.671875 8.046875-1.6875 10.472656-3.128906 2.261719-9.652344 19.070313-11.480469 34.730469-.445313 3.820312-3.6875 6.632812-7.441406 6.632812zm0 0"/><path d="m431.109375 367.960938c-.070313 0-.136719-.003907-.207031-.003907-12.582032-.34375-30.691406-16.425781-36.640625-21.707031-3.097657-2.753906-3.378907-7.492188-.628907-10.589844s7.488282-3.378906 10.585938-.628906c15.769531 14 24.449219 17.859375 27.089844 17.929688 4.140625.113281 7.40625 3.5625 7.292968 7.703124-.109374 4.070313-3.445312 7.296876-7.492187 7.296876zm0 0"/><path d="m246.953125 306.683594c-1.867187 0-3.738281-.691406-5.191406-2.089844-2.410157-2.3125-5.386719-2.390625-11.328125-2.316406-6.945313.074218-15.582032.175781-24.90625-5.691406-3.507813-2.207032-4.5625-6.835938-2.355469-10.34375 2.207031-3.507813 6.835937-4.558594 10.339844-2.351563 5.589843 3.511719 10.761719 3.457031 16.753906 3.386719 7.007813-.078125 14.945313-.167969 21.886719 6.5 2.988281 2.871094 3.082031 7.617187.214844 10.605468-1.472657 1.53125-3.441407 2.300782-5.414063 2.300782zm0 0"/><path d="m332.25 418.449219c-76.15625-36.292969-120.667969-73.390625-125.90625-142.457031-2.273438-29.964844-16.664062-46.265626-11.953125-91.125-2.367187-.9375-4.589844-1.855469-6.65625-2.726563-9.175781-3.871094-19.757813.746094-23.0625 10.140625-5.980469 17.023438-11.078125 40.65625-5.863281 65.835938 6.804687 32.839843 29.71875 44.304687 38.15625 86.96875 5.613281 28.390624 46.746094 52.109374 84.925781 66.003906 18.40625 6.699218 34.964844 7.738281 50.359375 7.359375zm0 0"/></g></svg>