<svg height="511pt" viewBox="0 -77 511.99925 511" width="511pt" xmlns="http://www.w3.org/2000/svg"><path d="m470.171875 347.261719h-428.988281l26.78125-180.378907c4.621094-31.105468 31.324218-54.136718 62.769531-54.136718h249.882813c31.449218 0 58.152343 23.03125 62.769531 54.136718zm0 0" fill="#7dad91"/><path d="m177.921875 112.746094h-47.1875c-31.445313 0-58.148437 23.03125-62.765625 54.136718l-26.785156 180.378907h313.222656c-135.9375-41.953125-173.488281-168.640625-176.484375-234.515625zm0 0" fill="#6e9981"/><path d="m232.285156 194.050781c0-14.25-14.507812-25.800781-32.402344-25.800781-17.894531 0-32.402343 11.550781-32.402343 25.800781s14.507812 25.804688 32.402343 25.804688c17.894532 0 32.402344-11.554688 32.402344-25.804688zm0 0" fill="#f1a18f"/><path d="m407.914062 194.050781c0-14.25-14.507812-25.800781-32.402343-25.800781s-32.402344 11.550781-32.402344 25.800781 14.507813 25.804688 32.402344 25.804688 32.402343-11.554688 32.402343-25.804688zm0 0" fill="#f1a18f"/><g fill="#495059"><path d="m218.765625 175.808594c-4.140625 0-7.5-3.355469-7.5-7.5v-11.441406c0-4.140626 3.359375-7.5 7.5-7.5 4.144531 0 7.5 3.359374 7.5 7.5v11.441406c0 4.144531-3.355469 7.5-7.5 7.5zm0 0"/><path d="m356.628906 175.808594c-4.144531 0-7.5-3.355469-7.5-7.5v-11.441406c0-4.140626 3.355469-7.5 7.5-7.5 4.140625 0 7.5 3.359374 7.5 7.5v11.441406c0 4.144531-3.359375 7.5-7.5 7.5zm0 0"/><path d="m287.699219 184.597656c-9.132813 0-17.816407-3.957031-23.828125-10.851562-2.722656-3.125-2.394532-7.859375.726562-10.582032 3.121094-2.722656 7.859375-2.398437 10.582032.726563 3.160156 3.625 7.722656 5.707031 12.519531 5.707031 4.792969 0 9.359375-2.082031 12.519531-5.707031 2.722656-3.125 7.457031-3.449219 10.582031-.726563 3.125 2.71875 3.449219 7.457032.726563 10.582032-6.011719 6.894531-14.699219 10.851562-23.828125 10.851562zm0 0"/><path d="m41.183594 347.261719h428.988281l-16.289063-109.703125h-396.410156zm0 0"/></g><path d="m215.46875 237.558594h-157.996094l-16.289062 109.703125h313.222656c-68.679688-21.195313-112.257812-64.011719-138.9375-109.703125zm0 0" fill="#41464f"/><path d="m50.386719 285.292969h410.582031l-2.226562-15h-406.128907zm0 0" fill="#f8eed1"/><path d="m145.722656 255.621094.597656-138.402344c.152344-35.671875-12.125-70.277344-34.722656-97.875-17.628906-21.535156-49.195312-25.128906-71.214844-8.109375-25.445312 19.667969-26.792968 57.609375-2.800781 79.027344 23.605469 21.074219 40.269531 48.804687 47.796875 79.542969l19.242188 78.566406zm0 0" fill="#f8eed1"/><path d="m104.621094 248.375 41.101562 7.246094.320313-74.863282c-54.242188-31.714843-108.894531-122.886718-102.769531-171.585937-.976563.65625-1.945313 1.332031-2.890626 2.0625-25.445312 19.667969-26.789062 57.609375-2.800781 79.027344 23.605469 21.074219 40.269531 48.804687 47.796875 79.542969zm0 0" fill="#f0e3c0"/><path d="m121.769531 253.429688c-4.070312 0-7.414062-3.261719-7.496093-7.351563-2.574219-129.917969-31.191407-168.710937-46.566407-189.550781-2.457031-3.335938-1.75-8.03125 1.585938-10.488282 3.332031-2.457031 8.027343-1.75 10.488281 1.582032 10.746094 14.566406 23.011719 33.703125 32.515625 65.167968 10.328125 34.191407 15.878906 77.691407 16.976563 132.988282.082031 4.144531-3.207032 7.566406-7.347657 7.648437-.054687.003907-.105469.003907-.15625.003907zm0 0" fill="#ddaf89"/><path d="m164.246094 266.554688c0 31.648437-25.652344 57.300781-57.300782 57.300781-31.648437 0-57.300781-25.652344-57.300781-57.300781 0-31.648438 25.652344-57.300782 57.300781-57.300782 31.648438 0 57.300782 25.652344 57.300782 57.300782zm0 0" fill="#d97b7d"/><path d="m130.738281 266.554688c0 13.140624-10.652343 23.792968-23.792969 23.792968-13.140624 0-23.792968-10.652344-23.792968-23.792968 0-13.140626 10.652344-23.792969 23.792968-23.792969 13.140626 0 23.792969 10.652343 23.792969 23.792969zm0 0" fill="#f8eed1"/><path d="m474.957031 357.28125h-414.460937c-30.214844 0-55.609375-22.683594-59.011719-52.703125l-1.332031-11.746094c-1.699219-15.023437 10.957031-27.753906 25.992187-26.140625l477.796875 51.320313c5.539063.597656 9.21875 6.019531 7.722656 11.386719-4.589843 16.480468-19.601562 27.882812-36.707031 27.882812zm0 0" fill="#7dad91"/><path d="m26.144531 266.691406c-15.035156-1.613281-27.691406 11.117188-25.992187 26.140625l1.332031 11.746094c3.402344 30.023437 28.800781 52.707031 59.011719 52.707031h158.726562c-77.871094-17.902344-84.207031-61.960937-69.753906-77.34375zm0 0" fill="#6e9981"/></svg>