<svg height="511pt" viewBox="0 -105 511.99933 511" width="511pt" xmlns="http://www.w3.org/2000/svg"><path d="m204.207031 279.882812c-87.949219-32.011718-158.167969-96.355468-197.722656-181.183593-16.109375-34.542969-1.164063-75.609375 33.378906-91.714844 34.546875-16.109375 75.609375-1.164063 91.71875 33.382813 49.488281 106.125 176.089844 152.203124 282.21875 102.71875 34.542969-16.109376 75.605469-1.164063 91.714844 33.382812 16.109375 34.542969 1.164063 75.605469-33.382813 91.714844-84.824218 39.554687-179.976562 43.707031-267.925781 11.699218zm0 0" fill="#d97b7d"/><g fill="#c77172"><path d="m144.667969 64.308594c-4.808594-7.597656-9.1875-15.585938-13.085938-23.945313-16.109375-34.542969-57.171875-49.488281-91.71875-33.378906-34.542969 16.105469-49.488281 57.171875-33.378906 91.714844 39.554687 84.828125 109.773437 149.171875 197.722656 181.183593 5.941407 2.160157 11.914063 4.144532 17.914063 5.976563-144.503906-77.480469-114.308594-174.535156-77.453125-221.550781zm0 0"/><path d="m175.875 102.734375-17.996094 8.390625c-3.753906 1.75-5.378906 6.210938-3.625 9.964844 1.269532 2.730468 3.976563 4.335937 6.800782 4.335937 1.0625 0 2.140624-.226562 3.164062-.707031l23.773438-11.085938c-4.167969-3.464843-8.207032-7.097656-12.117188-10.898437zm0 0"/><path d="m327.292969 162.945312-11.855469 5.527344c-3.753906 1.75-5.375 6.210938-3.625 9.96875 1.273438 2.726563 3.976562 4.332032 6.800781 4.332032 1.0625 0 2.140625-.230469 3.164063-.707032l55.375-25.820312c-16.515625 4.269531-33.246094 6.46875-49.859375 6.699218zm0 0"/><path d="m242.429688 146.558594-25.4375 11.863281c-3.753907 1.75-5.378907 6.210937-3.628907 9.964844 1.273438 2.730469 3.976563 4.332031 6.800781 4.332031 1.0625 0 2.140626-.226562 3.167969-.703125l39.164063-18.265625c-6.800782-2.066406-13.5-4.460938-20.066406-7.191406zm0 0"/></g><path d="m166.316406 206.976562c5.328125-14.632812-5.25-31.914062-23.625-38.601562-18.371094-6.6875-37.585937-.246094-42.910156 14.386719-5.324219 14.628906 5.253906 31.914062 23.625 38.601562 18.375 6.6875 37.585938.246094 42.910156-14.386719zm0 0" fill="#f1a18f"/><path d="m280.089844 248.398438c-5.324219 14.628906 5.253906 31.914062 23.625 38.601562 18.375 6.683594 37.585937.246094 42.910156-14.386719 5.328125-14.632812-5.25-31.914062-23.625-38.601562s-37.585938-.246094-42.910156 14.386719zm0 0" fill="#f1a18f"/><path d="m178.757812 186.363281c-.851562 0-1.71875-.148437-2.5625-.457031-3.894531-1.417969-5.902343-5.722656-4.484374-9.613281.855468-2.347657.746093-4.886719-.3125-7.148438-1.054688-2.265625-2.929688-3.980469-5.277344-4.835937-2.347656-.855469-4.886719-.742188-7.148438.3125-2.265625 1.054687-3.980468 2.929687-4.835937 5.277344-1.414063 3.890624-5.71875 5.898437-9.609375 4.480468-3.894532-1.414062-5.902344-5.71875-4.484375-9.613281 2.226562-6.109375 6.695312-10.992187 12.59375-13.738281 5.894531-2.75 12.507812-3.039063 18.617187-.816406 6.113282 2.226562 10.992188 6.699218 13.742188 12.59375 2.75 5.894531 3.035156 12.507812.8125 18.621093-1.109375 3.042969-3.988282 4.9375-7.050782 4.9375zm0 0" fill="#495059"/><path d="m320.308594 237.878906c-.855469 0-1.71875-.144531-2.566406-.453125-3.890626-1.417969-5.898438-5.722656-4.480469-9.613281.851562-2.347656.742187-4.886719-.3125-7.148438-1.054688-2.265624-2.929688-3.984374-5.277344-4.835937-4.847656-1.761719-10.222656.742187-11.984375 5.589844-1.417969 3.890625-5.722656 5.898437-9.613281 4.480469-3.894531-1.417969-5.898438-5.722657-4.484375-9.613282 4.59375-12.617187 18.59375-19.144531 31.214844-14.554687 6.109374 2.226562 10.988281 6.695312 13.738281 12.59375 2.75 5.894531 3.039062 12.507812.8125 18.617187-1.109375 3.046875-3.984375 4.9375-7.046875 4.9375zm0 0" fill="#495059"/><path d="m232.273438 233.945312c-3.597657 0-7.207032-.625-10.660157-1.882812-8.476562-3.082031-15.199219-9.6875-18.445312-18.117188-1.488281-3.863281.4375-8.207031 4.304687-9.695312 3.871094-1.492188 8.207032.441406 9.691406 4.304688 1.691407 4.382812 5.179688 7.8125 9.578126 9.414062 4.398437 1.601562 9.277343 1.214844 13.390624-1.054688 3.628907-2.003906 8.191407-.6875 10.191407 2.9375 2.003906 3.625.6875 8.1875-2.9375 10.191407-4.683594 2.585937-9.886719 3.902343-15.113281 3.902343zm0 0" fill="#495059"/><path d="m78.378906 55.40625c1.152344 3.980469 5.320313 6.269531 9.292969 5.117188 3.976563-1.152344 6.269531-5.3125 5.117187-9.292969-8.347656-28.808594-29.15625-41.671875-42.816406-48.035157-3.410156.984376-6.789062 2.242188-10.109375 3.789063-3.199219 1.492187-6.226562 3.199219-9.082031 5.09375-3.449219 14.621094-6.402344 39.242187 11.375 63.851563 1.464844 2.027343 3.757812 3.109374 6.085938 3.109374 1.519531 0 3.058593-.464843 4.382812-1.421874 3.359375-2.425782 4.113281-7.113282 1.691406-10.472657-13.40625-18.558593-12.058594-37.1875-9.363281-49.726562 11.542969 5.59375 27.058594 16 33.425781 37.988281zm0 0" fill="#d97b7d"/><path d="m509.199219 186.210938c-.96875-3.289063-2.191407-6.542969-3.683594-9.742188-1.546875-3.320312-3.328125-6.453125-5.308594-9.398438-14.550781-3.90625-38.757812-7.429687-63.671875 9.273438-3.441406 2.308594-4.359375 6.96875-2.054687 10.40625 2.304687 3.441406 6.964843 4.359375 10.40625 2.054688 19.011719-12.75 37.585937-10.75 50.023437-7.617188-5.996094 11.339844-16.9375 26.480469-39.132812 32.078125-4.019532 1.011719-6.453125 5.089844-5.441406 9.105469.859374 3.402344 3.914062 5.667968 7.269531 5.667968.605469 0 1.222656-.074218 1.839843-.230468 29.4375-7.421875 43-28.183594 49.753907-41.597656zm0 0" fill="#c77172"/><path d="m427.765625 254.078125c0 4.136719-3.351563 7.492187-7.492187 7.492187-4.136719 0-7.492188-3.355468-7.492188-7.492187 0-4.140625 3.355469-7.492187 7.492188-7.492187 4.140624 0 7.492187 3.351562 7.492187 7.492187zm0 0" fill="#c77172"/><path d="m376.949219 203.246094c0 4.136718-3.355469 7.492187-7.492188 7.492187s-7.492187-3.355469-7.492187-7.492187c0-4.136719 3.355468-7.492188 7.492187-7.492188s7.492188 3.355469 7.492188 7.492188zm0 0" fill="#c77172"/><path d="m85.582031 143.179688c0 4.136718-3.351562 7.492187-7.488281 7.492187-4.140625 0-7.492188-3.355469-7.492188-7.492187 0-4.136719 3.351563-7.492188 7.492188-7.492188 4.136719 0 7.488281 3.355469 7.488281 7.492188zm0 0" fill="#d97b7d"/></svg>