<?xml version="1.0" encoding="iso-8859-1"?>
<!-- Generator: Adobe Illustrator 18.0.0, SVG Export Plug-In . SVG Version: 6.00 Build 0)  -->
<!DOCTYPE svg PUBLIC "-//W3C//DTD SVG 1.1//EN" "http://www.w3.org/Graphics/SVG/1.1/DTD/svg11.dtd">
<svg version="1.1" id="Capa_1" xmlns="http://www.w3.org/2000/svg" xmlns:xlink="http://www.w3.org/1999/xlink" x="0px" y="0px"
	 viewBox="0 0 55.865 55.865" style="enable-background:new 0 0 55.865 55.865;" xml:space="preserve">
<g>
	<path style="fill:#527F72;" d="M21.803,55.865c-3.86,0-7-3.141-7-7c0-0.553,0.448-1,1-1c0.552,0,1,0.447,1,1c0,2.757,2.243,5,5,5
		s5-2.243,5-5V33c0-0.553,0.448-1,1-1c0.552,0,1,0.447,1,1v15.865C28.803,52.725,25.662,55.865,21.803,55.865z"/>
	<path style="fill:#24AE5F;" d="M48.199,26.121c-2.017-3.193-5.679-5.255-9.671-5.255c3.993,0,7.654-2.062,9.671-5.255
		c0.046-0.073,0.093-0.158,0.139-0.252c1.53-3.122-0.917-7.34-4.394-7.34H40.78V4.854c0-3.475-4.209-5.909-7.338-4.395
		c-0.097,0.047-0.183,0.094-0.258,0.141c-3.195,2.017-5.252,5.68-5.252,9.667c0-3.988-2.057-7.65-5.252-9.667
		c-0.074-0.047-0.161-0.094-0.258-0.141c-3.128-1.514-7.338,0.92-7.338,4.395v3.165h-3.164c-3.477,0-5.924,4.218-4.394,7.34
		c0.046,0.094,0.092,0.178,0.139,0.252c2.017,3.193,5.679,5.255,9.671,5.255c-3.993,0-7.654,2.062-9.671,5.255
		c-0.046,0.074-0.093,0.158-0.139,0.252c-1.53,3.122,0.917,7.34,4.394,7.34h3.164v3.165c0,3.475,4.209,5.909,7.338,4.395
		c0.097-0.047,0.183-0.094,0.258-0.141c3.195-2.017,5.252-5.68,5.252-9.668c0,3.988,2.057,7.65,5.252,9.668
		c0.074,0.047,0.161,0.094,0.258,0.141c3.128,1.514,7.338-0.92,7.338-4.395v-3.165h3.164c3.477,0,5.924-4.218,4.394-7.34
		C48.291,26.279,48.245,26.194,48.199,26.121z"/>
</g>
<g>
</g>
<g>
</g>
<g>
</g>
<g>
</g>
<g>
</g>
<g>
</g>
<g>
</g>
<g>
</g>
<g>
</g>
<g>
</g>
<g>
</g>
<g>
</g>
<g>
</g>
<g>
</g>
<g>
</g>
</svg>
