<?xml version="1.0" encoding="iso-8859-1"?>
<!-- Generator: Adobe Illustrator 18.0.0, SVG Export Plug-In . SVG Version: 6.00 Build 0)  -->
<!DOCTYPE svg PUBLIC "-//W3C//DTD SVG 1.1//EN" "http://www.w3.org/Graphics/SVG/1.1/DTD/svg11.dtd">
<svg version="1.1" id="Capa_1" xmlns="http://www.w3.org/2000/svg" xmlns:xlink="http://www.w3.org/1999/xlink" x="0px" y="0px"
	 viewBox="0 0 54 54" style="enable-background:new 0 0 54 54;" xml:space="preserve">
<g>
	<polygon style="fill:#F0C419;" points="48.571,13.157 49.631,15.305 52,15.649 50.285,17.32 50.69,19.68 48.571,18.566 
		46.452,19.68 46.856,17.32 45.142,15.649 47.511,15.305 	"/>
	<path style="fill:#B49ACA;" d="M45.002,29.425L45.002,29.425c0-1.381-1.119-2.5-2.5-2.5h-8.5v10H54v-5h-6.498
		C46.121,31.925,45.002,30.806,45.002,29.425z"/>
	<path style="fill:#B0D3F0;" d="M34.002,33.925H16.436c-8.546,0-14.915-4.444-16.226-11.323c-0.587-3.084,0.062-6.213,1.827-8.809
		c1.766-2.597,4.437-4.35,7.521-4.938c2.57-0.49,5.181,0.051,7.347,1.523s3.629,3.701,4.118,6.273
		c0.412,2.162-0.043,4.356-1.281,6.177c-1.238,1.821-3.111,3.051-5.274,3.463l-0.748-3.93c1.113-0.212,2.078-0.845,2.715-1.782
		c0.638-0.938,0.871-2.066,0.659-3.18c-0.29-1.523-1.155-2.842-2.438-3.714c-1.281-0.872-2.827-1.192-4.35-0.901
		c-2.035,0.388-3.797,1.544-4.962,3.257s-1.593,3.776-1.205,5.812c1.134,5.951,7.095,8.071,12.296,8.071h17.565V33.925z"/>
	<circle style="fill:#CB8252;" cx="34.785" cy="8.82" r="2.5"/>
	<circle style="fill:#7F5B53;" cx="43.785" cy="2.82" r="2.5"/>
	<circle style="fill:#F18D46;" cx="42.785" cy="9.82" r="1.5"/>
	<circle style="fill:#FAC176;" cx="37.785" cy="14.82" r="1.5"/>
	<polygon style="fill:#F0C419;" points="16.889,43.378 19.157,44.147 21.076,42.715 21.045,45.109 23,46.491 20.714,47.202 
		20.003,49.488 18.62,47.534 16.226,47.564 17.658,45.645 	"/>
	<circle style="fill:#C2615F;" cx="4.075" cy="50.059" r="2.5"/>
	<circle style="fill:#59474E;" cx="10.439" cy="45.109" r="1.5"/>
	<circle style="fill:#7ED09E;" cx="10.439" cy="52.18" r="1.5"/>
</g>
<g>
</g>
<g>
</g>
<g>
</g>
<g>
</g>
<g>
</g>
<g>
</g>
<g>
</g>
<g>
</g>
<g>
</g>
<g>
</g>
<g>
</g>
<g>
</g>
<g>
</g>
<g>
</g>
<g>
</g>
</svg>
