<?xml version="1.0" encoding="iso-8859-1"?>
<!-- Generator: Adobe Illustrator 18.0.0, SVG Export Plug-In . SVG Version: 6.00 Build 0)  -->
<!DOCTYPE svg PUBLIC "-//W3C//DTD SVG 1.1//EN" "http://www.w3.org/Graphics/SVG/1.1/DTD/svg11.dtd">
<svg version="1.1" id="Capa_1" xmlns="http://www.w3.org/2000/svg" xmlns:xlink="http://www.w3.org/1999/xlink" x="0px" y="0px"
	 viewBox="0 0 57.075 57.075" style="enable-background:new 0 0 57.075 57.075;" xml:space="preserve">
<g>
	
		<ellipse transform="matrix(0.9552 -0.2958 0.2958 0.9552 -8.4616 6.3921)" style="fill:#C03A2B;" cx="16.892" cy="31.158" rx="16.141" ry="23.291"/>
	<path style="fill:#F29C1F;" d="M44.283,3.291C37.395,2.227,30.555,7.62,26.959,16.099c2.254,2.832,4.125,6.324,5.352,10.284
		c2.338,7.548,1.789,15.014-0.949,20.271c1.701,1.405,3.658,2.341,5.811,2.673c8.81,1.361,17.544-7.842,19.507-20.554
		S53.093,4.652,44.283,3.291z"/>
	<path style="fill:#E64C3C;" d="M25.392,26.158l7.298,1.622c-0.123-0.466-0.235-0.93-0.38-1.397
		c-0.608-1.964-1.376-3.813-2.27-5.525l-7.649-1.7l-4,11l-12-6l-5.783,8.262c0.227,1.165,0.5,2.337,0.865,3.513
		c0.358,1.157,0.772,2.274,1.233,3.347l5.685-8.122l12,5L25.392,26.158z"/>
	<path style="fill:#F0C419;" d="M34.776,44.634l12.616-6.477l3.481,4.567c1.092-1.39,2.075-2.962,2.922-4.682l-4.402-7.885
		l-12.585,7l-3.909-8.601c1.077,4.524,1.136,8.942,0.32,12.793L34.776,44.634z"/>
	<path style="fill:#FFBE69;" d="M41.392,22.158l-5-11l-8.798,4.738c-0.083,0.24-0.158,0.486-0.236,0.73
		c1.039,1.37,1.989,2.881,2.824,4.519l4.21-1.987l4.968,10.477l11.032-6.477l6.178,6.25c0.037-0.212,0.076-0.422,0.109-0.635
		c0.386-2.502,0.478-4.952,0.314-7.286l-5.602-6.329L41.392,22.158z"/>
</g>
<g>
</g>
<g>
</g>
<g>
</g>
<g>
</g>
<g>
</g>
<g>
</g>
<g>
</g>
<g>
</g>
<g>
</g>
<g>
</g>
<g>
</g>
<g>
</g>
<g>
</g>
<g>
</g>
<g>
</g>
</svg>
