<?xml version="1.0" encoding="iso-8859-1"?>
<!-- Generator: Adobe Illustrator 18.0.0, SVG Export Plug-In . SVG Version: 6.00 Build 0)  -->
<!DOCTYPE svg PUBLIC "-//W3C//DTD SVG 1.1//EN" "http://www.w3.org/Graphics/SVG/1.1/DTD/svg11.dtd">
<svg version="1.1" id="Capa_1" xmlns="http://www.w3.org/2000/svg" xmlns:xlink="http://www.w3.org/1999/xlink" x="0px" y="0px"
	 viewBox="0 0 56 56" style="enable-background:new 0 0 56 56;" xml:space="preserve">
<g>
	<ellipse style="fill:#E64C3C;" cx="28" cy="28" rx="18.5" ry="28"/>
	<circle style="fill:#C03A2B;" cx="23" cy="26.5" r="4.5"/>
	<path style="fill:#F29C1F;" d="M39,25c2.669,0,5.138-0.844,7.168-2.269C44.887,12.549,39.967,4.321,33.53,1.273
		C29.372,3.304,26.5,7.561,26.5,12.5C26.5,19.404,32.096,25,39,25z"/>
	<path style="fill:#F29C1F;" d="M44,31c-6.351,0-11.5,5.149-11.5,11.5c0,3.95,1.993,7.433,5.027,9.504
		c4.796-4.37,8.172-11.939,8.845-20.756C45.606,31.087,44.813,31,44,31z"/>
	<path style="fill:#F29C1F;" d="M14.5,35c-1.509,0-2.947,0.305-4.257,0.855c1.652,8.568,5.933,15.439,11.437,18.467
		c2.336-2.017,3.82-4.994,3.82-8.322C25.5,39.925,20.575,35,14.5,35z"/>
	<path style="fill:#F29C1F;" d="M10,22c4.142,0,7.5-3.358,7.5-7.5c0-2.383-1.115-4.502-2.848-5.876
		c-2.315,3.652-3.981,8.248-4.721,13.373C9.954,21.997,9.977,22,10,22z"/>
</g>
<g>
</g>
<g>
</g>
<g>
</g>
<g>
</g>
<g>
</g>
<g>
</g>
<g>
</g>
<g>
</g>
<g>
</g>
<g>
</g>
<g>
</g>
<g>
</g>
<g>
</g>
<g>
</g>
<g>
</g>
</svg>
