<?xml version="1.0" encoding="iso-8859-1"?>
<!-- Generator: Adobe Illustrator 18.0.0, SVG Export Plug-In . SVG Version: 6.00 Build 0)  -->
<!DOCTYPE svg PUBLIC "-//W3C//DTD SVG 1.1//EN" "http://www.w3.org/Graphics/SVG/1.1/DTD/svg11.dtd">
<svg version="1.1" id="Capa_1" xmlns="http://www.w3.org/2000/svg" xmlns:xlink="http://www.w3.org/1999/xlink" x="0px" y="0px"
	 viewBox="0 0 58 58" style="enable-background:new 0 0 58 58;" xml:space="preserve">
<g>
	<path style="fill:#24AE5F;" d="M47.969,25.213c-8.785,4.234-13.836,13.434-15.59,17.166c-0.1,0.213-0.233,0.399-0.379,0.575v0
		C32,44.084,31.084,45,29.953,45H29h-0.953C26.916,45,26,44.084,26,42.953v0c-0.146-0.175-0.279-0.362-0.379-0.575
		c-1.755-3.732-6.805-12.932-15.59-17.166c-0.585-0.282-1.22,0.294-0.982,0.898c1.969,4.983,8.27,20.399,14.022,28.736
		c0.04,0.058,0.088,0.105,0.129,0.162C23.872,56.729,26.21,58,29,58s5.128-1.271,5.8-2.991c0.041-0.056,0.089-0.104,0.129-0.162
		c5.753-8.337,12.053-23.753,14.022-28.736C49.19,25.507,48.554,24.931,47.969,25.213z"/>
	<rect x="31" y="26.81" style="fill:#24AE5F;" width="2" height="29.377"/>
	<rect x="25" y="28.324" style="fill:#24AE5F;" width="2" height="27.676"/>
	<path style="fill:#71C285;" d="M26.88,54.835c-0.368,0-0.722-0.204-0.897-0.556c-0.751-1.516-1.483-3.087-2.224-4.678
		c-2.644-5.675-5.377-11.543-9.488-15.917c-0.378-0.402-0.359-1.035,0.043-1.413c0.402-0.379,1.035-0.36,1.414,0.044
		c4.331,4.607,7.133,10.624,9.844,16.441c0.734,1.576,1.459,3.133,2.203,4.634c0.245,0.495,0.043,1.095-0.452,1.34
		C27.181,54.802,27.029,54.835,26.88,54.835z"/>
	<path style="fill:#71C285;" d="M32.276,52.45c-0.147,0-0.296-0.032-0.438-0.101c-0.497-0.242-0.703-0.841-0.461-1.338
		c0.624-1.28,1.239-2.598,1.861-3.931c2.765-5.923,5.625-12.048,10.03-16.764c0.378-0.404,1.01-0.426,1.414-0.048
		c0.404,0.377,0.425,1.01,0.048,1.413c-4.189,4.484-6.981,10.463-9.68,16.245c-0.627,1.343-1.247,2.67-1.875,3.961
		C33.002,52.244,32.646,52.45,32.276,52.45z"/>
	<rect x="28.084" y="30" style="fill:#24AE5F;" width="2" height="18.032"/>
	<path style="fill:#F0C419;" d="M42.37,7.195C39.111,1.049,32.233,5,32.233,5L32,6.493c0.893,2.475,2,5.601,2,9.007
		c0,5.688-1.834,10.598-4,12.973L32.708,29c9.468-2.403,10.774-12.101,10.853-16.638C43.592,10.589,43.23,8.816,42.37,7.195z"/>
	<path style="fill:#F0C419;" d="M15.733,7.695C18.993,1.549,25.767,5.5,25.767,5.5L26,6.993c-0.893,2.475-2,5.601-2,9.007
		c0,5.688,1.834,10.598,4,12.973L25.395,29.5c-9.468-2.403-10.774-12.101-10.853-16.638C14.512,11.089,14.873,9.316,15.733,7.695z"
		/>
	<ellipse style="fill:#E57E25;" cx="29" cy="15.5" rx="5.879" ry="15.5"/>
</g>
<g>
</g>
<g>
</g>
<g>
</g>
<g>
</g>
<g>
</g>
<g>
</g>
<g>
</g>
<g>
</g>
<g>
</g>
<g>
</g>
<g>
</g>
<g>
</g>
<g>
</g>
<g>
</g>
<g>
</g>
</svg>
