<?xml version="1.0" encoding="iso-8859-1"?>
<!-- Generator: Adobe Illustrator 18.0.0, SVG Export Plug-In . SVG Version: 6.00 Build 0)  -->
<!DOCTYPE svg PUBLIC "-//W3C//DTD SVG 1.1//EN" "http://www.w3.org/Graphics/SVG/1.1/DTD/svg11.dtd">
<svg version="1.1" id="Capa_1" xmlns="http://www.w3.org/2000/svg" xmlns:xlink="http://www.w3.org/1999/xlink" x="0px" y="0px"
	 viewBox="0 0 59 59" style="enable-background:new 0 0 59 59;" xml:space="preserve">
<g>
	<g>
		<path style="fill:#D1D4D1;" d="M21.692,41.778c-0.391-0.391-1.023-0.391-1.414,0s-0.391,1.023,0,1.414l1.414,1.414
			c0.195,0.195,0.451,0.293,0.707,0.293s0.512-0.098,0.707-0.293c0.391-0.391,0.391-1.023,0-1.414L21.692,41.778z"/>
		<path style="fill:#D1D4D1;" d="M17.45,37.535c-0.391-0.391-1.024-0.391-1.415,0c-0.391,0.39-0.391,1.023,0,1.414l1.414,1.415
			c0.195,0.195,0.452,0.293,0.708,0.293s0.512-0.098,0.707-0.293c0.391-0.39,0.391-1.023,0-1.414L17.45,37.535z"/>
		<path style="fill:#D1D4D1;" d="M25.936,46.021c-0.391-0.391-1.024-0.391-1.415,0c-0.391,0.39-0.391,1.023,0,1.414l1.414,1.415
			c0.195,0.195,0.452,0.293,0.708,0.293s0.512-0.098,0.707-0.293c0.391-0.39,0.391-1.023,0-1.414L25.936,46.021z"/>
		<path style="fill:#D1D4D1;" d="M13.207,33.293c-0.391-0.391-1.023-0.391-1.414,0s-0.391,1.023,0,1.414l1.414,1.414
			c0.195,0.195,0.451,0.293,0.707,0.293s0.512-0.098,0.707-0.293c0.391-0.391,0.391-1.023,0-1.414L13.207,33.293z"/>
		<path style="fill:#D1D4D1;" d="M47.207,33.293c-0.391-0.391-1.023-0.391-1.414,0l-1.414,1.414c-0.391,0.391-0.391,1.023,0,1.414
			c0.195,0.195,0.451,0.293,0.707,0.293s0.512-0.098,0.707-0.293l1.414-1.414C47.598,34.316,47.598,33.684,47.207,33.293z"/>
		<path style="fill:#D1D4D1;" d="M41.55,37.535l-1.414,1.415c-0.39,0.391-0.39,1.024,0,1.414c0.195,0.195,0.451,0.293,0.707,0.293
			s0.512-0.098,0.708-0.293l1.414-1.415c0.39-0.391,0.39-1.024,0-1.414C42.574,37.145,41.94,37.145,41.55,37.535z"/>
		<path style="fill:#D1D4D1;" d="M37.308,41.778l-1.414,1.414c-0.391,0.391-0.391,1.023,0,1.414
			c0.195,0.195,0.451,0.293,0.707,0.293s0.512-0.098,0.707-0.293l1.414-1.414c0.391-0.391,0.391-1.023,0-1.414
			S37.698,41.388,37.308,41.778z"/>
		<path style="fill:#D1D4D1;" d="M30.5,50.874V34c0-0.553-0.448-1-1-1s-1,0.447-1,1v16.952c-0.001,0.026-0.001,0.051,0,0.077V58
			c0,0.553,0.448,1,1,1s1-0.447,1-1v-6.902C30.508,51.022,30.509,50.949,30.5,50.874z"/>
		<path style="fill:#D1D4D1;" d="M33.064,46.021l-1.414,1.415c-0.39,0.391-0.39,1.024,0,1.414c0.195,0.195,0.451,0.293,0.707,0.293
			s0.512-0.098,0.708-0.293l1.414-1.415c0.39-0.391,0.39-1.024,0-1.414C34.088,45.63,33.455,45.63,33.064,46.021z"/>
	</g>
	<path style="fill:#C03A2B;" d="M43.5,16c0-8.837-6.268-16-14-16s-14,7.163-14,16c0,7.823,4.918,14.317,11.41,15.707
		c0.299,0.064,0.467,0.378,0.34,0.656L26.5,34h6l-0.75-1.637c-0.128-0.278,0.041-0.592,0.34-0.656
		C38.582,30.317,43.5,23.823,43.5,16z"/>
	<path style="fill:#F0C419;" d="M58.5,18c0-7.732-5.373-14-12-14c-2.232,0-4.315,0.724-6.105,1.963
		C42.334,8.708,43.5,12.197,43.5,16c0,4.962-1.977,9.395-5.079,12.33c1.546,1.647,3.46,2.824,5.582,3.352
		c0.256,0.064,0.396,0.334,0.287,0.574L43.5,34h6l-0.791-1.748c-0.108-0.24,0.031-0.509,0.287-0.572
		C54.423,30.339,58.5,24.732,58.5,18z"/>
	<path style="fill:#F0C419;" d="M20.579,28.33C17.477,25.395,15.5,20.962,15.5,16c0-3.803,1.166-7.292,3.105-10.037
		C16.815,4.724,14.732,4,12.5,4c-6.627,0-12,6.268-12,14c0,6.7,4.039,12.287,9.428,13.661c0.294,0.075,0.456,0.386,0.33,0.662
		L9.5,34h6l-0.758-1.672c-0.126-0.277,0.036-0.589,0.331-0.665C17.165,31.126,19.052,29.957,20.579,28.33z"/>
	<path style="fill:#FB7B76;" d="M26.279,5.674c-0.385,0-0.752-0.224-0.917-0.599c-0.222-0.506,0.009-1.096,0.515-1.317
		C27.008,3.262,28.261,3,29.5,3c0.552,0,1,0.447,1,1s-0.448,1-1,1c-0.965,0-1.94,0.204-2.82,0.59
		C26.549,5.646,26.413,5.674,26.279,5.674z"/>
	<path style="fill:#FB7B76;" d="M21.5,13c-0.552,0-1-0.447-1-1c0-1.78,0.519-3.503,1.5-4.98c0.306-0.459,0.926-0.587,1.386-0.279
		c0.46,0.306,0.585,0.927,0.28,1.387C22.914,9.259,22.5,10.635,22.5,12C22.5,12.553,22.052,13,21.5,13z"/>
	<path style="fill:#F3D55B;" d="M5.317,16.495c-0.552,0-1-0.447-1-1c0-2.274,0.895-4.527,2.456-6.182
		c0.379-0.401,1.012-0.419,1.414-0.041c0.401,0.38,0.42,1.013,0.041,1.414c-1.214,1.286-1.911,3.039-1.91,4.809
		C6.317,16.047,5.87,16.495,5.317,16.495z"/>
</g>
<g>
</g>
<g>
</g>
<g>
</g>
<g>
</g>
<g>
</g>
<g>
</g>
<g>
</g>
<g>
</g>
<g>
</g>
<g>
</g>
<g>
</g>
<g>
</g>
<g>
</g>
<g>
</g>
<g>
</g>
</svg>
