<?xml version="1.0" encoding="iso-8859-1"?>
<!-- Generator: Adobe Illustrator 18.0.0, SVG Export Plug-In . SVG Version: 6.00 Build 0)  -->
<!DOCTYPE svg PUBLIC "-//W3C//DTD SVG 1.1//EN" "http://www.w3.org/Graphics/SVG/1.1/DTD/svg11.dtd">
<svg version="1.1" id="Capa_1" xmlns="http://www.w3.org/2000/svg" xmlns:xlink="http://www.w3.org/1999/xlink" x="0px" y="0px"
	 viewBox="0 0 52 52" style="enable-background:new 0 0 52 52;" xml:space="preserve">
<g>
	<polygon style="fill:#E64C3C;" points="15.23,52 0,36.77 0,15.23 15.23,0 36.77,0 52,15.23 52,36.77 36.77,52 	"/>
	<circle style="fill:#FFFFFF;" cx="26.021" cy="26" r="13"/>
	<g>
		<path style="fill:#F0C419;" d="M29.021,9h-6c-0.553,0-1,0.447-1,1s0.447,1,1,1h6c0.553,0,1-0.447,1-1S29.574,9,29.021,9z"/>
		<path style="fill:#F0C419;" d="M32.021,7c0-0.553-0.447-1-1-1h-10c-0.553,0-1,0.447-1,1s0.447,1,1,1h10
			C31.574,8,32.021,7.553,32.021,7z"/>
		<path style="fill:#F0C419;" d="M33.021,3h-14c-0.553,0-1,0.447-1,1s0.447,1,1,1h14c0.553,0,1-0.447,1-1S33.574,3,33.021,3z"/>
		<path style="fill:#F0C419;" d="M29.021,41h-6c-0.553,0-1,0.447-1,1s0.447,1,1,1h6c0.553,0,1-0.447,1-1S29.574,41,29.021,41z"/>
		<path style="fill:#F0C419;" d="M21.021,46h10c0.553,0,1-0.447,1-1s-0.447-1-1-1h-10c-0.553,0-1,0.447-1,1S20.468,46,21.021,46z"/>
		<path style="fill:#F0C419;" d="M33.021,47h-14c-0.553,0-1,0.447-1,1s0.447,1,1,1h14c0.553,0,1-0.447,1-1S33.574,47,33.021,47z"/>
		<path style="fill:#F0C419;" d="M42.021,22c-0.553,0-1,0.447-1,1v6c0,0.553,0.447,1,1,1s1-0.447,1-1v-6
			C43.021,22.447,42.574,22,42.021,22z"/>
		<path style="fill:#F0C419;" d="M45.021,20c-0.553,0-1,0.447-1,1v10c0,0.553,0.447,1,1,1s1-0.447,1-1V21
			C46.021,20.447,45.574,20,45.021,20z"/>
		<path style="fill:#F0C419;" d="M48.021,18c-0.553,0-1,0.447-1,1v14c0,0.553,0.447,1,1,1s1-0.447,1-1V19
			C49.021,18.447,48.574,18,48.021,18z"/>
		<path style="fill:#F0C419;" d="M9.021,23v6c0,0.553,0.447,1,1,1s1-0.447,1-1v-6c0-0.553-0.447-1-1-1S9.021,22.447,9.021,23z"/>
		<path style="fill:#F0C419;" d="M6.021,21v10c0,0.553,0.447,1,1,1s1-0.447,1-1V21c0-0.553-0.447-1-1-1S6.021,20.447,6.021,21z"/>
		<path style="fill:#F0C419;" d="M5.021,33V19c0-0.553-0.447-1-1-1s-1,0.447-1,1v14c0,0.553,0.447,1,1,1S5.021,33.553,5.021,33z"/>
		<path style="fill:#F0C419;" d="M39.455,17.808c0.256,0,0.512-0.098,0.707-0.293c0.391-0.391,0.391-1.023,0-1.414l-4.242-4.242
			c-0.391-0.391-1.023-0.391-1.414,0s-0.391,1.023,0,1.414l4.242,4.242C38.944,17.71,39.2,17.808,39.455,17.808z"/>
		<path style="fill:#F0C419;" d="M42.285,16.808c0.195,0.195,0.451,0.293,0.707,0.293s0.512-0.098,0.707-0.293
			c0.391-0.391,0.391-1.023,0-1.414l-7.071-7.071c-0.391-0.391-1.023-0.391-1.414,0s-0.391,1.023,0,1.414L42.285,16.808z"/>
		<path style="fill:#F0C419;" d="M45.82,16.101c0.195,0.195,0.451,0.293,0.707,0.293s0.512-0.098,0.707-0.293
			c0.391-0.391,0.391-1.023,0-1.414l-9.899-9.899c-0.391-0.391-1.023-0.391-1.414,0s-0.391,1.023,0,1.414L45.82,16.101z"/>
		<path style="fill:#F0C419;" d="M13.293,34.485c-0.391-0.391-1.023-0.391-1.414,0s-0.391,1.023,0,1.414l4.242,4.242
			c0.195,0.195,0.451,0.293,0.707,0.293s0.512-0.098,0.707-0.293c0.391-0.391,0.391-1.023,0-1.414L13.293,34.485z"/>
		<path style="fill:#F0C419;" d="M9.757,35.192c-0.391-0.391-1.023-0.391-1.414,0c-0.391,0.391-0.391,1.023,0,1.414l7.071,7.071
			c0.195,0.195,0.451,0.293,0.707,0.293s0.512-0.098,0.707-0.293c0.391-0.391,0.391-1.023,0-1.414L9.757,35.192z"/>
		<path style="fill:#F0C419;" d="M6.222,35.899c-0.391-0.391-1.023-0.391-1.414,0s-0.391,1.023,0,1.414l9.899,9.899
			c0.195,0.195,0.451,0.293,0.707,0.293s0.512-0.098,0.707-0.293c0.391-0.391,0.391-1.023,0-1.414L6.222,35.899z"/>
		<path style="fill:#F0C419;" d="M36.661,40.389l4.242-4.242c0.391-0.391,0.391-1.023,0-1.414s-1.023-0.391-1.414,0l-4.242,4.242
			c-0.391,0.391-0.391,1.023,0,1.414c0.195,0.195,0.451,0.293,0.707,0.293S36.466,40.584,36.661,40.389z"/>
		<path style="fill:#F0C419;" d="M37.369,43.925l7.07-7.071c0.391-0.391,0.391-1.023,0-1.414s-1.023-0.391-1.414,0l-7.07,7.071
			c-0.391,0.391-0.391,1.023,0,1.414c0.195,0.195,0.451,0.293,0.707,0.293S37.173,44.12,37.369,43.925z"/>
		<path style="fill:#F0C419;" d="M46.561,36.146l-9.899,9.899c-0.391,0.391-0.391,1.023,0,1.414
			c0.195,0.195,0.451,0.293,0.707,0.293s0.512-0.098,0.707-0.293l9.899-9.899c0.391-0.391,0.391-1.023,0-1.414
			S46.952,35.756,46.561,36.146z"/>
		<path style="fill:#F0C419;" d="M16.121,11.364l-4.242,4.242c-0.391,0.391-0.391,1.023,0,1.414
			c0.195,0.195,0.451,0.293,0.707,0.293s0.512-0.098,0.707-0.293l4.242-4.242c0.391-0.391,0.391-1.023,0-1.414
			S16.512,10.974,16.121,11.364z"/>
		<path style="fill:#F0C419;" d="M15.414,7.828l-7.071,7.071c-0.391,0.391-0.391,1.023,0,1.414c0.195,0.195,0.451,0.293,0.707,0.293
			s0.512-0.098,0.707-0.293l7.071-7.071c0.391-0.391,0.391-1.023,0-1.414S15.805,7.438,15.414,7.828z"/>
		<path style="fill:#F0C419;" d="M5.515,15.899c0.256,0,0.512-0.098,0.707-0.293l9.899-9.899c0.391-0.391,0.391-1.023,0-1.414
			s-1.023-0.391-1.414,0l-9.899,9.899c-0.391,0.391-0.391,1.023,0,1.414C5.003,15.802,5.259,15.899,5.515,15.899z"/>
	</g>
	<circle style="fill:#2C2F38;" cx="26.021" cy="19" r="2"/>
	<path style="fill:#2C2F38;" d="M36.012,17.78c-0.311,2.06-1.233,3.961-2.692,5.462c-1.797,1.848-4.181,2.875-6.722,2.898
		c-1.509,0.014-3.019,0.291-4.359,1.003c-0.06,0.032-0.119,0.064-0.178,0.097c-4.719,2.623-3.728,10.087,1.483,11.395
		c1.581,0.397,3.281,0.484,5.036,0.193c5.077-0.839,9.221-4.942,10.199-10.133C39.566,24.517,38.375,20.618,36.012,17.78z
		 M26.021,34c-1.105,0-2-0.896-2-2c0-1.105,0.895-2,2-2s2,0.895,2,2C28.021,33.104,27.125,34,26.021,34z"/>
</g>
<g>
</g>
<g>
</g>
<g>
</g>
<g>
</g>
<g>
</g>
<g>
</g>
<g>
</g>
<g>
</g>
<g>
</g>
<g>
</g>
<g>
</g>
<g>
</g>
<g>
</g>
<g>
</g>
<g>
</g>
</svg>
