<?xml version="1.0" encoding="iso-8859-1"?>
<!-- Generator: Adobe Illustrator 18.0.0, SVG Export Plug-In . SVG Version: 6.00 Build 0)  -->
<!DOCTYPE svg PUBLIC "-//W3C//DTD SVG 1.1//EN" "http://www.w3.org/Graphics/SVG/1.1/DTD/svg11.dtd">
<svg version="1.1" id="Capa_1" xmlns="http://www.w3.org/2000/svg" xmlns:xlink="http://www.w3.org/1999/xlink" x="0px" y="0px"
	 viewBox="0 0 56 56" style="enable-background:new 0 0 56 56;" xml:space="preserve">
<g>
	<path style="fill:#805333;" d="M39,56H16v0c0-3.866,3.134-7,7-7h9C35.866,49,39,52.134,39,56L39,56z"/>
	<path style="fill:#CB8252;" d="M28,51L28,51C17.507,51,9,42.493,9,32v0c0-1.105,0.895-2,2-2h34c1.105,0,2,0.895,2,2v0
		C47,42.493,38.493,51,28,51z"/>
	<path style="fill:#C03A2B;" d="M43.836,30C44.584,27.52,45,24.823,45,22C45,9.85,37.389,0,28,0S11,9.85,11,22
		c0,2.823,0.416,5.52,1.164,8H43.836z"/>
	<path style="fill:#E59F77;" d="M27.615,47.353c-5.95,0-11.128-4.437-11.896-10.491c-0.069-0.548,0.318-1.049,0.866-1.118
		c0.55-0.062,1.048,0.319,1.118,0.866c0.694,5.471,5.715,9.352,11.178,8.663c0.555-0.062,1.049,0.319,1.118,0.866
		c0.069,0.548-0.318,1.049-0.866,1.118C28.623,47.321,28.116,47.353,27.615,47.353z"/>
	<path style="fill:#D8665D;" d="M43.512,13.001c-4.171-3.888-10.916-4.335-15.628-0.729c-2.066,1.579-4.677,2.254-7.356,1.896
		c-2.677-0.356-5.022-1.691-6.602-3.757l-0.581,0.444c-0.195,0.428-0.378,0.865-0.55,1.31c1.885,2.177,4.505,3.59,7.47,3.986
		c0.559,0.074,1.115,0.111,1.667,0.111c2.614-0.001,5.112-0.829,7.169-2.402c4.292-3.282,10.884-2.466,14.106,1.748l0.891-0.681
		C43.924,14.27,43.729,13.628,43.512,13.001z"/>
	<path style="fill:#D8665D;" d="M36.872,19.734c-3.572-0.33-7.153,0.653-9.82,2.693c-4.687,3.582-11.675,2.65-15.257-2.035
		l-0.775,0.592C11.008,21.322,11,21.66,11,22c0,0.184,0.016,0.363,0.02,0.546c2.487,2.651,5.979,4.054,9.494,4.054
		c2.731-0.001,5.472-0.841,7.752-2.585c2.273-1.738,5.341-2.573,8.422-2.29c3.108,0.285,5.848,1.7,7.517,3.882l0.601-0.46
		c0.064-0.57,0.112-1.146,0.141-1.729C42.933,21.352,40.059,20.027,36.872,19.734z"/>
</g>
<g>
</g>
<g>
</g>
<g>
</g>
<g>
</g>
<g>
</g>
<g>
</g>
<g>
</g>
<g>
</g>
<g>
</g>
<g>
</g>
<g>
</g>
<g>
</g>
<g>
</g>
<g>
</g>
<g>
</g>
</svg>
