<?xml version="1.0" encoding="iso-8859-1"?>
<!-- Generator: Adobe Illustrator 18.0.0, SVG Export Plug-In . SVG Version: 6.00 Build 0)  -->
<!DOCTYPE svg PUBLIC "-//W3C//DTD SVG 1.1//EN" "http://www.w3.org/Graphics/SVG/1.1/DTD/svg11.dtd">
<svg version="1.1" id="Capa_1" xmlns="http://www.w3.org/2000/svg" xmlns:xlink="http://www.w3.org/1999/xlink" x="0px" y="0px"
	 viewBox="0 0 56 56" style="enable-background:new 0 0 56 56;" xml:space="preserve">
<g>
	<circle style="fill:#FBD490;" cx="28" cy="28" r="28"/>
	<circle style="fill:#D3B27D;" cx="19" cy="23" r="5"/>
	<circle style="fill:#D3B27D;" cx="37" cy="15" r="4"/>
	<circle style="fill:#D3B27D;" cx="31.5" cy="5.5" r="2.5"/>
	<circle style="fill:#D3B27D;" cx="6.5" cy="29.5" r="2.5"/>
	<circle style="fill:#D3B27D;" cx="9.5" cy="14.5" r="2.5"/>
	<path style="fill:#D3B27D;" d="M51,19c1.203,0,2.27-0.542,3.003-1.383c-0.942-2.357-2.191-4.556-3.704-6.546
		C48.425,11.403,47,13.031,47,15C47,17.209,48.791,19,51,19z"/>
	<path style="fill:#D3B27D;" d="M19,6c2.761,0,5-2.239,5-5c0-0.24-0.038-0.471-0.071-0.702c-3.323,0.484-6.458,1.548-9.295,3.093
		C15.484,4.938,17.11,6,19,6z"/>
</g>
<g>
</g>
<g>
</g>
<g>
</g>
<g>
</g>
<g>
</g>
<g>
</g>
<g>
</g>
<g>
</g>
<g>
</g>
<g>
</g>
<g>
</g>
<g>
</g>
<g>
</g>
<g>
</g>
<g>
</g>
</svg>
