<?xml version="1.0" encoding="iso-8859-1"?>
<!-- Generator: Adobe Illustrator 18.0.0, SVG Export Plug-In . SVG Version: 6.00 Build 0)  -->
<!DOCTYPE svg PUBLIC "-//W3C//DTD SVG 1.1//EN" "http://www.w3.org/Graphics/SVG/1.1/DTD/svg11.dtd">
<svg version="1.1" id="Capa_1" xmlns="http://www.w3.org/2000/svg" xmlns:xlink="http://www.w3.org/1999/xlink" x="0px" y="0px"
	 viewBox="0 0 57 57" style="enable-background:new 0 0 57 57;" xml:space="preserve">
<g>
	<path style="fill:#D1D4D1;" d="M13,17c-0.553,0-1-0.448-1-1V1c0-0.552,0.447-1,1-1s1,0.448,1,1v15C14,16.552,13.553,17,13,17z"/>
	<rect x="9" y="16" style="fill:#4C8056;" width="8" height="4"/>
	<path style="fill:#D1D4D1;" d="M32,29c-0.553,0-1-0.448-1-1V1c0-0.552,0.447-1,1-1s1,0.448,1,1v27C33,28.552,32.553,29,32,29z"/>
	<rect x="29.5" y="28" style="fill:#B77620;" width="5" height="4"/>
	<path style="fill:#D1D4D1;" d="M47,19c-0.553,0-1-0.448-1-1V1c0-0.552,0.447-1,1-1s1,0.448,1,1v17C48,18.552,47.553,19,47,19z"/>
	<rect x="43" y="18" style="fill:#872821;" width="8" height="4"/>
	<circle style="fill:#C97818;" cx="33" cy="44" r="13"/>
	<path style="fill:#24AE5F;" d="M25.945,33.091C25.975,32.73,26,32.368,26,32c0-7.18-5.82-13-13-13S0,24.82,0,32s5.82,13,13,13
		c2.603,0,5.022-0.773,7.055-2.091C20.398,38.79,22.658,35.221,25.945,33.091z"/>
	<path style="fill:#C03A2B;" d="M47,21c-5.523,0-10,4.477-10,10c0,0.221,0.029,0.434,0.046,0.65c3.69,1.208,6.644,4.021,8.052,7.616
		c0.258,0.532,0.489,1.079,0.677,1.648C46.177,40.966,46.584,41,47,41c5.523,0,10-4.477,10-10C57,25.477,52.523,21,47,21z"/>
	<path style="fill:#F7E27F;" d="M42,43h-2.132l0.964-1.445c0.307-0.459,0.183-1.081-0.277-1.387
		c-0.462-0.308-1.081-0.182-1.387,0.277L37.465,43H36c-0.021,0-0.039,0.011-0.06,0.012c-0.381-0.818-1.074-1.456-1.94-1.76v-1.717
		l2.555-1.703c0.46-0.306,0.584-0.927,0.277-1.387c-0.306-0.46-0.927-0.585-1.387-0.277L34,37.132V35c0-0.552-0.447-1-1-1
		s-1,0.448-1,1v2.132l-1.445-0.964c-0.462-0.308-1.082-0.183-1.387,0.277c-0.307,0.459-0.183,1.081,0.277,1.387L32,39.535v1.644
		c-0.961,0.262-1.762,0.925-2.18,1.821h-1.285l-1.703-2.555c-0.306-0.459-0.926-0.585-1.387-0.277
		c-0.46,0.306-0.584,0.927-0.277,1.387L26.132,43H24c-0.553,0-1,0.448-1,1s0.447,1,1,1h2.132l-0.964,1.445
		c-0.307,0.459-0.183,1.081,0.277,1.387C25.616,47.946,25.809,48,25.999,48c0.323,0,0.641-0.156,0.833-0.445L28.535,45h1.017
		c0.221,1.295,1.179,2.35,2.448,2.693v0.772l-2.555,1.703c-0.46,0.306-0.584,0.927-0.277,1.387C29.36,51.844,29.678,52,30.001,52
		c0.19,0,0.383-0.054,0.554-0.168L32,50.868V53c0,0.552,0.447,1,1,1s1-0.448,1-1v-2.132l1.445,0.964
		C35.616,51.946,35.809,52,35.999,52c0.323,0,0.641-0.156,0.833-0.445c0.307-0.459,0.183-1.081-0.277-1.387L34,48.465v-0.844
		c1.138-0.398,1.992-1.391,2.203-2.621h1.249l1.69,2.644c0.191,0.298,0.514,0.461,0.844,0.461c0.185,0,0.371-0.051,0.538-0.158
		c0.465-0.297,0.601-0.916,0.304-1.381L39.827,45H42c0.553,0,1-0.448,1-1S42.553,43,42,43z"/>
	<path style="fill:#FB7B76;" d="M53,33c-0.553,0-1-0.448-1-1c0-2.757-2.243-5-5-5c-0.553,0-1-0.448-1-1s0.447-1,1-1
		c3.859,0,7,3.14,7,7C54,32.552,53.553,33,53,33z"/>
	<polygon style="fill:#257545;" points="13,23.056 15.629,28.382 21.507,29.236 17.253,33.382 18.257,39.236 13,36.472 
		7.743,39.236 8.747,33.382 4.493,29.236 10.371,28.382 	"/>
</g>
<g>
</g>
<g>
</g>
<g>
</g>
<g>
</g>
<g>
</g>
<g>
</g>
<g>
</g>
<g>
</g>
<g>
</g>
<g>
</g>
<g>
</g>
<g>
</g>
<g>
</g>
<g>
</g>
<g>
</g>
</svg>
