<?xml version="1.0" encoding="iso-8859-1"?>
<!-- Generator: Adobe Illustrator 18.0.0, SVG Export Plug-In . SVG Version: 6.00 Build 0)  -->
<!DOCTYPE svg PUBLIC "-//W3C//DTD SVG 1.1//EN" "http://www.w3.org/Graphics/SVG/1.1/DTD/svg11.dtd">
<svg version="1.1" id="Capa_1" xmlns="http://www.w3.org/2000/svg" xmlns:xlink="http://www.w3.org/1999/xlink" x="0px" y="0px"
	 viewBox="0 0 56.412 56.412" style="enable-background:new 0 0 56.412 56.412;" xml:space="preserve">
<g>
	<path style="fill:#805333;" d="M28.194,36.125L55.253,3.262c0.697-0.857,0.568-2.116-0.289-2.814l0,0
		c-0.857-0.697-2.116-0.568-2.814,0.289L25.092,33.6C26.345,34.126,27.425,35.005,28.194,36.125z"/>
	<path style="fill:#F0C419;" d="M25.306,48.83c1.079-2.137,1.673-5.338,1.822-8.654l-5.318,1.816
		c-0.62,0.212-1.248-0.299-1.166-0.949l0.706-5.647c-2.809,0.637-10.06,3.084-14.17,11.838c-1.553,3.308-3.693,6.307-6.47,8.682l0,0
		c0,0-0.368,2.088,14.55-3.249c0.408-0.146,0.774,0.301,0.551,0.673l-0.484,1.296c-0.4,1.071,0.665,2.107,1.724,1.676
		C20.601,54.871,23.579,52.249,25.306,48.83z"/>
	<path style="fill:#CB8252;" d="M20.644,41.043l0.995-7.953h0c3.885-0.399,7.357,2.427,7.756,6.312l0,0l-7.585,2.591
		C21.19,42.204,20.563,41.693,20.644,41.043z"/>
</g>
<g>
</g>
<g>
</g>
<g>
</g>
<g>
</g>
<g>
</g>
<g>
</g>
<g>
</g>
<g>
</g>
<g>
</g>
<g>
</g>
<g>
</g>
<g>
</g>
<g>
</g>
<g>
</g>
<g>
</g>
</svg>
