<?xml version="1.0" encoding="iso-8859-1"?>
<!-- Generator: Adobe Illustrator 18.0.0, SVG Export Plug-In . SVG Version: 6.00 Build 0)  -->
<!DOCTYPE svg PUBLIC "-//W3C//DTD SVG 1.1//EN" "http://www.w3.org/Graphics/SVG/1.1/DTD/svg11.dtd">
<svg version="1.1" id="Capa_1" xmlns="http://www.w3.org/2000/svg" xmlns:xlink="http://www.w3.org/1999/xlink" x="0px" y="0px"
	 viewBox="0 0 58 58" style="enable-background:new 0 0 58 58;" xml:space="preserve">
<g>
	<g>
		<path style="fill:#556080;" d="M14.896,23.57l8.513,6.236C23.588,29.938,23.794,30,23.999,30c0.308,0,0.612-0.142,0.808-0.409
			c0.327-0.445,0.23-1.071-0.216-1.397l-8.525-6.245C14.772,21.031,14,19.537,14,17.952V1c0-0.553-0.448-1-1-1s-1,0.447-1,1v16.952
			C12,20.185,13.088,22.288,14.896,23.57z"/>
		<path style="fill:#556080;" d="M21.503,48.393c-1.102-2.021-0.873-4.465,0.58-6.243l3.605-3.424
			c0.4-0.381,0.417-1.014,0.037-1.414c-0.381-0.401-1.014-0.417-1.414-0.037l-3.649,3.466l-0.08,0.085
			c-2.014,2.417-2.342,5.763-0.835,8.524l4.434,8.129C24.362,57.812,24.705,58,25.06,58c0.162,0,0.326-0.039,0.478-0.122
			c0.485-0.265,0.664-0.872,0.399-1.356L21.503,48.393z"/>
		<path style="fill:#556080;" d="M23.932,34.638c-0.2-0.514-0.777-0.772-1.294-0.569l-9.174,3.565
			c-1.56,0.693-2.617,2.182-2.759,3.883L9.788,52.525c-0.046,0.551,0.363,1.033,0.914,1.079c0.028,0.003,0.056,0.004,0.084,0.004
			c0.515,0,0.952-0.395,0.996-0.917l0.917-11.009c0.081-0.974,0.686-1.824,1.534-2.203l9.13-3.548
			C23.877,35.732,24.132,35.152,23.932,34.638z"/>
		<path style="fill:#556080;" d="M12.978,30.153l9.746,2.808C22.816,32.987,22.909,33,23.001,33c0.434,0,0.834-0.285,0.96-0.724
			c0.153-0.53-0.153-1.084-0.684-1.237l-9.735-2.805c-1.358-0.407-2.515-1.297-3.258-2.504L2.852,13.652
			c-0.29-0.47-0.906-0.618-1.375-0.327c-0.471,0.289-0.617,0.905-0.328,1.376l7.433,12.078
			C9.581,28.404,11.138,29.602,12.978,30.153z"/>
		<path style="fill:#556080;" d="M34.001,30c0.205,0,0.412-0.063,0.59-0.193l8.501-6.228C44.912,22.288,46,20.185,46,17.952V1
			c0-0.553-0.448-1-1-1s-1,0.447-1,1v16.952c0,1.585-0.772,3.079-2.078,4.005l-8.513,6.236c-0.446,0.326-0.542,0.952-0.216,1.397
			C33.389,29.858,33.693,30,34.001,30z"/>
		<path style="fill:#556080;" d="M33.688,37.274c-0.399-0.379-1.032-0.364-1.414,0.037c-0.38,0.4-0.364,1.033,0.037,1.414
			l3.605,3.424c1.453,1.778,1.682,4.223,0.581,6.243l-4.434,8.129c-0.265,0.484-0.086,1.092,0.399,1.356
			C32.615,57.961,32.779,58,32.94,58c0.354,0,0.697-0.188,0.879-0.521l4.434-8.129c1.506-2.762,1.178-6.107-0.836-8.524
			L33.688,37.274z"/>
		<path style="fill:#556080;" d="M44.493,37.616l-9.13-3.548c-0.514-0.203-1.094,0.055-1.294,0.569s0.055,1.095,0.57,1.294
			l9.086,3.53c0.892,0.396,1.497,1.247,1.578,2.221l0.917,11.009c0.043,0.522,0.481,0.917,0.996,0.917
			c0.028,0,0.056-0.001,0.084-0.004c0.55-0.046,0.959-0.528,0.914-1.079l-0.917-11.009C47.153,39.815,46.096,38.327,44.493,37.616z"
			/>
		<path style="fill:#556080;" d="M56.524,13.325c-0.47-0.291-1.086-0.143-1.375,0.327L47.716,25.73
			c-0.743,1.207-1.899,2.097-3.247,2.501l-9.746,2.808c-0.531,0.153-0.837,0.707-0.684,1.237C34.165,32.715,34.565,33,34.999,33
			c0.092,0,0.185-0.013,0.277-0.039l9.756-2.811c1.828-0.549,3.386-1.746,4.386-3.371l7.433-12.078
			C57.141,14.23,56.994,13.614,56.524,13.325z"/>
	</g>
	<ellipse style="fill:#556080;" cx="29" cy="15.353" rx="9.333" ry="13.176"/>
	<ellipse style="fill:#2C2F38;" cx="29" cy="33.392" rx="7.137" ry="6.039"/>
	<path style="fill:#2C2F38;" d="M32,49c-0.256,0-0.512-0.098-0.707-0.293c-0.391-0.391-0.391-1.023,0-1.414
		c0.428-0.428,0.673-1.081,0.673-1.793s-0.246-1.365-0.673-1.793c-0.391-0.391-0.391-1.023,0-1.414s1.023-0.391,1.414,0
		c0.8,0.8,1.259,1.969,1.259,3.207s-0.459,2.407-1.259,3.207C32.512,48.902,32.256,49,32,49z"/>
	<path style="fill:#2C2F38;" d="M26,49c-0.256,0-0.512-0.098-0.707-0.293c-0.8-0.8-1.259-1.969-1.259-3.207s0.459-2.407,1.259-3.207
		c0.39-0.391,1.023-0.391,1.414,0s0.391,1.023,0,1.414c-0.427,0.428-0.673,1.081-0.673,1.793s0.245,1.365,0.673,1.793
		c0.391,0.391,0.391,1.023,0,1.414C26.512,48.902,26.256,49,26,49z"/>
	<path style="fill:#556080;" d="M29,39.432c-1.167,0-2.266-0.242-3.238-0.662c-0.378,0.51-0.605,1.111-0.605,1.76
		c0,1.819,1.721,3.294,3.843,3.294s3.843-1.475,3.843-3.294c0-0.649-0.227-1.25-0.605-1.76C31.266,39.19,30.167,39.432,29,39.432z"
		/>
	<g>
		<path style="fill:#E64C3C;" d="M25,11.354h8c0.552,0,1-0.447,1-1s-0.448-1-1-1h-8c-0.552,0-1,0.447-1,1S24.448,11.354,25,11.354z"
			/>
		<path style="fill:#E64C3C;" d="M35,13.354H23c-0.552,0-1,0.447-1,1s0.448,1,1,1h12c0.552,0,1-0.447,1-1S35.552,13.354,35,13.354z"
			/>
		<path style="fill:#E64C3C;" d="M28,7.354h2c0.552,0,1-0.447,1-1s-0.448-1-1-1h-2c-0.552,0-1,0.447-1,1S27.448,7.354,28,7.354z"/>
	</g>
</g>
<g>
</g>
<g>
</g>
<g>
</g>
<g>
</g>
<g>
</g>
<g>
</g>
<g>
</g>
<g>
</g>
<g>
</g>
<g>
</g>
<g>
</g>
<g>
</g>
<g>
</g>
<g>
</g>
<g>
</g>
</svg>
