<?xml version="1.0" encoding="iso-8859-1"?>
<!-- Generator: Adobe Illustrator 18.0.0, SVG Export Plug-In . SVG Version: 6.00 Build 0)  -->
<!DOCTYPE svg PUBLIC "-//W3C//DTD SVG 1.1//EN" "http://www.w3.org/Graphics/SVG/1.1/DTD/svg11.dtd">
<svg version="1.1" id="Capa_1" xmlns="http://www.w3.org/2000/svg" xmlns:xlink="http://www.w3.org/1999/xlink" x="0px" y="0px"
	 viewBox="0 0 60 60" style="enable-background:new 0 0 60 60;" xml:space="preserve">
<g>
	<path style="fill:#D1D4D1;" d="M30.485,5.342L30.485,5.342c2.404,6.761,10.127,9.96,16.608,6.879l0,0
		c0.437-0.208,0.893,0.248,0.685,0.685l0,0c-3.081,6.481,0.118,14.204,6.879,16.608l0,0c0.456,0.162,0.456,0.807,0,0.969l0,0
		c-6.761,2.404-9.96,10.127-6.879,16.608l0,0c0.208,0.437-0.248,0.893-0.685,0.685l0,0c-6.481-3.081-14.204,0.118-16.608,6.879l0,0
		c-0.162,0.456-0.807,0.456-0.969,0l0,0c-2.404-6.761-10.127-9.96-16.608-6.879l0,0c-0.437,0.208-0.893-0.248-0.685-0.685l0,0
		c3.081-6.481-0.118-14.204-6.879-16.608l0,0c-0.456-0.162-0.456-0.807,0-0.969l0,0c6.761-2.404,9.96-10.127,6.879-16.608l0,0
		c-0.208-0.437,0.248-0.893,0.685-0.685l0,0c6.481,3.081,14.204-0.118,16.608-6.879l0,0C29.678,4.886,30.322,4.886,30.485,5.342z"/>
	<path style="fill:#A5A5A4;" d="M30,40.088c-2.166-1.385-4.577-2.396-7.128-2.963c-0.276-1.255-0.663-2.491-1.161-3.693
		s-1.099-2.35-1.79-3.432c0.691-1.082,1.292-2.229,1.79-3.432c0.498-1.203,0.885-2.438,1.161-3.693
		c2.551-0.566,4.962-1.578,7.128-2.963c2.166,1.385,4.577,2.396,7.128,2.963c0.276,1.255,0.663,2.49,1.161,3.693
		c0.498,1.202,1.099,2.35,1.79,3.432c-0.691,1.082-1.292,2.229-1.79,3.432s-0.885,2.438-1.161,3.693
		C34.577,37.691,32.166,38.703,30,40.088z"/>
	<path style="fill:#BDC3C7;" d="M59,29H32.414l18.799-18.799c0.391-0.391,0.391-1.023,0-1.414s-1.023-0.391-1.414,0L31.451,27.135
		L31,0.982C30.99,0.431,30.506,0.016,29.982,0C29.431,0.01,28.99,0.465,29,1.018l0.466,27.034L10.201,8.787
		c-0.391-0.391-1.023-0.391-1.414,0s-0.391,1.023,0,1.414L27.586,29H1c-0.553,0-1,0.447-1,1s0.447,1,1,1h26.586L8.787,49.799
		c-0.391,0.391-0.391,1.023,0,1.414c0.195,0.195,0.451,0.293,0.707,0.293s0.512-0.098,0.707-0.293l19.331-19.331L30,59.018
		C30.01,59.563,30.455,60,31,60c0.006,0,0.012,0,0.018,0c0.552-0.01,0.992-0.465,0.982-1.018l-0.448-26.017l18.247,18.247
		c0.195,0.195,0.451,0.293,0.707,0.293s0.512-0.098,0.707-0.293c0.391-0.391,0.391-1.023,0-1.414L32.414,31H59c0.553,0,1-0.447,1-1
		S59.553,29,59,29z"/>
</g>
<g>
</g>
<g>
</g>
<g>
</g>
<g>
</g>
<g>
</g>
<g>
</g>
<g>
</g>
<g>
</g>
<g>
</g>
<g>
</g>
<g>
</g>
<g>
</g>
<g>
</g>
<g>
</g>
<g>
</g>
</svg>
