<?xml version="1.0" encoding="iso-8859-1"?>
<!-- Generator: Adobe Illustrator 18.0.0, SVG Export Plug-In . SVG Version: 6.00 Build 0)  -->
<!DOCTYPE svg PUBLIC "-//W3C//DTD SVG 1.1//EN" "http://www.w3.org/Graphics/SVG/1.1/DTD/svg11.dtd">
<svg version="1.1" id="Capa_1" xmlns="http://www.w3.org/2000/svg" xmlns:xlink="http://www.w3.org/1999/xlink" x="0px" y="0px"
	 viewBox="0 0 60 60" style="enable-background:new 0 0 60 60;" xml:space="preserve">
<g>
	<path style="fill:#5B3922;" d="M33,3h-2V1c0-0.552-0.447-1-1-1s-1,0.448-1,1v2h-2c-0.553,0-1,0.448-1,1s0.447,1,1,1h2v5
		c0,0.552,0.447,1,1,1s1-0.448,1-1V5h2c0.553,0,1-0.448,1-1S33.553,3,33,3z"/>
	<polygon style="fill:#875736;" points="47,41 14,41 25,26 35,26 	"/>
	<rect x="26" y="18" style="fill:#5B3922;" width="8" height="8"/>
	<polygon style="fill:#875736;" points="36,18 24,18 28,10 32,10 	"/>
	<path style="fill:#5B3922;" d="M17,41v18h9v-7.5c0-2.485,2.015-4.5,4.5-4.5s4.5,2.015,4.5,4.5V59h9V41H17z"/>
	<rect x="27" y="31" style="fill:#5B3922;" width="6" height="5"/>
	<path style="fill:#805333;" d="M52,60H8c-0.553,0-1-0.448-1-1s0.447-1,1-1h44c0.553,0,1,0.448,1,1S52.553,60,52,60z"/>
</g>
<g>
</g>
<g>
</g>
<g>
</g>
<g>
</g>
<g>
</g>
<g>
</g>
<g>
</g>
<g>
</g>
<g>
</g>
<g>
</g>
<g>
</g>
<g>
</g>
<g>
</g>
<g>
</g>
<g>
</g>
</svg>
