<?xml version="1.0" encoding="iso-8859-1"?>
<!-- Generator: Adobe Illustrator 18.0.0, SVG Export Plug-In . SVG Version: 6.00 Build 0)  -->
<!DOCTYPE svg PUBLIC "-//W3C//DTD SVG 1.1//EN" "http://www.w3.org/Graphics/SVG/1.1/DTD/svg11.dtd">
<svg version="1.1" id="Capa_1" xmlns="http://www.w3.org/2000/svg" xmlns:xlink="http://www.w3.org/1999/xlink" x="0px" y="0px"
	 viewBox="0 0 58 58" style="enable-background:new 0 0 58 58;" xml:space="preserve">
<g>
	<path style="fill:#CB8252;" d="M48,33c0,2.577-2.423,5-5,5s-5-2.423-5-5c0,2.577-1.756,5-4.333,5S29,35.577,29,33
		c0,2.577-2.089,5-4.667,5S20,35.577,20,33c0,2.577-2.423,5-5,5s-5-2.423-5-5c0,2.111-1.077,4.207-3,4.783V57h44V37.783
		C49.077,37.207,48,35.111,48,33z"/>
	<path style="fill:#E9E7E9;" d="M24,55.5v-10c0-2.475-2.025-4.5-4.5-4.5S15,43.025,15,45.5v10c0,0.528,0.109,1.028,0.278,1.5h8.444
		C23.891,56.528,24,56.028,24,55.5z"/>
	<rect x="31" y="41" style="fill:#E9E7E9;" width="12" height="12"/>
	<rect x="34" style="fill:#CB8252;" width="7" height="8"/>
	<path style="fill:#B26C46;" d="M53.719,17.19c-0.647,1.47-1.901,2.31-3.64,2.31c-1.718,0-3.179-1.014-4.087-2.379
		c-0.922,1.365-2.405,2.379-4.149,2.379c-1.722,0-3.107-1.004-3.949-2.377c-1.03,1.391-2.65,2.377-4.288,2.377
		c-1.659,0-3.336-0.99-4.418-2.368c-0.779,1.375-2.092,2.368-3.818,2.368c-1.661,0-3.267-0.967-4.284-2.354
		c-0.846,1.361-2.232,2.354-3.953,2.354c-1.736,0-3.213-1.014-4.131-2.379c-0.912,1.365-2.38,2.379-4.105,2.379
		c-1.988,0-3.696-1.103-4.543-2.695l-1.448,7.527c0.461,0.089,0.815,0.476,0.815,0.963c0,1.779,1.39,3.121,3.232,3.121
		C8.861,28.417,10,26.679,10,25c0-0.552,0.448-1,1-1s1,0.448,1,1c0,1.724,1.865,3.417,3.766,3.417C17.701,28.417,19,26.65,19,25
		c0-0.552,0.448-1,1-1s1,0.448,1,1c0,1.756,1.738,3.417,3.577,3.417C26.369,28.417,28,26.788,28,25c0-0.552,0.448-1,1-1s1,0.448,1,1
		c0,1.82,1.583,3.417,3.389,3.417C35.245,28.417,37,26.756,37,25c0-0.552,0.448-1,1-1s1,0.448,1,1c0,1.65,1.286,3.417,3.2,3.417
		c1.882,0,3.8-1.724,3.8-3.417c0-0.552,0.447-1,1-1s1,0.448,1,1c0,1.679,1.126,3.417,3.011,3.417c1.832,0,3.267-1.371,3.267-3.121
		c0-0.486,0.353-0.871,0.813-0.962c0.001-0.001,0.002-0.001,0.002-0.001L53.719,17.19z"/>
	<path style="fill:#9B593D;" d="M55.718,27.587c-0.001,0-0.002,0-0.003,0c-0.853,1.685-2.608,2.83-4.705,2.83
		c-1.872,0-3.294-0.981-4.137-2.337c-1.085,1.384-2.83,2.337-4.674,2.337c-1.774,0-3.343-0.93-4.282-2.347
		c-1.049,1.389-2.74,2.347-4.529,2.347c-1.796,0-3.422-0.938-4.407-2.344c-1.002,1.396-2.637,2.344-4.405,2.344
		c-1.81,0-3.483-0.938-4.516-2.325c-0.947,1.404-2.519,2.325-4.295,2.325c-1.833,0-3.568-0.953-4.646-2.337
		c-0.849,1.357-2.281,2.337-4.165,2.337c-2.082,0-3.825-1.144-4.673-2.828l-1.147,5.964c-0.135,0.785-0.131,1.605,0.137,2.355
		C1.918,37.71,3.642,39,5.667,39C8.244,39,10,36.577,10,34c0,2.577,2.423,5,5,5s5-2.423,5-5c0,2.577,1.756,5,4.333,5
		S29,36.577,29,34c0,2.577,2.089,5,4.667,5S38,36.577,38,34c0,2.577,2.423,5,5,5s5-2.423,5-5c0,2.577,1.756,5,4.333,5
		c2.025,0,3.749-1.29,4.395-3.093c0.269-0.75,0.273-1.57,0.137-2.355L55.718,27.587z"/>
	<path style="fill:#C1724F;" d="M5.78,14.595c0,1.602,1.399,2.905,3.118,2.905C10.617,17.5,12,15.585,12,14c0-0.552,0.448-1,1-1
		s1,0.448,1,1c0,1.585,1.398,3.5,3.134,3.5C18.774,17.5,20,15.652,20,14c0-0.552,0.448-1,1-1s1,0.448,1,1
		c0,1.701,1.732,3.5,3.371,3.5C26.995,17.5,28,15.683,28,14c0-0.552,0.448-1,1-1s1,0.448,1,1c0,1.636,1.921,3.5,3.607,3.5
		C35.256,17.5,37,15.701,37,14c0-0.552,0.448-1,1-1s1,0.448,1,1c0,1.655,1.167,3.5,2.843,3.5C43.592,17.5,45,15.585,45,14
		c0-0.552,0.447-1,1-1s1,0.448,1,1c0,1.585,1.373,3.5,3.079,3.5c0.529,0,2.141,0,2.141-2.905c0-0.487,0.354-0.873,0.815-0.963
		l-0.616-3.204C52.177,9.025,50.96,8,49.537,8H8.463c-1.423,0-2.64,1.025-2.882,2.428l-0.616,3.204
		C5.426,13.722,5.78,14.108,5.78,14.595z"/>
	<path style="fill:#E9E7E9;" d="M4.355,16.805C5.202,18.397,6.91,19.5,8.898,19.5c1.725,0,3.193-1.014,4.105-2.379
		c0.917,1.365,2.395,2.379,4.131,2.379c1.72,0,3.106-0.993,3.953-2.354c1.017,1.387,2.623,2.354,4.284,2.354
		c1.727,0,3.04-0.993,3.818-2.368c1.082,1.377,2.759,2.368,4.418,2.368c1.638,0,3.257-0.986,4.288-2.377
		c0.841,1.373,2.227,2.377,3.949,2.377c1.744,0,3.227-1.014,4.149-2.379c0.908,1.365,2.369,2.379,4.087,2.379
		c1.739,0,2.993-0.84,3.64-2.31l-0.684-3.558c-0.461,0.089-0.815,0.476-0.815,0.963c0,2.905-1.611,2.905-2.141,2.905
		C48.373,17.5,47,15.585,47,14c0-0.552-0.447-1-1-1s-1,0.448-1,1c0,1.585-1.408,3.5-3.157,3.5C40.167,17.5,39,15.655,39,14
		c0-0.552-0.448-1-1-1s-1,0.448-1,1c0,1.701-1.744,3.5-3.393,3.5C31.921,17.5,30,15.636,30,14c0-0.552-0.448-1-1-1s-1,0.448-1,1
		c0,1.683-1.005,3.5-2.629,3.5C23.732,17.5,22,15.701,22,14c0-0.552-0.448-1-1-1s-1,0.448-1,1c0,1.652-1.226,3.5-2.866,3.5
		C15.398,17.5,14,15.585,14,14c0-0.552-0.448-1-1-1s-1,0.448-1,1c0,1.585-1.383,3.5-3.102,3.5c-1.719,0-3.118-1.303-3.118-2.905
		c0-0.487-0.355-0.873-0.815-0.963l-0.344,1.791l0.21-1.092L4.355,16.805z"/>
	<polygon style="fill:#E9E7E9;" points="4.831,14.331 4.621,15.423 4.355,16.805 	"/>
	
		<rect x="0.937" y="25.96" transform="matrix(0.1888 -0.982 0.982 0.1888 -23.3887 23.6059)" style="fill:#E9E7E9;" width="3.315" height="0"/>
	<path style="fill:#E9E7E9;" d="M6.955,30.417c1.884,0,3.316-0.98,4.165-2.337c1.079,1.384,2.813,2.337,4.646,2.337
		c1.776,0,3.349-0.92,4.295-2.325c1.032,1.386,2.706,2.325,4.516,2.325c1.768,0,3.402-0.948,4.405-2.344
		c0.985,1.405,2.61,2.344,4.407,2.344c1.789,0,3.48-0.958,4.529-2.347c0.939,1.417,2.508,2.347,4.282,2.347
		c1.845,0,3.589-0.954,4.674-2.337c0.843,1.356,2.265,2.337,4.137,2.337c2.098,0,3.854-1.147,4.707-2.833l-0.625-3.25
		c-0.461,0.089-0.815,0.476-0.815,0.963c0,1.75-1.435,3.121-3.267,3.121C49.126,28.417,48,26.679,48,25c0-0.552-0.447-1-1-1
		s-1,0.448-1,1c0,1.692-1.918,3.417-3.8,3.417c-1.914,0-3.2-1.767-3.2-3.417c0-0.552-0.448-1-1-1s-1,0.448-1,1
		c0,1.756-1.755,3.417-3.611,3.417C31.583,28.417,30,26.82,30,25c0-0.552-0.448-1-1-1s-1,0.448-1,1c0,1.788-1.631,3.417-3.423,3.417
		C22.738,28.417,21,26.756,21,25c0-0.552-0.448-1-1-1s-1,0.448-1,1c0,1.65-1.299,3.417-3.234,3.417C13.865,28.417,12,26.724,12,25
		c0-0.552-0.448-1-1-1s-1,0.448-1,1c0,1.679-1.139,3.417-3.045,3.417c-1.842,0-3.232-1.342-3.232-3.121
		c0-0.487-0.355-0.873-0.815-0.963l-0.626,3.255C3.129,29.272,4.873,30.417,6.955,30.417z"/>
	<rect x="4" y="56" style="fill:#C1724F;" width="50" height="2"/>
</g>
<g>
</g>
<g>
</g>
<g>
</g>
<g>
</g>
<g>
</g>
<g>
</g>
<g>
</g>
<g>
</g>
<g>
</g>
<g>
</g>
<g>
</g>
<g>
</g>
<g>
</g>
<g>
</g>
<g>
</g>
</svg>
