<?xml version="1.0" encoding="iso-8859-1"?>
<!-- Generator: Adobe Illustrator 18.0.0, SVG Export Plug-In . SVG Version: 6.00 Build 0)  -->
<!DOCTYPE svg PUBLIC "-//W3C//DTD SVG 1.1//EN" "http://www.w3.org/Graphics/SVG/1.1/DTD/svg11.dtd">
<svg version="1.1" id="Capa_1" xmlns="http://www.w3.org/2000/svg" xmlns:xlink="http://www.w3.org/1999/xlink" x="0px" y="0px"
	 viewBox="0 0 58.679 58.679" style="enable-background:new 0 0 58.679 58.679;" xml:space="preserve">
<g>
	<ellipse style="fill:#E57E25;" cx="29.339" cy="33.179" rx="28" ry="24.5"/>
	<path style="fill:#805333;" d="M28.075,39.714c-9.51,0.125-14.735-3.035-14.735-3.035s0.5,12.833,16,13c15.5-0.167,16-13,16-13
		s-5.225,3.16-14.735,3.035C29.761,39.703,28.918,39.703,28.075,39.714z"/>
	<path style="fill:#FBD490;" d="M25.87,8.873c1.138-0.123,2.294-0.194,3.469-0.194c1.005,0,1.997,0.049,2.974,0.139
		c-0.234-3.884-2.237-6.935-3.327-8.322c-0.385-0.49-1.065-0.633-1.622-0.355c-0.591,0.296-0.86,0.982-0.654,1.611
		C27.794,5.053,26.643,7.634,25.87,8.873z"/>
	<path style="fill:#F0C419;" d="M34.339,39.586v5.093l6-2v-4.095C38.714,39.013,36.706,39.395,34.339,39.586z"/>
	<path style="fill:#F0C419;" d="M24.339,39.586v5.093l-6-2v-4.095C19.964,39.013,21.972,39.395,24.339,39.586z"/>
	<path style="fill:#F0C419;" d="M17.556,30.327c3.276,2.052,7.596,1.06,9.648-2.216l-11.864-7.432
		C13.287,23.955,14.279,28.275,17.556,30.327z"/>
	<path style="fill:#F0C419;" d="M41.123,30.327c-3.276,2.052-7.596,1.06-9.648-2.216l11.864-7.432
		C45.392,23.955,44.399,28.275,41.123,30.327z"/>
	<path style="fill:#F0C419;" d="M26.339,49.465c0.934,0.124,1.927,0.202,3,0.213c1.073-0.011,2.066-0.089,3-0.213v-3.787h-6V49.465z
		"/>
	<g>
		<path style="fill:#B26226;" d="M43.321,49.082c-3.592,4.828-8.688,7.597-13.981,7.597c-7.636,0-14.503-5.622-17.495-14.323
			c-0.18-0.522-0.748-0.8-1.271-0.62s-0.8,0.748-0.62,1.271c3.273,9.521,10.884,15.673,19.386,15.673
			c5.932,0,11.612-3.063,15.587-8.403c0.329-0.442,0.237-1.069-0.206-1.399C44.278,48.548,43.651,48.641,43.321,49.082z"/>
		<path style="fill:#B26226;" d="M49.339,32.179c-0.553,0-1,0.447-1,1c0,2.131-0.231,4.245-0.688,6.281
			c-0.121,0.539,0.218,1.074,0.757,1.194c0.073,0.017,0.147,0.024,0.22,0.024c0.458,0,0.87-0.316,0.975-0.781
			c0.488-2.18,0.736-4.44,0.736-6.719C50.339,32.626,49.892,32.179,49.339,32.179z"/>
		<path style="fill:#B26226;" d="M29.524,7.686c-0.038-0.001-0.075-0.007-0.113-0.007c-0.009,0-0.019,0.001-0.028,0.002
			c-0.015,0-0.029-0.002-0.043-0.002c-9.116,0-17.14,7.061-19.966,17.569c-0.144,0.533,0.173,1.082,0.706,1.226
			c0.087,0.023,0.175,0.034,0.261,0.034c0.44,0,0.845-0.294,0.965-0.74c1.978-7.356,6.682-12.855,12.449-15.043
			c-1.207,1.387-2.305,3.215-3.23,5.443c-0.212,0.51,0.03,1.096,0.54,1.308c0.512,0.21,1.095-0.029,1.308-0.54
			c1.88-4.528,4.501-7.236,7.014-7.254c0.033,0,0.067,0.003,0.1,0.004c2.684,0.057,5.501,3.219,7.37,8.287
			c0.149,0.404,0.531,0.654,0.938,0.654c0.115,0,0.231-0.02,0.346-0.062c0.519-0.191,0.783-0.767,0.593-1.284
			c-0.983-2.666-2.185-4.835-3.534-6.433c3.713,1.5,7.032,4.391,9.409,8.351c0.284,0.474,0.897,0.627,1.372,0.343
			c0.474-0.284,0.627-0.898,0.343-1.372C42.417,11.66,36.148,7.757,29.524,7.686z"/>
	</g>
</g>
<g>
</g>
<g>
</g>
<g>
</g>
<g>
</g>
<g>
</g>
<g>
</g>
<g>
</g>
<g>
</g>
<g>
</g>
<g>
</g>
<g>
</g>
<g>
</g>
<g>
</g>
<g>
</g>
<g>
</g>
</svg>
