<?xml version="1.0" encoding="iso-8859-1"?>
<!-- Generator: Adobe Illustrator 18.0.0, SVG Export Plug-In . SVG Version: 6.00 Build 0)  -->
<!DOCTYPE svg PUBLIC "-//W3C//DTD SVG 1.1//EN" "http://www.w3.org/Graphics/SVG/1.1/DTD/svg11.dtd">
<svg version="1.1" id="Capa_1" xmlns="http://www.w3.org/2000/svg" xmlns:xlink="http://www.w3.org/1999/xlink" x="0px" y="0px"
	 viewBox="0 0 53.898 53.898" style="enable-background:new 0 0 53.898 53.898;" xml:space="preserve">
<g>
	<path style="fill:#D66F67;" d="M19.146,18.92l-0.487,0.487c-1.818,1.818-4.766,1.818-6.584,0l-0.487-0.487
		c-1.818-1.818-1.818-4.766,0-6.584l0.487-0.487c1.818-1.818,4.766-1.818,6.584,0l0.487,0.487
		C20.964,14.154,20.964,17.102,19.146,18.92z"/>
	<path style="fill:#C03A2B;" d="M12.075,19.407l-0.487-0.487c-1.071-1.071-1.493-2.531-1.303-3.924l-9.008,6.057
		c-1.451,0.829-1.716,2.81-0.535,3.992l5.208,5.208c1.181,1.181,3.163,0.916,3.992-0.535l6.057-9.008
		C14.606,20.9,13.146,20.477,12.075,19.407z"/>
	<path style="fill:#C03A2B;" d="M20.792,1.538l-6.057,9.008c1.393-0.19,2.853,0.233,3.924,1.303l0.487,0.487
		c1.071,1.071,1.493,2.531,1.303,3.924l9.008-6.057c1.451-0.829,1.716-2.81,0.535-3.992l-5.208-5.208
		C23.603-0.178,21.621,0.087,20.792,1.538z"/>
	<path style="fill:#F3D55B;" d="M33.906,34.167c-7.811,7.811-12.084,16.2-9.546,18.738s10.928-1.735,18.738-9.546
		c0.841-0.841,1.631-1.688,2.386-2.534c-0.643-1.769-0.269-3.825,1.15-5.244c1.07-1.07,2.502-1.532,3.901-1.429
		c2.686-4.358,3.636-8.005,2.11-9.531C50.106,22.082,41.717,26.356,33.906,34.167z"/>
	<path style="fill:#C49C1E;" d="M52.433,33.797c-1.953-1.953-5.118-1.953-7.071,0c-0.003,0.003-0.005,0.006-0.008,0.009
		c-0.074-0.075-0.153-0.147-0.252-0.197l-8.485-4.243c-0.496-0.247-1.095-0.046-1.342,0.447c-0.247,0.494-0.047,1.095,0.447,1.342
		l8.485,4.243c0.023,0.011,0.047,0.016,0.07,0.025c-0.747,1.811-0.388,3.972,1.084,5.444c1.953,1.953,5.118,1.953,7.071,0
		S54.386,35.749,52.433,33.797z"/>
	<g>
		<path style="fill:#F0C419;" d="M33.906,34.167c6.468-6.468,13.324-10.497,16.934-10.254l-0.479-0.117
			c-3.82-0.933-9.184-0.445-12.922-1.653c-3.987-1.288-6.344-4.285-10.29-5.706c-2.393-0.862-4.569-0.897-6.881,0.61
			c-0.219,0.683-0.579,1.331-1.121,1.873l-0.487,0.487c-0.542,0.542-1.19,0.903-1.873,1.121c-1.507,2.312-1.472,4.488-0.61,6.881
			c1.422,3.947,4.42,6.305,5.709,10.293c1.207,3.737,0.718,9.101,1.65,12.919l0.117,0.479C23.409,47.49,27.438,40.635,33.906,34.167
			z"/>
		<path style="fill:#F0C419;" d="M52.291,24.267l-0.214-0.052c0.046,0.024,0.083,0.058,0.127,0.084
			C52.233,24.289,52.262,24.277,52.291,24.267z"/>
		<path style="fill:#F0C419;" d="M23.954,52.337l0.052,0.214c0.01-0.029,0.022-0.057,0.032-0.087
			C24.012,52.421,23.978,52.384,23.954,52.337z"/>
	</g>
</g>
<g>
</g>
<g>
</g>
<g>
</g>
<g>
</g>
<g>
</g>
<g>
</g>
<g>
</g>
<g>
</g>
<g>
</g>
<g>
</g>
<g>
</g>
<g>
</g>
<g>
</g>
<g>
</g>
<g>
</g>
</svg>
