<?xml version="1.0" encoding="iso-8859-1"?>
<!-- Generator: Adobe Illustrator 18.0.0, SVG Export Plug-In . SVG Version: 6.00 Build 0)  -->
<!DOCTYPE svg PUBLIC "-//W3C//DTD SVG 1.1//EN" "http://www.w3.org/Graphics/SVG/1.1/DTD/svg11.dtd">
<svg version="1.1" id="Capa_1" xmlns="http://www.w3.org/2000/svg" xmlns:xlink="http://www.w3.org/1999/xlink" x="0px" y="0px"
	 viewBox="0 0 57.411 57.411" style="enable-background:new 0 0 57.411 57.411;" xml:space="preserve">
<g>
	<path style="fill:#C03A2B;" d="M13.096,2.254c0.123,0.089,0.246,0.181,0.37,0.278c2.331,1.825,3.778,4.556,4.238,7.481l0.797,5.072
		c0.111,0.706,1.014,0.943,1.452,0.377c1.516-1.955,1.111-1.828,1.918-2.756c0.5-0.575,0.996-1.106,1.515-1.56
		c2.075-1.815,5.281-0.475,5.364,2.281c0.048,1.603-0.344,3.479-1.879,5.11c0,0-7.845,8.477-6.933,12.13L4.134,33.152
		c0,0-3.557-13.233-3.939-18.614c0,0-0.924-5.506,1.256-9.759C3.63,0.527,9.219-0.537,13.096,2.254z"/>
	<path style="fill:#E6E7E8;" d="M5.527,42.01l16.794-2.641c2.173-0.342,3.672-2.4,3.33-4.573l-0.155-0.988
		c-0.342-2.173-2.4-3.672-4.573-3.33L4.129,33.119c-2.173,0.342-3.672,2.4-3.33,4.573l0.155,0.988
		C1.296,40.853,3.353,42.351,5.527,42.01z"/>
	<path style="fill:#C03A2B;" d="M46.532,15.998c-0.142,0.054-0.284,0.112-0.428,0.174c-2.72,1.17-4.816,3.442-6.007,6.152
		l-2.065,4.7c-0.288,0.655-1.221,0.653-1.501-0.006c-0.967-2.277-0.608-2.051-1.152-3.154c-0.337-0.683-0.681-1.324-1.067-1.894
		c-1.543-2.284-4.985-1.806-5.768,0.837c-0.456,1.537-0.555,3.451,0.513,5.42c0,0,5.422,10.198,3.609,13.497l14.649,6.435
		c0,0,6.815-11.888,8.558-16.993c0,0,2.298-5.088,1.275-9.757C56.126,16.744,50.993,14.289,46.532,15.998z"/>
	<path style="fill:#E6E7E8;" d="M43.709,56.369l-15.564-6.838c-2.014-0.885-2.938-3.257-2.053-5.271l0.402-0.916
		c0.885-2.014,3.257-2.938,5.271-2.053l15.564,6.838c2.014,0.885,2.938,3.257,2.053,5.271l-0.402,0.916
		C48.095,56.33,45.723,57.254,43.709,56.369z"/>
</g>
<g>
</g>
<g>
</g>
<g>
</g>
<g>
</g>
<g>
</g>
<g>
</g>
<g>
</g>
<g>
</g>
<g>
</g>
<g>
</g>
<g>
</g>
<g>
</g>
<g>
</g>
<g>
</g>
<g>
</g>
</svg>
