<?xml version="1.0" encoding="iso-8859-1"?>
<!-- Generator: Adobe Illustrator 18.0.0, SVG Export Plug-In . SVG Version: 6.00 Build 0)  -->
<!DOCTYPE svg PUBLIC "-//W3C//DTD SVG 1.1//EN" "http://www.w3.org/Graphics/SVG/1.1/DTD/svg11.dtd">
<svg version="1.1" id="Capa_1" xmlns="http://www.w3.org/2000/svg" xmlns:xlink="http://www.w3.org/1999/xlink" x="0px" y="0px"
	 viewBox="0 0 53 53" style="enable-background:new 0 0 53 53;" xml:space="preserve">
<g>
	<path style="fill:#CB8252;" d="M51.5,25.5h-4c0-11.58-9.421-21-21-21s-21,9.42-21,21h-4c0-13.785,11.215-25,25-25
		S51.5,11.715,51.5,25.5z"/>
	<path style="fill:#805333;" d="M51.5,28.5h-50C0.675,28.5,0,27.825,0,27v0c0-0.825,0.675-1.5,1.5-1.5h50c0.825,0,1.5,0.675,1.5,1.5
		v0C53,27.825,52.325,28.5,51.5,28.5z"/>
	<path style="fill:#CB8252;" d="M3.701,28.5c1.471,11.284,11.114,20,22.799,20s21.328-8.716,22.799-20H3.701z"/>
	<path style="fill:#805333;" d="M26.5,48.5c-3.329,0-6.481-0.727-9.336-2L16.5,46.216l0,2.88c0,1.88,1.524,3.404,3.404,3.404h13.192
		c1.88,0,3.404-1.524,3.404-3.404v-2.88L35.836,46.5C32.981,47.773,29.829,48.5,26.5,48.5z"/>
	<g>
		<path style="fill:#4FBA6F;" d="M44.059,25.5c-0.084-4.511-2.113-8.174-5.3-8.88c-3.928-0.87-8.16,3.07-9.685,8.88H44.059z"/>
	</g>
	<g>
		<path style="fill:#C03A2B;" d="M29.078,25.5c0.883-3.358,2.664-6.089,4.777-7.627c-1.068-2.869-3.028-4.869-5.461-5.142
			c-4.149-0.465-8.082,4.248-8.786,10.527c-0.085,0.762-0.117,1.512-0.104,2.243H29.078z"/>
	</g>
	<g>
		<path style="fill:#B49ACA;" d="M19.521,25.5c-0.014-0.733,0.002-1.478,0.088-2.243c0.225-2.006,0.782-3.85,1.568-5.419
			c-1.501-1.615-3.336-2.506-5.23-2.313c-3.664,0.375-6.307,4.655-6.438,9.974H19.521z"/>
	</g>
	<path style="fill:#E59F77;" d="M23.375,43.758c-2.677,0-5.296-0.779-7.582-2.284c-3.087-2.033-5.198-5.148-5.945-8.773
		c-0.111-0.541,0.237-1.07,0.778-1.181c0.54-0.114,1.069,0.236,1.181,0.778c0.639,3.102,2.445,5.767,5.086,7.506
		c2.64,1.738,5.8,2.345,8.905,1.706c0.54-0.113,1.069,0.236,1.181,0.778c0.111,0.541-0.237,1.07-0.778,1.181
		C25.261,43.663,24.314,43.758,23.375,43.758z"/>
</g>
<g>
</g>
<g>
</g>
<g>
</g>
<g>
</g>
<g>
</g>
<g>
</g>
<g>
</g>
<g>
</g>
<g>
</g>
<g>
</g>
<g>
</g>
<g>
</g>
<g>
</g>
<g>
</g>
<g>
</g>
</svg>
