<?xml version="1.0" encoding="iso-8859-1"?>
<!-- Generator: Adobe Illustrator 18.0.0, SVG Export Plug-In . SVG Version: 6.00 Build 0)  -->
<!DOCTYPE svg PUBLIC "-//W3C//DTD SVG 1.1//EN" "http://www.w3.org/Graphics/SVG/1.1/DTD/svg11.dtd">
<svg version="1.1" id="Capa_1" xmlns="http://www.w3.org/2000/svg" xmlns:xlink="http://www.w3.org/1999/xlink" x="0px" y="0px"
	 viewBox="0 0 55 55" style="enable-background:new 0 0 55 55;" xml:space="preserve">
<g>
	<path style="fill:#464F5D;" d="M8.5,55V19c0-10.45,8.55-19,19-19h0c10.45,0,19,8.55,19,19v36H8.5z"/>
	<path style="fill:#5F6E82;" d="M38.083,33.036c-0.1,0-0.201-0.015-0.302-0.047l-9.583-3.036c-0.526-0.167-0.818-0.729-0.651-1.255
		s0.727-0.82,1.255-0.651l9.583,3.036c0.526,0.167,0.818,0.729,0.651,1.255C38.901,32.765,38.508,33.036,38.083,33.036z"/>
	<path style="fill:#5F6E82;" d="M34.5,40c-0.553,0-1-0.447-1-1s0.447-1,1-1c1.22,0,2.583-2.551,2.583-5.964c0-0.553,0.447-1,1-1
		s1,0.447,1,1C39.083,36.576,37.112,40,34.5,40z"/>
	<path style="fill:#5F6E82;" d="M27.5,39c-0.553,0-1-0.447-1-1c0-4.411,3.589-8,8-8c0.553,0,1,0.447,1,1s-0.447,1-1,1
		c-3.309,0-6,2.691-6,6C28.5,38.553,28.053,39,27.5,39z"/>
	<path style="fill:#5F6E82;" d="M31.5,53c-0.419,0-0.809-0.265-0.948-0.684c-0.175-0.524,0.108-1.091,0.632-1.265l9-3
		c0.529-0.177,1.09,0.108,1.265,0.632c0.175,0.524-0.108,1.091-0.632,1.265l-9,3C31.711,52.983,31.605,53,31.5,53z"/>
	<path style="fill:#5F6E82;" d="M40.5,50c-4.411,0-8-3.589-8-8c0-0.553,0.447-1,1-1s1,0.447,1,1c0,3.309,2.691,6,6,6
		c0.553,0,1,0.447,1,1S41.053,50,40.5,50z"/>
	<path style="fill:#5F6E82;" d="M27.5,9c-0.553,0-1-0.447-1-1V4c0-0.553,0.447-1,1-1s1,0.447,1,1v4C28.5,8.553,28.053,9,27.5,9z"/>
	<path style="fill:#5F6E82;" d="M13.5,42c-0.553,0-1-0.447-1-1c0-2.79,1.467-8,5-8c0.553,0,1,0.447,1,1s-0.447,1-1,1
		c-1.832,0-3,3.939-3,6C14.5,41.553,14.053,42,13.5,42z"/>
	<path style="fill:#5F6E82;" d="M19.499,50c-0.179,0-0.359-0.048-0.522-0.147c-0.471-0.29-0.618-0.905-0.329-1.376
		c0.434-0.706-0.552-1.492-2.784-2.884C14.134,44.514,12.5,43.495,12.5,42c0-0.553,0.447-1,1-1c0.551,0,0.998,0.446,1,0.997
		c0.066,0.43,1.598,1.385,2.422,1.898c2.102,1.311,4.979,3.105,3.431,5.628C20.163,49.831,19.835,50,19.499,50z"/>
	<rect x="15.5" y="10" style="fill:#708499;" width="25" height="15"/>
	<path style="fill:#5F6E82;" d="M14.501,32c-0.323,0-0.641-0.156-0.833-0.445l-2-3c-0.307-0.46-0.183-1.08,0.277-1.387
		c0.46-0.306,1.08-0.183,1.387,0.277l2,3c0.307,0.46,0.183,1.08-0.277,1.387C14.884,31.945,14.691,32,14.501,32z"/>
	<g>
		<path style="fill:#D0E8F9;" d="M28.5,12c-0.553,0-1,0.447-1,1v9c0,0.553,0.447,1,1,1s1-0.447,1-1v-9
			C29.5,12.447,29.053,12,28.5,12z"/>
		<path style="fill:#D0E8F9;" d="M25.5,16c0-2.206-1.794-4-4-4h-2c-0.553,0-1,0.447-1,1v6v3c0,0.553,0.447,1,1,1s1-0.447,1-1v-2
			h0.586l2.707,2.707C23.988,22.902,24.244,23,24.5,23s0.512-0.098,0.707-0.293c0.391-0.391,0.391-1.023,0-1.414l-1.799-1.799
			C24.648,18.814,25.5,17.512,25.5,16z M21.5,18h-1v-4h1c1.103,0,2,0.897,2,2S22.603,18,21.5,18z"/>
		<path style="fill:#D0E8F9;" d="M34.5,12h-2c-0.553,0-1,0.447-1,1v6v3c0,0.553,0.447,1,1,1c0.553,0,1-0.447,1-1v-2h1
			c2.206,0,4-1.794,4-4S36.706,12,34.5,12z M34.5,18h-1v-4h1c1.103,0,2,0.897,2,2S35.603,18,34.5,18z"/>
	</g>
	<path style="fill:#5F6E82;" d="M20.565,1.336c0.091,0.252,0.276,0.469,0.541,0.582l14,6C35.234,7.975,35.368,8,35.5,8
		c0.388,0,0.757-0.227,0.919-0.606c0.218-0.507-0.018-1.095-0.525-1.313l-12.88-5.52C22.175,0.766,21.357,1.023,20.565,1.336z"/>
	<path style="fill:#5F6E82;" d="M31.5,6c0.256,0,0.512-0.098,0.707-0.293l3-3c0.253-0.253,0.324-0.603,0.25-0.927
		c-0.482-0.224-0.975-0.426-1.477-0.611c-0.063,0.04-0.132,0.069-0.187,0.124l-3,3c-0.391,0.391-0.391,1.023,0,1.414
		C30.988,5.902,31.244,6,31.5,6z"/>
	<path style="fill:#5F6E82;" d="M46.5,28.008c-0.113,0-0.227,0.01-0.339,0.052l-8.417,3.036c-0.52,0.188-0.789,0.76-0.602,1.279
		c0.146,0.408,0.531,0.661,0.94,0.661c0.112,0,0.228-0.019,0.339-0.06l8.078-2.914V28.008z"/>
	<path style="fill:#5F6E82;" d="M46.5,53.586l-5.293-5.293c-0.391-0.391-1.023-0.391-1.414,0s-0.391,1.023,0,1.414L45.086,55H46.5
		V53.586z"/>
	<path style="fill:#5F6E82;" d="M8.5,42.988c0.025,0,0.046,0.011,0.071,0.009l13.545-0.967l2.677,2.677
		C24.988,44.902,25.244,45,25.5,45s0.512-0.098,0.707-0.293c0.391-0.391,0.391-1.023,0-1.414l-3-3
		c-0.205-0.205-0.491-0.314-0.778-0.29L8.5,40.998V42.988z"/>
	<path style="fill:#5F6E82;" d="M15.207,25.707c0.391-0.391,0.391-1.023,0-1.414s-1.023-0.391-1.414,0L8.5,29.586V32
		c0.256,0,0.512-0.098,0.707-0.293L15.207,25.707z"/>
</g>
<g>
</g>
<g>
</g>
<g>
</g>
<g>
</g>
<g>
</g>
<g>
</g>
<g>
</g>
<g>
</g>
<g>
</g>
<g>
</g>
<g>
</g>
<g>
</g>
<g>
</g>
<g>
</g>
<g>
</g>
</svg>
