<?xml version="1.0" encoding="iso-8859-1"?>
<!-- Generator: Adobe Illustrator 18.0.0, SVG Export Plug-In . SVG Version: 6.00 Build 0)  -->
<!DOCTYPE svg PUBLIC "-//W3C//DTD SVG 1.1//EN" "http://www.w3.org/Graphics/SVG/1.1/DTD/svg11.dtd">
<svg version="1.1" id="Capa_1" xmlns="http://www.w3.org/2000/svg" xmlns:xlink="http://www.w3.org/1999/xlink" x="0px" y="0px"
	 viewBox="0 0 58 58" style="enable-background:new 0 0 58 58;" xml:space="preserve">
<g>
	<path style="fill:#464F5D;" d="M20.344,22.061c-1.477-0.54-2.804-1.176-3.986-1.888C17.873,18.777,21,15.047,21,8
		c0-0.552-0.448-1-1-1s-1,0.448-1,1c0,7.091-3.454,10.299-4.349,11.012c-3.003-2.321-4.652-5.273-4.653-8.573
		c-0.006-0.105-0.01-0.231-0.013-0.365C9.987,10.048,10,10.026,10,10c0-0.029-0.014-0.053-0.016-0.081
		c-0.007-1.64,0.318-4.931,1.958-6.674C12.729,2.407,13.73,2,15,2c0.552,0,1-0.448,1-1s-0.448-1-1-1
		c-1.827,0-3.346,0.631-4.516,1.875C8.61,3.868,8.128,6.978,8.017,8.87c-0.592-0.15-1.1-0.433-1.517-0.883
		C4.718,6.065,4.994,2.116,4.997,2.077c0.042-0.55-0.371-1.031-0.92-1.073c-0.56-0.045-1.031,0.368-1.074,0.918
		c-0.015,0.197-0.349,4.852,2.026,7.42c0.803,0.868,1.81,1.384,2.991,1.57c0.092,2.506,1.015,4.864,2.654,6.939
		c-7.93-0.956-8.65-6.684-8.678-6.95c-0.054-0.548-0.546-0.95-1.088-0.897c-0.55,0.052-0.954,0.539-0.902,1.089
		c0.009,0.094,0.235,2.322,1.995,4.53c1.567,1.966,4.7,4.299,10.724,4.37c1.841,1.592,4.177,2.937,6.934,3.946
		c0.114,0.042,0.229,0.062,0.344,0.062c0.408,0,0.791-0.251,0.939-0.657C21.129,22.825,20.862,22.251,20.344,22.061z"/>
	<path style="fill:#464F5D;" d="M57.093,10.004c-0.555-0.057-1.038,0.353-1.089,0.902c-0.006,0.065-0.682,5.958-8.667,6.941
		c1.644-2.08,2.566-4.439,2.644-6.936c1.18-0.185,2.188-0.702,2.99-1.569c2.375-2.568,2.041-7.223,2.026-7.42
		c-0.043-0.55-0.514-0.963-1.075-0.919c-0.55,0.043-0.962,0.524-0.919,1.075c0.086,1.099-0.016,4.302-1.5,5.906
		c-0.418,0.452-0.927,0.736-1.522,0.886c-0.113-1.912-0.597-5.009-2.465-6.996C46.346,0.631,44.827,0,43,0c-0.552,0-1,0.448-1,1
		s0.448,1,1,1c1.269,0,2.268,0.406,3.055,1.241c1.775,1.883,1.956,5.357,1.956,6.704C48.01,9.964,48,9.981,48,10
		c0,0.019,0.01,0.035,0.011,0.053c-0.002,0.262-0.01,0.428-0.011,0.447c0,2.847-1.258,5.45-3.576,7.607
		c-0.023-0.011-0.038-0.03-0.062-0.04C44.309,18.047,39,15.891,39,8c0-0.552-0.448-1-1-1s-1,0.448-1,1
		c0,7.257,3.914,10.399,5.732,11.469c-1.431,1.003-3.127,1.878-5.076,2.592c-0.519,0.189-0.785,0.764-0.595,1.283
		c0.148,0.405,0.531,0.657,0.939,0.657c0.114,0,0.23-0.02,0.344-0.062c2.759-1.009,5.095-2.356,6.937-3.946
		c6.021-0.072,9.154-2.404,10.72-4.37c1.759-2.208,1.986-4.436,1.995-4.53C58.047,10.544,57.643,10.056,57.093,10.004z"/>
	<path style="fill:#A86C4A;" d="M28.483,36c5.711,0,10.837,2.824,14.427,5c0.028-0.347,0.055-0.694,0.055-1.048V33.5
		C42.966,26.075,36.681,20,29,20s-13.966,6.075-13.966,13.5v6.452c0,0.162,0.019,0.319,0.025,0.48
		C18.574,38.589,23.286,36,28.483,36z"/>
	<ellipse style="fill:#CB8252;" cx="29" cy="47" rx="19" ry="11"/>
	<ellipse style="fill:#C03A2B;" cx="29" cy="45" rx="8" ry="5"/>
	<path style="fill:#CB8252;" d="M50.839,24H38.896c1.665,1.62,2.898,3.648,3.549,5.905c5.471-0.662,8.034-4.931,8.483-5.764
		C50.962,24.075,50.914,24,50.839,24z"/>
	<path style="fill:#CB8252;" d="M19.105,24H7.161c-0.074,0-0.123,0.075-0.088,0.141c0.449,0.833,3.012,5.102,8.483,5.764
		C16.206,27.648,17.44,25.62,19.105,24z"/>
	<path style="fill:#E6E7E8;" d="M36.468,36.885C36.8,35.951,37,34.778,37,33.5c0-3.038-1.119-5.5-2.5-5.5S32,30.462,32,33.5
		c0,0.973,0.116,1.885,0.317,2.678C33.762,36.326,35.155,36.559,36.468,36.885z"/>
	<path style="fill:#E6E7E8;" d="M25.683,36.178C25.884,35.385,26,34.473,26,33.5c0-3.038-1.119-5.5-2.5-5.5S21,30.462,21,33.5
		c0,1.278,0.2,2.451,0.532,3.385C22.845,36.559,24.238,36.326,25.683,36.178z"/>
	<ellipse style="fill:#464F5D;" cx="24" cy="33" rx="2" ry="3"/>
	<ellipse style="fill:#464F5D;" cx="35" cy="33" rx="2" ry="3"/>
</g>
<g>
</g>
<g>
</g>
<g>
</g>
<g>
</g>
<g>
</g>
<g>
</g>
<g>
</g>
<g>
</g>
<g>
</g>
<g>
</g>
<g>
</g>
<g>
</g>
<g>
</g>
<g>
</g>
<g>
</g>
</svg>
