<?xml version="1.0" encoding="iso-8859-1"?>
<!-- Generator: Adobe Illustrator 18.0.0, SVG Export Plug-In . SVG Version: 6.00 Build 0)  -->
<!DOCTYPE svg PUBLIC "-//W3C//DTD SVG 1.1//EN" "http://www.w3.org/Graphics/SVG/1.1/DTD/svg11.dtd">
<svg version="1.1" id="Capa_1" xmlns="http://www.w3.org/2000/svg" xmlns:xlink="http://www.w3.org/1999/xlink" x="0px" y="0px"
	 viewBox="0 0 58 58" style="enable-background:new 0 0 58 58;" xml:space="preserve">
<g>
	<path style="fill:#464F5D;" d="M29,15c-2.839,0-4.818-4.216-4.818-8c0-3.925,2.117-7,4.818-7s4.818,3.075,4.818,7
		C33.818,10.784,31.839,15,29,15z M29,2c-1.501,0-2.818,2.336-2.818,5c0,3.09,1.588,6,2.818,6s2.818-2.91,2.818-6
		C31.818,4.336,30.501,2,29,2z"/>
	<circle style="fill:#C03A2B;" cx="29" cy="38" r="20"/>
	<path style="fill:#F0C419;" d="M29,18c2.091,0,4.106,0.323,6,0.918v-2.967C35,14.874,34.126,14,33.048,14h-8.097
		C23.874,14,23,14.874,23,15.952v2.967C24.894,18.323,26.909,18,29,18z"/>
	<path style="fill:#E64C3C;" d="M43.372,34.071l-3.464-1.385l3.544-1.794c0.493-0.25,0.69-0.851,0.44-1.344
		c-0.25-0.493-0.852-0.69-1.344-0.44L39,30.904V27c0-0.552-0.448-1-1-1s-1,0.448-1,1v4.917l-7,3.543v-6.932l3.604-2.731
		c0.44-0.333,0.526-0.96,0.193-1.401c-0.333-0.44-0.96-0.529-1.401-0.193L30,26.019V22c0-0.552-0.448-1-1-1s-1,0.448-1,1v4.019
		l-2.396-1.816c-0.441-0.335-1.068-0.247-1.401,0.193c-0.333,0.44-0.247,1.067,0.193,1.401L28,28.528v6.759l-6-3.732v-4.586
		c0-0.552-0.448-1-1-1s-1,0.448-1,1v3.342l-3.472-2.16c-0.47-0.292-1.086-0.147-1.377,0.321c-0.292,0.469-0.148,1.086,0.321,1.377
		l3.214,1.999l-3.057,1.223c-0.513,0.206-0.762,0.787-0.557,1.3C15.228,34.762,15.604,35,16,35c0.124,0,0.249-0.023,0.371-0.072
		l4.422-1.769l6.151,3.827l-6.725,3.321l-3.715-2.171c-0.479-0.28-1.09-0.119-1.368,0.359c-0.279,0.477-0.118,1.089,0.359,1.368
		l2.576,1.505l-3.514,1.735c-0.495,0.244-0.698,0.844-0.454,1.339C14.278,44.795,14.632,45,15.001,45
		c0.148,0,0.299-0.033,0.442-0.104l3.418-1.688l-0.835,3.564c-0.126,0.538,0.208,1.076,0.746,1.202
		C18.849,47.992,18.925,48,19.001,48c0.454,0,0.865-0.311,0.973-0.772l1.211-5.167L28,38.696v7.938l-3.581,2.552
		c-0.45,0.321-0.554,0.945-0.234,1.395C24.381,50.854,24.688,51,25.001,51c0.201,0,0.403-0.06,0.58-0.186L28,49.09V52
		c0,0.552,0.448,1,1,1s1-0.448,1-1v-2.91l2.419,1.724C32.596,50.94,32.798,51,32.999,51c0.313,0,0.62-0.146,0.815-0.419
		c0.32-0.45,0.216-1.074-0.234-1.395L30,46.634v-7.649l6.041,4.142L36,47.992c-0.004,0.552,0.439,1.003,0.992,1.008
		c0.003,0,0.005,0,0.008,0c0.548,0,0.995-0.442,1-0.992l0.03-3.518l3.405,2.334C41.607,46.943,41.804,47,41.999,47
		c0.319,0,0.632-0.152,0.826-0.435c0.313-0.456,0.196-1.078-0.259-1.39l-3.888-2.666l3.716-1.59
		c0.508-0.217,0.743-0.805,0.526-1.313c-0.218-0.508-0.805-0.741-1.313-0.526l-4.883,2.089l-5.766-3.953l6.592-3.337
		c0.025,0.013,0.045,0.033,0.071,0.043c0.003,0.001,0.005,0.004,0.008,0.005l5,2C42.75,35.977,42.876,36,43,36
		c0.397,0,0.772-0.238,0.929-0.629C44.134,34.858,43.884,34.277,43.372,34.071z"/>
</g>
<g>
</g>
<g>
</g>
<g>
</g>
<g>
</g>
<g>
</g>
<g>
</g>
<g>
</g>
<g>
</g>
<g>
</g>
<g>
</g>
<g>
</g>
<g>
</g>
<g>
</g>
<g>
</g>
<g>
</g>
</svg>
