<?xml version="1.0" encoding="iso-8859-1"?>
<!-- Generator: Adobe Illustrator 18.0.0, SVG Export Plug-In . SVG Version: 6.00 Build 0)  -->
<!DOCTYPE svg PUBLIC "-//W3C//DTD SVG 1.1//EN" "http://www.w3.org/Graphics/SVG/1.1/DTD/svg11.dtd">
<svg version="1.1" id="Capa_1" xmlns="http://www.w3.org/2000/svg" xmlns:xlink="http://www.w3.org/1999/xlink" x="0px" y="0px"
	 viewBox="0 0 55.887 55.887" style="enable-background:new 0 0 55.887 55.887;" xml:space="preserve">
<g>
	<path style="fill:#B49ACA;" d="M50.368,2.59L36.584,1.441c-0.736-0.061-1.455,0.248-1.916,0.825l-3.685,4.606
		c-0.633,0.792-0.649,1.912-0.039,2.722l2.379,3.152c0.29,0.385,0.448,0.854,0.448,1.336v34.291c0,1.135,0.857,2.087,1.986,2.206
		l10.192,1.073c1.13,0.119,2.167-0.635,2.402-1.746L55.839,14.6c0.087-0.412,0.056-0.841-0.092-1.236l-3.486-9.339
		C51.962,3.22,51.224,2.661,50.368,2.59z"/>
	<path style="fill:#655875;" d="M47.723,6.384l-9.347-0.779c-0.736-0.061-1.455,0.248-1.916,0.825l-2.97,3.713
		c-0.608,0.76-0.65,1.828-0.103,2.633v0c0.25,0.368,0.384,0.802,0.384,1.247v30.33c0,1.135,0.857,2.087,1.986,2.206l7.027,0.74
		c1.13,0.119,2.166-0.635,2.402-1.746l6.463-30.468c0.08-0.378,0.06-0.771-0.058-1.139l-1.939-6.029
		C49.376,7.062,48.616,6.458,47.723,6.384z"/>
	<path style="fill:#88759B;" d="M0.234,16.756L6.961,3.303c0.346-0.692,1.028-1.154,1.8-1.219l13.944-1.162
		c0.737-0.061,1.455,0.248,1.917,0.825l8.781,10.984c0.314,0.393,0.486,0.882,0.486,1.385v34.394c0,1.063-0.755,1.977-1.799,2.178
		l-22.025,4.242c-1.187,0.229-2.339-0.535-2.589-1.718L0.048,18.208C-0.056,17.717,0.01,17.205,0.234,16.756z"/>
	<path style="fill:#B49ACA;" d="M28.201,46.76l-14.885,3.678c-1.217,0.301-2.442-0.466-2.702-1.693L4.251,18.747
		c-0.104-0.491-0.039-1.003,0.186-1.452L9.533,7.103c0.346-0.692,1.028-1.154,1.8-1.219l9.538-0.795
		c0.759-0.063,1.498,0.268,1.956,0.876l6.614,8.785c0.29,0.385,0.446,0.853,0.446,1.334v28.521
		C29.887,45.627,29.192,46.515,28.201,46.76z"/>
	<polygon style="fill:#655875;" points="25.38,17.268 19.428,18.03 18.793,13.07 14.826,13.578 15.46,18.537 9.509,19.299 
		10.017,23.267 15.968,22.505 18.507,42.343 22.475,41.836 19.936,21.997 25.887,21.236 	"/>
</g>
<g>
</g>
<g>
</g>
<g>
</g>
<g>
</g>
<g>
</g>
<g>
</g>
<g>
</g>
<g>
</g>
<g>
</g>
<g>
</g>
<g>
</g>
<g>
</g>
<g>
</g>
<g>
</g>
<g>
</g>
</svg>
