<?xml version="1.0" encoding="iso-8859-1"?>
<!-- Generator: Adobe Illustrator 18.0.0, SVG Export Plug-In . SVG Version: 6.00 Build 0)  -->
<!DOCTYPE svg PUBLIC "-//W3C//DTD SVG 1.1//EN" "http://www.w3.org/Graphics/SVG/1.1/DTD/svg11.dtd">
<svg version="1.1" id="Capa_1" xmlns="http://www.w3.org/2000/svg" xmlns:xlink="http://www.w3.org/1999/xlink" x="0px" y="0px"
	 viewBox="0 0 59 59" style="enable-background:new 0 0 59 59;" xml:space="preserve">
<g>
	
		<ellipse transform="matrix(0.6333 0.7739 -0.7739 0.6333 49.8965 -18.8841)" style="fill:#B49ACA;" cx="44.877" cy="43.214" rx="9.5" ry="6"/>
	<path style="fill:#8F79A3;" d="M37.47,38.153c0.236-0.926,0.691-1.719,1.39-2.291c0.7-0.573,1.567-0.861,2.521-0.91l-3.436-6.525
		c-0.708,2.877-3.231,4.941-6.191,5.067L37.47,38.153z"/>
	<path style="fill:#8F79A3;" d="M58,52.933l-5.717-4.659c-0.236,0.926-0.691,1.719-1.39,2.291c-0.7,0.573-1.567,0.861-2.521,0.91
		L51.809,58C52.517,55.123,55.04,53.059,58,52.933z"/>
	
		<ellipse transform="matrix(0.6333 0.7739 -0.7739 0.6333 49.8965 -18.8841)" style="fill:#8F79A3;" cx="44.877" cy="43.214" rx="3.5" ry="2"/>
	
		<ellipse transform="matrix(-0.7739 0.6333 -0.6333 -0.7739 84.8426 -2.0451)" style="fill:#E57E25;" cx="42.786" cy="14.123" rx="9.5" ry="6"/>
	<path style="fill:#FF994D;" d="M47.847,6.717c0.926,0.236,1.719,0.691,2.291,1.39c0.573,0.7,0.861,1.567,0.91,2.521l6.525-3.436
		C54.696,6.483,52.632,3.96,52.506,1L47.847,6.717z"/>
	<path style="fill:#FF994D;" d="M33.067,27.247l4.659-5.717c-0.926-0.236-1.719-0.691-2.291-1.39c-0.573-0.7-0.861-1.567-0.91-2.521
		L28,21.056C30.877,21.764,32.941,24.286,33.067,27.247z"/>
	
		<ellipse transform="matrix(-0.7739 0.6333 -0.6333 -0.7739 84.8426 -2.0451)" style="fill:#FF994D;" cx="42.786" cy="14.123" rx="3.5" ry="2"/>
	<path style="fill:#D1D4D1;" d="M14,59c-0.553,0-1-0.447-1-1V26c0-0.553,0.447-1,1-1s1,0.447,1,1v32C15,58.553,14.553,59,14,59z"/>
	<g>
		<path style="fill:#E64C3C;" d="M14,0C6.82,0,1,5.82,1,13c0,5.713,3.691,10.554,8.814,12.298c-0.889-0.648-1.725-1.436-2.631-2.342
			c-4.385-4.384-4.385-11.519,0-15.902c1.736-1.737,4.046-2.693,6.502-2.693s4.766,0.956,6.503,2.693
			c2.946,2.946,2.946,7.74,0,10.687c-2.435,2.435-6.396,2.436-8.833,0c-2.026-2.026-2.026-5.322,0-7.349
			c1.7-1.699,4.464-1.699,6.162,0c1.438,1.437,1.438,3.775,0,5.212c-1.188,1.188-3.264,1.19-4.453,0
			c-0.513-0.513-0.796-1.195-0.796-1.922s0.283-1.409,0.797-1.923c0.391-0.391,1.023-0.391,1.414,0s0.391,1.023,0,1.414
			c-0.136,0.136-0.211,0.316-0.211,0.509c0,0.191,0.075,0.372,0.211,0.507c0.435,0.438,1.19,0.437,1.624,0.001
			c0.318-0.318,0.494-0.742,0.494-1.192c0-0.449-0.176-0.873-0.494-1.191c-0.917-0.917-2.413-0.918-3.334,0
			c-1.246,1.246-1.246,3.274,0,4.521c0.802,0.802,1.868,1.244,3.002,1.244c1.135,0,2.201-0.442,3.003-1.244
			c2.166-2.167,2.166-5.691,0-7.858c-1.359-1.359-3.167-2.107-5.089-2.107S9.956,7.108,8.597,8.468
			c-3.604,3.604-3.604,9.47,0,13.074c1.924,1.925,3.258,3.119,5.555,3.47c0.477,0.073,0.803,0.475,0.828,0.939
			C21.7,25.448,27,19.849,27,13C27,5.82,21.18,0,14,0z"/>
	</g>
</g>
<g>
</g>
<g>
</g>
<g>
</g>
<g>
</g>
<g>
</g>
<g>
</g>
<g>
</g>
<g>
</g>
<g>
</g>
<g>
</g>
<g>
</g>
<g>
</g>
<g>
</g>
<g>
</g>
<g>
</g>
</svg>
