<?xml version="1.0" encoding="iso-8859-1"?>
<!-- Generator: Adobe Illustrator 18.0.0, SVG Export Plug-In . SVG Version: 6.00 Build 0)  -->
<!DOCTYPE svg PUBLIC "-//W3C//DTD SVG 1.1//EN" "http://www.w3.org/Graphics/SVG/1.1/DTD/svg11.dtd">
<svg version="1.1" id="Capa_1" xmlns="http://www.w3.org/2000/svg" xmlns:xlink="http://www.w3.org/1999/xlink" x="0px" y="0px"
	 viewBox="0 0 57 57" style="enable-background:new 0 0 57 57;" xml:space="preserve">
<g>
	<rect x="40" y="43" style="fill:#C03A2B;" width="17" height="3"/>
	<rect x="40" y="40" style="fill:#D1D4D1;" width="17" height="3"/>
	<path style="fill:#556080;" d="M12,57H0v-2.297C0,54.315,0.315,54,0.703,54h10.594C11.685,54,12,54.315,12,54.703V57z"/>
	<rect x="2" y="51" style="fill:#8697CB;" width="8" height="3"/>
	<path style="fill:#0096E6;" d="M7,31c0,0.553,0.447,1,1,1v-2C7.447,30,7,30.447,7,31z"/>
	<rect x="4" y="7" style="fill:#556080;" width="4" height="44"/>
	<rect x="8" y="7" style="fill:#285680;" width="20" height="18"/>
	<polygon style="fill:#FFFFFF;" points="13.992,9.279 14.922,11.162 17,11.464 15.496,12.93 15.851,15 13.992,14.023 12.134,15 
		12.489,12.93 10.985,11.464 13.063,11.162 	"/>
	<polygon style="fill:#FFFFFF;" points="22.008,9 22.937,10.883 25.015,11.185 23.511,12.651 23.866,14.721 22.008,13.743 
		20.149,14.721 20.504,12.651 19,11.185 21.078,10.883 	"/>
	<polygon style="fill:#FFFFFF;" points="13.992,16.279 14.922,18.162 17,18.464 15.496,19.93 15.851,22 13.992,21.023 12.134,22 
		12.489,19.93 10.985,18.464 13.063,18.162 	"/>
	<polygon style="fill:#FFFFFF;" points="22.008,16 22.937,17.883 25.015,18.185 23.511,19.651 23.866,21.721 22.008,20.743 
		20.149,21.721 20.504,19.651 19,18.185 21.078,17.883 	"/>
	<circle style="fill:#F0C419;" cx="6" cy="4" r="4"/>
	<polygon style="fill:#701919;" points="40,46 40,40 45,40 	"/>
	<rect x="28" y="7" style="fill:#ECF0F1;" width="17" height="3"/>
	<rect x="28" y="10" style="fill:#E64C3C;" width="17" height="3"/>
	<rect x="28" y="13" style="fill:#ECF0F1;" width="17" height="3"/>
	<rect x="28" y="16" style="fill:#E64C3C;" width="17" height="3"/>
	<rect x="28" y="19" style="fill:#ECF0F1;" width="17" height="3"/>
	<rect x="28" y="22" style="fill:#E64C3C;" width="17" height="3"/>
	<rect x="45" y="13" style="fill:#C03A2B;" width="12" height="3"/>
	<rect x="45" y="16" style="fill:#D1D4D1;" width="12" height="3"/>
	<rect x="45" y="19" style="fill:#C03A2B;" width="12" height="3"/>
	<rect x="45" y="22" style="fill:#D1D4D1;" width="12" height="3"/>
	<rect x="45" y="25" style="fill:#C03A2B;" width="12" height="3"/>
	<rect x="45" y="28" style="fill:#D1D4D1;" width="12" height="3"/>
	<rect x="45" y="31" style="fill:#C03A2B;" width="12" height="3"/>
	<rect x="45" y="37" style="fill:#C03A2B;" width="12" height="3"/>
	<rect x="45" y="34" style="fill:#D1D4D1;" width="12" height="3"/>
	<rect x="8" y="25" style="fill:#ECF0F1;" width="37" height="3"/>
	<rect x="8" y="28" style="fill:#E64C3C;" width="37" height="3"/>
	<rect x="8" y="31" style="fill:#ECF0F1;" width="37" height="3"/>
	<rect x="8" y="34" style="fill:#E64C3C;" width="37" height="3"/>
	<rect x="8" y="37" style="fill:#ECF0F1;" width="37" height="3"/>
</g>
<g>
</g>
<g>
</g>
<g>
</g>
<g>
</g>
<g>
</g>
<g>
</g>
<g>
</g>
<g>
</g>
<g>
</g>
<g>
</g>
<g>
</g>
<g>
</g>
<g>
</g>
<g>
</g>
<g>
</g>
</svg>
