<?xml version="1.0" encoding="iso-8859-1"?>
<!-- Generator: Adobe Illustrator 18.0.0, SVG Export Plug-In . SVG Version: 6.00 Build 0)  -->
<!DOCTYPE svg PUBLIC "-//W3C//DTD SVG 1.1//EN" "http://www.w3.org/Graphics/SVG/1.1/DTD/svg11.dtd">
<svg version="1.1" id="Capa_1" xmlns="http://www.w3.org/2000/svg" xmlns:xlink="http://www.w3.org/1999/xlink" x="0px" y="0px"
	 viewBox="0 0 56.085 56.085" style="enable-background:new 0 0 56.085 56.085;" xml:space="preserve">
<g>
	<path style="fill:#A5A5A4;" d="M42.002,1.136l6.584,22.222c0.391,1.318,2.269,1.286,2.614-0.045l4.785-18.456
		c0.501-1.931-0.957-3.815-2.952-3.815H42.072C42.024,1.043,41.989,1.089,42.002,1.136z"/>
	<path style="fill:#E6E7E8;" d="M40.693,16.419l4.561-4.308L41.98,1.06c-0.002-0.007-0.011-0.008-0.015-0.002L35.11,11.83
		C37.201,12.927,39.089,14.494,40.693,16.419z"/>
	<path style="fill:#E6E7E8;" d="M49.975,47.043c-0.577-1.391-5.729-4.314-5.602-4.634l7.602,0.634c-1.172-1.302-6.408-4.51-6.308-5
		h5.308c-1.189-1.189-3.102-1.902-4.94-2.336c0.118-1.034,0.183-2.089,0.183-3.164c0-12.426-8.168-22.5-18.243-22.5
		S9.732,20.116,9.732,32.543c0,1.074,0.065,2.129,0.183,3.164c-1.838,0.434-3.751,1.148-4.94,2.336h5.308
		c0.1,0.49-5.136,3.698-6.308,5l7.602-0.634c0.126,0.319-5.025,3.243-5.602,4.634l7.602-0.691c0.192,0.304-3.602,2.691-3.602,2.691
		s7.5,1.5,10,4c0.411,0.411,0.849,0.52,1.293,0.424c2.077,1.013,4.338,1.576,6.707,1.576s4.63-0.563,6.707-1.576
		c0.445,0.097,0.883-0.013,1.293-0.424c2.5-2.5,10-4,10-4s-3.794-2.387-3.602-2.691L49.975,47.043z"/>
	<path style="fill:#A5A5A4;" d="M14.083,1.136L7.498,23.358c-0.391,1.318-2.269,1.286-2.614-0.045L0.099,4.857
		c-0.501-1.931,0.957-3.815,2.952-3.815h10.962C14.061,1.043,14.096,1.089,14.083,1.136z"/>
	<path style="fill:#E6E7E8;" d="M15.392,16.419l-4.561-4.308L14.105,1.06c0.002-0.007,0.011-0.008,0.015-0.002l6.855,10.771
		C18.884,12.927,16.996,14.494,15.392,16.419z"/>
	<ellipse style="fill:#C4C6C6;" cx="21.475" cy="40.031" rx="6.5" ry="5"/>
	<ellipse style="fill:#C4C6C6;" cx="34.475" cy="40.031" rx="6.5" ry="5"/>
	<path style="fill:#BDC3C7;" d="M28.257,41.486h-0.563c-0.591,1.495-2.069,2.689-3.962,3.229l1.145,5.316
		c0.061,0.215,0.225,0.386,0.437,0.456l2.661,0.544l2.661-0.544c0.212-0.071,0.376-0.241,0.437-0.456l1.145-5.316
		C30.326,44.175,28.847,42.982,28.257,41.486z"/>
	<g>
		<path style="fill:#A5A5A4;" d="M33.475,17.043c-3.038,0-5.5,4.701-5.5,10.5c0,2.057,0.318,3.963,0.854,5.582
			c0.949,0.168,1.859,0.612,2.593,1.346l0.857,0.857c0.687-0.19,1.426-0.295,2.197-0.295c0.929,0,1.81,0.152,2.609,0.422
			c1.157-1.925,1.891-4.751,1.891-7.911C38.975,21.744,36.512,17.043,33.475,17.043z"/>
	</g>
	<g>
		<path style="fill:#A5A5A4;" d="M24.529,34.47c0.733-0.733,1.643-1.177,2.593-1.346c0.536-1.618,0.854-3.525,0.854-5.582
			c0-5.799-2.462-10.5-5.5-10.5s-5.5,4.701-5.5,10.5c0,3.159,0.734,5.986,1.891,7.911c0.799-0.27,1.68-0.422,2.609-0.422
			c0.772,0,1.51,0.106,2.197,0.295L24.529,34.47z"/>
	</g>
	<path style="fill:#FFFFFF;" d="M38.888,25.735c-1.691-2.286-3.938-3.693-6.413-3.693c-1.452,0-2.822,0.494-4.052,1.352
		c-0.287,1.273-0.448,2.674-0.448,4.148c0,2.057,0.318,3.963,0.854,5.582c0.949,0.168,1.859,0.612,2.593,1.346l0.857,0.857
		c0.687-0.19,1.426-0.295,2.197-0.295c0.929,0,1.81,0.152,2.609,0.422c1.157-1.925,1.891-4.751,1.891-7.911
		C38.975,26.925,38.941,26.323,38.888,25.735z"/>
	<path style="fill:#FFFFFF;" d="M17.062,25.735c-0.054,0.588-0.087,1.19-0.087,1.807c0,3.159,0.734,5.986,1.891,7.911
		c0.799-0.27,1.68-0.422,2.609-0.422c0.772,0,1.51,0.106,2.197,0.295l0.857-0.857c0.733-0.733,1.643-1.177,2.593-1.346
		c0.536-1.618,0.854-3.525,0.854-5.582c0-1.474-0.16-2.875-0.448-4.148c-1.231-0.858-2.601-1.352-4.052-1.352
		C21,22.043,18.753,23.449,17.062,25.735z"/>
	<path style="fill:#2C2F38;" d="M24.175,30.643c-0.994,0-1.8-1.075-1.8-2.4c0-0.427,0.091-0.823,0.237-1.17
		c-0.079-0.01-0.156-0.03-0.237-0.03c-1.325,0-2.4,1.343-2.4,3c0,1.657,1.075,3,2.4,3c1.197,0,2.181-1.099,2.362-2.531
		C24.559,30.59,24.372,30.643,24.175,30.643z"/>
	<path style="fill:#2C2F38;" d="M35.381,30.643c-0.994,0-1.8-1.075-1.8-2.4c0-0.427,0.091-0.823,0.237-1.17
		c-0.079-0.01-0.156-0.03-0.237-0.03c-1.325,0-2.4,1.343-2.4,3c0,1.657,1.075,3,2.4,3c1.197,0,2.181-1.099,2.362-2.531
		C35.765,30.59,35.579,30.643,35.381,30.643z"/>
	<path style="fill:#FFFFFF;" d="M27.975,51.031l1-0.204v-4.796c0-0.552-0.447-1-1-1s-1,0.448-1,1v4.796L27.975,51.031z"/>
	<g>
		<path style="fill:#FB7B76;" d="M32.281,35.33l-0.86-0.86c-1.903-1.903-4.989-1.903-6.893,0l-0.86,0.86
			c2.508,0.693,4.306,2.534,4.306,4.702C27.975,37.863,29.772,36.023,32.281,35.33z"/>
	</g>
</g>
<g>
</g>
<g>
</g>
<g>
</g>
<g>
</g>
<g>
</g>
<g>
</g>
<g>
</g>
<g>
</g>
<g>
</g>
<g>
</g>
<g>
</g>
<g>
</g>
<g>
</g>
<g>
</g>
<g>
</g>
</svg>
