<?xml version="1.0" encoding="iso-8859-1"?>
<!-- Generator: Adobe Illustrator 18.0.0, SVG Export Plug-In . SVG Version: 6.00 Build 0)  -->
<!DOCTYPE svg PUBLIC "-//W3C//DTD SVG 1.1//EN" "http://www.w3.org/Graphics/SVG/1.1/DTD/svg11.dtd">
<svg version="1.1" id="Capa_1" xmlns="http://www.w3.org/2000/svg" xmlns:xlink="http://www.w3.org/1999/xlink" x="0px" y="0px"
	 viewBox="0 0 53.867 53.867" style="enable-background:new 0 0 53.867 53.867;" xml:space="preserve">
<g>
	<path style="fill:#E6E7E8;" d="M17.741,37.348c-0.267-0.499-0.604-0.971-1.025-1.392c-2.324-2.324-6.091-2.324-8.414,0
		c-2.095,2.095-2.283,5.355-0.599,7.681C7.31,43.81,6.94,44.049,6.618,44.37c-1.394,1.394-1.394,3.655,0,5.049
		c1.394,1.394,3.655,1.394,5.049,0c0.042-0.042,0.071-0.092,0.111-0.135c0.202,0.346,0.434,0.68,0.731,0.977
		c1.859,1.859,4.873,1.859,6.732,0c1.059-1.059,1.493-2.49,1.346-3.871c0.738-0.218,1.438-0.596,2.02-1.178
		c1.859-1.859,1.859-4.873,0-6.732C21.289,37.163,19.396,36.798,17.741,37.348z"/>
	<path style="fill:#E6E7E8;" d="M51.914,33.555c0.419-0.38,0.796-0.821,1.103-1.332c1.692-2.817,0.781-6.472-2.036-8.165
		c-2.54-1.526-5.749-0.92-7.598,1.277c-0.263-0.339-0.584-0.64-0.974-0.874c-1.69-1.015-3.883-0.469-4.899,1.221
		s-0.469,3.883,1.221,4.899c0.051,0.031,0.106,0.047,0.158,0.075c-0.287,0.28-0.555,0.586-0.771,0.945
		c-1.354,2.253-0.625,5.178,1.629,6.532c1.283,0.771,2.777,0.846,4.082,0.369c0.39,0.663,0.926,1.251,1.631,1.675
		c2.253,1.354,5.178,0.625,6.532-1.629C52.952,36.952,52.847,35.028,51.914,33.555z"/>
	<path style="fill:#71C285;" d="M42.409,24.461c0.007,0.004,0.012,0.01,0.019,0.014C40.55,17.428,34.131,12.213,26.5,12.213
		c-9.098,0-16.5,7.402-16.5,16.5c0,2.009,0.379,3.926,1.039,5.708c1.968-0.501,4.137-0.005,5.677,1.535
		c0.422,0.422,0.758,0.893,1.025,1.392c0.315-0.104,0.639-0.165,0.965-0.203C16.434,35.042,15,32.045,15,28.713
		c0-6.341,5.159-11.5,11.5-11.5c5.265,0,9.705,3.562,11.063,8.399C38.598,23.982,40.745,23.461,42.409,24.461z"/>
	<path style="fill:#D34237;" d="M47.275,23.271c1.247-0.142,2.545,0.09,3.706,0.788c0.768,0.462,1.389,1.073,1.86,1.77
		C51.403,12.55,40.161,2.213,26.5,2.213C11.864,2.213,0,14.077,0,28.713c0,6.324,2.219,12.128,5.915,16.684
		c0.172-0.37,0.398-0.721,0.703-1.026c0.321-0.321,0.692-0.56,1.084-0.733c-1.241-1.714-1.457-3.932-0.652-5.82
		C5.749,35.048,5,31.97,5,28.713c0-11.855,9.645-21.5,21.5-21.5C36.472,7.213,44.856,14.047,47.275,23.271z"/>
	<path style="fill:#F3D55B;" d="M26.5,7.213c-2.922,0-5.708,0.591-8.25,1.651c-1.369,0.644-2.956,1.543-4.793,2.796
		C8.328,15.593,5,21.764,5,28.713c0,3.257,0.749,6.335,2.051,9.104c1.074-2.771,3.988-3.396,3.988-3.396
		C6.411,16.42,22.802,12.632,22.802,12.632c16.094-2.456,19.626,11.844,19.626,11.844l0.955,0.861
		c1.174-1.752,3.892-2.065,3.892-2.065c-0.368-1.226-0.776-2.359-1.214-3.41C42.683,12.412,35.197,7.213,26.5,7.213z"/>
</g>
<g>
</g>
<g>
</g>
<g>
</g>
<g>
</g>
<g>
</g>
<g>
</g>
<g>
</g>
<g>
</g>
<g>
</g>
<g>
</g>
<g>
</g>
<g>
</g>
<g>
</g>
<g>
</g>
<g>
</g>
</svg>
