<?xml version="1.0" encoding="iso-8859-1"?>
<!-- Generator: Adobe Illustrator 18.0.0, SVG Export Plug-In . SVG Version: 6.00 Build 0)  -->
<!DOCTYPE svg PUBLIC "-//W3C//DTD SVG 1.1//EN" "http://www.w3.org/Graphics/SVG/1.1/DTD/svg11.dtd">
<svg version="1.1" id="Capa_1" xmlns="http://www.w3.org/2000/svg" xmlns:xlink="http://www.w3.org/1999/xlink" x="0px" y="0px"
	 viewBox="0 0 57.679 57.679" style="enable-background:new 0 0 57.679 57.679;" xml:space="preserve">
<g>
	<ellipse style="fill:#E57E25;" cx="28.839" cy="33.179" rx="28" ry="24.5"/>
	<path style="fill:#B26226;" d="M9.84,45.997c-0.381,0-0.746-0.219-0.912-0.589c-1.678-3.725-2.565-7.953-2.565-12.229
		c0-3.671,0.627-7.213,1.865-10.528c0.194-0.518,0.769-0.778,1.287-0.587c0.518,0.192,0.78,0.769,0.587,1.286
		c-1.154,3.091-1.739,6.398-1.739,9.829c0,3.995,0.826,7.939,2.388,11.407c0.227,0.504,0.003,1.096-0.501,1.323
		C10.117,45.969,9.977,45.997,9.84,45.997z"/>
	<path style="fill:#B26226;" d="M27.575,41.035C18.064,41.16,12.839,38,12.839,38s0.5,12.833,16,13c15.5-0.167,16-13,16-13
		s-5.225,3.16-14.735,3.035C29.261,41.024,28.418,41.024,27.575,41.035z"/>
	<ellipse style="fill:#B26226;" cx="19.339" cy="28.679" rx="5.5" ry="5"/>
	<ellipse style="fill:#B26226;" cx="38.339" cy="28.679" rx="5.5" ry="5"/>
	<path style="fill:#FBD490;" d="M25.37,8.873c1.138-0.123,2.294-0.194,3.469-0.194c1.005,0,1.997,0.049,2.974,0.139
		c-0.234-3.884,3.116-6.935,2.026-8.322c-0.385-0.49-6.418-0.633-6.975-0.355c-0.591,0.296-0.86,0.982-0.654,1.611
		C27.294,5.053,26.143,7.634,25.37,8.873z"/>
	<path style="fill:#B26226;" d="M28.839,7.679c-6.06,0-11.823,3.175-15.812,8.709c-0.323,0.448-0.221,1.073,0.227,1.396
		c0.448,0.321,1.073,0.22,1.396-0.227c2.348-3.259,5.362-5.607,8.67-6.853c-1.832,2.172-3.376,5.44-4.45,9.601
		c-0.138,0.535,0.184,1.08,0.718,1.218c0.084,0.022,0.168,0.032,0.25,0.032c0.445,0,0.852-0.299,0.968-0.75
		c1.772-6.863,4.85-11.127,8.032-11.127c2.375,0,4.768,2.446,6.565,6.712c0.214,0.509,0.803,0.745,1.31,0.533
		c0.509-0.215,0.748-0.801,0.533-1.311c-0.845-2.005-1.818-3.651-2.885-4.919c7.791,2.934,13.477,11.902,13.477,22.484
		c0,0.553,0.448,1,1,1s1-0.447,1-1C49.839,19.118,40.419,7.679,28.839,7.679z"/>
	<path style="fill:#F0C419;" d="M24.839,50.635V46l-6-2v4.311C20.4,49.346,22.362,50.184,24.839,50.635z"/>
	<path style="fill:#F0C419;" d="M33.839,40.907V46l6-2v-4.095C38.214,40.334,36.206,40.716,33.839,40.907z"/>
	<path style="fill:#F0C419;" d="M19.339,23.679c-2.322,0-4.304,1.31-5.111,3.161C15.035,28.69,17.017,30,19.339,30
		s4.304-1.31,5.111-3.161C23.644,24.989,21.662,23.679,19.339,23.679z"/>
	<path style="fill:#F0C419;" d="M38.339,23.679c-2.322,0-4.304,1.31-5.111,3.161C34.035,28.69,36.017,30,38.339,30
		s4.304-1.31,5.111-3.161C42.644,24.989,40.662,23.679,38.339,23.679z"/>
</g>
<g>
</g>
<g>
</g>
<g>
</g>
<g>
</g>
<g>
</g>
<g>
</g>
<g>
</g>
<g>
</g>
<g>
</g>
<g>
</g>
<g>
</g>
<g>
</g>
<g>
</g>
<g>
</g>
<g>
</g>
</svg>
