<?xml version="1.0" encoding="iso-8859-1"?>
<!-- Generator: Adobe Illustrator 18.0.0, SVG Export Plug-In . SVG Version: 6.00 Build 0)  -->
<!DOCTYPE svg PUBLIC "-//W3C//DTD SVG 1.1//EN" "http://www.w3.org/Graphics/SVG/1.1/DTD/svg11.dtd">
<svg version="1.1" id="Capa_1" xmlns="http://www.w3.org/2000/svg" xmlns:xlink="http://www.w3.org/1999/xlink" x="0px" y="0px"
	 viewBox="0 0 58 58" style="enable-background:new 0 0 58 58;" xml:space="preserve">
<g>
	<path style="fill:#FAC176;" d="M44.488,17l-11.415-2.854L32.488,12l-4,1l-4-1l0.786,1.803L12.488,17c0,0-9.417,20.75,3,34
		c9.058,9.666,17.139-3.816,20.849-11.818L41.488,51C53.905,37.75,44.488,17,44.488,17z"/>
	<circle style="fill:#D1D4D1;" cx="45.982" cy="21.077" r="4.529"/>
	<path style="fill:#C03A2B;" d="M45.982,16.548c0.742,0,1.441,0.182,2.059,0.498v-0.498c0,0,0.117-10.797-13.553-15.547
		c-3.585-1.245-10.411-1.385-13-0.098c-4.685,2.33-12,8.079-12,18.115h32.463C42.701,17.553,44.223,16.548,45.982,16.548z"/>
	<path style="fill:#E6E7E8;" d="M41.453,21.06c0-0.742,0.182-1.441,0.498-2.059H8.805c-0.724,0-1.317,0.592-1.317,1.317v2.308
		c0,0.724,0.592,1.317,1.317,1.375h33.683C41.842,23.159,41.453,22.155,41.453,21.06z"/>
	<path style="fill:#E6E7E8;" d="M29.865,34.717c1.054-0.805,2.579-1.024,4.092-0.176c1.042,0.584,1.536,1.753,1.531,2.948
		C35.472,41.37,43.679,41,49.488,41c-1.534,1.534-5.797,5.833-10.5,5.833c-4.156,0-8.003-4.667-10.487-4.667h-0.026
		c-2.484,0-6.312,4.667-10.487,4.667c-4.63,0-8.966-4.299-10.5-5.833c5.809,0,14.016,0.37,14-3.511
		c-0.005-1.195,0.489-2.364,1.531-2.948c1.514-0.849,3.039-0.629,4.092,0.176C27.917,35.331,29.06,35.331,29.865,34.717z"/>
	<g>
		<path style="fill:#D1D4D1;" d="M38.988,46.833c-4.156,0-8.003-4.667-10.487-4.667h-0.026c-2.484,0-6.312,4.667-10.487,4.667
			c-2.53,0-4.968-1.285-6.913-2.699c2.395,5.941,7.34,10.685,13.716,12.698L28.488,58l3.697-1.168
			c6.367-2.011,11.308-6.745,13.707-12.674C43.964,45.563,41.543,46.833,38.988,46.833z"/>
	</g>
	<g>
		<path style="fill:#C1853E;" d="M41.989,30.078l-3.763-1.574l3.516-0.494c0.547-0.077,0.928-0.583,0.851-1.129
			c-0.077-0.547-0.582-0.933-1.129-0.851l-7.868,1.108l-0.198,1.514l7.819,3.27C41.344,31.975,41.475,32,41.603,32
			c0.391,0,0.763-0.231,0.923-0.615C42.739,30.876,42.499,30.291,41.989,30.078z"/>
		<path style="fill:#C1853E;" d="M15.627,26.03c-0.545-0.079-1.053,0.304-1.129,0.851s0.304,1.053,0.851,1.129l3.516,0.493
			l-3.763,1.574c-0.51,0.213-0.75,0.799-0.537,1.308C14.726,31.77,15.098,32,15.489,32c0.128,0,0.259-0.025,0.385-0.078l7.121-2.979
			l0.706-0.305l-0.216-1.506L15.627,26.03z"/>
	</g>
	<path style="fill:#D66F67;" d="M35.688,10.001c-0.552,0-1,0.448-1,1s0.448,1,1,1c2.255,0,4.255,1.469,5.4,3h-3.753
		c-0.552,0-1,0.448-1,1s0.448,1,1,1h4.729c0.023,0.13,0.036,0.254,0.036,0.371c0,0.334,0.175,0.615,0.426,0.797
		c0.421-0.501,0.943-0.911,1.542-1.192C43.745,14.129,40.046,10.001,35.688,10.001z"/>
</g>
<g>
</g>
<g>
</g>
<g>
</g>
<g>
</g>
<g>
</g>
<g>
</g>
<g>
</g>
<g>
</g>
<g>
</g>
<g>
</g>
<g>
</g>
<g>
</g>
<g>
</g>
<g>
</g>
<g>
</g>
</svg>
