<?xml version="1.0" encoding="iso-8859-1"?>
<!-- Generator: Adobe Illustrator 18.0.0, SVG Export Plug-In . SVG Version: 6.00 Build 0)  -->
<!DOCTYPE svg PUBLIC "-//W3C//DTD SVG 1.1//EN" "http://www.w3.org/Graphics/SVG/1.1/DTD/svg11.dtd">
<svg version="1.1" id="Capa_1" xmlns="http://www.w3.org/2000/svg" xmlns:xlink="http://www.w3.org/1999/xlink" x="0px" y="0px"
	 viewBox="0 0 52.93 52.93" style="enable-background:new 0 0 52.93 52.93;" xml:space="preserve">
<g>
	<path style="fill:#325438;" d="M33.98,40.515l-6.735-6.735c-0.583-0.583-0.583-1.538,0-2.121l0.536-0.536
		c0.583-0.583,1.538-0.583,2.121,0l6.735,6.735c0.583,0.583,0.583,1.538,0,2.121l-0.536,0.536
		C35.518,41.099,34.563,41.099,33.98,40.515z"/>
	<g>
		<path style="fill:#4C8056;" d="M24.174,52.93c0.709,0,1.291-0.565,1.306-1.274c0.015-0.716,0.009-1.487-0.018-1.9
			c-0.071-1.088,0.28-2.158,1.051-2.928l7.2-6.58l-6.199-6.199l-6.58,6.58c-0.775,0.775-1.851,1.118-2.944,1.05
			c-4.856-0.303-12.372,6.07-17.456,11.138c-0.042,0.042-0.01,0.114,0.05,0.114l4.074,0L24.174,52.93z"/>
	</g>
	<path style="fill:#325438;" d="M25.418,47.93c-0.256,0-0.512-0.098-0.707-0.293l-5-5c-0.391-0.391-0.391-1.023,0-1.414
		s1.023-0.391,1.414,0l5,5c0.391,0.391,0.391,1.023,0,1.414C25.93,47.832,25.674,47.93,25.418,47.93z"/>
	<path style="fill:#E0BD85;" d="M44.698,13.761l-4.45-2.281c-0.884-0.453-1.107-1.616-0.453-2.364l4.102-4.755l4.45,2.281
		l-1.465,6.107C46.657,13.716,45.582,14.214,44.698,13.761z"/>
	<path style="fill:#FBD490;" d="M42.346,3.566c-0.645-0.33-0.81-1.187-0.328-1.728c1.626-1.825,4.337-2.399,6.613-1.232
		s3.394,3.702,2.862,6.088c-0.158,0.707-0.95,1.073-1.594,0.742L42.346,3.566z"/>
	<g>
		<path style="fill:#D1D4D1;" d="M49.566,31.941c-7.061-1.051-11.636,3.077-11.827,3.255c-0.405,0.373-0.43,1.004-0.058,1.409
			c0.197,0.215,0.466,0.323,0.737,0.323c0.241,0,0.483-0.086,0.675-0.262c0.04-0.036,4.096-3.666,10.175-2.747
			c0.54,0.074,1.055-0.294,1.137-0.841C50.489,32.532,50.112,32.023,49.566,31.941z"/>
		<path style="fill:#D1D4D1;" d="M39.125,29.223c-0.391-0.391-1.023-0.391-1.414,0l-3,3c-0.391,0.391-0.391,1.023,0,1.414
			c0.195,0.195,0.451,0.293,0.707,0.293s0.512-0.098,0.707-0.293l3-3C39.516,30.246,39.516,29.613,39.125,29.223z"/>
		<path style="fill:#D1D4D1;" d="M33.265,19.398c-0.295-0.469-0.912-0.607-1.379-0.314c-0.468,0.294-0.608,0.911-0.314,1.379
			c2.848,4.528,0.136,8.729,0.015,8.912c-0.306,0.458-0.184,1.078,0.273,1.386c0.171,0.115,0.365,0.17,0.557,0.17
			c0.322,0,0.638-0.155,0.831-0.442C33.395,30.269,36.82,25.05,33.265,19.398z"/>
	</g>
	<circle style="fill:#FBD490;" cx="40.918" cy="44.43" r="2.5"/>
	<circle style="fill:#E0BD85;" cx="49.918" cy="38.43" r="2.5"/>
	<circle style="fill:#E0BD85;" cx="24.918" cy="25.43" r="2.5"/>
	<circle style="fill:#E0BD85;" cx="48.918" cy="45.43" r="1.5"/>
	<circle style="fill:#DC9628;" cx="43.918" cy="50.43" r="1.5"/>
	<circle style="fill:#DC9628;" cx="16.918" cy="24.43" r="1.5"/>
	<circle style="fill:#FBD490;" cx="19.918" cy="32.43" r="1.5"/>
	<circle style="fill:#E0BD85;" cx="34.918" cy="50.43" r="1.5"/>
</g>
<g>
</g>
<g>
</g>
<g>
</g>
<g>
</g>
<g>
</g>
<g>
</g>
<g>
</g>
<g>
</g>
<g>
</g>
<g>
</g>
<g>
</g>
<g>
</g>
<g>
</g>
<g>
</g>
<g>
</g>
</svg>
