<?xml version="1.0" encoding="iso-8859-1"?>
<!-- Generator: Adobe Illustrator 18.0.0, SVG Export Plug-In . SVG Version: 6.00 Build 0)  -->
<!DOCTYPE svg PUBLIC "-//W3C//DTD SVG 1.1//EN" "http://www.w3.org/Graphics/SVG/1.1/DTD/svg11.dtd">
<svg version="1.1" id="Capa_1" xmlns="http://www.w3.org/2000/svg" xmlns:xlink="http://www.w3.org/1999/xlink" x="0px" y="0px"
	 viewBox="0 0 58 58" style="enable-background:new 0 0 58 58;" xml:space="preserve">
<g>
	<path style="fill:#556080;" d="M25.383,33.422L11,31.007v18.151C11,51.28,12.72,53,14.842,53h14.316C31.28,53,33,51.28,33,49.158
		V35.003C30.5,34.333,27.959,33.799,25.383,33.422z"/>
	<polygon style="fill:#FFFFFF;" points="22,36 24,40 28,40 25,44 26,49 22,47 18,49 19,44 16,40 20,40 	"/>
	<path style="fill:#F3D55B;" d="M2.5,33L2.5,33C1.125,33,0,31.875,0,30.5v-5C0,24.125,1.125,23,2.5,23h0C3.875,23,5,24.125,5,25.5v5
		C5,31.875,3.875,33,2.5,33z"/>
	<path style="fill:#F0C419;" d="M57,5c-0.553,0-1,0.447-1,1v3.76c-8.962,6.773-19.488,11.19-30.617,12.818L5,26v4l20.383,3.422
		C36.512,35.05,47.038,39.467,56,46.24V50c0,0.553,0.447,1,1,1s1-0.447,1-1V6C58,5.447,57.553,5,57,5z"/>
	<path style="fill:#F3D55B;" d="M40,37.291c1.352,0.527,2.686,1.098,4,1.713V16.997c-1.314,0.614-2.648,1.185-4,1.713V37.291z"/>
</g>
<g>
</g>
<g>
</g>
<g>
</g>
<g>
</g>
<g>
</g>
<g>
</g>
<g>
</g>
<g>
</g>
<g>
</g>
<g>
</g>
<g>
</g>
<g>
</g>
<g>
</g>
<g>
</g>
<g>
</g>
</svg>
