<?xml version="1.0" encoding="iso-8859-1"?>
<!-- Generator: Adobe Illustrator 18.0.0, SVG Export Plug-In . SVG Version: 6.00 Build 0)  -->
<!DOCTYPE svg PUBLIC "-//W3C//DTD SVG 1.1//EN" "http://www.w3.org/Graphics/SVG/1.1/DTD/svg11.dtd">
<svg version="1.1" id="Capa_1" xmlns="http://www.w3.org/2000/svg" xmlns:xlink="http://www.w3.org/1999/xlink" x="0px" y="0px"
	 viewBox="0 0 58 58" style="enable-background:new 0 0 58 58;" xml:space="preserve">
<g>
	<path style="fill:#C49C1E;" d="M50.5,20.5c0-1.814-1.385-3.288-3.152-3.465C46.927,15.575,45.596,14.5,44,14.5
		c-1.933,0-3.5,1.567-3.5,3.5h-8v-8c1.933,0,3.5-1.567,3.5-3.5c0-1.777-1.33-3.229-3.046-3.454C32.729,1.33,31.277,0,29.5,0
		s-3.229,1.33-3.454,3.046C24.33,3.271,23,4.723,23,6.5c0,1.933,1.567,3.5,3.5,3.5v8h-9c0-1.933-1.567-3.5-3.5-3.5
		c-1.596,0-2.927,1.075-3.348,2.535C8.885,17.212,7.5,18.686,7.5,20.5c0,1.763,1.309,3.208,3.005,3.45
		c0,0.017-0.005,0.033-0.005,0.05c0,1.933,1.567,3.5,3.5,3.5s3.5-1.567,3.5-3.5h9v24c-1.933,0-3.5,1.567-3.5,3.5
		c0,1.777,1.33,3.229,3.046,3.454C26.271,56.67,27.723,58,29.5,58s3.229-1.33,3.454-3.046C34.67,54.729,36,53.277,36,51.5
		c0-1.933-1.567-3.5-3.5-3.5V24h8c0,1.933,1.567,3.5,3.5,3.5s3.5-1.567,3.5-3.5c0-0.017-0.005-0.033-0.005-0.05
		C49.191,23.708,50.5,22.263,50.5,20.5z"/>
</g>
<g>
</g>
<g>
</g>
<g>
</g>
<g>
</g>
<g>
</g>
<g>
</g>
<g>
</g>
<g>
</g>
<g>
</g>
<g>
</g>
<g>
</g>
<g>
</g>
<g>
</g>
<g>
</g>
<g>
</g>
</svg>
