<?xml version="1.0" encoding="iso-8859-1"?>
<!-- Generator: Adobe Illustrator 18.0.0, SVG Export Plug-In . SVG Version: 6.00 Build 0)  -->
<!DOCTYPE svg PUBLIC "-//W3C//DTD SVG 1.1//EN" "http://www.w3.org/Graphics/SVG/1.1/DTD/svg11.dtd">
<svg version="1.1" id="Capa_1" xmlns="http://www.w3.org/2000/svg" xmlns:xlink="http://www.w3.org/1999/xlink" x="0px" y="0px"
	 viewBox="0 0 52 52" style="enable-background:new 0 0 52 52;" xml:space="preserve">
<g>
	<path style="fill:#C03A2B;" d="M44.043,52H7.957c-1.878,0-3.372-1.576-3.271-3.452l1.629-30.129C6.419,16.501,8.004,15,9.924,15
		h32.152c1.92,0,3.505,1.501,3.609,3.419l1.629,30.129C47.415,50.424,45.921,52,44.043,52z"/>
	<path style="fill:#E6EDEF;" d="M37.318,34h-3.382l1.276-2.553c0.247-0.494,0.047-1.095-0.447-1.342
		c-0.494-0.248-1.095-0.047-1.342,0.447L31.7,34h-1.83c-0.301-1.307-1.271-2.362-2.552-2.765v-1.617l3.447-1.724
		c0.494-0.247,0.694-0.848,0.447-1.342c-0.248-0.494-0.849-0.694-1.342-0.447l-2.553,1.276V24c0-0.552-0.447-1-1-1s-1,0.448-1,1
		v3.382l-2.553-1.276c-0.494-0.247-1.094-0.047-1.342,0.447c-0.247,0.494-0.047,1.095,0.447,1.342l3.447,1.724v1.537
		c-1.404,0.328-2.509,1.427-2.83,2.845h-1.552l-1.724-3.447c-0.248-0.494-0.849-0.695-1.342-0.447
		c-0.494,0.247-0.694,0.848-0.447,1.342L18.7,34h-3.382c-0.553,0-1,0.448-1,1s0.447,1,1,1H18.7l-1.276,2.553
		c-0.247,0.494-0.047,1.095,0.447,1.342C18.015,39.966,18.167,40,18.317,40c0.367,0,0.72-0.202,0.896-0.553L20.936,36h1.64
		c0.164,0.511,0.426,0.99,0.798,1.399c0.525,0.577,1.2,0.966,1.944,1.139v1.844l-3.447,1.724c-0.494,0.247-0.694,0.848-0.447,1.342
		C21.6,43.798,21.952,44,22.319,44c0.15,0,0.303-0.034,0.446-0.105l2.553-1.276V46c0,0.552,0.447,1,1,1s1-0.448,1-1v-3.382
		l2.553,1.276C30.015,43.966,30.167,44,30.317,44c0.367,0,0.72-0.202,0.896-0.553c0.247-0.494,0.047-1.095-0.447-1.342l-3.447-1.724
		v-1.928c1.172-0.367,2.094-1.278,2.469-2.454H31.7l1.724,3.447C33.6,39.798,33.952,40,34.319,40c0.15,0,0.303-0.034,0.446-0.105
		c0.494-0.247,0.694-0.848,0.447-1.342L33.936,36h3.382c0.553,0,1-0.448,1-1S37.871,34,37.318,34z"/>
	<path style="fill:#E64C3C;" d="M32.318,15V8c0-2.2-1.618-4-3.818-4h-4c-2.2,0-4.182,1.8-4.182,4v7h-4V8c0-4.411,3.771-8,8.182-8h4
		c4.411,0,7.818,3.589,7.818,8v7H32.318z"/>
	<circle style="fill:#E6E7E8;" cx="18.318" cy="19" r="1"/>
	<circle style="fill:#E6E7E8;" cx="34.318" cy="19" r="1"/>
</g>
<g>
</g>
<g>
</g>
<g>
</g>
<g>
</g>
<g>
</g>
<g>
</g>
<g>
</g>
<g>
</g>
<g>
</g>
<g>
</g>
<g>
</g>
<g>
</g>
<g>
</g>
<g>
</g>
<g>
</g>
</svg>
