<?xml version="1.0" encoding="iso-8859-1"?>
<!-- Generator: Adobe Illustrator 18.0.0, SVG Export Plug-In . SVG Version: 6.00 Build 0)  -->
<!DOCTYPE svg PUBLIC "-//W3C//DTD SVG 1.1//EN" "http://www.w3.org/Graphics/SVG/1.1/DTD/svg11.dtd">
<svg version="1.1" id="Capa_1" xmlns="http://www.w3.org/2000/svg" xmlns:xlink="http://www.w3.org/1999/xlink" x="0px" y="0px"
	 viewBox="0 0 58 58" style="enable-background:new 0 0 58 58;" xml:space="preserve">
<g>
	<path style="fill:#616D7F;" d="M11.047,51.074l-2.462,2.462c-0.781,0.781-0.781,2.047,0,2.828c0.781,0.781,2.047,0.781,2.828,0
		l2.802-2.802C13.092,52.813,12.034,51.98,11.047,51.074z"/>
	<path style="fill:#616D7F;" d="M47.445,50.617c-0.96,0.929-1.997,1.784-3.098,2.559l3.188,3.188c0.781,0.781,2.047,0.781,2.828,0
		s0.781-2.047,0-2.828L47.445,50.617z"/>
	<path style="fill:#616D7F;" d="M52,22H6l-2.356-3.927C3.36,17.601,3.701,17,4.251,17h49.497c0.551,0,0.891,0.601,0.608,1.073L52,22
		z"/>
	<g>
		<path style="fill:#464F5D;" d="M52,22H6l-0.185-0.309C4.019,25.088,3,28.928,3,33c0,13.807,11.641,25,26,25s26-11.193,26-25
			c0-4.072-1.019-7.912-2.815-11.309L52,22z"/>
	</g>
	<circle style="fill:#CB8252;" cx="42" cy="3" r="3"/>
	<circle style="fill:#E57E25;" cx="11" cy="3" r="3"/>
	<circle style="fill:#E57E25;" cx="32.5" cy="7.5" r="2.5"/>
	<circle style="fill:#CB8252;" cx="21.5" cy="4.5" r="2.5"/>
	<path style="fill:#F29C1F;" d="M48,13c-1.576,0-2.926,0.919-3.578,2.244C43.877,14.493,42.999,14,42,14
		c-0.907,0-1.711,0.411-2.261,1.048C39.133,13.279,37.474,12,35.5,12s-3.633,1.279-4.239,3.048C30.711,14.411,29.907,14,29,14
		c-0.781,0-1.487,0.306-2.021,0.796C26.87,12.131,24.691,10,22,10c-2.296,0-4.21,1.556-4.797,3.665C16.571,13.247,15.815,13,15,13
		c-1.576,0-2.926,0.919-3.578,2.244C10.877,14.493,9.999,14,9,14c-1.657,0-3,1.343-3,3h46C52,14.791,50.209,13,48,13z"/>
	<path style="fill:#616D7F;" d="M28,52c-9.925,0-18-8.075-18-18c0-0.553,0.447-1,1-1s1,0.447,1,1c0,8.822,7.178,16,16,16
		c0.553,0,1,0.447,1,1S28.553,52,28,52z"/>
</g>
<g>
</g>
<g>
</g>
<g>
</g>
<g>
</g>
<g>
</g>
<g>
</g>
<g>
</g>
<g>
</g>
<g>
</g>
<g>
</g>
<g>
</g>
<g>
</g>
<g>
</g>
<g>
</g>
<g>
</g>
</svg>
