<?xml version="1.0" encoding="iso-8859-1"?>
<!-- Generator: Adobe Illustrator 18.0.0, SVG Export Plug-In . SVG Version: 6.00 Build 0)  -->
<!DOCTYPE svg PUBLIC "-//W3C//DTD SVG 1.1//EN" "http://www.w3.org/Graphics/SVG/1.1/DTD/svg11.dtd">
<svg version="1.1" id="Capa_1" xmlns="http://www.w3.org/2000/svg" xmlns:xlink="http://www.w3.org/1999/xlink" x="0px" y="0px"
	 viewBox="0 0 58 58" style="enable-background:new 0 0 58 58;" xml:space="preserve">
<g>
	<path style="fill:#C4C6C6;" d="M55.633,48c0.647-2.598,1.334-5.854,1.799-9.432c1.569-12.086-0.116-21.615-5.006-28.32
		C46.248,1.778,36.419,0,29.26,0h-0.52C15.771,0,8.984,5.573,5.574,10.248c-4.891,6.706-6.575,16.234-5.006,28.32
		C1.032,42.146,1.719,45.402,2.367,48l-2.153,1.82c-0.131,0.11-0.187,0.285-0.146,0.451L2,58h7.231c0.054,0,0.104-0.014,0.158-0.016
		c0.787,0.054,1.597-0.041,2.389-0.308c3.144-1.061,4.812-4.411,3.726-7.482c-2.056-5.816-6.492-24.381-0.12-33.117
		c2.605-3.572,6.974-5.308,13.356-5.308h0.52c6.376,0,10.741,1.733,13.348,5.297c6.381,8.729,2.083,26.872-0.113,33.131
		c-1.084,3.071,0.584,6.419,3.727,7.48C46.873,57.896,47.536,58,48.189,58c0.111,0,0.495,0,0.58,0H56l1.932-7.729
		c0.041-0.166-0.015-0.341-0.146-0.451L55.633,48z"/>
	<g>
		<path style="fill:#E6E7E8;" d="M28.794,5.585h0.412c3.59,0,8.025,0.568,12.041,2.68l1.332-5.771C38.037,0.554,33.237,0,29.26,0
			h-0.52c-5.474,0-9.835,0.999-13.318,2.498l1.331,5.766C19.725,6.693,23.645,5.585,28.794,5.585z"/>
	</g>
	<path style="fill:#E6E7E8;" d="M51.996,30c-0.546,0-0.992-0.438-1-0.986c-0.084-6.029-1.505-10.978-4.225-14.708
		c-0.326-0.446-0.228-1.071,0.219-1.396c0.446-0.326,1.071-0.228,1.396,0.219c2.969,4.071,4.52,9.406,4.609,15.858
		c0.008,0.552-0.434,1.006-0.986,1.014C52.005,30,52.001,30,51.996,30z"/>
	<path style="fill:#E6E7E8;" d="M6.004,29.999c-0.005,0-0.009,0-0.014,0c-0.553-0.008-0.994-0.462-0.986-1.014
		c0.091-6.454,1.642-11.789,4.609-15.857c0.324-0.446,0.949-0.545,1.396-0.219c0.446,0.325,0.545,0.95,0.219,1.396
		c-2.719,3.728-4.14,8.676-4.225,14.707C6.996,29.561,6.55,29.999,6.004,29.999z"/>
	<circle style="fill:#E6E7E8;" cx="6.5" cy="35.5" r="2.5"/>
	<circle style="fill:#E6E7E8;" cx="8.5" cy="46.5" r="2.5"/>
	<circle style="fill:#E6E7E8;" cx="51.5" cy="35.5" r="2.5"/>
	<circle style="fill:#E6E7E8;" cx="49.5" cy="46.5" r="2.5"/>
</g>
<g>
</g>
<g>
</g>
<g>
</g>
<g>
</g>
<g>
</g>
<g>
</g>
<g>
</g>
<g>
</g>
<g>
</g>
<g>
</g>
<g>
</g>
<g>
</g>
<g>
</g>
<g>
</g>
<g>
</g>
</svg>
