<?xml version="1.0" encoding="iso-8859-1"?>
<!-- Generator: Adobe Illustrator 18.0.0, SVG Export Plug-In . SVG Version: 6.00 Build 0)  -->
<!DOCTYPE svg PUBLIC "-//W3C//DTD SVG 1.1//EN" "http://www.w3.org/Graphics/SVG/1.1/DTD/svg11.dtd">
<svg version="1.1" id="Capa_1" xmlns="http://www.w3.org/2000/svg" xmlns:xlink="http://www.w3.org/1999/xlink" x="0px" y="0px"
	 viewBox="0 0 56 56" style="enable-background:new 0 0 56 56;" xml:space="preserve">
<g>
	<ellipse style="fill:#7C6B8C;" cx="28" cy="28" rx="18.5" ry="28"/>
	<g>
		<path style="fill:#9E82BF;" d="M29.5,12h1.415l-0.95,0.95c-0.391,0.391-0.391,1.023,0,1.414c0.195,0.195,0.451,0.293,0.707,0.293
			s0.512-0.098,0.707-0.293l1.122-1.122V15c0,0.553,0.448,1,1,1s1-0.447,1-1v-1.586l1.122,1.121
			c0.195,0.195,0.451,0.293,0.707,0.293s0.512-0.098,0.707-0.293c0.391-0.391,0.391-1.023,0-1.414L35.914,12H37.5
			c0.552,0,1-0.447,1-1s-0.448-1-1-1h-1.757l1.293-1.293c0.391-0.391,0.391-1.023,0-1.414s-1.023-0.391-1.414,0L34.5,8.415V7
			c0-0.553-0.448-1-1-1s-1,0.447-1,1v1.586l-1.122-1.121c-0.391-0.391-1.023-0.391-1.414,0s-0.391,1.023,0,1.414L31.086,10H29.5
			c-0.552,0-1,0.447-1,1S28.948,12,29.5,12z"/>
		<path style="fill:#9E82BF;" d="M15.5,17h1.415l-0.95,0.95c-0.391,0.391-0.391,1.023,0,1.414c0.195,0.195,0.451,0.293,0.707,0.293
			s0.512-0.098,0.707-0.293l1.122-1.122V20c0,0.553,0.448,1,1,1s1-0.447,1-1v-1.586l1.122,1.121
			c0.195,0.195,0.451,0.293,0.707,0.293s0.512-0.098,0.707-0.293c0.391-0.391,0.391-1.023,0-1.414L21.914,17H23.5
			c0.552,0,1-0.447,1-1s-0.448-1-1-1h-1.757l1.293-1.293c0.391-0.391,0.391-1.023,0-1.414s-1.023-0.391-1.414,0L20.5,13.415V12
			c0-0.553-0.448-1-1-1s-1,0.447-1,1v1.586l-1.122-1.121c-0.391-0.391-1.023-0.391-1.414,0s-0.391,1.023,0,1.414L17.086,15H15.5
			c-0.552,0-1,0.447-1,1S14.948,17,15.5,17z"/>
		<path style="fill:#9E82BF;" d="M31.036,27.121L29.914,26H31.5c0.552,0,1-0.447,1-1s-0.448-1-1-1h-1.757l1.293-1.293
			c0.391-0.391,0.391-1.023,0-1.414s-1.023-0.391-1.414,0L28.5,22.415V21c0-0.553-0.448-1-1-1s-1,0.447-1,1v1.586l-1.122-1.121
			c-0.391-0.391-1.023-0.391-1.414,0s-0.391,1.023,0,1.414L25.086,24H23.5c-0.552,0-1,0.447-1,1s0.448,1,1,1h1.415l-0.95,0.95
			c-0.391,0.391-0.391,1.023,0,1.414c0.195,0.195,0.451,0.293,0.707,0.293s0.512-0.098,0.707-0.293l1.122-1.122V29
			c0,0.553,0.448,1,1,1s1-0.447,1-1v-1.586l1.122,1.121c0.195,0.195,0.451,0.293,0.707,0.293s0.512-0.098,0.707-0.293
			C31.426,28.145,31.426,27.512,31.036,27.121z"/>
		<path style="fill:#9E82BF;" d="M43.5,27h-1.757l1.293-1.293c0.391-0.391,0.391-1.023,0-1.414s-1.023-0.391-1.414,0L40.5,25.415V24
			c0-0.553-0.448-1-1-1s-1,0.447-1,1v1.586l-1.122-1.121c-0.391-0.391-1.023-0.391-1.414,0s-0.391,1.023,0,1.414L37.086,27H35.5
			c-0.552,0-1,0.447-1,1s0.448,1,1,1h1.415l-0.95,0.95c-0.391,0.391-0.391,1.023,0,1.414c0.195,0.195,0.451,0.293,0.707,0.293
			s0.512-0.098,0.707-0.293l1.122-1.122V32c0,0.553,0.448,1,1,1s1-0.447,1-1v-1.586l1.122,1.121
			c0.195,0.195,0.451,0.293,0.707,0.293s0.512-0.098,0.707-0.293c0.391-0.391,0.391-1.023,0-1.414L41.914,29H43.5
			c0.552,0,1-0.447,1-1S44.052,27,43.5,27z"/>
		<path style="fill:#9E82BF;" d="M20.5,39v-1.586l1.122,1.121c0.195,0.195,0.451,0.293,0.707,0.293s0.512-0.098,0.707-0.293
			c0.391-0.391,0.391-1.023,0-1.414L21.914,36H23.5c0.552,0,1-0.447,1-1s-0.448-1-1-1h-1.757l1.293-1.293
			c0.391-0.391,0.391-1.023,0-1.414s-1.023-0.391-1.414,0L20.5,32.415V31c0-0.553-0.448-1-1-1s-1,0.447-1,1v1.586l-1.122-1.121
			c-0.391-0.391-1.023-0.391-1.414,0s-0.391,1.023,0,1.414L17.086,34H15.5c-0.552,0-1,0.447-1,1s0.448,1,1,1h1.415l-0.95,0.95
			c-0.391,0.391-0.391,1.023,0,1.414c0.195,0.195,0.451,0.293,0.707,0.293s0.512-0.098,0.707-0.293l1.122-1.122V39
			c0,0.553,0.448,1,1,1S20.5,39.553,20.5,39z"/>
		<path style="fill:#9E82BF;" d="M39.5,38h-1.757l1.293-1.293c0.391-0.391,0.391-1.023,0-1.414s-1.023-0.391-1.414,0L36.5,36.415V35
			c0-0.553-0.448-1-1-1s-1,0.447-1,1v1.586l-1.122-1.121c-0.391-0.391-1.023-0.391-1.414,0s-0.391,1.023,0,1.414L33.086,38H31.5
			c-0.552,0-1,0.447-1,1s0.448,1,1,1h1.415l-0.95,0.95c-0.391,0.391-0.391,1.023,0,1.414c0.195,0.195,0.451,0.293,0.707,0.293
			s0.512-0.098,0.707-0.293l1.122-1.122V43c0,0.553,0.448,1,1,1s1-0.447,1-1v-1.586l1.122,1.121
			c0.195,0.195,0.451,0.293,0.707,0.293s0.512-0.098,0.707-0.293c0.391-0.391,0.391-1.023,0-1.414L37.914,40H39.5
			c0.552,0,1-0.447,1-1S40.052,38,39.5,38z"/>
		<path style="fill:#9E82BF;" d="M28.5,46h-1.757l1.293-1.293c0.391-0.391,0.391-1.023,0-1.414s-1.023-0.391-1.414,0L25.5,44.415V43
			c0-0.553-0.448-1-1-1s-1,0.447-1,1v1.586l-1.122-1.121c-0.391-0.391-1.023-0.391-1.414,0s-0.391,1.023,0,1.414L22.086,46H20.5
			c-0.552,0-1,0.447-1,1s0.448,1,1,1h1.415l-0.95,0.95c-0.391,0.391-0.391,1.023,0,1.414c0.195,0.195,0.451,0.293,0.707,0.293
			s0.512-0.098,0.707-0.293l1.122-1.122V51c0,0.553,0.448,1,1,1s1-0.447,1-1v-1.586l1.122,1.121
			c0.195,0.195,0.451,0.293,0.707,0.293s0.512-0.098,0.707-0.293c0.391-0.391,0.391-1.023,0-1.414L26.914,48H28.5
			c0.552,0,1-0.447,1-1S29.052,46,28.5,46z"/>
	</g>
</g>
<g>
</g>
<g>
</g>
<g>
</g>
<g>
</g>
<g>
</g>
<g>
</g>
<g>
</g>
<g>
</g>
<g>
</g>
<g>
</g>
<g>
</g>
<g>
</g>
<g>
</g>
<g>
</g>
<g>
</g>
</svg>
