<?xml version="1.0" encoding="iso-8859-1"?>
<!-- Generator: Adobe Illustrator 18.0.0, SVG Export Plug-In . SVG Version: 6.00 Build 0)  -->
<!DOCTYPE svg PUBLIC "-//W3C//DTD SVG 1.1//EN" "http://www.w3.org/Graphics/SVG/1.1/DTD/svg11.dtd">
<svg version="1.1" id="Capa_1" xmlns="http://www.w3.org/2000/svg" xmlns:xlink="http://www.w3.org/1999/xlink" x="0px" y="0px"
	 viewBox="0 0 59 59" style="enable-background:new 0 0 59 59;" xml:space="preserve">
<g>
	<g>
		<path style="fill:#464F5D;" d="M30.527,50.47l-0.055-2c4.264-0.116,8.29-0.739,11.645-1.8l0.604,1.906
			C39.19,49.693,34.975,50.348,30.527,50.47z"/>
		<path style="fill:#464F5D;" d="M27.473,50.475c-4.474-0.124-8.691-0.776-12.198-1.888l0.604-1.906
			c3.332,1.056,7.36,1.676,11.649,1.794L27.473,50.475z"/>
	</g>
	<path style="fill:#637184;" d="M29.5,40c-0.673,0-1.34-0.038-2-0.101V57.5c0,0.825,0.675,1.5,1.5,1.5s1.5-0.675,1.5-1.5V39.949
		C30.166,39.965,29.837,40,29.5,40z"/>
	<path style="fill:#637184;" d="M39.812,36.703c-0.851,0.528-1.739,0.996-2.657,1.406l8.465,18.977
		c0.322,0.759,1.207,1.117,1.967,0.795c0.759-0.322,1.117-1.207,0.795-1.967L39.812,36.703z"/>
	<path style="fill:#637184;" d="M18.413,36.198L9.619,55.915c-0.322,0.759,0.035,1.644,0.795,1.967
		c0.759,0.322,1.645-0.035,1.967-0.795l8.638-19.365C20.115,37.272,19.246,36.764,18.413,36.198z"/>
	<path style="fill:#464F5D;" d="M50.004,18c0.838,0,1.5,0.716,1.438,1.551C50.609,30.743,40.853,40,29.5,40
		S8.391,30.743,7.558,19.551C7.495,18.716,8.158,18,8.996,18H50.004z"/>
	<rect x="3.5" y="14" style="fill:#A5A5A4;" width="52" height="2"/>
	<circle style="fill:#637184;" cx="3" cy="15" r="2.5"/>
	<circle style="fill:#637184;" cx="56" cy="15" r="2.5"/>
	<path style="fill:#D1D4D1;" d="M12.167,13c-0.256,0-0.512-0.098-0.707-0.293c-1.297-1.298-1.273-3.433,0.053-4.76
		c0.273-0.273,0.421-0.567,0.425-0.851c0.006-0.343-0.201-0.623-0.376-0.798c-0.391-0.391-0.391-1.023,0-1.414s1.023-0.391,1.414,0
		c0.634,0.633,0.975,1.43,0.962,2.243c-0.013,0.813-0.362,1.586-1.011,2.233c-0.546,0.547-0.57,1.414-0.053,1.932
		c0.391,0.391,0.391,1.024,0,1.414C12.679,12.902,12.423,13,12.167,13z"/>
	<path style="fill:#D1D4D1;" d="M47.729,13c-0.256,0-0.512-0.098-0.707-0.293c-1.298-1.298-1.274-3.433,0.053-4.76
		c0.273-0.273,0.42-0.567,0.425-0.851c0.005-0.343-0.202-0.623-0.377-0.798c-0.391-0.391-0.391-1.023,0-1.414s1.023-0.391,1.414,0
		c0.634,0.633,0.976,1.43,0.963,2.243s-0.362,1.586-1.011,2.233c-0.547,0.547-0.57,1.414-0.053,1.932
		c0.391,0.391,0.391,1.023,0,1.414C48.241,12.902,47.985,13,47.729,13z"/>
	<path style="fill:#D1D4D1;" d="M20.402,13c-0.256,0-0.512-0.098-0.707-0.293c-1.683-1.682-1.648-4.454,0.075-6.179
		c0.469-0.469,0.722-0.989,0.729-1.505c0.008-0.504-0.221-1.002-0.66-1.442c-0.391-0.391-0.391-1.023,0-1.414s1.023-0.391,1.414,0
		c0.832,0.832,1.263,1.83,1.246,2.889c-0.017,1.045-0.472,2.044-1.315,2.887c-0.944,0.944-0.978,2.448-0.075,3.351
		c0.391,0.391,0.391,1.023,0,1.414C20.914,12.902,20.658,13,20.402,13z"/>
	<path style="fill:#D1D4D1;" d="M38.45,13c-0.256,0-0.512-0.098-0.707-0.293c-1.683-1.682-1.648-4.454,0.075-6.179
		c0.469-0.469,0.722-0.989,0.729-1.505c0.008-0.504-0.221-1.002-0.66-1.442c-0.391-0.391-0.391-1.023,0-1.414s1.023-0.391,1.414,0
		c0.832,0.832,1.263,1.83,1.246,2.889c-0.017,1.045-0.472,2.044-1.315,2.887c-0.944,0.944-0.978,2.448-0.075,3.351
		c0.391,0.391,0.391,1.023,0,1.414C38.962,12.902,38.706,13,38.45,13z"/>
	<path style="fill:#D1D4D1;" d="M28.881,13c-0.256,0-0.512-0.098-0.707-0.293c-1.973-1.973-1.973-5.184,0-7.156
		c1.203-1.204,1.203-2.641,0-3.844c-0.391-0.391-0.391-1.023,0-1.414s1.023-0.391,1.414,0c1.964,1.964,1.964,4.707,0,6.672
		C29.01,7.544,28.69,8.313,28.69,9.129s0.319,1.585,0.897,2.164c0.391,0.391,0.391,1.023,0,1.414C29.393,12.902,29.137,13,28.881,13
		z"/>
	<path style="fill:#3D324C;" d="M18.464,18H8.996c-0.838,0-1.5,0.716-1.438,1.551C8.391,30.743,18.147,40,29.5,40
		c2.767,0,5.436-0.558,7.907-1.552C22.37,36.713,18.427,27.377,18.464,18z"/>
	<path style="fill:#556080;" d="M45.533,20h3.443c0.305,0,0.546,0.26,0.523,0.564C49.195,24.634,47.124,30.023,43.5,32
		c-0.859,0.469-2.641,1.141-4,1C44.968,32.369,45.546,23.41,45.533,20z"/>
</g>
<g>
</g>
<g>
</g>
<g>
</g>
<g>
</g>
<g>
</g>
<g>
</g>
<g>
</g>
<g>
</g>
<g>
</g>
<g>
</g>
<g>
</g>
<g>
</g>
<g>
</g>
<g>
</g>
<g>
</g>
</svg>
