<?xml version="1.0" encoding="iso-8859-1"?>
<!-- Generator: Adobe Illustrator 18.0.0, SVG Export Plug-In . SVG Version: 6.00 Build 0)  -->
<!DOCTYPE svg PUBLIC "-//W3C//DTD SVG 1.1//EN" "http://www.w3.org/Graphics/SVG/1.1/DTD/svg11.dtd">
<svg version="1.1" id="Capa_1" xmlns="http://www.w3.org/2000/svg" xmlns:xlink="http://www.w3.org/1999/xlink" x="0px" y="0px"
	 viewBox="0 0 57 57" style="enable-background:new 0 0 57 57;" xml:space="preserve">
<g>
	<path style="fill:#EDE6E6;" d="M11.984,46l0.602-1.203C12.83,44.308,13.329,44,13.874,44h30.219c0.546,0,1.045,0.308,1.289,0.797
		L45.984,46c5.4-4.676,8-12.797,8-20.5c0-14.14-11.509-25.592-25.671-25.499C12.946,0.101,1.329,14.062,3.218,29.313
		C4.042,35.971,7.034,42.069,11.984,46z"/>
	<path style="fill:#7D6599;" d="M46.184,57H11.784c-0.921,0-1.603-0.857-1.396-1.754l2.359-10.222
		C12.886,44.424,13.419,44,14.034,44h29.899c0.615,0,1.148,0.424,1.287,1.023l2.359,10.222C47.786,56.143,47.105,57,46.184,57z"/>
	<circle style="fill:#D1D4D1;" cx="44.484" cy="22.5" r="1.5"/>
	<circle style="fill:#D1D4D1;" cx="47.484" cy="16.5" r="1.5"/>
	<circle style="fill:#D1D4D1;" cx="42.484" cy="11.5" r="1.5"/>
	<circle style="fill:#D1D4D1;" cx="37.484" cy="5.5" r="1.5"/>
	<circle style="fill:#D1D4D1;" cx="34.484" cy="10.5" r="1.5"/>
	<circle style="fill:#D1D4D1;" cx="29.484" cy="5.5" r="1.5"/>
	<circle style="fill:#D1D4D1;" cx="20.484" cy="6.5" r="1.5"/>
	<circle style="fill:#D1D4D1;" cx="19.484" cy="12.5" r="1.5"/>
	<circle style="fill:#D1D4D1;" cx="12.484" cy="12.5" r="1.5"/>
	<circle style="fill:#D1D4D1;" cx="15.484" cy="20.5" r="1.5"/>
	<circle style="fill:#D1D4D1;" cx="11.484" cy="26.5" r="1.5"/>
	<circle style="fill:#D1D4D1;" cx="8.484" cy="21.5" r="1.5"/>
	<circle style="fill:#D1D4D1;" cx="9.484" cy="31.5" r="1.5"/>
	<circle style="fill:#D1D4D1;" cx="17.484" cy="28.5" r="1.5"/>
	<circle style="fill:#D1D4D1;" cx="47.484" cy="27.5" r="1.5"/>
	<circle style="fill:#D1D4D1;" cx="40.484" cy="28.5" r="1.5"/>
	<circle style="fill:#D1D4D1;" cx="41.484" cy="16.5" r="1.5"/>
	<circle style="fill:#D1D4D1;" cx="46.484" cy="35.5" r="1.5"/>
	<circle style="fill:#D1D4D1;" cx="43.484" cy="39.5" r="1.5"/>
	<circle style="fill:#D1D4D1;" cx="37.484" cy="40.5" r="1.5"/>
	<circle style="fill:#D1D4D1;" cx="20.484" cy="39.5" r="1.5"/>
	<circle style="fill:#D1D4D1;" cx="12.484" cy="38.5" r="1.5"/>
	<rect x="26.984" y="35" style="fill:#805333;" width="4" height="9"/>
	<path style="fill:#D1D4D1;" d="M36.984,50h-15c-0.553,0-1-0.448-1-1s0.447-1,1-1h15c0.553,0,1,0.448,1,1S37.537,50,36.984,50z"/>
	<path style="fill:#D1D4D1;" d="M35.984,54h-13c-0.553,0-1-0.448-1-1s0.447-1,1-1h13c0.553,0,1,0.448,1,1S36.537,54,35.984,54z"/>
	<path style="fill:#4C8056;" d="M31.704,27.037c-2.031,0.323-4.099,0.333-6.132,0.025c-2.801,3.319-6.991,6.019-10.588,6.019
		c8.36,5.225,18.969,5.225,27.329,0l0,0C38.706,33.081,34.505,30.367,31.704,27.037z"/>
	<path style="fill:#24AE5F;" d="M29.947,18.261c-0.903,0.058-1.809,0.029-2.709-0.076c-2.044,3.171-5.97,6.074-9.254,6.074
		c6.475,4.047,14.69,4.047,21.164,0C35.891,24.259,32.005,21.402,29.947,18.261z"/>
	<path style="fill:#4FBA6F;" d="M36.984,16c-3.316,0-7.5-3.917-8-7c-0.5,3.083-4.684,7-8,7l0,0
		C25.879,19.059,32.089,19.059,36.984,16L36.984,16z"/>
</g>
<g>
</g>
<g>
</g>
<g>
</g>
<g>
</g>
<g>
</g>
<g>
</g>
<g>
</g>
<g>
</g>
<g>
</g>
<g>
</g>
<g>
</g>
<g>
</g>
<g>
</g>
<g>
</g>
<g>
</g>
</svg>
