<?xml version="1.0" encoding="iso-8859-1"?>
<!-- Generator: Adobe Illustrator 18.0.0, SVG Export Plug-In . SVG Version: 6.00 Build 0)  -->
<!DOCTYPE svg PUBLIC "-//W3C//DTD SVG 1.1//EN" "http://www.w3.org/Graphics/SVG/1.1/DTD/svg11.dtd">
<svg version="1.1" id="Capa_1" xmlns="http://www.w3.org/2000/svg" xmlns:xlink="http://www.w3.org/1999/xlink" x="0px" y="0px"
	 viewBox="0 0 58 58" style="enable-background:new 0 0 58 58;" xml:space="preserve">
<g>
	<path style="fill:#464F5D;" d="M52,7.109c-2.634-0.714-4-1.121-4-1.121c-0.138-0.152-7.641-7.781-12,2
		c-0.394,0.884-0.654,3.439-0.891,4.119c-0.772,2.208-2.461,3.971-4.627,4.855c-2.665,1.087-7.064,3.04-11.305,5.627
		c-1.984,1.21-4.03,2.314-6.139,3.291c-0.696,0.322-1.464,0.673-2.286,1.041C6.966,28.617,3.187,30.332,0,32.988
		c0,0,12.938-3.125,16-2c0,0-13.625,5.41-14,8.16c0,0,9.5-3.202,17-3.16c0,0,7.875-1.625,12,6c0,0-3.438,3.313-3,5
		c0.364-0.045,0.729-1.064,1.093-1.102c1.55-0.479,3.181-0.769,4.866-0.857l-1.908-5.724c-0.175-0.524,0.108-1.091,0.632-1.265
		c0.528-0.178,1.09,0.108,1.265,0.632l2,6c0.04,0.119,0.049,0.239,0.044,0.357c1.431,0.088,2.814,0.354,4.132,0.784
		c0.625,0.057,1.252,1.098,1.875,1.175c-1.688-2.688-4.987-5.966-5-6c-1.028-2.603-1.31-4.669,0.819-6.486
		c1.151-0.982,2.504-2.184,3.649-3.214c2.469-2.221,4.219-5.172,4.759-8.45C46.739,19.73,46,17.988,46,17.988
		c-0.008-0.023-0.026-0.045-0.024-0.069c0.232-2.326,3.267-3.931,3.267-3.931l8.757-4C55.577,8.776,54.615,7.818,52,7.109z"/>
	<circle style="fill:#FFDA71;" cx="43" cy="7.988" r="2"/>
	<path style="fill:#647184;" d="M39,20.988c2.361-5.01-0.639-6.886-4.559-7.456c-0.901,1.534-2.284,2.747-3.959,3.43
		c-2.664,1.087-7.061,3.039-11.3,5.625c-1.987,1.212-4.036,2.318-6.149,3.296c-0.695,0.322-1.461,0.672-2.281,1.039
		C7.017,28.594,3.29,30.29,0.13,32.886c0.131-0.007,0.26-0.015,0.402-0.023c2.46-0.57,12.776-2.864,15.468-1.875
		c0,0-0.263,0.105-0.706,0.287C25.256,29.686,36.323,26.669,39,20.988z"/>
	<path style="fill:#647184;" d="M55.811,10.988l2.189-1c-0.712-0.356-1.293-0.688-1.831-1H48c-0.553,0-1,0.447-1,1s0.447,1,1,1
		H55.811z"/>
	<path style="fill:#805333;" d="M18.026,54.988c-0.403,0-0.669-0.436-0.472-0.787C20.981,48.106,27.51,43.988,35,43.988
		c7.066,0,12.98,4.576,16.511,10.19c0.221,0.351-0.043,0.81-0.458,0.81L18.026,54.988z"/>
</g>
<g>
</g>
<g>
</g>
<g>
</g>
<g>
</g>
<g>
</g>
<g>
</g>
<g>
</g>
<g>
</g>
<g>
</g>
<g>
</g>
<g>
</g>
<g>
</g>
<g>
</g>
<g>
</g>
<g>
</g>
</svg>
