<?xml version="1.0" encoding="iso-8859-1"?>
<!-- Generator: Adobe Illustrator 18.0.0, SVG Export Plug-In . SVG Version: 6.00 Build 0)  -->
<!DOCTYPE svg PUBLIC "-//W3C//DTD SVG 1.1//EN" "http://www.w3.org/Graphics/SVG/1.1/DTD/svg11.dtd">
<svg version="1.1" id="Capa_1" xmlns="http://www.w3.org/2000/svg" xmlns:xlink="http://www.w3.org/1999/xlink" x="0px" y="0px"
	 viewBox="0 0 57.661 57.661" style="enable-background:new 0 0 57.661 57.661;" xml:space="preserve">
<g>
	<path style="fill:#D1D4D1;" d="M9.881,57.661c-0.447,0-0.85-0.052-1.202-0.13c-1.074-0.239-1.937-1.001-2.309-2.039
		C5.981,54.409,6.175,53.216,6.89,52.3c2.42-3.1,6.623-3.909,9.273-4.097c-0.013-0.203-0.036-0.407-0.067-0.612
		c-0.269-1.75-0.625-3.19-1.029-4.163l1.847-0.768c0.472,1.136,0.862,2.692,1.159,4.628c0.045,0.292,0.076,0.584,0.092,0.874
		c0.223,0.008,0.362,0.018,0.4,0.021c3.848,0.171,7.637,0.621,10.98,1.02c6.883,0.817,12.827,1.524,15.132-0.777
		c1.047-1.046,1.413-2.782,1.116-5.308l1.986-0.234c0.373,3.174-0.18,5.45-1.689,6.957c-2.991,2.989-9.076,2.264-16.782,1.348
		C26,50.794,22.25,50.349,18.444,50.179c-0.014-0.001-0.152-0.011-0.389-0.017c-0.333,1.977-1.326,3.797-2.868,5.155
		C13.11,57.148,11.279,57.661,9.881,57.661z M16.002,50.23c-2.305,0.201-5.677,0.92-7.535,3.3c-0.29,0.372-0.371,0.854-0.215,1.287
		c0.083,0.23,0.305,0.638,0.861,0.761c1.459,0.325,3.058-0.269,4.751-1.761C14.952,52.859,15.686,51.604,16.002,50.23z"/>
	<path style="fill:#7D6599;" d="M51.488,41.779L51.488,41.779c-12.394,7.746-28.12,7.746-40.513,0l0,0L31.232,0L51.488,41.779z"/>
	<polygon style="fill:#FFFFFF;" points="33.366,29.119 36.501,32.695 41.225,32.141 38.792,36.227 40.779,40.548 36.141,39.497 
		32.646,42.722 32.212,37.986 28.064,35.659 32.434,33.783 	"/>
	<polygon style="fill:#FFFFFF;" points="19.573,28.295 22.942,31.651 23.557,26.935 27.79,24.767 23.494,22.726 22.741,18.03 
		22.226,18.574 17.308,28.718 	"/>
	<polygon style="fill:#FFFFFF;" points="32.873,15.526 33.359,20.257 36.818,16.993 39.779,17.629 35.073,7.923 33.929,6.646 
		33.049,11.32 28.7,13.245 	"/>
</g>
<g>
</g>
<g>
</g>
<g>
</g>
<g>
</g>
<g>
</g>
<g>
</g>
<g>
</g>
<g>
</g>
<g>
</g>
<g>
</g>
<g>
</g>
<g>
</g>
<g>
</g>
<g>
</g>
<g>
</g>
</svg>
