<?xml version="1.0" encoding="iso-8859-1"?>
<!-- Generator: Adobe Illustrator 18.0.0, SVG Export Plug-In . SVG Version: 6.00 Build 0)  -->
<!DOCTYPE svg PUBLIC "-//W3C//DTD SVG 1.1//EN" "http://www.w3.org/Graphics/SVG/1.1/DTD/svg11.dtd">
<svg version="1.1" id="Capa_1" xmlns="http://www.w3.org/2000/svg" xmlns:xlink="http://www.w3.org/1999/xlink" x="0px" y="0px"
	 viewBox="0 0 56 56" style="enable-background:new 0 0 56 56;" xml:space="preserve">
<g>
	<ellipse style="fill:#F29C1F;" cx="28" cy="28" rx="18.5" ry="28"/>
	<path style="fill:#B57726;" d="M10.799,38.304l35.682-11.418c-0.077-2.98-0.458-5.842-1.104-8.512L9.568,30.311
		C9.719,33.113,10.143,35.797,10.799,38.304z"/>
	<path style="fill:#F4B562;" d="M10.095,20.938l32.672-9.802c-1.434-2.872-3.225-5.311-5.273-7.168l-24.496,7.655
		C11.677,14.392,10.678,17.537,10.095,20.938z"/>
	<path style="fill:#F4B562;" d="M19.285,52.7l23.282-7.45c1.503-2.903,2.635-6.263,3.289-9.924L13.833,46
		C15.346,48.725,17.195,51.008,19.285,52.7z"/>
</g>
<g>
</g>
<g>
</g>
<g>
</g>
<g>
</g>
<g>
</g>
<g>
</g>
<g>
</g>
<g>
</g>
<g>
</g>
<g>
</g>
<g>
</g>
<g>
</g>
<g>
</g>
<g>
</g>
<g>
</g>
</svg>
