<?xml version="1.0" encoding="iso-8859-1"?>
<!-- Generator: Adobe Illustrator 18.0.0, SVG Export Plug-In . SVG Version: 6.00 Build 0)  -->
<!DOCTYPE svg PUBLIC "-//W3C//DTD SVG 1.1//EN" "http://www.w3.org/Graphics/SVG/1.1/DTD/svg11.dtd">
<svg version="1.1" id="Capa_1" xmlns="http://www.w3.org/2000/svg" xmlns:xlink="http://www.w3.org/1999/xlink" x="0px" y="0px"
	 viewBox="0 0 56 56" style="enable-background:new 0 0 56 56;" xml:space="preserve">
<g>
	<ellipse style="fill:#FFFC41;" cx="28" cy="28" rx="18.5" ry="28"/>
	<path style="fill:#C03A2B;" d="M13.591,10.447c6.606,1.126,10.798,4.205,12.741,6.006C28.501,18.622,31.479,20,34.86,20
		c3.071,0,6.473-1.14,9.902-3.851c-0.5-1.618-1.1-3.151-1.787-4.583c-5.75,5.245-10.756,4.211-13.422,1.546
		c-2.184-2.028-6.547-5.281-13.213-6.844C15.328,7.511,14.408,8.912,13.591,10.447z"/>
	<path style="fill:#D34A40;" d="M11.35,40.216c7.244,1.346,11.868,4.74,14.032,6.746C27.852,49.432,31.242,51,35.091,51
		c1.278,0,2.609-0.184,3.972-0.556c2.111-2.388,3.872-5.443,5.151-8.957c-6.496,5.853-12.148,4.688-15.165,1.672
		c-2.896-2.688-9.161-7.265-19.016-8.49C10.345,36.604,10.787,38.462,11.35,40.216z"/>
	<path style="fill:#D66F67;" d="M36.469,35.244c3.067,0,6.412-0.92,9.819-3.001C46.428,30.86,46.5,29.443,46.5,28
		c0-0.858-0.03-1.706-0.08-2.544c-6.99,6.18-13.09,5.012-16.323,1.947C27.121,24.782,20.78,20.356,10.837,19
		c-0.456,1.662-0.803,3.402-1.032,5.202c8.588,1.115,13.986,4.858,16.427,7.005C28.836,33.676,32.411,35.244,36.469,35.244z"/>
</g>
<g>
</g>
<g>
</g>
<g>
</g>
<g>
</g>
<g>
</g>
<g>
</g>
<g>
</g>
<g>
</g>
<g>
</g>
<g>
</g>
<g>
</g>
<g>
</g>
<g>
</g>
<g>
</g>
<g>
</g>
</svg>
