<?xml version="1.0" encoding="iso-8859-1"?>
<!-- Generator: Adobe Illustrator 18.0.0, SVG Export Plug-In . SVG Version: 6.00 Build 0)  -->
<!DOCTYPE svg PUBLIC "-//W3C//DTD SVG 1.1//EN" "http://www.w3.org/Graphics/SVG/1.1/DTD/svg11.dtd">
<svg version="1.1" id="Capa_1" xmlns="http://www.w3.org/2000/svg" xmlns:xlink="http://www.w3.org/1999/xlink" x="0px" y="0px"
	 viewBox="0 0 57.454 57.454" style="enable-background:new 0 0 57.454 57.454;" xml:space="preserve">
<g>
	<path style="fill:#3D324C;" d="M13.562,7.299l-6.263,6.263c-0.583,0.583-1.538,0.583-2.121,0l-0.394-0.394
		c-0.583-0.583-0.583-1.538,0-2.121l6.263-6.263c0.583-0.583,1.538-0.583,2.121,0l0.394,0.394
		C14.146,5.761,14.146,6.716,13.562,7.299z"/>
	<path style="fill:#556080;" d="M57.277,41.347L34.639,18.709c-4.82-4.82-10.682-7.332-15.313-7.029
		c-1.03,0.067-2.043-0.265-2.772-0.995l-3.189-3.189l-5.869,5.869l3.189,3.189c0.73,0.73,1.062,1.743,0.995,2.772
		c-0.303,4.631,2.209,10.493,7.029,15.313l22.638,22.638c0.926,0.926,5.243-1.889,9.642-6.288
		C55.388,46.59,58.204,42.273,57.277,41.347z"/>
	<path style="fill:#CBB292;" d="M4.981,10.85l5.869-5.869l-0.416-0.416L6.276,0.407c-0.543-0.543-1.422-0.543-1.965,0L0.407,4.311
		c-0.543,0.543-0.543,1.422,0,1.965l4.048,4.048L4.981,10.85z"/>
	<path style="fill:#F5EFCA;" d="M52.365,36.434L34.639,18.709c-0.707-0.707-1.438-1.358-2.183-1.964L22.059,27.142l19.799,19.799
		L52.365,36.434z"/>
	<polygon style="fill:#F0C419;" points="53.571,14.837 54.631,16.984 57,17.329 55.285,19 55.69,21.36 53.571,20.246 51.452,21.36 
		51.856,19 50.142,17.329 52.511,16.984 	"/>
	<circle style="fill:#FBD490;" cx="39.785" cy="10.5" r="2.5"/>
	<circle style="fill:#E0BD85;" cx="48.785" cy="4.5" r="2.5"/>
	<circle style="fill:#FBD490;" cx="47.785" cy="11.5" r="1.5"/>
	<circle style="fill:#E0BD85;" cx="42.785" cy="16.5" r="1.5"/>
	<path style="fill:#8697CB;" d="M15,22c-0.552,0-1-0.447-1-1c0-2.757,2.243-5,5-5c0.552,0,1,0.447,1,1s-0.448,1-1,1
		c-1.654,0-3,1.346-3,3C16,21.553,15.552,22,15,22z"/>
	
		<rect x="43.942" y="30.636" transform="matrix(0.7071 0.7071 -0.7071 0.7071 37.5996 -21.6566)" style="fill:#CBB292;" width="2" height="7.845"/>
	
		<rect x="37.269" y="29.809" transform="matrix(0.7071 -0.7071 0.7071 0.7071 -9.72 38.1507)" style="fill:#CBB292;" width="7.845" height="2"/>
	
		<rect x="33.769" y="26.309" transform="matrix(0.7071 -0.7071 0.7071 0.7071 -8.2703 34.6507)" style="fill:#CBB292;" width="7.845" height="2"/>
	
		<rect x="30.269" y="22.809" transform="matrix(0.7071 -0.7071 0.7071 0.7071 -6.8206 31.1507)" style="fill:#CBB292;" width="7.845" height="2"/>
</g>
<g>
</g>
<g>
</g>
<g>
</g>
<g>
</g>
<g>
</g>
<g>
</g>
<g>
</g>
<g>
</g>
<g>
</g>
<g>
</g>
<g>
</g>
<g>
</g>
<g>
</g>
<g>
</g>
<g>
</g>
</svg>
