<?xml version="1.0" encoding="iso-8859-1"?>
<!-- Generator: Adobe Illustrator 18.0.0, SVG Export Plug-In . SVG Version: 6.00 Build 0)  -->
<!DOCTYPE svg PUBLIC "-//W3C//DTD SVG 1.1//EN" "http://www.w3.org/Graphics/SVG/1.1/DTD/svg11.dtd">
<svg version="1.1" id="Capa_1" xmlns="http://www.w3.org/2000/svg" xmlns:xlink="http://www.w3.org/1999/xlink" x="0px" y="0px"
	 viewBox="0 0 56 56" style="enable-background:new 0 0 56 56;" xml:space="preserve">
<g>
	<path style="fill:#BDC3C7;" d="M51.048,13.625C50.4,13.863,49.703,14,48.972,14c-3.329,0-6.028-2.699-6.028-6.028
		c0-0.888,0.197-1.729,0.542-2.488C39.05,2.125,33.727,0,28,0c-5.435,0-10.504,1.916-14.799,4.981C13.707,5.863,14,6.882,14,7.972
		C14,11.301,11.301,14,7.972,14c-1.013,0-1.967-0.253-2.805-0.695C1.917,18.143,0,23.717,0,29c0,13.531,12.536,27,28,27
		s28-13.469,28-27C56,23.834,54.168,18.388,51.048,13.625z"/>
	<path style="fill:#FFFFFF;" d="M16.119,15.831c2.833-0.014,6.026,2.302,7.852,5.997c1.746,3.533,1.731,7.293,0.213,9.576
		c-2.833,0.014-6.026-2.302-7.852-5.997C14.586,21.874,14.6,18.114,16.119,15.831z"/>
	<path style="fill:#556080;" d="M43.707,41.293l-1.452-1.452C42.733,38.951,43,37.998,43,37c0-0.553-0.448-1-1-1s-1,0.447-1,1
		c0,0.455-0.09,0.9-0.253,1.333l-1.283-1.283c-0.391-0.391-1.023-0.391-1.414,0s-0.391,1.023,0,1.414l1.586,1.585
		c-0.871,0.938-2.118,1.764-3.635,2.415L34.866,40.5c-0.277-0.479-0.888-0.644-1.366-0.366c-0.479,0.276-0.642,0.888-0.366,1.366
		l0.955,1.654c-1.546,0.455-3.273,0.74-5.089,0.818V42c0-0.553-0.448-1-1-1s-1,0.447-1,1v1.972
		c-1.816-0.079-3.542-0.364-5.089-0.818l0.955-1.654c0.276-0.479,0.112-1.09-0.366-1.366c-0.479-0.277-1.09-0.111-1.366,0.366
		l-1.134,1.965c-1.518-0.651-2.764-1.476-3.635-2.415l1.586-1.585c0.391-0.391,0.391-1.023,0-1.414s-1.023-0.391-1.414,0
		l-1.283,1.282C15.09,37.9,15,37.455,15,37c0-0.553-0.448-1-1-1s-1,0.447-1,1c0,0.998,0.267,1.951,0.745,2.841l-1.452,1.452
		c-0.391,0.391-0.391,1.023,0,1.414C12.488,42.902,12.744,43,13,43s0.512-0.098,0.707-0.293l1.231-1.231
		c1.015,1.083,2.395,2.015,4.044,2.75l-0.849,1.47c-0.276,0.479-0.112,1.09,0.366,1.366c0.158,0.091,0.33,0.134,0.499,0.134
		c0.346,0,0.682-0.18,0.867-0.5l1.007-1.745c1.834,0.582,3.91,0.935,6.127,1.019V48c0,0.553,0.448,1,1,1s1-0.447,1-1v-2.029
		c2.217-0.084,4.292-0.437,6.127-1.019l1.007,1.745c0.186,0.321,0.521,0.5,0.867,0.5c0.169,0,0.341-0.043,0.499-0.134
		c0.479-0.276,0.642-0.888,0.366-1.366l-0.849-1.47c1.649-0.735,3.029-1.668,4.044-2.75l1.231,1.231C42.488,42.902,42.744,43,43,43
		s0.512-0.098,0.707-0.293C44.098,42.316,44.098,41.684,43.707,41.293z"/>
	<path style="fill:#7F5B53;" d="M20.303,25c0,2.61,2.007,4.729,4.559,4.956c0.766-2.256,0.527-5.26-0.891-8.128
		c-0.234-0.474-0.493-0.924-0.769-1.351C21.494,21.272,20.303,22.992,20.303,25z"/>
	<path style="fill:#FFFFFF;" d="M38.881,15.831c-2.833-0.014-6.026,2.302-7.852,5.997c-1.746,3.533-1.731,7.293-0.213,9.576
		c2.833,0.014,6.026-2.302,7.852-5.997C40.414,21.874,40.4,18.114,38.881,15.831z"/>
	<path style="fill:#7F5B53;" d="M34.697,25c0,2.61-2.007,4.729-4.559,4.956c-0.766-2.256-0.527-5.26,0.891-8.128
		c0.234-0.474,0.493-0.924,0.769-1.351C33.506,21.272,34.697,22.992,34.697,25z"/>
	<circle style="fill:#FFFFFF;" cx="23.303" cy="25" r="1"/>
	<circle style="fill:#FFFFFF;" cx="31.697" cy="25" r="1"/>
	<path style="fill:#E64C3C;" d="M14,7.972L14,7.972C14,11.301,11.301,14,7.972,14h0c-3.329,0-6.028-2.699-6.028-6.028v-5
		c0-0.568,0.46-1.028,1.028-1.028h5C11.301,1.944,14,4.643,14,7.972z"/>
	<path style="fill:#E64C3C;" d="M48.972,14L48.972,14c-3.329,0-6.028-2.699-6.028-6.028v0c0-3.329,2.699-6.028,6.028-6.028h5
		C54.54,1.944,55,2.404,55,2.972v5C55,11.301,52.301,14,48.972,14z"/>
</g>
<g>
</g>
<g>
</g>
<g>
</g>
<g>
</g>
<g>
</g>
<g>
</g>
<g>
</g>
<g>
</g>
<g>
</g>
<g>
</g>
<g>
</g>
<g>
</g>
<g>
</g>
<g>
</g>
<g>
</g>
</svg>
