<?xml version="1.0" encoding="iso-8859-1"?>
<!-- Generator: Adobe Illustrator 18.0.0, SVG Export Plug-In . SVG Version: 6.00 Build 0)  -->
<!DOCTYPE svg PUBLIC "-//W3C//DTD SVG 1.1//EN" "http://www.w3.org/Graphics/SVG/1.1/DTD/svg11.dtd">
<svg version="1.1" id="Capa_1" xmlns="http://www.w3.org/2000/svg" xmlns:xlink="http://www.w3.org/1999/xlink" x="0px" y="0px"
	 viewBox="0 0 58 58" style="enable-background:new 0 0 58 58;" xml:space="preserve">
<g>
	<path style="fill:#4C8056;" d="M47.275,5.737L43.652,4.65c-9.558-2.867-19.747-2.867-29.305,0l-3.622,1.087
		C9.701,6.044,9,6.987,9,8.056v37.199c4.261,1.278,8.615,2.131,13,2.574V34.5h14v13.329c4.385-0.443,8.739-1.296,13-2.574V8.056
		C49,6.987,48.299,6.044,47.275,5.737z"/>
	<circle style="fill:#71C285;" cx="10" cy="31.5" r="1"/>
	<circle style="fill:#71C285;" cx="12" cy="29.5" r="1"/>
	<circle style="fill:#71C285;" cx="10" cy="27.5" r="1"/>
	<circle style="fill:#71C285;" cx="12" cy="25.5" r="1"/>
	<circle style="fill:#71C285;" cx="10" cy="23.5" r="1"/>
	<circle style="fill:#71C285;" cx="12" cy="21.5" r="1"/>
	<circle style="fill:#71C285;" cx="10" cy="19.5" r="1"/>
	<circle style="fill:#71C285;" cx="12" cy="17.5" r="1"/>
	<circle style="fill:#71C285;" cx="10" cy="15.5" r="1"/>
	<circle style="fill:#71C285;" cx="12" cy="13.5" r="1"/>
	<circle style="fill:#71C285;" cx="10" cy="11.5" r="1"/>
	<circle style="fill:#71C285;" cx="12" cy="9.5" r="1"/>
	<circle style="fill:#71C285;" cx="10" cy="7.5" r="1"/>
	<circle style="fill:#71C285;" cx="48" cy="7.5" r="1"/>
	<circle style="fill:#71C285;" cx="46" cy="9.5" r="1"/>
	<circle style="fill:#71C285;" cx="48" cy="11.5" r="1"/>
	<circle style="fill:#71C285;" cx="46" cy="13.5" r="1"/>
	<circle style="fill:#71C285;" cx="48" cy="15.5" r="1"/>
	<circle style="fill:#71C285;" cx="46" cy="17.5" r="1"/>
	<circle style="fill:#71C285;" cx="48" cy="19.5" r="1"/>
	<circle style="fill:#71C285;" cx="46" cy="21.5" r="1"/>
	<circle style="fill:#71C285;" cx="48" cy="23.5" r="1"/>
	<circle style="fill:#71C285;" cx="46" cy="25.5" r="1"/>
	<circle style="fill:#71C285;" cx="48" cy="27.5" r="1"/>
	<circle style="fill:#71C285;" cx="46" cy="29.5" r="1"/>
	<circle style="fill:#71C285;" cx="48" cy="31.5" r="1"/>
	<rect x="22" y="34.5" style="fill:#8697CB;" width="14" height="16"/>
	<g>
		<path style="fill:#556080;" d="M22,35.829c-4.385-0.443-8.739-1.296-13-2.574v12c4.261,1.278,8.615,2.131,13,2.574V35.829z"/>
		<path style="fill:#556080;" d="M36,35.829v12c4.385-0.443,8.739-1.296,13-2.574v-12C44.739,34.533,40.385,35.386,36,35.829z"/>
	</g>
	<path style="fill:#4C8056;" d="M49,42.458v2.797c-4.261,1.278-8.615,2.131-13,2.574V50.5H22v-2.671
		c-4.385-0.443-8.739-1.296-13-2.574v-2.797c-4.816,0.423-9,1.444-9,3.797C0,51.225,15.193,55.5,29,55.5s29-4.275,29-9.245
		C58,43.901,53.816,42.881,49,42.458z"/>
	<path style="fill:#556080;" d="M33,43.5h-2c-0.553,0-1-0.447-1-1s0.447-1,1-1h2c0.553,0,1,0.447,1,1S33.553,43.5,33,43.5z"/>
	<path style="fill:#71C285;" d="M38.814,20.59c-0.972-1.538-2.735-2.531-4.659-2.531c1.923,0,3.687-0.993,4.659-2.531
		c0.022-0.035,0.045-0.076,0.067-0.121c0.737-1.504-0.442-3.536-2.116-3.536h-1.524v-1.524c0-1.674-2.028-2.846-3.534-2.117
		c-0.047,0.023-0.088,0.045-0.124,0.068c-1.539,0.972-2.53,2.736-2.53,4.657c0-1.921-0.991-3.685-2.53-4.657
		c-0.036-0.023-0.077-0.045-0.124-0.068c-1.507-0.729-3.534,0.443-3.534,2.117v1.524H21.34c-1.675,0-2.853,2.032-2.116,3.536
		c0.022,0.045,0.044,0.086,0.067,0.121c0.972,1.538,2.735,2.531,4.659,2.531c-1.923,0-3.687,0.993-4.659,2.531
		c-0.022,0.035-0.045,0.076-0.067,0.121c-0.737,1.504,0.442,3.536,2.116,3.536h1.524v1.524c0,1.674,2.028,2.846,3.534,2.117
		c0.047-0.023,0.088-0.045,0.124-0.068c0.576-0.364,1.076-0.839,1.475-1.392v3.836c0,0.553,0.447,1,1,1s1-0.447,1-1v-4.009
		c0.417,0.625,0.951,1.164,1.584,1.564c0.036,0.023,0.077,0.045,0.124,0.068c1.507,0.729,3.534-0.443,3.534-2.117v-1.524h1.524
		c1.675,0,2.853-2.032,2.116-3.536C38.859,20.666,38.837,20.625,38.814,20.59z"/>
</g>
<g>
</g>
<g>
</g>
<g>
</g>
<g>
</g>
<g>
</g>
<g>
</g>
<g>
</g>
<g>
</g>
<g>
</g>
<g>
</g>
<g>
</g>
<g>
</g>
<g>
</g>
<g>
</g>
<g>
</g>
</svg>
