<?xml version="1.0" encoding="iso-8859-1"?>
<!-- Generator: Adobe Illustrator 18.0.0, SVG Export Plug-In . SVG Version: 6.00 Build 0)  -->
<!DOCTYPE svg PUBLIC "-//W3C//DTD SVG 1.1//EN" "http://www.w3.org/Graphics/SVG/1.1/DTD/svg11.dtd">
<svg version="1.1" id="Capa_1" xmlns="http://www.w3.org/2000/svg" xmlns:xlink="http://www.w3.org/1999/xlink" x="0px" y="0px"
	 viewBox="0 0 57 57" style="enable-background:new 0 0 57 57;" xml:space="preserve">
<g>
	<g>
		<path style="fill:#DC9628;" d="M27.266,3.57c-0.338-0.396-0.77-0.701-1.269-0.881C26.513,2.966,26.942,3.26,27.266,3.57z"/>
		<path style="fill:#DC9628;" d="M14,9.5C6.483,9.5,0.368,7.594,0.032,5.205C0.021,5.311,0,5.415,0,5.524v13.167
			c0,4.193,1.593,8.304,4.671,11.152C9.068,33.912,14,33.487,14,33.487s4.932,0.425,9.329-3.644C26.407,26.995,28,22.884,28,18.691
			V5.524c0-0.109-0.021-0.213-0.032-0.319C27.632,7.594,21.517,9.5,14,9.5z"/>
		<path style="fill:#DC9628;" d="M2.003,2.689C1.504,2.869,1.071,3.175,0.734,3.57C1.058,3.26,1.487,2.966,2.003,2.689z"/>
	</g>
	
		<ellipse transform="matrix(0.7071 0.7071 -0.7071 0.7071 39.1105 -18.8361)" style="fill:#CB8252;" cx="42.292" cy="37.792" rx="11" ry="17.649"/>
	<path style="fill:#A36A1F;" d="M16,52.5V33.376c-1.214,0.174-2,0.111-2,0.111s-1.226,0.105-3-0.293v19.304L16,52.5z"/>
	<path style="fill:#F7B154;" d="M15.999,30.54c-2.684,0-5.29-0.76-7.538-2.198c-0.465-0.297-0.601-0.916-0.304-1.381
		c0.298-0.467,0.915-0.603,1.382-0.304c1.926,1.231,4.159,1.882,6.46,1.882c0.553,0,1,0.448,1,1S16.552,30.54,15.999,30.54z"/>
	<path style="fill:#F7B154;" d="M5.001,23.5c-0.361,0-0.71-0.196-0.888-0.539C3.085,20.986,3,18.778,3,16.5c0-0.552,0.447-1,1-1
		s1,0.448,1,1c0,2.097,0.066,3.961,0.887,5.539c0.255,0.49,0.064,1.094-0.425,1.349C5.314,23.464,5.156,23.5,5.001,23.5z"/>
	<ellipse style="fill:#A36A1F;" cx="14" cy="5" rx="14" ry="4.5"/>
	<path style="fill:#A0613F;" d="M50.568,33.53c-1.335-7.137-6.1-8.548-8.581-8.79c-0.783,0.359-1.565,0.77-2.344,1.241
		c0.133,0.464,0.574,0.789,1.061,0.725c0.264-0.029,6.43-0.655,7.896,7.191c0.09,0.481,0.511,0.816,0.982,0.816
		c0.061,0,0.123-0.005,0.185-0.017C50.312,34.595,50.669,34.072,50.568,33.53z"/>
	<path style="fill:#A0613F;" d="M43.641,38.042c0.144,0.413,0.53,0.672,0.944,0.672c0.108,0,0.22-0.018,0.328-0.056
		c0.521-0.182,0.798-0.751,0.616-1.273c-2.6-7.485-9.022-7.753-10.674-7.691c-0.113,0.109-0.229,0.208-0.341,0.32
		c-0.308,0.308-0.594,0.624-0.882,0.94c0.124,0.482,0.581,0.817,1.078,0.752C34.976,31.673,41.186,30.973,43.641,38.042z"/>
	<path style="fill:#A0613F;" d="M39.585,43.714c0.092,0,0.185-0.013,0.277-0.04c0.53-0.153,0.837-0.708,0.684-1.238
		c-2.237-7.753-8.282-7.848-9.781-7.744c-0.344,0.543-0.662,1.088-0.952,1.635c0.219,0.275,0.563,0.438,0.932,0.373
		c0.238-0.035,5.815-0.858,7.879,6.291C38.751,43.429,39.15,43.714,39.585,43.714z"/>
	<path style="fill:#DC9628;" d="M16,49.585V52.5l-5-0.002v-2.913C5.852,49.933,2,51.329,2,53c0,1.933,5.149,3.5,11.5,3.5
		S25,54.933,25,53C25,51.329,21.148,49.933,16,49.585z"/>
</g>
<g>
</g>
<g>
</g>
<g>
</g>
<g>
</g>
<g>
</g>
<g>
</g>
<g>
</g>
<g>
</g>
<g>
</g>
<g>
</g>
<g>
</g>
<g>
</g>
<g>
</g>
<g>
</g>
<g>
</g>
</svg>
