<?xml version="1.0" encoding="iso-8859-1"?>
<!-- Generator: Adobe Illustrator 18.0.0, SVG Export Plug-In . SVG Version: 6.00 Build 0)  -->
<!DOCTYPE svg PUBLIC "-//W3C//DTD SVG 1.1//EN" "http://www.w3.org/Graphics/SVG/1.1/DTD/svg11.dtd">
<svg version="1.1" id="Capa_1" xmlns="http://www.w3.org/2000/svg" xmlns:xlink="http://www.w3.org/1999/xlink" x="0px" y="0px"
	 viewBox="0 0 58 58" style="enable-background:new 0 0 58 58;" xml:space="preserve">
<g>
	<path style="fill:#CBB292;" d="M49.5,19.81c-3.038,0-5.5-2.462-5.5-5.5c0-0.603,0.1-1.181,0.28-1.724
		c-1.065,0.766-2.367,1.224-3.78,1.224c-3.59,0-6.5-2.91-6.5-6.5c0-0.295,0.026-0.583,0.065-0.868C32.611,6.154,31.109,6,29.571,6
		c-12.703,0-23,10.297-23,23c0,12.703,10.297,23,23,23c12.703,0,23-10.297,23-23c0-3.311-0.703-6.457-1.963-9.302
		C50.25,19.771,49.88,19.81,49.5,19.81z"/>
	<circle style="fill:#F9EAB0;" cx="19.714" cy="26.095" r="3.286"/>
	<circle style="fill:#F9EAB0;" cx="39.429" cy="26.095" r="3.286"/>
	<path style="fill:#9B866F;" d="M35.048,15.81H24.095c-0.552,0-1-0.447-1-1s0.448-1,1-1h10.953c0.552,0,1,0.447,1,1
		S35.6,15.81,35.048,15.81z"/>
	<path style="fill:#9B866F;" d="M38.333,19.81H20.81c-0.552,0-1-0.447-1-1s0.448-1,1-1h17.524c0.552,0,1,0.447,1,1
		S38.886,19.81,38.333,19.81z"/>
	<path style="fill:#9B866F;" d="M37,45.81H22c-2.2,0-4-1.8-4-4v-1c0-2.2,1.8-4,4-4h15c2.2,0,4,1.8,4,4v1
		C41,44.01,39.2,45.81,37,45.81z"/>
	<rect x="22" y="36.81" style="fill:#ECF0F1;" width="4" height="4"/>
	<rect x="33" y="36.81" style="fill:#ECF0F1;" width="4" height="4"/>
	<rect x="28" y="42.81" style="fill:#ECF0F1;" width="4" height="3"/>
	<path style="fill:#9B866F;" d="M6.571,29c0-2.425,0.378-4.762,1.074-6.956C7.122,21.894,6.571,21.81,6,21.81c-3.314,0-6,2.686-6,6
		s2.686,6,6,6c0.361,0,0.713-0.037,1.056-0.099C6.74,32.19,6.571,30.615,6.571,29z"/>
	<path style="fill:#9B866F;" d="M52,21.81c-0.193,0-0.383,0.011-0.572,0.029c0.738,2.255,1.143,4.66,1.143,7.162
		c0,1.649-0.177,3.256-0.507,4.806C55.348,33.771,58,31.101,58,27.81C58,24.496,55.314,21.81,52,21.81z"/>
	<circle style="fill:#9B866F;" cx="26.5" cy="30.31" r="1.5"/>
	<circle style="fill:#9B866F;" cx="32.5" cy="30.31" r="1.5"/>
</g>
<g>
</g>
<g>
</g>
<g>
</g>
<g>
</g>
<g>
</g>
<g>
</g>
<g>
</g>
<g>
</g>
<g>
</g>
<g>
</g>
<g>
</g>
<g>
</g>
<g>
</g>
<g>
</g>
<g>
</g>
</svg>
