<?xml version="1.0" encoding="iso-8859-1"?>
<!-- Generator: Adobe Illustrator 18.0.0, SVG Export Plug-In . SVG Version: 6.00 Build 0)  -->
<!DOCTYPE svg PUBLIC "-//W3C//DTD SVG 1.1//EN" "http://www.w3.org/Graphics/SVG/1.1/DTD/svg11.dtd">
<svg version="1.1" id="Capa_1" xmlns="http://www.w3.org/2000/svg" xmlns:xlink="http://www.w3.org/1999/xlink" x="0px" y="0px"
	 viewBox="0 0 55 55" style="enable-background:new 0 0 55 55;" xml:space="preserve">
<g>
	<path style="fill:#D1D4D1;" d="M54.185,23.07c-1.167-5.542-3.694-6.66-5.598-6.629c-1.119,0.018-2.161,0.526-3.031,1.23
		c-1.373,1.112-2.625,0.853-3.574,0.253c-1.076-0.68-1.77-1.844-1.952-3.103c-1.209-8.396-5.272-12.26-8.716-13.913
		c-1.186-0.569-2.491-0.837-3.807-0.837h0c-1.315,0-2.618,0.268-3.804,0.836C20.254,2.557,16.18,6.421,14.97,14.82
		c-0.181,1.258-0.874,2.42-1.947,3.1c-0.95,0.602-2.204,0.864-3.579-0.25c-0.87-0.704-1.911-1.212-3.03-1.23
		c-1.904-0.03-4.432,1.088-5.598,6.629c0,0-1.444,11.421-0.487,16.437c0.103,0.54,0.845,0.625,1.071,0.124
		c0.708-1.57,2.088-4.166,4.285-6.471c0.542-0.568,1.479-0.517,1.944,0.116c0.454,0.617,1.06,1.356,1.718,1.927
		c0.824,0.716,2.035,0.69,2.833-0.056c0.767-0.718,1.746-1.961,2.637-4.077c0,0-2.898,28.202,3.185,23.285
		c0,0,1.03-0.632,2.473-1.212c1.562-0.628,3.359-0.539,4.8,0.331c0.486,0.293,1.077,0.559,1.723,0.723L27,54.355
		c0.171-0.006,0.335-0.034,0.5-0.058c0.165,0.024,0.329,0.052,0.5,0.058l0.003-0.158c0.646-0.164,1.238-0.43,1.723-0.723
		c1.441-0.87,3.239-0.959,4.8-0.331C35.97,53.723,37,54.355,37,54.355c6.083,4.917,3.185-23.285,3.185-23.285
		c0.89,2.116,1.87,3.359,2.637,4.077c0.797,0.746,2.008,0.773,2.833,0.056c0.658-0.571,1.264-1.31,1.718-1.927
		c0.466-0.633,1.402-0.684,1.944-0.116c2.198,2.305,3.577,4.902,4.285,6.471c0.226,0.501,0.968,0.417,1.071-0.124
		C55.629,34.491,54.185,23.07,54.185,23.07z"/>
	<path style="fill:#ECF0F1;" d="M29.573,31.901c1.228-1.387,2.105-3.45,2.569-4.726c0.37-1.017,0.431-2.144,0.026-3.147
		c-1.111-2.752-4.444-2.804-4.444-2.804s-3.333,0-4.444,2.778c-0.407,1.017-0.344,2.158,0.031,3.188
		c0.466,1.278,1.341,3.33,2.564,4.712C26.859,33.014,28.588,33.014,29.573,31.901z"/>
	<path style="fill:#ECF0F1;" d="M22.984,17.028h-1.968c-1.113,0-2.016-0.903-2.016-2.016v-1.968c0-1.113,0.903-2.016,2.016-2.016
		h1.968c1.113,0,2.016,0.903,2.016,2.016v1.968C25,16.126,24.098,17.028,22.984,17.028z"/>
	<path style="fill:#ECF0F1;" d="M33.984,17.028h-1.968c-1.113,0-2.016-0.903-2.016-2.016v-1.968c0-1.113,0.903-2.016,2.016-2.016
		h1.968c1.113,0,2.016,0.903,2.016,2.016v1.968C36,16.126,35.098,17.028,33.984,17.028z"/>
</g>
<g>
</g>
<g>
</g>
<g>
</g>
<g>
</g>
<g>
</g>
<g>
</g>
<g>
</g>
<g>
</g>
<g>
</g>
<g>
</g>
<g>
</g>
<g>
</g>
<g>
</g>
<g>
</g>
<g>
</g>
</svg>
