<?xml version="1.0" encoding="iso-8859-1"?>
<!-- Generator: Adobe Illustrator 18.0.0, SVG Export Plug-In . SVG Version: 6.00 Build 0)  -->
<!DOCTYPE svg PUBLIC "-//W3C//DTD SVG 1.1//EN" "http://www.w3.org/Graphics/SVG/1.1/DTD/svg11.dtd">
<svg version="1.1" id="Capa_1" xmlns="http://www.w3.org/2000/svg" xmlns:xlink="http://www.w3.org/1999/xlink" x="0px" y="0px"
	 viewBox="0 0 58 58" style="enable-background:new 0 0 58 58;" xml:space="preserve">
<g>
	<g>
		<path style="fill:#D1D4D1;" d="M28,11.5V21c0,0.552,0.447,1,1,1s1-0.448,1-1v-9.5l7.6-5.7c0.442-0.331,0.532-0.958,0.2-1.4
			c-0.331-0.442-0.959-0.533-1.399-0.2L30,9V1c0-0.552-0.447-1-1-1s-1,0.448-1,1v8l-6.4-4.8c-0.441-0.332-1.067-0.241-1.399,0.2
			c-0.332,0.442-0.242,1.069,0.2,1.4L28,11.5z"/>
		<path style="fill:#D1D4D1;" d="M30,47.5V38c0-0.552-0.447-1-1-1s-1,0.448-1,1v9.5l-7.6,5.7c-0.442,0.331-0.532,0.958-0.2,1.4
			c0.196,0.262,0.496,0.4,0.801,0.4c0.209,0,0.419-0.065,0.599-0.2L28,50v7c0,0.552,0.447,1,1,1s1-0.448,1-1v-7l6.4,4.8
			c0.18,0.135,0.39,0.2,0.599,0.2c0.305,0,0.604-0.138,0.801-0.4c0.332-0.442,0.242-1.069-0.2-1.4L30,47.5z"/>
		<path style="fill:#D1D4D1;" d="M11.5,30H20c0.553,0,1-0.448,1-1s-0.447-1-1-1h-8.5l-5.7-7.6c-0.331-0.441-0.958-0.533-1.399-0.2
			c-0.442,0.331-0.532,0.958-0.2,1.4L9,28H1c-0.553,0-1,0.448-1,1s0.447,1,1,1h8l-4.8,6.4c-0.332,0.442-0.242,1.069,0.2,1.4
			C4.58,37.935,4.79,38,4.999,38c0.305,0,0.604-0.138,0.801-0.4L11.5,30z"/>
		<path style="fill:#D1D4D1;" d="M57,28h-7l4.8-6.4c0.332-0.442,0.242-1.069-0.2-1.4c-0.441-0.332-1.068-0.241-1.399,0.2L47.5,28H38
			c-0.553,0-1,0.448-1,1s0.447,1,1,1h9.5l5.7,7.6c0.196,0.262,0.496,0.4,0.801,0.4c0.209,0,0.419-0.065,0.599-0.2
			c0.442-0.331,0.532-0.958,0.2-1.4L50,30h7c0.553,0,1-0.448,1-1S57.553,28,57,28z"/>
		<path style="fill:#D1D4D1;" d="M22.707,36.707c0.391-0.391,0.391-1.023,0-1.414s-1.023-0.391-1.414,0l-5.375,5.375l-9.404-1.344
			c-0.546-0.076-1.054,0.302-1.132,0.848c-0.078,0.547,0.302,1.053,0.849,1.131l7.92,1.132l-5.657,5.657
			c-0.391,0.391-0.391,1.023,0,1.414c0.195,0.195,0.451,0.293,0.707,0.293s0.512-0.098,0.707-0.293l5.657-5.657l1.131,7.92
			c0.071,0.499,0.499,0.858,0.989,0.858c0.047,0,0.095-0.003,0.143-0.01c0.547-0.078,0.927-0.584,0.849-1.131l-1.343-9.405
			L22.707,36.707z"/>
		<path style="fill:#D1D4D1;" d="M34.657,21.929c-0.391,0.391-0.391,1.023,0,1.414c0.195,0.195,0.451,0.293,0.707,0.293
			s0.512-0.098,0.707-0.293l6.718-6.718l9.405,1.343c0.048,0.007,0.096,0.01,0.143,0.01c0.49,0,0.918-0.36,0.989-0.858
			c0.078-0.547-0.302-1.053-0.849-1.131l-7.92-1.131l4.95-4.95c0.391-0.391,0.391-1.023,0-1.414s-1.023-0.391-1.414,0l-4.95,4.95
			l-1.131-7.92c-0.078-0.546-0.586-0.929-1.132-0.848c-0.547,0.078-0.927,0.584-0.849,1.131l1.344,9.405L34.657,21.929z"/>
		<path style="fill:#D1D4D1;" d="M6.372,18.059c0.047,0,0.095-0.003,0.143-0.01l9.404-1.344l6.717,6.718
			c0.195,0.195,0.451,0.293,0.707,0.293s0.512-0.098,0.707-0.293c0.391-0.391,0.391-1.023,0-1.414l-6.717-6.717l1.344-9.405
			c0.078-0.547-0.302-1.053-0.849-1.131c-0.546-0.078-1.054,0.302-1.132,0.848l-1.131,7.92L9.908,7.867
			c-0.391-0.391-1.023-0.391-1.414,0s-0.391,1.023,0,1.414l5.657,5.657l-7.919,1.132c-0.547,0.078-0.927,0.584-0.849,1.131
			C5.454,17.699,5.882,18.059,6.372,18.059z"/>
		<path style="fill:#D1D4D1;" d="M52.193,39.404l-9.238,1.319l-6.238-6.42c-0.383-0.396-1.018-0.405-1.414-0.021
			c-0.396,0.385-0.405,1.018-0.02,1.414l6.115,6.293l-1.368,9.576c-0.078,0.547,0.302,1.053,0.849,1.131
			c0.048,0.007,0.096,0.01,0.143,0.01c0.49,0,0.918-0.36,0.989-0.858l1.149-8.046l4.922,5.065c0.195,0.202,0.456,0.303,0.717,0.303
			c0.251,0,0.503-0.094,0.697-0.283c0.396-0.385,0.405-1.018,0.02-1.414l-4.837-4.978l7.798-1.114
			c0.547-0.078,0.927-0.584,0.849-1.131C53.247,39.706,52.738,39.322,52.193,39.404z"/>
	</g>
	<circle style="fill:#E6E7E8;" cx="29" cy="29.5" r="8.5"/>
</g>
<g>
</g>
<g>
</g>
<g>
</g>
<g>
</g>
<g>
</g>
<g>
</g>
<g>
</g>
<g>
</g>
<g>
</g>
<g>
</g>
<g>
</g>
<g>
</g>
<g>
</g>
<g>
</g>
<g>
</g>
</svg>
