<?xml version="1.0" encoding="iso-8859-1"?>
<!-- Generator: Adobe Illustrator 18.0.0, SVG Export Plug-In . SVG Version: 6.00 Build 0)  -->
<!DOCTYPE svg PUBLIC "-//W3C//DTD SVG 1.1//EN" "http://www.w3.org/Graphics/SVG/1.1/DTD/svg11.dtd">
<svg version="1.1" id="Capa_1" xmlns="http://www.w3.org/2000/svg" xmlns:xlink="http://www.w3.org/1999/xlink" x="0px" y="0px"
	 viewBox="0 0 54 54" style="enable-background:new 0 0 54 54;" xml:space="preserve">
<g>
	<circle style="fill:#F0C419;" cx="27" cy="27" r="5"/>
	<g>
		<path style="fill:#E57E25;" d="M27,5c-0.552,0-1,0.447-1,1v2c0,0.553,0.448,1,1,1s1-0.447,1-1V6C28,5.447,27.552,5,27,5z"/>
		<path style="fill:#E57E25;" d="M27,10c-0.552,0-1,0.447-1,1v2c0,0.553,0.448,1,1,1s1-0.447,1-1v-2C28,10.447,27.552,10,27,10z"/>
		<path style="fill:#E57E25;" d="M27,15c-0.552,0-1,0.447-1,1v2c0,0.553,0.448,1,1,1s1-0.447,1-1v-2C28,15.447,27.552,15,27,15z"/>
		<path style="fill:#E57E25;" d="M27,0c-0.552,0-1,0.447-1,1v2c0,0.553,0.448,1,1,1s1-0.447,1-1V1C28,0.447,27.552,0,27,0z"/>
		<path style="fill:#E57E25;" d="M27,45c-0.552,0-1,0.447-1,1v2c0,0.553,0.448,1,1,1s1-0.447,1-1v-2C28,45.447,27.552,45,27,45z"/>
		<path style="fill:#E57E25;" d="M27,35c-0.552,0-1,0.447-1,1v2c0,0.553,0.448,1,1,1s1-0.447,1-1v-2C28,35.447,27.552,35,27,35z"/>
		<path style="fill:#E57E25;" d="M27,50c-0.552,0-1,0.447-1,1v2c0,0.553,0.448,1,1,1s1-0.447,1-1v-2C28,50.447,27.552,50,27,50z"/>
		<path style="fill:#E57E25;" d="M27,40c-0.552,0-1,0.447-1,1v2c0,0.553,0.448,1,1,1s1-0.447,1-1v-2C28,40.447,27.552,40,27,40z"/>
		<path style="fill:#E57E25;" d="M53,26h-2c-0.552,0-1,0.447-1,1s0.448,1,1,1h2c0.552,0,1-0.447,1-1S53.552,26,53,26z"/>
		<path style="fill:#E57E25;" d="M48,26h-2c-0.552,0-1,0.447-1,1s0.448,1,1,1h2c0.552,0,1-0.447,1-1S48.552,26,48,26z"/>
		<path style="fill:#E57E25;" d="M43,26h-2c-0.552,0-1,0.447-1,1s0.448,1,1,1h2c0.552,0,1-0.447,1-1S43.552,26,43,26z"/>
		<path style="fill:#E57E25;" d="M35,27c0,0.553,0.448,1,1,1h2c0.552,0,1-0.447,1-1s-0.448-1-1-1h-2C35.448,26,35,26.447,35,27z"/>
		<path style="fill:#E57E25;" d="M3,26H1c-0.552,0-1,0.447-1,1s0.448,1,1,1h2c0.552,0,1-0.447,1-1S3.552,26,3,26z"/>
		<path style="fill:#E57E25;" d="M10,27c0,0.553,0.448,1,1,1h2c0.552,0,1-0.447,1-1s-0.448-1-1-1h-2C10.448,26,10,26.447,10,27z"/>
		<path style="fill:#E57E25;" d="M15,27c0,0.553,0.448,1,1,1h2c0.552,0,1-0.447,1-1s-0.448-1-1-1h-2C15.448,26,15,26.447,15,27z"/>
		<path style="fill:#E57E25;" d="M9,27c0-0.553-0.448-1-1-1H6c-0.552,0-1,0.447-1,1s0.448,1,1,1h2C8.552,28,9,27.553,9,27z"/>
		<path style="fill:#E57E25;" d="M44.678,43.264c-0.391-0.391-1.023-0.391-1.414,0s-0.391,1.023,0,1.414l1.414,1.414
			c0.195,0.195,0.451,0.293,0.707,0.293s0.512-0.098,0.707-0.293c0.391-0.391,0.391-1.023,0-1.414L44.678,43.264z"/>
		<path style="fill:#E57E25;" d="M41.142,39.729c-0.391-0.391-1.023-0.391-1.414,0s-0.391,1.023,0,1.414l1.414,1.414
			c0.195,0.195,0.451,0.293,0.707,0.293s0.512-0.098,0.707-0.293c0.391-0.391,0.391-1.023,0-1.414L41.142,39.729z"/>
		<path style="fill:#E57E25;" d="M37.606,36.192c-0.391-0.391-1.023-0.391-1.414,0s-0.391,1.023,0,1.414l1.414,1.414
			c0.195,0.195,0.451,0.293,0.707,0.293s0.512-0.098,0.707-0.293c0.391-0.391,0.391-1.023,0-1.414L37.606,36.192z"/>
		<path style="fill:#E57E25;" d="M34.071,32.657c-0.391-0.391-1.023-0.391-1.414,0s-0.391,1.023,0,1.414l1.414,1.414
			c0.195,0.195,0.451,0.293,0.707,0.293s0.512-0.098,0.707-0.293c0.391-0.391,0.391-1.023,0-1.414L34.071,32.657z"/>
		<path style="fill:#E57E25;" d="M19.929,18.515c-0.391-0.391-1.023-0.391-1.414,0s-0.391,1.023,0,1.414l1.414,1.414
			c0.195,0.195,0.451,0.293,0.707,0.293s0.512-0.098,0.707-0.293c0.391-0.391,0.391-1.023,0-1.414L19.929,18.515z"/>
		<path style="fill:#E57E25;" d="M9.322,10.736c0.195,0.195,0.451,0.293,0.707,0.293s0.512-0.098,0.707-0.293
			c0.391-0.391,0.391-1.023,0-1.414L9.322,7.908c-0.391-0.391-1.023-0.391-1.414,0s-0.391,1.023,0,1.414L9.322,10.736z"/>
		<path style="fill:#E57E25;" d="M12.858,11.443c-0.391-0.391-1.023-0.391-1.414,0s-0.391,1.023,0,1.414l1.414,1.414
			c0.195,0.195,0.451,0.293,0.707,0.293s0.512-0.098,0.707-0.293c0.391-0.391,0.391-1.023,0-1.414L12.858,11.443z"/>
		<path style="fill:#E57E25;" d="M16.394,17.808c0.195,0.195,0.451,0.293,0.707,0.293s0.512-0.098,0.707-0.293
			c0.391-0.391,0.391-1.023,0-1.414l-1.414-1.414c-0.391-0.391-1.023-0.391-1.414,0s-0.391,1.023,0,1.414L16.394,17.808z"/>
		<path style="fill:#E57E25;" d="M33.364,21.251c0.256,0,0.512-0.098,0.707-0.293l1.414-1.414c0.391-0.391,0.391-1.023,0-1.414
			s-1.023-0.391-1.414,0l-1.414,1.414c-0.391,0.391-0.391,1.023,0,1.414C32.852,21.153,33.108,21.251,33.364,21.251z"/>
		<path style="fill:#E57E25;" d="M43.971,10.645c0.256,0,0.512-0.098,0.707-0.293l1.414-1.414c0.391-0.391,0.391-1.023,0-1.414
			s-1.023-0.391-1.414,0l-1.414,1.414c-0.391,0.391-0.391,1.023,0,1.414C43.459,10.547,43.715,10.645,43.971,10.645z"/>
		<path style="fill:#E57E25;" d="M40.435,14.18c0.256,0,0.512-0.098,0.707-0.293l1.414-1.414c0.391-0.391,0.391-1.023,0-1.414
			s-1.023-0.391-1.414,0l-1.414,1.414c-0.391,0.391-0.391,1.023,0,1.414C39.923,14.082,40.179,14.18,40.435,14.18z"/>
		<path style="fill:#E57E25;" d="M37.606,14.595l-1.414,1.414c-0.391,0.391-0.391,1.023,0,1.414
			c0.195,0.195,0.451,0.293,0.707,0.293s0.512-0.098,0.707-0.293l1.414-1.414c0.391-0.391,0.391-1.023,0-1.414
			S37.997,14.204,37.606,14.595z"/>
		<path style="fill:#E57E25;" d="M9.322,42.879l-1.414,1.414c-0.391,0.391-0.391,1.023,0,1.414C8.104,45.902,8.359,46,8.615,46
			s0.512-0.098,0.707-0.293l1.414-1.414c0.391-0.391,0.391-1.023,0-1.414S9.713,42.488,9.322,42.879z"/>
		<path style="fill:#E57E25;" d="M19.929,32.272l-1.414,1.414c-0.391,0.391-0.391,1.023,0,1.414
			c0.195,0.195,0.451,0.293,0.707,0.293s0.512-0.098,0.707-0.293l1.414-1.414c0.391-0.391,0.391-1.023,0-1.414
			S20.32,31.882,19.929,32.272z"/>
		<path style="fill:#E57E25;" d="M12.858,39.344l-1.414,1.414c-0.391,0.391-0.391,1.023,0,1.414
			c0.195,0.195,0.451,0.293,0.707,0.293s0.512-0.098,0.707-0.293l1.414-1.414c0.391-0.391,0.391-1.023,0-1.414
			S13.249,38.953,12.858,39.344z"/>
		<path style="fill:#E57E25;" d="M16.394,35.808l-1.414,1.414c-0.391,0.391-0.391,1.023,0,1.414
			c0.195,0.195,0.451,0.293,0.707,0.293s0.512-0.098,0.707-0.293l1.414-1.414c0.391-0.391,0.391-1.023,0-1.414
			S16.784,35.417,16.394,35.808z"/>
	</g>
	<polygon style="fill:#F0C419;" points="19,3.394 20.06,5.542 22.429,5.886 20.715,7.557 21.119,9.917 19,8.803 16.881,9.917 
		17.285,7.557 15.571,5.886 17.94,5.542 	"/>
	<polygon style="fill:#F0C419;" points="35.429,3.394 36.489,5.542 38.858,5.886 37.144,7.557 37.548,9.917 35.429,8.803 
		33.31,9.917 33.715,7.557 32,5.886 34.369,5.542 	"/>
	<polygon style="fill:#F0C419;" points="35.429,42 36.489,44.147 38.858,44.491 37.144,46.163 37.548,48.523 35.429,47.408 
		33.31,48.523 33.715,46.163 32,44.491 34.369,44.147 	"/>
	<polygon style="fill:#F0C419;" points="18.571,42 19.631,44.147 22,44.491 20.285,46.163 20.69,48.523 18.571,47.408 
		16.452,48.523 16.856,46.163 15.142,44.491 17.511,44.147 	"/>
	<polygon style="fill:#F0C419;" points="3.663,32.889 5.931,33.658 7.849,32.226 7.819,34.62 9.774,36.003 7.487,36.714 6.777,39 
		5.394,37.045 3,37.076 4.432,35.157 	"/>
	<polygon style="fill:#F0C419;" points="3.663,16.663 5.931,17.432 7.849,16 7.819,18.394 9.774,19.777 7.487,20.487 6.777,22.774 
		5.394,20.819 3,20.849 4.432,18.931 	"/>
	<polygon style="fill:#F0C419;" points="48.501,32.889 47.733,35.157 49.164,37.076 46.77,37.045 45.388,39 44.677,36.714 
		42.391,36.003 44.346,34.62 44.315,32.226 46.234,33.658 	"/>
	<polygon style="fill:#F0C419;" points="48.501,16.663 47.733,18.931 49.164,20.849 46.77,20.819 45.388,22.774 44.677,20.487 
		42.391,19.777 44.346,18.394 44.315,16 46.234,17.432 	"/>
</g>
<g>
</g>
<g>
</g>
<g>
</g>
<g>
</g>
<g>
</g>
<g>
</g>
<g>
</g>
<g>
</g>
<g>
</g>
<g>
</g>
<g>
</g>
<g>
</g>
<g>
</g>
<g>
</g>
<g>
</g>
</svg>
