<?xml version="1.0" encoding="iso-8859-1"?>
<!-- Generator: Adobe Illustrator 18.0.0, SVG Export Plug-In . SVG Version: 6.00 Build 0)  -->
<!DOCTYPE svg PUBLIC "-//W3C//DTD SVG 1.1//EN" "http://www.w3.org/Graphics/SVG/1.1/DTD/svg11.dtd">
<svg version="1.1" id="Capa_1" xmlns="http://www.w3.org/2000/svg" xmlns:xlink="http://www.w3.org/1999/xlink" x="0px" y="0px"
	 viewBox="0 0 59 59" style="enable-background:new 0 0 59 59;" xml:space="preserve">
<g>
	<g>
		<path style="fill:#805333;" d="M20.343,42.075c-0.139,0-0.28-0.029-0.415-0.091C12.009,38.366,6.892,30.537,6.892,22.039
			C6.892,9.887,17.034,0,29.5,0s22.608,9.887,22.608,22.039c0,5.954-2.411,11.534-6.791,15.713c-0.4,0.381-1.032,0.366-1.414-0.033
			c-0.381-0.399-0.366-1.032,0.033-1.414c3.98-3.797,6.171-8.863,6.171-14.266C50.108,10.989,40.863,2,29.5,2
			S8.892,10.989,8.892,22.039c0,7.718,4.658,14.832,11.867,18.127c0.502,0.229,0.724,0.822,0.494,1.325
			C21.085,41.858,20.723,42.075,20.343,42.075z"/>
	</g>
	<path style="fill:#CB8252;" d="M29.5,29H13.578c0,0,10.046,9.624,9.098,30H29.5h6.824c-0.269-5.787,0.35-10.704,1.372-14.782
		l-1.242,0.327c-1.166,0.307-2.36-0.39-2.667-1.556l-0.416-1.58c-0.307-1.166,0.39-2.36,1.556-2.667l1.58-0.416
		c1.098-0.289,2.211,0.318,2.594,1.362C41.791,32.485,45.422,29,45.422,29H29.5z"/>
	<path style="fill:#4FBA6F;" d="M44.431,29c0.096-0.166,0.194-0.33,0.284-0.502c2.211-4.236,1.714-8.865-1.11-10.338
		c-2.824-1.474-6.905,0.765-9.116,5.001c-1.035,1.983-1.469,4.048-1.356,5.84H44.431z"/>
	<path style="fill:#B49ACA;" d="M23.731,21.161c-1.676-2.436-4.119-3.704-6.136-2.937c-2.581,0.982-3.48,4.916-2.008,8.787
		c0.274,0.72,0.611,1.386,0.994,1.989h6.41c-0.146-0.829-0.232-1.695-0.232-2.593C22.756,24.486,23.116,22.695,23.731,21.161z"/>
	<path style="fill:#C03A2B;" d="M35.514,21.518c-1.156-3.164-3.396-5.31-5.97-5.308c-3.753,0.003-6.791,4.569-6.786,10.197
		c0.001,0.898,0.087,1.763,0.232,2.593h6.51h3.632c-0.113-1.791,0.321-3.857,1.356-5.84C34.796,22.571,35.143,22.025,35.514,21.518z
		"/>
	<circle style="fill:#D7BBF2;" cx="18.608" cy="22.5" r="1.5"/>
	<circle style="fill:#E0BC00;" cx="30.608" cy="23.5" r="1.5"/>
	<circle style="fill:#4FBA6F;" cx="28.608" cy="19.5" r="1.5"/>
	<circle style="fill:#DFA001;" cx="26.608" cy="25.5" r="1.5"/>
	<circle style="fill:#835F35;" cx="42.108" cy="26" r="1.5"/>
	<circle style="fill:#C0DAC0;" cx="42.23" cy="21.5" r="1.5"/>
	<circle style="fill:#84D5B8;" cx="37.608" cy="24.5" r="1.5"/>
	<path style="fill:#C03A2B;" d="M34.584,44.57l-4.331,2.069c-0.699,0.457-1.657,0.206-1.837-0.482l-1.28-4.865
		c-0.181-0.688,0.529-1.377,1.362-1.324l4.939,0.244c0.482,0.031,0.866,0.312,0.971,0.71l0.671,2.552
		C35.185,43.872,34.988,44.306,34.584,44.57z"/>
	<path style="fill:#C03A2B;" d="M39.778,43.357l4.683-0.456c0.834,0.054,1.543-0.636,1.362-1.324l-1.28-4.865
		c-0.181-0.688-1.138-0.939-1.837-0.482L38.632,39c-0.404,0.264-0.6,0.698-0.496,1.096l0.671,2.552
		C38.912,43.045,39.296,43.326,39.778,43.357z"/>
	<path style="fill:#D66F67;" d="M42.107,54.427c-0.171,0-0.345-0.044-0.503-0.137c-1.155-0.673-1.978-1.786-2.318-3.132
		c-0.332-1.315-0.142-2.723,0.521-3.859c0.84-1.439,0.272-3.595-1.167-4.436c-0.477-0.278-0.638-0.891-0.36-1.367
		c0.278-0.477,0.891-0.64,1.368-0.359c2.37,1.383,3.269,4.8,1.887,7.17c-0.402,0.688-0.515,1.55-0.31,2.361
		c0.208,0.821,0.7,1.494,1.387,1.896c0.477,0.278,0.638,0.891,0.36,1.367C42.785,54.25,42.451,54.427,42.107,54.427z"/>
	<g>
		<path style="fill:#D66F67;" d="M33.109,55.999c-0.319,0-0.632-0.152-0.826-0.435c-0.312-0.456-0.196-1.078,0.259-1.391
			c0.663-0.454,1.071-1.035,1.182-1.68c0.111-0.648-0.076-1.352-0.542-2.031c-1.551-2.264-0.903-5.737,1.36-7.289
			c0.457-0.311,1.078-0.194,1.39,0.26c0.313,0.456,0.196,1.078-0.259,1.391c-1.375,0.942-1.784,3.133-0.842,4.508
			c0.767,1.118,1.065,2.328,0.864,3.5c-0.205,1.19-0.904,2.225-2.022,2.992C33.501,55.943,33.304,55.999,33.109,55.999z"/>
	</g>
	<path style="fill:#D34A40;" d="M38.033,44.129l-1.58,0.416c-1.166,0.307-2.36-0.39-2.667-1.556l-0.416-1.58
		c-0.307-1.166,0.39-2.36,1.556-2.667l1.58-0.416c1.166-0.307,2.36,0.39,2.667,1.556l0.416,1.58
		C39.896,42.628,39.199,43.822,38.033,44.129z"/>
</g>
<g>
</g>
<g>
</g>
<g>
</g>
<g>
</g>
<g>
</g>
<g>
</g>
<g>
</g>
<g>
</g>
<g>
</g>
<g>
</g>
<g>
</g>
<g>
</g>
<g>
</g>
<g>
</g>
<g>
</g>
</svg>
