<svg xmlns="http://www.w3.org/2000/svg" height="612pt" version="1.1" viewBox="0 -5 612 612" width="612pt">
<g id="surface1">
<path d="M 540.601562 499.800781 L 563.988281 499.800781 C 568.605469 499.800781 573.035156 501.636719 576.300781 504.898438 C 579.566406 508.164062 583.992188 510 588.609375 510 L 601.800781 510 L 601.800781 550.800781 L 578.410156 550.800781 C 573.792969 550.800781 569.363281 548.964844 566.101562 545.699219 C 562.835938 542.433594 558.40625 540.601562 553.789062 540.601562 L 540.601562 540.601562 Z M 540.601562 499.800781 " style=" stroke:none;fill-rule:nonzero;fill:rgb(29.019608%,61.568627%,85.098039%);fill-opacity:1;" />
<path d="M 530.398438 489.601562 L 550.800781 489.601562 L 550.800781 591.601562 L 530.398438 591.601562 Z M 530.398438 489.601562 " style=" stroke:none;fill-rule:nonzero;fill:rgb(81.568627%,84.313725%,87.45098%);fill-opacity:1;" />
<path d="M 438.601562 499.800781 L 461.988281 499.800781 C 466.605469 499.800781 471.035156 501.636719 474.300781 504.898438 C 477.566406 508.164062 481.992188 510 486.609375 510 L 499.800781 510 L 499.800781 550.800781 L 476.410156 550.800781 C 471.792969 550.800781 467.363281 548.964844 464.101562 545.699219 C 460.835938 542.433594 456.40625 540.601562 451.789062 540.601562 L 438.601562 540.601562 Z M 438.601562 499.800781 " style=" stroke:none;fill-rule:nonzero;fill:rgb(29.019608%,61.568627%,85.098039%);fill-opacity:1;" />
<path d="M 428.398438 489.601562 L 448.800781 489.601562 L 448.800781 591.601562 L 428.398438 591.601562 Z M 428.398438 489.601562 " style=" stroke:none;fill-rule:nonzero;fill:rgb(81.568627%,84.313725%,87.45098%);fill-opacity:1;" />
<path d="M 112.199219 499.800781 L 135.589844 499.800781 C 140.207031 499.800781 144.636719 501.636719 147.898438 504.898438 C 151.164062 508.164062 155.59375 510 160.210938 510 L 173.398438 510 L 173.398438 550.800781 L 150.011719 550.800781 C 145.394531 550.800781 140.964844 548.964844 137.699219 545.699219 C 134.433594 542.433594 130.007812 540.601562 125.390625 540.601562 L 112.199219 540.601562 Z M 112.199219 499.800781 " style=" stroke:none;fill-rule:nonzero;fill:rgb(29.019608%,61.568627%,85.098039%);fill-opacity:1;" />
<path d="M 102 489.601562 L 122.398438 489.601562 L 122.398438 591.601562 L 102 591.601562 Z M 102 489.601562 " style=" stroke:none;fill-rule:nonzero;fill:rgb(81.568627%,84.313725%,87.45098%);fill-opacity:1;" />
<path d="M 10.199219 499.800781 L 33.589844 499.800781 C 38.207031 499.800781 42.636719 501.636719 45.898438 504.898438 C 49.164062 508.164062 53.59375 510 58.210938 510 L 71.398438 510 L 71.398438 550.800781 L 48.011719 550.800781 C 43.394531 550.800781 38.964844 548.964844 35.699219 545.699219 C 32.433594 542.433594 28.007812 540.601562 23.390625 540.601562 L 10.199219 540.601562 Z M 10.199219 499.800781 " style=" stroke:none;fill-rule:nonzero;fill:rgb(29.019608%,61.568627%,85.098039%);fill-opacity:1;" />
<path d="M 0 489.601562 L 20.398438 489.601562 L 20.398438 591.601562 L 0 591.601562 Z M 0 489.601562 " style=" stroke:none;fill-rule:nonzero;fill:rgb(81.568627%,84.313725%,87.45098%);fill-opacity:1;" />
<path d="M 0 581.398438 L 612 581.398438 L 612 601.800781 L 0 601.800781 Z M 0 581.398438 " style=" stroke:none;fill-rule:nonzero;fill:rgb(81.568627%,84.313725%,87.45098%);fill-opacity:1;" />
<path d="M 265.199219 40.800781 L 264.445312 51 L 224.398438 581.398438 L 306 581.398438 L 306 0 Z M 265.199219 40.800781 " style=" stroke:none;fill-rule:nonzero;fill:rgb(96.078431%,68.235294%,27.058824%);fill-opacity:1;" />
<path d="M 347.554688 51 L 346.800781 40.800781 L 306 0 L 306 581.398438 L 387.601562 581.398438 Z M 347.554688 51 " style=" stroke:none;fill-rule:nonzero;fill:rgb(94.117647%,61.960784%,14.901961%);fill-opacity:1;" />
<path d="M 255 561 L 275.398438 561 L 275.398438 581.398438 L 255 581.398438 Z M 255 561 " style=" stroke:none;fill-rule:nonzero;fill:rgb(90.196078%,54.117647%,0%);fill-opacity:1;" />
<path d="M 306 459.5625 L 306 581.398438 L 387.601562 581.398438 L 369.699219 344.332031 Z M 306 459.5625 " style=" stroke:none;fill-rule:nonzero;fill:rgb(90.196078%,54.117647%,0%);fill-opacity:1;" />
</g>
</svg>