<svg xmlns="http://www.w3.org/2000/svg" height="601pt" version="1.1" viewBox="-5 1 601 601.8" width="601pt">
<g id="surface1">
<path d="M 449.351562 346.914062 L 592.199219 346.914062 L 592.199219 602 L 449.351562 602 Z M 449.351562 346.914062 " style=" stroke:none;fill-rule:nonzero;fill:rgb(40.392157%,67.058824%,45.098039%);fill-opacity:1;" />
<path d="M 561.589844 346.914062 L 592.199219 346.914062 L 592.199219 602 L 561.589844 602 Z M 561.589844 346.914062 " style=" stroke:none;fill-rule:nonzero;fill:rgb(38.431373%,63.921569%,43.137255%);fill-opacity:1;" />
<path d="M 449.351562 377.527344 L 592.199219 377.527344 L 592.199219 397.933594 L 449.351562 397.933594 Z M 449.351562 377.527344 " style=" stroke:none;fill-rule:nonzero;fill:rgb(46.666667%,72.156863%,51.372549%);fill-opacity:1;" />
<path d="M 449.351562 469.355469 L 592.199219 469.355469 L 592.199219 489.761719 L 449.351562 489.761719 Z M 449.351562 469.355469 " style=" stroke:none;fill-rule:nonzero;fill:rgb(46.666667%,72.156863%,51.372549%);fill-opacity:1;" />
<path d="M 449.351562 540.78125 L 592.199219 540.78125 L 592.199219 561.1875 L 449.351562 561.1875 Z M 449.351562 540.78125 " style=" stroke:none;fill-rule:nonzero;fill:rgb(46.666667%,72.156863%,51.372549%);fill-opacity:1;" />
<path d="M 505.265625 346.914062 L 536.285156 346.914062 C 567.160156 346.921875 592.191406 321.894531 592.199219 291.019531 C 592.199219 291.015625 592.199219 291.007812 592.199219 291 C 592.195312 274.679688 585.0625 259.175781 572.667969 248.554688 L 520.773438 204.066406 L 468.878906 248.554688 C 456.484375 259.175781 449.351562 274.679688 449.351562 291 C 449.34375 321.875 474.371094 346.910156 505.246094 346.914062 C 505.25 346.914062 505.257812 346.914062 505.265625 346.914062 Z M 505.265625 346.914062 " style=" stroke:none;fill-rule:nonzero;fill:rgb(40.392157%,67.058824%,45.098039%);fill-opacity:1;" />
<path d="M 495.480469 225.75 L 589.136719 309.03125 C 586.878906 315.675781 583.386719 321.832031 578.84375 327.183594 L 479.808594 239.15625 Z M 495.480469 225.75 " style=" stroke:none;fill-rule:nonzero;fill:rgb(46.666667%,72.156863%,51.372549%);fill-opacity:1;" />
<path d="M 462.910156 254.617188 L 560.476562 341.34375 C 552.933594 345.003906 544.664062 346.90625 536.285156 346.914062 L 536.078125 346.914062 L 452.535156 272.644531 C 454.835938 266.039062 458.355469 259.921875 462.910156 254.617188 Z M 462.910156 254.617188 " style=" stroke:none;fill-rule:nonzero;fill:rgb(46.666667%,72.156863%,51.372549%);fill-opacity:1;" />
<path d="M 143.25 346.914062 L 286.097656 346.914062 L 286.097656 602 L 143.25 602 Z M 143.25 346.914062 " style=" stroke:none;fill-rule:nonzero;fill:rgb(92.941176%,35.686275%,10.980392%);fill-opacity:1;" />
<path d="M 255.488281 346.914062 L 286.097656 346.914062 L 286.097656 602 L 255.488281 602 Z M 255.488281 346.914062 " style=" stroke:none;fill-rule:nonzero;fill:rgb(83.137255%,31.764706%,9.803922%);fill-opacity:1;" />
<path d="M 143.25 377.527344 L 286.097656 377.527344 L 286.097656 397.933594 L 143.25 397.933594 Z M 143.25 377.527344 " style=" stroke:none;fill-rule:nonzero;fill:rgb(94.117647%,41.960784%,19.607843%);fill-opacity:1;" />
<path d="M 143.25 469.355469 L 286.097656 469.355469 L 286.097656 489.761719 L 143.25 489.761719 Z M 143.25 469.355469 " style=" stroke:none;fill-rule:nonzero;fill:rgb(94.117647%,41.960784%,19.607843%);fill-opacity:1;" />
<path d="M 143.25 540.78125 L 286.097656 540.78125 L 286.097656 561.1875 L 143.25 561.1875 Z M 143.25 540.78125 " style=" stroke:none;fill-rule:nonzero;fill:rgb(94.117647%,41.960784%,19.607843%);fill-opacity:1;" />
<path d="M 230.183594 346.914062 L 199.164062 346.914062 C 168.289062 346.921875 143.253906 321.894531 143.25 291.019531 C 143.25 291.015625 143.25 291.007812 143.25 291 C 143.25 274.679688 150.382812 259.175781 162.777344 248.554688 L 214.671875 204.066406 L 266.566406 248.554688 C 278.960938 259.175781 286.09375 274.679688 286.097656 291 C 286.101562 321.875 261.078125 346.910156 230.203125 346.914062 C 230.195312 346.914062 230.1875 346.914062 230.183594 346.914062 Z M 230.183594 346.914062 " style=" stroke:none;fill-rule:nonzero;fill:rgb(92.941176%,35.686275%,10.980392%);fill-opacity:1;" />
<path d="M 239.96875 225.75 L 146.308594 309.03125 C 148.570312 315.675781 152.0625 321.832031 156.605469 327.183594 L 255.640625 239.15625 Z M 239.96875 225.75 " style=" stroke:none;fill-rule:nonzero;fill:rgb(83.137255%,31.764706%,9.803922%);fill-opacity:1;" />
<path d="M 272.535156 254.617188 L 174.972656 341.34375 C 182.511719 345.003906 190.78125 346.90625 199.164062 346.914062 L 199.417969 346.914062 L 282.964844 272.644531 C 280.648438 266.035156 277.113281 259.917969 272.535156 254.617188 Z M 272.535156 254.617188 " style=" stroke:none;fill-rule:nonzero;fill:rgb(83.137255%,31.764706%,9.803922%);fill-opacity:1;" />
<path d="M 0.402344 346.914062 L 143.25 346.914062 L 143.25 602 L 0.402344 602 Z M 0.402344 346.914062 " style=" stroke:none;fill-rule:nonzero;fill:rgb(96.078431%,68.235294%,27.058824%);fill-opacity:1;" />
<path d="M 0.402344 377.527344 L 143.25 377.527344 L 143.25 397.933594 L 0.402344 397.933594 Z M 0.402344 377.527344 " style=" stroke:none;fill-rule:nonzero;fill:rgb(98.039216%,73.72549%,37.254902%);fill-opacity:1;" />
<path d="M 0.402344 469.355469 L 143.25 469.355469 L 143.25 489.761719 L 0.402344 489.761719 Z M 0.402344 469.355469 " style=" stroke:none;fill-rule:nonzero;fill:rgb(98.039216%,73.72549%,37.254902%);fill-opacity:1;" />
<path d="M 0.402344 540.78125 L 143.25 540.78125 L 143.25 561.1875 L 0.402344 561.1875 Z M 0.402344 540.78125 " style=" stroke:none;fill-rule:nonzero;fill:rgb(98.039216%,73.72549%,37.254902%);fill-opacity:1;" />
<path d="M 87.335938 346.914062 L 56.316406 346.914062 C 25.441406 346.921875 0.40625 321.894531 0.402344 291.019531 C 0.402344 291.015625 0.402344 291.007812 0.402344 291 C 0.402344 274.679688 7.535156 259.175781 19.929688 248.554688 L 71.824219 204.066406 L 123.71875 248.554688 C 136.113281 259.175781 143.246094 274.679688 143.25 291 C 143.253906 321.875 118.230469 346.910156 87.355469 346.914062 C 87.347656 346.914062 87.339844 346.914062 87.335938 346.914062 Z M 87.335938 346.914062 " style=" stroke:none;fill-rule:nonzero;fill:rgb(96.078431%,68.235294%,27.058824%);fill-opacity:1;" />
<path d="M 97.121094 225.75 L 3.460938 309.03125 C 5.722656 315.675781 9.214844 321.832031 13.757812 327.183594 L 112.792969 239.15625 Z M 97.121094 225.75 " style=" stroke:none;fill-rule:nonzero;fill:rgb(98.039216%,73.72549%,37.254902%);fill-opacity:1;" />
<path d="M 129.6875 254.617188 L 32.125 341.34375 C 39.664062 345.003906 47.933594 346.90625 56.316406 346.914062 L 56.570312 346.914062 L 140.117188 272.644531 C 137.800781 266.035156 134.265625 259.917969 129.6875 254.617188 Z M 129.6875 254.617188 " style=" stroke:none;fill-rule:nonzero;fill:rgb(98.039216%,73.72549%,37.254902%);fill-opacity:1;" />
<path d="M 428.945312 602 L 286.097656 602 L 286.097656 265.289062 L 337.113281 132.644531 L 377.925781 132.644531 L 428.945312 265.289062 Z M 428.945312 602 " style=" stroke:none;fill-rule:nonzero;fill:rgb(92.941176%,35.686275%,10.980392%);fill-opacity:1;" />
<path d="M 337.113281 81.628906 L 377.925781 81.628906 L 377.925781 132.644531 L 337.113281 132.644531 Z M 337.113281 81.628906 " style=" stroke:none;fill-rule:nonzero;fill:rgb(92.941176%,35.686275%,10.980392%);fill-opacity:1;" />
<path d="M 337.113281 81.628906 L 377.925781 81.628906 L 377.925781 112.238281 L 337.113281 112.238281 Z M 337.113281 81.628906 " style=" stroke:none;fill-rule:nonzero;fill:rgb(83.137255%,31.764706%,9.803922%);fill-opacity:1;" />
<path d="M 357.519531 367.320312 L 286.097656 367.320312 C 280.460938 367.320312 275.894531 362.753906 275.894531 357.117188 L 275.894531 341.8125 C 275.894531 316.457031 296.449219 295.898438 321.808594 295.898438 C 347.167969 295.898438 367.722656 316.457031 367.722656 341.8125 L 367.722656 357.117188 C 367.722656 362.753906 363.15625 367.320312 357.519531 367.320312 Z M 296.300781 346.914062 L 347.316406 346.914062 L 347.316406 341.8125 C 347.316406 327.726562 335.894531 316.304688 321.808594 316.304688 C 307.722656 316.304688 296.300781 327.726562 296.300781 341.8125 Z M 296.300781 346.914062 " style=" stroke:none;fill-rule:nonzero;fill:rgb(40.392157%,67.058824%,45.098039%);fill-opacity:1;" />
<path d="M 428.945312 367.320312 L 357.519531 367.320312 C 351.886719 367.320312 347.316406 362.753906 347.316406 357.117188 L 347.316406 341.8125 C 347.316406 316.457031 367.875 295.898438 393.230469 295.898438 C 418.589844 295.898438 439.148438 316.457031 439.148438 341.8125 L 439.148438 357.117188 C 439.148438 362.753906 434.578125 367.320312 428.945312 367.320312 Z M 367.722656 346.914062 L 418.742188 346.914062 L 418.742188 341.8125 C 418.742188 327.726562 407.320312 316.304688 393.230469 316.304688 C 379.144531 316.304688 367.722656 327.726562 367.722656 341.8125 Z M 367.722656 346.914062 " style=" stroke:none;fill-rule:nonzero;fill:rgb(40.392157%,67.058824%,45.098039%);fill-opacity:1;" />
<path d="M 357.519531 418.339844 L 286.097656 418.339844 C 280.460938 418.339844 275.894531 413.769531 275.894531 408.136719 L 275.894531 392.832031 C 275.894531 367.472656 296.449219 346.914062 321.808594 346.914062 C 347.167969 346.914062 367.722656 367.472656 367.722656 392.832031 L 367.722656 408.136719 C 367.722656 413.769531 363.15625 418.339844 357.519531 418.339844 Z M 296.300781 397.933594 L 347.316406 397.933594 L 347.316406 392.832031 C 347.316406 378.742188 335.894531 367.320312 321.808594 367.320312 C 307.722656 367.320312 296.300781 378.742188 296.300781 392.832031 Z M 296.300781 397.933594 " style=" stroke:none;fill-rule:nonzero;fill:rgb(40.392157%,67.058824%,45.098039%);fill-opacity:1;" />
<path d="M 428.945312 418.339844 L 357.519531 418.339844 C 351.886719 418.339844 347.316406 413.769531 347.316406 408.136719 L 347.316406 392.832031 C 347.316406 367.472656 367.875 346.914062 393.230469 346.914062 C 418.589844 346.914062 439.148438 367.472656 439.148438 392.832031 L 439.148438 408.136719 C 439.148438 413.769531 434.578125 418.339844 428.945312 418.339844 Z M 367.722656 397.933594 L 418.742188 397.933594 L 418.742188 392.832031 C 418.742188 378.742188 407.320312 367.320312 393.230469 367.320312 C 379.144531 367.320312 367.722656 378.742188 367.722656 392.832031 Z M 367.722656 397.933594 " style=" stroke:none;fill-rule:nonzero;fill:rgb(40.392157%,67.058824%,45.098039%);fill-opacity:1;" />
<path d="M 357.519531 469.355469 L 286.097656 469.355469 C 280.460938 469.355469 275.894531 464.789062 275.894531 459.152344 L 275.894531 443.847656 C 275.894531 418.488281 296.449219 397.933594 321.808594 397.933594 C 347.167969 397.933594 367.722656 418.488281 367.722656 443.847656 L 367.722656 459.152344 C 367.722656 464.789062 363.15625 469.355469 357.519531 469.355469 Z M 296.300781 448.949219 L 347.316406 448.949219 L 347.316406 443.847656 C 347.316406 429.761719 335.894531 418.339844 321.808594 418.339844 C 307.722656 418.339844 296.300781 429.761719 296.300781 443.847656 Z M 296.300781 448.949219 " style=" stroke:none;fill-rule:nonzero;fill:rgb(40.392157%,67.058824%,45.098039%);fill-opacity:1;" />
<path d="M 428.945312 469.355469 L 357.519531 469.355469 C 351.886719 469.355469 347.316406 464.789062 347.316406 459.152344 L 347.316406 443.847656 C 347.316406 418.488281 367.875 397.933594 393.230469 397.933594 C 418.589844 397.933594 439.148438 418.488281 439.148438 443.847656 L 439.148438 459.152344 C 439.148438 464.789062 434.578125 469.355469 428.945312 469.355469 Z M 367.722656 448.949219 L 418.742188 448.949219 L 418.742188 443.847656 C 418.742188 429.761719 407.320312 418.339844 393.230469 418.339844 C 379.144531 418.339844 367.722656 429.761719 367.722656 443.847656 Z M 367.722656 448.949219 " style=" stroke:none;fill-rule:nonzero;fill:rgb(40.392157%,67.058824%,45.098039%);fill-opacity:1;" />
<path d="M 428.945312 275.492188 L 286.097656 275.492188 C 280.460938 275.492188 275.894531 270.921875 275.894531 265.289062 C 275.894531 259.652344 280.460938 255.085938 286.097656 255.085938 L 428.945312 255.085938 C 434.578125 255.085938 439.148438 259.652344 439.148438 265.289062 C 439.148438 270.921875 434.578125 275.492188 428.945312 275.492188 Z M 428.945312 275.492188 " style=" stroke:none;fill-rule:nonzero;fill:rgb(40.392157%,67.058824%,45.098039%);fill-opacity:1;" />
<path d="M 388.128906 234.679688 C 384.917969 234.679688 381.894531 233.164062 379.96875 230.597656 L 357.519531 200.667969 L 335.074219 230.597656 C 331.695312 235.109375 325.300781 236.027344 320.789062 232.648438 C 316.277344 229.273438 315.359375 222.878906 318.738281 218.367188 C 318.742188 218.363281 318.746094 218.355469 318.75 218.351562 L 349.359375 177.539062 C 353.066406 173.03125 359.730469 172.382812 364.238281 176.09375 C 364.765625 176.527344 365.25 177.011719 365.683594 177.539062 L 396.292969 218.351562 C 399.675781 222.859375 398.761719 229.257812 394.253906 232.636719 C 392.484375 233.960938 390.339844 234.679688 388.128906 234.679688 Z M 388.128906 234.679688 " style=" stroke:none;fill-rule:nonzero;fill:rgb(40.392157%,67.058824%,45.098039%);fill-opacity:1;" />
<path d="M 357.519531 265.289062 C 360.226562 265.289062 362.820312 264.210938 364.734375 262.296875 L 410.28125 216.75 L 402.355469 196.171875 C 402 196.375 401.660156 196.605469 401.332031 196.851562 L 357.519531 240.65625 L 313.714844 196.851562 C 313.390625 196.601562 313.050781 196.375 312.695312 196.171875 L 304.769531 216.75 L 350.316406 262.296875 C 352.226562 264.210938 354.820312 265.285156 357.519531 265.289062 Z M 357.519531 265.289062 " style=" stroke:none;fill-rule:nonzero;fill:rgb(40.392157%,67.058824%,45.098039%);fill-opacity:1;" />
<path d="M 357.519531 30.609375 L 333.246094 54.882812 C 329.1875 58.945312 326.90625 64.449219 326.910156 70.1875 C 326.917969 82.140625 336.601562 91.824219 348.550781 91.832031 L 366.488281 91.832031 C 378.4375 91.824219 388.125 82.140625 388.128906 70.1875 C 388.132812 64.449219 385.855469 58.945312 381.792969 54.882812 Z M 357.519531 30.609375 " style=" stroke:none;fill-rule:nonzero;fill:rgb(96.078431%,68.235294%,27.058824%);fill-opacity:1;" />
<path d="M 347.316406 0 L 367.722656 0 L 367.722656 40.8125 L 347.316406 40.8125 Z M 347.316406 0 " style=" stroke:none;fill-rule:nonzero;fill:rgb(96.078431%,68.235294%,27.058824%);fill-opacity:1;" />
<path d="M 286.097656 489.761719 L 428.945312 489.761719 L 428.945312 510.167969 L 286.097656 510.167969 Z M 286.097656 489.761719 " style=" stroke:none;fill-rule:nonzero;fill:rgb(40.392157%,67.058824%,45.098039%);fill-opacity:1;" />
<path d="M 286.097656 550.984375 L 428.945312 550.984375 L 428.945312 571.390625 L 286.097656 571.390625 Z M 286.097656 550.984375 " style=" stroke:none;fill-rule:nonzero;fill:rgb(40.392157%,67.058824%,45.098039%);fill-opacity:1;" />
<path d="M 162.777344 448.949219 L 123.71875 448.949219 C 100.695312 448.949219 82.027344 430.28125 82.027344 407.257812 C 82.03125 394.886719 87.523438 383.152344 97.027344 375.230469 L 143.25 336.710938 L 189.46875 375.230469 C 198.972656 383.152344 204.46875 394.886719 204.46875 407.257812 C 204.46875 430.28125 185.804688 448.949219 162.777344 448.949219 Z M 162.777344 448.949219 " style=" stroke:none;fill-rule:nonzero;fill:rgb(40.392157%,67.058824%,45.098039%);fill-opacity:1;" />
<path d="M 92.230469 448.949219 L 194.265625 448.949219 L 194.265625 602 L 92.230469 602 Z M 92.230469 448.949219 " style=" stroke:none;fill-rule:nonzero;fill:rgb(40.392157%,67.058824%,45.098039%);fill-opacity:1;" />
<path d="M 133.046875 479.558594 L 153.453125 479.558594 L 153.453125 499.964844 L 133.046875 499.964844 Z M 133.046875 479.558594 " style=" stroke:none;fill-rule:nonzero;fill:rgb(36.078431%,60%,40.392157%);fill-opacity:1;" />
<path d="M 133.046875 520.371094 L 153.453125 520.371094 L 153.453125 540.78125 L 133.046875 540.78125 Z M 133.046875 520.371094 " style=" stroke:none;fill-rule:nonzero;fill:rgb(36.078431%,60%,40.392157%);fill-opacity:1;" />
<path d="M 357.519531 408.136719 L 479.960938 408.136719 L 479.960938 602 L 357.519531 602 Z M 357.519531 408.136719 " style=" stroke:none;fill-rule:nonzero;fill:rgb(26.27451%,58.039216%,80%);fill-opacity:1;" />
<path d="M 388.128906 438.746094 L 408.539062 438.746094 L 408.539062 479.558594 L 388.128906 479.558594 Z M 388.128906 438.746094 " style=" stroke:none;fill-rule:nonzero;fill:rgb(21.176471%,47.058824%,65.098039%);fill-opacity:1;" />
<path d="M 428.945312 438.746094 L 449.351562 438.746094 L 449.351562 479.558594 L 428.945312 479.558594 Z M 428.945312 438.746094 " style=" stroke:none;fill-rule:nonzero;fill:rgb(21.176471%,47.058824%,65.098039%);fill-opacity:1;" />
<path d="M 388.128906 510.167969 L 408.539062 510.167969 L 408.539062 530.578125 L 388.128906 530.578125 Z M 388.128906 510.167969 " style=" stroke:none;fill-rule:nonzero;fill:rgb(21.176471%,47.058824%,65.098039%);fill-opacity:1;" />
<path d="M 428.945312 510.167969 L 449.351562 510.167969 L 449.351562 530.578125 L 428.945312 530.578125 Z M 428.945312 510.167969 " style=" stroke:none;fill-rule:nonzero;fill:rgb(21.176471%,47.058824%,65.098039%);fill-opacity:1;" />
<path d="M 357.519531 469.355469 L 479.960938 469.355469 L 479.960938 489.761719 L 357.519531 489.761719 Z M 357.519531 469.355469 " style=" stroke:none;fill-rule:nonzero;fill:rgb(24.313725%,53.72549%,74.117647%);fill-opacity:1;" />
<path d="M 357.519531 550.984375 L 479.960938 550.984375 L 479.960938 571.390625 L 357.519531 571.390625 Z M 357.519531 550.984375 " style=" stroke:none;fill-rule:nonzero;fill:rgb(24.313725%,53.72549%,74.117647%);fill-opacity:1;" />
<path d="M 403.230469 408.136719 L 434.25 408.136719 C 465.125 408.140625 490.160156 383.117188 490.164062 352.242188 C 490.164062 352.234375 490.164062 352.226562 490.164062 352.222656 C 490.164062 335.898438 483.027344 320.394531 470.636719 309.773438 L 418.742188 265.289062 L 366.847656 309.773438 C 354.453125 320.394531 347.320312 335.898438 347.316406 352.222656 C 347.3125 383.097656 372.335938 408.128906 403.210938 408.136719 C 403.21875 408.136719 403.222656 408.136719 403.230469 408.136719 Z M 403.230469 408.136719 " style=" stroke:none;fill-rule:nonzero;fill:rgb(26.27451%,58.039216%,80%);fill-opacity:1;" />
<path d="M 393.445312 286.96875 L 487.101562 370.25 C 484.84375 376.894531 481.351562 383.054688 476.808594 388.402344 L 377.773438 300.378906 Z M 393.445312 286.96875 " style=" stroke:none;fill-rule:nonzero;fill:rgb(24.313725%,53.72549%,74.117647%);fill-opacity:1;" />
<path d="M 360.878906 315.835938 L 458.441406 402.566406 C 450.902344 406.222656 442.628906 408.128906 434.25 408.136719 L 434.046875 408.136719 L 350.5 333.863281 C 352.800781 327.257812 356.320312 321.144531 360.878906 315.835938 Z M 360.878906 315.835938 " style=" stroke:none;fill-rule:nonzero;fill:rgb(24.313725%,53.72549%,74.117647%);fill-opacity:1;" />
</g>
</svg>