<svg xmlns="http://www.w3.org/2000/svg" height="612pt" version="1.1" viewBox="-51 0 612 612" width="612pt">
<g id="surface1">
<path d="M 117.933594 520.199219 L 102 507.449219 L 226.632812 350.625 L 242.566406 363.375 Z M 117.933594 520.199219 " style=" stroke:none;fill-rule:nonzero;fill:rgb(72.156863%,74.509804%,76.862745%);fill-opacity:1;" />
<path d="M 402.269531 530.398438 L 267.433594 363.375 L 283.367188 350.625 L 418.199219 517.648438 Z M 402.269531 530.398438 " style=" stroke:none;fill-rule:nonzero;fill:rgb(72.156863%,74.509804%,76.862745%);fill-opacity:1;" />
<path d="M 367.199219 367.199219 L 142.800781 367.199219 L 142.800781 306 L 367.199219 306 Z M 163.199219 346.800781 L 346.800781 346.800781 L 346.800781 326.398438 L 163.199219 326.398438 Z M 163.199219 346.800781 " style=" stroke:none;fill-rule:nonzero;fill:rgb(76.470588%,78.823529%,81.960784%);fill-opacity:1;" />
<path d="M 285.601562 367.199219 L 224.398438 367.199219 L 224.398438 306 L 285.601562 306 Z M 244.800781 346.800781 L 265.199219 346.800781 L 265.199219 326.398438 L 244.800781 326.398438 Z M 244.800781 346.800781 " style=" stroke:none;fill-rule:nonzero;fill:rgb(76.470588%,78.823529%,81.960784%);fill-opacity:1;" />
<path d="M 183.601562 316.199219 L 204 316.199219 L 204 357 L 183.601562 357 Z M 183.601562 316.199219 " style=" stroke:none;fill-rule:nonzero;fill:rgb(76.470588%,78.823529%,81.960784%);fill-opacity:1;" />
<path d="M 306 316.199219 L 326.398438 316.199219 L 326.398438 357 L 306 357 Z M 306 316.199219 " style=" stroke:none;fill-rule:nonzero;fill:rgb(76.470588%,78.823529%,81.960784%);fill-opacity:1;" />
<path d="M 30.601562 316.199219 L 153 316.199219 L 153 601.800781 L 30.601562 601.800781 Z M 30.601562 316.199219 " style=" stroke:none;fill-rule:nonzero;fill:rgb(24.313725%,53.72549%,74.117647%);fill-opacity:1;" />
<path d="M 112.199219 316.199219 L 153 316.199219 L 153 601.800781 L 112.199219 601.800781 Z M 112.199219 316.199219 " style=" stroke:none;fill-rule:nonzero;fill:rgb(21.176471%,47.058824%,65.098039%);fill-opacity:1;" />
<path d="M 40.800781 234.601562 L 142.800781 234.601562 L 142.800781 316.199219 L 40.800781 316.199219 Z M 40.800781 234.601562 " style=" stroke:none;fill-rule:nonzero;fill:rgb(24.313725%,53.72549%,74.117647%);fill-opacity:1;" />
<path d="M 91.800781 234.601562 L 142.800781 234.601562 L 142.800781 316.199219 L 91.800781 316.199219 Z M 91.800781 234.601562 " style=" stroke:none;fill-rule:nonzero;fill:rgb(21.176471%,47.058824%,65.098039%);fill-opacity:1;" />
<path d="M 51 153 L 132.601562 153 L 132.601562 234.601562 L 51 234.601562 Z M 51 153 " style=" stroke:none;fill-rule:nonzero;fill:rgb(24.313725%,53.72549%,74.117647%);fill-opacity:1;" />
<path d="M 61.199219 112.199219 L 122.398438 112.199219 L 122.398438 153 L 61.199219 153 Z M 61.199219 112.199219 " style=" stroke:none;fill-rule:nonzero;fill:rgb(24.313725%,53.72549%,74.117647%);fill-opacity:1;" />
<path d="M 81.601562 153 L 132.601562 153 L 132.601562 234.601562 L 81.601562 234.601562 Z M 81.601562 153 " style=" stroke:none;fill-rule:nonzero;fill:rgb(21.176471%,47.058824%,65.098039%);fill-opacity:1;" />
<path d="M 71.398438 112.199219 L 122.398438 112.199219 L 122.398438 153 L 71.398438 153 Z M 71.398438 112.199219 " style=" stroke:none;fill-rule:nonzero;fill:rgb(21.176471%,47.058824%,65.098039%);fill-opacity:1;" />
<path d="M 112.199219 112.199219 L 71.398438 112.199219 L 71.398438 81.601562 L 91.800781 61.199219 L 112.199219 81.601562 Z M 112.199219 112.199219 " style=" stroke:none;fill-rule:nonzero;fill:rgb(26.27451%,58.039216%,80%);fill-opacity:1;" />
<path d="M 81.601562 0 L 102 0 L 102 81.601562 L 81.601562 81.601562 Z M 81.601562 0 " style=" stroke:none;fill-rule:nonzero;fill:rgb(26.27451%,58.039216%,80%);fill-opacity:1;" />
<path d="M 0 591.601562 L 183.601562 591.601562 L 183.601562 612 L 0 612 Z M 0 591.601562 " style=" stroke:none;fill-rule:nonzero;fill:rgb(29.019608%,61.568627%,85.098039%);fill-opacity:1;" />
<path d="M 10.199219 550.800781 L 173.398438 550.800781 L 173.398438 571.199219 L 10.199219 571.199219 Z M 10.199219 550.800781 " style=" stroke:none;fill-rule:nonzero;fill:rgb(29.019608%,61.568627%,85.098039%);fill-opacity:1;" />
<path d="M 10.199219 510 L 173.398438 510 L 173.398438 530.398438 L 10.199219 530.398438 Z M 10.199219 510 " style=" stroke:none;fill-rule:nonzero;fill:rgb(29.019608%,61.568627%,85.098039%);fill-opacity:1;" />
<path d="M 10.199219 469.199219 L 173.398438 469.199219 L 173.398438 489.601562 L 10.199219 489.601562 Z M 10.199219 469.199219 " style=" stroke:none;fill-rule:nonzero;fill:rgb(29.019608%,61.568627%,85.098039%);fill-opacity:1;" />
<path d="M 10.199219 428.398438 L 173.398438 428.398438 L 173.398438 448.800781 L 10.199219 448.800781 Z M 10.199219 428.398438 " style=" stroke:none;fill-rule:nonzero;fill:rgb(29.019608%,61.568627%,85.098039%);fill-opacity:1;" />
<path d="M 10.199219 387.601562 L 173.398438 387.601562 L 173.398438 408 L 10.199219 408 Z M 10.199219 387.601562 " style=" stroke:none;fill-rule:nonzero;fill:rgb(29.019608%,61.568627%,85.098039%);fill-opacity:1;" />
<path d="M 10.199219 346.800781 L 173.398438 346.800781 L 173.398438 367.199219 L 10.199219 367.199219 Z M 10.199219 346.800781 " style=" stroke:none;fill-rule:nonzero;fill:rgb(29.019608%,61.568627%,85.098039%);fill-opacity:1;" />
<path d="M 10.199219 306 L 173.398438 306 L 173.398438 326.398438 L 10.199219 326.398438 Z M 10.199219 306 " style=" stroke:none;fill-rule:nonzero;fill:rgb(29.019608%,61.568627%,85.098039%);fill-opacity:1;" />
<path d="M 20.398438 265.199219 L 163.199219 265.199219 L 163.199219 285.601562 L 20.398438 285.601562 Z M 20.398438 265.199219 " style=" stroke:none;fill-rule:nonzero;fill:rgb(29.019608%,61.568627%,85.098039%);fill-opacity:1;" />
<path d="M 20.398438 224.398438 L 163.199219 224.398438 L 163.199219 244.800781 L 20.398438 244.800781 Z M 20.398438 224.398438 " style=" stroke:none;fill-rule:nonzero;fill:rgb(29.019608%,61.568627%,85.098039%);fill-opacity:1;" />
<path d="M 30.601562 183.601562 L 153 183.601562 L 153 204 L 30.601562 204 Z M 30.601562 183.601562 " style=" stroke:none;fill-rule:nonzero;fill:rgb(29.019608%,61.568627%,85.098039%);fill-opacity:1;" />
<path d="M 30.601562 142.800781 L 153 142.800781 L 153 163.199219 L 30.601562 163.199219 Z M 30.601562 142.800781 " style=" stroke:none;fill-rule:nonzero;fill:rgb(29.019608%,61.568627%,85.098039%);fill-opacity:1;" />
<path d="M 40.800781 102 L 142.800781 102 L 142.800781 122.398438 L 40.800781 122.398438 Z M 40.800781 102 " style=" stroke:none;fill-rule:nonzero;fill:rgb(29.019608%,61.568627%,85.098039%);fill-opacity:1;" />
<path d="M 357 612 L 153 612 L 153 581.398438 C 217.210938 549.289062 292.789062 549.289062 357 581.398438 Z M 357 612 " style=" stroke:none;fill-rule:nonzero;fill:rgb(29.019608%,61.568627%,85.098039%);fill-opacity:1;" />
<path d="M 244.800781 557.613281 L 244.800781 612 L 265.199219 612 L 265.199219 557.613281 C 258.40625 557.308594 251.59375 557.308594 244.800781 557.613281 Z M 244.800781 557.613281 " style=" stroke:none;fill-rule:nonzero;fill:rgb(24.313725%,53.72549%,74.117647%);fill-opacity:1;" />
<path d="M 201.417969 563.742188 L 177.296875 612 L 200.101562 612 L 226.519531 559.164062 C 218.074219 560.21875 209.695312 561.75 201.417969 563.742188 Z M 201.417969 563.742188 " style=" stroke:none;fill-rule:nonzero;fill:rgb(24.313725%,53.72549%,74.117647%);fill-opacity:1;" />
<path d="M 283.476562 559.164062 L 309.894531 612 L 332.703125 612 L 308.578125 563.742188 C 300.304688 561.75 291.925781 560.21875 283.476562 559.164062 Z M 283.476562 559.164062 " style=" stroke:none;fill-rule:nonzero;fill:rgb(24.313725%,53.72549%,74.117647%);fill-opacity:1;" />
<path d="M 357 316.199219 L 479.398438 316.199219 L 479.398438 601.800781 L 357 601.800781 Z M 357 316.199219 " style=" stroke:none;fill-rule:nonzero;fill:rgb(24.313725%,53.72549%,74.117647%);fill-opacity:1;" />
<path d="M 438.601562 316.199219 L 479.398438 316.199219 L 479.398438 601.800781 L 438.601562 601.800781 Z M 438.601562 316.199219 " style=" stroke:none;fill-rule:nonzero;fill:rgb(21.176471%,47.058824%,65.098039%);fill-opacity:1;" />
<path d="M 367.199219 234.601562 L 469.199219 234.601562 L 469.199219 316.199219 L 367.199219 316.199219 Z M 367.199219 234.601562 " style=" stroke:none;fill-rule:nonzero;fill:rgb(24.313725%,53.72549%,74.117647%);fill-opacity:1;" />
<path d="M 418.199219 234.601562 L 469.199219 234.601562 L 469.199219 316.199219 L 418.199219 316.199219 Z M 418.199219 234.601562 " style=" stroke:none;fill-rule:nonzero;fill:rgb(21.176471%,47.058824%,65.098039%);fill-opacity:1;" />
<path d="M 377.398438 153 L 459 153 L 459 234.601562 L 377.398438 234.601562 Z M 377.398438 153 " style=" stroke:none;fill-rule:nonzero;fill:rgb(24.313725%,53.72549%,74.117647%);fill-opacity:1;" />
<path d="M 387.601562 112.199219 L 448.800781 112.199219 L 448.800781 153 L 387.601562 153 Z M 387.601562 112.199219 " style=" stroke:none;fill-rule:nonzero;fill:rgb(24.313725%,53.72549%,74.117647%);fill-opacity:1;" />
<path d="M 408 153 L 459 153 L 459 234.601562 L 408 234.601562 Z M 408 153 " style=" stroke:none;fill-rule:nonzero;fill:rgb(21.176471%,47.058824%,65.098039%);fill-opacity:1;" />
<path d="M 397.800781 112.199219 L 448.800781 112.199219 L 448.800781 153 L 397.800781 153 Z M 397.800781 112.199219 " style=" stroke:none;fill-rule:nonzero;fill:rgb(21.176471%,47.058824%,65.098039%);fill-opacity:1;" />
<path d="M 438.601562 112.199219 L 397.800781 112.199219 L 397.800781 81.601562 L 418.199219 61.199219 L 438.601562 81.601562 Z M 438.601562 112.199219 " style=" stroke:none;fill-rule:nonzero;fill:rgb(26.27451%,58.039216%,80%);fill-opacity:1;" />
<path d="M 408 0 L 428.398438 0 L 428.398438 81.601562 L 408 81.601562 Z M 408 0 " style=" stroke:none;fill-rule:nonzero;fill:rgb(26.27451%,58.039216%,80%);fill-opacity:1;" />
<path d="M 326.398438 591.601562 L 510 591.601562 L 510 612 L 326.398438 612 Z M 326.398438 591.601562 " style=" stroke:none;fill-rule:nonzero;fill:rgb(29.019608%,61.568627%,85.098039%);fill-opacity:1;" />
<path d="M 336.601562 550.800781 L 499.800781 550.800781 L 499.800781 571.199219 L 336.601562 571.199219 Z M 336.601562 550.800781 " style=" stroke:none;fill-rule:nonzero;fill:rgb(29.019608%,61.568627%,85.098039%);fill-opacity:1;" />
<path d="M 336.601562 510 L 499.800781 510 L 499.800781 530.398438 L 336.601562 530.398438 Z M 336.601562 510 " style=" stroke:none;fill-rule:nonzero;fill:rgb(29.019608%,61.568627%,85.098039%);fill-opacity:1;" />
<path d="M 336.601562 469.199219 L 499.800781 469.199219 L 499.800781 489.601562 L 336.601562 489.601562 Z M 336.601562 469.199219 " style=" stroke:none;fill-rule:nonzero;fill:rgb(29.019608%,61.568627%,85.098039%);fill-opacity:1;" />
<path d="M 336.601562 428.398438 L 499.800781 428.398438 L 499.800781 448.800781 L 336.601562 448.800781 Z M 336.601562 428.398438 " style=" stroke:none;fill-rule:nonzero;fill:rgb(29.019608%,61.568627%,85.098039%);fill-opacity:1;" />
<path d="M 336.601562 387.601562 L 499.800781 387.601562 L 499.800781 408 L 336.601562 408 Z M 336.601562 387.601562 " style=" stroke:none;fill-rule:nonzero;fill:rgb(29.019608%,61.568627%,85.098039%);fill-opacity:1;" />
<path d="M 336.601562 346.800781 L 499.800781 346.800781 L 499.800781 367.199219 L 336.601562 367.199219 Z M 336.601562 346.800781 " style=" stroke:none;fill-rule:nonzero;fill:rgb(29.019608%,61.568627%,85.098039%);fill-opacity:1;" />
<path d="M 336.601562 306 L 499.800781 306 L 499.800781 326.398438 L 336.601562 326.398438 Z M 336.601562 306 " style=" stroke:none;fill-rule:nonzero;fill:rgb(29.019608%,61.568627%,85.098039%);fill-opacity:1;" />
<path d="M 346.800781 265.199219 L 489.601562 265.199219 L 489.601562 285.601562 L 346.800781 285.601562 Z M 346.800781 265.199219 " style=" stroke:none;fill-rule:nonzero;fill:rgb(29.019608%,61.568627%,85.098039%);fill-opacity:1;" />
<path d="M 346.800781 224.398438 L 489.601562 224.398438 L 489.601562 244.800781 L 346.800781 244.800781 Z M 346.800781 224.398438 " style=" stroke:none;fill-rule:nonzero;fill:rgb(29.019608%,61.568627%,85.098039%);fill-opacity:1;" />
<path d="M 357 183.601562 L 479.398438 183.601562 L 479.398438 204 L 357 204 Z M 357 183.601562 " style=" stroke:none;fill-rule:nonzero;fill:rgb(29.019608%,61.568627%,85.098039%);fill-opacity:1;" />
<path d="M 357 142.800781 L 479.398438 142.800781 L 479.398438 163.199219 L 357 163.199219 Z M 357 142.800781 " style=" stroke:none;fill-rule:nonzero;fill:rgb(29.019608%,61.568627%,85.098039%);fill-opacity:1;" />
<path d="M 367.199219 102 L 469.199219 102 L 469.199219 122.398438 L 367.199219 122.398438 Z M 367.199219 102 " style=" stroke:none;fill-rule:nonzero;fill:rgb(29.019608%,61.568627%,85.098039%);fill-opacity:1;" />
</g>
</svg>