<svg xmlns="http://www.w3.org/2000/svg" height="591pt" version="1.1" viewBox="1 -112 591.60001 591" width="591pt">
<g id="surface1">
<path d="M 30.621094 286.167969 L 561.378906 286.167969 L 495.757812 133.066406 L 96.242188 133.066406 Z M 30.621094 286.167969 " style=" stroke:none;fill-rule:nonzero;fill:rgb(96.078431%,68.235294%,27.058824%);fill-opacity:1;" />
<path d="M 48.117188 245.339844 L 30.621094 286.167969 L 561.378906 286.167969 L 543.882812 245.339844 Z M 48.117188 245.339844 " style=" stroke:none;fill-rule:nonzero;fill:rgb(94.117647%,61.960784%,14.901961%);fill-opacity:1;" />
<path d="M 132.691406 122.859375 L 459.308594 122.859375 L 428.691406 51.410156 L 163.308594 51.410156 Z M 132.691406 122.859375 " style=" stroke:none;fill-rule:nonzero;fill:rgb(96.078431%,68.235294%,27.058824%);fill-opacity:1;" />
<path d="M 0 286.167969 L 592 286.167969 L 592 367.824219 L 0 367.824219 Z M 0 286.167969 " style=" stroke:none;fill-rule:nonzero;fill:rgb(96.078431%,68.235294%,27.058824%);fill-opacity:1;" />
<path d="M 0 337.203125 L 592 337.203125 L 592 367.824219 L 0 367.824219 Z M 0 337.203125 " style=" stroke:none;fill-rule:nonzero;fill:rgb(94.117647%,61.960784%,14.901961%);fill-opacity:1;" />
<path d="M 193.929688 0.375 L 398.070312 0.375 L 398.070312 51.410156 L 193.929688 51.410156 Z M 193.929688 0.375 " style=" stroke:none;fill-rule:nonzero;fill:rgb(96.078431%,68.235294%,27.058824%);fill-opacity:1;" />
<path d="M 428.691406 326.996094 L 469.515625 326.996094 L 469.515625 367.824219 L 428.691406 367.824219 Z M 428.691406 326.996094 " style=" stroke:none;fill-rule:nonzero;fill:rgb(60%,43.137255%,31.764706%);fill-opacity:1;" />
<path d="M 112.277344 214.71875 L 142.898438 214.71875 L 142.898438 235.132812 L 112.277344 235.132812 Z M 112.277344 214.71875 " style=" stroke:none;fill-rule:nonzero;fill:rgb(94.117647%,61.960784%,14.901961%);fill-opacity:1;" />
<path d="M 418.484375 194.308594 L 449.101562 194.308594 L 449.101562 214.71875 L 418.484375 214.71875 Z M 418.484375 194.308594 " style=" stroke:none;fill-rule:nonzero;fill:rgb(94.117647%,61.960784%,14.901961%);fill-opacity:1;" />
<path d="M 459.308594 224.925781 L 489.929688 224.925781 L 489.929688 245.339844 L 459.308594 245.339844 Z M 459.308594 224.925781 " style=" stroke:none;fill-rule:nonzero;fill:rgb(94.117647%,61.960784%,14.901961%);fill-opacity:1;" />
<path d="M 438.898438 153.480469 L 469.515625 153.480469 L 469.515625 173.894531 L 438.898438 173.894531 Z M 438.898438 153.480469 " style=" stroke:none;fill-rule:nonzero;fill:rgb(94.117647%,61.960784%,14.901961%);fill-opacity:1;" />
<path d="M 0 316.789062 L 30.621094 316.789062 L 30.621094 337.203125 L 0 337.203125 Z M 0 316.789062 " style=" stroke:none;fill-rule:nonzero;fill:rgb(94.117647%,61.960784%,14.901961%);fill-opacity:1;" />
<path d="M 102.070312 316.789062 L 132.691406 316.789062 L 132.691406 337.203125 L 102.070312 337.203125 Z M 102.070312 316.789062 " style=" stroke:none;fill-rule:nonzero;fill:rgb(94.117647%,61.960784%,14.901961%);fill-opacity:1;" />
<path d="M 520.550781 316.789062 L 551.171875 316.789062 L 551.171875 337.203125 L 520.550781 337.203125 Z M 520.550781 316.789062 " style=" stroke:none;fill-rule:nonzero;fill:rgb(94.117647%,61.960784%,14.901961%);fill-opacity:1;" />
<path d="M 112.277344 163.6875 L 84.207031 163.6875 L 75.277344 184.101562 L 112.277344 184.101562 Z M 112.277344 163.6875 " style=" stroke:none;fill-rule:nonzero;fill:rgb(94.117647%,61.960784%,14.901961%);fill-opacity:1;" />
<path d="M 379.695312 214.71875 L 212.304688 214.71875 L 209.855469 235.132812 L 382.144531 235.132812 Z M 379.695312 214.71875 " style=" stroke:none;fill-rule:nonzero;fill:rgb(94.117647%,61.960784%,14.901961%);fill-opacity:1;" />
<path d="M 374.796875 173.894531 L 217.203125 173.894531 L 214.753906 194.308594 L 377.246094 194.308594 Z M 374.796875 173.894531 " style=" stroke:none;fill-rule:nonzero;fill:rgb(94.117647%,61.960784%,14.901961%);fill-opacity:1;" />
<path d="M 207.402344 255.546875 L 204.953125 275.960938 L 387.046875 275.960938 L 384.597656 255.546875 Z M 207.402344 255.546875 " style=" stroke:none;fill-rule:nonzero;fill:rgb(94.117647%,61.960784%,14.901961%);fill-opacity:1;" />
<path d="M 200.054688 316.789062 L 391.945312 316.789062 L 389.496094 296.375 L 202.503906 296.375 Z M 200.054688 316.789062 " style=" stroke:none;fill-rule:nonzero;fill:rgb(94.117647%,61.960784%,14.901961%);fill-opacity:1;" />
<path d="M 367.449219 122.859375 L 224.550781 122.859375 L 219.652344 153.480469 L 372.347656 153.480469 Z M 367.449219 122.859375 " style=" stroke:none;fill-rule:nonzero;fill:rgb(94.117647%,61.960784%,14.901961%);fill-opacity:1;" />
<path d="M 193.929688 367.824219 L 398.070312 367.824219 L 394.394531 337.203125 L 197.605469 337.203125 Z M 193.929688 367.824219 " style=" stroke:none;fill-rule:nonzero;fill:rgb(94.117647%,61.960784%,14.901961%);fill-opacity:1;" />
<path d="M 372.347656 153.480469 L 219.652344 153.480469 L 217.203125 173.894531 L 374.796875 173.894531 Z M 372.347656 153.480469 " style=" stroke:none;fill-rule:nonzero;fill:rgb(96.078431%,68.235294%,27.058824%);fill-opacity:1;" />
<path d="M 377.246094 194.308594 L 214.753906 194.308594 L 212.304688 214.71875 L 379.695312 214.71875 Z M 377.246094 194.308594 " style=" stroke:none;fill-rule:nonzero;fill:rgb(96.078431%,68.235294%,27.058824%);fill-opacity:1;" />
<path d="M 382.144531 235.132812 L 209.855469 235.132812 L 207.402344 255.546875 L 384.597656 255.546875 Z M 382.144531 235.132812 " style=" stroke:none;fill-rule:nonzero;fill:rgb(96.078431%,68.235294%,27.058824%);fill-opacity:1;" />
<path d="M 202.503906 296.375 L 389.496094 296.375 L 387.046875 275.960938 L 204.953125 275.960938 Z M 202.503906 296.375 " style=" stroke:none;fill-rule:nonzero;fill:rgb(96.078431%,68.235294%,27.058824%);fill-opacity:1;" />
<path d="M 197.605469 337.203125 L 394.394531 337.203125 L 391.945312 316.789062 L 200.054688 316.789062 Z M 197.605469 337.203125 " style=" stroke:none;fill-rule:nonzero;fill:rgb(96.078431%,68.235294%,27.058824%);fill-opacity:1;" />
<path d="M 0 275.960938 L 204.136719 275.960938 L 204.136719 296.375 L 0 296.375 Z M 0 275.960938 " style=" stroke:none;fill-rule:nonzero;fill:rgb(98.039216%,73.72549%,37.254902%);fill-opacity:1;" />
<path d="M 387.863281 275.960938 L 592 275.960938 L 592 296.375 L 387.863281 296.375 Z M 387.863281 275.960938 " style=" stroke:none;fill-rule:nonzero;fill:rgb(98.039216%,73.72549%,37.254902%);fill-opacity:1;" />
<path d="M 234.757812 112.652344 L 214.34375 112.652344 L 183.640625 367.824219 L 204.21875 367.824219 Z M 234.757812 112.652344 " style=" stroke:none;fill-rule:nonzero;fill:rgb(98.039216%,73.72549%,37.254902%);fill-opacity:1;" />
<path d="M 387.78125 367.824219 L 408.359375 367.824219 L 377.65625 112.652344 L 357.242188 112.652344 Z M 387.78125 367.824219 " style=" stroke:none;fill-rule:nonzero;fill:rgb(98.039216%,73.72549%,37.254902%);fill-opacity:1;" />
<path d="M 193.929688 30.996094 L 398.070312 30.996094 L 398.070312 51.410156 L 193.929688 51.410156 Z M 193.929688 30.996094 " style=" stroke:none;fill-rule:nonzero;fill:rgb(94.117647%,61.960784%,14.901961%);fill-opacity:1;" />
<path d="M 145.816406 92.238281 L 132.691406 122.859375 L 459.308594 122.859375 L 446.183594 92.238281 Z M 145.816406 92.238281 " style=" stroke:none;fill-rule:nonzero;fill:rgb(94.117647%,61.960784%,14.901961%);fill-opacity:1;" />
<path d="M 244.964844 51.410156 L 347.035156 51.410156 L 347.035156 122.859375 L 244.964844 122.859375 Z M 244.964844 51.410156 " style=" stroke:none;fill-rule:nonzero;fill:rgb(90.196078%,54.117647%,0%);fill-opacity:1;" />
<path d="M 275.585938 82.03125 L 316.414062 82.03125 L 316.414062 122.859375 L 275.585938 122.859375 Z M 275.585938 82.03125 " style=" stroke:none;fill-rule:nonzero;fill:rgb(60%,43.137255%,31.764706%);fill-opacity:1;" />
<path d="M 104.988281 112.652344 L 96.242188 133.066406 L 495.757812 133.066406 L 487.011719 112.652344 Z M 104.988281 112.652344 " style=" stroke:none;fill-rule:nonzero;fill:rgb(98.039216%,73.72549%,37.254902%);fill-opacity:1;" />
<path d="M 244.964844 0.375 L 347.035156 0.375 L 347.035156 30.996094 L 244.964844 30.996094 Z M 244.964844 0.375 " style=" stroke:none;fill-rule:nonzero;fill:rgb(90.196078%,54.117647%,0%);fill-opacity:1;" />
</g>
</svg>