<svg xmlns="http://www.w3.org/2000/svg" height="608pt" version="1.1" viewBox="0 -3 608.307 608" width="608pt">
<g id="surface1">
<path d="M 420.273438 255.023438 L 201.664062 47.8125 L 201.664062 167.488281 L 301.878906 267.707031 L 212.582031 495.917969 L 176.808594 581.257812 L 150.691406 581.257812 L 150.691406 601.648438 L 344.390625 601.648438 L 344.390625 581.257812 L 297.933594 581.257812 Z M 420.273438 255.023438 " style=" stroke:none;fill-rule:nonzero;fill:rgb(98.039216%,73.72549%,37.254902%);fill-opacity:1;" />
<path d="M 420.273438 255.023438 L 201.664062 47.8125 L 201.664062 167.488281 L 301.878906 267.707031 L 212.582031 495.917969 L 176.808594 581.257812 L 150.691406 581.257812 L 150.691406 601.648438 L 344.390625 601.648438 L 344.390625 581.257812 L 297.933594 581.257812 Z M 297.636719 234.632812 L 369.214844 234.632812 L 390.738281 255.023438 L 318.027344 255.023438 Z M 347.695312 214.242188 L 277.25 214.242188 L 256.859375 193.855469 L 326.183594 193.855469 Z M 222.054688 95.21875 L 261.597656 132.683594 L 222.054688 132.683594 Z M 222.054688 153.074219 L 283.121094 153.074219 L 304.632812 173.464844 L 236.46875 173.464844 L 222.054688 159.046875 Z M 231.15625 499.699219 L 239.3125 479.308594 L 314.398438 479.308594 L 306.753906 499.699219 Z M 299.097656 520.089844 L 291.449219 540.476562 L 214.855469 540.476562 L 223.011719 520.089844 Z M 247.449219 458.917969 L 255.605469 438.53125 L 329.691406 438.53125 L 322.042969 458.917969 Z M 263.761719 418.140625 L 271.917969 397.75 L 345.003906 397.75 L 337.355469 418.140625 Z M 280.070312 377.359375 L 288.226562 356.972656 L 360.316406 356.972656 L 352.667969 377.359375 Z M 296.382812 336.582031 L 304.539062 316.191406 L 375.628906 316.191406 L 367.984375 336.582031 Z M 276.15625 581.257812 L 198.605469 581.257812 L 206.761719 560.867188 L 283.855469 560.867188 Z M 383.203125 295.800781 L 312.625 295.800781 L 320.78125 275.414062 L 390.859375 275.414062 Z M 383.203125 295.800781 " style=" stroke:none;fill-rule:nonzero;fill:rgb(96.078431%,68.235294%,27.058824%);fill-opacity:1;" />
<path d="M 181.273438 448.726562 L 58.9375 448.726562 L 58.9375 367.164062 L 120.105469 336.582031 L 181.273438 367.164062 Z M 181.273438 448.726562 " style=" stroke:none;fill-rule:nonzero;fill:rgb(87.058824%,41.960784%,0%);fill-opacity:1;" />
<path d="M 58.9375 428.335938 L 181.273438 428.335938 L 181.273438 448.726562 L 58.9375 448.726562 Z M 58.9375 428.335938 " style=" stroke:none;fill-rule:nonzero;fill:rgb(83.137255%,34.117647%,9.803922%);fill-opacity:1;" />
<path d="M 222.054688 509.894531 L 18.15625 509.894531 L 18.15625 428.335938 L 58.9375 428.335938 L 58.9375 448.726562 L 99.714844 448.726562 L 99.714844 428.335938 L 140.496094 428.335938 L 140.496094 448.726562 L 181.273438 448.726562 L 181.273438 428.335938 L 222.054688 428.335938 Z M 222.054688 509.894531 " style=" stroke:none;fill-rule:nonzero;fill:rgb(92.156863%,48.627451%,8.235294%);fill-opacity:1;" />
<path d="M 109.910156 479.308594 L 130.300781 479.308594 L 130.300781 509.894531 L 109.910156 509.894531 Z M 109.910156 479.308594 " style=" stroke:none;fill-rule:nonzero;fill:rgb(52.156863%,34.117647%,22.352941%);fill-opacity:1;" />
<path d="M 58.9375 479.308594 L 79.324219 479.308594 L 79.324219 509.894531 L 58.9375 509.894531 Z M 58.9375 479.308594 " style=" stroke:none;fill-rule:nonzero;fill:rgb(52.156863%,34.117647%,22.352941%);fill-opacity:1;" />
<path d="M 160.882812 479.308594 L 181.273438 479.308594 L 181.273438 509.894531 L 160.882812 509.894531 Z M 160.882812 479.308594 " style=" stroke:none;fill-rule:nonzero;fill:rgb(52.156863%,34.117647%,22.352941%);fill-opacity:1;" />
<path d="M 232.25 591.453125 L 7.960938 591.453125 L 18.15625 540.476562 L 18.15625 509.894531 L 222.054688 509.894531 L 222.054688 540.476562 Z M 232.25 591.453125 " style=" stroke:none;fill-rule:nonzero;fill:rgb(92.156863%,48.627451%,8.235294%);fill-opacity:1;" />
<path d="M 79.324219 540.476562 L 109.910156 540.476562 L 109.910156 560.867188 L 79.324219 560.867188 Z M 79.324219 540.476562 " style=" stroke:none;fill-rule:nonzero;fill:rgb(87.058824%,41.960784%,0%);fill-opacity:1;" />
<path d="M 18.15625 540.476562 L 48.742188 540.476562 L 48.742188 560.867188 L 18.15625 560.867188 Z M 18.15625 540.476562 " style=" stroke:none;fill-rule:nonzero;fill:rgb(87.058824%,41.960784%,0%);fill-opacity:1;" />
<path d="M 191.46875 540.476562 L 222.054688 540.476562 L 222.054688 560.867188 L 191.46875 560.867188 Z M 191.46875 540.476562 " style=" stroke:none;fill-rule:nonzero;fill:rgb(87.058824%,41.960784%,0%);fill-opacity:1;" />
<path d="M 109.910156 377.359375 L 130.300781 377.359375 L 130.300781 397.75 L 109.910156 397.75 Z M 109.910156 377.359375 " style=" stroke:none;fill-rule:nonzero;fill:rgb(83.137255%,31.764706%,9.803922%);fill-opacity:1;" />
<path d="M 130.300781 330.28125 L 130.300781 316.191406 L 109.910156 316.191406 L 109.910156 330.28125 L 33.988281 368.238281 L 43.105469 386.484375 L 120.105469 347.980469 L 197.105469 386.484375 L 206.222656 368.238281 Z M 130.300781 330.28125 " style=" stroke:none;fill-rule:nonzero;fill:rgb(94.901961%,52.941176%,14.117647%);fill-opacity:1;" />
<path d="M 18.15625 509.894531 L 222.054688 509.894531 L 222.054688 530.285156 L 18.15625 530.285156 Z M 18.15625 509.894531 " style=" stroke:none;fill-rule:nonzero;fill:rgb(94.901961%,52.941176%,14.117647%);fill-opacity:1;" />
<path d="M 222.054688 81.710938 L 18.15625 81.710938 L 18.15625 0.152344 L 58.9375 0.152344 L 58.9375 20.542969 L 99.714844 20.542969 L 99.714844 0.152344 L 140.496094 0.152344 L 140.496094 20.542969 L 181.273438 20.542969 L 181.273438 0.152344 L 222.054688 0.152344 Z M 222.054688 81.710938 " style=" stroke:none;fill-rule:nonzero;fill:rgb(92.156863%,48.627451%,8.235294%);fill-opacity:1;" />
<path d="M 109.910156 51.125 L 130.300781 51.125 L 130.300781 81.710938 L 109.910156 81.710938 Z M 109.910156 51.125 " style=" stroke:none;fill-rule:nonzero;fill:rgb(52.156863%,34.117647%,22.352941%);fill-opacity:1;" />
<path d="M 58.9375 51.125 L 79.324219 51.125 L 79.324219 81.710938 L 58.9375 81.710938 Z M 58.9375 51.125 " style=" stroke:none;fill-rule:nonzero;fill:rgb(52.156863%,34.117647%,22.352941%);fill-opacity:1;" />
<path d="M 160.882812 51.125 L 181.273438 51.125 L 181.273438 81.710938 L 160.882812 81.710938 Z M 160.882812 51.125 " style=" stroke:none;fill-rule:nonzero;fill:rgb(52.156863%,34.117647%,22.352941%);fill-opacity:1;" />
<path d="M 232.25 173.464844 L 7.960938 173.464844 L 18.15625 122.488281 L 18.15625 81.710938 L 222.054688 81.710938 L 222.054688 122.488281 Z M 232.25 173.464844 " style=" stroke:none;fill-rule:nonzero;fill:rgb(92.156863%,48.627451%,8.235294%);fill-opacity:1;" />
<path d="M 120.105469 122.488281 L 150.691406 122.488281 L 150.691406 142.878906 L 120.105469 142.878906 Z M 120.105469 122.488281 " style=" stroke:none;fill-rule:nonzero;fill:rgb(87.058824%,41.960784%,0%);fill-opacity:1;" />
<path d="M 48.742188 112.296875 L 18.15625 112.296875 L 18.15625 122.488281 L 16.117188 132.683594 L 48.742188 132.683594 Z M 48.742188 112.296875 " style=" stroke:none;fill-rule:nonzero;fill:rgb(87.058824%,41.960784%,0%);fill-opacity:1;" />
<path d="M 222.054688 112.296875 L 191.46875 112.296875 L 191.46875 132.683594 L 224.09375 132.683594 L 222.054688 122.488281 Z M 222.054688 112.296875 " style=" stroke:none;fill-rule:nonzero;fill:rgb(87.058824%,41.960784%,0%);fill-opacity:1;" />
<path d="M 18.15625 81.710938 L 222.054688 81.710938 L 222.054688 102.101562 L 18.15625 102.101562 Z M 18.15625 81.710938 " style=" stroke:none;fill-rule:nonzero;fill:rgb(94.901961%,52.941176%,14.117647%);fill-opacity:1;" />
<path d="M 548.289062 204.046875 L 425.949219 204.046875 L 425.949219 122.488281 L 487.121094 91.90625 L 548.289062 122.488281 Z M 548.289062 204.046875 " style=" stroke:none;fill-rule:nonzero;fill:rgb(87.058824%,41.960784%,0%);fill-opacity:1;" />
<path d="M 425.949219 183.660156 L 548.289062 183.660156 L 548.289062 204.046875 L 425.949219 204.046875 Z M 425.949219 183.660156 " style=" stroke:none;fill-rule:nonzero;fill:rgb(83.137255%,34.117647%,9.803922%);fill-opacity:1;" />
<path d="M 589.066406 265.21875 L 385.171875 265.21875 L 385.171875 183.660156 L 425.949219 183.660156 L 425.949219 204.046875 L 466.730469 204.046875 L 466.730469 183.660156 L 507.507812 183.660156 L 507.507812 204.046875 L 548.289062 204.046875 L 548.289062 183.660156 L 589.066406 183.660156 Z M 589.066406 265.21875 " style=" stroke:none;fill-rule:nonzero;fill:rgb(92.156863%,48.627451%,8.235294%);fill-opacity:1;" />
<path d="M 476.925781 234.632812 L 497.3125 234.632812 L 497.3125 265.21875 L 476.925781 265.21875 Z M 476.925781 234.632812 " style=" stroke:none;fill-rule:nonzero;fill:rgb(52.156863%,34.117647%,22.352941%);fill-opacity:1;" />
<path d="M 425.949219 234.632812 L 446.339844 234.632812 L 446.339844 265.21875 L 425.949219 265.21875 Z M 425.949219 234.632812 " style=" stroke:none;fill-rule:nonzero;fill:rgb(52.156863%,34.117647%,22.352941%);fill-opacity:1;" />
<path d="M 527.898438 234.632812 L 548.289062 234.632812 L 548.289062 265.21875 L 527.898438 265.21875 Z M 527.898438 234.632812 " style=" stroke:none;fill-rule:nonzero;fill:rgb(52.156863%,34.117647%,22.352941%);fill-opacity:1;" />
<path d="M 599.261719 346.777344 L 374.976562 346.777344 L 385.171875 295.800781 L 385.171875 265.21875 L 589.066406 265.21875 L 589.066406 295.800781 Z M 599.261719 346.777344 " style=" stroke:none;fill-rule:nonzero;fill:rgb(92.156863%,48.627451%,8.235294%);fill-opacity:1;" />
<path d="M 425.949219 295.800781 L 456.535156 295.800781 L 456.535156 316.191406 L 425.949219 316.191406 Z M 425.949219 295.800781 " style=" stroke:none;fill-rule:nonzero;fill:rgb(87.058824%,41.960784%,0%);fill-opacity:1;" />
<path d="M 507.507812 295.800781 L 538.09375 295.800781 L 538.09375 316.191406 L 507.507812 316.191406 Z M 507.507812 295.800781 " style=" stroke:none;fill-rule:nonzero;fill:rgb(87.058824%,41.960784%,0%);fill-opacity:1;" />
<path d="M 476.925781 132.683594 L 497.3125 132.683594 L 497.3125 153.074219 L 476.925781 153.074219 Z M 476.925781 132.683594 " style=" stroke:none;fill-rule:nonzero;fill:rgb(83.137255%,31.764706%,9.803922%);fill-opacity:1;" />
<path d="M 497.3125 85.605469 L 497.3125 71.515625 L 476.925781 71.515625 L 476.925781 85.605469 L 401.003906 123.558594 L 410.117188 141.808594 L 487.121094 103.300781 L 564.121094 141.808594 L 573.234375 123.558594 Z M 497.3125 85.605469 " style=" stroke:none;fill-rule:nonzero;fill:rgb(94.901961%,52.941176%,14.117647%);fill-opacity:1;" />
<path d="M 385.171875 265.21875 L 589.066406 265.21875 L 589.066406 285.605469 L 385.171875 285.605469 Z M 385.171875 265.21875 " style=" stroke:none;fill-rule:nonzero;fill:rgb(94.901961%,52.941176%,14.117647%);fill-opacity:1;" />
<path d="M 7.960938 591.453125 L 232.25 591.453125 L 232.25 601.648438 L 7.960938 601.648438 Z M 7.960938 591.453125 " style=" stroke:none;fill-rule:nonzero;fill:rgb(92.156863%,48.627451%,8.235294%);fill-opacity:1;" />
<path d="M 374.976562 346.777344 L 599.261719 346.777344 L 599.261719 356.972656 L 374.976562 356.972656 Z M 374.976562 346.777344 " style=" stroke:none;fill-rule:nonzero;fill:rgb(92.156863%,48.627451%,8.235294%);fill-opacity:1;" />
<path d="M 15.925781 332.757812 L 0 320.015625 L 40.78125 269.039062 C 42.714844 266.621094 45.644531 265.214844 48.742188 265.21875 L 150.691406 265.21875 L 150.691406 285.605469 L 53.636719 285.605469 Z M 15.925781 332.757812 " style=" stroke:none;fill-rule:nonzero;fill:rgb(36.078431%,60%,40.392157%);fill-opacity:1;" />
<path d="M 98.695312 279.96875 L 80.445312 270.855469 L 100.835938 230.074219 C 102.554688 226.636719 106.0625 224.457031 109.910156 224.4375 L 201.664062 224.4375 L 201.664062 244.828125 L 116.210938 244.828125 Z M 98.695312 279.96875 " style=" stroke:none;fill-rule:nonzero;fill:rgb(36.078431%,60%,40.392157%);fill-opacity:1;" />
<path d="M 388.160156 99.113281 L 370.757812 81.710938 L 334.199219 81.710938 C 330.789062 81.710938 327.605469 80.007812 325.714844 77.175781 L 308.355469 51.125 L 262.832031 51.125 L 262.832031 30.738281 L 313.808594 30.738281 C 317.214844 30.734375 320.398438 32.4375 322.289062 35.273438 L 339.652344 61.320312 L 374.976562 61.320312 C 377.679688 61.320312 380.273438 62.394531 382.183594 64.308594 L 402.574219 84.699219 Z M 388.160156 99.113281 " style=" stroke:none;fill-rule:nonzero;fill:rgb(36.078431%,60%,40.392157%);fill-opacity:1;" />
<path d="M 529.613281 566.527344 L 512.25 540.476562 L 456.535156 540.476562 C 453.324219 540.476562 450.304688 538.96875 448.378906 536.398438 L 420.851562 499.699219 L 354.585938 499.699219 L 354.585938 479.308594 L 425.949219 479.308594 C 429.160156 479.308594 432.179688 480.820312 434.105469 483.386719 L 461.632812 520.089844 L 517.703125 520.089844 C 521.113281 520.089844 524.292969 521.789062 526.183594 524.625 L 546.574219 555.210938 Z M 529.613281 566.527344 " style=" stroke:none;fill-rule:nonzero;fill:rgb(36.078431%,60%,40.392157%);fill-opacity:1;" />
<path d="M 590.527344 443.78125 L 562.90625 397.75 L 527.898438 397.75 C 524.6875 397.75 521.667969 396.238281 519.742188 393.671875 L 492.214844 356.972656 L 446.339844 356.972656 L 446.339844 336.582031 L 497.3125 336.582031 C 500.523438 336.582031 503.542969 338.09375 505.46875 340.660156 L 532.996094 377.359375 L 568.679688 377.359375 C 572.257812 377.363281 575.574219 379.238281 577.414062 382.304688 L 608 433.28125 Z M 590.527344 443.78125 " style=" stroke:none;fill-rule:nonzero;fill:rgb(36.078431%,60%,40.392157%);fill-opacity:1;" />
<path d="M 393.328125 495.621094 L 377.015625 483.386719 L 407.597656 442.609375 C 409.523438 440.039062 412.546875 438.53125 415.753906 438.53125 L 466.730469 438.53125 L 466.730469 458.917969 L 420.851562 458.917969 Z M 393.328125 495.621094 " style=" stroke:none;fill-rule:nonzero;fill:rgb(36.078431%,60%,40.392157%);fill-opacity:1;" />
<path d="M 7.960938 173.464844 L 232.25 173.464844 L 232.25 183.660156 L 7.960938 183.660156 Z M 7.960938 173.464844 " style=" stroke:none;fill-rule:nonzero;fill:rgb(92.156863%,48.627451%,8.235294%);fill-opacity:1;" />
</g>
</svg>