<svg xmlns="http://www.w3.org/2000/svg" height="595pt" version="1.1" viewBox="1 -78 595.598 595" width="595pt">
<g id="surface1">
<path d="M 175.558594 153.25 L 420.523438 153.25 L 420.523438 194.078125 L 175.558594 194.078125 Z M 175.558594 153.25 " style=" stroke:none;fill-rule:nonzero;fill:rgb(92.941176%,35.686275%,10.980392%);fill-opacity:1;" />
<path d="M 73.488281 61.390625 L 522.59375 61.390625 L 522.59375 112.421875 L 73.488281 112.421875 Z M 73.488281 61.390625 " style=" stroke:none;fill-rule:nonzero;fill:rgb(92.941176%,35.686275%,10.980392%);fill-opacity:1;" />
<path d="M 40.664062 17.753906 L 53.074219 60.859375 C 133.988281 74.796875 215.9375 81.804688 298.042969 81.804688 C 380.144531 81.800781 462.09375 74.796875 543.007812 60.859375 L 555.417969 17.753906 C 470.492188 33.175781 384.355469 40.949219 298.042969 40.976562 C 211.726562 40.949219 125.589844 33.175781 40.664062 17.753906 Z M 40.664062 17.753906 " style=" stroke:none;fill-rule:nonzero;fill:rgb(96.078431%,44.313725%,21.960784%);fill-opacity:1;" />
<path d="M 267.421875 81.804688 L 328.660156 81.804688 L 328.660156 194.078125 L 267.421875 194.078125 Z M 267.421875 81.804688 " style=" stroke:none;fill-rule:nonzero;fill:rgb(52.156863%,34.117647%,22.352941%);fill-opacity:1;" />
<path d="M 267.421875 173.664062 L 328.660156 173.664062 L 328.660156 194.078125 L 267.421875 194.078125 Z M 267.421875 173.664062 " style=" stroke:none;fill-rule:nonzero;fill:rgb(45.882353%,28.627451%,16.862745%);fill-opacity:1;" />
<path d="M 124.523438 112.421875 L 175.558594 112.421875 L 175.558594 439.042969 L 124.523438 439.042969 Z M 124.523438 112.421875 " style=" stroke:none;fill-rule:nonzero;fill:rgb(92.941176%,35.686275%,10.980392%);fill-opacity:1;" />
<path d="M 124.523438 367.597656 L 175.558594 367.597656 L 175.558594 439.042969 L 124.523438 439.042969 Z M 124.523438 367.597656 " style=" stroke:none;fill-rule:nonzero;fill:rgb(52.156863%,34.117647%,22.352941%);fill-opacity:1;" />
<path d="M 420.523438 112.421875 L 471.558594 112.421875 L 471.558594 439.042969 L 420.523438 439.042969 Z M 420.523438 112.421875 " style=" stroke:none;fill-rule:nonzero;fill:rgb(92.941176%,35.686275%,10.980392%);fill-opacity:1;" />
<path d="M 420.523438 367.597656 L 471.558594 367.597656 L 471.558594 439.042969 L 420.523438 439.042969 Z M 420.523438 367.597656 " style=" stroke:none;fill-rule:nonzero;fill:rgb(52.156863%,34.117647%,22.352941%);fill-opacity:1;" />
<path d="M 298.042969 51.183594 C 202.335938 51.160156 106.863281 41.703125 13.015625 22.949219 L 0 20.359375 L 4.082031 0.351562 L 17.066406 2.933594 C 202.585938 39.882812 393.574219 39.882812 579.097656 2.933594 L 592 0.351562 L 596 20.359375 L 583.027344 22.949219 C 489.191406 41.699219 393.734375 51.15625 298.042969 51.183594 Z M 298.042969 51.183594 " style=" stroke:none;fill-rule:nonzero;fill:rgb(46.666667%,72.156863%,51.372549%);fill-opacity:1;" />
<path d="M 73.488281 153.25 L 124.523438 153.25 L 124.523438 194.078125 L 73.488281 194.078125 Z M 73.488281 153.25 " style=" stroke:none;fill-rule:nonzero;fill:rgb(92.941176%,35.686275%,10.980392%);fill-opacity:1;" />
<path d="M 471.558594 153.25 L 522.59375 153.25 L 522.59375 194.078125 L 471.558594 194.078125 Z M 471.558594 153.25 " style=" stroke:none;fill-rule:nonzero;fill:rgb(92.941176%,35.686275%,10.980392%);fill-opacity:1;" />
<path d="M 175.558594 153.25 L 195.972656 153.25 L 195.972656 194.078125 L 175.558594 194.078125 Z M 175.558594 153.25 " style=" stroke:none;fill-rule:nonzero;fill:rgb(83.137255%,31.764706%,9.803922%);fill-opacity:1;" />
<path d="M 471.558594 153.25 L 491.972656 153.25 L 491.972656 194.078125 L 471.558594 194.078125 Z M 471.558594 153.25 " style=" stroke:none;fill-rule:nonzero;fill:rgb(83.137255%,31.764706%,9.803922%);fill-opacity:1;" />
<path d="M 104.109375 153.25 L 124.523438 153.25 L 124.523438 194.078125 L 104.109375 194.078125 Z M 104.109375 153.25 " style=" stroke:none;fill-rule:nonzero;fill:rgb(83.137255%,31.764706%,9.803922%);fill-opacity:1;" />
<path d="M 400.109375 153.25 L 420.523438 153.25 L 420.523438 194.078125 L 400.109375 194.078125 Z M 400.109375 153.25 " style=" stroke:none;fill-rule:nonzero;fill:rgb(83.137255%,31.764706%,9.803922%);fill-opacity:1;" />
<path d="M 124.523438 418.628906 L 175.558594 418.628906 L 175.558594 439.042969 L 124.523438 439.042969 Z M 124.523438 418.628906 " style=" stroke:none;fill-rule:nonzero;fill:rgb(45.882353%,28.627451%,16.862745%);fill-opacity:1;" />
<path d="M 420.523438 418.628906 L 471.558594 418.628906 L 471.558594 439.042969 L 420.523438 439.042969 Z M 420.523438 418.628906 " style=" stroke:none;fill-rule:nonzero;fill:rgb(45.882353%,28.627451%,16.862745%);fill-opacity:1;" />
</g>
</svg>