<svg xmlns="http://www.w3.org/2000/svg" height="591pt" version="1.1" viewBox="1 -162 591.59998 591" width="591pt">
<g id="surface1">
<path d="M 398.070312 134.777344 L 428.691406 185.8125 L 500.136719 185.8125 L 498.792969 182.667969 C 482.058594 143.625 438.910156 123.109375 398.070312 134.777344 Z M 398.070312 134.777344 " style=" stroke:none;fill-rule:nonzero;fill:rgb(81.568627%,84.313725%,87.45098%);fill-opacity:1;" />
<path d="M 498.792969 182.667969 C 489.492188 160.953125 471.496094 144.144531 449.195312 136.347656 C 454.734375 152.316406 458.136719 168.949219 459.308594 185.808594 L 500.136719 185.808594 Z M 498.792969 182.667969 " style=" stroke:none;fill-rule:nonzero;fill:rgb(76.470588%,78.823529%,81.960784%);fill-opacity:1;" />
<path d="M 581.792969 104.15625 L 520.550781 206.226562 L 449.101562 206.226562 L 454.480469 184.730469 C 468.632812 128.214844 524.660156 92.757812 581.792969 104.15625 Z M 581.792969 104.15625 " style=" stroke:none;fill-rule:nonzero;fill:rgb(81.568627%,84.313725%,87.45098%);fill-opacity:1;" />
<path d="M 581.792969 104.15625 C 555.914062 98.980469 529.03125 103.398438 506.171875 116.589844 C 511.921875 147.820312 505.050781 180.054688 487.0625 206.226562 L 520.550781 206.226562 Z M 581.792969 104.15625 " style=" stroke:none;fill-rule:nonzero;fill:rgb(76.470588%,78.823529%,81.960784%);fill-opacity:1;" />
<path d="M 526.796875 195.8125 L 478.273438 139.289062 C 473.648438 144.570312 469.546875 150.289062 466.027344 156.363281 L 508.832031 206.226562 L 520.550781 206.226562 Z M 526.796875 195.8125 " style=" stroke:none;fill-rule:nonzero;fill:rgb(64.313725%,69.019608%,74.901961%);fill-opacity:1;" />
<path d="M 10.207031 93.949219 L 40.828125 165.398438 L 122.484375 165.398438 L 109.214844 136.164062 C 90.328125 100.46875 49.039062 82.863281 10.207031 93.949219 Z M 10.207031 93.949219 " style=" stroke:none;fill-rule:nonzero;fill:rgb(81.568627%,84.313725%,87.45098%);fill-opacity:1;" />
<path d="M 109.214844 136.164062 C 98.785156 116.480469 81.085938 101.640625 59.882812 94.808594 C 58.851562 119.375 52.585938 143.4375 41.511719 165.386719 L 122.484375 165.386719 Z M 109.214844 136.164062 " style=" stroke:none;fill-rule:nonzero;fill:rgb(76.470588%,78.823529%,81.960784%);fill-opacity:1;" />
<path d="M 214.34375 185.8125 L 132.691406 2.085938 C 221.855469 -9.808594 307.113281 42.554688 336.828125 127.457031 L 357.242188 185.8125 Z M 214.34375 185.8125 " style=" stroke:none;fill-rule:nonzero;fill:rgb(81.568627%,84.313725%,87.45098%);fill-opacity:1;" />
<path d="M 357.242188 185.8125 L 336.828125 127.457031 C 326.351562 97.550781 308.53125 70.757812 284.996094 49.539062 C 279.078125 101.746094 253.480469 149.734375 213.414062 183.730469 L 214.34375 185.769531 Z M 357.242188 185.8125 " style=" stroke:none;fill-rule:nonzero;fill:rgb(76.470588%,78.823529%,81.960784%);fill-opacity:1;" />
<path d="M 321.863281 95.09375 L 210.058594 176.164062 L 214.34375 185.8125 L 231.535156 185.8125 L 331.246094 113.515625 C 328.457031 107.207031 325.324219 101.058594 321.863281 95.09375 Z M 321.863281 95.09375 " style=" stroke:none;fill-rule:nonzero;fill:rgb(64.313725%,69.019608%,74.901961%);fill-opacity:1;" />
<path d="M 175.171875 107.472656 C 155.894531 68.921875 114.117188 47.03125 71.449219 53.121094 L 109.214844 136.164062 C 110.121094 137.898438 111.042969 139.625 111.847656 141.429688 L 122.484375 165.398438 L 204.136719 165.398438 Z M 175.171875 107.472656 " style=" stroke:none;fill-rule:nonzero;fill:rgb(81.568627%,84.313725%,87.45098%);fill-opacity:1;" />
<path d="M 175.171875 107.472656 C 167.253906 91.652344 155.277344 78.214844 140.46875 68.535156 C 144.015625 101.496094 139.167969 134.816406 126.371094 165.398438 L 204.136719 165.398438 Z M 175.171875 107.472656 " style=" stroke:none;fill-rule:nonzero;fill:rgb(76.470588%,78.823529%,81.960784%);fill-opacity:1;" />
<path d="M 54.699219 165.398438 L 93.484375 115.167969 C 88.605469 110.386719 83.171875 106.207031 77.296875 102.71875 L 36.570312 155.476562 L 40.828125 165.398438 Z M 54.699219 165.398438 " style=" stroke:none;fill-rule:nonzero;fill:rgb(64.313725%,69.019608%,74.901961%);fill-opacity:1;" />
<path d="M 145.480469 165.398438 L 178.621094 114.28125 L 175.210938 107.472656 C 172.910156 102.851562 170.25 98.414062 167.261719 94.203125 L 121.980469 164.140625 L 122.523438 165.347656 Z M 145.480469 165.398438 " style=" stroke:none;fill-rule:nonzero;fill:rgb(64.313725%,69.019608%,74.901961%);fill-opacity:1;" />
<path d="M 295.222656 159.867188 L 285.792969 185.8125 L 377.65625 185.8125 L 418.484375 73.535156 C 363.332031 73.535156 314.074219 108.035156 295.222656 159.867188 Z M 295.222656 159.867188 " style=" stroke:none;fill-rule:nonzero;fill:rgb(81.568627%,84.313725%,87.45098%);fill-opacity:1;" />
<path d="M 337.847656 101.328125 C 331.949219 105.902344 326.453125 110.976562 321.414062 116.488281 L 344.726562 185.8125 L 366.273438 185.8125 Z M 337.847656 101.328125 " style=" stroke:none;fill-rule:nonzero;fill:rgb(64.313725%,69.019608%,74.901961%);fill-opacity:1;" />
<path d="M 20.414062 226.640625 L 20.414062 165.398438 L 204.136719 165.519531 L 255.171875 185.933594 L 530.757812 185.8125 L 561.378906 226.640625 Z M 20.414062 226.640625 " style=" stroke:none;fill-rule:nonzero;fill:rgb(92.156863%,48.627451%,8.235294%);fill-opacity:1;" />
<path d="M 0 226.640625 L 592 226.640625 L 592 267.464844 L 0 267.464844 Z M 0 226.640625 " style=" stroke:none;fill-rule:nonzero;fill:rgb(92.156863%,48.627451%,8.235294%);fill-opacity:1;" />
<path d="M 0 245.378906 L 592 245.378906 L 592 267.464844 L 0 267.464844 Z M 0 245.378906 " style=" stroke:none;fill-rule:nonzero;fill:rgb(87.058824%,41.960784%,0%);fill-opacity:1;" />
<path d="M 20.414062 204.550781 L 20.414062 226.640625 L 561.378906 226.640625 L 544.8125 204.550781 Z M 20.414062 204.550781 " style=" stroke:none;fill-rule:nonzero;fill:rgb(87.058824%,41.960784%,0%);fill-opacity:1;" />
<path d="M 61.242188 196.019531 L 81.65625 196.019531 L 81.65625 224.964844 L 61.242188 224.964844 Z M 61.242188 196.019531 " style=" stroke:none;fill-rule:nonzero;fill:rgb(83.137255%,34.117647%,9.803922%);fill-opacity:1;" />
</g>
</svg>