<svg xmlns="http://www.w3.org/2000/svg" height="601pt" version="1.1" viewBox="-5 1 601 601.79999" width="601pt">
<g id="surface1">
<path d="M 134.320312 499.964844 L 134.320312 581.796875 L 306.503906 549.238281 L 306.503906 499.964844 Z M 245.28125 520.371094 L 245.28125 540.046875 L 224.875 543.902344 L 224.875 520.371094 Z M 154.726562 520.371094 L 204.46875 520.371094 L 204.46875 547.757812 L 154.726562 557.15625 Z M 286.097656 532.320312 L 265.691406 536.179688 L 265.691406 520.371094 L 286.097656 520.371094 Z M 286.097656 532.320312 " style=" stroke:none;fill-rule:nonzero;fill:rgb(29.019608%,61.568627%,85.098039%);fill-opacity:1;" />
<path d="M 287.371094 499.964844 L 287.371094 549.238281 L 459.554688 581.796875 L 459.554688 499.964844 Z M 369 520.371094 L 369 543.902344 L 348.59375 540.042969 L 348.59375 520.371094 Z M 439.148438 557.15625 L 389.40625 547.757812 L 389.40625 520.371094 L 439.148438 520.371094 Z M 307.777344 520.371094 L 328.1875 520.371094 L 328.1875 536.179688 L 307.777344 532.320312 Z M 307.777344 520.371094 " style=" stroke:none;fill-rule:nonzero;fill:rgb(29.019608%,61.568627%,85.098039%);fill-opacity:1;" />
<path d="M 449.351562 295.898438 L 143.25 295.898438 L 143.25 234.679688 L 449.351562 234.679688 Z M 163.65625 275.492188 L 428.945312 275.492188 L 428.945312 255.085938 L 163.65625 255.085938 Z M 163.65625 275.492188 " style=" stroke:none;fill-rule:nonzero;fill:rgb(29.019608%,61.568627%,85.098039%);fill-opacity:1;" />
<path d="M 326.910156 295.898438 L 265.691406 295.898438 L 265.691406 234.679688 L 326.910156 234.679688 Z M 286.097656 275.492188 L 306.503906 275.492188 L 306.503906 255.085938 L 286.097656 255.085938 Z M 286.097656 275.492188 " style=" stroke:none;fill-rule:nonzero;fill:rgb(29.019608%,61.568627%,85.098039%);fill-opacity:1;" />
<path d="M 224.875 244.882812 L 245.28125 244.882812 L 245.28125 285.695312 L 224.875 285.695312 Z M 224.875 244.882812 " style=" stroke:none;fill-rule:nonzero;fill:rgb(29.019608%,61.568627%,85.098039%);fill-opacity:1;" />
<path d="M 184.0625 244.882812 L 204.46875 244.882812 L 204.46875 285.695312 L 184.0625 285.695312 Z M 184.0625 244.882812 " style=" stroke:none;fill-rule:nonzero;fill:rgb(29.019608%,61.568627%,85.098039%);fill-opacity:1;" />
<path d="M 347.316406 244.882812 L 367.722656 244.882812 L 367.722656 285.695312 L 347.316406 285.695312 Z M 347.316406 244.882812 " style=" stroke:none;fill-rule:nonzero;fill:rgb(29.019608%,61.568627%,85.098039%);fill-opacity:1;" />
<path d="M 388.128906 244.882812 L 408.539062 244.882812 L 408.539062 285.695312 L 388.128906 285.695312 Z M 388.128906 244.882812 " style=" stroke:none;fill-rule:nonzero;fill:rgb(29.019608%,61.568627%,85.098039%);fill-opacity:1;" />
<path d="M 20.808594 193.863281 L 163.65625 193.863281 L 163.65625 510.167969 L 20.808594 510.167969 Z M 20.808594 193.863281 " style=" stroke:none;fill-rule:nonzero;fill:rgb(81.568627%,84.313725%,87.45098%);fill-opacity:1;" />
<path d="M 122.84375 132.644531 L 92.230469 40.8125 L 61.621094 132.644531 L 61.621094 193.863281 L 122.84375 193.863281 Z M 122.84375 132.644531 " style=" stroke:none;fill-rule:nonzero;fill:rgb(29.019608%,61.568627%,85.098039%);fill-opacity:1;" />
<path d="M 82.027344 0 L 102.4375 0 L 102.4375 71.421875 L 82.027344 71.421875 Z M 82.027344 0 " style=" stroke:none;fill-rule:nonzero;fill:rgb(81.568627%,84.313725%,87.45098%);fill-opacity:1;" />
<path d="M 41.214844 71.421875 L 20.808594 132.644531 L 20.808594 193.863281 L 61.621094 193.863281 L 61.621094 132.644531 Z M 41.214844 71.421875 " style=" stroke:none;fill-rule:nonzero;fill:rgb(29.019608%,61.568627%,85.098039%);fill-opacity:1;" />
<path d="M 31.011719 40.8125 L 51.417969 40.8125 L 51.417969 102.035156 L 31.011719 102.035156 Z M 31.011719 40.8125 " style=" stroke:none;fill-rule:nonzero;fill:rgb(81.568627%,84.313725%,87.45098%);fill-opacity:1;" />
<path d="M 143.25 71.421875 L 122.84375 132.644531 L 122.84375 193.863281 L 163.65625 193.863281 L 163.65625 132.644531 Z M 143.25 71.421875 " style=" stroke:none;fill-rule:nonzero;fill:rgb(29.019608%,61.568627%,85.098039%);fill-opacity:1;" />
<path d="M 133.046875 40.8125 L 153.453125 40.8125 L 153.453125 102.035156 L 133.046875 102.035156 Z M 133.046875 40.8125 " style=" stroke:none;fill-rule:nonzero;fill:rgb(81.568627%,84.313725%,87.45098%);fill-opacity:1;" />
<path d="M 20.808594 275.492188 L 163.65625 275.492188 L 163.65625 295.898438 L 20.808594 295.898438 Z M 20.808594 275.492188 " style=" stroke:none;fill-rule:nonzero;fill:rgb(76.470588%,78.823529%,81.960784%);fill-opacity:1;" />
<path d="M 20.808594 367.320312 L 163.65625 367.320312 L 163.65625 387.730469 L 20.808594 387.730469 Z M 20.808594 367.320312 " style=" stroke:none;fill-rule:nonzero;fill:rgb(76.470588%,78.823529%,81.960784%);fill-opacity:1;" />
<path d="M 102.4375 224.472656 L 122.84375 224.472656 L 122.84375 255.085938 L 102.4375 255.085938 Z M 102.4375 224.472656 " style=" stroke:none;fill-rule:nonzero;fill:rgb(47.45098%,55.294118%,63.137255%);fill-opacity:1;" />
<path d="M 61.621094 224.472656 L 82.027344 224.472656 L 82.027344 255.085938 L 61.621094 255.085938 Z M 61.621094 224.472656 " style=" stroke:none;fill-rule:nonzero;fill:rgb(47.45098%,55.294118%,63.137255%);fill-opacity:1;" />
<path d="M 102.4375 316.304688 L 122.84375 316.304688 L 122.84375 346.914062 L 102.4375 346.914062 Z M 102.4375 316.304688 " style=" stroke:none;fill-rule:nonzero;fill:rgb(47.45098%,55.294118%,63.137255%);fill-opacity:1;" />
<path d="M 61.621094 316.304688 L 82.027344 316.304688 L 82.027344 346.914062 L 61.621094 346.914062 Z M 61.621094 316.304688 " style=" stroke:none;fill-rule:nonzero;fill:rgb(47.45098%,55.294118%,63.137255%);fill-opacity:1;" />
<path d="M 102.4375 448.949219 L 122.84375 448.949219 L 122.84375 479.558594 L 102.4375 479.558594 Z M 102.4375 448.949219 " style=" stroke:none;fill-rule:nonzero;fill:rgb(47.45098%,55.294118%,63.137255%);fill-opacity:1;" />
<path d="M 61.621094 448.949219 L 82.027344 448.949219 L 82.027344 479.558594 L 61.621094 479.558594 Z M 61.621094 448.949219 " style=" stroke:none;fill-rule:nonzero;fill:rgb(47.45098%,55.294118%,63.137255%);fill-opacity:1;" />
<path d="M 61.621094 408.136719 L 82.027344 408.136719 L 82.027344 428.542969 L 61.621094 428.542969 Z M 61.621094 408.136719 " style=" stroke:none;fill-rule:nonzero;fill:rgb(47.45098%,55.294118%,63.137255%);fill-opacity:1;" />
<path d="M 102.4375 408.136719 L 122.84375 408.136719 L 122.84375 428.542969 L 102.4375 428.542969 Z M 102.4375 408.136719 " style=" stroke:none;fill-rule:nonzero;fill:rgb(47.45098%,55.294118%,63.137255%);fill-opacity:1;" />
<path d="M 92.230469 132.644531 L 61.621094 193.863281 L 122.84375 193.863281 Z M 92.230469 132.644531 " style=" stroke:none;fill-rule:nonzero;fill:rgb(81.568627%,84.313725%,87.45098%);fill-opacity:1;" />
<path d="M 0.402344 499.964844 L 173.859375 499.964844 L 173.859375 602 L 0.402344 602 Z M 0.402344 499.964844 " style=" stroke:none;fill-rule:nonzero;fill:rgb(81.568627%,84.313725%,87.45098%);fill-opacity:1;" />
<path d="M 0.402344 520.371094 L 173.859375 520.371094 L 173.859375 540.78125 L 0.402344 540.78125 Z M 0.402344 520.371094 " style=" stroke:none;fill-rule:nonzero;fill:rgb(76.470588%,78.823529%,81.960784%);fill-opacity:1;" />
<path d="M 428.945312 193.863281 L 571.792969 193.863281 L 571.792969 510.167969 L 428.945312 510.167969 Z M 428.945312 193.863281 " style=" stroke:none;fill-rule:nonzero;fill:rgb(81.568627%,84.313725%,87.45098%);fill-opacity:1;" />
<path d="M 530.976562 132.644531 L 500.367188 40.8125 L 469.757812 132.644531 L 469.757812 193.863281 L 530.976562 193.863281 Z M 530.976562 132.644531 " style=" stroke:none;fill-rule:nonzero;fill:rgb(29.019608%,61.568627%,85.098039%);fill-opacity:1;" />
<path d="M 490.164062 0 L 510.570312 0 L 510.570312 71.421875 L 490.164062 71.421875 Z M 490.164062 0 " style=" stroke:none;fill-rule:nonzero;fill:rgb(81.568627%,84.313725%,87.45098%);fill-opacity:1;" />
<path d="M 449.351562 71.421875 L 428.945312 132.644531 L 428.945312 193.863281 L 469.757812 193.863281 L 469.757812 132.644531 Z M 449.351562 71.421875 " style=" stroke:none;fill-rule:nonzero;fill:rgb(29.019608%,61.568627%,85.098039%);fill-opacity:1;" />
<path d="M 439.148438 40.8125 L 459.554688 40.8125 L 459.554688 102.035156 L 439.148438 102.035156 Z M 439.148438 40.8125 " style=" stroke:none;fill-rule:nonzero;fill:rgb(81.568627%,84.313725%,87.45098%);fill-opacity:1;" />
<path d="M 551.382812 71.421875 L 530.976562 132.644531 L 530.976562 193.863281 L 571.792969 193.863281 L 571.792969 132.644531 Z M 551.382812 71.421875 " style=" stroke:none;fill-rule:nonzero;fill:rgb(29.019608%,61.568627%,85.098039%);fill-opacity:1;" />
<path d="M 541.179688 40.8125 L 561.589844 40.8125 L 561.589844 102.035156 L 541.179688 102.035156 Z M 541.179688 40.8125 " style=" stroke:none;fill-rule:nonzero;fill:rgb(81.568627%,84.313725%,87.45098%);fill-opacity:1;" />
<path d="M 428.945312 275.492188 L 571.792969 275.492188 L 571.792969 295.898438 L 428.945312 295.898438 Z M 428.945312 275.492188 " style=" stroke:none;fill-rule:nonzero;fill:rgb(76.470588%,78.823529%,81.960784%);fill-opacity:1;" />
<path d="M 428.945312 367.320312 L 571.792969 367.320312 L 571.792969 387.730469 L 428.945312 387.730469 Z M 428.945312 367.320312 " style=" stroke:none;fill-rule:nonzero;fill:rgb(76.470588%,78.823529%,81.960784%);fill-opacity:1;" />
<path d="M 510.570312 224.472656 L 530.976562 224.472656 L 530.976562 255.085938 L 510.570312 255.085938 Z M 510.570312 224.472656 " style=" stroke:none;fill-rule:nonzero;fill:rgb(47.45098%,55.294118%,63.137255%);fill-opacity:1;" />
<path d="M 469.757812 224.472656 L 490.164062 224.472656 L 490.164062 255.085938 L 469.757812 255.085938 Z M 469.757812 224.472656 " style=" stroke:none;fill-rule:nonzero;fill:rgb(47.45098%,55.294118%,63.137255%);fill-opacity:1;" />
<path d="M 510.570312 316.304688 L 530.976562 316.304688 L 530.976562 346.914062 L 510.570312 346.914062 Z M 510.570312 316.304688 " style=" stroke:none;fill-rule:nonzero;fill:rgb(47.45098%,55.294118%,63.137255%);fill-opacity:1;" />
<path d="M 469.757812 316.304688 L 490.164062 316.304688 L 490.164062 346.914062 L 469.757812 346.914062 Z M 469.757812 316.304688 " style=" stroke:none;fill-rule:nonzero;fill:rgb(47.45098%,55.294118%,63.137255%);fill-opacity:1;" />
<path d="M 510.570312 448.949219 L 530.976562 448.949219 L 530.976562 479.558594 L 510.570312 479.558594 Z M 510.570312 448.949219 " style=" stroke:none;fill-rule:nonzero;fill:rgb(47.45098%,55.294118%,63.137255%);fill-opacity:1;" />
<path d="M 469.757812 448.949219 L 490.164062 448.949219 L 490.164062 479.558594 L 469.757812 479.558594 Z M 469.757812 448.949219 " style=" stroke:none;fill-rule:nonzero;fill:rgb(47.45098%,55.294118%,63.137255%);fill-opacity:1;" />
<path d="M 469.757812 408.136719 L 490.164062 408.136719 L 490.164062 428.542969 L 469.757812 428.542969 Z M 469.757812 408.136719 " style=" stroke:none;fill-rule:nonzero;fill:rgb(47.45098%,55.294118%,63.137255%);fill-opacity:1;" />
<path d="M 510.570312 408.136719 L 530.976562 408.136719 L 530.976562 428.542969 L 510.570312 428.542969 Z M 510.570312 408.136719 " style=" stroke:none;fill-rule:nonzero;fill:rgb(47.45098%,55.294118%,63.137255%);fill-opacity:1;" />
<path d="M 500.367188 132.644531 L 469.757812 193.863281 L 530.976562 193.863281 Z M 500.367188 132.644531 " style=" stroke:none;fill-rule:nonzero;fill:rgb(81.568627%,84.313725%,87.45098%);fill-opacity:1;" />
<path d="M 418.742188 499.964844 L 592.199219 499.964844 L 592.199219 602 L 418.742188 602 Z M 418.742188 499.964844 " style=" stroke:none;fill-rule:nonzero;fill:rgb(81.568627%,84.313725%,87.45098%);fill-opacity:1;" />
<path d="M 418.742188 520.371094 L 592.199219 520.371094 L 592.199219 540.78125 L 418.742188 540.78125 Z M 418.742188 520.371094 " style=" stroke:none;fill-rule:nonzero;fill:rgb(76.470588%,78.823529%,81.960784%);fill-opacity:1;" />
</g>
</svg>