<svg xmlns="http://www.w3.org/2000/svg" height="612pt" version="1.1" viewBox="0 -41 612 612" width="612pt">
<g id="surface1">
<path d="M 367.199219 46.828125 L 367.199219 0 L 346.800781 0 L 346.800781 20.398438 L 316.199219 20.398438 L 316.199219 0 L 295.800781 0 L 295.800781 20.398438 L 265.199219 20.398438 L 265.199219 0 L 244.800781 0 L 244.800781 46.828125 C 213.070312 67.117188 193.851562 102.160156 193.800781 139.820312 L 193.800781 163.199219 L 418.199219 163.199219 L 418.199219 139.820312 C 418.148438 102.160156 398.929688 67.117188 367.199219 46.828125 Z M 367.199219 46.828125 " style=" stroke:none;fill-rule:nonzero;fill:rgb(26.27451%,58.039216%,80%);fill-opacity:1;" />
<path d="M 387.753906 63.894531 C 367.910156 103.660156 338.398438 137.808594 301.921875 163.199219 L 418.199219 163.199219 L 418.199219 139.820312 C 418.171875 111.542969 407.273438 84.355469 387.753906 63.894531 Z M 387.753906 63.894531 " style=" stroke:none;fill-rule:nonzero;fill:rgb(24.313725%,53.72549%,74.117647%);fill-opacity:1;" />
<path d="M 418.199219 244.800781 L 581.398438 244.800781 L 550.800781 183.601562 L 418.199219 183.601562 Z M 418.199219 244.800781 " style=" stroke:none;fill-rule:nonzero;fill:rgb(26.27451%,58.039216%,80%);fill-opacity:1;" />
<path d="M 418.199219 183.601562 L 448.800781 183.601562 L 448.800781 244.800781 L 418.199219 244.800781 Z M 418.199219 183.601562 " style=" stroke:none;fill-rule:nonzero;fill:rgb(24.313725%,53.72549%,74.117647%);fill-opacity:1;" />
<path d="M 193.800781 244.800781 L 30.601562 244.800781 L 61.199219 183.601562 L 193.800781 183.601562 Z M 193.800781 244.800781 " style=" stroke:none;fill-rule:nonzero;fill:rgb(26.27451%,58.039216%,80%);fill-opacity:1;" />
<path d="M 306 91.800781 L 193.800781 153 L 193.800781 244.800781 L 418.199219 244.800781 L 418.199219 153 Z M 306 91.800781 " style=" stroke:none;fill-rule:nonzero;fill:rgb(96.078431%,68.235294%,27.058824%);fill-opacity:1;" />
<path d="M 0 234.601562 L 612 234.601562 L 612 255 L 0 255 Z M 0 234.601562 " style=" stroke:none;fill-rule:nonzero;fill:rgb(96.078431%,68.235294%,27.058824%);fill-opacity:1;" />
<path d="M 30.601562 244.800781 L 581.398438 244.800781 L 581.398438 530.398438 L 30.601562 530.398438 Z M 30.601562 244.800781 " style=" stroke:none;fill-rule:nonzero;fill:rgb(96.078431%,68.235294%,27.058824%);fill-opacity:1;" />
<path d="M 0 326.398438 L 612 326.398438 L 612 346.800781 L 0 346.800781 Z M 0 326.398438 " style=" stroke:none;fill-rule:nonzero;fill:rgb(96.078431%,68.235294%,27.058824%);fill-opacity:1;" />
<path d="M 0 418.199219 L 612 418.199219 L 612 438.601562 L 0 438.601562 Z M 0 418.199219 " style=" stroke:none;fill-rule:nonzero;fill:rgb(96.078431%,68.235294%,27.058824%);fill-opacity:1;" />
<path d="M 530.398438 367.199219 L 550.800781 367.199219 L 550.800781 397.800781 L 530.398438 397.800781 Z M 530.398438 367.199219 " style=" stroke:none;fill-rule:nonzero;fill:rgb(90.196078%,54.117647%,0%);fill-opacity:1;" />
<path d="M 489.601562 275.398438 L 510 275.398438 L 510 306 L 489.601562 306 Z M 489.601562 275.398438 " style=" stroke:none;fill-rule:nonzero;fill:rgb(90.196078%,54.117647%,0%);fill-opacity:1;" />
<path d="M 448.800781 275.398438 L 469.199219 275.398438 L 469.199219 306 L 448.800781 306 Z M 448.800781 275.398438 " style=" stroke:none;fill-rule:nonzero;fill:rgb(90.196078%,54.117647%,0%);fill-opacity:1;" />
<path d="M 530.398438 275.398438 L 550.800781 275.398438 L 550.800781 306 L 530.398438 306 Z M 530.398438 275.398438 " style=" stroke:none;fill-rule:nonzero;fill:rgb(90.196078%,54.117647%,0%);fill-opacity:1;" />
<path d="M 489.601562 367.199219 L 510 367.199219 L 510 397.800781 L 489.601562 397.800781 Z M 489.601562 367.199219 " style=" stroke:none;fill-rule:nonzero;fill:rgb(90.196078%,54.117647%,0%);fill-opacity:1;" />
<path d="M 102 275.398438 L 122.398438 275.398438 L 122.398438 306 L 102 306 Z M 102 275.398438 " style=" stroke:none;fill-rule:nonzero;fill:rgb(90.196078%,54.117647%,0%);fill-opacity:1;" />
<path d="M 142.800781 275.398438 L 163.199219 275.398438 L 163.199219 306 L 142.800781 306 Z M 142.800781 275.398438 " style=" stroke:none;fill-rule:nonzero;fill:rgb(90.196078%,54.117647%,0%);fill-opacity:1;" />
<path d="M 61.199219 275.398438 L 81.601562 275.398438 L 81.601562 306 L 61.199219 306 Z M 61.199219 275.398438 " style=" stroke:none;fill-rule:nonzero;fill:rgb(90.196078%,54.117647%,0%);fill-opacity:1;" />
<path d="M 102 367.199219 L 122.398438 367.199219 L 122.398438 397.800781 L 102 397.800781 Z M 102 367.199219 " style=" stroke:none;fill-rule:nonzero;fill:rgb(90.196078%,54.117647%,0%);fill-opacity:1;" />
<path d="M 61.199219 367.199219 L 81.601562 367.199219 L 81.601562 397.800781 L 61.199219 397.800781 Z M 61.199219 367.199219 " style=" stroke:none;fill-rule:nonzero;fill:rgb(90.196078%,54.117647%,0%);fill-opacity:1;" />
<path d="M 224.398438 183.601562 L 244.800781 183.601562 L 244.800781 214.199219 L 224.398438 214.199219 Z M 224.398438 183.601562 " style=" stroke:none;fill-rule:nonzero;fill:rgb(90.196078%,54.117647%,0%);fill-opacity:1;" />
<path d="M 367.199219 183.601562 L 387.601562 183.601562 L 387.601562 214.199219 L 367.199219 214.199219 Z M 367.199219 183.601562 " style=" stroke:none;fill-rule:nonzero;fill:rgb(90.196078%,54.117647%,0%);fill-opacity:1;" />
<path d="M 183.601562 20.398438 L 204 20.398438 L 204 244.800781 L 183.601562 244.800781 Z M 183.601562 20.398438 " style=" stroke:none;fill-rule:nonzero;fill:rgb(96.078431%,68.235294%,27.058824%);fill-opacity:1;" />
<path d="M 408 20.398438 L 428.398438 20.398438 L 428.398438 244.800781 L 408 244.800781 Z M 408 20.398438 " style=" stroke:none;fill-rule:nonzero;fill:rgb(96.078431%,68.235294%,27.058824%);fill-opacity:1;" />
<path d="M 30.601562 255 L 581.398438 255 L 581.398438 275.398438 L 30.601562 275.398438 Z M 30.601562 255 " style=" stroke:none;fill-rule:nonzero;fill:rgb(94.117647%,61.960784%,14.901961%);fill-opacity:1;" />
<path d="M 30.601562 346.800781 L 581.398438 346.800781 L 581.398438 367.199219 L 30.601562 367.199219 Z M 30.601562 346.800781 " style=" stroke:none;fill-rule:nonzero;fill:rgb(94.117647%,61.960784%,14.901961%);fill-opacity:1;" />
<path d="M 30.601562 438.601562 L 581.398438 438.601562 L 581.398438 459 L 30.601562 459 Z M 30.601562 438.601562 " style=" stroke:none;fill-rule:nonzero;fill:rgb(94.117647%,61.960784%,14.901961%);fill-opacity:1;" />
<path d="M 10.199219 530.398438 L 306 193.800781 L 601.800781 530.398438 Z M 10.199219 530.398438 " style=" stroke:none;fill-rule:nonzero;fill:rgb(41.176471%,80%,84.313725%);fill-opacity:1;" />
<path d="M 440.609375 346.972656 L 143.066406 530.398438 L 601.800781 530.398438 Z M 440.609375 346.972656 " style=" stroke:none;fill-rule:nonzero;fill:rgb(38.039216%,74.117647%,78.039216%);fill-opacity:1;" />
<path d="M 549.046875 470.371094 L 509.867188 514.753906 L 472.34375 472.371094 L 511.644531 427.808594 L 498.066406 412.355469 L 458.703125 456.960938 L 421.136719 414.539062 L 460.644531 369.75 L 447.066406 354.316406 L 407.511719 399.195312 L 369.964844 356.796875 L 409.652344 311.78125 L 396.078125 296.328125 L 356.296875 341.402344 L 318.75 299.003906 L 358.632812 253.757812 L 345.058594 238.3125 L 305.15625 283.558594 L 265.976562 239.324219 L 252.402344 254.796875 L 291.558594 299.011719 L 254.09375 341.515625 L 214.957031 297.402344 L 201.390625 312.84375 L 240.496094 356.9375 L 203.308594 399.136719 L 164.132812 355.277344 L 150.554688 370.6875 L 189.722656 414.546875 L 152.226562 457.082031 L 113.132812 413.273438 L 99.566406 428.714844 L 138.640625 472.492188 L 101.523438 514.621094 L 62.34375 471.066406 L 48.777344 486.539062 L 87.945312 530.0625 L 87.605469 530.398438 L 114.789062 530.398438 L 152.316406 487.824219 L 189.984375 530.011719 L 189.648438 530.398438 L 216.851562 530.398438 L 305.347656 430.042969 L 394.15625 530.164062 L 393.953125 530.398438 L 421.15625 530.398438 L 458.734375 487.796875 L 496.257812 530.175781 L 496.054688 530.398438 L 523.257812 530.398438 L 562.609375 485.824219 Z M 203.570312 514.601562 L 165.914062 472.414062 L 203.398438 429.878906 L 241.066406 472.085938 Z M 254.664062 456.675781 L 216.984375 414.464844 L 254.132812 372.300781 L 291.71875 414.660156 Z M 305.296875 399.246094 L 267.730469 356.886719 L 305.183594 314.394531 L 342.71875 356.796875 Z M 356.511719 456.960938 L 318.941406 414.628906 L 356.355469 372.1875 L 393.902344 414.589844 Z M 407.753906 514.722656 L 370.15625 472.363281 L 407.539062 429.980469 L 445.109375 472.402344 Z M 407.753906 514.722656 " style=" stroke:none;fill-rule:nonzero;fill:rgb(34.509804%,67.058824%,70.980392%);fill-opacity:1;" />
<path d="M 408 530.398438 L 357 469.199219 L 255 469.199219 L 204 530.398438 Z M 408 530.398438 " style=" stroke:none;fill-rule:nonzero;fill:rgb(34.509804%,67.058824%,70.980392%);fill-opacity:1;" />
</g>
</svg>