<svg xmlns="http://www.w3.org/2000/svg" height="612pt" version="1.1" viewBox="0 -36 612 612" width="612pt">
<g id="surface1">
<path d="M 183.601562 448.800781 L 428.398438 448.800781 L 428.398438 540.601562 L 183.601562 540.601562 Z M 183.601562 448.800781 " style=" stroke:none;fill-rule:nonzero;fill:rgb(81.568627%,84.313725%,87.45098%);fill-opacity:1;" />
<path d="M 214.199219 224.398438 L 397.800781 224.398438 L 397.800781 275.398438 L 214.199219 275.398438 Z M 214.199219 224.398438 " style=" stroke:none;fill-rule:nonzero;fill:rgb(47.45098%,55.294118%,63.137255%);fill-opacity:1;" />
<path d="M 183.601562 306 L 428.398438 306 L 428.398438 377.398438 L 183.601562 377.398438 Z M 183.601562 306 " style=" stroke:none;fill-rule:nonzero;fill:rgb(81.568627%,84.313725%,87.45098%);fill-opacity:1;" />
<path d="M 183.601562 377.398438 L 428.398438 377.398438 L 428.398438 448.800781 L 183.601562 448.800781 Z M 183.601562 377.398438 " style=" stroke:none;fill-rule:nonzero;fill:rgb(81.568627%,84.313725%,87.45098%);fill-opacity:1;" />
<path d="M 295.800781 418.199219 L 316.199219 418.199219 L 316.199219 448.800781 L 295.800781 448.800781 Z M 295.800781 418.199219 " style=" stroke:none;fill-rule:nonzero;fill:rgb(47.45098%,55.294118%,63.137255%);fill-opacity:1;" />
<path d="M 255 418.199219 L 275.398438 418.199219 L 275.398438 448.800781 L 255 448.800781 Z M 255 418.199219 " style=" stroke:none;fill-rule:nonzero;fill:rgb(47.45098%,55.294118%,63.137255%);fill-opacity:1;" />
<path d="M 214.199219 418.199219 L 234.601562 418.199219 L 234.601562 448.800781 L 214.199219 448.800781 Z M 214.199219 418.199219 " style=" stroke:none;fill-rule:nonzero;fill:rgb(47.45098%,55.294118%,63.137255%);fill-opacity:1;" />
<path d="M 336.601562 418.199219 L 357 418.199219 L 357 448.800781 L 336.601562 448.800781 Z M 336.601562 418.199219 " style=" stroke:none;fill-rule:nonzero;fill:rgb(47.45098%,55.294118%,63.137255%);fill-opacity:1;" />
<path d="M 377.398438 418.199219 L 397.800781 418.199219 L 397.800781 448.800781 L 377.398438 448.800781 Z M 377.398438 418.199219 " style=" stroke:none;fill-rule:nonzero;fill:rgb(47.45098%,55.294118%,63.137255%);fill-opacity:1;" />
<path d="M 295.800781 499.800781 L 316.199219 499.800781 L 316.199219 540.601562 L 295.800781 540.601562 Z M 295.800781 499.800781 " style=" stroke:none;fill-rule:nonzero;fill:rgb(47.45098%,55.294118%,63.137255%);fill-opacity:1;" />
<path d="M 255 499.800781 L 275.398438 499.800781 L 275.398438 540.601562 L 255 540.601562 Z M 255 499.800781 " style=" stroke:none;fill-rule:nonzero;fill:rgb(47.45098%,55.294118%,63.137255%);fill-opacity:1;" />
<path d="M 214.199219 499.800781 L 234.601562 499.800781 L 234.601562 540.601562 L 214.199219 540.601562 Z M 214.199219 499.800781 " style=" stroke:none;fill-rule:nonzero;fill:rgb(47.45098%,55.294118%,63.137255%);fill-opacity:1;" />
<path d="M 336.601562 499.800781 L 357 499.800781 L 357 540.601562 L 336.601562 540.601562 Z M 336.601562 499.800781 " style=" stroke:none;fill-rule:nonzero;fill:rgb(47.45098%,55.294118%,63.137255%);fill-opacity:1;" />
<path d="M 377.398438 499.800781 L 397.800781 499.800781 L 397.800781 540.601562 L 377.398438 540.601562 Z M 377.398438 499.800781 " style=" stroke:none;fill-rule:nonzero;fill:rgb(47.45098%,55.294118%,63.137255%);fill-opacity:1;" />
<path d="M 387.601562 214.199219 L 224.398438 214.199219 L 224.398438 184.230469 C 224.398438 137.253906 259.382812 97.621094 306 91.800781 C 352.617188 97.625 387.601562 137.253906 387.601562 184.230469 Z M 387.601562 214.199219 " style=" stroke:none;fill-rule:nonzero;fill:rgb(64.313725%,69.019608%,74.901961%);fill-opacity:1;" />
<path d="M 295.800781 183.601562 L 316.199219 183.601562 L 316.199219 204 L 295.800781 204 Z M 295.800781 183.601562 " style=" stroke:none;fill-rule:nonzero;fill:rgb(47.45098%,55.294118%,63.137255%);fill-opacity:1;" />
<path d="M 255 183.601562 L 275.398438 183.601562 L 275.398438 204 L 255 204 Z M 255 183.601562 " style=" stroke:none;fill-rule:nonzero;fill:rgb(47.45098%,55.294118%,63.137255%);fill-opacity:1;" />
<path d="M 336.601562 183.601562 L 357 183.601562 L 357 204 L 336.601562 204 Z M 336.601562 183.601562 " style=" stroke:none;fill-rule:nonzero;fill:rgb(47.45098%,55.294118%,63.137255%);fill-opacity:1;" />
<path d="M 285.601562 51 L 326.398438 51 L 326.398438 112.199219 L 285.601562 112.199219 Z M 285.601562 51 " style=" stroke:none;fill-rule:nonzero;fill:rgb(64.313725%,69.019608%,74.901961%);fill-opacity:1;" />
<path d="M 295.800781 0 L 316.199219 0 L 316.199219 51 L 295.800781 51 Z M 295.800781 0 " style=" stroke:none;fill-rule:nonzero;fill:rgb(81.568627%,84.313725%,87.45098%);fill-opacity:1;" />
<path d="M 295.800781 326.398438 L 316.199219 326.398438 L 316.199219 377.398438 L 295.800781 377.398438 Z M 295.800781 326.398438 " style=" stroke:none;fill-rule:nonzero;fill:rgb(47.45098%,55.294118%,63.137255%);fill-opacity:1;" />
<path d="M 255 326.398438 L 275.398438 326.398438 L 275.398438 377.398438 L 255 377.398438 Z M 255 326.398438 " style=" stroke:none;fill-rule:nonzero;fill:rgb(47.45098%,55.294118%,63.137255%);fill-opacity:1;" />
<path d="M 214.199219 326.398438 L 234.601562 326.398438 L 234.601562 377.398438 L 214.199219 377.398438 Z M 214.199219 326.398438 " style=" stroke:none;fill-rule:nonzero;fill:rgb(47.45098%,55.294118%,63.137255%);fill-opacity:1;" />
<path d="M 336.601562 326.398438 L 357 326.398438 L 357 377.398438 L 336.601562 377.398438 Z M 336.601562 326.398438 " style=" stroke:none;fill-rule:nonzero;fill:rgb(47.45098%,55.294118%,63.137255%);fill-opacity:1;" />
<path d="M 377.398438 326.398438 L 397.800781 326.398438 L 397.800781 377.398438 L 377.398438 377.398438 Z M 377.398438 326.398438 " style=" stroke:none;fill-rule:nonzero;fill:rgb(47.45098%,55.294118%,63.137255%);fill-opacity:1;" />
<path d="M 275.398438 316.199219 L 295.800781 316.199219 L 295.800781 377.398438 L 275.398438 377.398438 Z M 275.398438 316.199219 " style=" stroke:none;fill-rule:nonzero;fill:rgb(81.568627%,84.313725%,87.45098%);fill-opacity:1;" />
<path d="M 234.601562 316.199219 L 255 316.199219 L 255 377.398438 L 234.601562 377.398438 Z M 234.601562 316.199219 " style=" stroke:none;fill-rule:nonzero;fill:rgb(81.568627%,84.313725%,87.45098%);fill-opacity:1;" />
<path d="M 316.199219 316.199219 L 336.601562 316.199219 L 336.601562 377.398438 L 316.199219 377.398438 Z M 316.199219 316.199219 " style=" stroke:none;fill-rule:nonzero;fill:rgb(81.568627%,84.313725%,87.45098%);fill-opacity:1;" />
<path d="M 357 316.199219 L 377.398438 316.199219 L 377.398438 377.398438 L 357 377.398438 Z M 357 316.199219 " style=" stroke:none;fill-rule:nonzero;fill:rgb(81.568627%,84.313725%,87.45098%);fill-opacity:1;" />
<path d="M 428.398438 306 L 183.601562 306 L 183.601562 275.398438 L 428.398438 275.398438 Z M 428.398438 306 " style=" stroke:none;fill-rule:nonzero;fill:rgb(76.470588%,78.823529%,81.960784%);fill-opacity:1;" />
<path d="M 214.199219 275.398438 L 397.800781 275.398438 L 397.800781 316.199219 L 214.199219 316.199219 Z M 214.199219 275.398438 " style=" stroke:none;fill-rule:nonzero;fill:rgb(81.568627%,84.313725%,87.45098%);fill-opacity:1;" />
<path d="M 204 204 L 408 204 L 408 224.398438 L 204 224.398438 Z M 204 204 " style=" stroke:none;fill-rule:nonzero;fill:rgb(81.568627%,84.313725%,87.45098%);fill-opacity:1;" />
<path d="M 295.800781 214.199219 L 316.199219 214.199219 L 316.199219 275.398438 L 295.800781 275.398438 Z M 295.800781 214.199219 " style=" stroke:none;fill-rule:nonzero;fill:rgb(81.568627%,84.313725%,87.45098%);fill-opacity:1;" />
<path d="M 336.601562 214.199219 L 357 214.199219 L 357 275.398438 L 336.601562 275.398438 Z M 336.601562 214.199219 " style=" stroke:none;fill-rule:nonzero;fill:rgb(81.568627%,84.313725%,87.45098%);fill-opacity:1;" />
<path d="M 255 214.199219 L 275.398438 214.199219 L 275.398438 275.398438 L 255 275.398438 Z M 255 214.199219 " style=" stroke:none;fill-rule:nonzero;fill:rgb(81.568627%,84.313725%,87.45098%);fill-opacity:1;" />
<path d="M 377.398438 214.199219 L 397.800781 214.199219 L 397.800781 275.398438 L 377.398438 275.398438 Z M 377.398438 214.199219 " style=" stroke:none;fill-rule:nonzero;fill:rgb(81.568627%,84.313725%,87.45098%);fill-opacity:1;" />
<path d="M 214.199219 214.199219 L 234.601562 214.199219 L 234.601562 275.398438 L 214.199219 275.398438 Z M 214.199219 214.199219 " style=" stroke:none;fill-rule:nonzero;fill:rgb(81.568627%,84.313725%,87.45098%);fill-opacity:1;" />
<path d="M 20.398438 448.800781 L 183.601562 448.800781 L 183.601562 530.398438 L 20.398438 530.398438 Z M 20.398438 448.800781 " style=" stroke:none;fill-rule:nonzero;fill:rgb(76.470588%,78.823529%,81.960784%);fill-opacity:1;" />
<path d="M 20.398438 316.199219 L 183.601562 316.199219 L 183.601562 448.800781 L 20.398438 448.800781 Z M 20.398438 316.199219 " style=" stroke:none;fill-rule:nonzero;fill:rgb(76.470588%,78.823529%,81.960784%);fill-opacity:1;" />
<path d="M 132.601562 346.800781 L 153 346.800781 L 153 377.398438 L 132.601562 377.398438 Z M 132.601562 346.800781 " style=" stroke:none;fill-rule:nonzero;fill:rgb(47.45098%,55.294118%,63.137255%);fill-opacity:1;" />
<path d="M 91.800781 346.800781 L 112.199219 346.800781 L 112.199219 377.398438 L 91.800781 377.398438 Z M 91.800781 346.800781 " style=" stroke:none;fill-rule:nonzero;fill:rgb(47.45098%,55.294118%,63.137255%);fill-opacity:1;" />
<path d="M 51 346.800781 L 71.398438 346.800781 L 71.398438 377.398438 L 51 377.398438 Z M 51 346.800781 " style=" stroke:none;fill-rule:nonzero;fill:rgb(47.45098%,55.294118%,63.137255%);fill-opacity:1;" />
<path d="M 132.601562 408 L 153 408 L 153 448.800781 L 132.601562 448.800781 Z M 132.601562 408 " style=" stroke:none;fill-rule:nonzero;fill:rgb(47.45098%,55.294118%,63.137255%);fill-opacity:1;" />
<path d="M 91.800781 408 L 112.199219 408 L 112.199219 448.800781 L 91.800781 448.800781 Z M 91.800781 408 " style=" stroke:none;fill-rule:nonzero;fill:rgb(47.45098%,55.294118%,63.137255%);fill-opacity:1;" />
<path d="M 51 408 L 71.398438 408 L 71.398438 448.800781 L 51 448.800781 Z M 51 408 " style=" stroke:none;fill-rule:nonzero;fill:rgb(47.45098%,55.294118%,63.137255%);fill-opacity:1;" />
<path d="M 81.601562 275.398438 L 122.398438 275.398438 L 122.398438 316.199219 L 81.601562 316.199219 Z M 81.601562 275.398438 " style=" stroke:none;fill-rule:nonzero;fill:rgb(64.313725%,69.019608%,74.901961%);fill-opacity:1;" />
<path d="M 0 306 L 183.601562 306 L 183.601562 326.398438 L 0 326.398438 Z M 0 306 " style=" stroke:none;fill-rule:nonzero;fill:rgb(81.568627%,84.313725%,87.45098%);fill-opacity:1;" />
<path d="M 20.398438 326.398438 L 183.601562 326.398438 L 183.601562 346.800781 L 20.398438 346.800781 Z M 20.398438 326.398438 " style=" stroke:none;fill-rule:nonzero;fill:rgb(72.156863%,74.509804%,76.862745%);fill-opacity:1;" />
<path d="M 71.398438 530.398438 L 183.601562 530.398438 L 183.601562 448.800781 L 112.199219 448.800781 Z M 71.398438 530.398438 " style=" stroke:none;fill-rule:nonzero;fill:rgb(64.313725%,69.019608%,74.901961%);fill-opacity:1;" />
<path d="M 86.699219 499.800781 L 183.601562 499.800781 L 183.601562 479.398438 L 96.898438 479.398438 Z M 86.699219 499.800781 " style=" stroke:none;fill-rule:nonzero;fill:rgb(81.568627%,84.313725%,87.45098%);fill-opacity:1;" />
<path d="M 0 520.199219 L 183.601562 520.199219 L 183.601562 540.601562 L 0 540.601562 Z M 0 520.199219 " style=" stroke:none;fill-rule:nonzero;fill:rgb(81.568627%,84.313725%,87.45098%);fill-opacity:1;" />
<path d="M 20.398438 438.601562 L 183.601562 438.601562 L 183.601562 459 L 20.398438 459 Z M 20.398438 438.601562 " style=" stroke:none;fill-rule:nonzero;fill:rgb(81.568627%,84.313725%,87.45098%);fill-opacity:1;" />
<path d="M 428.398438 448.800781 L 591.601562 448.800781 L 591.601562 530.398438 L 428.398438 530.398438 Z M 428.398438 448.800781 " style=" stroke:none;fill-rule:nonzero;fill:rgb(76.470588%,78.823529%,81.960784%);fill-opacity:1;" />
<path d="M 428.398438 316.199219 L 591.601562 316.199219 L 591.601562 448.800781 L 428.398438 448.800781 Z M 428.398438 316.199219 " style=" stroke:none;fill-rule:nonzero;fill:rgb(76.470588%,78.823529%,81.960784%);fill-opacity:1;" />
<path d="M 459 346.800781 L 479.398438 346.800781 L 479.398438 377.398438 L 459 377.398438 Z M 459 346.800781 " style=" stroke:none;fill-rule:nonzero;fill:rgb(47.45098%,55.294118%,63.137255%);fill-opacity:1;" />
<path d="M 499.800781 346.800781 L 520.199219 346.800781 L 520.199219 377.398438 L 499.800781 377.398438 Z M 499.800781 346.800781 " style=" stroke:none;fill-rule:nonzero;fill:rgb(47.45098%,55.294118%,63.137255%);fill-opacity:1;" />
<path d="M 540.601562 346.800781 L 561 346.800781 L 561 377.398438 L 540.601562 377.398438 Z M 540.601562 346.800781 " style=" stroke:none;fill-rule:nonzero;fill:rgb(47.45098%,55.294118%,63.137255%);fill-opacity:1;" />
<path d="M 459 408 L 479.398438 408 L 479.398438 448.800781 L 459 448.800781 Z M 459 408 " style=" stroke:none;fill-rule:nonzero;fill:rgb(47.45098%,55.294118%,63.137255%);fill-opacity:1;" />
<path d="M 499.800781 408 L 520.199219 408 L 520.199219 448.800781 L 499.800781 448.800781 Z M 499.800781 408 " style=" stroke:none;fill-rule:nonzero;fill:rgb(47.45098%,55.294118%,63.137255%);fill-opacity:1;" />
<path d="M 540.601562 408 L 561 408 L 561 448.800781 L 540.601562 448.800781 Z M 540.601562 408 " style=" stroke:none;fill-rule:nonzero;fill:rgb(47.45098%,55.294118%,63.137255%);fill-opacity:1;" />
<path d="M 489.601562 275.398438 L 530.398438 275.398438 L 530.398438 316.199219 L 489.601562 316.199219 Z M 489.601562 275.398438 " style=" stroke:none;fill-rule:nonzero;fill:rgb(64.313725%,69.019608%,74.901961%);fill-opacity:1;" />
<path d="M 428.398438 306 L 612 306 L 612 326.398438 L 428.398438 326.398438 Z M 428.398438 306 " style=" stroke:none;fill-rule:nonzero;fill:rgb(81.568627%,84.313725%,87.45098%);fill-opacity:1;" />
<path d="M 428.398438 326.398438 L 591.601562 326.398438 L 591.601562 346.800781 L 428.398438 346.800781 Z M 428.398438 326.398438 " style=" stroke:none;fill-rule:nonzero;fill:rgb(72.156863%,74.509804%,76.862745%);fill-opacity:1;" />
<path d="M 540.601562 530.398438 L 428.398438 530.398438 L 428.398438 448.800781 L 499.800781 448.800781 Z M 540.601562 530.398438 " style=" stroke:none;fill-rule:nonzero;fill:rgb(64.313725%,69.019608%,74.901961%);fill-opacity:1;" />
<path d="M 525.300781 499.800781 L 428.398438 499.800781 L 428.398438 479.398438 L 515.101562 479.398438 Z M 525.300781 499.800781 " style=" stroke:none;fill-rule:nonzero;fill:rgb(81.568627%,84.313725%,87.45098%);fill-opacity:1;" />
<path d="M 428.398438 520.199219 L 612 520.199219 L 612 540.601562 L 428.398438 540.601562 Z M 428.398438 520.199219 " style=" stroke:none;fill-rule:nonzero;fill:rgb(81.568627%,84.313725%,87.45098%);fill-opacity:1;" />
<path d="M 428.398438 438.601562 L 591.601562 438.601562 L 591.601562 459 L 428.398438 459 Z M 428.398438 438.601562 " style=" stroke:none;fill-rule:nonzero;fill:rgb(81.568627%,84.313725%,87.45098%);fill-opacity:1;" />
<path d="M 183.601562 397.800781 L 428.398438 397.800781 L 428.398438 418.199219 L 183.601562 418.199219 Z M 183.601562 397.800781 " style=" stroke:none;fill-rule:nonzero;fill:rgb(76.470588%,78.823529%,81.960784%);fill-opacity:1;" />
<path d="M 183.601562 306 L 428.398438 306 L 428.398438 326.398438 L 183.601562 326.398438 Z M 183.601562 306 " style=" stroke:none;fill-rule:nonzero;fill:rgb(76.470588%,78.823529%,81.960784%);fill-opacity:1;" />
<path d="M 183.601562 459 L 428.398438 459 L 428.398438 479.398438 L 183.601562 479.398438 Z M 183.601562 459 " style=" stroke:none;fill-rule:nonzero;fill:rgb(76.470588%,78.823529%,81.960784%);fill-opacity:1;" />
<path d="M 591.601562 459 L 504.898438 459 L 515.101562 479.398438 L 591.601562 479.398438 Z M 591.601562 459 " style=" stroke:none;fill-rule:nonzero;fill:rgb(72.156863%,74.509804%,76.862745%);fill-opacity:1;" />
<path d="M 20.398438 459 L 107.101562 459 L 96.898438 479.398438 L 20.398438 479.398438 Z M 20.398438 459 " style=" stroke:none;fill-rule:nonzero;fill:rgb(72.156863%,74.509804%,76.862745%);fill-opacity:1;" />
</g>
</svg>