<svg xmlns="http://www.w3.org/2000/svg" height="612pt" version="1.1" viewBox="0 0 612 612" width="612pt">
<g id="surface1">
<path d="M 367.199219 601.800781 L 244.800781 601.800781 L 244.800781 204 L 306 81.601562 L 367.199219 204 Z M 367.199219 601.800781 " style=" stroke:none;fill-rule:nonzero;fill:rgb(81.568627%,84.313725%,87.45098%);fill-opacity:1;" />
<path d="M 295.800781 0 L 316.199219 0 L 316.199219 122.398438 L 295.800781 122.398438 Z M 295.800781 0 " style=" stroke:none;fill-rule:nonzero;fill:rgb(81.568627%,84.313725%,87.45098%);fill-opacity:1;" />
<path d="M 275.398438 20.398438 L 336.601562 20.398438 L 336.601562 40.800781 L 275.398438 40.800781 Z M 275.398438 20.398438 " style=" stroke:none;fill-rule:nonzero;fill:rgb(81.568627%,84.313725%,87.45098%);fill-opacity:1;" />
<path d="M 326.398438 265.199219 C 326.398438 276.464844 317.265625 285.601562 306 285.601562 C 294.734375 285.601562 285.601562 276.464844 285.601562 265.199219 C 285.601562 253.933594 294.734375 244.800781 306 244.800781 C 317.265625 244.800781 326.398438 253.933594 326.398438 265.199219 Z M 326.398438 265.199219 " style=" stroke:none;fill-rule:nonzero;fill:rgb(64.313725%,69.019608%,74.901961%);fill-opacity:1;" />
<path d="M 306 469.199219 C 293.496094 475.449219 285.601562 488.230469 285.601562 502.207031 L 285.601562 561 L 326.398438 561 L 326.398438 502.207031 C 326.398438 488.230469 318.503906 475.449219 306 469.199219 Z M 306 469.199219 " style=" stroke:none;fill-rule:nonzero;fill:rgb(29.019608%,61.568627%,85.098039%);fill-opacity:1;" />
<path d="M 285.601562 561 L 326.398438 561 L 326.398438 601.800781 L 285.601562 601.800781 Z M 285.601562 561 " style=" stroke:none;fill-rule:nonzero;fill:rgb(21.176471%,47.058824%,65.098039%);fill-opacity:1;" />
<path d="M 326.398438 506.175781 L 285.601562 561 L 326.398438 561 Z M 326.398438 506.175781 " style=" stroke:none;fill-rule:nonzero;fill:rgb(26.27451%,58.039216%,80%);fill-opacity:1;" />
<path d="M 244.800781 601.800781 L 40.800781 601.800781 L 40.800781 550.800781 C 116.226562 531.929688 175.285156 473.3125 194.726562 398.035156 L 244.800781 204 Z M 244.800781 601.800781 " style=" stroke:none;fill-rule:nonzero;fill:rgb(76.470588%,78.823529%,81.960784%);fill-opacity:1;" />
<path d="M 367.199219 601.800781 L 571.199219 601.800781 L 571.199219 550.800781 C 495.773438 531.929688 436.714844 473.3125 417.273438 398.035156 L 367.199219 204 Z M 367.199219 601.800781 " style=" stroke:none;fill-rule:nonzero;fill:rgb(76.470588%,78.823529%,81.960784%);fill-opacity:1;" />
<path d="M 193.800781 336.601562 L 214.199219 336.601562 L 214.199219 601.800781 L 193.800781 601.800781 Z M 193.800781 336.601562 " style=" stroke:none;fill-rule:nonzero;fill:rgb(81.568627%,84.313725%,87.45098%);fill-opacity:1;" />
<path d="M 153 448.800781 L 173.398438 448.800781 L 173.398438 601.800781 L 153 601.800781 Z M 153 448.800781 " style=" stroke:none;fill-rule:nonzero;fill:rgb(81.568627%,84.313725%,87.45098%);fill-opacity:1;" />
<path d="M 112.199219 499.800781 L 132.601562 499.800781 L 132.601562 601.800781 L 112.199219 601.800781 Z M 112.199219 499.800781 " style=" stroke:none;fill-rule:nonzero;fill:rgb(81.568627%,84.313725%,87.45098%);fill-opacity:1;" />
<path d="M 71.398438 530.398438 L 91.800781 530.398438 L 91.800781 601.800781 L 71.398438 601.800781 Z M 71.398438 530.398438 " style=" stroke:none;fill-rule:nonzero;fill:rgb(81.568627%,84.313725%,87.45098%);fill-opacity:1;" />
<path d="M 397.800781 336.601562 L 418.199219 336.601562 L 418.199219 601.800781 L 397.800781 601.800781 Z M 397.800781 336.601562 " style=" stroke:none;fill-rule:nonzero;fill:rgb(81.568627%,84.313725%,87.45098%);fill-opacity:1;" />
<path d="M 438.601562 448.800781 L 459 448.800781 L 459 601.800781 L 438.601562 601.800781 Z M 438.601562 448.800781 " style=" stroke:none;fill-rule:nonzero;fill:rgb(81.568627%,84.313725%,87.45098%);fill-opacity:1;" />
<path d="M 479.398438 499.800781 L 499.800781 499.800781 L 499.800781 601.800781 L 479.398438 601.800781 Z M 479.398438 499.800781 " style=" stroke:none;fill-rule:nonzero;fill:rgb(81.568627%,84.313725%,87.45098%);fill-opacity:1;" />
<path d="M 520.199219 530.398438 L 540.601562 530.398438 L 540.601562 601.800781 L 520.199219 601.800781 Z M 520.199219 530.398438 " style=" stroke:none;fill-rule:nonzero;fill:rgb(81.568627%,84.313725%,87.45098%);fill-opacity:1;" />
<path d="M 295.800781 336.601562 L 316.199219 336.601562 L 316.199219 367.199219 L 295.800781 367.199219 Z M 295.800781 336.601562 " style=" stroke:none;fill-rule:nonzero;fill:rgb(47.45098%,55.294118%,63.137255%);fill-opacity:1;" />
<path d="M 295.800781 397.800781 L 316.199219 397.800781 L 316.199219 428.398438 L 295.800781 428.398438 Z M 295.800781 397.800781 " style=" stroke:none;fill-rule:nonzero;fill:rgb(47.45098%,55.294118%,63.137255%);fill-opacity:1;" />
<path d="M 295.800781 183.601562 L 316.199219 183.601562 L 316.199219 214.199219 L 295.800781 214.199219 Z M 295.800781 183.601562 " style=" stroke:none;fill-rule:nonzero;fill:rgb(47.45098%,55.294118%,63.137255%);fill-opacity:1;" />
<path d="M 0 591.601562 L 612 591.601562 L 612 612 L 0 612 Z M 0 591.601562 " style=" stroke:none;fill-rule:nonzero;fill:rgb(76.470588%,78.823529%,81.960784%);fill-opacity:1;" />
</g>
</svg>