<svg xmlns="http://www.w3.org/2000/svg" height="601pt" version="1.1" viewBox="-56 1 601 601.80002" width="601pt">
<g id="surface1">
<path d="M 153.46875 520.371094 L 337.128906 520.371094 L 337.128906 591.796875 L 153.46875 591.796875 Z M 153.46875 520.371094 " style=" stroke:none;fill-rule:nonzero;fill:rgb(96.078431%,68.235294%,27.058824%);fill-opacity:1;" />
<path d="M 133.0625 581.59375 L 357.539062 581.59375 L 357.539062 602 L 133.0625 602 Z M 133.0625 581.59375 " style=" stroke:none;fill-rule:nonzero;fill:rgb(96.078431%,68.235294%,27.058824%);fill-opacity:1;" />
<path d="M 357.539062 520.371094 L 133.0625 520.371094 L 194.28125 275.492188 L 296.316406 275.492188 Z M 357.539062 520.371094 " style=" stroke:none;fill-rule:nonzero;fill:rgb(65.098039%,47.058824%,33.333333%);fill-opacity:1;" />
<path d="M 296.316406 275.492188 L 194.28125 275.492188 L 151.511719 446.59375 L 305.265625 311.285156 Z M 296.316406 275.492188 " style=" stroke:none;fill-rule:nonzero;fill:rgb(60%,43.137255%,31.764706%);fill-opacity:1;" />
<path d="M 306.519531 275.492188 L 184.078125 275.492188 L 192.925781 244.515625 C 200.078125 219.484375 220.046875 200.175781 245.300781 193.863281 C 270.554688 200.175781 290.519531 219.484375 297.675781 244.515625 Z M 306.519531 275.492188 " style=" stroke:none;fill-rule:nonzero;fill:rgb(60%,43.137255%,31.764706%);fill-opacity:1;" />
<path d="M 224.894531 550.984375 L 265.707031 550.984375 L 265.707031 602 L 224.894531 602 Z M 224.894531 550.984375 " style=" stroke:none;fill-rule:nonzero;fill:rgb(52.156863%,34.117647%,22.352941%);fill-opacity:1;" />
<path d="M 235.097656 448.949219 L 255.503906 448.949219 L 255.503906 479.558594 L 235.097656 479.558594 Z M 235.097656 448.949219 " style=" stroke:none;fill-rule:nonzero;fill:rgb(52.156863%,34.117647%,22.352941%);fill-opacity:1;" />
<path d="M 235.097656 387.730469 L 255.503906 387.730469 L 255.503906 418.339844 L 235.097656 418.339844 Z M 235.097656 387.730469 " style=" stroke:none;fill-rule:nonzero;fill:rgb(52.156863%,34.117647%,22.352941%);fill-opacity:1;" />
<path d="M 490.179688 58.128906 L 460.5 29.058594 L 297.246094 188.914062 L 326.925781 217.984375 Z M 490.179688 58.128906 " style=" stroke:none;fill-rule:nonzero;fill:rgb(67.843137%,49.803922%,36.078431%);fill-opacity:1;" />
<path d="M 430.816406 0 L 267.5625 159.855469 L 297.246094 188.914062 L 460.5 29.058594 Z M 430.816406 0 " style=" stroke:none;fill-rule:nonzero;fill:rgb(67.843137%,49.803922%,36.078431%);fill-opacity:1;" />
<path d="M 171.089844 254.308594 L 7.835938 414.164062 L 37.519531 443.226562 L 200.773438 283.378906 Z M 171.089844 254.308594 " style=" stroke:none;fill-rule:nonzero;fill:rgb(67.843137%,49.803922%,36.078431%);fill-opacity:1;" />
<path d="M 37.519531 443.226562 L 67.199219 472.292969 L 230.453125 312.4375 L 200.773438 283.378906 Z M 37.519531 443.226562 " style=" stroke:none;fill-rule:nonzero;fill:rgb(67.843137%,49.803922%,36.078431%);fill-opacity:1;" />
<path d="M 0.417969 58.128906 L 163.671875 217.984375 L 193.355469 188.914062 L 30.101562 29.058594 Z M 0.417969 58.128906 " style=" stroke:none;fill-rule:nonzero;fill:rgb(67.843137%,49.803922%,36.078431%);fill-opacity:1;" />
<path d="M 59.78125 0 L 30.101562 29.058594 L 193.355469 188.914062 L 223.035156 159.855469 Z M 59.78125 0 " style=" stroke:none;fill-rule:nonzero;fill:rgb(67.843137%,49.803922%,36.078431%);fill-opacity:1;" />
<path d="M 490.179688 421.429688 L 326.925781 261.574219 L 297.246094 290.644531 L 460.5 450.488281 L 297.246094 290.644531 L 297.132812 290.746094 L 460.039062 450.9375 Z M 490.179688 421.429688 " style=" stroke:none;fill-rule:nonzero;fill:rgb(67.843137%,49.803922%,36.078431%);fill-opacity:1;" />
<path d="M 297.132812 290.746094 L 267.5625 319.703125 L 430.816406 479.558594 L 460.039062 450.9375 Z M 297.132812 290.746094 " style=" stroke:none;fill-rule:nonzero;fill:rgb(67.843137%,49.803922%,36.078431%);fill-opacity:1;" />
<path d="M 238.136719 232.457031 L 453.363281 21.78125 L 467.644531 36.371094 L 252.417969 247.046875 Z M 238.136719 232.457031 " style=" stroke:none;fill-rule:nonzero;fill:rgb(52.156863%,34.117647%,22.352941%);fill-opacity:1;" />
<path d="M 22.957031 36.359375 L 37.238281 21.773438 L 252.433594 232.480469 L 238.152344 247.070312 Z M 22.957031 36.359375 " style=" stroke:none;fill-rule:nonzero;fill:rgb(52.156863%,34.117647%,22.352941%);fill-opacity:1;" />
<path d="M 238.144531 247.078125 L 252.429688 232.488281 L 467.625 443.199219 L 453.34375 457.785156 Z M 238.144531 247.078125 " style=" stroke:none;fill-rule:nonzero;fill:rgb(52.156863%,34.117647%,22.352941%);fill-opacity:1;" />
<path d="M 30.355469 435.902344 L 245.582031 225.226562 L 259.863281 239.816406 L 44.636719 450.492188 Z M 30.355469 435.902344 " style=" stroke:none;fill-rule:nonzero;fill:rgb(52.156863%,34.117647%,22.352941%);fill-opacity:1;" />
<path d="M 153.46875 520.371094 L 337.128906 520.371094 L 337.128906 540.78125 L 153.46875 540.78125 Z M 153.46875 520.371094 " style=" stroke:none;fill-rule:nonzero;fill:rgb(94.117647%,61.960784%,14.901961%);fill-opacity:1;" />
</g>
</svg>