<svg xmlns="http://www.w3.org/2000/svg" height="601pt" version="1.1" viewBox="-5 1 601 601.8" width="601pt">
<g id="surface1">
<path d="M 407.609375 581.59375 L 398.332031 479.558594 L 194.265625 479.558594 L 184.992188 581.59375 L 153.453125 581.59375 L 153.453125 602 L 439.148438 602 L 439.148438 581.59375 Z M 407.609375 581.59375 " style=" stroke:none;fill-rule:nonzero;fill:rgb(67.843137%,49.803922%,36.078431%);fill-opacity:1;" />
<path d="M 398.332031 479.558594 L 347.316406 479.558594 L 224.875 602 L 439.148438 602 L 439.148438 581.59375 L 407.609375 581.59375 Z M 398.332031 479.558594 " style=" stroke:none;fill-rule:nonzero;fill:rgb(65.098039%,47.058824%,33.333333%);fill-opacity:1;" />
<path d="M 296.300781 0 C 330.109375 0 357.519531 27.410156 357.519531 61.21875 L 357.519531 142.847656 L 235.078125 142.847656 L 235.078125 61.21875 C 235.078125 27.410156 262.488281 0 296.300781 0 Z M 296.300781 0 " style=" stroke:none;fill-rule:nonzero;fill:rgb(81.568627%,84.313725%,87.45098%);fill-opacity:1;" />
<path d="M 214.671875 244.882812 L 82.027344 244.882812 L 20.808594 142.847656 L 214.671875 142.847656 Z M 214.671875 244.882812 " style=" stroke:none;fill-rule:nonzero;fill:rgb(76.470588%,78.823529%,81.960784%);fill-opacity:1;" />
<path d="M 63.664062 214.269531 L 82.027344 244.882812 L 214.671875 244.882812 L 214.671875 214.269531 Z M 63.664062 214.269531 " style=" stroke:none;fill-rule:nonzero;fill:rgb(64.313725%,69.019608%,74.901961%);fill-opacity:1;" />
<path d="M 377.925781 244.882812 L 510.570312 244.882812 L 571.792969 142.847656 L 377.925781 142.847656 Z M 377.925781 244.882812 " style=" stroke:none;fill-rule:nonzero;fill:rgb(76.470588%,78.823529%,81.960784%);fill-opacity:1;" />
<path d="M 377.925781 214.269531 L 377.925781 244.882812 L 510.570312 244.882812 L 528.9375 214.269531 Z M 377.925781 214.269531 " style=" stroke:none;fill-rule:nonzero;fill:rgb(64.313725%,69.019608%,74.901961%);fill-opacity:1;" />
<path d="M 214.671875 142.847656 L 377.925781 142.847656 L 377.925781 479.558594 L 214.671875 479.558594 Z M 214.671875 142.847656 " style=" stroke:none;fill-rule:nonzero;fill:rgb(76.470588%,78.823529%,81.960784%);fill-opacity:1;" />
<path d="M 265.691406 71.421875 L 326.910156 71.421875 L 326.910156 142.847656 L 265.691406 142.847656 Z M 265.691406 71.421875 " style=" stroke:none;fill-rule:nonzero;fill:rgb(76.470588%,78.823529%,81.960784%);fill-opacity:1;" />
<path d="M 265.691406 71.421875 L 265.691406 108.359375 C 280.179688 125.265625 305.628906 127.226562 322.535156 112.738281 C 324.101562 111.390625 325.566406 109.929688 326.910156 108.359375 L 326.910156 71.421875 Z M 265.691406 71.421875 " style=" stroke:none;fill-rule:nonzero;fill:rgb(64.313725%,69.019608%,74.901961%);fill-opacity:1;" />
<path d="M 377.925781 142.847656 L 373.558594 150.121094 C 357.273438 177.261719 327.949219 193.863281 296.300781 193.863281 C 264.652344 193.863281 235.324219 177.257812 219.039062 150.121094 L 214.671875 142.847656 L 153.453125 142.847656 L 172.675781 174.886719 C 198.730469 218.308594 245.660156 244.878906 296.300781 244.882812 C 346.941406 244.878906 393.871094 218.308594 419.925781 174.886719 L 439.148438 142.847656 Z M 377.925781 142.847656 " style=" stroke:none;fill-rule:nonzero;fill:rgb(81.568627%,84.313725%,87.45098%);fill-opacity:1;" />
<path d="M 0.402344 142.847656 L 0.402344 183.660156 L 45.296875 183.660156 L 20.808594 142.847656 Z M 0.402344 142.847656 " style=" stroke:none;fill-rule:nonzero;fill:rgb(81.568627%,84.313725%,87.45098%);fill-opacity:1;" />
<path d="M 592.199219 142.847656 L 592.199219 183.660156 L 547.304688 183.660156 L 571.792969 142.847656 Z M 592.199219 142.847656 " style=" stroke:none;fill-rule:nonzero;fill:rgb(81.568627%,84.313725%,87.45098%);fill-opacity:1;" />
<path d="M 286.097656 367.320312 L 306.503906 367.320312 L 306.503906 479.558594 L 286.097656 479.558594 Z M 286.097656 367.320312 " style=" stroke:none;fill-rule:nonzero;fill:rgb(64.313725%,69.019608%,74.901961%);fill-opacity:1;" />
<path d="M 245.28125 336.710938 L 265.691406 336.710938 L 265.691406 479.558594 L 245.28125 479.558594 Z M 245.28125 336.710938 " style=" stroke:none;fill-rule:nonzero;fill:rgb(64.313725%,69.019608%,74.901961%);fill-opacity:1;" />
<path d="M 326.910156 397.933594 L 347.316406 397.933594 L 347.316406 479.558594 L 326.910156 479.558594 Z M 326.910156 397.933594 " style=" stroke:none;fill-rule:nonzero;fill:rgb(64.313725%,69.019608%,74.901961%);fill-opacity:1;" />
<path d="M 150.910156 249.984375 C 147.328125 249.984375 144.003906 248.109375 142.15625 245.035156 L 86.886719 153.203125 C 83.980469 148.375 85.539062 142.105469 90.371094 139.199219 C 95.199219 136.296875 101.46875 137.855469 104.375 142.683594 L 159.644531 234.515625 C 162.550781 239.339844 160.996094 245.613281 156.167969 248.519531 C 154.582031 249.476562 152.765625 249.980469 150.910156 249.984375 Z M 150.910156 249.984375 " style=" stroke:none;fill-rule:nonzero;fill:rgb(81.568627%,84.313725%,87.45098%);fill-opacity:1;" />
<path d="M 441.6875 249.984375 C 439.847656 249.988281 438.039062 249.488281 436.464844 248.535156 C 431.632812 245.644531 430.054688 239.378906 432.945312 234.546875 L 487.359375 143.5625 C 490.261719 138.726562 496.535156 137.15625 501.375 140.058594 C 506.210938 142.960938 507.78125 149.234375 504.878906 154.070312 L 450.453125 245.046875 C 448.601562 248.117188 445.273438 249.992188 441.6875 249.984375 Z M 441.6875 249.984375 " style=" stroke:none;fill-rule:nonzero;fill:rgb(81.568627%,84.313725%,87.45098%);fill-opacity:1;" />
<path d="M 377.925781 357.117188 C 376.628906 357.117188 375.34375 356.867188 374.140625 356.382812 L 359.449219 350.507812 C 300.582031 326.886719 248.265625 289.441406 206.929688 241.332031 C 203.15625 237.144531 203.488281 230.695312 207.675781 226.921875 C 211.859375 223.148438 218.3125 223.480469 222.085938 227.667969 C 222.203125 227.796875 222.316406 227.929688 222.425781 228.066406 C 261.613281 273.675781 311.210938 309.171875 367.019531 331.558594 L 381.710938 337.4375 C 386.945312 339.523438 389.5 345.457031 387.414062 350.691406 C 385.867188 354.574219 382.109375 357.121094 377.925781 357.117188 Z M 377.925781 357.117188 " style=" stroke:none;fill-rule:nonzero;fill:rgb(81.568627%,84.313725%,87.45098%);fill-opacity:1;" />
<path d="M 377.925781 418.339844 C 376.625 418.339844 375.339844 418.089844 374.132812 417.605469 L 359.4375 411.726562 C 300.570312 388.117188 248.257812 350.667969 206.929688 302.550781 C 203.429688 298.136719 204.167969 291.71875 208.582031 288.214844 C 212.765625 284.902344 218.796875 285.367188 222.417969 289.285156 C 261.601562 334.921875 311.207031 370.4375 367.03125 392.832031 L 381.722656 398.71875 C 386.925781 400.886719 389.386719 406.859375 387.21875 412.0625 C 385.652344 415.820312 382 418.289062 377.925781 418.339844 Z M 377.925781 418.339844 " style=" stroke:none;fill-rule:nonzero;fill:rgb(81.568627%,84.313725%,87.45098%);fill-opacity:1;" />
<path d="M 296.300781 0 C 318.839844 0 337.113281 18.273438 337.113281 40.8125 L 337.113281 61.21875 C 337.113281 83.761719 318.839844 102.035156 296.300781 102.035156 C 273.757812 102.035156 255.488281 83.761719 255.488281 61.21875 L 255.488281 40.8125 C 255.488281 18.273438 273.757812 0 296.300781 0 Z M 296.300781 0 " style=" stroke:none;fill-rule:nonzero;fill:rgb(76.470588%,78.823529%,81.960784%);fill-opacity:1;" />
<path d="M 265.691406 87.953125 C 280.179688 104.859375 305.628906 106.820312 322.535156 92.328125 C 324.101562 90.984375 325.566406 89.523438 326.910156 87.953125 C 326.902344 78.828125 319.507812 71.429688 310.378906 71.421875 L 282.21875 71.421875 C 273.09375 71.429688 265.695312 78.828125 265.691406 87.953125 Z M 265.691406 87.953125 " style=" stroke:none;fill-rule:nonzero;fill:rgb(81.568627%,84.313725%,87.45098%);fill-opacity:1;" />
<path d="M 377.925781 295.898438 L 316.707031 265.289062 L 316.707031 142.847656 L 377.925781 142.847656 Z M 377.925781 295.898438 " style=" stroke:none;fill-rule:nonzero;fill:rgb(81.568627%,84.313725%,87.45098%);fill-opacity:1;" />
<path d="M 316.707031 316.304688 L 377.925781 295.898438 L 316.707031 265.289062 Z M 316.707031 316.304688 " style=" stroke:none;fill-rule:nonzero;fill:rgb(83.921569%,83.921569%,83.921569%);fill-opacity:1;" />
<path d="M 398.332031 142.847656 L 377.925781 142.847656 L 377.925781 219.464844 C 385.242188 214.378906 392.074219 208.628906 398.332031 202.292969 Z M 398.332031 142.847656 " style=" stroke:none;fill-rule:nonzero;fill:rgb(83.921569%,83.921569%,83.921569%);fill-opacity:1;" />
<path d="M 398.332031 479.558594 L 368.652344 479.558594 L 368.652344 581.59375 L 407.609375 581.59375 Z M 398.332031 479.558594 " style=" stroke:none;fill-rule:nonzero;fill:rgb(60%,43.137255%,31.764706%);fill-opacity:1;" />
</g>
</svg>