<svg xmlns="http://www.w3.org/2000/svg" height="612pt" version="1.1" viewBox="-71 0 612 612" width="612pt">
<g id="surface1">
<path d="M 183.601562 102 L 285.601562 102 L 285.601562 540.601562 L 183.601562 540.601562 Z M 183.601562 102 " style=" stroke:none;fill-rule:nonzero;fill:rgb(24.313725%,53.72549%,74.117647%);fill-opacity:1;" />
<path d="M 163.199219 153 L 204 153 L 204 540.601562 L 163.199219 540.601562 Z M 163.199219 153 " style=" stroke:none;fill-rule:nonzero;fill:rgb(26.27451%,58.039216%,80%);fill-opacity:1;" />
<path d="M 265.199219 153 L 306 153 L 306 540.601562 L 265.199219 540.601562 Z M 265.199219 153 " style=" stroke:none;fill-rule:nonzero;fill:rgb(26.27451%,58.039216%,80%);fill-opacity:1;" />
<path d="M 244.800781 51 L 255 71.398438 L 255 102 L 214.199219 102 L 214.199219 71.398438 L 224.398438 51 Z M 244.800781 51 " style=" stroke:none;fill-rule:nonzero;fill:rgb(26.27451%,58.039216%,80%);fill-opacity:1;" />
<path d="M 224.398438 0 L 244.800781 0 L 244.800781 51 L 224.398438 51 Z M 224.398438 0 " style=" stroke:none;fill-rule:nonzero;fill:rgb(26.27451%,58.039216%,80%);fill-opacity:1;" />
<path d="M 204 408 L 265.199219 408 L 265.199219 540.601562 L 204 540.601562 Z M 204 408 " style=" stroke:none;fill-rule:nonzero;fill:rgb(29.019608%,61.568627%,85.098039%);fill-opacity:1;" />
<path d="M 142.800781 448.800781 L 204 448.800781 L 204 540.601562 L 142.800781 540.601562 Z M 142.800781 448.800781 " style=" stroke:none;fill-rule:nonzero;fill:rgb(26.27451%,58.039216%,80%);fill-opacity:1;" />
<path d="M 102 489.601562 L 142.800781 489.601562 L 142.800781 540.601562 L 102 540.601562 Z M 102 489.601562 " style=" stroke:none;fill-rule:nonzero;fill:rgb(24.313725%,53.72549%,74.117647%);fill-opacity:1;" />
<path d="M 265.199219 448.800781 L 326.398438 448.800781 L 326.398438 540.601562 L 265.199219 540.601562 Z M 265.199219 448.800781 " style=" stroke:none;fill-rule:nonzero;fill:rgb(26.27451%,58.039216%,80%);fill-opacity:1;" />
<path d="M 326.398438 489.601562 L 367.199219 489.601562 L 367.199219 540.601562 L 326.398438 540.601562 Z M 326.398438 489.601562 " style=" stroke:none;fill-rule:nonzero;fill:rgb(24.313725%,53.72549%,74.117647%);fill-opacity:1;" />
<path d="M 438.601562 591.601562 L 438.601562 540.601562 L 30.601562 540.601562 L 30.601562 591.601562 L 0 591.601562 L 0 612 L 469.199219 612 L 469.199219 591.601562 Z M 438.601562 591.601562 " style=" stroke:none;fill-rule:nonzero;fill:rgb(26.27451%,58.039216%,80%);fill-opacity:1;" />
<path d="M 193.800781 612 L 153 612 L 153 540.601562 C 165.839844 534.175781 180.960938 534.175781 193.800781 540.601562 Z M 193.800781 612 " style=" stroke:none;fill-rule:nonzero;fill:rgb(29.019608%,61.568627%,85.098039%);fill-opacity:1;" />
<path d="M 316.199219 612 L 275.398438 612 L 275.398438 540.601562 C 288.242188 534.175781 303.359375 534.175781 316.199219 540.601562 Z M 316.199219 612 " style=" stroke:none;fill-rule:nonzero;fill:rgb(29.019608%,61.568627%,85.098039%);fill-opacity:1;" />
</g>
</svg>