<svg xmlns="http://www.w3.org/2000/svg" height="612pt" version="1.1" viewBox="-143 0 612 612" width="612pt">
<g id="surface1">
<path d="M 183.601562 183.601562 L 183.601562 204 L 247.1875 204 L 204 275.398438 L 221.492188 285.894531 L 270.972656 204 L 295.800781 204 L 295.800781 183.601562 Z M 183.601562 183.601562 " style=" stroke:none;fill-rule:nonzero;fill:rgb(64.313725%,69.019608%,74.901961%);fill-opacity:1;" />
<path d="M 268.496094 591.601562 C 324.402344 416.136719 267.738281 224.316406 125.460938 107.394531 L 81.601562 71.398438 L 51 48.449219 L 51 0 L 30.601562 0 L 30.601562 591.601562 L 0 591.601562 L 0 612 L 326.398438 612 L 326.398438 591.601562 Z M 217.097656 591.601562 L 81.601562 591.601562 L 81.601562 112.199219 L 115.261719 149.082031 C 224.308594 268.601562 262.933594 436.4375 217.097656 591.601562 Z M 217.097656 591.601562 " style=" stroke:none;fill-rule:nonzero;fill:rgb(81.568627%,84.313725%,87.45098%);fill-opacity:1;" />
<path d="M 81.601562 183.601562 L 81.601562 591.601562 L 217.097656 591.601562 C 258.371094 451.613281 231.101562 300.359375 143.546875 183.601562 Z M 81.601562 183.601562 " style=" stroke:none;fill-rule:nonzero;fill:rgb(29.019608%,61.568627%,85.098039%);fill-opacity:1;" />
<path d="M 121.503906 469.199219 L 81.601562 489.601562 L 235.121094 489.601562 C 235.546875 482.796875 235.773438 476.003906 235.894531 469.199219 Z M 121.503906 469.199219 " style=" stroke:none;fill-rule:nonzero;fill:rgb(24.313725%,53.72549%,74.117647%);fill-opacity:1;" />
<path d="M 233.578125 510 L 81.601562 510 L 81.601562 530.398438 L 230.132812 530.398438 L 233.519531 510.214844 Z M 233.578125 510 " style=" stroke:none;fill-rule:nonzero;fill:rgb(24.313725%,53.72549%,74.117647%);fill-opacity:1;" />
<path d="M 81.601562 346.800781 L 81.601562 367.199219 L 226.441406 367.199219 C 225.023438 360.355469 223.378906 353.574219 221.625 346.800781 Z M 81.601562 346.800781 " style=" stroke:none;fill-rule:nonzero;fill:rgb(24.313725%,53.72549%,74.117647%);fill-opacity:1;" />
<path d="M 232.90625 408 C 232.121094 401.175781 231.304688 394.371094 230.222656 387.601562 L 81.601562 387.601562 L 81.601562 408 L 194.699219 408 L 230.519531 389.292969 C 231.539062 395.496094 232.214844 401.746094 232.90625 408 Z M 232.90625 408 " style=" stroke:none;fill-rule:nonzero;fill:rgb(24.313725%,53.72549%,74.117647%);fill-opacity:1;" />
<path d="M 81.601562 224.398438 L 81.601562 244.800781 L 182.46875 244.800781 C 178.835938 237.925781 175.105469 231.101562 171.105469 224.398438 Z M 81.601562 224.398438 " style=" stroke:none;fill-rule:nonzero;fill:rgb(24.313725%,53.72549%,74.117647%);fill-opacity:1;" />
<path d="M 187.8125 285.601562 L 201.472656 285.601562 C 198.65625 278.726562 195.65625 271.941406 192.503906 265.199219 C 194.433594 269.199219 196.421875 273.164062 198.175781 277.226562 Z M 187.8125 285.601562 " style=" stroke:none;fill-rule:nonzero;fill:rgb(24.313725%,53.72549%,74.117647%);fill-opacity:1;" />
<path d="M 81.601562 265.199219 L 81.601562 285.601562 L 155.386719 285.601562 L 180.582031 265.199219 Z M 81.601562 265.199219 " style=" stroke:none;fill-rule:nonzero;fill:rgb(24.313725%,53.72549%,74.117647%);fill-opacity:1;" />
<path d="M 209.445312 306 L 81.601562 306 L 81.601562 326.398438 L 216.035156 326.398438 C 213.953125 319.566406 211.84375 312.742188 209.445312 306 Z M 209.445312 306 " style=" stroke:none;fill-rule:nonzero;fill:rgb(24.313725%,53.72549%,74.117647%);fill-opacity:1;" />
<path d="M 160.597656 448.800781 L 235.96875 448.800781 C 235.792969 441.984375 235.363281 435.191406 234.886719 428.398438 L 199.707031 428.398438 Z M 160.597656 448.800781 " style=" stroke:none;fill-rule:nonzero;fill:rgb(24.313725%,53.72549%,74.117647%);fill-opacity:1;" />
<path d="M 81.601562 428.398438 L 81.601562 448.800781 L 116.492188 448.800781 L 155.601562 428.398438 Z M 81.601562 428.398438 " style=" stroke:none;fill-rule:nonzero;fill:rgb(24.313725%,53.72549%,74.117647%);fill-opacity:1;" />
<path d="M 81.601562 550.800781 L 81.601562 571.199219 L 222.820312 571.199219 C 224.480469 564.425781 225.808594 557.613281 227.164062 550.800781 Z M 81.601562 550.800781 " style=" stroke:none;fill-rule:nonzero;fill:rgb(24.313725%,53.72549%,74.117647%);fill-opacity:1;" />
<path d="M 81.601562 183.601562 L 81.601562 204 L 158.101562 204 C 153.46875 197.074219 148.59375 190.300781 143.574219 183.601562 Z M 81.601562 183.601562 " style=" stroke:none;fill-rule:nonzero;fill:rgb(24.313725%,53.72549%,74.117647%);fill-opacity:1;" />
<path d="M 189.199219 258.222656 L 81.601562 345.332031 L 81.601562 371.585938 L 198.15625 277.226562 C 195.382812 270.808594 192.269531 264.527344 189.199219 258.222656 Z M 189.199219 258.222656 " style=" stroke:none;fill-rule:nonzero;fill:rgb(24.313725%,53.72549%,74.117647%);fill-opacity:1;" />
<path d="M 230.519531 389.292969 L 81.601562 467.007812 L 81.601562 490.019531 L 233.273438 410.886719 C 232.476562 403.664062 231.683594 396.453125 230.519531 389.292969 Z M 230.519531 389.292969 " style=" stroke:none;fill-rule:nonzero;fill:rgb(24.313725%,53.72549%,74.117647%);fill-opacity:1;" />
<path d="M 81.601562 589.742188 L 81.601562 591.601562 L 122.023438 591.601562 L 230.03125 535.121094 C 231.378906 526.859375 232.621094 518.578125 233.507812 510.296875 Z M 81.601562 589.742188 " style=" stroke:none;fill-rule:nonzero;fill:rgb(24.313725%,53.72549%,74.117647%);fill-opacity:1;" />
<path d="M 204.273438 489.601562 L 235.121094 489.601562 C 235.546875 482.796875 235.773438 476.003906 235.894531 469.199219 L 205.214844 469.199219 C 205.089844 475.992188 204.703125 482.796875 204.273438 489.601562 Z M 204.273438 489.601562 " style=" stroke:none;fill-rule:nonzero;fill:rgb(21.176471%,47.058824%,65.098039%);fill-opacity:1;" />
<path d="M 233.496094 510.296875 L 233.496094 510 L 202.613281 510 C 201.980469 515.875 201.253906 521.738281 200.398438 527.605469 Z M 233.496094 510.296875 " style=" stroke:none;fill-rule:nonzero;fill:rgb(21.176471%,47.058824%,65.098039%);fill-opacity:1;" />
<path d="M 221.65625 346.800781 L 190.984375 346.800781 C 192.699219 353.601562 194.261719 360.398438 195.675781 367.199219 L 226.441406 367.199219 C 225.054688 360.355469 223.378906 353.574219 221.65625 346.800781 Z M 221.65625 346.800781 " style=" stroke:none;fill-rule:nonzero;fill:rgb(21.176471%,47.058824%,65.098039%);fill-opacity:1;" />
<path d="M 230.246094 387.601562 L 199.574219 387.601562 C 200.460938 393.148438 201.085938 398.738281 201.765625 404.316406 L 230.519531 389.335938 C 230.378906 388.761719 230.335938 388.179688 230.246094 387.601562 Z M 230.246094 387.601562 " style=" stroke:none;fill-rule:nonzero;fill:rgb(21.176471%,47.058824%,65.098039%);fill-opacity:1;" />
<path d="M 171.105469 224.398438 L 140.433594 224.398438 C 144.433594 231.121094 148.277344 237.914062 151.910156 244.800781 L 182.507812 244.800781 C 178.835938 237.925781 175.101562 231.101562 171.105469 224.398438 Z M 171.105469 224.398438 " style=" stroke:none;fill-rule:nonzero;fill:rgb(21.176471%,47.058824%,65.098039%);fill-opacity:1;" />
<path d="M 161.90625 265.199219 C 163.609375 268.863281 165.382812 272.503906 167.003906 276.207031 L 180.539062 265.199219 Z M 161.90625 265.199219 " style=" stroke:none;fill-rule:nonzero;fill:rgb(21.176471%,47.058824%,65.098039%);fill-opacity:1;" />
<path d="M 216.035156 326.398438 C 213.996094 319.566406 211.84375 312.742188 209.445312 306 L 178.675781 306 C 181.070312 312.761719 183.375 319.546875 185.457031 326.398438 Z M 216.035156 326.398438 " style=" stroke:none;fill-rule:nonzero;fill:rgb(21.176471%,47.058824%,65.098039%);fill-opacity:1;" />
<path d="M 235.96875 448.800781 C 235.792969 441.984375 235.363281 435.191406 234.886719 428.398438 L 204.0625 428.398438 C 204.539062 435.191406 204.980469 441.984375 205.152344 448.800781 Z M 235.96875 448.800781 " style=" stroke:none;fill-rule:nonzero;fill:rgb(21.176471%,47.058824%,65.098039%);fill-opacity:1;" />
<path d="M 191.761719 571.199219 L 222.777344 571.199219 C 224.441406 564.425781 225.765625 557.613281 227.121094 550.800781 L 200.050781 550.800781 L 195.890625 552.972656 C 194.648438 559.066406 193.269531 565.140625 191.761719 571.199219 Z M 191.761719 571.199219 " style=" stroke:none;fill-rule:nonzero;fill:rgb(21.176471%,47.058824%,65.098039%);fill-opacity:1;" />
<path d="M 143.546875 183.601562 L 112.945312 183.601562 C 117.964844 190.289062 122.820312 197.085938 127.4375 204 L 158.039062 204 C 153.4375 197.074219 148.5625 190.300781 143.546875 183.601562 Z M 143.546875 183.601562 " style=" stroke:none;fill-rule:nonzero;fill:rgb(21.176471%,47.058824%,65.098039%);fill-opacity:1;" />
<path d="M 30.601562 234.601562 L 81.601562 234.601562 L 81.601562 275.398438 L 30.601562 275.398438 Z M 30.601562 234.601562 " style=" stroke:none;fill-rule:nonzero;fill:rgb(64.313725%,69.019608%,74.901961%);fill-opacity:1;" />
<path d="M 20.398438 214.199219 L 61.199219 214.199219 C 72.46875 214.199219 81.601562 223.332031 81.601562 234.601562 C 81.601562 245.867188 72.46875 255 61.199219 255 L 20.398438 255 C 9.132812 255 0 245.867188 0 234.601562 C 0 223.332031 9.132812 214.199219 20.398438 214.199219 Z M 20.398438 214.199219 " style=" stroke:none;fill-rule:nonzero;fill:rgb(81.568627%,84.313725%,87.45098%);fill-opacity:1;" />
<path d="M 81.601562 371.585938 L 87.015625 367.199219 L 81.601562 367.199219 Z M 81.601562 371.585938 " style=" stroke:none;fill-rule:nonzero;fill:rgb(64.313725%,69.019608%,74.901961%);fill-opacity:1;" />
<path d="M 198.15625 277.226562 C 196.492188 273.390625 194.617188 269.636719 192.800781 265.863281 C 194.625 269.636719 196.492188 273.359375 198.15625 277.226562 Z M 198.15625 277.226562 " style=" stroke:none;fill-rule:nonzero;fill:rgb(64.313725%,69.019608%,74.901961%);fill-opacity:1;" />
<path d="M 174.992188 295.972656 C 172.460938 289.332031 169.828125 282.714844 166.992188 276.203125 L 130.183594 306 L 162.617188 306 Z M 174.992188 295.972656 " style=" stroke:none;fill-rule:nonzero;fill:rgb(64.313725%,69.019608%,74.901961%);fill-opacity:1;" />
<path d="M 197.878906 277.441406 C 196.195312 273.574219 194.574219 269.6875 192.78125 265.863281 C 192.679688 265.640625 192.574219 265.414062 192.464844 265.191406 C 191.351562 262.875 190.3125 260.527344 189.179688 258.214844 L 166.976562 276.195312 C 169.8125 282.722656 172.441406 289.324219 174.972656 295.964844 Z M 197.878906 277.441406 " style=" stroke:none;fill-rule:nonzero;fill:rgb(64.313725%,69.019608%,74.901961%);fill-opacity:1;" />
<path d="M 137.414062 326.398438 L 104.988281 326.398438 L 81.601562 345.332031 L 81.601562 346.800781 L 112.210938 346.800781 Z M 137.414062 326.398438 " style=" stroke:none;fill-rule:nonzero;fill:rgb(64.313725%,69.019608%,74.901961%);fill-opacity:1;" />
<path d="M 81.601562 346.800781 L 81.601562 367.199219 L 87.015625 367.199219 L 112.210938 346.800781 Z M 81.601562 346.800781 " style=" stroke:none;fill-rule:nonzero;fill:rgb(64.313725%,69.019608%,74.901961%);fill-opacity:1;" />
<path d="M 192.78125 265.871094 L 192.484375 265.199219 C 192.597656 265.425781 192.699219 265.648438 192.78125 265.871094 Z M 192.78125 265.871094 " style=" stroke:none;fill-rule:nonzero;fill:rgb(64.313725%,69.019608%,74.901961%);fill-opacity:1;" />
<path d="M 197.878906 277.441406 L 198.144531 277.214844 C 196.480469 273.382812 194.617188 269.628906 192.789062 265.863281 C 194.585938 269.699219 196.207031 273.585938 197.878906 277.441406 Z M 197.878906 277.441406 " style=" stroke:none;fill-rule:nonzero;fill:rgb(64.313725%,69.019608%,74.901961%);fill-opacity:1;" />
<path d="M 162.617188 306 L 130.183594 306 L 104.988281 326.398438 L 137.414062 326.398438 Z M 162.617188 306 " style=" stroke:none;fill-rule:nonzero;fill:rgb(64.313725%,69.019608%,74.901961%);fill-opacity:1;" />
<path d="M 81.601562 490.019531 L 82.40625 489.601562 L 81.601562 489.601562 Z M 81.601562 490.019531 " style=" stroke:none;fill-rule:nonzero;fill:rgb(64.313725%,69.019608%,74.901961%);fill-opacity:1;" />
<path d="M 121.503906 469.199219 L 180.539062 438.386719 L 199.707031 428.398438 L 203.917969 426.195312 C 203.367188 418.886719 202.652344 411.59375 201.765625 404.316406 L 81.601562 467.007812 L 81.601562 489.601562 Z M 121.503906 469.199219 " style=" stroke:none;fill-rule:nonzero;fill:rgb(64.313725%,69.019608%,74.901961%);fill-opacity:1;" />
<path d="M 233.273438 410.886719 C 233.160156 409.917969 233.007812 408.96875 232.90625 408 C 232.773438 406.808594 232.589844 405.621094 232.457031 404.429688 C 231.867188 399.390625 231.242188 394.351562 230.417969 389.335938 L 201.714844 404.316406 C 202.605469 411.585938 203.324219 418.878906 203.867188 426.195312 Z M 233.273438 410.886719 " style=" stroke:none;fill-rule:nonzero;fill:rgb(64.313725%,69.019608%,74.901961%);fill-opacity:1;" />
<path d="M 232.457031 404.441406 C 231.878906 399.339844 231.347656 394.320312 230.550781 389.292969 C 231.347656 394.3125 231.886719 399.371094 232.457031 404.429688 Z M 232.457031 404.441406 " style=" stroke:none;fill-rule:nonzero;fill:rgb(64.313725%,69.019608%,74.901961%);fill-opacity:1;" />
<path d="M 121.503906 469.199219 L 81.601562 489.601562 L 82.40625 489.601562 Z M 121.503906 469.199219 " style=" stroke:none;fill-rule:nonzero;fill:rgb(64.313725%,69.019608%,74.901961%);fill-opacity:1;" />
<path d="M 232.457031 404.429688 C 231.886719 399.328125 231.347656 394.3125 230.550781 389.292969 L 230.46875 389.292969 C 231.242188 394.351562 231.867188 399.390625 232.457031 404.429688 Z M 232.457031 404.429688 " style=" stroke:none;fill-rule:nonzero;fill:rgb(64.313725%,69.019608%,74.901961%);fill-opacity:1;" />
<path d="M 232.90625 408 C 232.773438 406.816406 232.589844 405.632812 232.457031 404.441406 C 232.558594 405.621094 232.773438 406.808594 232.90625 408 Z M 232.90625 408 " style=" stroke:none;fill-rule:nonzero;fill:rgb(64.313725%,69.019608%,74.901961%);fill-opacity:1;" />
<path d="M 199.707031 428.398438 L 180.570312 438.386719 Z M 199.707031 428.398438 " style=" stroke:none;fill-rule:nonzero;fill:rgb(64.313725%,69.019608%,74.901961%);fill-opacity:1;" />
<path d="M 200.054688 530.398438 L 195.066406 530.398438 L 156.058594 550.800781 L 196.308594 550.800781 C 197.65625 544.007812 199.011719 537.214844 200.054688 530.398438 Z M 200.054688 530.398438 " style=" stroke:none;fill-rule:nonzero;fill:rgb(64.313725%,69.019608%,74.901961%);fill-opacity:1;" />
<path d="M 81.601562 589.742188 L 81.601562 591.601562 L 122.023438 591.601562 L 161.039062 571.199219 L 117.054688 571.199219 Z M 81.601562 589.742188 " style=" stroke:none;fill-rule:nonzero;fill:rgb(64.313725%,69.019608%,74.901961%);fill-opacity:1;" />
<path d="M 200.054688 530.398438 C 199.03125 537.214844 197.65625 544.007812 196.308594 550.800781 L 200.054688 550.800781 L 230.03125 535.121094 C 231.378906 526.859375 232.621094 518.578125 233.507812 510.296875 L 230.132812 530.398438 Z M 200.054688 530.398438 " style=" stroke:none;fill-rule:nonzero;fill:rgb(64.313725%,69.019608%,74.901961%);fill-opacity:1;" />
<path d="M 200.398438 527.605469 L 195.0625 530.398438 L 200.050781 530.398438 C 200.183594 529.472656 200.265625 528.542969 200.398438 527.605469 Z M 200.398438 527.605469 " style=" stroke:none;fill-rule:nonzero;fill:rgb(64.313725%,69.019608%,74.901961%);fill-opacity:1;" />
<path d="M 200.054688 530.398438 L 230.132812 530.398438 L 233.5 510.296875 L 200.398438 527.636719 C 200.265625 528.542969 200.183594 529.472656 200.054688 530.398438 Z M 200.054688 530.398438 " style=" stroke:none;fill-rule:nonzero;fill:rgb(64.313725%,69.019608%,74.901961%);fill-opacity:1;" />
<path d="M 196.308594 550.800781 L 156.058594 550.800781 L 117.054688 571.199219 L 161.035156 571.199219 L 195.890625 552.972656 C 196.035156 552.246094 196.164062 551.523438 196.308594 550.800781 Z M 196.308594 550.800781 " style=" stroke:none;fill-rule:nonzero;fill:rgb(64.313725%,69.019608%,74.901961%);fill-opacity:1;" />
<path d="M 195.890625 552.972656 L 200.054688 550.800781 L 196.308594 550.800781 C 196.164062 551.523438 196.035156 552.246094 195.890625 552.972656 Z M 195.890625 552.972656 " style=" stroke:none;fill-rule:nonzero;fill:rgb(64.313725%,69.019608%,74.901961%);fill-opacity:1;" />
</g>
</svg>