<svg xmlns="http://www.w3.org/2000/svg" height="591pt" version="1.1" viewBox="1 -45 591.6 591" width="591pt">
<g id="surface1">
<path d="M 592 133.019531 L 0 133.019531 L 0 102.398438 L 296 0.332031 L 592 102.398438 Z M 592 133.019531 " style=" stroke:none;fill-rule:nonzero;fill:rgb(98.039216%,73.72549%,37.254902%);fill-opacity:1;" />
<path d="M 0 459.640625 L 592 459.640625 L 592 500.46875 L 0 500.46875 Z M 0 459.640625 " style=" stroke:none;fill-rule:nonzero;fill:rgb(96.078431%,68.235294%,27.058824%);fill-opacity:1;" />
<path d="M 224.550781 173.847656 L 265.378906 173.847656 L 265.378906 418.8125 L 224.550781 418.8125 Z M 224.550781 173.847656 " style=" stroke:none;fill-rule:nonzero;fill:rgb(96.078431%,68.235294%,27.058824%);fill-opacity:1;" />
<path d="M 122.484375 173.847656 L 163.308594 173.847656 L 163.308594 418.8125 L 122.484375 418.8125 Z M 122.484375 173.847656 " style=" stroke:none;fill-rule:nonzero;fill:rgb(96.078431%,68.235294%,27.058824%);fill-opacity:1;" />
<path d="M 428.691406 173.847656 L 469.515625 173.847656 L 469.515625 418.8125 L 428.691406 418.8125 Z M 428.691406 173.847656 " style=" stroke:none;fill-rule:nonzero;fill:rgb(96.078431%,68.235294%,27.058824%);fill-opacity:1;" />
<path d="M 530.757812 173.847656 L 571.585938 173.847656 L 571.585938 418.8125 L 530.757812 418.8125 Z M 530.757812 173.847656 " style=" stroke:none;fill-rule:nonzero;fill:rgb(96.078431%,68.235294%,27.058824%);fill-opacity:1;" />
<path d="M 326.621094 173.847656 L 367.449219 173.847656 L 367.449219 418.8125 L 326.621094 418.8125 Z M 326.621094 173.847656 " style=" stroke:none;fill-rule:nonzero;fill:rgb(96.078431%,68.235294%,27.058824%);fill-opacity:1;" />
<path d="M 20.414062 133.019531 L 571.585938 133.019531 L 571.585938 173.847656 L 20.414062 173.847656 Z M 20.414062 133.019531 " style=" stroke:none;fill-rule:nonzero;fill:rgb(96.078431%,68.235294%,27.058824%);fill-opacity:1;" />
<path d="M 20.414062 418.8125 L 571.585938 418.8125 L 571.585938 459.640625 L 20.414062 459.640625 Z M 20.414062 418.8125 " style=" stroke:none;fill-rule:nonzero;fill:rgb(98.039216%,73.72549%,37.254902%);fill-opacity:1;" />
<path d="M 20.414062 173.847656 L 61.242188 173.847656 L 61.242188 418.8125 L 20.414062 418.8125 Z M 20.414062 173.847656 " style=" stroke:none;fill-rule:nonzero;fill:rgb(96.078431%,68.235294%,27.058824%);fill-opacity:1;" />
<path d="M 224.550781 173.847656 L 265.378906 173.847656 L 265.378906 204.46875 L 224.550781 204.46875 Z M 224.550781 173.847656 " style=" stroke:none;fill-rule:nonzero;fill:rgb(90.196078%,54.117647%,0%);fill-opacity:1;" />
<path d="M 122.484375 173.847656 L 163.308594 173.847656 L 163.308594 204.46875 L 122.484375 204.46875 Z M 122.484375 173.847656 " style=" stroke:none;fill-rule:nonzero;fill:rgb(90.196078%,54.117647%,0%);fill-opacity:1;" />
<path d="M 428.691406 173.847656 L 469.515625 173.847656 L 469.515625 204.46875 L 428.691406 204.46875 Z M 428.691406 173.847656 " style=" stroke:none;fill-rule:nonzero;fill:rgb(90.196078%,54.117647%,0%);fill-opacity:1;" />
<path d="M 530.757812 173.847656 L 571.585938 173.847656 L 571.585938 204.46875 L 530.757812 204.46875 Z M 530.757812 173.847656 " style=" stroke:none;fill-rule:nonzero;fill:rgb(90.196078%,54.117647%,0%);fill-opacity:1;" />
<path d="M 326.621094 173.847656 L 367.449219 173.847656 L 367.449219 204.46875 L 326.621094 204.46875 Z M 326.621094 173.847656 " style=" stroke:none;fill-rule:nonzero;fill:rgb(90.196078%,54.117647%,0%);fill-opacity:1;" />
<path d="M 20.414062 173.847656 L 61.242188 173.847656 L 61.242188 204.46875 L 20.414062 204.46875 Z M 20.414062 173.847656 " style=" stroke:none;fill-rule:nonzero;fill:rgb(90.196078%,54.117647%,0%);fill-opacity:1;" />
<path d="M 0 163.640625 L 592 163.640625 L 592 184.054688 L 0 184.054688 Z M 0 163.640625 " style=" stroke:none;fill-rule:nonzero;fill:rgb(98.039216%,73.72549%,37.254902%);fill-opacity:1;" />
<path d="M 20.414062 367.78125 L 61.242188 367.78125 L 61.242188 388.191406 L 20.414062 388.191406 Z M 20.414062 367.78125 " style=" stroke:none;fill-rule:nonzero;fill:rgb(90.196078%,54.117647%,0%);fill-opacity:1;" />
<path d="M 122.484375 367.78125 L 163.308594 367.78125 L 163.308594 388.191406 L 122.484375 388.191406 Z M 122.484375 367.78125 " style=" stroke:none;fill-rule:nonzero;fill:rgb(90.196078%,54.117647%,0%);fill-opacity:1;" />
<path d="M 224.550781 367.78125 L 265.378906 367.78125 L 265.378906 388.191406 L 224.550781 388.191406 Z M 224.550781 367.78125 " style=" stroke:none;fill-rule:nonzero;fill:rgb(90.196078%,54.117647%,0%);fill-opacity:1;" />
<path d="M 326.621094 367.78125 L 367.449219 367.78125 L 367.449219 388.191406 L 326.621094 388.191406 Z M 326.621094 367.78125 " style=" stroke:none;fill-rule:nonzero;fill:rgb(90.196078%,54.117647%,0%);fill-opacity:1;" />
<path d="M 428.691406 367.78125 L 469.515625 367.78125 L 469.515625 388.191406 L 428.691406 388.191406 Z M 428.691406 367.78125 " style=" stroke:none;fill-rule:nonzero;fill:rgb(90.196078%,54.117647%,0%);fill-opacity:1;" />
<path d="M 530.757812 367.78125 L 571.585938 367.78125 L 571.585938 388.191406 L 530.757812 388.191406 Z M 530.757812 367.78125 " style=" stroke:none;fill-rule:nonzero;fill:rgb(90.196078%,54.117647%,0%);fill-opacity:1;" />
<path d="M 251.773438 133.019531 L 592 133.019531 L 592 102.398438 L 386.902344 31.675781 Z M 251.773438 133.019531 " style=" stroke:none;fill-rule:nonzero;fill:rgb(96.078431%,68.235294%,27.058824%);fill-opacity:1;" />
<path d="M 571.585938 418.8125 L 414.257812 418.8125 L 363.578125 459.640625 L 571.585938 459.640625 Z M 571.585938 418.8125 " style=" stroke:none;fill-rule:nonzero;fill:rgb(96.078431%,68.235294%,27.058824%);fill-opacity:1;" />
<path d="M 20.414062 439.226562 L 571.585938 439.226562 L 571.585938 459.640625 L 20.414062 459.640625 Z M 20.414062 439.226562 " style=" stroke:none;fill-rule:nonzero;fill:rgb(94.117647%,61.960784%,14.901961%);fill-opacity:1;" />
<path d="M 0 480.054688 L 592 480.054688 L 592 500.46875 L 0 500.46875 Z M 0 480.054688 " style=" stroke:none;fill-rule:nonzero;fill:rgb(94.117647%,61.960784%,14.901961%);fill-opacity:1;" />
</g>
</svg>