<svg xmlns="http://www.w3.org/2000/svg" height="612pt" version="1.1" viewBox="-122 0 612 612" width="612pt">
<g id="surface1">
<path d="M 163.199219 61.199219 L 204 61.199219 L 204 102 L 163.199219 102 Z M 163.199219 61.199219 " style=" stroke:none;fill-rule:nonzero;fill:rgb(76.470588%,78.823529%,81.960784%);fill-opacity:1;" />
<path d="M 173.398438 0 L 193.800781 0 L 193.800781 61.199219 L 173.398438 61.199219 Z M 173.398438 0 " style=" stroke:none;fill-rule:nonzero;fill:rgb(76.470588%,78.823529%,81.960784%);fill-opacity:1;" />
<path d="M 207.671875 255 L 213.230469 316.199219 L 153.96875 316.199219 L 159.527344 255 L 139.058594 255 L 131.632812 336.601562 L 235.570312 336.601562 L 228.144531 255 Z M 207.671875 255 " style=" stroke:none;fill-rule:nonzero;fill:rgb(92.941176%,35.686275%,10.980392%);fill-opacity:1;" />
<path d="M 179.53125 183.601562 L 221.65625 183.601562 L 219.800781 163.199219 L 147.398438 163.199219 L 145.542969 183.601562 Z M 179.53125 183.601562 " style=" stroke:none;fill-rule:nonzero;fill:rgb(76.470588%,78.823529%,81.960784%);fill-opacity:1;" />
<path d="M 172.511719 112.199219 L 194.6875 112.199219 L 199.328125 163.199219 L 219.800781 163.199219 L 213.3125 91.800781 L 153.886719 91.800781 L 147.398438 163.199219 L 167.871094 163.199219 Z M 172.511719 112.199219 " style=" stroke:none;fill-rule:nonzero;fill:rgb(92.941176%,35.686275%,10.980392%);fill-opacity:1;" />
<path d="M 201.175781 183.601562 L 205.816406 234.601562 L 226.296875 234.601562 L 221.65625 183.601562 Z M 201.175781 183.601562 " style=" stroke:none;fill-rule:nonzero;fill:rgb(76.470588%,78.823529%,81.960784%);fill-opacity:1;" />
<path d="M 190.710938 234.601562 L 140.902344 234.601562 L 139.058594 255 L 228.144531 255 L 226.296875 234.601562 Z M 190.710938 234.601562 " style=" stroke:none;fill-rule:nonzero;fill:rgb(92.941176%,35.686275%,10.980392%);fill-opacity:1;" />
<path d="M 166.023438 183.601562 L 145.542969 183.601562 L 140.902344 234.601562 L 161.382812 234.601562 Z M 166.023438 183.601562 " style=" stroke:none;fill-rule:nonzero;fill:rgb(76.470588%,78.823529%,81.960784%);fill-opacity:1;" />
<path d="M 351.789062 612 L 268.046875 612 L 241.058594 531.011719 C 230.472656 499.28125 196.171875 482.132812 164.4375 492.71875 C 146.359375 498.746094 132.171875 512.933594 126.144531 531.011719 L 99.152344 612 L 15.410156 612 L 115.554688 367.199219 L 251.644531 367.199219 Z M 282.753906 591.601562 L 321.410156 591.601562 L 237.957031 387.601562 L 129.242188 387.601562 L 45.789062 591.601562 L 84.445312 591.601562 L 106.804688 524.554688 C 120.9375 482.140625 166.777344 459.214844 209.191406 473.347656 C 233.367188 481.40625 252.339844 500.378906 260.394531 524.554688 Z M 282.753906 591.601562 " style=" stroke:none;fill-rule:nonzero;fill:rgb(92.941176%,35.686275%,10.980392%);fill-opacity:1;" />
<path d="M 81.601562 469.199219 L 285.601562 469.199219 L 285.601562 489.601562 L 81.601562 489.601562 Z M 81.601562 469.199219 " style=" stroke:none;fill-rule:nonzero;fill:rgb(92.941176%,35.686275%,10.980392%);fill-opacity:1;" />
<path d="M 107.851562 407.042969 L 116.542969 388.574219 L 289.9375 470.175781 L 281.246094 488.640625 Z M 107.851562 407.042969 " style=" stroke:none;fill-rule:nonzero;fill:rgb(92.941176%,35.686275%,10.980392%);fill-opacity:1;" />
<path d="M 77.246094 470.148438 L 250.660156 388.585938 L 259.347656 407.054688 L 85.933594 488.617188 Z M 77.246094 470.148438 " style=" stroke:none;fill-rule:nonzero;fill:rgb(92.941176%,35.686275%,10.980392%);fill-opacity:1;" />
<path d="M 173.398438 377.398438 L 193.800781 377.398438 L 193.800781 479.398438 L 173.398438 479.398438 Z M 173.398438 377.398438 " style=" stroke:none;fill-rule:nonzero;fill:rgb(92.941176%,35.686275%,10.980392%);fill-opacity:1;" />
<path d="M 51 530.398438 L 112.199219 530.398438 L 112.199219 550.800781 L 51 550.800781 Z M 51 530.398438 " style=" stroke:none;fill-rule:nonzero;fill:rgb(92.941176%,35.686275%,10.980392%);fill-opacity:1;" />
<path d="M 255 530.398438 L 316.199219 530.398438 L 316.199219 550.800781 L 255 550.800781 Z M 255 530.398438 " style=" stroke:none;fill-rule:nonzero;fill:rgb(92.941176%,35.686275%,10.980392%);fill-opacity:1;" />
<path d="M 251.644531 367.199219 L 115.554688 367.199219 L 112.199219 316.199219 L 255 316.199219 Z M 251.644531 367.199219 " style=" stroke:none;fill-rule:nonzero;fill:rgb(76.470588%,78.823529%,81.960784%);fill-opacity:1;" />
<path d="M 0 591.601562 L 122.398438 591.601562 L 122.398438 612 L 0 612 Z M 0 591.601562 " style=" stroke:none;fill-rule:nonzero;fill:rgb(76.470588%,78.823529%,81.960784%);fill-opacity:1;" />
<path d="M 244.800781 591.601562 L 367.199219 591.601562 L 367.199219 612 L 244.800781 612 Z M 244.800781 591.601562 " style=" stroke:none;fill-rule:nonzero;fill:rgb(76.470588%,78.823529%,81.960784%);fill-opacity:1;" />
<path d="M 255 316.199219 L 219.300781 316.199219 L 212.925781 367.199219 L 251.644531 367.199219 Z M 255 316.199219 " style=" stroke:none;fill-rule:nonzero;fill:rgb(72.156863%,74.509804%,76.862745%);fill-opacity:1;" />
</g>
</svg>