<svg xmlns="http://www.w3.org/2000/svg" height="601pt" version="1.1" viewBox="-56 1 601 601.80002" width="601pt">
<g id="surface1">
<path d="M 275.910156 479.558594 L 214.691406 479.558594 L 224.535156 116.460938 C 224.761719 107.25 221.203125 98.347656 214.691406 91.832031 L 214.691406 71.421875 L 275.910156 71.421875 L 275.910156 91.832031 C 269.394531 98.347656 265.835938 107.25 266.0625 116.460938 Z M 275.910156 479.558594 " style=" stroke:none;fill-rule:nonzero;fill:rgb(76.470588%,78.823529%,81.960784%);fill-opacity:1;" />
<path d="M 235.097656 71.421875 C 219.597656 61.097656 215.40625 40.160156 225.734375 24.660156 C 226.277344 23.847656 226.855469 23.058594 227.464844 22.292969 L 245.300781 0 L 263.136719 22.292969 C 274.769531 36.835938 272.414062 58.058594 257.871094 69.691406 C 257.109375 70.304688 256.316406 70.882812 255.503906 71.421875 Z M 235.097656 71.421875 " style=" stroke:none;fill-rule:nonzero;fill:rgb(76.470588%,78.823529%,81.960784%);fill-opacity:1;" />
<path d="M 306.519531 550.984375 L 184.078125 550.984375 C 170.789062 531.046875 151.761719 515.609375 129.511719 506.710938 L 112.65625 499.964844 L 112.65625 479.558594 L 377.945312 479.558594 L 377.945312 499.964844 L 361.089844 506.710938 C 338.839844 515.609375 319.8125 531.046875 306.519531 550.984375 Z M 306.519531 550.984375 " style=" stroke:none;fill-rule:nonzero;fill:rgb(76.470588%,78.823529%,81.960784%);fill-opacity:1;" />
<path d="M 214.691406 71.421875 L 275.910156 71.421875 L 275.910156 91.832031 L 214.691406 91.832031 Z M 214.691406 71.421875 " style=" stroke:none;fill-rule:nonzero;fill:rgb(81.568627%,84.313725%,87.45098%);fill-opacity:1;" />
<path d="M 250.148438 550.984375 L 306.519531 550.984375 C 319.8125 531.046875 338.839844 515.609375 361.089844 506.710938 L 377.945312 499.964844 L 377.945312 479.558594 L 340.621094 479.558594 C 307.769531 499.738281 277.402344 523.714844 250.148438 550.984375 Z M 250.148438 550.984375 " style=" stroke:none;fill-rule:nonzero;fill:rgb(72.156863%,74.509804%,76.862745%);fill-opacity:1;" />
<path d="M 41.230469 550.984375 L 449.367188 550.984375 L 449.367188 591.796875 L 41.230469 591.796875 Z M 41.230469 550.984375 " style=" stroke:none;fill-rule:nonzero;fill:rgb(72.156863%,74.509804%,76.862745%);fill-opacity:1;" />
<path d="M 143.265625 550.984375 L 184.078125 550.984375 L 184.078125 591.796875 L 143.265625 591.796875 Z M 143.265625 550.984375 " style=" stroke:none;fill-rule:nonzero;fill:rgb(76.470588%,78.823529%,81.960784%);fill-opacity:1;" />
<path d="M 41.230469 550.984375 L 82.046875 550.984375 L 82.046875 591.796875 L 41.230469 591.796875 Z M 41.230469 550.984375 " style=" stroke:none;fill-rule:nonzero;fill:rgb(76.470588%,78.823529%,81.960784%);fill-opacity:1;" />
<path d="M 306.519531 550.984375 L 347.332031 550.984375 L 347.332031 591.796875 L 306.519531 591.796875 Z M 306.519531 550.984375 " style=" stroke:none;fill-rule:nonzero;fill:rgb(76.470588%,78.823529%,81.960784%);fill-opacity:1;" />
<path d="M 408.554688 550.984375 L 449.367188 550.984375 L 449.367188 591.796875 L 408.554688 591.796875 Z M 408.554688 550.984375 " style=" stroke:none;fill-rule:nonzero;fill:rgb(76.470588%,78.823529%,81.960784%);fill-opacity:1;" />
<path d="M 0.417969 581.59375 L 490.179688 581.59375 L 490.179688 602 L 0.417969 602 Z M 0.417969 581.59375 " style=" stroke:none;fill-rule:nonzero;fill:rgb(81.568627%,84.313725%,87.45098%);fill-opacity:1;" />
<path d="M 20.824219 540.78125 L 469.773438 540.78125 L 469.773438 561.1875 L 20.824219 561.1875 Z M 20.824219 540.78125 " style=" stroke:none;fill-rule:nonzero;fill:rgb(81.568627%,84.313725%,87.45098%);fill-opacity:1;" />
<path d="M 215.242188 459.152344 L 214.691406 479.558594 L 275.910156 479.558594 L 275.359375 459.152344 Z M 215.242188 459.152344 " style=" stroke:none;fill-rule:nonzero;fill:rgb(72.156863%,74.509804%,76.862745%);fill-opacity:1;" />
</g>
</svg>