<svg xmlns="http://www.w3.org/2000/svg" height="601pt" version="1.1" viewBox="-35 1 601 601.80002" width="601pt">
<g id="surface1">
<path d="M 184.074219 275.492188 L 347.328125 275.492188 L 347.328125 418.339844 L 184.074219 418.339844 Z M 184.074219 275.492188 " style=" stroke:none;fill-rule:nonzero;fill:rgb(96.078431%,68.235294%,27.058824%);fill-opacity:1;" />
<path d="M 184.074219 418.339844 L 347.328125 418.339844 L 347.328125 591.796875 L 184.074219 591.796875 Z M 184.074219 418.339844 " style=" stroke:none;fill-rule:nonzero;fill:rgb(96.078431%,68.235294%,27.058824%);fill-opacity:1;" />
<path d="M 204.480469 275.492188 L 265.699219 214.269531 L 326.921875 275.492188 Z M 204.480469 275.492188 " style=" stroke:none;fill-rule:nonzero;fill:rgb(60%,43.137255%,31.764706%);fill-opacity:1;" />
<path d="M 255.496094 122.441406 L 275.902344 122.441406 L 275.902344 234.679688 L 255.496094 234.679688 Z M 255.496094 122.441406 " style=" stroke:none;fill-rule:nonzero;fill:rgb(60%,43.137255%,31.764706%);fill-opacity:1;" />
<path d="M 235.089844 142.847656 L 296.308594 142.847656 L 296.308594 163.253906 L 235.089844 163.253906 Z M 235.089844 142.847656 " style=" stroke:none;fill-rule:nonzero;fill:rgb(60%,43.137255%,31.764706%);fill-opacity:1;" />
<path d="M 226.265625 520.371094 C 225.390625 524.132812 224.929688 527.972656 224.886719 531.832031 L 224.886719 591.796875 L 306.511719 591.796875 L 306.511719 531.832031 C 306.46875 527.972656 306.007812 524.132812 305.136719 520.371094 Z M 226.265625 520.371094 " style=" stroke:none;fill-rule:nonzero;fill:rgb(60%,43.137255%,31.764706%);fill-opacity:1;" />
<path d="M 265.699219 479.558594 C 245.863281 484.554688 230.574219 500.375 226.265625 520.371094 L 305.136719 520.371094 C 300.824219 500.375 285.539062 484.554688 265.699219 479.558594 Z M 265.699219 479.558594 " style=" stroke:none;fill-rule:nonzero;fill:rgb(90.196078%,54.117647%,0%);fill-opacity:1;" />
<path d="M 255.496094 520.371094 L 275.902344 520.371094 L 275.902344 591.796875 L 255.496094 591.796875 Z M 255.496094 520.371094 " style=" stroke:none;fill-rule:nonzero;fill:rgb(90.196078%,54.117647%,0%);fill-opacity:1;" />
<path d="M 255.496094 418.339844 L 275.902344 418.339844 L 275.902344 448.949219 L 255.496094 448.949219 Z M 255.496094 418.339844 " style=" stroke:none;fill-rule:nonzero;fill:rgb(90.196078%,54.117647%,0%);fill-opacity:1;" />
<path d="M 214.683594 418.339844 L 235.089844 418.339844 L 235.089844 448.949219 L 214.683594 448.949219 Z M 214.683594 418.339844 " style=" stroke:none;fill-rule:nonzero;fill:rgb(90.196078%,54.117647%,0%);fill-opacity:1;" />
<path d="M 296.308594 418.339844 L 316.71875 418.339844 L 316.71875 448.949219 L 296.308594 448.949219 Z M 296.308594 418.339844 " style=" stroke:none;fill-rule:nonzero;fill:rgb(90.196078%,54.117647%,0%);fill-opacity:1;" />
<path d="M 296.308594 346.914062 C 296.308594 363.820312 282.605469 377.527344 265.699219 377.527344 C 248.792969 377.527344 235.089844 363.820312 235.089844 346.914062 C 235.089844 330.007812 248.792969 316.304688 265.699219 316.304688 C 282.605469 316.304688 296.308594 330.007812 296.308594 346.914062 Z M 296.308594 346.914062 " style=" stroke:none;fill-rule:nonzero;fill:rgb(60%,43.137255%,31.764706%);fill-opacity:1;" />
<path d="M 20.820312 418.339844 L 184.074219 418.339844 L 184.074219 591.796875 L 20.820312 591.796875 Z M 20.820312 418.339844 " style=" stroke:none;fill-rule:nonzero;fill:rgb(96.078431%,68.235294%,27.058824%);fill-opacity:1;" />
<path d="M 102.445312 479.558594 C 82.605469 484.554688 67.320312 500.375 63.007812 520.371094 L 141.882812 520.371094 C 137.570312 500.375 122.285156 484.554688 102.445312 479.558594 Z M 102.445312 479.558594 " style=" stroke:none;fill-rule:nonzero;fill:rgb(90.196078%,54.117647%,0%);fill-opacity:1;" />
<path d="M 63.007812 520.371094 C 62.136719 524.132812 61.675781 527.972656 61.632812 531.832031 L 61.632812 591.796875 L 143.257812 591.796875 L 143.257812 531.832031 C 143.214844 527.972656 142.753906 524.132812 141.882812 520.371094 Z M 63.007812 520.371094 " style=" stroke:none;fill-rule:nonzero;fill:rgb(60%,43.137255%,31.764706%);fill-opacity:1;" />
<path d="M 92.242188 520.371094 L 112.648438 520.371094 L 112.648438 591.796875 L 92.242188 591.796875 Z M 92.242188 520.371094 " style=" stroke:none;fill-rule:nonzero;fill:rgb(90.196078%,54.117647%,0%);fill-opacity:1;" />
<path d="M 92.242188 418.339844 L 112.648438 418.339844 L 112.648438 448.949219 L 92.242188 448.949219 Z M 92.242188 418.339844 " style=" stroke:none;fill-rule:nonzero;fill:rgb(90.196078%,54.117647%,0%);fill-opacity:1;" />
<path d="M 51.429688 418.339844 L 71.835938 418.339844 L 71.835938 448.949219 L 51.429688 448.949219 Z M 51.429688 418.339844 " style=" stroke:none;fill-rule:nonzero;fill:rgb(90.196078%,54.117647%,0%);fill-opacity:1;" />
<path d="M 133.054688 418.339844 L 153.460938 418.339844 L 153.460938 448.949219 L 133.054688 448.949219 Z M 133.054688 418.339844 " style=" stroke:none;fill-rule:nonzero;fill:rgb(90.196078%,54.117647%,0%);fill-opacity:1;" />
<path d="M 20.820312 275.492188 L 184.074219 275.492188 L 184.074219 418.339844 L 20.820312 418.339844 Z M 20.820312 275.492188 " style=" stroke:none;fill-rule:nonzero;fill:rgb(96.078431%,68.235294%,27.058824%);fill-opacity:1;" />
<path d="M 133.054688 418.339844 L 71.835938 418.339844 L 71.835938 377.527344 C 71.835938 358.257812 84.164062 341.148438 102.445312 335.058594 C 120.726562 341.152344 133.054688 358.257812 133.054688 377.527344 Z M 133.054688 418.339844 " style=" stroke:none;fill-rule:nonzero;fill:rgb(60%,43.137255%,31.764706%);fill-opacity:1;" />
<path d="M 51.429688 306.101562 L 71.835938 306.101562 L 71.835938 326.507812 L 51.429688 326.507812 Z M 51.429688 306.101562 " style=" stroke:none;fill-rule:nonzero;fill:rgb(90.196078%,54.117647%,0%);fill-opacity:1;" />
<path d="M 133.054688 306.101562 L 153.460938 306.101562 L 153.460938 326.507812 L 133.054688 326.507812 Z M 133.054688 306.101562 " style=" stroke:none;fill-rule:nonzero;fill:rgb(90.196078%,54.117647%,0%);fill-opacity:1;" />
<path d="M 20.820312 193.863281 L 184.074219 193.863281 L 184.074219 275.492188 L 20.820312 275.492188 Z M 20.820312 193.863281 " style=" stroke:none;fill-rule:nonzero;fill:rgb(96.078431%,68.235294%,27.058824%);fill-opacity:1;" />
<path d="M 92.242188 193.863281 L 112.648438 193.863281 L 112.648438 275.492188 L 92.242188 275.492188 Z M 92.242188 193.863281 " style=" stroke:none;fill-rule:nonzero;fill:rgb(90.196078%,54.117647%,0%);fill-opacity:1;" />
<path d="M 51.429688 193.863281 L 71.835938 193.863281 L 71.835938 275.492188 L 51.429688 275.492188 Z M 51.429688 193.863281 " style=" stroke:none;fill-rule:nonzero;fill:rgb(90.196078%,54.117647%,0%);fill-opacity:1;" />
<path d="M 133.054688 193.863281 L 153.460938 193.863281 L 153.460938 275.492188 L 133.054688 275.492188 Z M 133.054688 193.863281 " style=" stroke:none;fill-rule:nonzero;fill:rgb(90.196078%,54.117647%,0%);fill-opacity:1;" />
<path d="M 20.820312 30.609375 L 184.074219 30.609375 L 184.074219 193.863281 L 20.820312 193.863281 Z M 20.820312 30.609375 " style=" stroke:none;fill-rule:nonzero;fill:rgb(96.078431%,68.235294%,27.058824%);fill-opacity:1;" />
<path d="M 41.226562 0 L 163.667969 0 L 163.667969 30.609375 L 41.226562 30.609375 Z M 41.226562 0 " style=" stroke:none;fill-rule:nonzero;fill:rgb(94.117647%,61.960784%,14.901961%);fill-opacity:1;" />
<path d="M 102.445312 81.628906 C 113.714844 81.628906 122.851562 90.761719 122.851562 102.035156 L 122.851562 193.863281 L 82.039062 193.863281 L 82.039062 102.035156 C 82.039062 90.761719 91.175781 81.628906 102.445312 81.628906 Z M 102.445312 81.628906 " style=" stroke:none;fill-rule:nonzero;fill:rgb(60%,43.137255%,31.764706%);fill-opacity:1;" />
<path d="M 255.496094 193.863281 L 275.902344 193.863281 L 275.902344 275.492188 L 255.496094 275.492188 Z M 255.496094 193.863281 " style=" stroke:none;fill-rule:nonzero;fill:rgb(98.039216%,73.72549%,37.254902%);fill-opacity:1;" />
<path d="M 214.683594 193.863281 L 235.089844 193.863281 L 235.089844 275.492188 L 214.683594 275.492188 Z M 214.683594 193.863281 " style=" stroke:none;fill-rule:nonzero;fill:rgb(98.039216%,73.72549%,37.254902%);fill-opacity:1;" />
<path d="M 296.308594 193.863281 L 316.71875 193.863281 L 316.71875 275.492188 L 296.308594 275.492188 Z M 296.308594 193.863281 " style=" stroke:none;fill-rule:nonzero;fill:rgb(98.039216%,73.72549%,37.254902%);fill-opacity:1;" />
<path d="M 0.410156 183.660156 L 184.074219 183.660156 L 184.074219 204.066406 L 0.410156 204.066406 Z M 0.410156 183.660156 " style=" stroke:none;fill-rule:nonzero;fill:rgb(98.039216%,73.72549%,37.254902%);fill-opacity:1;" />
<path d="M 20.820312 30.609375 L 184.074219 30.609375 L 184.074219 51.015625 L 20.820312 51.015625 Z M 20.820312 30.609375 " style=" stroke:none;fill-rule:nonzero;fill:rgb(98.039216%,73.72549%,37.254902%);fill-opacity:1;" />
<path d="M 347.328125 418.339844 L 510.582031 418.339844 L 510.582031 591.796875 L 347.328125 591.796875 Z M 347.328125 418.339844 " style=" stroke:none;fill-rule:nonzero;fill:rgb(96.078431%,68.235294%,27.058824%);fill-opacity:1;" />
<path d="M 428.953125 479.558594 C 448.792969 484.554688 464.078125 500.375 468.390625 520.371094 L 389.519531 520.371094 C 393.828125 500.375 409.117188 484.554688 428.953125 479.558594 Z M 428.953125 479.558594 " style=" stroke:none;fill-rule:nonzero;fill:rgb(90.196078%,54.117647%,0%);fill-opacity:1;" />
<path d="M 468.390625 520.371094 C 469.261719 524.132812 469.726562 527.972656 469.769531 531.832031 L 469.769531 591.796875 L 388.140625 591.796875 L 388.140625 531.832031 C 388.183594 527.972656 388.644531 524.132812 389.519531 520.371094 Z M 468.390625 520.371094 " style=" stroke:none;fill-rule:nonzero;fill:rgb(60%,43.137255%,31.764706%);fill-opacity:1;" />
<path d="M 418.75 520.371094 L 439.15625 520.371094 L 439.15625 591.796875 L 418.75 591.796875 Z M 418.75 520.371094 " style=" stroke:none;fill-rule:nonzero;fill:rgb(90.196078%,54.117647%,0%);fill-opacity:1;" />
<path d="M 418.75 418.339844 L 439.15625 418.339844 L 439.15625 448.949219 L 418.75 448.949219 Z M 418.75 418.339844 " style=" stroke:none;fill-rule:nonzero;fill:rgb(90.196078%,54.117647%,0%);fill-opacity:1;" />
<path d="M 459.5625 418.339844 L 479.972656 418.339844 L 479.972656 448.949219 L 459.5625 448.949219 Z M 459.5625 418.339844 " style=" stroke:none;fill-rule:nonzero;fill:rgb(90.196078%,54.117647%,0%);fill-opacity:1;" />
<path d="M 377.9375 418.339844 L 398.34375 418.339844 L 398.34375 448.949219 L 377.9375 448.949219 Z M 377.9375 418.339844 " style=" stroke:none;fill-rule:nonzero;fill:rgb(90.196078%,54.117647%,0%);fill-opacity:1;" />
<path d="M 347.328125 275.492188 L 510.582031 275.492188 L 510.582031 418.339844 L 347.328125 418.339844 Z M 347.328125 275.492188 " style=" stroke:none;fill-rule:nonzero;fill:rgb(96.078431%,68.235294%,27.058824%);fill-opacity:1;" />
<path d="M 398.34375 418.339844 L 459.5625 418.339844 L 459.5625 377.527344 C 459.5625 358.257812 447.234375 341.148438 428.953125 335.058594 C 410.675781 341.152344 398.34375 358.257812 398.34375 377.527344 Z M 398.34375 418.339844 " style=" stroke:none;fill-rule:nonzero;fill:rgb(60%,43.137255%,31.764706%);fill-opacity:1;" />
<path d="M 459.5625 306.101562 L 479.972656 306.101562 L 479.972656 326.507812 L 459.5625 326.507812 Z M 459.5625 306.101562 " style=" stroke:none;fill-rule:nonzero;fill:rgb(90.196078%,54.117647%,0%);fill-opacity:1;" />
<path d="M 377.9375 306.101562 L 398.34375 306.101562 L 398.34375 326.507812 L 377.9375 326.507812 Z M 377.9375 306.101562 " style=" stroke:none;fill-rule:nonzero;fill:rgb(90.196078%,54.117647%,0%);fill-opacity:1;" />
<path d="M 347.328125 193.863281 L 510.582031 193.863281 L 510.582031 275.492188 L 347.328125 275.492188 Z M 347.328125 193.863281 " style=" stroke:none;fill-rule:nonzero;fill:rgb(96.078431%,68.235294%,27.058824%);fill-opacity:1;" />
<path d="M 418.75 193.863281 L 439.15625 193.863281 L 439.15625 275.492188 L 418.75 275.492188 Z M 418.75 193.863281 " style=" stroke:none;fill-rule:nonzero;fill:rgb(90.196078%,54.117647%,0%);fill-opacity:1;" />
<path d="M 459.5625 193.863281 L 479.972656 193.863281 L 479.972656 275.492188 L 459.5625 275.492188 Z M 459.5625 193.863281 " style=" stroke:none;fill-rule:nonzero;fill:rgb(90.196078%,54.117647%,0%);fill-opacity:1;" />
<path d="M 377.9375 193.863281 L 398.34375 193.863281 L 398.34375 275.492188 L 377.9375 275.492188 Z M 377.9375 193.863281 " style=" stroke:none;fill-rule:nonzero;fill:rgb(90.196078%,54.117647%,0%);fill-opacity:1;" />
<path d="M 347.328125 30.609375 L 510.582031 30.609375 L 510.582031 193.863281 L 347.328125 193.863281 Z M 347.328125 30.609375 " style=" stroke:none;fill-rule:nonzero;fill:rgb(96.078431%,68.235294%,27.058824%);fill-opacity:1;" />
<path d="M 367.734375 0 L 490.175781 0 L 490.175781 30.609375 L 367.734375 30.609375 Z M 367.734375 0 " style=" stroke:none;fill-rule:nonzero;fill:rgb(94.117647%,61.960784%,14.901961%);fill-opacity:1;" />
<path d="M 449.359375 193.863281 L 408.546875 193.863281 L 408.546875 102.035156 C 408.546875 90.761719 417.683594 81.628906 428.953125 81.628906 C 440.226562 81.628906 449.359375 90.761719 449.359375 102.035156 Z M 449.359375 193.863281 " style=" stroke:none;fill-rule:nonzero;fill:rgb(60%,43.137255%,31.764706%);fill-opacity:1;" />
<path d="M 347.328125 183.660156 L 530.988281 183.660156 L 530.988281 204.066406 L 347.328125 204.066406 Z M 347.328125 183.660156 " style=" stroke:none;fill-rule:nonzero;fill:rgb(98.039216%,73.72549%,37.254902%);fill-opacity:1;" />
<path d="M 347.328125 30.609375 L 510.582031 30.609375 L 510.582031 51.015625 L 347.328125 51.015625 Z M 347.328125 30.609375 " style=" stroke:none;fill-rule:nonzero;fill:rgb(98.039216%,73.72549%,37.254902%);fill-opacity:1;" />
<path d="M 357.53125 285.695312 L 173.871094 285.695312 L 173.871094 183.660156 L 357.53125 183.660156 Z M 194.277344 265.289062 L 337.125 265.289062 L 337.125 204.066406 L 194.277344 204.066406 Z M 194.277344 265.289062 " style=" stroke:none;fill-rule:nonzero;fill:rgb(98.039216%,73.72549%,37.254902%);fill-opacity:1;" />
<path d="M 173.871094 285.695312 L 194.277344 285.695312 L 194.277344 581.59375 L 173.871094 581.59375 Z M 173.871094 285.695312 " style=" stroke:none;fill-rule:nonzero;fill:rgb(94.117647%,61.960784%,14.901961%);fill-opacity:1;" />
<path d="M 337.125 285.695312 L 357.53125 285.695312 L 357.53125 581.59375 L 337.125 581.59375 Z M 337.125 285.695312 " style=" stroke:none;fill-rule:nonzero;fill:rgb(94.117647%,61.960784%,14.901961%);fill-opacity:1;" />
<path d="M 0.410156 408.136719 L 530.988281 408.136719 L 530.988281 428.542969 L 0.410156 428.542969 Z M 0.410156 408.136719 " style=" stroke:none;fill-rule:nonzero;fill:rgb(98.039216%,73.72549%,37.254902%);fill-opacity:1;" />
<path d="M 0.410156 265.289062 L 530.988281 265.289062 L 530.988281 285.695312 L 0.410156 285.695312 Z M 0.410156 265.289062 " style=" stroke:none;fill-rule:nonzero;fill:rgb(98.039216%,73.72549%,37.254902%);fill-opacity:1;" />
<path d="M 0.410156 581.59375 L 530.988281 581.59375 L 530.988281 602 L 0.410156 602 Z M 0.410156 581.59375 " style=" stroke:none;fill-rule:nonzero;fill:rgb(98.039216%,73.72549%,37.254902%);fill-opacity:1;" />
</g>
</svg>