<svg xmlns="http://www.w3.org/2000/svg" height="571pt" version="1.1" viewBox="0 -82 571.2 571" width="571pt">
<g id="surface1">
<path d="M 278.535156 132.625 L 443.042969 407.929688 L 571 407.929688 L 571 387.535156 L 550.605469 387.535156 L 550.605469 285.570312 L 571 285.570312 L 571 265.179688 L 550.605469 265.179688 L 550.605469 153.019531 L 571 153.019531 L 571 132.625 Z M 278.535156 132.625 " style=" stroke:none;fill-rule:nonzero;fill:rgb(90.196078%,54.117647%,0%);fill-opacity:1;" />
<path d="M 448.644531 316.160156 C 459.90625 316.160156 469.035156 325.289062 469.035156 336.554688 L 469.035156 387.535156 L 428.25 387.535156 L 428.25 336.554688 C 428.25 325.289062 437.378906 316.160156 448.644531 316.160156 Z M 448.644531 316.160156 " style=" stroke:none;fill-rule:nonzero;fill:rgb(83.137255%,31.764706%,9.803922%);fill-opacity:1;" />
<path d="M 530.214844 316.160156 C 541.476562 316.160156 550.605469 325.289062 550.605469 336.554688 L 550.605469 387.535156 L 509.820312 387.535156 L 509.820312 336.554688 C 509.820312 325.289062 518.953125 316.160156 530.214844 316.160156 Z M 530.214844 316.160156 " style=" stroke:none;fill-rule:nonzero;fill:rgb(83.137255%,31.764706%,9.803922%);fill-opacity:1;" />
<path d="M 367.070312 183.605469 C 378.335938 183.605469 387.464844 192.738281 387.464844 204 L 387.464844 234.589844 L 346.679688 234.589844 L 346.679688 204 C 346.679688 192.738281 355.808594 183.605469 367.070312 183.605469 Z M 367.070312 183.605469 " style=" stroke:none;fill-rule:nonzero;fill:rgb(83.137255%,31.764706%,9.803922%);fill-opacity:1;" />
<path d="M 448.644531 183.605469 C 459.90625 183.605469 469.035156 192.738281 469.035156 204 L 469.035156 234.589844 L 428.25 234.589844 L 428.25 204 C 428.25 192.738281 437.378906 183.605469 448.644531 183.605469 Z M 448.644531 183.605469 " style=" stroke:none;fill-rule:nonzero;fill:rgb(83.137255%,31.764706%,9.803922%);fill-opacity:1;" />
<path d="M 530.214844 183.605469 C 541.476562 183.605469 550.605469 192.738281 550.605469 204 L 550.605469 234.589844 L 509.820312 234.589844 L 509.820312 204 C 509.820312 192.738281 518.953125 183.605469 530.214844 183.605469 Z M 530.214844 183.605469 " style=" stroke:none;fill-rule:nonzero;fill:rgb(83.137255%,31.764706%,9.803922%);fill-opacity:1;" />
<path d="M 0 0.0703125 L 0 20.464844 L 20.394531 20.464844 L 20.394531 132.625 L 0 132.625 L 0 153.019531 L 20.394531 153.019531 L 20.394531 265.179688 L 0 265.179688 L 0 285.570312 L 20.394531 285.570312 L 20.394531 387.535156 L 0 387.535156 L 0 407.929688 L 443.042969 407.929688 L 199.332031 0.0703125 Z M 0 0.0703125 " style=" stroke:none;fill-rule:nonzero;fill:rgb(96.078431%,68.235294%,27.058824%);fill-opacity:1;" />
<path d="M 40.785156 316.160156 C 52.046875 316.160156 61.179688 325.289062 61.179688 336.554688 L 61.179688 387.535156 L 20.394531 387.535156 L 20.394531 336.554688 C 20.394531 325.289062 29.523438 316.160156 40.785156 316.160156 Z M 40.785156 316.160156 " style=" stroke:none;fill-rule:nonzero;fill:rgb(90.196078%,54.117647%,0%);fill-opacity:1;" />
<path d="M 122.355469 316.160156 C 133.621094 316.160156 142.75 325.289062 142.75 336.554688 L 142.75 387.535156 L 101.964844 387.535156 L 101.964844 336.554688 C 101.964844 325.289062 111.09375 316.160156 122.355469 316.160156 Z M 122.355469 316.160156 " style=" stroke:none;fill-rule:nonzero;fill:rgb(90.196078%,54.117647%,0%);fill-opacity:1;" />
<path d="M 203.929688 316.160156 C 215.191406 316.160156 224.320312 325.289062 224.320312 336.554688 L 224.320312 387.535156 L 183.535156 387.535156 L 183.535156 336.554688 C 183.535156 325.289062 192.664062 316.160156 203.929688 316.160156 Z M 203.929688 316.160156 " style=" stroke:none;fill-rule:nonzero;fill:rgb(90.196078%,54.117647%,0%);fill-opacity:1;" />
<path d="M 285.5 316.160156 C 296.761719 316.160156 305.894531 325.289062 305.894531 336.554688 L 305.894531 387.535156 L 265.105469 387.535156 L 265.105469 336.554688 C 265.105469 325.289062 274.238281 316.160156 285.5 316.160156 Z M 285.5 316.160156 " style=" stroke:none;fill-rule:nonzero;fill:rgb(90.196078%,54.117647%,0%);fill-opacity:1;" />
<path d="M 367.070312 316.160156 C 378.335938 316.160156 387.464844 325.289062 387.464844 336.554688 L 387.464844 387.535156 L 346.679688 387.535156 L 346.679688 336.554688 C 346.679688 325.289062 355.808594 316.160156 367.070312 316.160156 Z M 367.070312 316.160156 " style=" stroke:none;fill-rule:nonzero;fill:rgb(90.196078%,54.117647%,0%);fill-opacity:1;" />
<path d="M 40.785156 183.605469 C 52.046875 183.605469 61.179688 192.738281 61.179688 204 L 61.179688 234.589844 L 20.394531 234.589844 L 20.394531 204 C 20.394531 192.738281 29.523438 183.605469 40.785156 183.605469 Z M 40.785156 183.605469 " style=" stroke:none;fill-rule:nonzero;fill:rgb(90.196078%,54.117647%,0%);fill-opacity:1;" />
<path d="M 122.355469 183.605469 C 133.621094 183.605469 142.75 192.738281 142.75 204 L 142.75 234.589844 L 101.964844 234.589844 L 101.964844 204 C 101.964844 192.738281 111.09375 183.605469 122.355469 183.605469 Z M 122.355469 183.605469 " style=" stroke:none;fill-rule:nonzero;fill:rgb(90.196078%,54.117647%,0%);fill-opacity:1;" />
<path d="M 203.929688 183.605469 C 215.191406 183.605469 224.320312 192.738281 224.320312 204 L 224.320312 234.589844 L 183.535156 234.589844 L 183.535156 204 C 183.535156 192.738281 192.664062 183.605469 203.929688 183.605469 Z M 203.929688 183.605469 " style=" stroke:none;fill-rule:nonzero;fill:rgb(90.196078%,54.117647%,0%);fill-opacity:1;" />
<path d="M 40.785156 51.054688 C 52.046875 51.054688 61.179688 60.183594 61.179688 71.445312 L 61.179688 102.035156 L 20.394531 102.035156 L 20.394531 71.445312 C 20.394531 60.183594 29.523438 51.054688 40.785156 51.054688 Z M 40.785156 51.054688 " style=" stroke:none;fill-rule:nonzero;fill:rgb(90.196078%,54.117647%,0%);fill-opacity:1;" />
<path d="M 122.355469 51.054688 C 133.621094 51.054688 142.75 60.183594 142.75 71.445312 L 142.75 102.035156 L 101.964844 102.035156 L 101.964844 71.445312 C 101.964844 60.183594 111.09375 51.054688 122.355469 51.054688 Z M 122.355469 51.054688 " style=" stroke:none;fill-rule:nonzero;fill:rgb(90.196078%,54.117647%,0%);fill-opacity:1;" />
<path d="M 203.929688 51.054688 C 215.191406 51.054688 224.320312 60.183594 224.320312 71.445312 L 224.320312 102.035156 L 183.535156 102.035156 L 183.535156 71.445312 C 183.535156 60.183594 192.664062 51.054688 203.929688 51.054688 Z M 203.929688 51.054688 " style=" stroke:none;fill-rule:nonzero;fill:rgb(90.196078%,54.117647%,0%);fill-opacity:1;" />
<path d="M 285.5 183.605469 C 296.761719 183.605469 305.894531 192.738281 305.894531 204 L 305.894531 234.589844 L 265.105469 234.589844 L 265.105469 204 C 265.105469 192.738281 274.238281 183.605469 285.5 183.605469 Z M 285.5 183.605469 " style=" stroke:none;fill-rule:nonzero;fill:rgb(90.196078%,54.117647%,0%);fill-opacity:1;" />
<path d="M 211.515625 20.464844 L 20.394531 20.464844 L 20.394531 40.855469 L 223.699219 40.855469 Z M 211.515625 20.464844 " style=" stroke:none;fill-rule:nonzero;fill:rgb(94.117647%,61.960784%,14.901961%);fill-opacity:1;" />
<path d="M 290.71875 153.019531 L 20.394531 153.019531 L 20.394531 173.410156 L 302.90625 173.410156 Z M 290.71875 153.019531 " style=" stroke:none;fill-rule:nonzero;fill:rgb(94.117647%,61.960784%,14.901961%);fill-opacity:1;" />
<path d="M 369.9375 285.570312 L 20.394531 285.570312 L 20.394531 305.964844 L 382.121094 305.964844 Z M 369.9375 285.570312 " style=" stroke:none;fill-rule:nonzero;fill:rgb(94.117647%,61.960784%,14.901961%);fill-opacity:1;" />
</g>
</svg>