<svg xmlns="http://www.w3.org/2000/svg" height="612pt" version="1.1" viewBox="0 -51 612 612" width="612pt">
<g id="surface1">
<path d="M 581.398438 499.800781 L 30.601562 499.800781 L 30.601562 285.601562 L 306 40.800781 L 581.398438 285.601562 Z M 581.398438 499.800781 " style=" stroke:none;fill-rule:nonzero;fill:rgb(96.078431%,68.235294%,27.058824%);fill-opacity:1;" />
<path d="M 306 428.398438 C 317.265625 428.398438 326.398438 437.53125 326.398438 448.800781 L 326.398438 499.800781 L 285.601562 499.800781 L 285.601562 448.800781 C 285.601562 437.53125 294.734375 428.398438 306 428.398438 Z M 306 428.398438 " style=" stroke:none;fill-rule:nonzero;fill:rgb(60%,43.137255%,31.764706%);fill-opacity:1;" />
<path d="M 306 295.800781 C 317.265625 295.800781 326.398438 304.933594 326.398438 316.199219 L 326.398438 357 L 285.601562 357 L 285.601562 316.199219 C 285.601562 304.933594 294.734375 295.800781 306 295.800781 Z M 306 295.800781 " style=" stroke:none;fill-rule:nonzero;fill:rgb(60%,43.137255%,31.764706%);fill-opacity:1;" />
<path d="M 326.398438 224.398438 L 285.601562 224.398438 L 285.601562 196.207031 C 285.601562 182.230469 293.496094 169.449219 306 163.199219 C 318.503906 169.449219 326.398438 182.230469 326.398438 196.207031 Z M 326.398438 224.398438 " style=" stroke:none;fill-rule:nonzero;fill:rgb(60%,43.137255%,31.764706%);fill-opacity:1;" />
<path d="M 132.601562 428.398438 C 143.867188 428.398438 153 437.53125 153 448.800781 L 153 499.800781 L 112.199219 499.800781 L 112.199219 448.800781 C 112.199219 437.53125 121.332031 428.398438 132.601562 428.398438 Z M 132.601562 428.398438 " style=" stroke:none;fill-rule:nonzero;fill:rgb(60%,43.137255%,31.764706%);fill-opacity:1;" />
<path d="M 153 357 L 112.199219 357 L 112.199219 328.808594 C 112.199219 314.828125 120.097656 302.050781 132.601562 295.800781 C 145.101562 302.050781 153 314.828125 153 328.808594 Z M 153 357 " style=" stroke:none;fill-rule:nonzero;fill:rgb(60%,43.137255%,31.764706%);fill-opacity:1;" />
<path d="M 499.800781 499.800781 L 459 499.800781 L 459 448.800781 C 459 437.53125 468.132812 428.398438 479.398438 428.398438 C 490.667969 428.398438 499.800781 437.53125 499.800781 448.800781 Z M 499.800781 499.800781 " style=" stroke:none;fill-rule:nonzero;fill:rgb(60%,43.137255%,31.764706%);fill-opacity:1;" />
<path d="M 459 357 L 499.800781 357 L 499.800781 328.808594 C 499.800781 314.828125 491.902344 302.050781 479.398438 295.800781 C 466.898438 302.050781 459 314.828125 459 328.808594 Z M 459 357 " style=" stroke:none;fill-rule:nonzero;fill:rgb(60%,43.137255%,31.764706%);fill-opacity:1;" />
<path d="M 0 489.601562 L 612 489.601562 L 612 510 L 0 510 Z M 0 489.601562 " style=" stroke:none;fill-rule:nonzero;fill:rgb(98.039216%,73.72549%,37.254902%);fill-opacity:1;" />
<path d="M 265.199219 346.800781 L 346.800781 346.800781 L 346.800781 367.199219 L 265.199219 367.199219 Z M 265.199219 346.800781 " style=" stroke:none;fill-rule:nonzero;fill:rgb(98.039216%,73.72549%,37.254902%);fill-opacity:1;" />
<path d="M 265.199219 214.199219 L 346.800781 214.199219 L 346.800781 234.601562 L 265.199219 234.601562 Z M 265.199219 214.199219 " style=" stroke:none;fill-rule:nonzero;fill:rgb(98.039216%,73.72549%,37.254902%);fill-opacity:1;" />
<path d="M 224.398438 102 L 204 102 L 204 0 L 183.601562 0 L 183.601562 499.800781 L 244.800781 499.800781 L 244.800781 0 L 224.398438 0 Z M 224.398438 102 " style=" stroke:none;fill-rule:nonzero;fill:rgb(98.039216%,73.72549%,37.254902%);fill-opacity:1;" />
<path d="M 61.199219 244.800781 L 40.800781 244.800781 L 40.800781 142.800781 L 20.398438 142.800781 L 20.398438 499.800781 L 81.601562 499.800781 L 81.601562 142.800781 L 61.199219 142.800781 Z M 61.199219 244.800781 " style=" stroke:none;fill-rule:nonzero;fill:rgb(98.039216%,73.72549%,37.254902%);fill-opacity:1;" />
<path d="M 408 102 L 387.601562 102 L 387.601562 0 L 367.199219 0 L 367.199219 499.800781 L 428.398438 499.800781 L 428.398438 0 L 408 0 Z M 408 102 " style=" stroke:none;fill-rule:nonzero;fill:rgb(98.039216%,73.72549%,37.254902%);fill-opacity:1;" />
<path d="M 571.199219 142.800781 L 571.199219 244.800781 L 550.800781 244.800781 L 550.800781 142.800781 L 530.398438 142.800781 L 530.398438 499.800781 L 591.601562 499.800781 L 591.601562 142.800781 Z M 571.199219 142.800781 " style=" stroke:none;fill-rule:nonzero;fill:rgb(98.039216%,73.72549%,37.254902%);fill-opacity:1;" />
<path d="M 0 448.800781 L 71.398438 448.800781 L 71.398438 469.199219 L 0 469.199219 Z M 0 448.800781 " style=" stroke:none;fill-rule:nonzero;fill:rgb(98.039216%,73.72549%,37.254902%);fill-opacity:1;" />
<path d="M 540.601562 448.800781 L 612 448.800781 L 612 469.199219 L 540.601562 469.199219 Z M 540.601562 448.800781 " style=" stroke:none;fill-rule:nonzero;fill:rgb(98.039216%,73.72549%,37.254902%);fill-opacity:1;" />
<path d="M 316.199219 122.398438 L 316.199219 49.867188 L 306 40.800781 L 295.800781 49.867188 L 295.800781 122.398438 Z M 316.199219 122.398438 " style=" stroke:none;fill-rule:nonzero;fill:rgb(94.117647%,61.960784%,14.901961%);fill-opacity:1;" />
<path d="M 275.398438 122.398438 L 275.398438 68.003906 L 255 86.128906 L 255 122.398438 Z M 275.398438 122.398438 " style=" stroke:none;fill-rule:nonzero;fill:rgb(94.117647%,61.960784%,14.901961%);fill-opacity:1;" />
<path d="M 357 122.398438 L 357 86.128906 L 336.601562 68.003906 L 336.601562 122.398438 Z M 357 122.398438 " style=" stroke:none;fill-rule:nonzero;fill:rgb(94.117647%,61.960784%,14.901961%);fill-opacity:1;" />
<path d="M 163.199219 255 L 163.199219 167.730469 L 142.800781 185.863281 L 142.800781 255 Z M 163.199219 255 " style=" stroke:none;fill-rule:nonzero;fill:rgb(94.117647%,61.960784%,14.901961%);fill-opacity:1;" />
<path d="M 122.398438 255 L 122.398438 204 L 102 222.136719 L 102 255 Z M 122.398438 255 " style=" stroke:none;fill-rule:nonzero;fill:rgb(94.117647%,61.960784%,14.901961%);fill-opacity:1;" />
<path d="M 469.199219 255 L 469.199219 185.863281 L 448.800781 167.730469 L 448.800781 255 Z M 469.199219 255 " style=" stroke:none;fill-rule:nonzero;fill:rgb(94.117647%,61.960784%,14.901961%);fill-opacity:1;" />
<path d="M 510 255 L 510 222.136719 L 489.601562 204 L 489.601562 255 Z M 510 255 " style=" stroke:none;fill-rule:nonzero;fill:rgb(94.117647%,61.960784%,14.901961%);fill-opacity:1;" />
<path d="M 448.800781 346.800781 L 510 346.800781 L 510 367.199219 L 448.800781 367.199219 Z M 448.800781 346.800781 " style=" stroke:none;fill-rule:nonzero;fill:rgb(98.039216%,73.72549%,37.254902%);fill-opacity:1;" />
<path d="M 102 346.800781 L 163.199219 346.800781 L 163.199219 367.199219 L 102 367.199219 Z M 102 346.800781 " style=" stroke:none;fill-rule:nonzero;fill:rgb(98.039216%,73.72549%,37.254902%);fill-opacity:1;" />
<path d="M 265.199219 367.199219 L 346.800781 367.199219 L 346.800781 387.601562 L 265.199219 387.601562 Z M 265.199219 367.199219 " style=" stroke:none;fill-rule:nonzero;fill:rgb(94.117647%,61.960784%,14.901961%);fill-opacity:1;" />
<path d="M 265.199219 234.601562 L 346.800781 234.601562 L 346.800781 255 L 265.199219 255 Z M 265.199219 234.601562 " style=" stroke:none;fill-rule:nonzero;fill:rgb(94.117647%,61.960784%,14.901961%);fill-opacity:1;" />
<path d="M 448.800781 367.199219 L 510 367.199219 L 510 387.601562 L 448.800781 387.601562 Z M 448.800781 367.199219 " style=" stroke:none;fill-rule:nonzero;fill:rgb(94.117647%,61.960784%,14.901961%);fill-opacity:1;" />
<path d="M 102 367.199219 L 163.199219 367.199219 L 163.199219 387.601562 L 102 387.601562 Z M 102 367.199219 " style=" stroke:none;fill-rule:nonzero;fill:rgb(94.117647%,61.960784%,14.901961%);fill-opacity:1;" />
<path d="M 20.398438 469.199219 L 81.601562 469.199219 L 81.601562 489.601562 L 20.398438 489.601562 Z M 20.398438 469.199219 " style=" stroke:none;fill-rule:nonzero;fill:rgb(96.078431%,68.235294%,27.058824%);fill-opacity:1;" />
<path d="M 183.601562 469.199219 L 244.800781 469.199219 L 244.800781 489.601562 L 183.601562 489.601562 Z M 183.601562 469.199219 " style=" stroke:none;fill-rule:nonzero;fill:rgb(96.078431%,68.235294%,27.058824%);fill-opacity:1;" />
<path d="M 530.398438 469.199219 L 591.601562 469.199219 L 591.601562 489.601562 L 530.398438 489.601562 Z M 530.398438 469.199219 " style=" stroke:none;fill-rule:nonzero;fill:rgb(96.078431%,68.235294%,27.058824%);fill-opacity:1;" />
<path d="M 20.398438 275.398438 L 81.601562 275.398438 L 81.601562 295.800781 L 20.398438 295.800781 Z M 20.398438 275.398438 " style=" stroke:none;fill-rule:nonzero;fill:rgb(96.078431%,68.235294%,27.058824%);fill-opacity:1;" />
<path d="M 183.601562 275.398438 L 244.800781 275.398438 L 244.800781 295.800781 L 183.601562 295.800781 Z M 183.601562 275.398438 " style=" stroke:none;fill-rule:nonzero;fill:rgb(96.078431%,68.235294%,27.058824%);fill-opacity:1;" />
<path d="M 367.199219 275.398438 L 428.398438 275.398438 L 428.398438 295.800781 L 367.199219 295.800781 Z M 367.199219 275.398438 " style=" stroke:none;fill-rule:nonzero;fill:rgb(96.078431%,68.235294%,27.058824%);fill-opacity:1;" />
<path d="M 530.398438 275.398438 L 591.601562 275.398438 L 591.601562 295.800781 L 530.398438 295.800781 Z M 530.398438 275.398438 " style=" stroke:none;fill-rule:nonzero;fill:rgb(96.078431%,68.235294%,27.058824%);fill-opacity:1;" />
<path d="M 20.398438 367.199219 L 81.601562 367.199219 L 81.601562 387.601562 L 20.398438 387.601562 Z M 20.398438 367.199219 " style=" stroke:none;fill-rule:nonzero;fill:rgb(96.078431%,68.235294%,27.058824%);fill-opacity:1;" />
<path d="M 183.601562 367.199219 L 244.800781 367.199219 L 244.800781 387.601562 L 183.601562 387.601562 Z M 183.601562 367.199219 " style=" stroke:none;fill-rule:nonzero;fill:rgb(96.078431%,68.235294%,27.058824%);fill-opacity:1;" />
<path d="M 530.398438 367.199219 L 591.601562 367.199219 L 591.601562 387.601562 L 530.398438 387.601562 Z M 530.398438 367.199219 " style=" stroke:none;fill-rule:nonzero;fill:rgb(96.078431%,68.235294%,27.058824%);fill-opacity:1;" />
<path d="M 183.601562 142.800781 L 244.800781 142.800781 L 244.800781 163.199219 L 183.601562 163.199219 Z M 183.601562 142.800781 " style=" stroke:none;fill-rule:nonzero;fill:rgb(96.078431%,68.235294%,27.058824%);fill-opacity:1;" />
<path d="M 367.199219 142.800781 L 428.398438 142.800781 L 428.398438 163.199219 L 367.199219 163.199219 Z M 367.199219 142.800781 " style=" stroke:none;fill-rule:nonzero;fill:rgb(96.078431%,68.235294%,27.058824%);fill-opacity:1;" />
<path d="M 367.199219 367.199219 L 428.398438 367.199219 L 428.398438 387.601562 L 367.199219 387.601562 Z M 367.199219 367.199219 " style=" stroke:none;fill-rule:nonzero;fill:rgb(96.078431%,68.235294%,27.058824%);fill-opacity:1;" />
<path d="M 367.199219 469.199219 L 428.398438 469.199219 L 428.398438 489.601562 L 367.199219 489.601562 Z M 367.199219 469.199219 " style=" stroke:none;fill-rule:nonzero;fill:rgb(96.078431%,68.235294%,27.058824%);fill-opacity:1;" />
</g>
</svg>