<svg xmlns="http://www.w3.org/2000/svg" height="612pt" version="1.1" viewBox="0 -117 612 612" width="612pt">
<g id="surface1">
<path d="M 224.398438 10.199219 L 387.601562 10.199219 L 387.601562 122.398438 L 224.398438 122.398438 Z M 224.398438 10.199219 " style=" stroke:none;fill-rule:nonzero;fill:rgb(96.078431%,68.235294%,27.058824%);fill-opacity:1;" />
<path d="M 295.800781 81.601562 L 316.199219 81.601562 L 316.199219 122.398438 L 295.800781 122.398438 Z M 295.800781 81.601562 " style=" stroke:none;fill-rule:nonzero;fill:rgb(52.156863%,34.117647%,22.352941%);fill-opacity:1;" />
<path d="M 255 81.601562 L 275.398438 81.601562 L 275.398438 122.398438 L 255 122.398438 Z M 255 81.601562 " style=" stroke:none;fill-rule:nonzero;fill:rgb(52.156863%,34.117647%,22.352941%);fill-opacity:1;" />
<path d="M 336.601562 81.601562 L 357 81.601562 L 357 122.398438 L 336.601562 122.398438 Z M 336.601562 81.601562 " style=" stroke:none;fill-rule:nonzero;fill:rgb(52.156863%,34.117647%,22.352941%);fill-opacity:1;" />
<path d="M 204 40.800781 L 408 40.800781 L 408 61.199219 L 204 61.199219 Z M 204 40.800781 " style=" stroke:none;fill-rule:nonzero;fill:rgb(96.078431%,68.235294%,27.058824%);fill-opacity:1;" />
<path d="M 204 0 L 408 0 L 408 20.398438 L 204 20.398438 Z M 204 0 " style=" stroke:none;fill-rule:nonzero;fill:rgb(96.078431%,68.235294%,27.058824%);fill-opacity:1;" />
<path d="M 224.398438 20.398438 L 387.601562 20.398438 L 387.601562 40.800781 L 224.398438 40.800781 Z M 224.398438 20.398438 " style=" stroke:none;fill-rule:nonzero;fill:rgb(94.117647%,61.960784%,14.901961%);fill-opacity:1;" />
<path d="M 183.601562 122.398438 L 224.398438 122.398438 L 224.398438 326.398438 L 183.601562 326.398438 Z M 183.601562 122.398438 " style=" stroke:none;fill-rule:nonzero;fill:rgb(94.117647%,61.960784%,14.901961%);fill-opacity:1;" />
<path d="M 183.601562 122.398438 L 224.398438 122.398438 L 224.398438 163.199219 L 183.601562 163.199219 Z M 183.601562 122.398438 " style=" stroke:none;fill-rule:nonzero;fill:rgb(96.078431%,68.235294%,27.058824%);fill-opacity:1;" />
<path d="M 387.601562 122.398438 L 428.398438 122.398438 L 428.398438 326.398438 L 387.601562 326.398438 Z M 387.601562 122.398438 " style=" stroke:none;fill-rule:nonzero;fill:rgb(94.117647%,61.960784%,14.901961%);fill-opacity:1;" />
<path d="M 387.601562 122.398438 L 428.398438 122.398438 L 428.398438 163.199219 L 387.601562 163.199219 Z M 387.601562 122.398438 " style=" stroke:none;fill-rule:nonzero;fill:rgb(96.078431%,68.235294%,27.058824%);fill-opacity:1;" />
<path d="M 51 163.199219 L 122.398438 163.199219 L 122.398438 234.601562 L 51 234.601562 Z M 51 163.199219 " style=" stroke:none;fill-rule:nonzero;fill:rgb(96.078431%,68.235294%,27.058824%);fill-opacity:1;" />
<path d="M 20.398438 234.601562 L 183.601562 234.601562 L 183.601562 326.398438 L 20.398438 326.398438 Z M 20.398438 234.601562 " style=" stroke:none;fill-rule:nonzero;fill:rgb(94.117647%,61.960784%,14.901961%);fill-opacity:1;" />
<path d="M 122.398438 163.199219 L 183.601562 163.199219 L 183.601562 234.601562 L 122.398438 234.601562 Z M 122.398438 163.199219 " style=" stroke:none;fill-rule:nonzero;fill:rgb(90.196078%,54.117647%,0%);fill-opacity:1;" />
<path d="M 489.601562 163.199219 L 561 163.199219 L 561 234.601562 L 489.601562 234.601562 Z M 489.601562 163.199219 " style=" stroke:none;fill-rule:nonzero;fill:rgb(94.117647%,61.960784%,14.901961%);fill-opacity:1;" />
<path d="M 428.398438 234.601562 L 591.601562 234.601562 L 591.601562 326.398438 L 428.398438 326.398438 Z M 428.398438 234.601562 " style=" stroke:none;fill-rule:nonzero;fill:rgb(94.117647%,61.960784%,14.901961%);fill-opacity:1;" />
<path d="M 428.398438 163.199219 L 489.601562 163.199219 L 489.601562 234.601562 L 428.398438 234.601562 Z M 428.398438 163.199219 " style=" stroke:none;fill-rule:nonzero;fill:rgb(90.196078%,54.117647%,0%);fill-opacity:1;" />
<path d="M 183.601562 326.398438 L 428.398438 326.398438 L 428.398438 367.199219 L 183.601562 367.199219 Z M 183.601562 326.398438 " style=" stroke:none;fill-rule:nonzero;fill:rgb(94.117647%,61.960784%,14.901961%);fill-opacity:1;" />
<path d="M 183.601562 285.601562 L 224.398438 285.601562 L 224.398438 326.398438 L 183.601562 326.398438 Z M 183.601562 285.601562 " style=" stroke:none;fill-rule:nonzero;fill:rgb(96.078431%,68.235294%,27.058824%);fill-opacity:1;" />
<path d="M 387.601562 285.601562 L 428.398438 285.601562 L 428.398438 326.398438 L 387.601562 326.398438 Z M 387.601562 285.601562 " style=" stroke:none;fill-rule:nonzero;fill:rgb(96.078431%,68.235294%,27.058824%);fill-opacity:1;" />
<path d="M 20.398438 326.398438 L 183.601562 326.398438 L 183.601562 367.199219 L 20.398438 367.199219 Z M 20.398438 326.398438 " style=" stroke:none;fill-rule:nonzero;fill:rgb(98.039216%,73.72549%,37.254902%);fill-opacity:1;" />
<path d="M 61.199219 306 L 142.800781 306 L 142.800781 367.199219 L 61.199219 367.199219 Z M 61.199219 306 " style=" stroke:none;fill-rule:nonzero;fill:rgb(96.078431%,68.235294%,27.058824%);fill-opacity:1;" />
<path d="M 91.800781 336.601562 L 112.199219 336.601562 L 112.199219 367.199219 L 91.800781 367.199219 Z M 91.800781 336.601562 " style=" stroke:none;fill-rule:nonzero;fill:rgb(52.156863%,34.117647%,22.352941%);fill-opacity:1;" />
<path d="M 428.398438 326.398438 L 591.601562 326.398438 L 591.601562 367.199219 L 428.398438 367.199219 Z M 428.398438 326.398438 " style=" stroke:none;fill-rule:nonzero;fill:rgb(98.039216%,73.72549%,37.254902%);fill-opacity:1;" />
<path d="M 469.199219 306 L 550.800781 306 L 550.800781 367.199219 L 469.199219 367.199219 Z M 469.199219 306 " style=" stroke:none;fill-rule:nonzero;fill:rgb(96.078431%,68.235294%,27.058824%);fill-opacity:1;" />
<path d="M 499.800781 336.601562 L 520.199219 336.601562 L 520.199219 367.199219 L 499.800781 367.199219 Z M 499.800781 336.601562 " style=" stroke:none;fill-rule:nonzero;fill:rgb(52.156863%,34.117647%,22.352941%);fill-opacity:1;" />
<path d="M 0 357 L 612 357 L 612 377.398438 L 0 377.398438 Z M 0 357 " style=" stroke:none;fill-rule:nonzero;fill:rgb(96.078431%,68.235294%,27.058824%);fill-opacity:1;" />
<path d="M 224.398438 122.398438 L 387.601562 122.398438 L 387.601562 326.398438 L 224.398438 326.398438 Z M 224.398438 122.398438 " style=" stroke:none;fill-rule:nonzero;fill:rgb(94.117647%,61.960784%,14.901961%);fill-opacity:1;" />
<path d="M 224.398438 285.601562 L 387.601562 285.601562 L 387.601562 326.398438 L 224.398438 326.398438 Z M 224.398438 285.601562 " style=" stroke:none;fill-rule:nonzero;fill:rgb(94.117647%,61.960784%,14.901961%);fill-opacity:1;" />
<path d="M 224.398438 306 L 387.601562 306 L 387.601562 326.398438 L 224.398438 326.398438 Z M 224.398438 306 " style=" stroke:none;fill-rule:nonzero;fill:rgb(96.078431%,68.235294%,27.058824%);fill-opacity:1;" />
<path d="M 224.398438 244.800781 L 387.601562 244.800781 L 387.601562 285.601562 L 224.398438 285.601562 Z M 224.398438 244.800781 " style=" stroke:none;fill-rule:nonzero;fill:rgb(94.117647%,61.960784%,14.901961%);fill-opacity:1;" />
<path d="M 224.398438 265.199219 L 387.601562 265.199219 L 387.601562 285.601562 L 224.398438 285.601562 Z M 224.398438 265.199219 " style=" stroke:none;fill-rule:nonzero;fill:rgb(96.078431%,68.235294%,27.058824%);fill-opacity:1;" />
<path d="M 224.398438 204 L 387.601562 204 L 387.601562 244.800781 L 224.398438 244.800781 Z M 224.398438 204 " style=" stroke:none;fill-rule:nonzero;fill:rgb(94.117647%,61.960784%,14.901961%);fill-opacity:1;" />
<path d="M 224.398438 224.398438 L 387.601562 224.398438 L 387.601562 244.800781 L 224.398438 244.800781 Z M 224.398438 224.398438 " style=" stroke:none;fill-rule:nonzero;fill:rgb(96.078431%,68.235294%,27.058824%);fill-opacity:1;" />
<path d="M 224.398438 163.199219 L 387.601562 163.199219 L 387.601562 204 L 224.398438 204 Z M 224.398438 163.199219 " style=" stroke:none;fill-rule:nonzero;fill:rgb(94.117647%,61.960784%,14.901961%);fill-opacity:1;" />
<path d="M 224.398438 183.601562 L 387.601562 183.601562 L 387.601562 204 L 224.398438 204 Z M 224.398438 183.601562 " style=" stroke:none;fill-rule:nonzero;fill:rgb(96.078431%,68.235294%,27.058824%);fill-opacity:1;" />
<path d="M 224.398438 122.398438 L 387.601562 122.398438 L 387.601562 163.199219 L 224.398438 163.199219 Z M 224.398438 122.398438 " style=" stroke:none;fill-rule:nonzero;fill:rgb(94.117647%,61.960784%,14.901961%);fill-opacity:1;" />
<path d="M 224.398438 142.800781 L 387.601562 142.800781 L 387.601562 163.199219 L 224.398438 163.199219 Z M 224.398438 142.800781 " style=" stroke:none;fill-rule:nonzero;fill:rgb(96.078431%,68.235294%,27.058824%);fill-opacity:1;" />
<path d="M 224.398438 285.601562 L 244.800781 285.601562 L 244.800781 306 L 224.398438 306 Z M 224.398438 285.601562 " style=" stroke:none;fill-rule:nonzero;fill:rgb(90.196078%,54.117647%,0%);fill-opacity:1;" />
<path d="M 224.398438 306 L 244.800781 306 L 244.800781 326.398438 L 224.398438 326.398438 Z M 224.398438 306 " style=" stroke:none;fill-rule:nonzero;fill:rgb(94.117647%,61.960784%,14.901961%);fill-opacity:1;" />
<path d="M 224.398438 244.800781 L 244.800781 244.800781 L 244.800781 265.199219 L 224.398438 265.199219 Z M 224.398438 244.800781 " style=" stroke:none;fill-rule:nonzero;fill:rgb(90.196078%,54.117647%,0%);fill-opacity:1;" />
<path d="M 224.398438 265.199219 L 244.800781 265.199219 L 244.800781 285.601562 L 224.398438 285.601562 Z M 224.398438 265.199219 " style=" stroke:none;fill-rule:nonzero;fill:rgb(94.117647%,61.960784%,14.901961%);fill-opacity:1;" />
<path d="M 224.398438 204 L 244.800781 204 L 244.800781 224.398438 L 224.398438 224.398438 Z M 224.398438 204 " style=" stroke:none;fill-rule:nonzero;fill:rgb(90.196078%,54.117647%,0%);fill-opacity:1;" />
<path d="M 224.398438 224.398438 L 244.800781 224.398438 L 244.800781 244.800781 L 224.398438 244.800781 Z M 224.398438 224.398438 " style=" stroke:none;fill-rule:nonzero;fill:rgb(94.117647%,61.960784%,14.901961%);fill-opacity:1;" />
<path d="M 224.398438 163.199219 L 244.800781 163.199219 L 244.800781 183.601562 L 224.398438 183.601562 Z M 224.398438 163.199219 " style=" stroke:none;fill-rule:nonzero;fill:rgb(90.196078%,54.117647%,0%);fill-opacity:1;" />
<path d="M 224.398438 183.601562 L 244.800781 183.601562 L 244.800781 204 L 224.398438 204 Z M 224.398438 183.601562 " style=" stroke:none;fill-rule:nonzero;fill:rgb(94.117647%,61.960784%,14.901961%);fill-opacity:1;" />
<path d="M 224.398438 122.398438 L 244.800781 122.398438 L 244.800781 142.800781 L 224.398438 142.800781 Z M 224.398438 122.398438 " style=" stroke:none;fill-rule:nonzero;fill:rgb(90.196078%,54.117647%,0%);fill-opacity:1;" />
<path d="M 224.398438 142.800781 L 244.800781 142.800781 L 244.800781 163.199219 L 224.398438 163.199219 Z M 224.398438 142.800781 " style=" stroke:none;fill-rule:nonzero;fill:rgb(94.117647%,61.960784%,14.901961%);fill-opacity:1;" />
<path d="M 224.398438 61.199219 L 387.601562 61.199219 L 387.601562 81.601562 L 224.398438 81.601562 Z M 224.398438 61.199219 " style=" stroke:none;fill-rule:nonzero;fill:rgb(94.117647%,61.960784%,14.901961%);fill-opacity:1;" />
<path d="M 479.398438 163.199219 L 499.800781 163.199219 L 499.800781 234.601562 L 479.398438 234.601562 Z M 479.398438 163.199219 " style=" stroke:none;fill-rule:nonzero;fill:rgb(96.078431%,68.235294%,27.058824%);fill-opacity:1;" />
<path d="M 112.199219 163.199219 L 132.601562 163.199219 L 132.601562 234.601562 L 112.199219 234.601562 Z M 112.199219 163.199219 " style=" stroke:none;fill-rule:nonzero;fill:rgb(94.117647%,61.960784%,14.901961%);fill-opacity:1;" />
</g>
</svg>