<svg xmlns="http://www.w3.org/2000/svg" height="612pt" version="1.1" viewBox="0 0 612.00001 612" width="612pt">
<g id="surface1">
<path d="M 122.398438 601.800781 L 244.800781 601.800781 L 244.800781 357 L 204 357 L 204 346.800781 C 204 335.53125 194.867188 326.398438 183.601562 326.398438 C 172.332031 326.398438 163.199219 335.53125 163.199219 346.800781 L 163.199219 357 L 122.398438 357 Z M 122.398438 601.800781 " style=" stroke:none;fill-rule:nonzero;fill:rgb(87.058824%,41.960784%,0%);fill-opacity:1;" />
<path d="M 173.398438 295.800781 L 193.800781 295.800781 L 193.800781 336.601562 L 173.398438 336.601562 Z M 173.398438 295.800781 " style=" stroke:none;fill-rule:nonzero;fill:rgb(87.058824%,41.960784%,0%);fill-opacity:1;" />
<path d="M 173.398438 387.601562 L 193.800781 387.601562 L 193.800781 408 L 173.398438 408 Z M 173.398438 387.601562 " style=" stroke:none;fill-rule:nonzero;fill:rgb(52.156863%,34.117647%,22.352941%);fill-opacity:1;" />
<path d="M 173.398438 428.398438 L 193.800781 428.398438 L 193.800781 448.800781 L 173.398438 448.800781 Z M 173.398438 428.398438 " style=" stroke:none;fill-rule:nonzero;fill:rgb(52.156863%,34.117647%,22.352941%);fill-opacity:1;" />
<path d="M 53.988281 252.011719 C 63.605469 242.394531 79.195312 242.394531 88.8125 252.011719 L 91.800781 255 L 112.199219 255 L 112.199219 163.199219 L 30.601562 163.199219 L 30.601562 255 L 51 255 Z M 53.988281 252.011719 " style=" stroke:none;fill-rule:nonzero;fill:rgb(87.058824%,41.960784%,0%);fill-opacity:1;" />
<path d="M 10.199219 153 L 132.601562 153 L 132.601562 173.398438 L 10.199219 173.398438 Z M 10.199219 153 " style=" stroke:none;fill-rule:nonzero;fill:rgb(87.058824%,41.960784%,0%);fill-opacity:1;" />
<path d="M 91.800781 255 L 88.8125 252.011719 C 79.195312 242.394531 63.605469 242.394531 53.988281 252.011719 L 51 255 L 20.398438 255 L 20.398438 601.800781 L 122.398438 601.800781 L 122.398438 255 Z M 91.800781 255 " style=" stroke:none;fill-rule:nonzero;fill:rgb(92.156863%,48.627451%,8.235294%);fill-opacity:1;" />
<path d="M 204 601.800781 L 204 550.800781 C 204 539.53125 194.867188 530.398438 183.601562 530.398438 C 172.332031 530.398438 163.199219 539.53125 163.199219 550.800781 L 163.199219 601.800781 Z M 204 601.800781 " style=" stroke:none;fill-rule:nonzero;fill:rgb(52.156863%,34.117647%,22.352941%);fill-opacity:1;" />
<path d="M 20.398438 102 L 122.398438 102 L 122.398438 122.398438 L 20.398438 122.398438 Z M 20.398438 102 " style=" stroke:none;fill-rule:nonzero;fill:rgb(87.058824%,41.960784%,0%);fill-opacity:1;" />
<path d="M 61.199219 0 L 81.601562 0 L 81.601562 81.601562 L 61.199219 81.601562 Z M 61.199219 0 " style=" stroke:none;fill-rule:nonzero;fill:rgb(87.058824%,41.960784%,0%);fill-opacity:1;" />
<path d="M 0 346.800781 L 122.398438 346.800781 L 122.398438 367.199219 L 0 367.199219 Z M 0 346.800781 " style=" stroke:none;fill-rule:nonzero;fill:rgb(92.156863%,48.627451%,8.235294%);fill-opacity:1;" />
<path d="M 61.199219 193.800781 L 81.601562 193.800781 L 81.601562 214.199219 L 61.199219 214.199219 Z M 61.199219 193.800781 " style=" stroke:none;fill-rule:nonzero;fill:rgb(52.156863%,34.117647%,22.352941%);fill-opacity:1;" />
<path d="M 61.199219 285.601562 L 81.601562 285.601562 L 81.601562 326.398438 L 61.199219 326.398438 Z M 61.199219 285.601562 " style=" stroke:none;fill-rule:nonzero;fill:rgb(52.156863%,34.117647%,22.352941%);fill-opacity:1;" />
<path d="M 61.199219 387.601562 L 81.601562 387.601562 L 81.601562 408 L 61.199219 408 Z M 61.199219 387.601562 " style=" stroke:none;fill-rule:nonzero;fill:rgb(52.156863%,34.117647%,22.352941%);fill-opacity:1;" />
<path d="M 61.199219 428.398438 L 81.601562 428.398438 L 81.601562 448.800781 L 61.199219 448.800781 Z M 61.199219 428.398438 " style=" stroke:none;fill-rule:nonzero;fill:rgb(52.156863%,34.117647%,22.352941%);fill-opacity:1;" />
<path d="M 61.199219 520.199219 L 81.601562 520.199219 L 81.601562 540.601562 L 61.199219 540.601562 Z M 61.199219 520.199219 " style=" stroke:none;fill-rule:nonzero;fill:rgb(52.156863%,34.117647%,22.352941%);fill-opacity:1;" />
<path d="M 61.199219 561 L 81.601562 561 L 81.601562 581.398438 L 61.199219 581.398438 Z M 61.199219 561 " style=" stroke:none;fill-rule:nonzero;fill:rgb(52.156863%,34.117647%,22.352941%);fill-opacity:1;" />
<path d="M 0 469.199219 L 122.398438 469.199219 L 122.398438 489.601562 L 0 489.601562 Z M 0 469.199219 " style=" stroke:none;fill-rule:nonzero;fill:rgb(92.156863%,48.627451%,8.235294%);fill-opacity:1;" />
<path d="M 40.800781 20.398438 L 102 20.398438 L 102 40.800781 L 40.800781 40.800781 Z M 40.800781 20.398438 " style=" stroke:none;fill-rule:nonzero;fill:rgb(87.058824%,41.960784%,0%);fill-opacity:1;" />
<path d="M 102 102 C 102 85.101562 88.300781 71.398438 71.398438 71.398438 C 54.5 71.398438 40.800781 85.101562 40.800781 102 L 40.800781 112.199219 L 102 112.199219 Z M 102 102 " style=" stroke:none;fill-rule:nonzero;fill:rgb(87.058824%,41.960784%,0%);fill-opacity:1;" />
<path d="M 40.800781 112.199219 L 102 112.199219 L 102 163.199219 L 40.800781 163.199219 Z M 40.800781 112.199219 " style=" stroke:none;fill-rule:nonzero;fill:rgb(87.058824%,41.960784%,0%);fill-opacity:1;" />
<path d="M 40.800781 122.398438 L 102 122.398438 L 102 142.800781 L 40.800781 142.800781 Z M 40.800781 122.398438 " style=" stroke:none;fill-rule:nonzero;fill:rgb(83.137255%,34.117647%,9.803922%);fill-opacity:1;" />
<path d="M 30.601562 173.398438 L 112.199219 173.398438 L 112.199219 193.800781 L 30.601562 193.800781 Z M 30.601562 173.398438 " style=" stroke:none;fill-rule:nonzero;fill:rgb(83.137255%,34.117647%,9.803922%);fill-opacity:1;" />
<path d="M 20.398438 255 L 122.398438 255 L 122.398438 285.601562 L 20.398438 285.601562 Z M 20.398438 255 " style=" stroke:none;fill-rule:nonzero;fill:rgb(87.058824%,41.960784%,0%);fill-opacity:1;" />
<path d="M 20.398438 367.199219 L 122.398438 367.199219 L 122.398438 387.601562 L 20.398438 387.601562 Z M 20.398438 367.199219 " style=" stroke:none;fill-rule:nonzero;fill:rgb(87.058824%,41.960784%,0%);fill-opacity:1;" />
<path d="M 142.800781 264.863281 L 91.800781 264.863281 C 89.09375 264.863281 86.5 263.785156 84.589844 261.875 L 81.601562 258.886719 C 75.886719 253.449219 66.914062 253.449219 61.199219 258.886719 L 58.210938 261.875 C 56.300781 263.785156 53.703125 264.863281 51 264.863281 L 0 264.863281 L 0 244.464844 L 46.777344 244.464844 C 60.566406 231.328125 82.234375 231.328125 96.023438 244.464844 L 142.800781 244.464844 Z M 142.800781 264.863281 " style=" stroke:none;fill-rule:nonzero;fill:rgb(92.156863%,48.627451%,8.235294%);fill-opacity:1;" />
<path d="M 489.601562 601.800781 L 367.199219 601.800781 L 367.199219 357 L 408 357 L 408 346.800781 C 408 335.53125 417.132812 326.398438 428.398438 326.398438 C 439.667969 326.398438 448.800781 335.53125 448.800781 346.800781 L 448.800781 357 L 489.601562 357 Z M 489.601562 601.800781 " style=" stroke:none;fill-rule:nonzero;fill:rgb(87.058824%,41.960784%,0%);fill-opacity:1;" />
<path d="M 418.199219 295.800781 L 438.601562 295.800781 L 438.601562 336.601562 L 418.199219 336.601562 Z M 418.199219 295.800781 " style=" stroke:none;fill-rule:nonzero;fill:rgb(87.058824%,41.960784%,0%);fill-opacity:1;" />
<path d="M 418.199219 387.601562 L 438.601562 387.601562 L 438.601562 408 L 418.199219 408 Z M 418.199219 387.601562 " style=" stroke:none;fill-rule:nonzero;fill:rgb(52.156863%,34.117647%,22.352941%);fill-opacity:1;" />
<path d="M 418.199219 428.398438 L 438.601562 428.398438 L 438.601562 448.800781 L 418.199219 448.800781 Z M 418.199219 428.398438 " style=" stroke:none;fill-rule:nonzero;fill:rgb(52.156863%,34.117647%,22.352941%);fill-opacity:1;" />
<path d="M 558.011719 252.011719 C 548.394531 242.394531 532.804688 242.394531 523.1875 252.011719 L 520.199219 255 L 499.800781 255 L 499.800781 163.199219 L 581.398438 163.199219 L 581.398438 255 L 561 255 Z M 558.011719 252.011719 " style=" stroke:none;fill-rule:nonzero;fill:rgb(87.058824%,41.960784%,0%);fill-opacity:1;" />
<path d="M 479.398438 153 L 601.800781 153 L 601.800781 173.398438 L 479.398438 173.398438 Z M 479.398438 153 " style=" stroke:none;fill-rule:nonzero;fill:rgb(87.058824%,41.960784%,0%);fill-opacity:1;" />
<path d="M 520.199219 255 L 523.1875 252.011719 C 532.804688 242.394531 548.394531 242.394531 558.011719 252.011719 L 561 255 L 591.601562 255 L 591.601562 601.800781 L 489.601562 601.800781 L 489.601562 255 Z M 520.199219 255 " style=" stroke:none;fill-rule:nonzero;fill:rgb(92.156863%,48.627451%,8.235294%);fill-opacity:1;" />
<path d="M 408 601.800781 L 408 550.800781 C 408 539.53125 417.132812 530.398438 428.398438 530.398438 C 439.667969 530.398438 448.800781 539.53125 448.800781 550.800781 L 448.800781 601.800781 Z M 408 601.800781 " style=" stroke:none;fill-rule:nonzero;fill:rgb(52.156863%,34.117647%,22.352941%);fill-opacity:1;" />
<path d="M 489.601562 102 L 591.601562 102 L 591.601562 122.398438 L 489.601562 122.398438 Z M 489.601562 102 " style=" stroke:none;fill-rule:nonzero;fill:rgb(87.058824%,41.960784%,0%);fill-opacity:1;" />
<path d="M 530.398438 0 L 550.800781 0 L 550.800781 81.601562 L 530.398438 81.601562 Z M 530.398438 0 " style=" stroke:none;fill-rule:nonzero;fill:rgb(87.058824%,41.960784%,0%);fill-opacity:1;" />
<path d="M 489.601562 346.800781 L 612 346.800781 L 612 367.199219 L 489.601562 367.199219 Z M 489.601562 346.800781 " style=" stroke:none;fill-rule:nonzero;fill:rgb(92.156863%,48.627451%,8.235294%);fill-opacity:1;" />
<path d="M 530.398438 193.800781 L 550.800781 193.800781 L 550.800781 214.199219 L 530.398438 214.199219 Z M 530.398438 193.800781 " style=" stroke:none;fill-rule:nonzero;fill:rgb(52.156863%,34.117647%,22.352941%);fill-opacity:1;" />
<path d="M 530.398438 285.601562 L 550.800781 285.601562 L 550.800781 326.398438 L 530.398438 326.398438 Z M 530.398438 285.601562 " style=" stroke:none;fill-rule:nonzero;fill:rgb(52.156863%,34.117647%,22.352941%);fill-opacity:1;" />
<path d="M 530.398438 387.601562 L 550.800781 387.601562 L 550.800781 408 L 530.398438 408 Z M 530.398438 387.601562 " style=" stroke:none;fill-rule:nonzero;fill:rgb(52.156863%,34.117647%,22.352941%);fill-opacity:1;" />
<path d="M 530.398438 428.398438 L 550.800781 428.398438 L 550.800781 448.800781 L 530.398438 448.800781 Z M 530.398438 428.398438 " style=" stroke:none;fill-rule:nonzero;fill:rgb(52.156863%,34.117647%,22.352941%);fill-opacity:1;" />
<path d="M 530.398438 520.199219 L 550.800781 520.199219 L 550.800781 540.601562 L 530.398438 540.601562 Z M 530.398438 520.199219 " style=" stroke:none;fill-rule:nonzero;fill:rgb(52.156863%,34.117647%,22.352941%);fill-opacity:1;" />
<path d="M 530.398438 561 L 550.800781 561 L 550.800781 581.398438 L 530.398438 581.398438 Z M 530.398438 561 " style=" stroke:none;fill-rule:nonzero;fill:rgb(52.156863%,34.117647%,22.352941%);fill-opacity:1;" />
<path d="M 489.601562 469.199219 L 612 469.199219 L 612 489.601562 L 489.601562 489.601562 Z M 489.601562 469.199219 " style=" stroke:none;fill-rule:nonzero;fill:rgb(92.156863%,48.627451%,8.235294%);fill-opacity:1;" />
<path d="M 510 20.398438 L 571.199219 20.398438 L 571.199219 40.800781 L 510 40.800781 Z M 510 20.398438 " style=" stroke:none;fill-rule:nonzero;fill:rgb(87.058824%,41.960784%,0%);fill-opacity:1;" />
<path d="M 510 102 C 510 85.101562 523.699219 71.398438 540.601562 71.398438 C 557.5 71.398438 571.199219 85.101562 571.199219 102 L 571.199219 112.199219 L 510 112.199219 Z M 510 102 " style=" stroke:none;fill-rule:nonzero;fill:rgb(87.058824%,41.960784%,0%);fill-opacity:1;" />
<path d="M 510 112.199219 L 571.199219 112.199219 L 571.199219 163.199219 L 510 163.199219 Z M 510 112.199219 " style=" stroke:none;fill-rule:nonzero;fill:rgb(87.058824%,41.960784%,0%);fill-opacity:1;" />
<path d="M 510 122.398438 L 571.199219 122.398438 L 571.199219 142.800781 L 510 142.800781 Z M 510 122.398438 " style=" stroke:none;fill-rule:nonzero;fill:rgb(83.137255%,34.117647%,9.803922%);fill-opacity:1;" />
<path d="M 499.800781 173.398438 L 581.398438 173.398438 L 581.398438 193.800781 L 499.800781 193.800781 Z M 499.800781 173.398438 " style=" stroke:none;fill-rule:nonzero;fill:rgb(83.137255%,34.117647%,9.803922%);fill-opacity:1;" />
<path d="M 489.601562 255 L 591.601562 255 L 591.601562 285.601562 L 489.601562 285.601562 Z M 489.601562 255 " style=" stroke:none;fill-rule:nonzero;fill:rgb(87.058824%,41.960784%,0%);fill-opacity:1;" />
<path d="M 489.601562 367.199219 L 591.601562 367.199219 L 591.601562 387.601562 L 489.601562 387.601562 Z M 489.601562 367.199219 " style=" stroke:none;fill-rule:nonzero;fill:rgb(87.058824%,41.960784%,0%);fill-opacity:1;" />
<path d="M 469.199219 264.863281 L 520.199219 264.863281 C 522.90625 264.863281 525.5 263.785156 527.410156 261.875 L 530.398438 258.886719 C 536.113281 253.449219 545.085938 253.449219 550.800781 258.886719 L 553.789062 261.875 C 555.699219 263.785156 558.296875 264.863281 561 264.863281 L 612 264.863281 L 612 244.464844 L 565.222656 244.464844 C 551.433594 231.328125 529.765625 231.328125 515.976562 244.464844 L 469.199219 244.464844 Z M 469.199219 264.863281 " style=" stroke:none;fill-rule:nonzero;fill:rgb(92.156863%,48.627451%,8.235294%);fill-opacity:1;" />
<path d="M 367.199219 601.800781 L 244.800781 601.800781 L 244.800781 326.398438 L 285.601562 326.398438 L 285.601562 295.800781 L 306 275.398438 L 326.398438 295.800781 L 326.398438 326.398438 L 367.199219 326.398438 Z M 367.199219 601.800781 " style=" stroke:none;fill-rule:nonzero;fill:rgb(92.156863%,48.627451%,8.235294%);fill-opacity:1;" />
<path d="M 234.601562 265.199219 L 255 265.199219 L 255 591.601562 L 234.601562 591.601562 Z M 234.601562 265.199219 " style=" stroke:none;fill-rule:nonzero;fill:rgb(92.156863%,48.627451%,8.235294%);fill-opacity:1;" />
<path d="M 357 265.199219 L 377.398438 265.199219 L 377.398438 591.601562 L 357 591.601562 Z M 357 265.199219 " style=" stroke:none;fill-rule:nonzero;fill:rgb(92.156863%,48.627451%,8.235294%);fill-opacity:1;" />
<path d="M 295.800781 183.601562 L 316.199219 183.601562 L 316.199219 306 L 295.800781 306 Z M 295.800781 183.601562 " style=" stroke:none;fill-rule:nonzero;fill:rgb(92.156863%,48.627451%,8.235294%);fill-opacity:1;" />
<path d="M 295.800781 357 L 316.199219 357 L 316.199219 377.398438 L 295.800781 377.398438 Z M 295.800781 357 " style=" stroke:none;fill-rule:nonzero;fill:rgb(52.156863%,34.117647%,22.352941%);fill-opacity:1;" />
<path d="M 275.398438 397.800781 L 295.800781 397.800781 L 295.800781 448.800781 L 275.398438 448.800781 Z M 275.398438 397.800781 " style=" stroke:none;fill-rule:nonzero;fill:rgb(52.156863%,34.117647%,22.352941%);fill-opacity:1;" />
<path d="M 316.199219 397.800781 L 336.601562 397.800781 L 336.601562 448.800781 L 316.199219 448.800781 Z M 316.199219 397.800781 " style=" stroke:none;fill-rule:nonzero;fill:rgb(52.156863%,34.117647%,22.352941%);fill-opacity:1;" />
<path d="M 306 275.398438 C 294.734375 275.398438 285.601562 266.265625 285.601562 255 C 285.601562 243.734375 294.734375 234.601562 306 234.601562 C 317.265625 234.601562 326.398438 243.734375 326.398438 255 C 326.398438 266.265625 317.265625 275.398438 306 275.398438 Z M 306 275.398438 " style=" stroke:none;fill-rule:nonzero;fill:rgb(92.156863%,48.627451%,8.235294%);fill-opacity:1;" />
<path d="M 326.398438 601.800781 L 326.398438 540.601562 C 326.398438 529.332031 317.265625 520.199219 306 520.199219 C 294.734375 520.199219 285.601562 529.332031 285.601562 540.601562 L 285.601562 601.800781 Z M 326.398438 601.800781 " style=" stroke:none;fill-rule:nonzero;fill:rgb(52.156863%,34.117647%,22.352941%);fill-opacity:1;" />
<path d="M 20.398438 489.601562 L 591.601562 489.601562 L 591.601562 510 L 20.398438 510 Z M 20.398438 489.601562 " style=" stroke:none;fill-rule:nonzero;fill:rgb(87.058824%,41.960784%,0%);fill-opacity:1;" />
<path d="M 0 591.601562 L 612 591.601562 L 612 612 L 0 612 Z M 0 591.601562 " style=" stroke:none;fill-rule:nonzero;fill:rgb(94.901961%,52.941176%,14.117647%);fill-opacity:1;" />
<path d="M 122.398438 469.199219 L 234.601562 469.199219 L 234.601562 489.601562 L 122.398438 489.601562 Z M 122.398438 469.199219 " style=" stroke:none;fill-rule:nonzero;fill:rgb(92.156863%,48.627451%,8.235294%);fill-opacity:1;" />
<path d="M 377.398438 469.199219 L 489.601562 469.199219 L 489.601562 489.601562 L 377.398438 489.601562 Z M 377.398438 469.199219 " style=" stroke:none;fill-rule:nonzero;fill:rgb(92.156863%,48.627451%,8.235294%);fill-opacity:1;" />
<path d="M 234.601562 469.199219 L 377.398438 469.199219 L 377.398438 489.601562 L 234.601562 489.601562 Z M 234.601562 469.199219 " style=" stroke:none;fill-rule:nonzero;fill:rgb(94.901961%,52.941176%,14.117647%);fill-opacity:1;" />
</g>
</svg>