<svg xmlns="http://www.w3.org/2000/svg" height="612pt" version="1.1" viewBox="-10 0 612 612" width="612pt">
<g id="surface1">
<path d="M 423.300781 612 L 397.800781 550.800781 L 193.800781 550.800781 L 168.300781 612 Z M 423.300781 612 " style=" stroke:none;fill-rule:nonzero;fill:rgb(26.27451%,58.039216%,80%);fill-opacity:1;" />
<path d="M 377.398438 193.800781 L 214.199219 193.800781 C 214.199219 168.3125 226.9375 144.507812 248.144531 130.367188 L 275.398438 112.199219 L 316.199219 112.199219 L 343.453125 130.367188 C 364.660156 144.507812 377.398438 168.3125 377.398438 193.800781 Z M 377.398438 193.800781 " style=" stroke:none;fill-rule:nonzero;fill:rgb(24.313725%,53.72549%,74.117647%);fill-opacity:1;" />
<path d="M 275.398438 71.398438 L 316.199219 71.398438 L 316.199219 132.601562 L 275.398438 132.601562 Z M 275.398438 71.398438 " style=" stroke:none;fill-rule:nonzero;fill:rgb(24.313725%,53.72549%,74.117647%);fill-opacity:1;" />
<path d="M 326.398438 20.398438 L 306 20.398438 L 306 0 L 285.601562 0 L 285.601562 20.398438 L 265.199219 20.398438 L 265.199219 40.800781 L 285.601562 40.800781 L 285.601562 71.398438 L 306 71.398438 L 306 40.800781 L 326.398438 40.800781 Z M 326.398438 20.398438 " style=" stroke:none;fill-rule:nonzero;fill:rgb(76.470588%,78.823529%,81.960784%);fill-opacity:1;" />
<path d="M 346.636719 132.785156 C 323.144531 159.167969 294.085938 180.007812 261.558594 193.800781 L 377.398438 193.800781 C 377.355469 169.742188 365.953125 147.121094 346.636719 132.785156 Z M 346.636719 132.785156 " style=" stroke:none;fill-rule:nonzero;fill:rgb(21.176471%,47.058824%,65.098039%);fill-opacity:1;" />
<path d="M 81.601562 0 L 102 0 L 102 40.800781 L 81.601562 40.800781 Z M 81.601562 0 " style=" stroke:none;fill-rule:nonzero;fill:rgb(76.470588%,78.823529%,81.960784%);fill-opacity:1;" />
<path d="M 489.601562 0 L 510 0 L 510 40.800781 L 489.601562 40.800781 Z M 489.601562 0 " style=" stroke:none;fill-rule:nonzero;fill:rgb(76.470588%,78.823529%,81.960784%);fill-opacity:1;" />
<path d="M 459 91.800781 L 540.601562 91.800781 L 540.601562 173.398438 L 459 173.398438 Z M 459 91.800781 " style=" stroke:none;fill-rule:nonzero;fill:rgb(24.313725%,53.72549%,74.117647%);fill-opacity:1;" />
<path d="M 540.601562 91.800781 L 526.644531 49.980469 C 522.804688 38.410156 511.988281 30.601562 499.800781 30.601562 C 487.609375 30.601562 476.792969 38.410156 472.953125 49.980469 L 459 91.800781 Z M 540.601562 91.800781 " style=" stroke:none;fill-rule:nonzero;fill:rgb(26.27451%,58.039216%,80%);fill-opacity:1;" />
<path d="M 51 91.800781 L 132.601562 91.800781 L 132.601562 173.398438 L 51 173.398438 Z M 51 91.800781 " style=" stroke:none;fill-rule:nonzero;fill:rgb(24.313725%,53.72549%,74.117647%);fill-opacity:1;" />
<path d="M 51 91.800781 L 64.953125 49.980469 C 68.792969 38.410156 79.609375 30.601562 91.800781 30.601562 C 103.988281 30.601562 114.804688 38.410156 118.644531 49.980469 L 132.601562 91.800781 Z M 51 91.800781 " style=" stroke:none;fill-rule:nonzero;fill:rgb(26.27451%,58.039216%,80%);fill-opacity:1;" />
<path d="M 489.601562 122.398438 L 510 122.398438 L 510 163.199219 L 489.601562 163.199219 Z M 489.601562 122.398438 " style=" stroke:none;fill-rule:nonzero;fill:rgb(21.176471%,47.058824%,65.098039%);fill-opacity:1;" />
<path d="M 30.601562 81.601562 L 153 81.601562 L 153 102 L 30.601562 102 Z M 30.601562 81.601562 " style=" stroke:none;fill-rule:nonzero;fill:rgb(26.27451%,58.039216%,80%);fill-opacity:1;" />
<path d="M 438.601562 81.601562 L 561 81.601562 L 561 102 L 438.601562 102 Z M 438.601562 81.601562 " style=" stroke:none;fill-rule:nonzero;fill:rgb(26.27451%,58.039216%,80%);fill-opacity:1;" />
<path d="M 81.601562 122.398438 L 102 122.398438 L 102 163.199219 L 81.601562 163.199219 Z M 81.601562 122.398438 " style=" stroke:none;fill-rule:nonzero;fill:rgb(21.176471%,47.058824%,65.098039%);fill-opacity:1;" />
<path d="M 10.199219 540.601562 L 581.398438 540.601562 L 581.398438 561 L 10.199219 561 Z M 10.199219 540.601562 " style=" stroke:none;fill-rule:nonzero;fill:rgb(26.27451%,58.039216%,80%);fill-opacity:1;" />
<path d="M 438.601562 601.800781 L 561 601.800781 L 561 275.398438 L 438.601562 275.398438 Z M 438.601562 601.800781 " style=" stroke:none;fill-rule:nonzero;fill:rgb(26.27451%,58.039216%,80%);fill-opacity:1;" />
<path d="M 438.601562 275.398438 L 561 275.398438 L 561 173.398438 L 540.601562 173.398438 L 534.621094 167.421875 C 525.386719 158.1875 512.859375 153 499.800781 153 C 486.738281 153 474.214844 158.1875 464.976562 167.421875 L 459 173.398438 L 438.601562 173.398438 Z M 438.601562 275.398438 " style=" stroke:none;fill-rule:nonzero;fill:rgb(26.27451%,58.039216%,80%);fill-opacity:1;" />
<path d="M 153 601.800781 L 30.601562 601.800781 L 30.601562 275.398438 L 153 275.398438 Z M 153 601.800781 " style=" stroke:none;fill-rule:nonzero;fill:rgb(26.27451%,58.039216%,80%);fill-opacity:1;" />
<path d="M 10.199219 397.800781 L 581.398438 397.800781 L 581.398438 418.199219 L 10.199219 418.199219 Z M 10.199219 397.800781 " style=" stroke:none;fill-rule:nonzero;fill:rgb(26.27451%,58.039216%,80%);fill-opacity:1;" />
<path d="M 0 591.601562 L 591.601562 591.601562 L 591.601562 612 L 0 612 Z M 0 591.601562 " style=" stroke:none;fill-rule:nonzero;fill:rgb(26.27451%,58.039216%,80%);fill-opacity:1;" />
<path d="M 153 275.398438 L 30.601562 275.398438 L 30.601562 173.398438 L 51 173.398438 L 56.976562 167.421875 C 66.214844 158.1875 78.738281 153 91.800781 153 C 104.859375 153 117.386719 158.1875 126.621094 167.421875 L 132.601562 173.398438 L 153 173.398438 Z M 153 275.398438 " style=" stroke:none;fill-rule:nonzero;fill:rgb(26.27451%,58.039216%,80%);fill-opacity:1;" />
<path d="M 10.199219 265.199219 L 153 265.199219 L 153 285.601562 L 10.199219 285.601562 Z M 10.199219 265.199219 " style=" stroke:none;fill-rule:nonzero;fill:rgb(26.27451%,58.039216%,80%);fill-opacity:1;" />
<path d="M 438.601562 265.199219 L 581.398438 265.199219 L 581.398438 285.601562 L 438.601562 285.601562 Z M 438.601562 265.199219 " style=" stroke:none;fill-rule:nonzero;fill:rgb(26.27451%,58.039216%,80%);fill-opacity:1;" />
<path d="M 438.601562 285.601562 L 561 285.601562 L 561 306 L 438.601562 306 Z M 438.601562 285.601562 " style=" stroke:none;fill-rule:nonzero;fill:rgb(24.313725%,53.72549%,74.117647%);fill-opacity:1;" />
<path d="M 438.601562 418.199219 L 561 418.199219 L 561 438.601562 L 438.601562 438.601562 Z M 438.601562 418.199219 " style=" stroke:none;fill-rule:nonzero;fill:rgb(24.313725%,53.72549%,74.117647%);fill-opacity:1;" />
<path d="M 438.601562 561 L 561 561 L 561 581.398438 L 438.601562 581.398438 Z M 438.601562 561 " style=" stroke:none;fill-rule:nonzero;fill:rgb(24.313725%,53.72549%,74.117647%);fill-opacity:1;" />
<path d="M 193.800781 193.800781 L 397.800781 193.800781 L 397.800781 285.601562 L 193.800781 285.601562 Z M 193.800781 193.800781 " style=" stroke:none;fill-rule:nonzero;fill:rgb(21.176471%,47.058824%,65.098039%);fill-opacity:1;" />
<path d="M 408 285.601562 L 183.601562 285.601562 L 183.601562 183.601562 L 408 183.601562 Z M 204 265.199219 L 387.601562 265.199219 L 387.601562 204 L 204 204 Z M 204 265.199219 " style=" stroke:none;fill-rule:nonzero;fill:rgb(26.27451%,58.039216%,80%);fill-opacity:1;" />
<path d="M 265.199219 193.800781 L 285.601562 193.800781 L 285.601562 275.398438 L 265.199219 275.398438 Z M 265.199219 193.800781 " style=" stroke:none;fill-rule:nonzero;fill:rgb(26.27451%,58.039216%,80%);fill-opacity:1;" />
<path d="M 306 193.800781 L 326.398438 193.800781 L 326.398438 275.398438 L 306 275.398438 Z M 306 193.800781 " style=" stroke:none;fill-rule:nonzero;fill:rgb(26.27451%,58.039216%,80%);fill-opacity:1;" />
<path d="M 224.398438 193.800781 L 244.800781 193.800781 L 244.800781 275.398438 L 224.398438 275.398438 Z M 224.398438 193.800781 " style=" stroke:none;fill-rule:nonzero;fill:rgb(26.27451%,58.039216%,80%);fill-opacity:1;" />
<path d="M 346.800781 193.800781 L 367.199219 193.800781 L 367.199219 275.398438 L 346.800781 275.398438 Z M 346.800781 193.800781 " style=" stroke:none;fill-rule:nonzero;fill:rgb(26.27451%,58.039216%,80%);fill-opacity:1;" />
<path d="M 163.199219 295.800781 L 428.398438 295.800781 L 428.398438 550.800781 L 163.199219 550.800781 Z M 163.199219 295.800781 " style=" stroke:none;fill-rule:nonzero;fill:rgb(24.313725%,53.72549%,74.117647%);fill-opacity:1;" />
<path d="M 479.398438 367.199219 L 520.199219 367.199219 L 520.199219 336.601562 L 499.800781 316.199219 L 479.398438 336.601562 Z M 479.398438 367.199219 " style=" stroke:none;fill-rule:nonzero;fill:rgb(21.176471%,47.058824%,65.098039%);fill-opacity:1;" />
<path d="M 520.199219 510 L 479.398438 510 L 479.398438 479.398438 C 479.398438 468.132812 488.53125 459 499.800781 459 C 511.066406 459 520.199219 468.132812 520.199219 479.398438 Z M 520.199219 510 " style=" stroke:none;fill-rule:nonzero;fill:rgb(21.176471%,47.058824%,65.098039%);fill-opacity:1;" />
<path d="M 520.199219 214.199219 C 520.199219 225.464844 511.066406 234.601562 499.800781 234.601562 C 488.535156 234.601562 479.398438 225.464844 479.398438 214.199219 C 479.398438 202.933594 488.535156 193.800781 499.800781 193.800781 C 511.066406 193.800781 520.199219 202.933594 520.199219 214.199219 Z M 520.199219 214.199219 " style=" stroke:none;fill-rule:nonzero;fill:rgb(21.176471%,47.058824%,65.098039%);fill-opacity:1;" />
<path d="M 112.199219 367.199219 L 71.398438 367.199219 L 71.398438 336.601562 L 91.800781 316.199219 L 112.199219 336.601562 Z M 112.199219 367.199219 " style=" stroke:none;fill-rule:nonzero;fill:rgb(21.176471%,47.058824%,65.098039%);fill-opacity:1;" />
<path d="M 91.800781 459 C 103.066406 459 112.199219 468.132812 112.199219 479.398438 L 112.199219 510 L 71.398438 510 L 71.398438 479.398438 C 71.398438 468.132812 80.53125 459 91.800781 459 Z M 91.800781 459 " style=" stroke:none;fill-rule:nonzero;fill:rgb(21.176471%,47.058824%,65.098039%);fill-opacity:1;" />
<path d="M 112.199219 214.199219 C 112.199219 225.464844 103.066406 234.601562 91.800781 234.601562 C 80.535156 234.601562 71.398438 225.464844 71.398438 214.199219 C 71.398438 202.933594 80.535156 193.800781 91.800781 193.800781 C 103.066406 193.800781 112.199219 202.933594 112.199219 214.199219 Z M 112.199219 214.199219 " style=" stroke:none;fill-rule:nonzero;fill:rgb(21.176471%,47.058824%,65.098039%);fill-opacity:1;" />
<path d="M 30.601562 285.601562 L 153 285.601562 L 153 306 L 30.601562 306 Z M 30.601562 285.601562 " style=" stroke:none;fill-rule:nonzero;fill:rgb(24.313725%,53.72549%,74.117647%);fill-opacity:1;" />
<path d="M 30.601562 418.199219 L 153 418.199219 L 153 438.601562 L 30.601562 438.601562 Z M 30.601562 418.199219 " style=" stroke:none;fill-rule:nonzero;fill:rgb(24.313725%,53.72549%,74.117647%);fill-opacity:1;" />
<path d="M 30.601562 561 L 153 561 L 153 581.398438 L 30.601562 581.398438 Z M 30.601562 561 " style=" stroke:none;fill-rule:nonzero;fill:rgb(24.313725%,53.72549%,74.117647%);fill-opacity:1;" />
<path d="M 275.398438 357 L 316.199219 357 L 316.199219 408 L 275.398438 408 Z M 275.398438 357 " style=" stroke:none;fill-rule:nonzero;fill:rgb(21.176471%,47.058824%,65.098039%);fill-opacity:1;" />
<path d="M 275.398438 499.800781 L 316.199219 499.800781 L 316.199219 550.800781 L 275.398438 550.800781 Z M 275.398438 499.800781 " style=" stroke:none;fill-rule:nonzero;fill:rgb(21.176471%,47.058824%,65.098039%);fill-opacity:1;" />
<path d="M 193.800781 499.800781 L 234.601562 499.800781 L 234.601562 550.800781 L 193.800781 550.800781 Z M 193.800781 499.800781 " style=" stroke:none;fill-rule:nonzero;fill:rgb(21.176471%,47.058824%,65.098039%);fill-opacity:1;" />
<path d="M 357 499.800781 L 397.800781 499.800781 L 397.800781 550.800781 L 357 550.800781 Z M 357 499.800781 " style=" stroke:none;fill-rule:nonzero;fill:rgb(21.176471%,47.058824%,65.098039%);fill-opacity:1;" />
<path d="M 438.601562 306 L 153 306 L 153 275.398438 L 295.800781 244.800781 L 438.601562 275.398438 Z M 438.601562 306 " style=" stroke:none;fill-rule:nonzero;fill:rgb(76.470588%,78.823529%,81.960784%);fill-opacity:1;" />
<path d="M 234.601562 306 L 275.398438 306 L 275.398438 408 L 234.601562 408 Z M 234.601562 306 " style=" stroke:none;fill-rule:nonzero;fill:rgb(76.470588%,78.823529%,81.960784%);fill-opacity:1;" />
<path d="M 153 306 L 193.800781 306 L 193.800781 408 L 153 408 Z M 153 306 " style=" stroke:none;fill-rule:nonzero;fill:rgb(76.470588%,78.823529%,81.960784%);fill-opacity:1;" />
<path d="M 316.199219 306 L 357 306 L 357 408 L 316.199219 408 Z M 316.199219 306 " style=" stroke:none;fill-rule:nonzero;fill:rgb(76.470588%,78.823529%,81.960784%);fill-opacity:1;" />
<path d="M 397.800781 306 L 438.601562 306 L 438.601562 408 L 397.800781 408 Z M 397.800781 306 " style=" stroke:none;fill-rule:nonzero;fill:rgb(76.470588%,78.823529%,81.960784%);fill-opacity:1;" />
<path d="M 234.601562 448.800781 L 275.398438 448.800781 L 275.398438 550.800781 L 234.601562 550.800781 Z M 234.601562 448.800781 " style=" stroke:none;fill-rule:nonzero;fill:rgb(76.470588%,78.823529%,81.960784%);fill-opacity:1;" />
<path d="M 153 448.800781 L 193.800781 448.800781 L 193.800781 550.800781 L 153 550.800781 Z M 153 448.800781 " style=" stroke:none;fill-rule:nonzero;fill:rgb(76.470588%,78.823529%,81.960784%);fill-opacity:1;" />
<path d="M 316.199219 448.800781 L 357 448.800781 L 357 550.800781 L 316.199219 550.800781 Z M 316.199219 448.800781 " style=" stroke:none;fill-rule:nonzero;fill:rgb(76.470588%,78.823529%,81.960784%);fill-opacity:1;" />
<path d="M 397.800781 448.800781 L 438.601562 448.800781 L 438.601562 550.800781 L 397.800781 550.800781 Z M 397.800781 448.800781 " style=" stroke:none;fill-rule:nonzero;fill:rgb(76.470588%,78.823529%,81.960784%);fill-opacity:1;" />
<path d="M 153 397.800781 L 438.601562 397.800781 L 438.601562 448.800781 L 153 448.800781 Z M 153 397.800781 " style=" stroke:none;fill-rule:nonzero;fill:rgb(76.470588%,78.823529%,81.960784%);fill-opacity:1;" />
<path d="M 193.800781 550.800781 L 153 550.800781 L 127.5 612 L 168.300781 612 Z M 193.800781 550.800781 " style=" stroke:none;fill-rule:nonzero;fill:rgb(76.470588%,78.823529%,81.960784%);fill-opacity:1;" />
<path d="M 464.101562 612 L 438.601562 550.800781 L 397.800781 550.800781 L 423.300781 612 Z M 464.101562 612 " style=" stroke:none;fill-rule:nonzero;fill:rgb(76.470588%,78.823529%,81.960784%);fill-opacity:1;" />
</g>
</svg>