<svg xmlns="http://www.w3.org/2000/svg" height="612pt" version="1.1" viewBox="0 -102 612.00002 612" width="612pt">
<g id="surface1">
<path d="M 387.601562 183.601562 L 224.398438 183.601562 L 215.984375 135.894531 C 210.738281 111.722656 222.136719 86.996094 243.921875 75.285156 L 306 40.800781 L 368.078125 75.285156 C 389.863281 86.996094 401.261719 111.722656 396.015625 135.894531 Z M 387.601562 183.601562 " style=" stroke:none;fill-rule:nonzero;fill:rgb(64.313725%,69.019608%,74.901961%);fill-opacity:1;" />
<path d="M 91.800781 193.800781 L 112.199219 193.800781 L 112.199219 357 L 91.800781 357 Z M 91.800781 193.800781 " style=" stroke:none;fill-rule:nonzero;fill:rgb(64.313725%,69.019608%,74.901961%);fill-opacity:1;" />
<path d="M 132.601562 193.800781 L 153 193.800781 L 153 234.601562 L 132.601562 234.601562 Z M 132.601562 193.800781 " style=" stroke:none;fill-rule:nonzero;fill:rgb(64.313725%,69.019608%,74.901961%);fill-opacity:1;" />
<path d="M 499.800781 193.800781 L 520.199219 193.800781 L 520.199219 357 L 499.800781 357 Z M 499.800781 193.800781 " style=" stroke:none;fill-rule:nonzero;fill:rgb(64.313725%,69.019608%,74.901961%);fill-opacity:1;" />
<path d="M 459 193.800781 L 479.398438 193.800781 L 479.398438 234.601562 L 459 234.601562 Z M 459 193.800781 " style=" stroke:none;fill-rule:nonzero;fill:rgb(64.313725%,69.019608%,74.901961%);fill-opacity:1;" />
<path d="M 91.800781 224.398438 L 142.800781 224.398438 L 142.800781 357 L 91.800781 357 Z M 91.800781 224.398438 " style=" stroke:none;fill-rule:nonzero;fill:rgb(76.470588%,78.823529%,81.960784%);fill-opacity:1;" />
<path d="M 469.199219 224.398438 L 520.199219 224.398438 L 520.199219 357 L 469.199219 357 Z M 469.199219 224.398438 " style=" stroke:none;fill-rule:nonzero;fill:rgb(76.470588%,78.823529%,81.960784%);fill-opacity:1;" />
<path d="M 224.398438 234.601562 L 183.601562 234.601562 L 183.601562 216.605469 C 183.601562 202.628906 191.496094 189.851562 204 183.601562 C 216.503906 189.851562 224.398438 202.628906 224.398438 216.605469 Z M 224.398438 234.601562 " style=" stroke:none;fill-rule:nonzero;fill:rgb(64.313725%,69.019608%,74.901961%);fill-opacity:1;" />
<path d="M 387.601562 234.601562 L 428.398438 234.601562 L 428.398438 216.605469 C 428.398438 202.628906 420.503906 189.851562 408 183.601562 C 395.496094 189.851562 387.601562 202.628906 387.601562 216.605469 Z M 387.601562 234.601562 " style=" stroke:none;fill-rule:nonzero;fill:rgb(64.313725%,69.019608%,74.901961%);fill-opacity:1;" />
<path d="M 295.800781 0 L 316.199219 0 L 316.199219 51 L 295.800781 51 Z M 295.800781 0 " style=" stroke:none;fill-rule:nonzero;fill:rgb(64.313725%,69.019608%,74.901961%);fill-opacity:1;" />
<path d="M 295.800781 142.800781 L 316.199219 142.800781 L 316.199219 193.800781 L 295.800781 193.800781 Z M 295.800781 142.800781 " style=" stroke:none;fill-rule:nonzero;fill:rgb(47.45098%,55.294118%,63.137255%);fill-opacity:1;" />
<path d="M 255 142.800781 L 275.398438 142.800781 L 275.398438 193.800781 L 255 193.800781 Z M 255 142.800781 " style=" stroke:none;fill-rule:nonzero;fill:rgb(47.45098%,55.294118%,63.137255%);fill-opacity:1;" />
<path d="M 336.601562 142.800781 L 357 142.800781 L 357 193.800781 L 336.601562 193.800781 Z M 336.601562 142.800781 " style=" stroke:none;fill-rule:nonzero;fill:rgb(47.45098%,55.294118%,63.137255%);fill-opacity:1;" />
<path d="M 368.078125 75.285156 L 361.078125 71.398438 L 250.921875 71.398438 L 243.921875 75.285156 C 236.625 79.378906 230.3125 85.011719 225.421875 91.800781 L 386.578125 91.800781 C 381.6875 85.015625 375.375 79.378906 368.078125 75.285156 Z M 368.078125 75.285156 " style=" stroke:none;fill-rule:nonzero;fill:rgb(76.470588%,78.823529%,81.960784%);fill-opacity:1;" />
<path d="M 215.976562 135.894531 L 219.035156 153 L 392.996094 153 L 396.054688 135.894531 C 396.238281 134.804688 396.289062 133.691406 396.433594 132.601562 L 215.597656 132.601562 C 215.738281 133.691406 215.789062 134.804688 215.976562 135.894531 Z M 215.976562 135.894531 " style=" stroke:none;fill-rule:nonzero;fill:rgb(76.470588%,78.823529%,81.960784%);fill-opacity:1;" />
<path d="M 20.398438 173.398438 L 20.398438 155.40625 C 20.398438 141.429688 28.296875 128.652344 40.800781 122.398438 C 53.300781 128.652344 61.199219 141.429688 61.199219 155.40625 L 61.199219 173.398438 Z M 20.398438 173.398438 " style=" stroke:none;fill-rule:nonzero;fill:rgb(64.313725%,69.019608%,74.901961%);fill-opacity:1;" />
<path d="M 30.601562 91.800781 L 51 91.800781 L 51 142.800781 L 30.601562 142.800781 Z M 30.601562 91.800781 " style=" stroke:none;fill-rule:nonzero;fill:rgb(64.313725%,69.019608%,74.901961%);fill-opacity:1;" />
<path d="M 550.800781 173.398438 L 550.800781 155.40625 C 550.800781 141.429688 558.699219 128.652344 571.199219 122.398438 C 583.703125 128.652344 591.601562 141.429688 591.601562 155.40625 L 591.601562 173.398438 Z M 550.800781 173.398438 " style=" stroke:none;fill-rule:nonzero;fill:rgb(64.313725%,69.019608%,74.901961%);fill-opacity:1;" />
<path d="M 561 91.800781 L 581.398438 91.800781 L 581.398438 142.800781 L 561 142.800781 Z M 561 91.800781 " style=" stroke:none;fill-rule:nonzero;fill:rgb(64.313725%,69.019608%,74.901961%);fill-opacity:1;" />
<path d="M 224.398438 183.601562 L 387.601562 183.601562 L 387.601562 357 L 224.398438 357 Z M 224.398438 183.601562 " style=" stroke:none;fill-rule:nonzero;fill:rgb(76.470588%,78.823529%,81.960784%);fill-opacity:1;" />
<path d="M 265.199219 224.398438 L 346.800781 224.398438 L 346.800781 357 L 265.199219 357 Z M 265.199219 224.398438 " style=" stroke:none;fill-rule:nonzero;fill:rgb(47.45098%,55.294118%,63.137255%);fill-opacity:1;" />
<path d="M 10.199219 357 L 601.800781 357 L 601.800781 408 L 10.199219 408 Z M 10.199219 357 " style=" stroke:none;fill-rule:nonzero;fill:rgb(64.313725%,69.019608%,74.901961%);fill-opacity:1;" />
<path d="M 346.800781 357 L 265.199219 357 L 265.199219 276.65625 C 265.199219 251.9375 282.023438 230.394531 306 224.398438 C 329.976562 230.394531 346.800781 251.9375 346.800781 276.65625 Z M 346.800781 357 " style=" stroke:none;fill-rule:nonzero;fill:rgb(64.313725%,69.019608%,74.901961%);fill-opacity:1;" />
<path d="M 20.398438 173.398438 L 61.199219 173.398438 L 61.199219 357 L 20.398438 357 Z M 20.398438 173.398438 " style=" stroke:none;fill-rule:nonzero;fill:rgb(76.470588%,78.823529%,81.960784%);fill-opacity:1;" />
<path d="M 20.398438 285.601562 L 61.199219 285.601562 L 61.199219 306 L 20.398438 306 Z M 20.398438 285.601562 " style=" stroke:none;fill-rule:nonzero;fill:rgb(64.313725%,69.019608%,74.901961%);fill-opacity:1;" />
<path d="M 20.398438 224.398438 L 61.199219 224.398438 L 61.199219 244.800781 L 20.398438 244.800781 Z M 20.398438 224.398438 " style=" stroke:none;fill-rule:nonzero;fill:rgb(64.313725%,69.019608%,74.901961%);fill-opacity:1;" />
<path d="M 0 163.199219 L 81.601562 163.199219 L 81.601562 183.601562 L 0 183.601562 Z M 0 163.199219 " style=" stroke:none;fill-rule:nonzero;fill:rgb(76.470588%,78.823529%,81.960784%);fill-opacity:1;" />
<path d="M 550.800781 173.398438 L 591.601562 173.398438 L 591.601562 357 L 550.800781 357 Z M 550.800781 173.398438 " style=" stroke:none;fill-rule:nonzero;fill:rgb(76.470588%,78.823529%,81.960784%);fill-opacity:1;" />
<path d="M 550.800781 285.601562 L 591.601562 285.601562 L 591.601562 306 L 550.800781 306 Z M 550.800781 285.601562 " style=" stroke:none;fill-rule:nonzero;fill:rgb(64.313725%,69.019608%,74.901961%);fill-opacity:1;" />
<path d="M 550.800781 224.398438 L 591.601562 224.398438 L 591.601562 244.800781 L 550.800781 244.800781 Z M 550.800781 224.398438 " style=" stroke:none;fill-rule:nonzero;fill:rgb(64.313725%,69.019608%,74.901961%);fill-opacity:1;" />
<path d="M 530.398438 163.199219 L 612 163.199219 L 612 183.601562 L 530.398438 183.601562 Z M 530.398438 163.199219 " style=" stroke:none;fill-rule:nonzero;fill:rgb(76.470588%,78.823529%,81.960784%);fill-opacity:1;" />
<path d="M 142.800781 224.398438 L 224.398438 224.398438 L 224.398438 357 L 142.800781 357 Z M 142.800781 224.398438 " style=" stroke:none;fill-rule:nonzero;fill:rgb(81.568627%,84.313725%,87.45098%);fill-opacity:1;" />
<path d="M 10.199219 357 L 71.398438 357 L 71.398438 408 L 10.199219 408 Z M 10.199219 357 " style=" stroke:none;fill-rule:nonzero;fill:rgb(76.470588%,78.823529%,81.960784%);fill-opacity:1;" />
<path d="M 540.601562 357 L 601.800781 357 L 601.800781 408 L 540.601562 408 Z M 540.601562 357 " style=" stroke:none;fill-rule:nonzero;fill:rgb(76.470588%,78.823529%,81.960784%);fill-opacity:1;" />
<path d="M 387.601562 224.398438 L 469.199219 224.398438 L 469.199219 357 L 387.601562 357 Z M 387.601562 224.398438 " style=" stroke:none;fill-rule:nonzero;fill:rgb(81.568627%,84.313725%,87.45098%);fill-opacity:1;" />
<path d="M 295.800781 326.398438 L 316.199219 326.398438 L 316.199219 357 L 295.800781 357 Z M 295.800781 326.398438 " style=" stroke:none;fill-rule:nonzero;fill:rgb(47.45098%,55.294118%,63.137255%);fill-opacity:1;" />
<path d="M 295.800781 265.199219 L 316.199219 265.199219 L 316.199219 295.800781 L 295.800781 295.800781 Z M 295.800781 265.199219 " style=" stroke:none;fill-rule:nonzero;fill:rgb(47.45098%,55.294118%,63.137255%);fill-opacity:1;" />
<path d="M 173.398438 265.199219 L 193.800781 265.199219 L 193.800781 295.800781 L 173.398438 295.800781 Z M 173.398438 265.199219 " style=" stroke:none;fill-rule:nonzero;fill:rgb(47.45098%,55.294118%,63.137255%);fill-opacity:1;" />
<path d="M 173.398438 326.398438 L 193.800781 326.398438 L 193.800781 357 L 173.398438 357 Z M 173.398438 326.398438 " style=" stroke:none;fill-rule:nonzero;fill:rgb(47.45098%,55.294118%,63.137255%);fill-opacity:1;" />
<path d="M 418.199219 265.199219 L 438.601562 265.199219 L 438.601562 295.800781 L 418.199219 295.800781 Z M 418.199219 265.199219 " style=" stroke:none;fill-rule:nonzero;fill:rgb(47.45098%,55.294118%,63.137255%);fill-opacity:1;" />
<path d="M 418.199219 326.398438 L 438.601562 326.398438 L 438.601562 357 L 418.199219 357 Z M 418.199219 326.398438 " style=" stroke:none;fill-rule:nonzero;fill:rgb(47.45098%,55.294118%,63.137255%);fill-opacity:1;" />
<path d="M 265.199219 285.601562 L 346.800781 285.601562 L 346.800781 306 L 265.199219 306 Z M 265.199219 285.601562 " style=" stroke:none;fill-rule:nonzero;fill:rgb(76.470588%,78.823529%,81.960784%);fill-opacity:1;" />
<path d="M 142.800781 285.601562 L 224.398438 285.601562 L 224.398438 306 L 142.800781 306 Z M 142.800781 285.601562 " style=" stroke:none;fill-rule:nonzero;fill:rgb(76.470588%,78.823529%,81.960784%);fill-opacity:1;" />
<path d="M 387.601562 285.601562 L 469.199219 285.601562 L 469.199219 306 L 387.601562 306 Z M 387.601562 285.601562 " style=" stroke:none;fill-rule:nonzero;fill:rgb(76.470588%,78.823529%,81.960784%);fill-opacity:1;" />
<path d="M 91.800781 285.601562 L 142.800781 285.601562 L 142.800781 306 L 91.800781 306 Z M 91.800781 285.601562 " style=" stroke:none;fill-rule:nonzero;fill:rgb(64.313725%,69.019608%,74.901961%);fill-opacity:1;" />
<path d="M 469.199219 285.601562 L 520.199219 285.601562 L 520.199219 306 L 469.199219 306 Z M 469.199219 285.601562 " style=" stroke:none;fill-rule:nonzero;fill:rgb(64.313725%,69.019608%,74.901961%);fill-opacity:1;" />
<path d="M 224.398438 183.601562 L 387.601562 183.601562 L 387.601562 204 L 224.398438 204 Z M 224.398438 183.601562 " style=" stroke:none;fill-rule:nonzero;fill:rgb(76.470588%,78.823529%,81.960784%);fill-opacity:1;" />
</g>
</svg>