<svg xmlns="http://www.w3.org/2000/svg" height="612pt" version="1.1" viewBox="0 -66 612 612" width="612pt">
<g id="surface1">
<path d="M 316.199219 16.175781 L 311.210938 21.164062 C 307.8125 20.144531 304.1875 20.144531 300.789062 21.164062 L 295.800781 16.175781 L 295.800781 0 L 275.398438 0 L 275.398438 20.398438 C 275.402344 23.105469 276.476562 25.699219 278.390625 27.609375 L 286.363281 35.585938 C 285.882812 37.28125 285.625 39.035156 285.601562 40.800781 C 285.621094 48.054688 289.507812 54.746094 295.800781 58.363281 L 295.800781 81.601562 L 316.199219 81.601562 L 316.199219 58.363281 C 322.492188 54.75 326.378906 48.054688 326.398438 40.800781 C 326.375 39.035156 326.117188 37.285156 325.636719 35.589844 L 333.609375 27.613281 C 335.523438 25.699219 336.597656 23.105469 336.601562 20.402344 L 336.601562 0 L 316.199219 0 Z M 316.199219 16.175781 " style=" stroke:none;fill-rule:nonzero;fill:rgb(38.039216%,74.117647%,78.039216%);fill-opacity:1;" />
<path d="M 244.800781 51 L 265.199219 51 L 265.199219 81.601562 L 244.800781 81.601562 Z M 244.800781 51 " style=" stroke:none;fill-rule:nonzero;fill:rgb(38.039216%,74.117647%,78.039216%);fill-opacity:1;" />
<path d="M 204 51 L 224.398438 51 L 224.398438 81.601562 L 204 81.601562 Z M 204 51 " style=" stroke:none;fill-rule:nonzero;fill:rgb(38.039216%,74.117647%,78.039216%);fill-opacity:1;" />
<path d="M 387.601562 51 L 408 51 L 408 81.601562 L 387.601562 81.601562 Z M 387.601562 51 " style=" stroke:none;fill-rule:nonzero;fill:rgb(38.039216%,74.117647%,78.039216%);fill-opacity:1;" />
<path d="M 346.800781 51 L 367.199219 51 L 367.199219 81.601562 L 346.800781 81.601562 Z M 346.800781 51 " style=" stroke:none;fill-rule:nonzero;fill:rgb(38.039216%,74.117647%,78.039216%);fill-opacity:1;" />
<path d="M 234.601562 244.800781 L 275.398438 244.800781 L 275.398438 469.199219 L 234.601562 469.199219 Z M 234.601562 244.800781 " style=" stroke:none;fill-rule:nonzero;fill:rgb(98.039216%,73.72549%,37.254902%);fill-opacity:1;" />
<path d="M 132.601562 244.800781 L 173.398438 244.800781 L 173.398438 469.199219 L 132.601562 469.199219 Z M 132.601562 244.800781 " style=" stroke:none;fill-rule:nonzero;fill:rgb(98.039216%,73.72549%,37.254902%);fill-opacity:1;" />
<path d="M 30.601562 244.800781 L 71.398438 244.800781 L 71.398438 469.199219 L 30.601562 469.199219 Z M 30.601562 244.800781 " style=" stroke:none;fill-rule:nonzero;fill:rgb(98.039216%,73.72549%,37.254902%);fill-opacity:1;" />
<path d="M 336.601562 244.800781 L 377.398438 244.800781 L 377.398438 469.199219 L 336.601562 469.199219 Z M 336.601562 244.800781 " style=" stroke:none;fill-rule:nonzero;fill:rgb(98.039216%,73.72549%,37.254902%);fill-opacity:1;" />
<path d="M 438.601562 244.800781 L 479.398438 244.800781 L 479.398438 469.199219 L 438.601562 469.199219 Z M 438.601562 244.800781 " style=" stroke:none;fill-rule:nonzero;fill:rgb(98.039216%,73.72549%,37.254902%);fill-opacity:1;" />
<path d="M 540.601562 244.800781 L 581.398438 244.800781 L 581.398438 469.199219 L 540.601562 469.199219 Z M 540.601562 244.800781 " style=" stroke:none;fill-rule:nonzero;fill:rgb(98.039216%,73.72549%,37.254902%);fill-opacity:1;" />
<path d="M 234.601562 244.800781 L 275.398438 244.800781 L 275.398438 275.398438 L 234.601562 275.398438 Z M 234.601562 244.800781 " style=" stroke:none;fill-rule:nonzero;fill:rgb(96.078431%,68.235294%,27.058824%);fill-opacity:1;" />
<path d="M 132.601562 244.800781 L 173.398438 244.800781 L 173.398438 275.398438 L 132.601562 275.398438 Z M 132.601562 244.800781 " style=" stroke:none;fill-rule:nonzero;fill:rgb(96.078431%,68.235294%,27.058824%);fill-opacity:1;" />
<path d="M 30.601562 244.800781 L 71.398438 244.800781 L 71.398438 275.398438 L 30.601562 275.398438 Z M 30.601562 244.800781 " style=" stroke:none;fill-rule:nonzero;fill:rgb(96.078431%,68.235294%,27.058824%);fill-opacity:1;" />
<path d="M 336.601562 244.800781 L 377.398438 244.800781 L 377.398438 275.398438 L 336.601562 275.398438 Z M 336.601562 244.800781 " style=" stroke:none;fill-rule:nonzero;fill:rgb(96.078431%,68.235294%,27.058824%);fill-opacity:1;" />
<path d="M 438.601562 244.800781 L 479.398438 244.800781 L 479.398438 275.398438 L 438.601562 275.398438 Z M 438.601562 244.800781 " style=" stroke:none;fill-rule:nonzero;fill:rgb(96.078431%,68.235294%,27.058824%);fill-opacity:1;" />
<path d="M 540.601562 244.800781 L 581.398438 244.800781 L 581.398438 275.398438 L 540.601562 275.398438 Z M 540.601562 244.800781 " style=" stroke:none;fill-rule:nonzero;fill:rgb(96.078431%,68.235294%,27.058824%);fill-opacity:1;" />
<path d="M 30.601562 204 L 581.398438 204 L 581.398438 244.800781 L 30.601562 244.800781 Z M 30.601562 204 " style=" stroke:none;fill-rule:nonzero;fill:rgb(98.039216%,73.72549%,37.254902%);fill-opacity:1;" />
<path d="M 581.398438 204 L 30.601562 204 L 20.398438 163.199219 L 591.601562 163.199219 Z M 581.398438 204 " style=" stroke:none;fill-rule:nonzero;fill:rgb(96.078431%,68.235294%,27.058824%);fill-opacity:1;" />
<path d="M 214.199219 81.601562 L 397.800781 81.601562 L 397.800781 163.199219 L 214.199219 163.199219 Z M 214.199219 81.601562 " style=" stroke:none;fill-rule:nonzero;fill:rgb(94.117647%,61.960784%,14.901961%);fill-opacity:1;" />
<path d="M 71.398438 122.398438 L 214.199219 122.398438 L 214.199219 163.199219 L 71.398438 163.199219 Z M 71.398438 122.398438 " style=" stroke:none;fill-rule:nonzero;fill:rgb(98.039216%,73.72549%,37.254902%);fill-opacity:1;" />
<path d="M 214.199219 122.398438 L 71.398438 122.398438 L 61.199219 81.601562 L 214.199219 81.601562 Z M 214.199219 122.398438 " style=" stroke:none;fill-rule:nonzero;fill:rgb(96.078431%,68.235294%,27.058824%);fill-opacity:1;" />
<path d="M 397.800781 122.398438 L 540.601562 122.398438 L 540.601562 163.199219 L 397.800781 163.199219 Z M 397.800781 122.398438 " style=" stroke:none;fill-rule:nonzero;fill:rgb(98.039216%,73.72549%,37.254902%);fill-opacity:1;" />
<path d="M 397.800781 122.398438 L 540.601562 122.398438 L 550.800781 81.601562 L 397.800781 81.601562 Z M 397.800781 122.398438 " style=" stroke:none;fill-rule:nonzero;fill:rgb(96.078431%,68.235294%,27.058824%);fill-opacity:1;" />
<path d="M 0 459 L 612 459 L 612 479.398438 L 0 479.398438 Z M 0 459 " style=" stroke:none;fill-rule:nonzero;fill:rgb(98.039216%,73.72549%,37.254902%);fill-opacity:1;" />
<path d="M 30.601562 418.199219 L 71.398438 418.199219 L 71.398438 438.601562 L 30.601562 438.601562 Z M 30.601562 418.199219 " style=" stroke:none;fill-rule:nonzero;fill:rgb(94.117647%,61.960784%,14.901961%);fill-opacity:1;" />
<path d="M 132.601562 418.199219 L 173.398438 418.199219 L 173.398438 438.601562 L 132.601562 438.601562 Z M 132.601562 418.199219 " style=" stroke:none;fill-rule:nonzero;fill:rgb(94.117647%,61.960784%,14.901961%);fill-opacity:1;" />
<path d="M 234.601562 418.199219 L 275.398438 418.199219 L 275.398438 438.601562 L 234.601562 438.601562 Z M 234.601562 418.199219 " style=" stroke:none;fill-rule:nonzero;fill:rgb(94.117647%,61.960784%,14.901961%);fill-opacity:1;" />
<path d="M 336.601562 418.199219 L 377.398438 418.199219 L 377.398438 438.601562 L 336.601562 438.601562 Z M 336.601562 418.199219 " style=" stroke:none;fill-rule:nonzero;fill:rgb(94.117647%,61.960784%,14.901961%);fill-opacity:1;" />
<path d="M 438.601562 418.199219 L 479.398438 418.199219 L 479.398438 438.601562 L 438.601562 438.601562 Z M 438.601562 418.199219 " style=" stroke:none;fill-rule:nonzero;fill:rgb(94.117647%,61.960784%,14.901961%);fill-opacity:1;" />
<path d="M 540.601562 418.199219 L 581.398438 418.199219 L 581.398438 438.601562 L 540.601562 438.601562 Z M 540.601562 418.199219 " style=" stroke:none;fill-rule:nonzero;fill:rgb(94.117647%,61.960784%,14.901961%);fill-opacity:1;" />
<path d="M 10.199219 234.601562 L 601.800781 234.601562 L 601.800781 255 L 10.199219 255 Z M 10.199219 234.601562 " style=" stroke:none;fill-rule:nonzero;fill:rgb(98.039216%,73.72549%,37.254902%);fill-opacity:1;" />
<path d="M 244.800781 112.199219 L 265.199219 112.199219 L 265.199219 132.601562 L 244.800781 132.601562 Z M 244.800781 112.199219 " style=" stroke:none;fill-rule:nonzero;fill:rgb(98.039216%,73.72549%,37.254902%);fill-opacity:1;" />
<path d="M 0 153 L 612 153 L 612 173.398438 L 0 173.398438 Z M 0 153 " style=" stroke:none;fill-rule:nonzero;fill:rgb(98.039216%,73.72549%,37.254902%);fill-opacity:1;" />
<path d="M 40.800781 71.398438 L 571.199219 71.398438 L 571.199219 91.800781 L 40.800781 91.800781 Z M 40.800781 71.398438 " style=" stroke:none;fill-rule:nonzero;fill:rgb(98.039216%,73.72549%,37.254902%);fill-opacity:1;" />
<path d="M 295.800781 112.199219 L 316.199219 112.199219 L 316.199219 132.601562 L 295.800781 132.601562 Z M 295.800781 112.199219 " style=" stroke:none;fill-rule:nonzero;fill:rgb(98.039216%,73.72549%,37.254902%);fill-opacity:1;" />
<path d="M 346.800781 112.199219 L 367.199219 112.199219 L 367.199219 132.601562 L 346.800781 132.601562 Z M 346.800781 112.199219 " style=" stroke:none;fill-rule:nonzero;fill:rgb(98.039216%,73.72549%,37.254902%);fill-opacity:1;" />
</g>
</svg>