<svg xmlns="http://www.w3.org/2000/svg" height="612pt" version="1.1" viewBox="0 -25 612.00001 612" width="612pt">
<g id="surface1">
<path d="M 237.148438 479.398438 L 224.398438 550.800781 L 387.601562 550.800781 L 374.851562 479.398438 Z M 237.148438 479.398438 " style=" stroke:none;fill-rule:nonzero;fill:rgb(81.568627%,84.313725%,87.45098%);fill-opacity:1;" />
<path d="M 374.851562 479.398438 L 344.25 479.398438 L 357 550.800781 L 387.601562 550.800781 Z M 374.851562 479.398438 " style=" stroke:none;fill-rule:nonzero;fill:rgb(76.470588%,78.823529%,81.960784%);fill-opacity:1;" />
<path d="M 295.800781 78.203125 L 316.199219 78.203125 L 316.199219 239.699219 L 295.800781 239.699219 Z M 295.800781 78.203125 " style=" stroke:none;fill-rule:nonzero;fill:rgb(64.313725%,69.019608%,74.901961%);fill-opacity:1;" />
<path d="M 129.367188 118.546875 L 260.265625 46.304688 L 270.125 64.171875 L 139.226562 136.417969 Z M 129.367188 118.546875 " style=" stroke:none;fill-rule:nonzero;fill:rgb(64.313725%,69.019608%,74.901961%);fill-opacity:1;" />
<path d="M 128.46875 389.71875 L 138.4375 371.90625 L 259.988281 439.917969 L 250.019531 457.730469 Z M 128.46875 389.71875 " style=" stroke:none;fill-rule:nonzero;fill:rgb(64.313725%,69.019608%,74.901961%);fill-opacity:1;" />
<path d="M 81.601562 188.699219 L 102 188.699219 L 102 317.046875 L 81.601562 317.046875 Z M 81.601562 188.699219 " style=" stroke:none;fill-rule:nonzero;fill:rgb(64.313725%,69.019608%,74.901961%);fill-opacity:1;" />
<path d="M 138.273438 327.476562 L 261.515625 266.253906 L 270.59375 284.523438 L 147.351562 345.746094 Z M 138.273438 327.476562 " style=" stroke:none;fill-rule:nonzero;fill:rgb(64.313725%,69.019608%,74.901961%);fill-opacity:1;" />
<path d="M 138.632812 182.710938 L 146.976562 164.101562 L 270.226562 219.359375 L 261.882812 237.964844 Z M 138.632812 182.710938 " style=" stroke:none;fill-rule:nonzero;fill:rgb(64.313725%,69.019608%,74.901961%);fill-opacity:1;" />
<path d="M 483.929688 141.074219 L 343.535156 64.167969 L 353.460938 46.339844 L 493.851562 123.246094 Z M 483.929688 141.074219 " style=" stroke:none;fill-rule:nonzero;fill:rgb(64.313725%,69.019608%,74.901961%);fill-opacity:1;" />
<path d="M 352.125 439.820312 L 473.660156 373.5 L 483.433594 391.40625 L 361.898438 457.726562 Z M 352.125 439.820312 " style=" stroke:none;fill-rule:nonzero;fill:rgb(64.313725%,69.019608%,74.901961%);fill-opacity:1;" />
<path d="M 510 191.25 L 530.398438 191.25 L 530.398438 314.496094 L 510 314.496094 Z M 510 191.25 " style=" stroke:none;fill-rule:nonzero;fill:rgb(64.313725%,69.019608%,74.901961%);fill-opacity:1;" />
<path d="M 349.976562 289.648438 L 358.9375 271.324219 L 473.683594 327.417969 L 464.722656 345.746094 Z M 349.976562 289.648438 " style=" stroke:none;fill-rule:nonzero;fill:rgb(64.313725%,69.019608%,74.901961%);fill-opacity:1;" />
<path d="M 344.082031 222.007812 L 464.777344 164.207031 L 473.59375 182.617188 L 352.898438 240.414062 Z M 344.082031 222.007812 " style=" stroke:none;fill-rule:nonzero;fill:rgb(64.313725%,69.019608%,74.901961%);fill-opacity:1;" />
<path d="M 91.800781 561 L 20.398438 561 C 14.765625 561.003906 10.199219 556.4375 10.195312 550.804688 C 10.195312 549.507812 10.441406 548.222656 10.925781 547.015625 L 72.125 394.015625 C 73.671875 390.140625 77.425781 387.597656 81.601562 387.601562 L 122.398438 387.601562 C 128.03125 387.597656 132.601562 392.164062 132.601562 397.796875 C 132.601562 398.484375 132.53125 399.167969 132.394531 399.839844 L 101.796875 552.839844 C 100.824219 557.589844 96.648438 561 91.800781 561 Z M 35.464844 540.601562 L 83.40625 540.601562 L 109.925781 408 L 88.503906 408 Z M 35.464844 540.601562 " style=" stroke:none;fill-rule:nonzero;fill:rgb(64.313725%,69.019608%,74.901961%);fill-opacity:1;" />
<path d="M 20.398438 489.601562 L 122.398438 489.601562 L 122.398438 510 L 20.398438 510 Z M 20.398438 489.601562 " style=" stroke:none;fill-rule:nonzero;fill:rgb(64.313725%,69.019608%,74.901961%);fill-opacity:1;" />
<path d="M 94.789062 507.011719 L 53.988281 466.210938 C 50.007812 462.226562 50.007812 455.769531 53.992188 451.785156 C 54.578125 451.199219 55.234375 450.6875 55.945312 450.257812 L 106.945312 419.65625 L 117.453125 437.140625 L 77.652344 461.039062 L 109.210938 492.609375 Z M 94.789062 507.011719 " style=" stroke:none;fill-rule:nonzero;fill:rgb(64.313725%,69.019608%,74.901961%);fill-opacity:1;" />
<path d="M 0 540.601562 L 112.199219 540.601562 L 112.199219 561 L 0 561 Z M 0 540.601562 " style=" stroke:none;fill-rule:nonzero;fill:rgb(64.313725%,69.019608%,74.901961%);fill-opacity:1;" />
<path d="M 591.601562 561 L 520.199219 561 C 515.351562 561 511.175781 557.589844 510.203125 552.839844 L 479.605469 399.839844 C 478.476562 394.320312 482.039062 388.933594 487.558594 387.804688 C 488.230469 387.667969 488.914062 387.601562 489.601562 387.601562 L 530.398438 387.601562 C 534.574219 387.597656 538.328125 390.140625 539.875 394.015625 L 601.074219 547.015625 C 603.164062 552.246094 600.617188 558.183594 595.386719 560.273438 C 594.183594 560.753906 592.898438 561 591.601562 561 Z M 528.5625 540.601562 L 576.503906 540.601562 L 523.464844 408 L 502.042969 408 Z M 528.5625 540.601562 " style=" stroke:none;fill-rule:nonzero;fill:rgb(64.313725%,69.019608%,74.901961%);fill-opacity:1;" />
<path d="M 489.601562 489.601562 L 591.601562 489.601562 L 591.601562 510 L 489.601562 510 Z M 489.601562 489.601562 " style=" stroke:none;fill-rule:nonzero;fill:rgb(64.313725%,69.019608%,74.901961%);fill-opacity:1;" />
<path d="M 517.210938 507.011719 L 502.789062 492.589844 L 534.347656 461.039062 L 494.566406 437.160156 L 505.074219 419.679688 L 556.074219 450.277344 C 560.902344 453.179688 562.460938 459.445312 559.558594 464.273438 C 559.132812 464.988281 558.617188 465.644531 558.03125 466.230469 Z M 517.210938 507.011719 " style=" stroke:none;fill-rule:nonzero;fill:rgb(64.313725%,69.019608%,74.901961%);fill-opacity:1;" />
<path d="M 489.601562 540.601562 L 612 540.601562 L 612 561 L 489.601562 561 Z M 489.601562 540.601562 " style=" stroke:none;fill-rule:nonzero;fill:rgb(64.313725%,69.019608%,74.901961%);fill-opacity:1;" />
<path d="M 376.828125 489.601562 L 235.171875 489.601562 L 277.0625 255 L 334.9375 255 Z M 259.527344 469.199219 L 352.472656 469.199219 L 317.863281 275.398438 L 294.136719 275.398438 Z M 259.527344 469.199219 " style=" stroke:none;fill-rule:nonzero;fill:rgb(64.313725%,69.019608%,74.901961%);fill-opacity:1;" />
<path d="M 352.859375 478.523438 L 261.058594 437.722656 C 255.910156 435.4375 253.585938 429.414062 255.867188 424.265625 C 256.832031 422.097656 258.519531 420.328125 260.640625 419.269531 L 322.574219 388.304688 L 271.378906 366.375 C 266.203125 364.15625 263.804688 358.15625 266.023438 352.980469 C 266.800781 351.164062 268.09375 349.609375 269.738281 348.511719 L 330.9375 307.714844 L 342.257812 324.6875 L 296.726562 355.039062 L 350.785156 378.226562 C 355.964844 380.441406 358.363281 386.4375 356.148438 391.617188 C 355.195312 393.839844 353.488281 395.648438 351.328125 396.730469 L 289.054688 427.859375 L 361.109375 459.878906 Z M 352.859375 478.523438 " style=" stroke:none;fill-rule:nonzero;fill:rgb(64.313725%,69.019608%,74.901961%);fill-opacity:1;" />
<path d="M 367.199219 255 C 367.199219 288.800781 339.800781 316.199219 306 316.199219 C 272.199219 316.199219 244.800781 288.800781 244.800781 255 C 244.800781 221.199219 272.199219 193.800781 306 193.800781 C 339.800781 193.800781 367.199219 221.199219 367.199219 255 Z M 367.199219 255 " style=" stroke:none;fill-rule:nonzero;fill:rgb(29.019608%,61.568627%,85.098039%);fill-opacity:1;" />
<path d="M 357 51 C 357 79.167969 334.167969 102 306 102 C 277.832031 102 255 79.167969 255 51 C 255 22.832031 277.832031 0 306 0 C 334.167969 0 357 22.832031 357 51 Z M 357 51 " style=" stroke:none;fill-rule:nonzero;fill:rgb(29.019608%,61.568627%,85.098039%);fill-opacity:1;" />
<path d="M 153 153 C 153 181.167969 130.167969 204 102 204 C 73.832031 204 51 181.167969 51 153 C 51 124.832031 73.832031 102 102 102 C 130.167969 102 153 124.832031 153 153 Z M 153 153 " style=" stroke:none;fill-rule:nonzero;fill:rgb(29.019608%,61.568627%,85.098039%);fill-opacity:1;" />
<path d="M 153 357 C 153 385.167969 130.167969 408 102 408 C 73.832031 408 51 385.167969 51 357 C 51 328.832031 73.832031 306 102 306 C 130.167969 306 153 328.832031 153 357 Z M 153 357 " style=" stroke:none;fill-rule:nonzero;fill:rgb(29.019608%,61.568627%,85.098039%);fill-opacity:1;" />
<path d="M 153 357 C 153 385.167969 130.167969 408 102 408 C 73.832031 408 51 385.167969 51 357 C 51 328.832031 73.832031 306 102 306 C 130.167969 306 153 328.832031 153 357 Z M 153 357 " style=" stroke:none;fill-rule:nonzero;fill:rgb(29.019608%,61.568627%,85.098039%);fill-opacity:1;" />
<path d="M 153 153 C 153 181.167969 130.167969 204 102 204 C 73.832031 204 51 181.167969 51 153 C 51 124.832031 73.832031 102 102 102 C 130.167969 102 153 124.832031 153 153 Z M 153 153 " style=" stroke:none;fill-rule:nonzero;fill:rgb(29.019608%,61.568627%,85.098039%);fill-opacity:1;" />
<path d="M 561 153 C 561 181.167969 538.167969 204 510 204 C 481.832031 204 459 181.167969 459 153 C 459 124.832031 481.832031 102 510 102 C 538.167969 102 561 124.832031 561 153 Z M 561 153 " style=" stroke:none;fill-rule:nonzero;fill:rgb(29.019608%,61.568627%,85.098039%);fill-opacity:1;" />
<path d="M 561 357 C 561 385.167969 538.167969 408 510 408 C 481.832031 408 459 385.167969 459 357 C 459 328.832031 481.832031 306 510 306 C 538.167969 306 561 328.832031 561 357 Z M 561 357 " style=" stroke:none;fill-rule:nonzero;fill:rgb(29.019608%,61.568627%,85.098039%);fill-opacity:1;" />
<path d="M 561 357 C 561 385.167969 538.167969 408 510 408 C 481.832031 408 459 385.167969 459 357 C 459 328.832031 481.832031 306 510 306 C 538.167969 306 561 328.832031 561 357 Z M 561 357 " style=" stroke:none;fill-rule:nonzero;fill:rgb(29.019608%,61.568627%,85.098039%);fill-opacity:1;" />
<path d="M 561 153 C 561 181.167969 538.167969 204 510 204 C 481.832031 204 459 181.167969 459 153 C 459 124.832031 481.832031 102 510 102 C 538.167969 102 561 124.832031 561 153 Z M 561 153 " style=" stroke:none;fill-rule:nonzero;fill:rgb(29.019608%,61.568627%,85.098039%);fill-opacity:1;" />
<path d="M 204 540.601562 L 408 540.601562 L 408 561 L 204 561 Z M 204 540.601562 " style=" stroke:none;fill-rule:nonzero;fill:rgb(81.568627%,84.313725%,87.45098%);fill-opacity:1;" />
<path d="M 285.601562 510 L 326.398438 510 L 326.398438 561 L 285.601562 561 Z M 285.601562 510 " style=" stroke:none;fill-rule:nonzero;fill:rgb(47.45098%,55.294118%,63.137255%);fill-opacity:1;" />
<path d="M 335.183594 201.195312 C 342.363281 234.222656 321.410156 266.820312 288.382812 274.003906 C 274.0625 277.117188 259.101562 274.988281 246.21875 268.003906 C 253.398438 301.03125 285.996094 321.984375 319.023438 314.804688 C 352.050781 307.621094 373.003906 275.023438 365.820312 241.996094 C 362.035156 224.582031 350.847656 209.6875 335.183594 201.195312 Z M 335.183594 201.195312 " style=" stroke:none;fill-rule:nonzero;fill:rgb(26.27451%,58.039216%,80%);fill-opacity:1;" />
<path d="M 275.398438 61.199219 C 268.605469 61.203125 261.882812 59.847656 255.621094 57.210938 C 259.09375 85.101562 284.515625 104.894531 312.40625 101.425781 C 340.296875 97.953125 360.089844 72.527344 356.617188 44.640625 C 354.363281 26.542969 342.601562 11.03125 325.777344 3.988281 C 326.109375 6.042969 326.316406 8.117188 326.398438 10.199219 C 326.398438 38.367188 303.566406 61.199219 275.398438 61.199219 Z M 275.398438 61.199219 " style=" stroke:none;fill-rule:nonzero;fill:rgb(26.27451%,58.039216%,80%);fill-opacity:1;" />
<path d="M 121.777344 309.988281 C 122.109375 312.042969 122.316406 314.117188 122.398438 316.199219 C 122.402344 344.367188 99.570312 367.199219 71.402344 367.203125 C 64.609375 367.203125 57.882812 365.847656 51.621094 363.210938 C 55.09375 391.101562 80.515625 410.894531 108.40625 407.425781 C 136.296875 403.953125 156.089844 378.527344 152.617188 350.640625 C 150.367188 332.542969 138.601562 317.03125 121.777344 309.988281 Z M 121.777344 309.988281 " style=" stroke:none;fill-rule:nonzero;fill:rgb(26.27451%,58.039216%,80%);fill-opacity:1;" />
<path d="M 121.777344 105.988281 C 122.109375 108.042969 122.316406 110.117188 122.398438 112.199219 C 122.402344 140.367188 99.570312 163.199219 71.402344 163.203125 C 64.609375 163.203125 57.882812 161.847656 51.621094 159.210938 C 55.09375 187.101562 80.515625 206.894531 108.40625 203.425781 C 136.296875 199.953125 156.089844 174.527344 152.617188 146.640625 C 150.367188 128.542969 138.601562 113.03125 121.777344 105.988281 Z M 121.777344 105.988281 " style=" stroke:none;fill-rule:nonzero;fill:rgb(26.27451%,58.039216%,80%);fill-opacity:1;" />
<path d="M 529.777344 309.988281 C 530.109375 312.042969 530.316406 314.117188 530.398438 316.199219 C 530.402344 344.367188 507.570312 367.199219 479.402344 367.203125 C 472.609375 367.203125 465.882812 365.847656 459.621094 363.210938 C 463.09375 391.101562 488.515625 410.894531 516.40625 407.425781 C 544.296875 403.953125 564.089844 378.527344 560.617188 350.640625 C 558.367188 332.542969 546.601562 317.03125 529.777344 309.988281 Z M 529.777344 309.988281 " style=" stroke:none;fill-rule:nonzero;fill:rgb(26.27451%,58.039216%,80%);fill-opacity:1;" />
<path d="M 479.398438 163.199219 C 472.605469 163.203125 465.882812 161.847656 459.621094 159.210938 C 463.09375 187.101562 488.515625 206.894531 516.40625 203.425781 C 544.296875 199.953125 564.089844 174.527344 560.617188 146.640625 C 558.363281 128.542969 546.601562 113.03125 529.777344 105.988281 C 530.109375 108.042969 530.316406 110.117188 530.398438 112.199219 C 530.398438 140.367188 507.566406 163.199219 479.398438 163.199219 Z M 479.398438 163.199219 " style=" stroke:none;fill-rule:nonzero;fill:rgb(26.27451%,58.039216%,80%);fill-opacity:1;" />
</g>
</svg>