<svg xmlns="http://www.w3.org/2000/svg" height="612pt" version="1.1" viewBox="0 0 612 612" width="612pt">
<g id="surface1">
<path d="M 122.398438 0 L 102 0 L 102 58.648438 L 101.070312 61.199219 L 123.328125 61.199219 L 122.398438 58.648438 Z M 122.398438 0 " style=" stroke:none;fill-rule:nonzero;fill:rgb(65.098039%,47.058824%,33.333333%);fill-opacity:1;" />
<path d="M 30.601562 255 L 10.199219 285.601562 L 214.199219 285.601562 L 193.800781 255 L 123.328125 61.199219 L 101.070312 61.199219 Z M 30.601562 255 " style=" stroke:none;fill-rule:nonzero;fill:rgb(52.156863%,34.117647%,22.352941%);fill-opacity:1;" />
<path d="M 20.398438 285.601562 L 204 285.601562 L 204 601.800781 L 20.398438 601.800781 Z M 20.398438 285.601562 " style=" stroke:none;fill-rule:nonzero;fill:rgb(92.156863%,48.627451%,8.235294%);fill-opacity:1;" />
<path d="M 204 285.601562 L 408 285.601562 L 408 612 L 204 612 Z M 204 285.601562 " style=" stroke:none;fill-rule:nonzero;fill:rgb(92.156863%,48.627451%,8.235294%);fill-opacity:1;" />
<path d="M 346.800781 214.199219 L 346.800781 173.398438 L 265.199219 173.398438 L 265.199219 214.199219 L 224.398438 214.199219 L 224.398438 285.601562 L 387.601562 285.601562 L 387.601562 214.199219 Z M 346.800781 214.199219 " style=" stroke:none;fill-rule:nonzero;fill:rgb(92.156863%,48.627451%,8.235294%);fill-opacity:1;" />
<path d="M 255 142.800781 L 275.398438 142.800781 L 275.398438 214.199219 L 255 214.199219 Z M 255 142.800781 " style=" stroke:none;fill-rule:nonzero;fill:rgb(92.156863%,48.627451%,8.235294%);fill-opacity:1;" />
<path d="M 336.601562 142.800781 L 357 142.800781 L 357 214.199219 L 336.601562 214.199219 Z M 336.601562 142.800781 " style=" stroke:none;fill-rule:nonzero;fill:rgb(92.156863%,48.627451%,8.235294%);fill-opacity:1;" />
<path d="M 214.199219 183.601562 L 234.601562 183.601562 L 234.601562 285.601562 L 214.199219 285.601562 Z M 214.199219 183.601562 " style=" stroke:none;fill-rule:nonzero;fill:rgb(92.156863%,48.627451%,8.235294%);fill-opacity:1;" />
<path d="M 377.398438 183.601562 L 397.800781 183.601562 L 397.800781 285.601562 L 377.398438 285.601562 Z M 377.398438 183.601562 " style=" stroke:none;fill-rule:nonzero;fill:rgb(92.156863%,48.627451%,8.235294%);fill-opacity:1;" />
<path d="M 295.800781 244.800781 L 316.199219 244.800781 L 316.199219 285.601562 L 295.800781 285.601562 Z M 295.800781 244.800781 " style=" stroke:none;fill-rule:nonzero;fill:rgb(52.156863%,34.117647%,22.352941%);fill-opacity:1;" />
<path d="M 255 244.800781 L 275.398438 244.800781 L 275.398438 285.601562 L 255 285.601562 Z M 255 244.800781 " style=" stroke:none;fill-rule:nonzero;fill:rgb(52.156863%,34.117647%,22.352941%);fill-opacity:1;" />
<path d="M 336.601562 244.800781 L 357 244.800781 L 357 285.601562 L 336.601562 285.601562 Z M 336.601562 244.800781 " style=" stroke:none;fill-rule:nonzero;fill:rgb(52.156863%,34.117647%,22.352941%);fill-opacity:1;" />
<path d="M 295.800781 204 L 316.199219 204 L 316.199219 224.398438 L 295.800781 224.398438 Z M 295.800781 204 " style=" stroke:none;fill-rule:nonzero;fill:rgb(52.156863%,34.117647%,22.352941%);fill-opacity:1;" />
<path d="M 61.199219 316.199219 L 81.601562 316.199219 L 81.601562 357 L 61.199219 357 Z M 61.199219 316.199219 " style=" stroke:none;fill-rule:nonzero;fill:rgb(52.156863%,34.117647%,22.352941%);fill-opacity:1;" />
<path d="M 142.800781 316.199219 L 163.199219 316.199219 L 163.199219 357 L 142.800781 357 Z M 142.800781 316.199219 " style=" stroke:none;fill-rule:nonzero;fill:rgb(52.156863%,34.117647%,22.352941%);fill-opacity:1;" />
<path d="M 102 418.199219 L 122.398438 418.199219 L 122.398438 448.800781 L 102 448.800781 Z M 102 418.199219 " style=" stroke:none;fill-rule:nonzero;fill:rgb(52.156863%,34.117647%,22.352941%);fill-opacity:1;" />
<path d="M 51 520.199219 L 71.398438 520.199219 L 71.398438 540.601562 L 51 540.601562 Z M 51 520.199219 " style=" stroke:none;fill-rule:nonzero;fill:rgb(52.156863%,34.117647%,22.352941%);fill-opacity:1;" />
<path d="M 153 520.199219 L 173.398438 520.199219 L 173.398438 540.601562 L 153 540.601562 Z M 153 520.199219 " style=" stroke:none;fill-rule:nonzero;fill:rgb(52.156863%,34.117647%,22.352941%);fill-opacity:1;" />
<path d="M 489.601562 0 L 510 0 L 510 58.648438 L 510.929688 61.199219 L 488.671875 61.199219 L 489.601562 58.648438 Z M 489.601562 0 " style=" stroke:none;fill-rule:nonzero;fill:rgb(65.098039%,47.058824%,33.333333%);fill-opacity:1;" />
<path d="M 581.398438 255 L 601.800781 285.601562 L 397.800781 285.601562 L 418.199219 255 L 488.671875 61.199219 L 510.929688 61.199219 Z M 581.398438 255 " style=" stroke:none;fill-rule:nonzero;fill:rgb(52.156863%,34.117647%,22.352941%);fill-opacity:1;" />
<path d="M 408 285.601562 L 591.601562 285.601562 L 591.601562 601.800781 L 408 601.800781 Z M 408 285.601562 " style=" stroke:none;fill-rule:nonzero;fill:rgb(92.156863%,48.627451%,8.235294%);fill-opacity:1;" />
<path d="M 530.398438 316.199219 L 550.800781 316.199219 L 550.800781 357 L 530.398438 357 Z M 530.398438 316.199219 " style=" stroke:none;fill-rule:nonzero;fill:rgb(52.156863%,34.117647%,22.352941%);fill-opacity:1;" />
<path d="M 448.800781 316.199219 L 469.199219 316.199219 L 469.199219 357 L 448.800781 357 Z M 448.800781 316.199219 " style=" stroke:none;fill-rule:nonzero;fill:rgb(52.156863%,34.117647%,22.352941%);fill-opacity:1;" />
<path d="M 489.601562 418.199219 L 510 418.199219 L 510 448.800781 L 489.601562 448.800781 Z M 489.601562 418.199219 " style=" stroke:none;fill-rule:nonzero;fill:rgb(52.156863%,34.117647%,22.352941%);fill-opacity:1;" />
<path d="M 540.601562 520.199219 L 561 520.199219 L 561 540.601562 L 540.601562 540.601562 Z M 540.601562 520.199219 " style=" stroke:none;fill-rule:nonzero;fill:rgb(52.156863%,34.117647%,22.352941%);fill-opacity:1;" />
<path d="M 438.601562 520.199219 L 459 520.199219 L 459 540.601562 L 438.601562 540.601562 Z M 438.601562 520.199219 " style=" stroke:none;fill-rule:nonzero;fill:rgb(52.156863%,34.117647%,22.352941%);fill-opacity:1;" />
<path d="M 193.800781 285.601562 L 214.199219 285.601562 L 214.199219 612 L 193.800781 612 Z M 193.800781 285.601562 " style=" stroke:none;fill-rule:nonzero;fill:rgb(87.058824%,41.960784%,0%);fill-opacity:1;" />
<path d="M 397.800781 285.601562 L 418.199219 285.601562 L 418.199219 612 L 397.800781 612 Z M 397.800781 285.601562 " style=" stroke:none;fill-rule:nonzero;fill:rgb(87.058824%,41.960784%,0%);fill-opacity:1;" />
<path d="M 0 591.601562 L 612 591.601562 L 612 612 L 0 612 Z M 0 591.601562 " style=" stroke:none;fill-rule:nonzero;fill:rgb(94.901961%,52.941176%,14.117647%);fill-opacity:1;" />
<path d="M 0 377.398438 L 612 377.398438 L 612 397.800781 L 0 397.800781 Z M 0 377.398438 " style=" stroke:none;fill-rule:nonzero;fill:rgb(94.901961%,52.941176%,14.117647%);fill-opacity:1;" />
<path d="M 0 479.398438 L 612 479.398438 L 612 499.800781 L 0 499.800781 Z M 0 479.398438 " style=" stroke:none;fill-rule:nonzero;fill:rgb(94.901961%,52.941176%,14.117647%);fill-opacity:1;" />
<path d="M 193.800781 377.398438 L 214.199219 377.398438 L 214.199219 397.800781 L 193.800781 397.800781 Z M 193.800781 377.398438 " style=" stroke:none;fill-rule:nonzero;fill:rgb(92.156863%,48.627451%,8.235294%);fill-opacity:1;" />
<path d="M 193.800781 479.398438 L 214.199219 479.398438 L 214.199219 499.800781 L 193.800781 499.800781 Z M 193.800781 479.398438 " style=" stroke:none;fill-rule:nonzero;fill:rgb(92.156863%,48.627451%,8.235294%);fill-opacity:1;" />
<path d="M 193.800781 591.601562 L 214.199219 591.601562 L 214.199219 612 L 193.800781 612 Z M 193.800781 591.601562 " style=" stroke:none;fill-rule:nonzero;fill:rgb(92.156863%,48.627451%,8.235294%);fill-opacity:1;" />
<path d="M 397.800781 377.398438 L 418.199219 377.398438 L 418.199219 397.800781 L 397.800781 397.800781 Z M 397.800781 377.398438 " style=" stroke:none;fill-rule:nonzero;fill:rgb(92.156863%,48.627451%,8.235294%);fill-opacity:1;" />
<path d="M 397.800781 479.398438 L 418.199219 479.398438 L 418.199219 499.800781 L 397.800781 499.800781 Z M 397.800781 479.398438 " style=" stroke:none;fill-rule:nonzero;fill:rgb(92.156863%,48.627451%,8.235294%);fill-opacity:1;" />
<path d="M 397.800781 591.601562 L 418.199219 591.601562 L 418.199219 612 L 397.800781 612 Z M 397.800781 591.601562 " style=" stroke:none;fill-rule:nonzero;fill:rgb(92.156863%,48.627451%,8.235294%);fill-opacity:1;" />
<path d="M 102 224.398438 L 122.398438 224.398438 L 122.398438 255 L 102 255 Z M 102 224.398438 " style=" stroke:none;fill-rule:nonzero;fill:rgb(65.098039%,47.058824%,33.333333%);fill-opacity:1;" />
<path d="M 489.601562 224.398438 L 510 224.398438 L 510 255 L 489.601562 255 Z M 489.601562 224.398438 " style=" stroke:none;fill-rule:nonzero;fill:rgb(65.098039%,47.058824%,33.333333%);fill-opacity:1;" />
<path d="M 346.800781 612 L 265.199219 612 L 265.199219 571.199219 C 265.199219 548.667969 283.46875 530.398438 306 530.398438 C 328.53125 530.398438 346.800781 548.667969 346.800781 571.199219 Z M 346.800781 612 " style=" stroke:none;fill-rule:nonzero;fill:rgb(52.156863%,34.117647%,22.352941%);fill-opacity:1;" />
<path d="M 316.199219 316.199219 L 336.601562 316.199219 L 336.601562 357 L 316.199219 357 Z M 316.199219 316.199219 " style=" stroke:none;fill-rule:nonzero;fill:rgb(52.156863%,34.117647%,22.352941%);fill-opacity:1;" />
<path d="M 275.398438 316.199219 L 295.800781 316.199219 L 295.800781 357 L 275.398438 357 Z M 275.398438 316.199219 " style=" stroke:none;fill-rule:nonzero;fill:rgb(52.156863%,34.117647%,22.352941%);fill-opacity:1;" />
<path d="M 234.601562 316.199219 L 255 316.199219 L 255 357 L 234.601562 357 Z M 234.601562 316.199219 " style=" stroke:none;fill-rule:nonzero;fill:rgb(52.156863%,34.117647%,22.352941%);fill-opacity:1;" />
<path d="M 357 316.199219 L 377.398438 316.199219 L 377.398438 357 L 357 357 Z M 357 316.199219 " style=" stroke:none;fill-rule:nonzero;fill:rgb(52.156863%,34.117647%,22.352941%);fill-opacity:1;" />
<path d="M 316.199219 418.199219 L 336.601562 418.199219 L 336.601562 459 L 316.199219 459 Z M 316.199219 418.199219 " style=" stroke:none;fill-rule:nonzero;fill:rgb(52.156863%,34.117647%,22.352941%);fill-opacity:1;" />
<path d="M 275.398438 418.199219 L 295.800781 418.199219 L 295.800781 459 L 275.398438 459 Z M 275.398438 418.199219 " style=" stroke:none;fill-rule:nonzero;fill:rgb(52.156863%,34.117647%,22.352941%);fill-opacity:1;" />
<path d="M 234.601562 418.199219 L 255 418.199219 L 255 459 L 234.601562 459 Z M 234.601562 418.199219 " style=" stroke:none;fill-rule:nonzero;fill:rgb(52.156863%,34.117647%,22.352941%);fill-opacity:1;" />
<path d="M 357 418.199219 L 377.398438 418.199219 L 377.398438 459 L 357 459 Z M 357 418.199219 " style=" stroke:none;fill-rule:nonzero;fill:rgb(52.156863%,34.117647%,22.352941%);fill-opacity:1;" />
</g>
</svg>